<?xml version="1.0" encoding="utf-8"?>
<!-- Generator: Adobe Illustrator 19.0.0, SVG Export Plug-In . SVG Version: 6.00 Build 0)  -->
<svg version="1.1" id="Calque_1" xmlns="http://www.w3.org/2000/svg" xmlns:xlink="http://www.w3.org/1999/xlink" x="0px" y="0px"
	 viewBox="0 0 167.4 134.5" style="enable-background:new 0 0 167.4 134.5;" xml:space="preserve">
<style type="text/css">
	.st0{opacity:0.2;fill:#3C63AA;}
	.st1{fill:#3C63AA;}
	.st2{fill:none;stroke:#3C63AA;stroke-miterlimit:10;}
</style>
<g id="XMLID_1165_">
	<g id="XMLID_1188_">
		<circle id="XMLID_1192_" class="st0" cx="98.9" cy="67.2" r="50"/>
		<circle id="XMLID_1191_" class="st0" cx="98.9" cy="67.2" r="37.5"/>
		<circle id="XMLID_1190_" class="st0" cx="98.9" cy="67.2" r="25"/>
		<circle id="XMLID_1189_" class="st0" cx="98.9" cy="67.2" r="12.5"/>
	</g>
	<g id="XMLID_135_">
		<path id="XMLID_136_" class="st1" d="M27.6,23.5h-1.1v-0.8h1.1v-1.2h0.8v1.2h1.1v0.8h-1.1v1.3h-0.8V23.5z"/>
		<path id="XMLID_138_" class="st1" d="M31.8,25.6l1.5-2.8c0.5-1,0.7-1.5,0.7-1.8c0-0.5-0.2-0.7-0.6-0.7c-0.5,0-0.7,0.4-0.7,1.1v0.4
			h-0.8c-0.1-0.3-0.1-0.5-0.1-0.8c0-0.7,0.5-1.4,1.5-1.4c1.2,0,1.6,0.6,1.6,1.5c0,0.5-0.2,1-0.7,1.9l-1.3,2.5h1.9v0.8h-3.1V25.6z"/>
		<path id="XMLID_140_" class="st1" d="M35.7,21.4c0-1.8,1-2,1.6-2c0.6,0,1.6,0.2,1.6,2v2.8c0,1.8-1.1,2-1.6,2c-0.6,0-1.6-0.2-1.6-2
			V21.4z M37.3,25.5c0.4,0,0.6-0.2,0.6-0.8v-3.6c0-0.6-0.2-0.8-0.6-0.8c-0.4,0-0.6,0.3-0.6,0.8v3.6C36.7,25.2,36.9,25.5,37.3,25.5z"
			/>
	</g>
	<g id="XMLID_119_">
		<path id="XMLID_120_" class="st1" d="M18.2,41.3h0.8v-4.6l-0.8,0.7l-0.4-0.5l1.5-1.6h0.8l0,0l0,0v5.9h0.8V42h-2.5V41.3z"/>
		<path id="XMLID_122_" class="st1" d="M21.4,41.3h0.8v-4.6l-0.8,0.7l-0.4-0.5l1.5-1.6h0.8l0,0l0,0v5.9H24V42h-2.5V41.3z"/>
		<path id="XMLID_124_" class="st1" d="M26.3,38.6h2.9v0.8h-2.9V38.6z"/>
		<path id="XMLID_127_" class="st1" d="M31.8,41.4l1.5-2.8c0.5-1,0.7-1.5,0.7-1.8c0-0.5-0.2-0.7-0.6-0.7c-0.5,0-0.7,0.4-0.7,1.1v0.4
			h-0.8c-0.1-0.3-0.1-0.5-0.1-0.8c0-0.7,0.5-1.4,1.5-1.4c1.2,0,1.6,0.6,1.6,1.5c0,0.5-0.2,1-0.7,1.9l-1.3,2.5h1.9V42h-3.1V41.4z"/>
		<path id="XMLID_132_" class="st1" d="M35.7,37.3c0-1.8,1-2,1.6-2c0.6,0,1.6,0.2,1.6,2v2.8c0,1.8-1.1,2-1.6,2c-0.6,0-1.6-0.2-1.6-2
			V37.3z M37.3,41.3c0.4,0,0.6-0.2,0.6-0.8v-3.6c0-0.6-0.2-0.8-0.6-0.8c-0.4,0-0.6,0.3-0.6,0.8v3.6C36.7,41.1,36.9,41.3,37.3,41.3z"
			/>
	</g>
	<g id="XMLID_109_">
		<path id="XMLID_110_" class="st1" d="M21.3,54.4H22v0.5c0,0.6,0.2,0.9,0.6,0.9c0.4,0,0.6-0.3,0.6-0.9v-1.3c0-0.7-0.2-0.8-0.6-0.8
			c-0.3,0-0.5,0.2-0.6,0.4h-0.7v-3.4h2.9v0.9h-2v1.6c0.2-0.2,0.6-0.4,0.9-0.4c0.8,0,1.2,0.6,1.2,1.6v1.1c0,1.4-0.8,1.8-1.6,1.8
			c-1,0-1.5-0.6-1.5-1.4C21.2,54.9,21.2,54.7,21.3,54.4z"/>
		<path id="XMLID_112_" class="st1" d="M26.9,53.1h2.9v0.8h-2.9V53.1z"/>
		<path id="XMLID_114_" class="st1" d="M32.6,55.8h0.8v-4.6l-0.8,0.7l-0.4-0.5l1.5-1.6h0.8l0,0l0,0v5.9h0.8v0.8h-2.5V55.8z"/>
		<path id="XMLID_116_" class="st1" d="M35.7,51.8c0-1.8,1-2,1.6-2c0.6,0,1.6,0.2,1.6,2v2.8c0,1.8-1.1,2-1.6,2c-0.6,0-1.6-0.2-1.6-2
			V51.8z M37.3,55.8c0.4,0,0.6-0.2,0.6-0.8v-3.6c0-0.6-0.2-0.8-0.6-0.8c-0.4,0-0.6,0.3-0.6,0.8V55C36.7,55.6,36.9,55.8,37.3,55.8z"
			/>
	</g>
	<g id="XMLID_102_">
		<path id="XMLID_103_" class="st1" d="M24.5,70l1.5-2.8c0.5-1,0.7-1.5,0.7-1.8c0-0.5-0.2-0.7-0.6-0.7c-0.5,0-0.7,0.4-0.7,1.1V66
			h-0.8c-0.1-0.3-0.1-0.5-0.1-0.8c0-0.7,0.5-1.4,1.5-1.4c1.2,0,1.6,0.6,1.6,1.5c0,0.5-0.2,1-0.7,1.9l-1.3,2.5h1.9v0.8h-3.1V70z"/>
		<path id="XMLID_105_" class="st1" d="M30.2,67.1h2.9v0.8h-2.9V67.1z"/>
		<path id="XMLID_107_" class="st1" d="M35.9,68.4h0.8V69c0,0.6,0.2,0.9,0.6,0.9c0.4,0,0.6-0.3,0.6-0.9v-1.3c0-0.7-0.2-0.8-0.6-0.8
			c-0.3,0-0.5,0.2-0.6,0.4h-0.7v-3.4h2.9v0.9h-2v1.6c0.2-0.2,0.6-0.4,0.9-0.4c0.8,0,1.2,0.6,1.2,1.6v1.1c0,1.4-0.8,1.8-1.6,1.8
			c-1,0-1.5-0.6-1.5-1.4C35.8,68.9,35.8,68.7,35.9,68.4z"/>
	</g>
	<line id="XMLID_1175_" class="st2" x1="43.1" y1="22" x2="99.1" y2="22"/>
	<line id="XMLID_1174_" class="st2" x1="43.1" y1="37" x2="99.1" y2="37"/>
	<line id="XMLID_1173_" class="st2" x1="43.1" y1="52" x2="99.1" y2="52"/>
</g>
<line id="XMLID_1200_" class="st2" x1="43.1" y1="67" x2="90.1" y2="67"/>
<g id="XMLID_99_">
	<path id="XMLID_100_" class="st1" d="M36.7,82.8h0.8v-4.6L36.6,79l-0.4-0.5l1.5-1.6h0.8l0,0l0,0v5.9h0.8v0.8h-2.5V82.8z"/>
</g>
<polyline id="XMLID_1193_" class="st2" points="43.1,80 80.4,80 98.6,66.7 "/>
<path id="XMLID_1201_" class="st0" d="M98.9,71.7c-2.5,0-4.5-2-4.5-4.5s2-4.5,4.5-4.5s4.5,2,4.5,4.5S101.4,71.7,98.9,71.7z"/>
</svg>
