<?xml version="1.0" encoding="utf-8"?>
<!-- Generator: Adobe Illustrator 19.0.0, SVG Export Plug-In . SVG Version: 6.00 Build 0)  -->
<svg version="1.1" id="Calque_1" xmlns="http://www.w3.org/2000/svg" xmlns:xlink="http://www.w3.org/1999/xlink" x="0px" y="0px"
	 viewBox="0 0 220 63.3" style="enable-background:new 0 0 220 63.3;" xml:space="preserve">
<style type="text/css">
	.st0{fill:#1D1D1B;}
	.st1{fill:#D8E0EE;}
	.st2{fill:#FFFFFF;}
	.st3{fill:#BBC9E2;}
	.st4{fill:#9DB1D5;}
	.st5{fill:#6D8AC0;}
	.st6{fill:#4469AE;}
</style>
<g id="XMLID_61_">
	<path id="XMLID_62_" class="st0" d="M43.2,47.1H44v0.3c0,0.8,0.3,1.1,0.7,1.1c0.4,0,0.6-0.2,0.6-0.8v-0.7c0-0.6-0.2-0.9-0.7-0.9
		h-0.4v-0.7h0.4c0.3,0,0.6-0.2,0.6-0.8V44c0-0.5-0.2-0.7-0.6-0.7c-0.4,0-0.7,0.4-0.7,1.1v0.4h-0.8c-0.1-0.3-0.1-0.5-0.1-0.8
		c0-0.7,0.5-1.4,1.6-1.4c1.2,0,1.6,0.5,1.6,1.5v0.4c0,0.8-0.4,1.2-0.8,1.4v0c0.5,0.2,0.9,0.6,0.9,1.4v0.4c0,1.2-0.8,1.7-1.7,1.7
		c-1,0-1.6-0.5-1.6-1.4C43.1,47.7,43.1,47.4,43.2,47.1z"/>
	<path id="XMLID_64_" class="st0" d="M49,45.8h3v0.8h-3V45.8z"/>
	<path id="XMLID_66_" class="st0" d="M54.4,45.9l2.6-1.6v0.9l-1.7,0.9v0l1.7,0.9v0.9l-2.6-1.6V45.9z"/>
	<path id="XMLID_68_" class="st0" d="M59.4,44.5c0-1.9,1.1-2,1.7-2c1.1,0,1.5,0.6,1.5,1.3c0,0.2,0,0.4-0.1,0.6h-0.8v-0.2
		c0-0.8-0.2-1-0.6-1c-0.5,0-0.7,0.3-0.7,1v1.3c0.2-0.2,0.5-0.4,1-0.4c0.6,0,1.3,0.3,1.3,1.7v0.7c0,1.4-0.6,2-1.6,2
		c-1.1,0-1.7-0.6-1.7-2.1V44.5z M61.1,48.6c0.4,0,0.6-0.3,0.6-0.9v-1c0-0.7-0.2-0.9-0.6-0.9c-0.3,0-0.5,0.2-0.7,0.4v1.5
		C60.5,48.3,60.7,48.6,61.1,48.6z"/>
</g>
<g id="XMLID_44_">
	<path id="XMLID_45_" class="st0" d="M78.2,44.5c0-1.9,1.1-2,1.7-2c1.1,0,1.5,0.6,1.5,1.3c0,0.2,0,0.4-0.1,0.6h-0.8v-0.2
		c0-0.8-0.2-1-0.6-1c-0.5,0-0.7,0.3-0.7,1v1.3c0.2-0.2,0.5-0.4,1-0.4c0.6,0,1.3,0.3,1.3,1.7v0.7c0,1.4-0.6,2-1.6,2
		c-1.1,0-1.7-0.6-1.7-2.1V44.5z M79.9,48.6c0.4,0,0.6-0.3,0.6-0.9v-1c0-0.7-0.2-0.9-0.6-0.9c-0.3,0-0.5,0.2-0.7,0.4v1.5
		C79.2,48.3,79.4,48.6,79.9,48.6z"/>
	<path id="XMLID_48_" class="st0" d="M84.1,45.8h3v0.8h-3V45.8z"/>
	<path id="XMLID_56_" class="st0" d="M89.5,45.9l2.6-1.6v0.9l-1.7,0.9v0l1.7,0.9v0.9l-2.6-1.6V45.9z"/>
	<path id="XMLID_58_" class="st0" d="M97.8,47.3c0,1.9-1.1,2-1.7,2c-1.1,0-1.6-0.6-1.6-1.3c0-0.2,0-0.4,0.1-0.6h0.8v0.1
		c0,0.8,0.2,1,0.7,1c0.4,0,0.7-0.3,0.7-1v-1.2c-0.2,0.2-0.5,0.4-0.9,0.4c-0.6,0-1.3-0.3-1.3-1.7v-0.7c0-1.4,0.6-2,1.6-2
		c1.1,0,1.7,0.5,1.7,2V47.3z M96.1,43.2c-0.4,0-0.6,0.3-0.6,0.9v1c0,0.7,0.2,0.9,0.6,0.9c0.3,0,0.5-0.2,0.7-0.4v-1.6
		C96.8,43.4,96.6,43.2,96.1,43.2z"/>
</g>
<g id="XMLID_32_">
	<path id="XMLID_33_" class="st0" d="M115.8,47.3c0,1.9-1.1,2-1.7,2c-1.1,0-1.6-0.6-1.6-1.3c0-0.2,0-0.4,0.1-0.6h0.8v0.1
		c0,0.8,0.2,1,0.7,1c0.4,0,0.7-0.3,0.7-1v-1.2c-0.2,0.2-0.5,0.4-0.9,0.4c-0.6,0-1.3-0.3-1.3-1.7v-0.7c0-1.4,0.6-2,1.6-2
		c1.1,0,1.7,0.5,1.7,2V47.3z M114.1,43.2c-0.4,0-0.6,0.3-0.6,0.9v1c0,0.7,0.2,0.9,0.6,0.9c0.3,0,0.5-0.2,0.7-0.4v-1.6
		C114.8,43.4,114.6,43.2,114.1,43.2z"/>
	<path id="XMLID_36_" class="st0" d="M118.5,45.8h3v0.8h-3V45.8z"/>
	<path id="XMLID_38_" class="st0" d="M123.9,45.9l2.6-1.6v0.9l-1.7,0.9v0l1.7,0.9v0.9l-2.6-1.6V45.9z"/>
	<path id="XMLID_40_" class="st0" d="M129.1,48.5h0.8v-4.6l-0.8,0.7l-0.4-0.5l1.5-1.6h0.8l0,0l0,0v6h0.8v0.8h-2.6V48.5z"/>
	<path id="XMLID_42_" class="st0" d="M132.2,48.7l1.5-2.9c0.5-1.1,0.7-1.5,0.7-1.9c0-0.6-0.2-0.7-0.6-0.7c-0.5,0-0.7,0.4-0.7,1.1
		v0.4h-0.8c-0.1-0.3-0.1-0.5-0.1-0.8c0-0.7,0.5-1.4,1.6-1.4c1.2,0,1.7,0.6,1.7,1.5c0,0.6-0.2,1-0.7,2l-1.3,2.5h2v0.8h-3.2V48.7z"/>
</g>
<g id="XMLID_20_">
	<path id="XMLID_21_" class="st0" d="M149.1,48.5h0.8v-4.6l-0.8,0.7l-0.4-0.5l1.5-1.6h0.8l0,0l0,0v6h0.8v0.8h-2.6V48.5z"/>
	<path id="XMLID_23_" class="st0" d="M152.2,48.7l1.5-2.9c0.5-1.1,0.7-1.5,0.7-1.9c0-0.6-0.2-0.7-0.6-0.7c-0.5,0-0.7,0.4-0.7,1.1
		v0.4h-0.8c-0.1-0.3-0.1-0.5-0.1-0.8c0-0.7,0.5-1.4,1.6-1.4c1.2,0,1.7,0.6,1.7,1.5c0,0.6-0.2,1-0.7,2l-1.3,2.5h2v0.8h-3.2V48.7z"/>
	<path id="XMLID_25_" class="st0" d="M158,45.8h3v0.8h-3V45.8z"/>
	<path id="XMLID_27_" class="st0" d="M163.6,48.7l1.5-2.9c0.5-1.1,0.7-1.5,0.7-1.9c0-0.6-0.2-0.7-0.6-0.7c-0.5,0-0.7,0.4-0.7,1.1
		v0.4h-0.8c-0.1-0.3-0.1-0.5-0.1-0.8c0-0.7,0.5-1.4,1.6-1.4c1.2,0,1.7,0.6,1.7,1.5c0,0.6-0.2,1-0.7,2l-1.3,2.5h2v0.8h-3.2V48.7z"/>
	<path id="XMLID_29_" class="st0" d="M167.5,44.5c0-1.8,1.1-2,1.7-2c0.6,0,1.7,0.2,1.7,2v2.9c0,1.8-1.1,2-1.7,2
		c-0.6,0-1.7-0.3-1.7-2V44.5z M169.2,48.6c0.4,0,0.6-0.2,0.6-0.8v-3.7c0-0.6-0.2-0.8-0.6-0.8c-0.4,0-0.6,0.3-0.6,0.8v3.7
		C168.6,48.3,168.8,48.6,169.2,48.6z"/>
</g>
<g id="XMLID_6_">
	<path id="XMLID_7_" class="st0" d="M185.9,46.6h-1.1v-0.8h1.1v-1.2h0.8v1.2h1.1v0.8h-1.1v1.3h-0.8V46.6z"/>
	<path id="XMLID_9_" class="st0" d="M190.1,47.4v-1.7c0-1.8,0.9-1.9,1.2-1.9c0.4,0,0.7,0.2,0.8,0.5l0,0l0-0.7v-1.5h1v7.2h-0.8
		l-0.1-0.5c-0.2,0.3-0.5,0.6-1,0.6C190.9,49.4,190.1,49.3,190.1,47.4z M192.1,48.2v-3.3c-0.1-0.2-0.3-0.4-0.5-0.4
		c-0.3,0-0.5,0.2-0.5,1v2.1c0,0.8,0.2,1,0.5,1C191.8,48.6,192,48.4,192.1,48.2z"/>
	<path id="XMLID_12_" class="st0" d="M194,47.1v-1c0-2.1,1-2.3,1.6-2.3c0.7,0,1.4,0.4,1.4,1.7c0,0.4-0.1,0.9-0.1,1.3H195v0.6
		c0,1,0.1,1.3,0.6,1.3c0.2,0,0.5-0.2,0.5-0.8v-0.2h0.8v0.2c0,1-0.5,1.5-1.4,1.5C194.5,49.4,194,48.7,194,47.1z M196,46.1
		c0-0.1,0-0.4,0-0.6c0-0.7-0.2-1-0.5-1c-0.4,0-0.5,0.3-0.5,1.2v0.3H196z"/>
	<path id="XMLID_15_" class="st0" d="M199.4,48.7l1.5-2.9c0.5-1.1,0.7-1.5,0.7-1.9c0-0.6-0.2-0.7-0.6-0.7c-0.5,0-0.7,0.4-0.7,1.1
		v0.4h-0.8c-0.1-0.3-0.1-0.5-0.1-0.8c0-0.7,0.5-1.4,1.6-1.4c1.2,0,1.7,0.6,1.7,1.5c0,0.6-0.2,1-0.7,2l-1.3,2.5h2v0.8h-3.2V48.7z"/>
	<path id="XMLID_17_" class="st0" d="M203.3,44.5c0-1.8,1.1-2,1.7-2c0.6,0,1.7,0.2,1.7,2v2.9c0,1.8-1.1,2-1.7,2
		c-0.6,0-1.7-0.3-1.7-2V44.5z M205,48.6c0.4,0,0.6-0.2,0.6-0.8v-3.7c0-0.6-0.2-0.8-0.6-0.8c-0.4,0-0.6,0.3-0.6,0.8v3.7
		C204.4,48.3,204.6,48.6,205,48.6z"/>
</g>
<rect id="XMLID_3740_" x="46.3" y="22.8" class="st1" width="11.5" height="11.5"/>
<g id="XMLID_1_">
	<path id="XMLID_2_" class="st0" d="M19.8,45.9l2.6-1.6v0.9l-1.7,0.9v0l1.7,0.9v0.9l-2.6-1.6V45.9z"/>
	<path id="XMLID_4_" class="st0" d="M25,47.1h0.8v0.3c0,0.8,0.3,1.1,0.7,1.1c0.4,0,0.6-0.2,0.6-0.8v-0.7c0-0.6-0.2-0.9-0.7-0.9H26
		v-0.7h0.4c0.3,0,0.6-0.2,0.6-0.8V44c0-0.5-0.2-0.7-0.6-0.7c-0.4,0-0.7,0.4-0.7,1.1v0.4H25c-0.1-0.3-0.1-0.5-0.1-0.8
		c0-0.7,0.5-1.4,1.6-1.4c1.2,0,1.6,0.5,1.6,1.5v0.4c0,0.8-0.4,1.2-0.8,1.4v0c0.5,0.2,0.9,0.6,0.9,1.4v0.4c0,1.2-0.8,1.7-1.7,1.7
		c-1,0-1.6-0.5-1.6-1.4C24.9,47.7,24.9,47.4,25,47.1z"/>
</g>
<rect id="XMLID_3737_" x="18.4" y="22.8" class="st2" width="11.5" height="11.5"/>
<rect id="XMLID_3736_" x="82.2" y="22.8" class="st3" width="11.5" height="11.5"/>
<rect id="XMLID_3735_" x="118.2" y="22.8" class="st4" width="11.5" height="11.5"/>
<rect id="XMLID_3734_" x="154.1" y="22.8" class="st5" width="11.5" height="11.5"/>
<rect id="XMLID_3733_" x="190.1" y="22.8" class="st6" width="11.5" height="11.5"/>
</svg>
