<?xml version="1.0" encoding="utf-8"?>
<!-- Generator: Adobe Illustrator 19.0.0, SVG Export Plug-In . SVG Version: 6.00 Build 0)  -->
<svg version="1.1" id="Calque_1" xmlns="http://www.w3.org/2000/svg" xmlns:xlink="http://www.w3.org/1999/xlink" x="0px" y="0px"
	 viewBox="0 0 220 63.3" style="enable-background:new 0 0 220 63.3;" xml:space="preserve">
<style type="text/css">
	.st0{fill:none;}
	.st1{fill:#1D1D1B;}
	.st2{font-family:'FjallaOne';}
	.st3{font-size:8.1147px;}
	.st4{fill:#D8E0EE;}
	.st5{fill:#FFFFFF;}
	.st6{fill:#BBC9E2;}
	.st7{fill:#9DB1D5;}
	.st8{fill:#6D8AC0;}
	.st9{fill:#4469AE;}
</style>
<rect id="XMLID_54_" x="41" y="42.1" class="st0" width="23.9" height="77.3"/>
<text id="XMLID_3749_" transform="matrix(1 0 0 1 42.6764 49.3197)" class="st1 st2 st3">3 - &lt; 6</text>
<rect id="XMLID_53_" x="66.8" y="42.1" class="st0" width="42.3" height="77.3"/>
<text id="XMLID_3747_" transform="matrix(1 0 0 1 77.7452 49.3197)" class="st1 st2 st3">6 - &lt; 9</text>
<rect id="XMLID_52_" x="102.8" y="42.1" class="st0" width="42.3" height="77.3"/>
<text id="XMLID_3745_" transform="matrix(1 0 0 1 112.1652 49.3197)" class="st1 st2 st3">9 - &lt; 12</text>
<rect id="XMLID_51_" x="138.7" y="42.1" class="st0" width="42.3" height="77.3"/>
<text id="XMLID_3743_" transform="matrix(1 0 0 1 148.5372 49.3197)" class="st1 st2 st3">12 - 20</text>
<rect id="XMLID_50_" x="174.7" y="42.1" class="st0" width="42.3" height="77.3"/>
<text id="XMLID_3741_" transform="matrix(1 0 0 1 184.6339 49.3197)" class="st1 st2 st3">+ de 20</text>
<rect id="XMLID_3740_" x="46.3" y="22.8" class="st4" width="11.5" height="11.5"/>
<rect id="XMLID_49_" x="15" y="42.1" class="st0" width="18.3" height="77.3"/>
<text id="XMLID_3738_" transform="matrix(1 0 0 1 19.6691 49.3197)" class="st1 st2 st3">&lt; 3</text>
<rect id="XMLID_3737_" x="18.4" y="22.8" class="st5" width="11.5" height="11.5"/>
<rect id="XMLID_3736_" x="82.2" y="22.8" class="st6" width="11.5" height="11.5"/>
<rect id="XMLID_3735_" x="118.2" y="22.8" class="st7" width="11.5" height="11.5"/>
<rect id="XMLID_3734_" x="154.1" y="22.8" class="st8" width="11.5" height="11.5"/>
<rect id="XMLID_3733_" x="190.1" y="22.8" class="st9" width="11.5" height="11.5"/>
</svg>
