<?xml version="1.0" encoding="utf-8"?>
<!-- Generator: Adobe Illustrator 19.0.0, SVG Export Plug-In . SVG Version: 6.00 Build 0)  -->
<svg version="1.1" id="Calque_1" xmlns="http://www.w3.org/2000/svg" xmlns:xlink="http://www.w3.org/1999/xlink" x="0px" y="0px"
	 viewBox="0 0 255.9 63.3" style="enable-background:new 0 0 255.9 63.3;" xml:space="preserve">
<style type="text/css">
	.st0{fill:#1D1D1B;}
	.st1{fill:#F4D7CB;}
	.st2{fill:#FFFFFF;}
	.st3{fill:#EBB7A5;}
	.st4{fill:#E2967F;}
	.st5{fill:#D9745E;}
	.st6{fill:#D0523F;}
	.st7{fill:#C32121;}
</style>
<g id="XMLID_84_">
	<path id="XMLID_85_" class="st0" d="M43.5,48.5h0.8v-4.6l-0.8,0.7L43,44.1l1.5-1.6h0.8l0,0l0,0v6h0.8v0.8h-2.6V48.5z"/>
	<path id="XMLID_87_" class="st0" d="M48.4,45.8h3v0.8h-3V45.8z"/>
	<path id="XMLID_89_" class="st0" d="M54.2,48.5H55v-4.6l-0.8,0.7l-0.4-0.5l1.5-1.6H56l0,0l0,0v6h0.8v0.8h-2.6V48.5z"/>
	<path id="XMLID_91_" class="st0" d="M57.3,44.5c0-1.8,1.1-2,1.7-2c0.6,0,1.7,0.2,1.7,2v2.9c0,1.8-1.1,2-1.7,2c-0.6,0-1.7-0.3-1.7-2
		V44.5z M59,48.6c0.4,0,0.6-0.2,0.6-0.8v-3.7c0-0.6-0.2-0.8-0.6-0.8c-0.4,0-0.6,0.3-0.6,0.8v3.7C58.4,48.3,58.6,48.6,59,48.6z"/>
</g>
<g id="XMLID_72_">
	<path id="XMLID_73_" class="st0" d="M77.6,48.5h0.8v-4.6l-0.8,0.7l-0.4-0.5l1.5-1.6h0.8l0,0l0,0v6h0.8v0.8h-2.6V48.5z"/>
	<path id="XMLID_75_" class="st0" d="M80.9,48.5h0.8v-4.6l-0.8,0.7l-0.4-0.5l1.5-1.6h0.8l0,0l0,0v6h0.8v0.8h-2.6V48.5z"/>
	<path id="XMLID_77_" class="st0" d="M85.8,45.8h3v0.8h-3V45.8z"/>
	<path id="XMLID_79_" class="st0" d="M91.4,48.7l1.5-2.9c0.5-1.1,0.7-1.5,0.7-1.9c0-0.6-0.2-0.7-0.6-0.7c-0.5,0-0.7,0.4-0.7,1.1v0.4
		h-0.8c-0.1-0.3-0.1-0.5-0.1-0.8c0-0.7,0.5-1.4,1.6-1.4c1.2,0,1.7,0.6,1.7,1.5c0,0.6-0.2,1-0.7,2l-1.3,2.5h2v0.8h-3.2V48.7z"/>
	<path id="XMLID_81_" class="st0" d="M95.3,44.5c0-1.8,1.1-2,1.7-2c0.6,0,1.7,0.2,1.7,2v2.9c0,1.8-1.1,2-1.7,2c-0.6,0-1.7-0.3-1.7-2
		V44.5z M97,48.6c0.4,0,0.6-0.2,0.6-0.8v-3.7c0-0.6-0.2-0.8-0.6-0.8c-0.4,0-0.6,0.3-0.6,0.8v3.7C96.4,48.3,96.6,48.6,97,48.6z"/>
</g>
<g id="XMLID_59_">
	<path id="XMLID_60_" class="st0" d="M112.8,48.7l1.5-2.9c0.5-1.1,0.7-1.5,0.7-1.9c0-0.6-0.2-0.7-0.6-0.7c-0.5,0-0.7,0.4-0.7,1.1
		v0.4h-0.8c-0.1-0.3-0.1-0.5-0.1-0.8c0-0.7,0.5-1.4,1.6-1.4c1.2,0,1.7,0.6,1.7,1.5c0,0.6-0.2,1-0.7,2l-1.3,2.5h2v0.8h-3.2V48.7z"/>
	<path id="XMLID_62_" class="st0" d="M116.9,48.5h0.8v-4.6l-0.8,0.7l-0.4-0.5l1.5-1.6h0.8l0,0l0,0v6h0.8v0.8h-2.6V48.5z"/>
	<path id="XMLID_64_" class="st0" d="M121.8,45.8h3v0.8h-3V45.8z"/>
	<path id="XMLID_66_" class="st0" d="M127.3,47.6l2-5h1.2v4.8h0.6v0.8h-0.6v1.2h-1v-1.2h-2.2V47.6z M129.6,47.3v-1l0.1-2.6h-0.1
		l-1.2,3.6H129.6z"/>
	<path id="XMLID_69_" class="st0" d="M131.8,44.5c0-1.8,1.1-2,1.7-2c0.6,0,1.6,0.2,1.6,2v2.9c0,1.8-1.1,2-1.6,2
		c-0.6,0-1.7-0.3-1.7-2V44.5z M133.5,48.6c0.4,0,0.6-0.2,0.6-0.8v-3.7c0-0.6-0.2-0.8-0.6-0.8c-0.4,0-0.6,0.3-0.6,0.8v3.7
		C132.8,48.3,133,48.6,133.5,48.6z"/>
</g>
<g id="XMLID_45_">
	<path id="XMLID_46_" class="st0" d="M148.5,47.6l2-5h1.2v4.8h0.6v0.8h-0.6v1.2h-1v-1.2h-2.2V47.6z M150.8,47.3v-1l0.1-2.6h-0.1
		l-1.2,3.6H150.8z"/>
	<path id="XMLID_49_" class="st0" d="M153.2,48.5h0.8v-4.6l-0.8,0.7l-0.4-0.5l1.5-1.6h0.8l0,0l0,0v6h0.8v0.8h-2.6V48.5z"/>
	<path id="XMLID_51_" class="st0" d="M158.1,45.8h3v0.8h-3V45.8z"/>
	<path id="XMLID_53_" class="st0" d="M163.7,44.5c0-1.9,1.1-2,1.7-2c1.1,0,1.5,0.6,1.5,1.3c0,0.2,0,0.4-0.1,0.6h-0.8v-0.2
		c0-0.8-0.2-1-0.6-1c-0.5,0-0.7,0.3-0.7,1v1.3c0.2-0.2,0.5-0.4,1-0.4c0.6,0,1.3,0.3,1.3,1.7v0.7c0,1.4-0.6,2-1.6,2
		c-1.1,0-1.7-0.6-1.7-2.1V44.5z M165.4,48.6c0.4,0,0.6-0.3,0.6-0.9v-1c0-0.7-0.2-0.9-0.6-0.9c-0.3,0-0.5,0.2-0.7,0.4v1.5
		C164.7,48.3,164.9,48.6,165.4,48.6z"/>
	<path id="XMLID_56_" class="st0" d="M167.9,44.5c0-1.8,1.1-2,1.7-2c0.6,0,1.7,0.2,1.7,2v2.9c0,1.8-1.1,2-1.7,2
		c-0.6,0-1.7-0.3-1.7-2V44.5z M169.5,48.6c0.4,0,0.6-0.2,0.6-0.8v-3.7c0-0.6-0.2-0.8-0.6-0.8c-0.4,0-0.6,0.3-0.6,0.8v3.7
		C168.9,48.3,169.1,48.6,169.5,48.6z"/>
</g>
<g id="XMLID_23_">
	<path id="XMLID_25_" class="st0" d="M183,44.5c0-1.9,1.1-2,1.7-2c1.1,0,1.5,0.6,1.5,1.3c0,0.2,0,0.4-0.1,0.6h-0.8v-0.2
		c0-0.8-0.2-1-0.6-1c-0.5,0-0.7,0.3-0.7,1v1.3c0.2-0.2,0.5-0.4,1-0.4c0.6,0,1.3,0.3,1.3,1.7v0.7c0,1.4-0.6,2-1.6,2
		c-1.1,0-1.7-0.6-1.7-2.1V44.5z M184.8,48.6c0.4,0,0.6-0.3,0.6-0.9v-1c0-0.7-0.2-0.9-0.6-0.9c-0.3,0-0.5,0.2-0.7,0.4v1.5
		C184.1,48.3,184.3,48.6,184.8,48.6z"/>
	<path id="XMLID_30_" class="st0" d="M187.4,48.5h0.8v-4.6l-0.8,0.7l-0.4-0.5l1.5-1.6h0.8l0,0l0,0v6h0.8v0.8h-2.6V48.5z"/>
	<path id="XMLID_33_" class="st0" d="M192.3,45.8h3v0.8h-3V45.8z"/>
	<path id="XMLID_36_" class="st0" d="M198.1,48.5h0.8v-4.6l-0.8,0.7l-0.4-0.5l1.5-1.6h0.8l0,0l0,0v6h0.8v0.8h-2.6V48.5z"/>
	<path id="XMLID_38_" class="st0" d="M201.2,44.5c0-1.8,1.1-2,1.7-2c0.6,0,1.7,0.2,1.7,2v2.9c0,1.8-1.1,2-1.7,2
		c-0.6,0-1.7-0.3-1.7-2V44.5z M202.9,48.6c0.4,0,0.6-0.2,0.6-0.8v-3.7c0-0.6-0.2-0.8-0.6-0.8c-0.4,0-0.6,0.3-0.6,0.8v3.7
		C202.2,48.3,202.4,48.6,202.9,48.6z"/>
	<path id="XMLID_42_" class="st0" d="M205.3,44.5c0-1.8,1.1-2,1.7-2c0.6,0,1.7,0.2,1.7,2v2.9c0,1.8-1.1,2-1.7,2
		c-0.6,0-1.7-0.3-1.7-2V44.5z M207,48.6c0.4,0,0.6-0.2,0.6-0.8v-3.7c0-0.6-0.2-0.8-0.6-0.8c-0.4,0-0.6,0.3-0.6,0.8v3.7
		C206.4,48.3,206.6,48.6,207,48.6z"/>
</g>
<g id="XMLID_5_">
	<path id="XMLID_6_" class="st0" d="M220.1,46.6H219v-0.8h1.1v-1.2h0.8v1.2h1.1v0.8h-1.1v1.3h-0.8V46.6z"/>
	<path id="XMLID_8_" class="st0" d="M224.3,47.4v-1.7c0-1.8,0.9-1.9,1.2-1.9c0.4,0,0.7,0.2,0.8,0.5l0,0l0-0.7v-1.5h1v7.2h-0.8
		l-0.1-0.5c-0.2,0.3-0.5,0.6-1,0.6C225.1,49.4,224.3,49.3,224.3,47.4z M226.3,48.2v-3.3c-0.1-0.2-0.3-0.4-0.5-0.4
		c-0.3,0-0.5,0.2-0.5,1v2.1c0,0.8,0.2,1,0.5,1C226,48.6,226.2,48.4,226.3,48.2z"/>
	<path id="XMLID_11_" class="st0" d="M228.2,47.1v-1c0-2.1,1-2.3,1.6-2.3c0.7,0,1.4,0.4,1.4,1.7c0,0.4-0.1,0.9-0.1,1.3h-1.8v0.6
		c0,1,0.1,1.3,0.6,1.3c0.2,0,0.5-0.2,0.5-0.8v-0.2h0.8v0.2c0,1-0.5,1.5-1.4,1.5C228.7,49.4,228.2,48.7,228.2,47.1z M230.2,46.1
		c0-0.1,0-0.4,0-0.6c0-0.7-0.2-1-0.5-1c-0.4,0-0.5,0.3-0.5,1.2v0.3H230.2z"/>
	<path id="XMLID_14_" class="st0" d="M233.8,48.5h0.8v-4.6l-0.8,0.7l-0.4-0.5l1.5-1.6h0.8l0,0l0,0v6h0.8v0.8h-2.6V48.5z"/>
	<path id="XMLID_16_" class="st0" d="M236.9,44.5c0-1.8,1.1-2,1.7-2c0.6,0,1.7,0.2,1.7,2v2.9c0,1.8-1.1,2-1.7,2
		c-0.6,0-1.7-0.3-1.7-2V44.5z M238.6,48.6c0.4,0,0.6-0.2,0.6-0.8v-3.7c0-0.6-0.2-0.8-0.6-0.8c-0.4,0-0.6,0.3-0.6,0.8v3.7
		C237.9,48.3,238.1,48.6,238.6,48.6z"/>
	<path id="XMLID_19_" class="st0" d="M241,44.5c0-1.8,1.1-2,1.7-2c0.6,0,1.7,0.2,1.7,2v2.9c0,1.8-1.1,2-1.7,2c-0.6,0-1.7-0.3-1.7-2
		V44.5z M242.7,48.6c0.4,0,0.6-0.2,0.6-0.8v-3.7c0-0.6-0.2-0.8-0.6-0.8c-0.4,0-0.6,0.3-0.6,0.8v3.7
		C242.1,48.3,242.3,48.6,242.7,48.6z"/>
</g>
<rect id="XMLID_2622_" x="46.3" y="22.8" class="st1" width="11.5" height="11.5"/>
<g id="XMLID_1_">
	<path id="XMLID_2_" class="st0" d="M22.5,44.5c0-1.8,1.1-2,1.7-2c0.6,0,1.7,0.2,1.7,2v2.9c0,1.8-1.1,2-1.7,2c-0.6,0-1.7-0.3-1.7-2
		V44.5z M24.1,48.6c0.4,0,0.6-0.2,0.6-0.8v-3.7c0-0.6-0.2-0.8-0.6-0.8c-0.4,0-0.6,0.3-0.6,0.8v3.7C23.5,48.3,23.7,48.6,24.1,48.6z"
		/>
</g>
<rect id="XMLID_2587_" x="18.4" y="22.8" class="st2" width="11.5" height="11.5"/>
<rect id="XMLID_2586_" x="82.2" y="22.8" class="st3" width="11.5" height="11.5"/>
<rect id="XMLID_2585_" x="118.2" y="22.8" class="st4" width="11.5" height="11.5"/>
<rect id="XMLID_2584_" x="154.1" y="22.8" class="st5" width="11.5" height="11.5"/>
<rect id="XMLID_2583_" x="190.1" y="22.8" class="st6" width="11.5" height="11.5"/>
<rect id="XMLID_2582_" x="226" y="22.8" class="st7" width="11.5" height="11.5"/>
</svg>
