<?xml version="1.0" encoding="utf-8"?>
<!-- Generator: Adobe Illustrator 19.0.0, SVG Export Plug-In . SVG Version: 6.00 Build 0)  -->
<svg version="1.1" id="Calque_1" xmlns="http://www.w3.org/2000/svg" xmlns:xlink="http://www.w3.org/1999/xlink" x="0px" y="0px"
	 viewBox="0 0 184.2 63.3" style="enable-background:new 0 0 184.2 63.3;" xml:space="preserve">
<style type="text/css">
	.st0{fill:#1D1D1B;}
	.st1{fill:#EBB7A5;}
	.st2{fill:#FFFFFF;}
	.st3{fill:#E2967F;}
	.st4{fill:#D9745E;}
	.st5{fill:#C32121;}
</style>
<g id="XMLID_3498_">
	<g id="XMLID_32_">
		<path id="XMLID_33_" class="st0" d="M113.4,48.5h0.8v-4.6l-0.8,0.7l-0.4-0.5l1.5-1.6h0.8l0,0l0,0v6h0.8v0.8h-2.6V48.5z"/>
		<path id="XMLID_35_" class="st0" d="M116.7,48.5h0.8v-4.6l-0.8,0.7l-0.4-0.5l1.5-1.6h0.8l0,0l0,0v6h0.8v0.8h-2.6V48.5z"/>
		<path id="XMLID_37_" class="st0" d="M121.6,45.8h3v0.8h-3V45.8z"/>
		<path id="XMLID_39_" class="st0" d="M127.2,48.7l1.5-2.9c0.5-1.1,0.7-1.5,0.7-1.9c0-0.6-0.2-0.7-0.6-0.7c-0.5,0-0.7,0.4-0.7,1.1
			v0.4h-0.8c-0.1-0.3-0.1-0.5-0.1-0.8c0-0.7,0.5-1.4,1.6-1.4c1.2,0,1.7,0.6,1.7,1.5c0,0.6-0.2,1-0.7,2l-1.3,2.5h2v0.8h-3.2V48.7z"/>
		<path id="XMLID_41_" class="st0" d="M131.1,44.5c0-1.8,1.1-2,1.7-2c0.6,0,1.7,0.2,1.7,2v2.9c0,1.8-1.1,2-1.7,2
			c-0.6,0-1.7-0.3-1.7-2V44.5z M132.8,48.6c0.4,0,0.6-0.2,0.6-0.8v-3.7c0-0.6-0.2-0.8-0.6-0.8c-0.4,0-0.6,0.3-0.6,0.8v3.7
			C132.2,48.3,132.4,48.6,132.8,48.6z"/>
	</g>
	<g id="XMLID_19_">
		<path id="XMLID_20_" class="st0" d="M148.9,48.7l1.5-2.9c0.5-1.1,0.7-1.5,0.7-1.9c0-0.6-0.2-0.7-0.6-0.7c-0.5,0-0.7,0.4-0.7,1.1
			v0.4H149c-0.1-0.3-0.1-0.5-0.1-0.8c0-0.7,0.5-1.4,1.6-1.4c1.2,0,1.7,0.6,1.7,1.5c0,0.6-0.2,1-0.7,2l-1.3,2.5h2v0.8h-3.2V48.7z"/>
		<path id="XMLID_22_" class="st0" d="M153,48.5h0.8v-4.6l-0.8,0.7l-0.4-0.5l1.5-1.6h0.8l0,0l0,0v6h0.8v0.8H153V48.5z"/>
		<path id="XMLID_24_" class="st0" d="M158,45.8h3v0.8h-3V45.8z"/>
		<path id="XMLID_26_" class="st0" d="M163.5,47.6l2-5h1.2v4.8h0.6v0.8h-0.6v1.2h-1v-1.2h-2.2V47.6z M165.7,47.3v-1l0.1-2.6h-0.1
			l-1.2,3.6H165.7z"/>
		<path id="XMLID_29_" class="st0" d="M167.9,44.5c0-1.8,1.1-2,1.7-2c0.6,0,1.7,0.2,1.7,2v2.9c0,1.8-1.1,2-1.7,2
			c-0.6,0-1.7-0.3-1.7-2V44.5z M169.6,48.6c0.4,0,0.6-0.2,0.6-0.8v-3.7c0-0.6-0.2-0.8-0.6-0.8c-0.4,0-0.6,0.3-0.6,0.8v3.7
			C169,48.3,169.2,48.6,169.6,48.6z"/>
	</g>
	<rect id="XMLID_3505_" x="46.3" y="22.8" class="st1" width="11.5" height="11.5"/>
	<g id="XMLID_2_">
		<path id="XMLID_3_" class="st0" d="M22.5,44.5c0-1.8,1.1-2,1.7-2c0.6,0,1.7,0.2,1.7,2v2.9c0,1.8-1.1,2-1.7,2c-0.6,0-1.7-0.3-1.7-2
			V44.5z M24.1,48.6c0.4,0,0.6-0.2,0.6-0.8v-3.7c0-0.6-0.2-0.8-0.6-0.8c-0.4,0-0.6,0.3-0.6,0.8v3.7C23.5,48.3,23.7,48.6,24.1,48.6z"
			/>
	</g>
	<rect id="XMLID_3502_" x="18.4" y="22.8" class="st2" width="11.5" height="11.5"/>
	<rect id="XMLID_3501_" x="82.2" y="22.8" class="st3" width="11.5" height="11.5"/>
	<rect id="XMLID_3500_" x="118.2" y="22.8" class="st4" width="11.5" height="11.5"/>
	<rect id="XMLID_3499_" x="154.3" y="22.8" class="st5" width="11.5" height="11.5"/>
	<g id="XMLID_16_">
		<path id="XMLID_17_" d="M47.3,48.8h0.8v-4.8l-0.9,0.8l-0.5-0.5l1.6-1.7h0.8l0,0l0,0v6.3H50v0.8h-2.7V48.8z"/>
		<path id="XMLID_56_" d="M50.6,45.9h3.1v0.8h-3.1V45.9z"/>
		<path id="XMLID_62_" d="M54.8,47.3h0.8v0.6c0,0.7,0.2,1,0.6,1c0.5,0,0.6-0.3,0.6-1v-1.4c0-0.7-0.3-0.8-0.6-0.8
			c-0.3,0-0.5,0.2-0.7,0.4h-0.8v-3.6h3v1h-2.2v1.8c0.2-0.3,0.6-0.4,1-0.4c0.9,0,1.3,0.6,1.3,1.8v1.2c0,1.5-0.8,1.9-1.7,1.9
			c-1.1,0-1.6-0.6-1.6-1.5C54.7,47.9,54.8,47.6,54.8,47.3z"/>
	</g>
	<g id="XMLID_5_">
		<path id="XMLID_6_" d="M78.4,44.6c0-2,1.2-2.1,1.8-2.1c1.1,0,1.6,0.6,1.6,1.3c0,0.2,0,0.4-0.1,0.7h-0.8v-0.2
			c0-0.9-0.2-1.1-0.7-1.1c-0.5,0-0.7,0.3-0.7,1v1.4c0.2-0.2,0.6-0.4,1-0.4c0.6,0,1.4,0.3,1.4,1.8v0.7c0,1.5-0.7,2.1-1.7,2.1
			c-1.2,0-1.8-0.6-1.8-2.2V44.6z M80.2,48.9c0.4,0,0.6-0.3,0.6-0.9v-1.1c0-0.7-0.2-0.9-0.6-0.9c-0.3,0-0.5,0.2-0.7,0.4v1.5
			C79.5,48.6,79.7,48.9,80.2,48.9z"/>
		<path id="XMLID_9_" d="M84.7,45.9h3.1v0.8h-3.1V45.9z"/>
		<path id="XMLID_11_" d="M90.7,48.8h0.8V44l-0.9,0.8l-0.5-0.5l1.6-1.7h0.8l0,0l0,0v6.3h0.8v0.8h-2.7V48.8z"/>
		<path id="XMLID_13_" d="M94,44.6c0-1.9,1.1-2.1,1.7-2.1c0.6,0,1.7,0.2,1.7,2.1v3c0,1.9-1.1,2.1-1.7,2.1c-0.7,0-1.7-0.3-1.7-2.1
			V44.6z M95.7,48.9c0.4,0,0.6-0.3,0.6-0.8v-3.8c0-0.6-0.2-0.9-0.6-0.9c-0.4,0-0.6,0.3-0.6,0.9V48C95.1,48.6,95.3,48.9,95.7,48.9z"
			/>
	</g>
</g>
</svg>
