<?xml version="1.0" encoding="utf-8"?>
<!-- Generator: Adobe Illustrator 19.0.0, SVG Export Plug-In . SVG Version: 6.00 Build 0)  -->
<svg version="1.1" id="Calque_1" xmlns="http://www.w3.org/2000/svg" xmlns:xlink="http://www.w3.org/1999/xlink" x="0px" y="0px"
	 viewBox="0 0 769 801" style="enable-background:new 0 0 769 801;" xml:space="preserve">
<style type="text/css">
	.st0{fill:#E2E8F2;stroke:#E2E8F2;stroke-linecap:round;stroke-linejoin:round;stroke-miterlimit:10;}
	.st1{fill:#FFFFFF;stroke:#F4D7CB;stroke-miterlimit:10;}
</style>
<g id="XMLID_2009_">
	<rect id="XMLID_2535_" x="0.5" y="0.5" class="st0" width="768" height="800"/>
	<g id="XMLID_352_">
		<polygon id="XMLID_2534_" class="st1" points="540.7,148.1 540.7,148.1 557.1,156.2 551.8,181.9 551.8,181.9 557.1,156.2 		"/>
		<polygon id="XMLID_2533_" class="st1" points="600.3,59.9 590.7,59.3 590.7,59.3 600.3,59.9 		"/>
		
			<rect id="XMLID_2532_" x="567.8" y="109.9" transform="matrix(0.9131 0.4078 -0.4078 0.9131 94.5745 -223.9215)" class="st1" width="9.6" height="0"/>
		<polygon id="XMLID_2531_" class="st1" points="626.4,564.1 622.5,555.4 611.6,552.7 622.5,555.4 		"/>
		<polygon id="XMLID_2530_" class="st1" points="572.6,146.6 566.6,161.9 567.1,173.9 566.6,161.9 		"/>
		<polygon id="XMLID_2528_" class="st1" points="574.1,192.5 574.3,191.8 574.3,191.8 564.3,181 564.3,181 564.3,181 574.3,191.8 
			574.1,192.5 572.7,196.1 578.4,199.8 572.7,196.1 		"/>
		<polygon id="XMLID_2527_" class="st1" points="610.1,495.6 610.1,495.6 611.9,493.6 619.4,490.6 611.9,493.6 		"/>
		<polygon id="XMLID_2525_" class="st1" points="452.4,198.1 452.4,198.1 451.4,186.5 		"/>
		<polygon id="XMLID_2524_" class="st1" points="609.3,470.3 619.9,483.6 609.3,470.3 		"/>
		<polygon id="XMLID_2523_" class="st1" points="622.7,574.7 618.8,578.6 622.7,574.7 622.5,568.3 622.2,568 622.5,568.3 		"/>
		<line id="XMLID_2521_" class="st1" x1="469" y1="203.7" x2="469" y2="203.7"/>
		<polygon id="XMLID_2520_" class="st1" points="429.3,179.7 431.5,182.2 433.9,186.8 433.9,186.8 431.5,182.2 		"/>
		<polygon id="XMLID_2519_" class="st1" points="681.4,450.5 682.3,464.4 695.3,472.4 682.3,464.4 		"/>
		<polygon id="XMLID_2518_" class="st1" points="265.4,677.2 262.7,677.2 265.4,677.2 		"/>
		<polygon id="XMLID_2517_" class="st1" points="655,596.9 656.2,609.8 655,596.9 638.1,600.7 619,587.4 638.1,600.7 		"/>
		<polygon id="XMLID_2516_" class="st1" points="616.3,538.5 604.9,539.6 604.9,539.6 616.3,538.5 626.3,530.9 629,520.2 629,520.2 
			626.3,530.9 		"/>
		<polygon id="XMLID_2515_" class="st1" points="273,688 273,688 285.8,684.8 292.7,689.5 298.7,695.9 292.7,689.5 285.7,684.8 
			273,688 273,688 272.3,687.5 273,688 		"/>
		<rect id="XMLID_2514_" x="591.6" y="423.7" class="st1" width="0" height="10.6"/>
		<polygon id="XMLID_2513_" class="st1" points="617.8,396.2 601,418.1 617.8,396.2 		"/>
		<polygon id="XMLID_2512_" class="st1" points="656.9,487.4 670,469.4 666.5,464.3 670,469.4 		"/>
		<polygon id="XMLID_2510_" class="st1" points="683.6,375.4 677.8,377.7 677.7,378 677.8,377.7 		"/>
		<polygon id="XMLID_2509_" class="st1" points="614.8,388.9 617.8,396.2 617.8,396.2 		"/>
		<polygon id="XMLID_2508_" class="st1" points="584.3,465.3 584.3,465.3 588.5,459.7 591.2,461.6 588.5,459.7 		"/>
		<polygon id="XMLID_2045_" class="st1" points="646,483.7 656.9,487.4 656.9,487.4 		"/>
		<polygon id="XMLID_2028_" class="st1" points="607.6,457.6 591.2,461.6 607.6,457.6 611.7,467.7 611.7,467.7 		"/>
		<polygon id="ANGLETERRE_1_" class="st1" points="208.6,5.8 198.7,8.1 168.7,10.2 155.4,23.6 139.9,35.3 143.6,37.3 162.4,32.7 
			164.7,57.4 160.2,73.6 123.4,83.3 111,92.4 112.9,103.5 121.9,111.9 144.9,105.7 151,118.8 168.1,115.3 171.9,125.2 192.8,130.8 
			200.4,123.3 226,111.4 203.9,130.8 199.4,143.5 175,140.7 150.2,141.4 135.2,158.5 110.6,186.6 82.5,202.8 104,212.8 123.3,193.3 
			143.2,194.2 167.7,208.2 180.5,184 206.9,184 214.3,186 233.5,182.3 266.5,174.5 284.7,177.9 328.7,182.2 357.2,171 376.3,156.5 
			379.3,141 353.1,142.4 336.5,136.5 357.5,129.1 359.8,119.2 369.9,113.7 385.6,97.5 387.9,85.9 392.8,63.2 377.8,45.7 358.6,42.6 
			346.5,40.2 339.6,52.7 329.4,44.9 324.9,44.7 339.7,27.7 334.7,14.3 324.5,0 208.8,0 		"/>
		<polygon id="IRLANDE_1_" class="st1" points="0.8,77.1 18.4,70.4 42.1,67.5 53.2,63.5 71.8,68 90.5,24 91.4,8.3 88.1,5 85,0 
			0.8,0 		"/>
		<polygon id="ESPAGNE_1_" class="st1" points="440.8,712.5 434,714.1 425,723.5 416.9,723.5 405.6,715.9 401,715.9 397.2,719.7 
			391.1,717 391,713.3 383.8,710.8 372.1,714.8 367.1,708 367.1,703.4 362,699.5 354,699.5 350.4,693 340.7,689.1 332,686.1 
			331.6,696.9 319.9,695.7 313.7,697.3 307.8,692.9 298.7,695.9 292.7,689.6 285.8,684.8 273,688 273,688 273,688 272.3,687.5 
			265.8,681.8 265.4,677.2 265.4,677.2 262.7,677.2 262.5,677.2 258.1,677.1 239.6,667.3 237.5,672.2 231.6,665.7 234.3,664.2 
			235,657.6 215.9,651.3 215.9,647.4 202.9,651.1 186,647.9 171.5,639.8 158.7,647.3 140.2,636.1 122.7,632.4 106.2,637.3 62.8,630 
			47.2,621.6 23.5,617.1 0.5,616.7 0.5,800.5 368.1,800.5 391,792.2 450.4,751.1 446.6,730.5 454,728 448.3,716.6 444.2,715.3 		"/>
		<polygon id="ALLEMAGNE_1_" class="st1" points="606.3,20.6 606.3,20.6 604,55.3 603,56.6 600.6,59.9 600.3,59.9 600.3,59.9 
			590.7,59.3 587.9,70 599.1,70.6 599.5,72.2 602.4,85.3 589,96.5 593.4,105 577,111.9 577,111.9 577,111.9 568.2,107.9 
			560.3,112.5 575.6,139.1 574.1,142.8 572.6,146.6 566.6,161.9 567.1,173.9 567.1,173.9 564.3,181 574.3,191.8 574.3,191.8 
			574.1,192.5 572.7,196.1 578.4,199.8 580.4,207.2 570.4,220.3 568.1,227.8 574.4,235.5 587.4,240.4 588.8,247.3 580.9,258.5 
			581.9,262.7 589.8,266 597.1,281.3 601.1,280.9 602.1,277.9 606.2,277.9 612.5,282.7 619.9,282.6 623,279.8 628.6,279.9 
			635.6,286.6 648.7,285.9 661,291 650.3,308 644.6,312.1 641.8,334.4 636,345.6 638.3,355.6 633.4,373.3 637.7,380.2 635.2,387.8 
			637.8,383.6 655.3,382.8 665.8,377.7 676.8,380.2 677.7,378 677.8,377.7 683.6,375.4 676.2,373.6 674.1,371.7 680,366.3 
			686.1,365.2 691.6,370.1 697.9,373.1 705.4,371.6 715.8,372.8 730.6,377.3 732.5,373.7 747.8,386.1 747.8,388.4 747.8,391.9 
			761.6,381.9 762.4,373.4 768.4,373.3 768.8,373.3 768.8,0 604.3,0 595.4,12.1 595.6,12.3 		"/>
		<polygon id="ITALIE_1_" class="st1" points="768.8,422.1 753.4,435.5 751.2,453.6 717.5,449.7 695.3,472.4 682.3,464.4 
			681.4,450.5 666.5,464.3 670,469.4 656.9,487.4 646,483.7 634.4,489.8 623.5,491.2 621.7,490.7 619.5,488.7 619.4,490.6 
			611.9,493.6 610.1,495.6 629,520.2 629,520.2 629,520.2 626.3,530.9 616.3,538.5 604.9,539.6 611.6,552.7 622.5,555.4 
			626.4,564.1 626.4,564.1 622.2,568 622.5,568.3 622.7,574.7 618.8,578.6 617.8,579.5 619,587.4 638.1,600.7 655,596.9 
			656.2,609.8 656.2,609.8 651.4,611.3 650.9,622.5 657.6,624.5 676.1,617.5 691.6,592.6 704.2,580.3 731.4,586.5 767.5,601.9 
			768.8,603.4 		"/>
		<polygon id="XMLID_2027_" class="st1" points="762.4,373.4 761.6,381.9 747.8,391.9 747.8,388.4 747.8,386.1 732.5,373.7 
			730.6,377.3 715.7,372.8 724.3,379.5 728.6,382.7 730.4,388 724.7,398 738.2,400.1 741.7,412.7 750.4,421.5 760.7,414 768.1,414 
			768.8,414 768.8,373.3 768.4,373.3 		"/>
		<polygon id="XMLID_2010_" class="st1" points="741.7,412.7 738.2,400.1 724.7,398 727.2,409.7 		"/>
		<polygon id="PAYS-BAS_1_" class="st1" points="491.5,143.8 504.3,137.3 513.6,140.2 524.9,137.3 531.9,149.4 540.7,148.1 
			540.7,148.1 540.7,148.1 557.1,156.2 551.8,181.9 564.3,181 564.3,181 564.3,181 564.3,181 567.1,173.9 567.1,173.9 566.6,161.9 
			572.6,146.6 574.1,142.8 575.6,139.1 560.3,112.5 568.2,107.9 568.2,107.9 577,111.9 577,111.9 593.4,105 589,96.5 602.4,85.3 
			599.5,72.2 599.1,70.6 587.9,70 590.7,59.3 590.7,59.3 600.3,59.9 600.6,59.9 603,56.6 604,55.3 606.3,20.6 606.3,20.6 
			595.6,12.3 595.4,12.2 594.9,11.8 591.8,9.4 582.1,10.1 560.9,13.6 540,22.1 535,34.7 518.6,47.4 515.6,42.6 509.8,41.6 
			501.6,83.3 487.7,103.4 472.3,120.2 459.2,133.3 463.3,140.8 479.8,144.6 		"/>
		<polygon id="BELGIQUE_1_" class="st1" points="425,177.3 429.3,179.7 431.5,182.2 433.9,186.8 439.2,183.6 447.5,181.7 
			451.4,186.5 452.4,198.1 456.9,200.1 461.2,198.2 469,203.7 468.5,211.4 470.1,211.4 471.4,209.3 483.7,208.7 491.5,216 
			491.8,227.8 487.5,231 488,232.6 492.4,232.6 499.7,235.1 509.8,230.8 514,221 518.2,221 518.6,243.8 536.7,251.2 538.6,256.6 
			543.8,260.4 557,258 560.9,255.6 560.4,253 554,236.2 565.3,217.3 570.4,220.3 580.4,207.2 578.4,199.8 572.7,196.1 574.1,192.5 
			574.3,191.8 564.3,181 564.3,181 551.8,181.9 551.8,181.9 557.1,156.2 540.7,148.1 540.7,148.1 531.9,149.4 524.9,137.3 
			513.6,140.2 504.3,137.3 491.5,143.8 479.8,144.6 463.3,140.8 449.7,144.4 418.8,160.2 418.8,163.3 422.8,162.2 426.5,171.2 		"/>
		<polygon id="LUXEMBOURG_1_" class="st1" points="588.8,247.3 587.4,240.4 574.4,235.5 568.1,227.8 570.4,220.3 565.3,217.3 
			554,236.2 560.4,253 560.9,255.6 557,258 563.7,262.9 572.6,260.5 576,260.3 581.9,262.7 580.9,258.5 		"/>
		<polygon id="SUISSE_1_" class="st1" points="760.7,414 750.4,421.5 741.7,412.7 727.2,409.7 724.7,398.1 730.4,388.1 728.6,382.7 
			724.3,379.5 715.8,372.8 705.4,371.6 697.9,373.1 691.6,370.1 686.1,365.2 680,366.3 674.1,371.7 676.2,373.6 683.6,375.4 
			677.8,377.7 677.7,378 676.8,380.2 665.8,377.7 655.3,382.8 637.8,383.6 634.9,388 634.5,388 631.2,391.3 622.5,391.3 620,387.6 
			619.4,387.9 614.8,388.9 617.8,396.2 617.8,396.2 617.8,396.2 617.8,396.2 617.8,396.2 601,418.1 599.6,419.9 591.1,423.8 
			592.1,434.3 592.1,434.3 592.1,434.3 578.2,448.4 577.1,457.8 581.9,459.5 579,468.3 572.5,470.4 572.5,474.6 579.6,474.7 
			586.9,469.3 584.3,465.3 584.3,465.3 584.3,465.3 588.5,459.7 591.2,461.6 607.6,457.6 611.7,467.7 611.7,467.7 611.7,467.7 
			609.3,470.3 619.9,483.6 619.6,487.8 619.5,488.7 621.7,490.7 623.5,491.2 634.4,489.8 646,483.7 656.9,487.4 656.9,487.4 
			670,469.4 666.5,464.3 681.4,450.5 682.3,464.4 695.3,472.4 717.5,449.7 751.2,453.6 753.4,435.5 768.8,422.1 768.8,414 
			768.1,414 		"/>
		<polygon id="CORSE_1_" class="st1" points="732.7,653.4 725.4,653.6 722.9,659.1 708.7,664.6 703.5,677.5 701.7,679.9 
			707.6,683.7 707.9,685.4 702.1,686.7 703.6,693.9 710.2,695.9 710.6,699.9 706.2,704.5 706.8,708.4 713.2,709 714.8,713.1 
			710.4,718.9 722,720.8 715.4,728 721.5,732.8 731,735.7 733.8,738.9 739.3,740.4 744.5,724.9 745.7,713.6 745,707.1 744.9,700.6 
			750.3,693.2 750.4,681 748.2,676.8 747.7,663.6 743.3,659 742.9,650.9 744.3,647.2 741.6,636.4 739.6,632.9 735.4,636.2 
			737.3,649.3 735.9,655.2 		"/>
		<polygon id="FRANCE_1_" class="st1" points="656.2,609.8 656.2,609.8 655,596.9 638.1,600.7 619,587.4 617.8,579.5 618.8,578.6 
			622.7,574.7 622.5,568.3 622.2,568 626.4,564.1 626.4,564.1 622.5,555.4 611.6,552.7 604.9,539.6 604.9,539.6 616.3,538.5 
			626.3,530.9 629,520.2 629,520.2 610.1,495.6 610.1,495.6 611.9,493.6 619.4,490.6 619.5,488.7 619.6,487.8 619.9,483.6 
			609.3,470.3 609.3,470.3 611.7,467.7 611.7,467.7 607.6,457.6 591.2,461.6 588.5,459.7 584.3,465.3 584.3,465.3 586.9,469.3 
			579.6,474.7 572.5,474.6 572.5,470.4 579,468.3 581.9,459.5 577.1,457.8 578.2,448.4 592.1,434.3 592.1,434.3 591.1,423.8 
			591.1,423.8 599.6,419.9 601,418.1 617.8,396.2 617.8,396.2 617.8,396.2 614.8,388.9 619.4,387.9 620,387.6 622.5,391.3 
			631.2,391.3 635.2,387.8 637.7,380.2 633.4,373.3 638.3,355.6 636,345.6 641.8,334.4 644.6,312.1 650.3,308 661,291 648.6,285.9 
			635.6,286.6 628.6,279.9 623,279.8 619.9,282.6 612.5,282.7 606.2,277.9 602.1,277.9 601.1,280.9 597.1,281.3 589.8,266 
			581.9,262.7 576,260.3 572.6,260.5 563.7,262.9 557,258 543.8,260.4 538.6,256.6 536.7,251.2 518.6,243.8 518.2,221 514,221 
			509.8,230.8 499.7,235.1 492.4,232.6 488,232.6 487.5,231 491.8,227.8 491.5,216 483.7,208.7 471.4,209.3 470.1,211.4 
			468.5,211.4 469,203.7 461.2,198.2 456.9,200.1 452.4,198.1 451.4,186.5 447.5,181.7 439.2,183.6 433.9,186.8 431.5,182.2 
			429.3,179.7 425,177.3 426.5,171.2 422.8,162.2 404.3,167.2 392.2,169.4 382.5,176.7 382.2,207.2 373.2,226.1 362.3,235 
			325.6,247.6 319.1,261.6 328.8,266.4 305.9,275.7 298.5,271.5 279.3,268.7 275.3,266.7 269.8,268.1 261.9,256.5 266.1,253.4 
			264.1,247.5 252.9,247.5 248.4,249.7 235.7,243.5 234.8,245.4 239.4,249 239.4,262.9 247.5,277.4 249.9,296.7 247.2,302.4 
			255.2,312.5 248.9,314.6 238.1,314.5 236.8,308.6 231.6,308.4 229.5,310.7 215.5,309 199.1,316 194.5,312.2 185.9,294.6 
			163.1,295.9 161.7,304.1 152.1,302.2 149.9,304.6 139.6,300.8 113.8,308.2 110.8,322.4 124.6,321.5 133.8,327 120,324.7 
			116.3,326.6 130.6,333.9 129.7,338.4 112.4,339.1 112.4,342 120.2,343.8 125.9,354.8 125.6,358.1 133.9,358.5 135,354.8 
			146.4,360.8 161,363.2 175.8,376.2 190,383.5 204,386.8 199.1,397 213.9,399.5 213.9,405.6 211.4,408.4 218.1,409.7 223.4,413.8 
			216.1,422.6 216,427.8 228.5,448.9 257.5,463.9 255.1,470.4 242.6,462.7 237.6,465.8 261.4,479.6 258.5,490.6 254.6,488.6 
			246.3,478.2 245.8,485.9 250.8,489.6 252.4,502.3 272.3,517.7 273.9,526.1 276.1,537.8 274.6,540.3 269.8,523.6 258.7,516.1 
			257.5,510.3 255.1,511.2 254,519.5 247,567.8 252.4,561 259.2,569.4 258.7,573 250.9,573 247,577.3 247,581.1 234.7,633 
			231.4,638.2 225.3,645.5 215.9,647.4 215.9,651.3 235,657.6 234.3,664.2 231.6,665.7 237.5,672.2 239.6,667.3 258.1,677.1 
			262.5,677.2 262.7,677.2 265.4,677.2 265.4,677.2 265.4,677.2 265.8,681.8 272.3,687.5 273,688 273,688 285.7,684.8 292.7,689.5 
			298.7,695.9 307.8,692.9 313.7,697.3 319.9,695.7 331.6,696.9 332,686.1 340.7,689.1 350.4,693 354,699.5 362,699.5 367.1,703.4 
			378.5,702.2 384.1,711.1 391,713.3 391.1,717 397.2,719.7 401,715.9 405.6,715.9 416.9,723.5 425,723.5 434,714.1 440.8,712.5 
			444.2,715.3 448.3,716.6 448.3,710.7 444.2,706.6 443.2,688.2 443.5,675.5 438.7,672.4 440.5,669.5 444.7,672.6 450,666 
			486.4,643.4 490.5,643.7 492.8,648.3 500.5,648.2 516.6,649.4 513.7,653.4 523.9,657.4 529.7,655.6 527.1,650.7 532.6,651.5 
			536.3,655.7 550.5,655.2 552.7,663.1 567.1,667.1 573.2,673.5 580.6,669.8 588.7,670.6 598.6,669.3 613.3,661.3 612.3,654.8 
			624.6,643.9 633,638.3 633.3,631.5 638.3,631.1 650.9,622.5 650.9,622.5 651.4,611.3 		"/>
		<polygon id="ANDORRE_1_" class="st1" points="372.1,714.8 383.8,710.8 378.5,702.2 367.1,703.4 367.1,708 		"/>
		<polygon id="MONACO_1_" class="st1" points="633,638.3 633,638.3 641.9,638.6 638.3,631.1 633.3,631.5 		"/>
	</g>
</g>
</svg>
