<?xml version="1.0" encoding="utf-8"?>
<!-- Generator: Adobe Illustrator 19.1.0, SVG Export Plug-In . SVG Version: 6.00 Build 0)  -->
<svg version="1.1" id="Calque_1" xmlns="http://www.w3.org/2000/svg" xmlns:xlink="http://www.w3.org/1999/xlink" x="0px" y="0px"
	 viewBox="78 -4 768.3 801" style="enable-background:new 78 -4 768.3 801;" xml:space="preserve">
<style type="text/css">
	.st0{fill:#EDE6D8;stroke:#FFFFFF;stroke-miterlimit:10;}
	.st1{fill:#F6B0BF;}
	.st2{fill:#EF6D89;}
	.st3{fill:#FFFFFF;}
	.st4{fill:#FAD2DB;}
	.st5{fill:#F28EA4;}
	.st6{fill:#EB4B6D;}
	.st7{fill:#E61E49;}
	.st8{fill:none;}
	.st9{enable-background:new    ;}
	.st10{fill:none;stroke:#FFFFFF;stroke-miterlimit:10;}
	.st11{fill:#FAD2DB;stroke:#FFFFFF;stroke-miterlimit:10;}
</style>
<g id="XMLID_3_">
	<g id="XMLID_4_">
		<rect id="XMLID_6_" x="78.5" y="-3.5" class="st0" width="767.3" height="800"/>
	</g>
</g>
<g id="XMLID_2577_">
	<polygon id="Var" class="st1" points="686.4,620 701.7,641.4 689.4,652.2 690.4,658.8 675.7,666.8 665.8,668.1 657.7,667.3 
		650.3,670.9 644.2,664.5 647.4,656.4 643.7,651.9 648.3,647.1 643.7,638.4 647.6,626.7 658.8,629.4 	"/>
	<polygon id="Bouches-du-Rhône" class="st2" points="643.7,638.4 648.3,647.1 643.7,651.9 647.4,656.4 644.2,664.5 629.8,660.6 
		627.6,652.7 613.4,653.2 609.7,648.9 604.3,648.2 606.8,653.1 601,654.9 590.8,650.9 593.7,646.8 577.6,645.7 586.9,630.5 
		593.3,629.9 595.3,619 604,614.1 604,616.7 615.7,625.6 635.4,631.2 647.6,626.7 647.6,626.7 	"/>
	<polygon id="Drôme" class="st3" points="647.6,565.8 638.9,568.5 637.3,575.3 639.7,577.3 637.3,580.1 630.7,578.3 629.8,586.2 
		641.5,592.6 640.8,599.5 634.5,602.7 627.5,597.1 618.6,596.3 611.8,591.2 612.9,586.5 609.9,583.6 604.4,587.5 607.2,593.7 
		603.2,595.8 597.5,590.5 596.1,580.1 599.3,571.8 604.3,551.6 599.6,535 600,526.3 602.3,528.2 608.1,525.2 617.8,531.9 616,541 
		627,544.4 630.8,541.4 630.9,559.2 	"/>
	<polygon id="Vaucluse" class="st3" points="647.6,626.7 635.4,631.2 615.7,625.6 604,616.7 604,614.1 604,611.3 597.5,604.8 
		597.6,599.8 591.7,591.2 591.7,591.2 597.5,590.5 603.2,595.8 607.2,593.7 604.4,587.5 609.9,583.6 612.9,586.5 611.8,591.2 
		618.6,596.3 627.5,597.1 634.5,602.7 636.5,619.3 645.9,626.3 	"/>
	<polygon id="Haute-Marne" class="st3" points="641.8,359 633.7,367.9 633.7,376 622.2,376.6 622.1,380.2 616.2,382 612.3,376.5 
		603.3,375.7 604.1,367.7 592.6,355.1 592.3,353.6 591.5,349.9 598.1,347.6 596.7,334.1 592.9,332.8 589,327.2 589,322.2 
		592.8,322.3 597.5,319 598.2,313.5 601.8,312.6 603.4,316.8 622.6,329.1 622.1,333.2 635.3,342.9 632,350.2 	"/>
	<polygon id="Marne" class="st4" points="541.4,317.4 538.4,316.5 538.9,302.4 547.6,292 549.8,283.1 546,273.2 562.2,269 
		596,277.4 599.1,276 604.5,290.6 598.7,304.1 601.8,312.6 598.2,313.5 597.5,319 592.8,322.3 589,322.2 577.6,321.9 573.3,311.5 
		570,311.2 551.7,320.4 	"/>
	<polygon id="Ardèche" class="st3" points="599.6,535 604.3,551.6 599.3,571.8 596.1,580.1 597.5,590.5 591.7,591.2 577.6,592.8 
		567.6,591.2 563.9,583.8 563.1,582.2 560,573.5 558.1,564.8 567,555.6 572.2,555.7 584,538.1 585.3,532.7 597.4,524.2 600,526.3 	
		"/>
	<polygon id="Gard" class="st1" points="604,611.3 604,614.1 595.3,619 593.3,629.9 586.9,630.5 577.6,645.7 569.9,645.8 
		567.6,641.2 573.5,636.4 571.2,627.8 557.4,620.6 555.5,613.8 551.9,613.4 545.7,621.3 535.2,616.7 540.9,613.2 538.4,608.6 
		531.5,606.5 535.1,600.6 541.8,605.2 548.6,602.7 553.6,603.3 559.3,603.9 561.9,600 562.2,589.9 559.1,586.5 563.9,583.8 
		567.6,591.2 577.6,592.8 591.7,591.2 591.7,591.2 597.6,599.8 597.5,604.8 	"/>
	<polygon id="Aube" class="st4" points="596.7,334.1 598.1,347.6 591.5,349.9 592.3,353.6 592.2,353.6 584.9,357.4 575.1,360.6 
		572.1,360.6 557.7,360.4 544.2,345 544.9,339.1 539.3,333.1 535.4,332.9 535.2,331.8 536.3,321.3 541.4,317.4 551.7,320.4 
		570,311.2 573.3,311.5 577.6,321.9 589,322.2 589,327.2 592.9,332.8 	"/>
	<polygon id="Loire" class="st3" points="598.1,517.2 597.4,524.2 585.3,532.7 572.5,522.4 565.2,526.5 560.1,524.8 562.7,517.9 
		560.8,510.7 555.1,506.9 550.2,497.7 552.9,490.9 548.5,486.8 554.9,485.9 554.6,474.3 553,470.4 553.7,467.9 558.3,467.5 
		563.9,473.3 581.2,469 583.4,473.7 581.2,475.6 576.8,475.6 575.1,480.6 577.9,490.9 581.2,494.4 579.4,504.5 	"/>
	<polygon id="Haute-Loire" class="st3" points="585.3,532.7 584,538.1 572.2,555.7 567,555.6 558.1,564.8 553.6,558.9 539.8,560.5 
		535.4,548.9 528.8,531.5 523.4,530.1 521.8,527.2 521.5,526.8 522.7,525.9 540.3,521.8 546.9,526.3 559.5,526.3 560.1,524.8 
		565.2,526.5 572.5,522.4 	"/>
	<polygon id="Yonne" class="st3" points="572.1,361.2 575.6,372 564.9,395.8 566,398.3 562.2,400.5 543.8,388.8 533.1,390.3 
		517,384.4 512.3,372.1 515.8,372.4 519.7,370 518.2,364.5 524.4,358.6 515.8,344.2 520.9,340 519.1,338 524,332.9 535.2,331.8 
		535.4,332.9 539.3,333.1 544.9,339.1 544.2,345 557.7,360.4 572.1,360.6 	"/>
	<polygon id="Hérault" class="st5" points="571.2,627.8 573.5,636.4 567.6,641.2 563.6,640.9 527.1,663.4 512.7,654.5 509.7,658.4 
		506.2,660.6 500.8,657.4 497.2,652.8 498.3,647.8 503,646.4 504.3,642.4 501,639.2 503.8,633.4 506.9,635.6 516.2,632.4 
		521.8,630.5 521.5,621.8 528.3,623.7 535.2,616.7 545.7,621.3 551.9,613.4 555.5,613.8 557.4,620.6 	"/>
	<polygon id="Nièvre" class="st3" points="566,398.3 571.5,411.2 563.8,413.2 566,433.6 553.6,438.4 550.7,436.7 546.9,438.1 
		540.6,442.2 527,441.2 520.7,436.6 520.9,433.7 521.8,421.3 514,400.6 515.4,395.1 513.4,388.3 513.3,388.3 512.6,385.7 517,384.4 
		533.1,390.3 543.8,388.8 562.2,400.5 	"/>
	<polygon id="Lozère" class="st3" points="563.1,582.2 563.9,583.8 559.1,586.5 562.2,589.9 561.9,600 559.3,603.9 553.6,603.3 
		548.6,602.7 541.8,605.2 535.1,600.6 529.4,597.6 525,582.8 517.7,570.6 524.1,553.7 528.6,555 535.4,548.9 539.8,560.5 
		553.6,558.9 558.1,564.8 560,573.5 	"/>
	<polygon id="Puy-de-Dôme" class="st3" points="560.8,510.7 562.7,517.9 560.1,524.8 559.5,526.3 546.9,526.3 540.3,521.8 
		522.7,525.9 521.5,526.8 519,528.7 510.4,522.5 505.5,523.8 502.8,519.8 496.8,518.9 496.8,512.8 495.5,508.2 496.6,501.3 
		491.7,494.8 501.6,486.1 498.9,475.6 502.8,478.2 512.3,468.6 515.7,468.6 514.7,472 524,479.6 533.4,480.6 537.2,479.3 
		548.5,486.8 552.9,490.9 550.2,497.7 555.1,506.9 	"/>
	<polygon id="Allier" class="st3" points="562.2,453.6 562.1,463.6 558.3,467.5 553.7,467.9 553,470.4 554.6,474.3 554.9,485.9 
		548.5,486.8 537.2,479.3 533.4,480.6 524,479.6 514.7,472 515.7,468.6 512.3,468.6 502.8,478.2 498.9,475.6 496.3,466 489.2,462.6 
		486.4,456.9 489.4,451.3 493.9,450.4 498.7,451.3 501.7,448.6 499.4,443.2 506.4,436.9 508,440.2 515.5,433.2 520.5,433.7 
		520.9,433.7 520.7,436.6 527,441.2 540.6,442.2 546.9,438.1 551.3,449.7 	"/>
	<polygon id="Seine-et-Marne" class="st3" points="541.4,317.4 536.3,321.3 535.2,331.8 524,332.9 519.1,338 520.9,340 515.8,344.2 
		510.7,348.5 496.7,349.9 494.7,348.1 498.1,342 494.1,338.6 494.1,337.4 494.2,334.2 499.1,331 500.1,312 500.5,304.5 501.1,293.4 
		501.4,288.6 517.6,287.6 521.9,285.9 526.3,292.5 538.9,302.4 538.4,316.5 	"/>
	<polygon id="Aveyron" class="st3" points="538.4,608.6 540.9,613.2 535.2,616.7 528.3,623.7 521.5,621.8 521.8,630.5 516.2,632.4 
		512.1,627.7 503,627.5 495.9,610.8 479.5,599.9 470.4,601.4 467.5,589.5 466.4,581.4 478.3,574.8 480.5,571.9 482.9,572.2 
		487.9,569.2 495.4,570.1 500.4,556.6 507.3,552.3 512.2,555.7 514.3,562 517.7,570.6 525,582.8 529.4,597.6 535.1,600.6 
		531.5,606.5 	"/>
	<polygon id="Cantal" class="st3" points="528.8,531.5 535.4,548.9 528.6,555 524.1,553.7 517.7,570.6 514.3,562 512.2,555.7 
		507.3,552.3 500.4,556.6 495.4,570.1 487.9,569.2 482.9,572.2 480.5,571.9 476.9,549.6 481.2,542.7 482.6,533.5 489.7,521 
		493.9,524.6 497.4,523.1 496.8,518.9 502.8,519.8 505.5,523.8 510.4,522.5 519,528.7 521.5,526.8 521.8,527.2 523.4,530.1 	"/>
	<polygon id="Bas-Rhin" class="st5" points="719.1,331.9 721.9,309.6 727.6,305.5 738.3,288.5 725.9,283.4 712.9,284.1 709.6,292.1 
		700.4,291.6 688.8,286.5 684.8,294.1 700.5,302.3 699.8,310.4 694.5,318.9 691.9,318 691.9,322.3 693.1,330.5 695.9,332.3 
		713.3,343 	"/>
	<polygon id="Alpes-Maritimes" class="st6" points="728.5,608.8 733.4,607.3 732.1,594.3 715.3,598.2 696.1,584.9 690.2,591.2 
		688.2,599.1 699.6,611.9 688.8,615.2 686.4,620 687.3,621.3 701.7,641.4 710.1,635.8 710.4,629 715.4,628.6 728,620 728,619.9 	"/>
	<polygon id="Haut-Rhin" class="st4" points="692.9,378.5 697.2,385 699.6,388.7 708.3,388.5 712.5,385.3 715,377.6 715,377.6 
		710.6,370.8 715.6,353.1 713.3,343 695.9,332.3 684,365.2 692.1,369.9 	"/>
	<polygon id="Moselle" class="st2" points="649.8,257.9 641,260.4 644.4,284.2 641.7,286.9 651.1,295.6 655.8,296.1 660.7,304.1 
		691.9,318 694.5,318.9 699.8,310.4 700.5,302.3 684.8,294.1 688.8,286.5 700.4,291.6 709.6,292.1 712.9,284.1 705.9,277.4 
		700.3,277.2 697.2,280 689.7,280.2 683.4,275.4 679.3,275.4 678.4,278.3 674.6,278.8 667,263.4 659,260.2 653.1,257.8 	"/>
	<polygon id="Savoie" class="st1" points="675.3,487.2 672,490.4 667.3,500.9 663.5,501.6 658.4,496.8 655.5,498.1 647.6,494 
		643.7,482.7 642.3,500.5 636.3,506.9 647.2,518.9 650.3,514.6 662.2,521.2 659.2,529.9 664.4,535.7 664.1,537.7 676,537.7 
		682.1,537.1 693.5,536 703.4,528.4 706.1,517.7 687.3,493.1 684.1,496.8 	"/>
	<polygon id="Hautes-Alpes" class="st5" points="651.8,587.3 661,578.8 667.9,584 671.5,579.1 684.2,579.6 699.4,565.5 703.5,561.6 
		699.6,552.8 688.7,550.2 682.1,537.1 676,537.7 664.1,537.7 663.2,543.3 669.3,547.8 671,553.5 647.6,565.8 645.5,566.4 
		638.9,568.5 637.3,575.3 639.7,577.3 637.3,580.1 630.7,578.3 629.8,586.2 641.5,592.6 640.8,599.5 651.9,596.6 	"/>
	<polygon id="Alpes-de-Haute-Provence" class="st1" points="688.8,615.2 699.6,611.9 688.2,599.1 690.2,591.2 696.1,584.9 
		694.9,577 699.8,572.2 699.6,565.8 699.4,565.5 684.2,579.6 671.5,579.1 667.9,584 661,578.8 651.8,587.3 651.9,596.6 640.8,599.5 
		634.5,602.7 636.5,619.3 645.9,626.3 647.6,626.7 647.6,626.7 658.8,629.4 682.2,621.4 686.4,620 	"/>
	<polygon id="Territoire_de_Belfort" class="st5" points="696.5,385.4 697.2,385 692.9,378.5 692.1,369.9 684,365.2 680.2,367.5 
		679.3,380.6 691.9,386.4 	"/>
	<polygon id="Haute-Savoie" class="st5" points="686.4,467.8 688.8,465.2 684.7,455.1 668.3,459 665.6,457.2 661.4,462.8 664,466.8 
		656.8,472.2 649.7,472.1 649.7,473.9 644.2,475.5 643.7,482.7 643.7,482.7 647.6,494 655.5,498.1 658.4,496.8 663.5,501.6 
		667.3,500.9 672,490.4 675.3,487.2 684.1,496.8 687.3,493.1 689,491.1 696.5,488.1 696.6,486.2 697,481 	"/>
	<polygon id="Vosges" class="st3" points="653.9,354.1 658.2,358.5 684,365.2 695.9,332.3 693.1,330.5 691.9,322.3 679.8,327.2 
		653.4,328.2 650.7,331.1 644.8,331.4 635.9,323.4 622.6,329.1 622.1,333.2 635.3,342.9 632,350.2 641.8,359 648.6,353.8 	"/>
	<polygon id="Doubs" class="st4" points="638.5,416.5 648.5,418.3 648.8,426 655.8,428.3 658.6,433.8 653.2,437.1 655.5,445.9 
		669.4,431.8 669,421.2 677.2,417.4 694.9,393.7 691.9,386.4 679.3,380.6 673.6,385.7 665.6,384.3 636.3,400.1 641.4,408.9 	"/>
	<polygon id="Meurthe-et-Moselle" class="st1" points="660.7,304.1 655.8,296.1 651.1,295.6 641.7,286.9 644.4,284.2 641,260.4 
		635.6,256.5 634.1,255.4 620.9,257.8 623.7,264.9 629.5,263.7 633.9,271.7 638.9,294.9 635.9,323.4 644.8,331.4 650.7,331.1 
		653.4,328.2 679.8,327.2 691.9,322.3 691.9,318 	"/>
	<polygon id="Haute-Saône" class="st3" points="622.1,390.3 627.4,397.5 630.9,402.1 636.3,400.1 665.6,384.3 673.6,385.7 
		679.3,380.6 680.2,367.5 684,365.2 658.2,358.5 653.9,354.1 648.6,353.8 641.8,359 633.7,367.9 633.7,376 622.2,376.6 622.1,380.2 
		626.5,384.5 	"/>
	<polygon id="Isère" class="st2" points="671,553.5 669.3,547.8 663.2,543.3 664.1,537.7 664.4,535.7 659.2,529.9 662.2,521.2 
		650.3,514.6 647.2,518.9 636.3,506.9 622.9,491 618.6,497.7 611.8,496.3 614.7,501.2 609.9,507.4 599.9,510 602.7,514.9 
		598.1,517.2 597.4,524.2 600,526.3 602.3,528.2 608.1,525.2 617.8,531.9 616,541 627,544.4 630.8,541.4 630.9,559.2 645.1,564.8 
		647.6,565.8 	"/>
	<polygon id="Ain" class="st4" points="643.7,482.7 643.7,482.7 644.2,475.5 649.7,473.9 649.7,472.1 649.6,468 656.2,466.1 
		658.9,457.5 654.2,455.5 645.1,465.4 638.7,465.4 638.7,462.8 635.2,461 627.7,466 617.9,454.3 604.5,450.4 598,471 595.5,486.8 
		611.8,496.3 618.6,497.7 622.9,491 636.3,506.9 642.3,500.5 	"/>
	<polygon id="Jura" class="st4" points="627.7,466 635.2,461 638.7,462.8 638.7,465.4 645.1,465.4 654.2,455.5 655.5,445.9 
		653.2,437.1 658.6,433.8 655.8,428.3 648.8,426 648.5,418.3 638.5,416.5 641.4,408.9 636.3,400.1 630.9,402.1 627.4,397.5 
		625.8,408.1 618.3,416.8 618.6,419.5 618.9,423.2 626.1,428.1 620.6,430.4 624.9,443.2 622.1,447.5 625.9,451.9 617.9,454.3 	"/>
	<polygon id="Meuse" class="st3" points="638.9,294.9 633.9,271.7 629.5,263.7 623.7,264.9 620.9,257.8 615.7,253.9 612.7,256.9 
		607.2,254.5 604.1,260.1 606.6,263.9 604.4,273.5 599.1,276 604.5,290.6 598.7,304.1 601.8,312.6 603.4,316.8 622.6,329.1 
		635.9,323.4 	"/>
	<polygon id="Côte-d_x27_Or" class="st4" points="606.5,421.1 618.6,419.5 618.3,416.8 625.8,408.1 627.4,397.5 622.1,390.3 
		626.5,384.5 622.1,380.2 616.2,382 612.3,376.5 603.3,375.7 604.1,367.7 592.6,355.1 592.3,353.6 592.2,353.6 584.9,357.4 
		575.1,360.6 572.1,360.6 572.1,361.2 575.6,372 564.9,395.8 566,398.3 571.5,411.2 592.6,426 	"/>
	<polygon id="Saône-et-Loire" class="st3" points="593.8,464.6 598,471 604.5,450.4 617.9,454.3 625.9,451.9 622.1,447.5 
		624.9,443.2 620.6,430.4 626.1,428.1 618.9,423.2 618.6,419.5 606.5,421.1 592.6,426 571.5,411.2 563.8,413.2 566,433.6 
		553.6,438.4 550.7,436.7 546.9,438.1 551.3,449.7 562.2,453.6 562.1,463.6 558.3,467.5 563.9,473.3 581.2,469 581.3,464.9 	"/>
	<polygon id="Ardennes" class="st5" points="606.6,263.9 604.1,260.1 607.2,254.5 612.7,256.9 615.7,253.9 613.8,248.5 595.9,241.3 
		595.5,218.5 591.3,218.5 587,228.3 576.9,232.6 569.7,230.1 569.9,244.5 562.2,269 596,277.4 599.1,276 604.4,273.5 	"/>
	<polygon id="Rhône" class="st1" points="599.9,510 609.9,507.4 614.7,501.2 611.8,496.3 595.5,486.8 598,471 593.8,464.6 
		581.3,464.9 581.2,469 583.4,473.7 581.2,475.6 576.8,475.6 575.1,480.6 577.9,490.9 581.2,494.4 579.4,504.5 598.1,517.2 
		602.7,514.9 	"/>
	<polygon id="Aisne" class="st4" points="569.9,244.5 569.7,230.1 565.3,230.1 526,228.4 523.3,249.2 523.3,249.7 522.1,271.2 
		516.9,274.3 518.8,281.4 521.9,285.9 526.3,292.5 538.9,302.4 547.6,292 549.8,283.1 546,273.2 562.2,269 	"/>
	<polygon id="Nord" class="st2" points="495.9,187.6 508.3,189.5 510.7,195.6 521.8,201 516.9,204.1 525.7,213.9 517.6,221.6 
		526,228.4 565.3,230.1 564.8,228.5 569.1,225.3 568.8,213.5 560.9,206.2 548.7,206.7 547.4,208.9 545.8,208.9 546.1,201.2 
		538.5,195.7 534.1,197.6 529.5,195.6 528.5,184 524.6,179.1 516.3,181.1 511,184.3 508.6,179.7 506.5,177.2 502.1,174.8 
		503.7,168.7 500,159.7 500,159.7 481.5,164.7 488,177.7 	"/>
	<polygon id="Somme" class="st4" points="526,228.4 513.7,227.6 459.3,204.6 450.3,223.6 467.8,244.1 471.8,248.8 504.8,255.3 
		515.6,249.2 522.6,249.2 523.3,249.2 	"/>
	<polygon id="Pas-de-Calais" class="st3" points="513.7,227.6 526,228.4 517.6,221.6 525.7,213.9 516.9,204.1 521.8,201 
		510.7,195.6 508.3,189.5 495.9,187.6 488,177.7 481.5,164.7 469.3,166.9 459.6,174.2 459.3,204.6 	"/>
	<polygon id="Oise" class="st3" points="523.3,249.2 522.1,271.2 516.9,274.3 518.8,281.4 521.9,285.9 517.6,287.6 501.4,288.6 
		480.2,279.9 467.3,281.9 465.4,275.4 465.3,267.3 468.3,261.2 467.8,244.1 471.8,248.8 504.8,255.3 515.6,249.2 	"/>
	<polygon id="Cher" class="st3" points="514,400.6 521.8,421.3 520.9,433.7 520.5,433.7 515.5,433.2 508,440.2 506.4,436.9 
		499.4,443.2 501.7,448.6 498.7,451.3 493.9,450.4 489.4,451.3 486.4,456.9 481.3,457.5 483.5,443.8 479.1,437.2 482.3,427.6 
		477,413.2 470.6,414 465.6,411.3 469.9,406.7 473.5,402.2 481.5,400.4 486.4,388.8 480.6,384 486.9,378.7 505.1,390.1 513.3,388.3 
		513.4,388.3 515.4,395.1 	"/>
	<polygon id="Creuse" class="st3" points="498.9,475.6 501.6,486.1 491.7,494.8 496.6,501.3 486.9,505.1 482.3,501.5 469.3,503.2 
		469.9,498.6 464.1,494.6 456.4,493.9 453.3,488.6 454.1,479.6 447.1,470.2 449.7,463.3 448,459 462.9,458.6 464.2,455.1 
		481.3,457.5 486.4,456.9 489.2,462.6 496.3,466 	"/>
	<polygon id="Val-d_x27_Oise" class="st3" points="501.4,288.6 501.1,293.4 489.5,296.8 485,298.1 460.5,287.2 465.4,275.4 
		467.3,281.9 480.2,279.9 	"/>
	<polygon id="Seine-Saint-Denis" class="st3" points="501.1,293.4 500.5,304.5 499.7,304.4 494.1,302.3 493.7,302.4 492.7,299.7 
		490,300.4 489.8,299.8 489.5,296.8 	"/>
	<polygon id="Val-de-Marne" class="st3" points="500.5,304.5 500.1,312 489.9,309.9 489.7,305.4 489.8,304.9 491.3,305.4 
		494.1,303.5 493.7,302.4 494.1,302.3 499.7,304.4 	"/>
	<polygon id="Essonne" class="st4" points="500.1,312 499.1,331 494.2,334.2 494.1,337.4 493.3,337.3 475.1,338.1 473.8,328.3 
		473.4,325 479,318.4 478,313.5 485.8,307.9 489.9,309.9 	"/>
	<polygon id="Paris" class="st7" points="493.7,302.4 494.1,303.5 491.3,305.4 489.8,304.9 487.8,304.2 486.9,301.1 490,300.4 
		492.7,299.7 	"/>
	<polygon id="Hauts-de-Seine" class="st3" points="489.8,299.8 490,300.4 486.9,301.1 487.8,304.2 489.8,304.9 489.7,305.4 
		489.9,309.9 485.8,307.9 483,302.4 485,298.1 489.5,296.8 	"/>
	<polygon id="Loir-et-Cher" class="st3" points="486.9,378.7 480.6,384 486.4,388.8 481.5,400.4 473.5,402.2 469.9,406.7 
		463.1,403.1 446.5,407.6 437.1,400.5 434.8,382.6 427.2,376.4 413.8,373.9 425.2,362.2 424.2,352.5 428.5,346.3 444.5,358.6 
		454.8,357.1 456.9,371.3 463.7,374.6 468.4,379.1 484.9,377.5 	"/>
	<polygon id="Yvelines" class="st3" points="483,302.4 485.8,307.9 478,313.5 479,318.4 473.4,325 473.8,328.3 472.8,328.4 
		468.3,326.5 466.9,322.3 459.3,313.5 460.1,302.7 455.5,296.4 455.2,296.2 456.4,294.1 454.3,289.1 460.5,287.2 485,298.1 	"/>
	<polygon id="Indre" class="st3" points="479.1,437.2 483.5,443.8 481.3,457.5 464.2,455.1 462.9,458.6 448,459 439.3,459.3 
		439.7,456 426.3,444.1 426.6,436.7 431,434.4 434.7,418.4 442.1,419.1 448,412.6 446.5,407.6 463.1,403.1 469.9,406.7 465.6,411.3 
		470.6,414 477,413.2 482.3,427.6 	"/>
	<polygon id="Eure-et-Loir" class="st3" points="473.8,328.3 475.1,338.1 474.5,345.5 469.7,351.9 464.5,353.2 459.8,352.1 
		454.8,357.1 444.5,358.6 428.5,346.3 425.6,344 423.2,335 432,329.8 431.7,321.7 427.1,317.7 426.2,313.5 448.4,307.6 455.2,296.2 
		455.5,296.4 460.1,302.7 459.3,313.5 466.9,322.3 468.3,326.5 472.8,328.4 	"/>
	<polygon id="Haute-Vienne" class="st3" points="469.9,498.6 469.3,503.2 469.1,504.6 441.2,517.7 434.2,516.2 430.7,508.7 
		423.5,507.3 420.4,509.9 413.2,502.5 413.8,497.7 421.6,492.8 421.3,488 427.1,485.6 426.4,481.5 422.8,474.3 421.5,469.7 
		425.5,464.6 439.3,459.3 448,459 449.7,463.3 447.1,470.2 454.1,479.6 453.3,488.6 456.4,493.9 464.1,494.6 	"/>
	<polygon id="Seine-Maritime" class="st5" points="467.8,244.1 468.3,261.2 465.3,267.3 451,264 446.8,270.4 434.4,275.7 432,269.4 
		415,261.4 405.9,263.9 396.3,259.1 402.7,245.1 439.4,232.5 450.3,223.6 	"/>
	<polygon id="Eure" class="st3" points="465.3,267.3 465.4,275.4 460.5,287.2 454.3,289.1 456.4,294.1 455.2,296.2 448.4,307.6 
		426.2,313.5 423,311.3 424.2,307.9 417.2,299.5 411.1,299.2 409.3,297 409.1,294.6 405.9,263.9 415,261.4 432,269.4 434.4,275.7 
		446.8,270.4 451,264 	"/>
	<polygon id="Dordogne" class="st3" points="448.4,546.3 449,552.4 432.6,572.4 427.4,569.7 420,572 412.3,567.2 401.4,568.9 
		394.9,560.4 397,555.6 394.2,553.8 391.4,557.1 384.1,554.3 386.8,540.2 381.4,537.7 385.4,531.5 390.4,531.5 396,526.2 
		395.7,517.7 406.7,510.8 413.2,502.5 420.4,509.9 423.5,507.3 430.7,508.7 434.2,516.2 441.2,517.7 442.9,524.2 439.3,528.7 	"/>
	<polygon id="Indre-et-Loire" class="st3" points="446.5,407.6 448,412.6 442.1,419.1 434.7,418.4 431,434.4 426.6,436.7 417.9,421 
		401,422.6 401.3,415.8 391.1,407.2 396.9,394.1 397.5,382 406,382 413.8,373.9 427.2,376.4 434.8,382.6 437.1,400.5 	"/>
	<polygon id="Vienne" class="st3" points="439.7,456 439.3,459.3 425.5,464.6 421.5,469.7 422.8,474.3 411.8,477.8 408.5,474.3 
		406.3,475.1 406.5,478.2 391.1,476 395.1,474.6 395.9,472.4 391.1,469.1 393.5,464.3 392.1,459.8 387.2,460.2 388.1,427.4 
		383.4,414.1 391.1,407.2 401.3,415.8 401,422.6 417.9,421 426.6,436.7 426.3,444.1 	"/>
	<polygon id="Lot-et-Garonne" class="st3" points="432.6,572.4 431.5,575.3 427.1,575.5 431,586.9 426.1,587.7 422.7,586.2 
		421.3,590.7 423.7,593.4 422.1,601.7 412.1,608.2 408.9,604.9 402.3,605.5 400.5,608.5 383.9,609 385.7,600.9 375.8,599.8 
		374.5,594.7 379.1,592.8 382.9,585.4 390.5,567.6 387.2,565.2 388,563.1 394.9,560.4 401.4,568.9 412.3,567.2 420,572 427.4,569.7 
			"/>
	<polygon id="Orne" class="st3" points="431.7,321.7 432,329.8 423.2,335 425.6,344 413.8,339.5 407.9,334.9 405.9,325.6 
		399.2,324.7 393.3,330.1 389.5,329.5 382.9,318.2 370.6,321 359.2,325 353.3,319.8 357.5,318.9 360.6,309.5 356.9,305.5 
		374.6,298.4 386.5,301.8 398.2,294.4 409.1,294.6 409.3,297 411.1,299.2 417.2,299.5 424.2,307.9 423,311.3 426.2,313.5 
		427.1,317.7 	"/>
	<polygon id="Sarthe" class="st3" points="428.5,346.3 424.2,352.5 425.2,362.2 413.8,373.9 406,382 397.5,382 372.8,368.9 
		373.5,360.8 384.6,341 384.8,333.4 389.5,329.5 393.3,330.1 399.2,324.7 405.9,325.6 407.9,334.9 413.8,339.5 425.6,344 	"/>
	<polygon id="Charente" class="st3" points="426.4,481.5 427.1,485.6 421.3,488 421.6,492.8 413.8,497.7 413.2,502.5 406.7,510.8 
		395.7,517.7 396,526.2 390.4,531.5 385.4,531.5 370.9,521.3 372.8,511.3 366.4,503.9 365.6,496.2 378.5,495.1 382.1,483.1 
		384.8,478.3 391.1,476 406.5,478.2 406.3,475.1 408.5,474.3 411.8,477.8 422.8,474.3 	"/>
	<polygon id="Calvados" class="st2" points="405.9,263.9 409.1,294.6 398.2,294.4 386.5,301.8 374.6,298.4 356.9,305.5 348.7,303.2 
		344.6,297.9 356.5,284.7 346.3,271 347,265.6 352.5,264.2 356.6,266.2 375.6,269 383,273.2 	"/>
	<polygon id="Maine-et-Loire" class="st4" points="397.5,382 396.9,394.1 391.1,407.2 383.4,414.1 363.9,412.9 360.8,417.9 
		348.5,415.3 339.1,413.3 334.8,393.3 346.9,391.7 346.9,384.4 336.2,366.2 362.8,370.2 372.8,368.9 	"/>
	<polygon id="Gironde_1_" class="st2" points="397,555.6 394.9,560.4 388,563.1 387.2,565.2 390.5,567.6 382.9,585.4 379.1,592.8 
		374.5,594.7 370,596.5 363.8,595.1 362.3,589.4 350.8,578.2 336.5,580.6 336.5,576.1 332.8,573.5 324.1,577.1 324.3,574.8 
		328.2,570.5 335.9,570.5 336.4,566.9 329.5,558.5 324.1,565.3 332.2,508.7 334.6,507.7 335.8,513.6 346.9,521.1 351.7,537.7 
		353.2,535.3 351,523.6 364.4,526.6 365.3,533.6 381.4,537.7 386.8,540.2 384.1,554.3 391.4,557.1 394.2,553.8 	"/>
	<polygon id="Deux-Sèvres" class="st3" points="395.9,472.4 395.1,474.6 391.1,476 384.8,478.3 382.1,483.1 378.5,481.9 
		377.9,479.2 355.6,468.7 353.2,461.5 362.8,456.5 358.4,434.6 348.5,415.3 360.8,417.9 363.9,412.9 383.4,414.1 388.1,427.4 
		387.2,460.2 392.1,459.8 393.5,464.3 391.1,469.1 	"/>
	<polygon id="Mayenne" class="st3" points="382.9,318.2 389.5,329.5 384.8,333.4 384.6,341 373.5,360.8 372.8,368.9 362.8,370.2 
		336.2,366.2 341.4,353.6 346.9,352.1 344.6,336.1 346.8,331.5 345.2,319.2 350.6,320.4 353.3,319.8 359.2,325 370.6,321 	"/>
	<polygon id="Charente-Maritime" class="st5" points="385.4,531.5 381.4,537.7 365.3,533.6 364.4,526.6 351,523.6 349.4,515.2 
		329.5,499.8 328,487.1 323,483.3 323.5,475.7 331.7,486.1 335.6,488.1 338.6,477.1 314.8,463.3 319.8,460.2 332.3,467.9 
		334.7,461.4 341.4,457.4 353.2,461.5 355.6,468.7 377.9,479.2 378.5,481.9 382.1,483.1 378.5,495.1 365.6,496.2 366.4,503.9 
		372.8,511.3 370.9,521.3 	"/>
	<polygon id="Tarn-et-Garonne" class="st3" points="465.6,604.9 470.4,601.4 467.5,589.5 461.4,591.3 454.9,596.5 445.2,597.2 
		436.9,593.6 431,586.9 426.1,587.7 422.7,586.2 421.3,590.7 423.7,593.4 422.1,601.7 412.1,608.2 424.4,622.9 424.4,622.9 
		424.4,622.9 434.5,622.7 436.6,625.3 443,621.8 442.9,620 442.8,618.2 451.8,617.8 458,610.8 457.5,608.2 457.5,608.2 457.1,606.5 
			"/>
	<polygon id="Aude" class="st4" points="484.8,646.6 482.6,650.6 473.3,647.9 467.7,649.5 465.6,646.6 463.1,649.5 460.6,653.2 
		455.8,659 468.5,667.2 471,682.9 465.6,684.5 464,686.6 471.1,692.6 475.1,690.5 480,696.4 488.6,691.8 486.9,685.8 507.6,686 
		512.1,680.6 520.4,685.5 520.6,672.9 515.8,669.8 517.6,667 521.8,670.1 527.1,663.4 512.7,654.5 509.7,658.4 506.2,660.6 
		500.8,657.4 497.2,652.8 498.3,647.8 	"/>
	<polygon id="Pyrénées-Orientales" class="st2" points="507.6,686 486.9,685.8 488.6,691.8 480,696.4 458,703.3 461.1,708.3 
		468.2,710.6 468.3,714.5 474.4,717.2 478.2,713.4 482.8,713.3 494.2,721 502.3,721 511.3,711.6 518.1,710 521.5,712.8 525.5,714 
		525.6,708.2 521.5,703.7 520.4,685.5 512.1,680.6 	"/>
	<polygon id="Tarn" class="st3" points="451.8,617.8 473.4,643.6 473.3,647.9 482.6,650.6 484.8,646.6 498.3,647.8 503,646.4 
		504.3,642.4 501,639.2 503.8,633.4 506.9,635.6 516.2,632.4 512.1,627.7 503,627.5 495.9,610.8 479.5,599.9 470.4,601.4 
		465.6,604.9 457.1,606.5 457.5,608.2 458,610.8 	"/>
	<polygon id="Ariège" class="st4" points="475.1,690.5 471.1,692.6 464,686.6 465.6,684.5 471,682.9 468.5,667.2 455.8,659 
		447.8,656.9 441.3,655.1 439.3,657.2 442.9,660.6 437.9,668.7 431.7,665.7 424.6,668.6 425.5,674.5 417.9,679.8 417.9,686.5 
		427.6,690.4 431.3,697 439.3,697 444.4,700.9 455.8,699.7 458,703.3 480,696.4 	"/>
	<polygon id="Haute-Garonne" class="st6" points="425.5,674.5 424.6,668.6 431.7,665.7 437.9,668.7 442.9,660.6 439.3,657.2 
		441.3,655.1 447.8,656.9 455.8,659 460.6,653.2 463.1,649.5 465.6,646.6 467.7,649.5 473.3,647.9 473.4,643.6 451.8,617.8 
		442.8,618.2 443,621.8 436.6,625.3 434.5,622.7 424.4,622.9 435.2,636 429.6,640.3 424.9,651 420.3,648.6 414.4,648.1 408.2,654.4 
		400.4,666.2 407.8,677.8 403.8,682.9 398.9,680.6 399.8,692.5 397,693.2 408.7,694.3 409.3,683.5 417.9,686.5 417.9,679.8 	"/>
	<polygon id="Gers" class="st3" points="382.1,615.2 379.3,610.5 368.3,614.1 372,619.7 368.6,634.8 374.3,635.6 379.9,634.5 
		384.8,640.1 387.7,648.3 408.2,654.4 414.4,648.1 420.3,648.6 424.9,651 429.6,640.3 435.2,636 424.4,622.9 419.2,616.8 
		412.1,608.2 408.9,604.9 402.3,605.5 400.5,608.5 383.9,609 383.8,614.7 	"/>
	<polygon id="Hautes-Pyrénées" class="st4" points="398.9,680.6 403.8,682.9 407.8,677.8 400.4,666.2 408.2,654.4 387.7,648.3 
		384.8,640.1 379.9,634.5 374.3,635.6 380.2,650.6 365.4,669.5 362.9,682.3 369.8,687 375.9,693.4 384.9,690.4 390.8,694.7 
		397,693.2 399.8,692.5 	"/>
	<polygon id="Landes" class="st3" points="368.6,634.8 372,619.7 368.3,614.1 379.3,610.5 382.1,615.2 383.8,614.7 383.9,609 
		385.7,600.9 375.8,599.8 374.5,594.7 370,596.5 363.8,595.1 362.3,589.4 350.8,578.2 336.5,580.6 336.5,576.1 332.8,573.5 
		324.1,577.1 311.9,629.7 308.5,635.3 316.1,638.4 	"/>
	<polygon id="Pyrénées-Atlantiques" class="st6" points="293.2,644.9 293.2,648.8 312.3,655.1 311.6,661.7 308.8,663.2 
		314.8,669.7 316.9,664.8 335.3,674.6 342.5,674.7 343,679.3 350.1,685.5 362.9,682.3 365.4,669.5 380.2,650.6 374.3,635.6 
		368.6,634.8 316.1,638.4 308.5,635.3 302.5,643 302.5,643 	"/>
	<polygon id="Vendée" class="st5" points="358.4,434.6 362.8,456.5 353.2,461.5 341.4,457.4 334.7,461.4 305.7,446.4 293.2,425.3 
		293.4,420 300.6,411.3 313,422.1 322.2,422 319.9,414.5 323.4,413 324.9,419.5 334,411.2 339.1,413.3 348.5,415.3 	"/>
	<polygon id="Manche" class="st5" points="356.9,305.5 360.6,309.5 357.5,318.9 353.3,319.8 350.6,320.4 345.2,319.2 340.5,318.2 
		333.4,322.8 327.9,319.1 326,312.1 332.3,309.9 324.3,299.8 327.2,294.2 324.7,274.9 316.7,260.4 316.7,246.5 312.1,242.9 313,241 
		325.7,247.1 330.2,245 341.4,245 343.3,250.8 339.1,254 347,265.6 346.3,271 356.5,284.7 344.6,297.9 348.7,303.2 	"/>
	<polygon id="Loire-Atlantique" class="st5" points="346.9,384.4 346.9,391.7 334.8,393.3 339.1,413.3 334,411.2 324.9,419.5 
		323.4,413 319.9,414.5 322.2,422 313,422.1 300.6,411.3 295.4,407.2 288.6,405.9 291.2,403.1 291.2,397 276.4,394.5 281.1,384.3 
		299.1,379.3 300.7,372.4 317.6,369.6 326.9,362 336.2,366.2 	"/>
	<polygon id="Ille-et-Vilaine" class="st4" points="344.6,336.1 346.9,352.1 341.4,353.6 336.2,366.2 326.9,362 317.6,369.6 
		300.7,372.4 297.8,365.3 302.5,359.4 298.8,349.9 291.7,349.9 294.9,341.9 298.5,332.9 308.3,331.7 310.6,317.7 307.5,313.5 
		306.6,308.2 308.7,305.8 314,306.1 315.2,312 326,312.1 327.9,319.1 333.4,322.8 340.5,318.2 345.2,319.2 346.8,331.5 	"/>
	<polygon id="Côtes-d_x27_Armor" class="st1" points="307.5,313.5 310.6,317.7 308.3,331.7 298.5,332.9 294.9,341.9 290.6,341.5 
		285.2,338.1 280,343.2 260.2,334.4 254,338.1 240.9,332.9 238.1,305.8 238.8,301.6 240.2,293.4 263.1,292.1 271.7,309.7 
		276.2,313.5 292.6,306.5 306.6,308.2 	"/>
	<polygon id="Morbihan" class="st1" points="298.8,349.9 302.5,359.4 297.8,365.3 300.7,372.4 299.1,379.3 281.1,384.3 267.1,381 
		253.4,373.9 238.1,360.7 239.2,356.4 244.7,354.4 245.8,350.1 234.6,345.9 232,336.8 240.9,332.9 254,338.1 260.2,334.4 280,343.2 
		285.2,338.1 290.6,341.5 294.9,341.9 291.7,349.9 	"/>
	<polygon id="Finistère" class="st2" points="245.8,350.1 244.7,354.4 239.2,356.4 238.1,360.7 223.5,358.3 212.2,352.3 211,356 
		202.7,355.6 203,352.2 197.4,341.3 189.5,339.4 189.5,336.6 206.8,335.8 207.7,331.4 193.4,324.1 197.1,322.2 210.9,324.5 
		201.7,318.9 187.9,319.9 190.9,305.7 216.8,298.3 227.1,302.1 229.3,299.7 238.8,301.6 238.1,305.8 240.9,332.9 232,336.8 
		234.6,345.9 	"/>
	<polygon id="Corrèze" class="st3" points="496.8,518.9 497.4,523.1 493.9,524.6 489.7,521 482.6,533.5 481.2,542.7 476.9,549.6 
		463.6,552.8 459.3,546.6 453.8,544.1 448.4,546.3 439.3,528.7 442.9,524.2 441.2,517.7 469.1,504.6 469.3,503.2 482.3,501.5 
		486.9,505.1 496.6,501.3 495.5,508.2 496.8,512.8 	"/>
	<polygon id="Lot" class="st3" points="476.9,549.6 480.5,571.9 478.3,574.8 466.4,581.4 467.5,589.5 461.4,591.3 454.9,596.5 
		445.2,597.2 436.9,593.6 431,586.9 427.1,575.5 431.5,575.3 432.6,572.4 449,552.4 448.4,546.3 453.8,544.1 459.3,546.6 
		463.6,552.8 	"/>
	<polygon id="Loiret" class="st3" points="515.8,344.2 524.4,358.6 518.2,364.5 519.7,370 515.8,372.4 512.3,372.1 517,384.4 
		512.6,385.7 513.3,388.3 505.1,390.1 486.9,378.7 484.9,377.5 468.4,379.1 463.7,374.6 456.9,371.3 454.8,357.1 459.8,352.1 
		464.5,353.2 469.7,351.9 474.5,345.5 475.1,338.1 493.3,337.3 494.1,337.4 494.1,338.6 498.1,342 494.7,348.1 496.7,349.9 
		510.7,348.5 	"/>
</g>
<g>
	<rect x="78.5" y="407.5" class="st3" width="169.7" height="159.9"/>
	<g id="XMLID_2191_">
		<rect id="XMLID_218_" x="95.4" y="425.5" class="st8" width="177.7" height="77.3"/>
		<g class="st9">
			<path d="M96.7,425.5h3.8c0.7,0,1.4,0.1,2,0.4c0.6,0.3,1.1,0.6,1.5,1.1c0.4,0.5,0.8,1,1,1.6s0.3,1.3,0.3,2.1
				c0,0.8-0.1,1.5-0.3,2.1c-0.2,0.6-0.6,1.2-1,1.6s-0.9,0.8-1.5,1c-0.6,0.2-1.3,0.4-2,0.4h-3.8V425.5z M100.5,434.5
				c0.5,0,0.9-0.1,1.3-0.3s0.7-0.4,1-0.8c0.3-0.3,0.5-0.7,0.7-1.2c0.2-0.5,0.2-1,0.2-1.6c0-0.6-0.1-1.1-0.2-1.6s-0.4-0.9-0.7-1.2
				s-0.6-0.6-1-0.8s-0.8-0.3-1.3-0.3h-2.2v7.6H100.5z"/>
			<path d="M113.8,433.3c0,0.4-0.1,0.8-0.3,1.1s-0.4,0.6-0.7,0.9s-0.6,0.4-1,0.6c-0.4,0.1-0.8,0.2-1.3,0.2c-0.6,0-1.1-0.1-1.6-0.3
				c-0.4-0.2-0.8-0.4-1.1-0.8s-0.5-0.8-0.6-1.2c-0.1-0.5-0.2-1-0.2-1.6s0.1-1.1,0.2-1.6c0.1-0.5,0.4-0.9,0.7-1.2
				c0.3-0.3,0.7-0.6,1.1-0.8s0.9-0.3,1.5-0.3s1.1,0.1,1.5,0.3s0.8,0.4,1,0.8c0.3,0.3,0.5,0.7,0.6,1.2c0.1,0.5,0.2,1,0.2,1.6v0.2
				h-5.3c0,0.8,0.2,1.4,0.5,1.8s0.8,0.6,1.4,0.6c0.5,0,0.9-0.1,1.3-0.4s0.5-0.6,0.6-1.1H113.8z M112.3,431.3c0-0.6-0.2-1-0.5-1.4
				s-0.7-0.6-1.3-0.6c-0.6,0-1,0.2-1.3,0.5c-0.3,0.3-0.5,0.8-0.6,1.5H112.3z M111.3,425.5h1.8l-2.1,2h-1.2L111.3,425.5z"/>
			<path d="M115.9,428.3h1.5v1.2h0c0.2-0.4,0.5-0.7,0.9-0.9s0.9-0.4,1.5-0.4c0.5,0,1,0.1,1.4,0.3s0.7,0.5,1,0.8
				c0.3,0.3,0.5,0.7,0.6,1.2c0.1,0.5,0.2,1,0.2,1.6c0,0.6-0.1,1.1-0.2,1.6c-0.1,0.5-0.4,0.9-0.6,1.2s-0.6,0.6-1,0.8
				c-0.4,0.2-0.9,0.3-1.4,0.3c-0.6,0-1.1-0.1-1.5-0.4s-0.7-0.6-0.9-1h0v3.9h-1.5V428.3z M119.4,434.8c0.6,0,1.2-0.2,1.5-0.7
				c0.4-0.5,0.6-1.2,0.6-2c0-0.9-0.2-1.5-0.5-2c-0.4-0.5-0.9-0.7-1.6-0.7c-0.7,0-1.2,0.2-1.5,0.7c-0.3,0.5-0.5,1.2-0.5,2
				s0.2,1.5,0.5,2S118.7,434.8,119.4,434.8z"/>
			<path d="M129.3,434.8L129.3,434.8c-0.3,0.4-0.6,0.6-1,0.9s-1,0.3-1.6,0.3c-0.4,0-0.7-0.1-1-0.2c-0.3-0.1-0.5-0.2-0.7-0.4
				c-0.2-0.2-0.3-0.4-0.4-0.6c-0.1-0.2-0.1-0.5-0.1-0.8c0-0.5,0.1-1,0.4-1.3c0.2-0.3,0.5-0.5,0.9-0.7s0.8-0.3,1.2-0.3
				s0.9-0.1,1.2-0.2c0.3,0,0.5-0.1,0.7-0.1s0.3-0.1,0.4-0.1c0.1-0.1,0.1-0.1,0.2-0.2c0-0.1,0-0.2,0-0.3c0-0.4-0.1-0.7-0.4-1
				s-0.6-0.4-1.2-0.4c-0.5,0-0.9,0.1-1.2,0.3s-0.4,0.6-0.5,1.1h-1.4c0.1-0.8,0.4-1.4,0.8-1.9c0.5-0.5,1.2-0.7,2.3-0.7
				c1,0,1.8,0.2,2.3,0.7c0.5,0.5,0.7,1.2,0.7,2.3v4.6h-1.5V434.8z M129.3,432.2c-0.4,0.1-0.8,0.2-1.2,0.2c-0.4,0.1-0.8,0.1-1.1,0.2
				s-0.6,0.2-0.8,0.4s-0.3,0.4-0.3,0.7c0,0.3,0.1,0.6,0.4,0.8s0.6,0.3,1,0.3c0.3,0,0.6,0,0.9-0.1c0.3-0.1,0.5-0.2,0.7-0.4
				s0.3-0.4,0.5-0.6c0.1-0.2,0.2-0.5,0.2-0.8V432.2z"/>
			<path d="M133.1,428.3h1.5v1.2h0c0.2-0.4,0.5-0.7,0.9-1s0.7-0.3,1.2-0.3c0,0,0.1,0,0.2,0s0.2,0,0.2,0v1.6c-0.1,0-0.2,0-0.3-0.1
				s-0.2,0-0.3,0c-0.6,0-1,0.2-1.4,0.5s-0.5,0.9-0.5,1.5v4.1h-1.5V428.3z"/>
			<path d="M138.7,429.6h-1v-1.2h1v-1.9h1.5v1.9h1.8v1.2h-1.8v3.9c0,0.4,0.1,0.7,0.3,0.8s0.4,0.3,0.8,0.3c0.1,0,0.2,0,0.4,0
				s0.2,0,0.4,0v1.3c-0.2,0-0.3,0.1-0.5,0.1s-0.3,0-0.5,0c-0.7,0-1.3-0.2-1.7-0.6c-0.4-0.4-0.6-1-0.6-1.8V429.6z"/>
			<path d="M144.6,433.4c0,0.6,0.2,0.9,0.6,1.1s0.7,0.3,1.2,0.3c0.4,0,0.8-0.1,1-0.3s0.4-0.4,0.4-0.8c0-0.3-0.1-0.5-0.3-0.7
				s-0.5-0.3-0.8-0.4c-0.3-0.1-0.7-0.2-1.1-0.2c-0.4-0.1-0.7-0.2-1.1-0.3c-0.3-0.1-0.6-0.4-0.8-0.6c-0.2-0.3-0.3-0.7-0.3-1.2
				c0-0.3,0.1-0.6,0.2-0.9c0.1-0.3,0.3-0.5,0.5-0.7s0.5-0.4,0.9-0.5c0.3-0.1,0.8-0.2,1.2-0.2c0.9,0,1.6,0.2,2.1,0.6s0.8,1.1,0.8,1.9
				h-1.5c0-0.5-0.2-0.8-0.4-1.1c-0.3-0.2-0.6-0.3-1.1-0.3c-0.2,0-0.4,0-0.6,0.1s-0.3,0.1-0.4,0.2c-0.1,0.1-0.2,0.2-0.2,0.3
				s-0.1,0.2-0.1,0.4c0,0.3,0.1,0.5,0.3,0.6s0.5,0.2,0.8,0.3c0.3,0.1,0.7,0.2,1.1,0.3c0.4,0.1,0.7,0.2,1.1,0.3
				c0.3,0.2,0.6,0.4,0.8,0.7c0.2,0.3,0.3,0.7,0.3,1.2c0,0.7-0.2,1.2-0.7,1.6c-0.5,0.4-1.2,0.6-2.2,0.6c-1,0-1.8-0.2-2.3-0.6
				s-0.9-1.1-0.9-2H144.6z"/>
			<path d="M161.7,433.3c0,0.4-0.1,0.8-0.3,1.1s-0.4,0.6-0.7,0.9s-0.6,0.4-1,0.6c-0.4,0.1-0.8,0.2-1.3,0.2c-0.6,0-1.1-0.1-1.6-0.3
				c-0.4-0.2-0.8-0.4-1.1-0.8s-0.5-0.8-0.6-1.2c-0.1-0.5-0.2-1-0.2-1.6s0.1-1.1,0.2-1.6c0.1-0.5,0.4-0.9,0.7-1.2
				c0.3-0.3,0.7-0.6,1.1-0.8s0.9-0.3,1.5-0.3s1.1,0.1,1.5,0.3s0.8,0.4,1,0.8c0.3,0.3,0.5,0.7,0.6,1.2c0.1,0.5,0.2,1,0.2,1.6v0.2
				h-5.3c0,0.8,0.2,1.4,0.5,1.8s0.8,0.6,1.4,0.6c0.5,0,0.9-0.1,1.3-0.4s0.5-0.6,0.6-1.1H161.7z M160.2,431.3c0-0.6-0.2-1-0.5-1.4
				s-0.7-0.6-1.3-0.6c-0.6,0-1,0.2-1.3,0.5c-0.3,0.3-0.5,0.8-0.6,1.5H160.2z"/>
			<path d="M163.9,429.6h-1v-1.2h1v-1.9h1.5v1.9h1.8v1.2h-1.8v3.9c0,0.4,0.1,0.7,0.3,0.8s0.4,0.3,0.8,0.3c0.1,0,0.2,0,0.4,0
				s0.2,0,0.4,0v1.3c-0.2,0-0.3,0.1-0.5,0.1s-0.3,0-0.5,0c-0.7,0-1.3-0.2-1.7-0.6c-0.4-0.4-0.6-1-0.6-1.8V429.6z"/>
			<path d="M177.3,434.8L177.3,434.8c-0.3,0.4-0.6,0.6-1,0.9s-1,0.3-1.6,0.3c-0.4,0-0.7-0.1-1-0.2c-0.3-0.1-0.5-0.2-0.7-0.4
				c-0.2-0.2-0.3-0.4-0.4-0.6c-0.1-0.2-0.1-0.5-0.1-0.8c0-0.5,0.1-1,0.4-1.3c0.2-0.3,0.5-0.5,0.9-0.7s0.8-0.3,1.2-0.3
				s0.9-0.1,1.2-0.2c0.3,0,0.5-0.1,0.7-0.1s0.3-0.1,0.4-0.1c0.1-0.1,0.1-0.1,0.2-0.2c0-0.1,0-0.2,0-0.3c0-0.4-0.1-0.7-0.4-1
				s-0.6-0.4-1.2-0.4c-0.5,0-0.9,0.1-1.2,0.3s-0.4,0.6-0.5,1.1h-1.4c0.1-0.8,0.4-1.4,0.8-1.9c0.5-0.5,1.2-0.7,2.3-0.7
				c1,0,1.8,0.2,2.3,0.7c0.5,0.5,0.7,1.2,0.7,2.3v4.6h-1.5V434.8z M177.3,432.2c-0.4,0.1-0.8,0.2-1.2,0.2c-0.4,0.1-0.8,0.1-1.1,0.2
				s-0.6,0.2-0.8,0.4s-0.3,0.4-0.3,0.7c0,0.3,0.1,0.6,0.4,0.8s0.6,0.3,1,0.3c0.3,0,0.6,0,0.9-0.1c0.3-0.1,0.5-0.2,0.7-0.4
				s0.3-0.4,0.5-0.6c0.1-0.2,0.2-0.5,0.2-0.8V432.2z"/>
			<path d="M181.1,428.3h1.5v1.2h0c0.2-0.4,0.5-0.7,0.9-1s0.7-0.3,1.2-0.3c0,0,0.1,0,0.2,0s0.2,0,0.2,0v1.6c-0.1,0-0.2,0-0.3-0.1
				s-0.2,0-0.3,0c-0.6,0-1,0.2-1.4,0.5s-0.5,0.9-0.5,1.5v4.1h-1.5V428.3z"/>
			<path d="M186.7,428.3h1.5v1.2h0c0.2-0.4,0.5-0.7,0.9-1s0.7-0.3,1.2-0.3c0,0,0.1,0,0.2,0s0.2,0,0.2,0v1.6c-0.1,0-0.2,0-0.3-0.1
				s-0.2,0-0.3,0c-0.6,0-1,0.2-1.4,0.5s-0.5,0.9-0.5,1.5v4.1h-1.5V428.3z"/>
			<path d="M193,427c-0.3,0-0.5-0.1-0.7-0.3s-0.3-0.4-0.3-0.7c0-0.3,0.1-0.5,0.3-0.7c0.2-0.2,0.4-0.3,0.7-0.3c0.3,0,0.5,0.1,0.7,0.3
				s0.3,0.4,0.3,0.7c0,0.3-0.1,0.5-0.3,0.7S193.3,427,193,427z M192.3,428.3h1.5v7.5h-1.5V428.3z"/>
			<path d="M195.2,428.3h1.6l2,5.8l2-5.8h1.6l-2.9,7.5h-1.5L195.2,428.3z"/>
			<path d="M210.2,433.3c0,0.4-0.1,0.8-0.3,1.1s-0.4,0.6-0.7,0.9s-0.6,0.4-1,0.6c-0.4,0.1-0.8,0.2-1.3,0.2c-0.6,0-1.1-0.1-1.6-0.3
				c-0.4-0.2-0.8-0.4-1.1-0.8s-0.5-0.8-0.6-1.2c-0.1-0.5-0.2-1-0.2-1.6s0.1-1.1,0.2-1.6c0.1-0.5,0.4-0.9,0.7-1.2
				c0.3-0.3,0.7-0.6,1.1-0.8s0.9-0.3,1.5-0.3s1.1,0.1,1.5,0.3s0.8,0.4,1,0.8c0.3,0.3,0.5,0.7,0.6,1.2c0.1,0.5,0.2,1,0.2,1.6v0.2
				h-5.3c0,0.8,0.2,1.4,0.5,1.8s0.8,0.6,1.4,0.6c0.5,0,0.9-0.1,1.3-0.4s0.5-0.6,0.6-1.1H210.2z M208.7,431.3c0-0.6-0.2-1-0.5-1.4
				s-0.7-0.6-1.3-0.6c-0.6,0-1,0.2-1.3,0.5c-0.3,0.3-0.5,0.8-0.6,1.5H208.7z M207.7,425.5h1.8l-2.1,2h-1.2L207.7,425.5z"/>
			<path d="M218.6,433.3c0,0.4-0.1,0.8-0.3,1.1s-0.4,0.6-0.7,0.9s-0.6,0.4-1,0.6c-0.4,0.1-0.8,0.2-1.3,0.2c-0.6,0-1.1-0.1-1.6-0.3
				c-0.4-0.2-0.8-0.4-1.1-0.8s-0.5-0.8-0.6-1.2c-0.1-0.5-0.2-1-0.2-1.6s0.1-1.1,0.2-1.6c0.1-0.5,0.4-0.9,0.7-1.2
				c0.3-0.3,0.7-0.6,1.1-0.8s0.9-0.3,1.5-0.3s1.1,0.1,1.5,0.3s0.8,0.4,1,0.8c0.3,0.3,0.5,0.7,0.6,1.2c0.1,0.5,0.2,1,0.2,1.6v0.2
				h-5.3c0,0.8,0.2,1.4,0.5,1.8s0.8,0.6,1.4,0.6c0.5,0,0.9-0.1,1.3-0.4s0.5-0.6,0.6-1.1H218.6z M217.2,431.3c0-0.6-0.2-1-0.5-1.4
				s-0.7-0.6-1.3-0.6c-0.6,0-1,0.2-1.3,0.5c-0.3,0.3-0.5,0.8-0.6,1.5H217.2z"/>
			<path d="M221.7,433.4c0,0.6,0.2,0.9,0.6,1.1s0.7,0.3,1.2,0.3c0.4,0,0.8-0.1,1-0.3s0.4-0.4,0.4-0.8c0-0.3-0.1-0.5-0.3-0.7
				s-0.5-0.3-0.8-0.4c-0.3-0.1-0.7-0.2-1.1-0.2c-0.4-0.1-0.7-0.2-1.1-0.3c-0.3-0.1-0.6-0.4-0.8-0.6c-0.2-0.3-0.3-0.7-0.3-1.2
				c0-0.3,0.1-0.6,0.2-0.9c0.1-0.3,0.3-0.5,0.5-0.7s0.5-0.4,0.9-0.5c0.3-0.1,0.8-0.2,1.2-0.2c0.9,0,1.6,0.2,2.1,0.6s0.8,1.1,0.8,1.9
				h-1.5c0-0.5-0.2-0.8-0.4-1.1c-0.3-0.2-0.6-0.3-1.1-0.3c-0.2,0-0.4,0-0.6,0.1s-0.3,0.1-0.4,0.2c-0.1,0.1-0.2,0.2-0.2,0.3
				s-0.1,0.2-0.1,0.4c0,0.3,0.1,0.5,0.3,0.6s0.5,0.2,0.8,0.3c0.3,0.1,0.7,0.2,1.1,0.3c0.4,0.1,0.7,0.2,1.1,0.3
				c0.3,0.2,0.6,0.4,0.8,0.7c0.2,0.3,0.3,0.7,0.3,1.2c0,0.7-0.2,1.2-0.7,1.6c-0.5,0.4-1.2,0.6-2.2,0.6c-1,0-1.8-0.2-2.3-0.6
				s-0.9-1.1-0.9-2H221.7z"/>
		</g>
		<g class="st9">
			<path d="M96.6,446.3h1.5v1.2h0c0.2-0.4,0.5-0.7,0.9-0.9s0.9-0.4,1.5-0.4c0.5,0,1,0.1,1.4,0.3s0.7,0.5,1,0.8
				c0.3,0.3,0.5,0.7,0.6,1.2c0.1,0.5,0.2,1,0.2,1.6c0,0.6-0.1,1.1-0.2,1.6c-0.1,0.5-0.4,0.9-0.6,1.2s-0.6,0.6-1,0.8
				c-0.4,0.2-0.9,0.3-1.4,0.3c-0.6,0-1.1-0.1-1.5-0.4s-0.7-0.6-0.9-1h0v3.9h-1.5V446.3z M100.1,452.8c0.6,0,1.2-0.2,1.5-0.7
				c0.4-0.5,0.6-1.2,0.6-2c0-0.9-0.2-1.5-0.5-2c-0.4-0.5-0.9-0.7-1.6-0.7c-0.7,0-1.2,0.2-1.5,0.7c-0.3,0.5-0.5,1.2-0.5,2
				s0.2,1.5,0.5,2S99.4,452.8,100.1,452.8z"/>
			<path d="M110,452.8L110,452.8c-0.3,0.4-0.6,0.6-1,0.9s-1,0.3-1.6,0.3c-0.4,0-0.7-0.1-1-0.2c-0.3-0.1-0.5-0.2-0.7-0.4
				c-0.2-0.2-0.3-0.4-0.4-0.6c-0.1-0.2-0.1-0.5-0.1-0.8c0-0.5,0.1-1,0.4-1.3c0.2-0.3,0.5-0.5,0.9-0.7s0.8-0.3,1.2-0.3
				s0.9-0.1,1.2-0.2c0.3,0,0.5-0.1,0.7-0.1s0.3-0.1,0.4-0.1c0.1-0.1,0.1-0.1,0.2-0.2c0-0.1,0-0.2,0-0.3c0-0.4-0.1-0.7-0.4-1
				s-0.6-0.4-1.2-0.4c-0.5,0-0.9,0.1-1.2,0.3s-0.4,0.6-0.5,1.1h-1.4c0.1-0.8,0.4-1.4,0.8-1.9c0.5-0.5,1.2-0.7,2.3-0.7
				c1,0,1.8,0.2,2.3,0.7c0.5,0.5,0.7,1.2,0.7,2.3v4.6H110V452.8z M110,450.2c-0.4,0.1-0.8,0.2-1.2,0.2c-0.4,0.1-0.8,0.1-1.1,0.2
				s-0.6,0.2-0.8,0.4s-0.3,0.4-0.3,0.7c0,0.3,0.1,0.6,0.4,0.8s0.6,0.3,1,0.3c0.3,0,0.6,0,0.9-0.1c0.3-0.1,0.5-0.2,0.7-0.4
				s0.3-0.4,0.5-0.6c0.1-0.2,0.2-0.5,0.2-0.8V450.2z"/>
			<path d="M113.8,446.3h1.5v1.2h0c0.2-0.4,0.5-0.7,0.9-1s0.7-0.3,1.2-0.3c0,0,0.1,0,0.2,0s0.2,0,0.2,0v1.6c-0.1,0-0.2,0-0.3-0.1
				s-0.2,0-0.3,0c-0.6,0-1,0.2-1.4,0.5s-0.5,0.9-0.5,1.5v4.1h-1.5V446.3z"/>
			<path d="M128.7,452.6L128.7,452.6c-0.3,0.4-0.6,0.7-0.9,1s-0.9,0.4-1.5,0.4c-0.5,0-1-0.1-1.4-0.3c-0.4-0.2-0.7-0.5-1-0.8
				s-0.5-0.8-0.6-1.2c-0.1-0.5-0.2-1-0.2-1.5c0-0.6,0.1-1.1,0.2-1.6c0.1-0.5,0.3-0.9,0.6-1.2c0.3-0.3,0.6-0.6,1-0.8s0.9-0.3,1.4-0.3
				c0.6,0,1.1,0.1,1.5,0.4s0.7,0.6,0.9,0.9h0v-4h1.5v10.4h-1.5V452.6z M126.7,452.8c0.7,0,1.2-0.2,1.5-0.7c0.3-0.5,0.5-1.2,0.5-2
				c0-0.9-0.2-1.5-0.5-2c-0.3-0.5-0.8-0.7-1.5-0.7c-0.6,0-1.2,0.2-1.5,0.7c-0.4,0.5-0.6,1.2-0.6,2c0,0.9,0.2,1.5,0.5,2
				S126,452.8,126.7,452.8z"/>
			<path d="M138.9,451.3c0,0.4-0.1,0.8-0.3,1.1s-0.4,0.6-0.7,0.9s-0.6,0.4-1,0.6c-0.4,0.1-0.8,0.2-1.3,0.2c-0.6,0-1.1-0.1-1.6-0.3
				c-0.4-0.2-0.8-0.4-1.1-0.8s-0.5-0.8-0.6-1.2c-0.1-0.5-0.2-1-0.2-1.6s0.1-1.1,0.2-1.6c0.1-0.5,0.4-0.9,0.7-1.2
				c0.3-0.3,0.7-0.6,1.1-0.8s0.9-0.3,1.5-0.3s1.1,0.1,1.5,0.3s0.8,0.4,1,0.8c0.3,0.3,0.5,0.7,0.6,1.2c0.1,0.5,0.2,1,0.2,1.6v0.2
				h-5.3c0,0.8,0.2,1.4,0.5,1.8s0.8,0.6,1.4,0.6c0.5,0,0.9-0.1,1.3-0.4s0.5-0.6,0.6-1.1H138.9z M137.5,449.3c0-0.6-0.2-1-0.5-1.4
				s-0.7-0.6-1.3-0.6c-0.6,0-1,0.2-1.3,0.5c-0.3,0.3-0.5,0.8-0.6,1.5H137.5z M136.5,443.5h1.8l-2.1,2H135L136.5,443.5z"/>
			<path d="M141.1,446.3h1.5v1.2h0c0.2-0.4,0.5-0.7,0.9-0.9s0.9-0.4,1.5-0.4c0.5,0,1,0.1,1.4,0.3s0.7,0.5,1,0.8
				c0.3,0.3,0.5,0.7,0.6,1.2c0.1,0.5,0.2,1,0.2,1.6c0,0.6-0.1,1.1-0.2,1.6c-0.1,0.5-0.4,0.9-0.6,1.2s-0.6,0.6-1,0.8
				c-0.4,0.2-0.9,0.3-1.4,0.3c-0.6,0-1.1-0.1-1.5-0.4s-0.7-0.6-0.9-1h0v3.9h-1.5V446.3z M144.6,452.8c0.6,0,1.2-0.2,1.5-0.7
				c0.4-0.5,0.6-1.2,0.6-2c0-0.9-0.2-1.5-0.5-2c-0.4-0.5-0.9-0.7-1.6-0.7c-0.7,0-1.2,0.2-1.5,0.7c-0.3,0.5-0.5,1.2-0.5,2
				s0.2,1.5,0.5,2S143.9,452.8,144.6,452.8z"/>
			<path d="M154.5,452.8L154.5,452.8c-0.3,0.4-0.6,0.6-1,0.9s-1,0.3-1.6,0.3c-0.4,0-0.7-0.1-1-0.2c-0.3-0.1-0.5-0.2-0.7-0.4
				c-0.2-0.2-0.3-0.4-0.4-0.6c-0.1-0.2-0.1-0.5-0.1-0.8c0-0.5,0.1-1,0.4-1.3c0.2-0.3,0.5-0.5,0.9-0.7s0.8-0.3,1.2-0.3
				s0.9-0.1,1.2-0.2c0.3,0,0.5-0.1,0.7-0.1s0.3-0.1,0.4-0.1c0.1-0.1,0.1-0.1,0.2-0.2c0-0.1,0-0.2,0-0.3c0-0.4-0.1-0.7-0.4-1
				s-0.6-0.4-1.2-0.4c-0.5,0-0.9,0.1-1.2,0.3s-0.4,0.6-0.5,1.1h-1.4c0.1-0.8,0.4-1.4,0.8-1.9c0.5-0.5,1.2-0.7,2.3-0.7
				c1,0,1.8,0.2,2.3,0.7c0.5,0.5,0.7,1.2,0.7,2.3v4.6h-1.5V452.8z M154.5,450.2c-0.4,0.1-0.8,0.2-1.2,0.2c-0.4,0.1-0.8,0.1-1.1,0.2
				s-0.6,0.2-0.8,0.4s-0.3,0.4-0.3,0.7c0,0.3,0.1,0.6,0.4,0.8s0.6,0.3,1,0.3c0.3,0,0.6,0,0.9-0.1c0.3-0.1,0.5-0.2,0.7-0.4
				s0.3-0.4,0.5-0.6c0.1-0.2,0.2-0.5,0.2-0.8V450.2z"/>
			<path d="M158.3,446.3h1.5v1.2h0c0.2-0.4,0.5-0.7,0.9-1s0.7-0.3,1.2-0.3c0,0,0.1,0,0.2,0s0.2,0,0.2,0v1.6c-0.1,0-0.2,0-0.3-0.1
				s-0.2,0-0.3,0c-0.6,0-1,0.2-1.4,0.5s-0.5,0.9-0.5,1.5v4.1h-1.5V446.3z"/>
			<path d="M163.9,447.6h-1v-1.2h1v-1.9h1.5v1.9h1.8v1.2h-1.8v3.9c0,0.4,0.1,0.7,0.3,0.8s0.4,0.3,0.8,0.3c0.1,0,0.2,0,0.4,0
				s0.2,0,0.4,0v1.3c-0.2,0-0.3,0.1-0.5,0.1s-0.3,0-0.5,0c-0.7,0-1.3-0.2-1.7-0.6c-0.4-0.4-0.6-1-0.6-1.8V447.6z"/>
			<path d="M175.1,451.3c0,0.4-0.1,0.8-0.3,1.1s-0.4,0.6-0.7,0.9s-0.6,0.4-1,0.6c-0.4,0.1-0.8,0.2-1.3,0.2c-0.6,0-1.1-0.1-1.6-0.3
				c-0.4-0.2-0.8-0.4-1.1-0.8s-0.5-0.8-0.6-1.2c-0.1-0.5-0.2-1-0.2-1.6s0.1-1.1,0.2-1.6c0.1-0.5,0.4-0.9,0.7-1.2
				c0.3-0.3,0.7-0.6,1.1-0.8s0.9-0.3,1.5-0.3s1.1,0.1,1.5,0.3s0.8,0.4,1,0.8c0.3,0.3,0.5,0.7,0.6,1.2c0.1,0.5,0.2,1,0.2,1.6v0.2
				h-5.3c0,0.8,0.2,1.4,0.5,1.8s0.8,0.6,1.4,0.6c0.5,0,0.9-0.1,1.3-0.4s0.5-0.6,0.6-1.1H175.1z M173.7,449.3c0-0.6-0.2-1-0.5-1.4
				s-0.7-0.6-1.3-0.6c-0.6,0-1,0.2-1.3,0.5c-0.3,0.3-0.5,0.8-0.6,1.5H173.7z"/>
			<path d="M177.2,446.3h1.5v1.2h0c0.2-0.4,0.5-0.7,0.8-1s0.8-0.4,1.3-0.4c0.6,0,1,0.1,1.4,0.4s0.6,0.6,0.7,1h0
				c0.2-0.4,0.5-0.8,0.9-1c0.4-0.2,0.8-0.4,1.4-0.4c0.8,0,1.4,0.2,1.8,0.7c0.4,0.5,0.6,1.1,0.6,2v4.9h-1.5v-4.5
				c0-0.6-0.1-1.1-0.3-1.4s-0.5-0.4-1-0.4c-0.5,0-0.9,0.2-1.2,0.5s-0.5,0.8-0.5,1.5v4.4h-1.5v-4.5c0-0.6-0.1-1.1-0.3-1.4
				s-0.5-0.5-1-0.5c-0.6,0-1,0.2-1.3,0.5s-0.5,0.9-0.5,1.5v4.3h-1.5V446.3z"/>
			<path d="M196.5,451.3c0,0.4-0.1,0.8-0.3,1.1s-0.4,0.6-0.7,0.9s-0.6,0.4-1,0.6c-0.4,0.1-0.8,0.2-1.3,0.2c-0.6,0-1.1-0.1-1.6-0.3
				c-0.4-0.2-0.8-0.4-1.1-0.8s-0.5-0.8-0.6-1.2c-0.1-0.5-0.2-1-0.2-1.6s0.1-1.1,0.2-1.6c0.1-0.5,0.4-0.9,0.7-1.2
				c0.3-0.3,0.7-0.6,1.1-0.8s0.9-0.3,1.5-0.3s1.1,0.1,1.5,0.3s0.8,0.4,1,0.8c0.3,0.3,0.5,0.7,0.6,1.2c0.1,0.5,0.2,1,0.2,1.6v0.2
				h-5.3c0,0.8,0.2,1.4,0.5,1.8s0.8,0.6,1.4,0.6c0.5,0,0.9-0.1,1.3-0.4s0.5-0.6,0.6-1.1H196.5z M195,449.3c0-0.6-0.2-1-0.5-1.4
				s-0.7-0.6-1.3-0.6c-0.6,0-1,0.2-1.3,0.5c-0.3,0.3-0.5,0.8-0.6,1.5H195z"/>
			<path d="M198.6,446.3h1.5v1.2h0c0.3-0.4,0.6-0.7,0.9-1s0.9-0.3,1.5-0.3c0.9,0,1.5,0.2,1.9,0.7c0.4,0.5,0.6,1.1,0.6,2v4.9h-1.5
				v-4.5c0-0.6-0.1-1.1-0.3-1.4s-0.6-0.5-1.1-0.5c-0.6,0-1.1,0.2-1.4,0.6s-0.5,0.9-0.5,1.5v4.3h-1.5V446.3z"/>
			<path d="M207.4,447.6h-1v-1.2h1v-1.9h1.5v1.9h1.8v1.2h-1.8v3.9c0,0.4,0.1,0.7,0.3,0.8s0.4,0.3,0.8,0.3c0.1,0,0.2,0,0.4,0
				s0.2,0,0.4,0v1.3c-0.2,0-0.3,0.1-0.5,0.1s-0.3,0-0.5,0c-0.7,0-1.3-0.2-1.7-0.6c-0.4-0.4-0.6-1-0.6-1.8V447.6z"/>
		</g>
		<g class="st9">
			<path d="M96.7,470.5H99v-7.2l-2.2,1.4l-0.7-1.1l3.3-2.2h1.2v9.1h2v1.3h-5.9V470.5z"/>
			<path d="M105.6,468.7c0.1,0.6,0.3,1.1,0.6,1.5s0.8,0.5,1.4,0.5c0.3,0,0.6-0.1,0.9-0.2c0.3-0.1,0.5-0.3,0.7-0.6
				c0.2-0.3,0.4-0.7,0.5-1.3s0.2-1.2,0.2-2.1c-0.2,0.4-0.5,0.8-1,1c-0.4,0.2-1,0.4-1.6,0.4c-0.4,0-0.9-0.1-1.2-0.2s-0.7-0.3-1-0.6
				c-0.3-0.3-0.5-0.6-0.7-1s-0.2-0.9-0.2-1.4c0-0.5,0.1-1,0.2-1.4s0.4-0.8,0.7-1.1c0.3-0.3,0.7-0.5,1.1-0.7s0.9-0.2,1.5-0.2
				c0.6,0,1.1,0.1,1.5,0.3s0.9,0.5,1.2,0.9s0.6,1,0.7,1.6c0.2,0.7,0.3,1.5,0.3,2.4c0,1.8-0.3,3.2-1,4.1c-0.6,0.9-1.6,1.3-2.8,1.3
				c-1,0-1.8-0.3-2.4-0.9c-0.6-0.6-0.9-1.4-1-2.4H105.6z M107.5,466.7c0.6,0,1.1-0.2,1.4-0.5c0.4-0.4,0.5-0.8,0.5-1.4
				c0-0.3,0-0.6-0.1-0.8c-0.1-0.3-0.2-0.5-0.4-0.7s-0.4-0.3-0.6-0.4c-0.2-0.1-0.5-0.2-0.8-0.2c-0.3,0-0.5,0.1-0.8,0.2
				c-0.2,0.1-0.4,0.2-0.6,0.4s-0.3,0.4-0.4,0.7c-0.1,0.3-0.1,0.5-0.1,0.8c0,0.6,0.2,1.1,0.5,1.5S106.9,466.7,107.5,466.7z"/>
			<path d="M115.7,472c-0.5,0-1-0.1-1.4-0.3s-0.8-0.5-1.2-0.9s-0.6-1-0.8-1.7c-0.2-0.7-0.3-1.5-0.3-2.4s0.1-1.8,0.3-2.4
				c0.2-0.7,0.5-1.2,0.8-1.7s0.7-0.7,1.2-0.9s0.9-0.3,1.4-0.3c0.5,0,1,0.1,1.4,0.3s0.8,0.5,1.2,0.9s0.6,1,0.8,1.7
				c0.2,0.7,0.3,1.5,0.3,2.4s-0.1,1.8-0.3,2.4c-0.2,0.7-0.5,1.2-0.8,1.7s-0.7,0.7-1.2,0.9S116.2,472,115.7,472z M115.7,470.7
				c0.3,0,0.5-0.1,0.8-0.2c0.3-0.1,0.5-0.3,0.7-0.6c0.2-0.3,0.3-0.7,0.5-1.2s0.2-1.2,0.2-2s-0.1-1.5-0.2-2c-0.1-0.5-0.3-0.9-0.5-1.2
				c-0.2-0.3-0.4-0.5-0.7-0.6s-0.5-0.2-0.8-0.2c-0.3,0-0.5,0.1-0.8,0.2s-0.5,0.3-0.7,0.6c-0.2,0.3-0.3,0.7-0.5,1.2
				c-0.1,0.5-0.2,1.2-0.2,2s0.1,1.5,0.2,2s0.3,0.9,0.5,1.2c0.2,0.3,0.4,0.5,0.7,0.6C115.2,470.6,115.4,470.7,115.7,470.7z"/>
			<path d="M121.7,468.5c0.1,0.7,0.3,1.3,0.7,1.6c0.4,0.4,0.9,0.5,1.6,0.5c0.6,0,1.1-0.2,1.5-0.5c0.3-0.3,0.5-0.7,0.5-1.3
				s-0.2-1-0.5-1.3c-0.3-0.3-0.8-0.5-1.3-0.5h-1.4v-1.2h1c0.5,0,0.9-0.2,1.2-0.5s0.4-0.7,0.4-1.2c0-0.4-0.1-0.8-0.4-1.1
				s-0.7-0.5-1.2-0.5c-0.6,0-1,0.2-1.3,0.5s-0.5,0.9-0.5,1.5h-1.6c0.1-1.1,0.4-1.9,1-2.5c0.6-0.6,1.4-0.8,2.5-0.8
				c0.5,0,1,0.1,1.3,0.2c0.4,0.1,0.7,0.3,1,0.5c0.3,0.2,0.5,0.5,0.6,0.8c0.1,0.3,0.2,0.7,0.2,1.1c0,0.5-0.1,1-0.3,1.3
				c-0.2,0.4-0.5,0.7-1,0.9c0.6,0.2,1,0.6,1.3,1c0.3,0.5,0.5,1,0.5,1.7c0,0.5-0.1,0.9-0.2,1.2s-0.4,0.7-0.7,1
				c-0.3,0.3-0.7,0.5-1.1,0.6c-0.5,0.1-1,0.2-1.6,0.2c-0.6,0-1.2-0.1-1.6-0.2c-0.5-0.2-0.8-0.4-1.1-0.7c-0.3-0.3-0.5-0.7-0.7-1.1
				c-0.2-0.4-0.2-0.9-0.3-1.4H121.7z"/>
			<path d="M132.8,466.7h5.6v1.2h-5.6V466.7z"/>
			<path d="M144.5,470.5h2.3v-7.2l-2.2,1.4l-0.7-1.1l3.3-2.2h1.2v9.1h2v1.3h-5.9V470.5z"/>
			<path d="M153.4,468.7c0.1,0.6,0.3,1.1,0.6,1.5s0.8,0.5,1.4,0.5c0.3,0,0.6-0.1,0.9-0.2c0.3-0.1,0.5-0.3,0.7-0.6
				c0.2-0.3,0.4-0.7,0.5-1.3s0.2-1.2,0.2-2.1c-0.2,0.4-0.5,0.8-1,1c-0.4,0.2-1,0.4-1.6,0.4c-0.4,0-0.9-0.1-1.2-0.2s-0.7-0.3-1-0.6
				c-0.3-0.3-0.5-0.6-0.7-1s-0.2-0.9-0.2-1.4c0-0.5,0.1-1,0.2-1.4s0.4-0.8,0.7-1.1c0.3-0.3,0.7-0.5,1.1-0.7s0.9-0.2,1.5-0.2
				c0.6,0,1.1,0.1,1.5,0.3s0.9,0.5,1.2,0.9s0.6,1,0.7,1.6c0.2,0.7,0.3,1.5,0.3,2.4c0,1.8-0.3,3.2-1,4.1c-0.6,0.9-1.6,1.3-2.8,1.3
				c-1,0-1.8-0.3-2.4-0.9c-0.6-0.6-0.9-1.4-1-2.4H153.4z M155.3,466.7c0.6,0,1.1-0.2,1.4-0.5c0.4-0.4,0.5-0.8,0.5-1.4
				c0-0.3,0-0.6-0.1-0.8c-0.1-0.3-0.2-0.5-0.4-0.7s-0.4-0.3-0.6-0.4c-0.2-0.1-0.5-0.2-0.8-0.2c-0.3,0-0.5,0.1-0.8,0.2
				c-0.2,0.1-0.4,0.2-0.6,0.4s-0.3,0.4-0.4,0.7c-0.1,0.3-0.1,0.5-0.1,0.8c0,0.6,0.2,1.1,0.5,1.5S154.7,466.7,155.3,466.7z"/>
			<path d="M161.4,468.5c0.1,0.7,0.3,1.3,0.7,1.6c0.4,0.4,0.9,0.5,1.6,0.5c0.6,0,1.1-0.2,1.5-0.5c0.3-0.3,0.5-0.7,0.5-1.3
				s-0.2-1-0.5-1.3c-0.3-0.3-0.8-0.5-1.3-0.5h-1.4v-1.2h1c0.5,0,0.9-0.2,1.2-0.5s0.4-0.7,0.4-1.2c0-0.4-0.1-0.8-0.4-1.1
				s-0.7-0.5-1.2-0.5c-0.6,0-1,0.2-1.3,0.5s-0.5,0.9-0.5,1.5H160c0.1-1.1,0.4-1.9,1-2.5c0.6-0.6,1.4-0.8,2.5-0.8
				c0.5,0,1,0.1,1.3,0.2c0.4,0.1,0.7,0.3,1,0.5c0.3,0.2,0.5,0.5,0.6,0.8c0.1,0.3,0.2,0.7,0.2,1.1c0,0.5-0.1,1-0.3,1.3
				c-0.2,0.4-0.5,0.7-1,0.9c0.6,0.2,1,0.6,1.3,1c0.3,0.5,0.5,1,0.5,1.7c0,0.5-0.1,0.9-0.2,1.2s-0.4,0.7-0.7,1
				c-0.3,0.3-0.7,0.5-1.1,0.6c-0.5,0.1-1,0.2-1.6,0.2c-0.6,0-1.2-0.1-1.6-0.2c-0.5-0.2-0.8-0.4-1.1-0.7c-0.3-0.3-0.5-0.7-0.7-1.1
				c-0.2-0.4-0.2-0.9-0.3-1.4H161.4z"/>
			<path d="M169.7,468.7c0.1,0.6,0.3,1.1,0.6,1.5s0.8,0.5,1.4,0.5c0.3,0,0.6-0.1,0.9-0.2c0.3-0.1,0.5-0.3,0.7-0.6
				c0.2-0.3,0.4-0.7,0.5-1.3s0.2-1.2,0.2-2.1c-0.2,0.4-0.5,0.8-1,1c-0.4,0.2-1,0.4-1.6,0.4c-0.4,0-0.9-0.1-1.2-0.2s-0.7-0.3-1-0.6
				c-0.3-0.3-0.5-0.6-0.7-1s-0.2-0.9-0.2-1.4c0-0.5,0.1-1,0.2-1.4s0.4-0.8,0.7-1.1c0.3-0.3,0.7-0.5,1.1-0.7s0.9-0.2,1.5-0.2
				c0.6,0,1.1,0.1,1.5,0.3s0.9,0.5,1.2,0.9s0.6,1,0.7,1.6c0.2,0.7,0.3,1.5,0.3,2.4c0,1.8-0.3,3.2-1,4.1c-0.6,0.9-1.6,1.3-2.8,1.3
				c-1,0-1.8-0.3-2.4-0.9c-0.6-0.6-0.9-1.4-1-2.4H169.7z M171.6,466.7c0.6,0,1.1-0.2,1.4-0.5c0.4-0.4,0.5-0.8,0.5-1.4
				c0-0.3,0-0.6-0.1-0.8c-0.1-0.3-0.2-0.5-0.4-0.7s-0.4-0.3-0.6-0.4c-0.2-0.1-0.5-0.2-0.8-0.2c-0.3,0-0.5,0.1-0.8,0.2
				c-0.2,0.1-0.4,0.2-0.6,0.4s-0.3,0.4-0.4,0.7c-0.1,0.3-0.1,0.5-0.1,0.8c0,0.6,0.2,1.1,0.5,1.5S171,466.7,171.6,466.7z"/>
		</g>
	</g>
	<g id="XMLID_18_">
		<rect id="XMLID_215_" x="113" y="496.6" class="st8" width="50.4" height="10.3"/>
		<g class="st9">
			<path d="M113.9,503.1h1.7v-5.2l-1.6,1l-0.5-0.8l2.4-1.6h0.9v6.5h1.4v0.9h-4.2V503.1z"/>
			<path d="M122.3,500.4h4v0.9h-4V500.4z"/>
			<path d="M130.6,503.1h1.7v-5.2l-1.6,1l-0.5-0.8l2.4-1.6h0.9v6.5h1.4v0.9h-4.2V503.1z"/>
			<path d="M138.4,504.1c-0.4,0-0.7-0.1-1-0.2s-0.6-0.4-0.8-0.7s-0.4-0.7-0.6-1.2c-0.1-0.5-0.2-1.1-0.2-1.7s0.1-1.3,0.2-1.7
				c0.1-0.5,0.3-0.9,0.6-1.2s0.5-0.5,0.8-0.7s0.7-0.2,1-0.2c0.4,0,0.7,0.1,1,0.2s0.6,0.4,0.8,0.7s0.4,0.7,0.6,1.2
				c0.1,0.5,0.2,1.1,0.2,1.7s-0.1,1.3-0.2,1.7c-0.1,0.5-0.3,0.9-0.6,1.2s-0.5,0.5-0.8,0.7S138.8,504.1,138.4,504.1z M138.4,503.2
				c0.2,0,0.4,0,0.6-0.1c0.2-0.1,0.3-0.2,0.5-0.5c0.1-0.2,0.2-0.5,0.3-0.9s0.1-0.8,0.1-1.4s0-1-0.1-1.4c-0.1-0.4-0.2-0.7-0.3-0.9
				c-0.1-0.2-0.3-0.4-0.5-0.5s-0.4-0.1-0.6-0.1c-0.2,0-0.4,0-0.6,0.1s-0.3,0.2-0.5,0.5c-0.1,0.2-0.2,0.5-0.3,0.9
				c-0.1,0.4-0.1,0.8-0.1,1.4s0,1,0.1,1.4s0.2,0.7,0.3,0.9c0.1,0.2,0.3,0.4,0.5,0.5C138,503.2,138.2,503.2,138.4,503.2z"/>
		</g>
	</g>
	<g id="XMLID_12_">
		<rect id="XMLID_167_" x="113" y="518.1" class="st8" width="43.4" height="10.3"/>
		<g class="st9">
			<path d="M113.9,524.6h1.7v-5.2l-1.6,1l-0.5-0.8l2.4-1.6h0.9v6.5h1.4v0.9h-4.2V524.6z"/>
			<path d="M119.7,524.6h1.7v-5.2l-1.6,1l-0.5-0.8l2.4-1.6h0.9v6.5h1.4v0.9h-4.2V524.6z"/>
			<path d="M128.1,521.8h4v0.9h-4V521.8z"/>
			<path d="M136.1,524.6c0.6-0.5,1.1-1,1.5-1.4s0.8-0.8,1.1-1.1c0.3-0.3,0.6-0.7,0.7-1s0.3-0.6,0.3-0.9c0-0.4-0.1-0.7-0.3-0.9
				c-0.2-0.2-0.5-0.3-0.9-0.3c-0.4,0-0.7,0.1-1,0.4s-0.4,0.6-0.4,1.1H136c0-0.4,0.1-0.7,0.2-1s0.3-0.5,0.5-0.8
				c0.2-0.2,0.5-0.4,0.8-0.5s0.6-0.2,1-0.2c0.4,0,0.7,0.1,1,0.2c0.3,0.1,0.5,0.2,0.7,0.4c0.2,0.2,0.3,0.4,0.4,0.7s0.1,0.5,0.1,0.8
				c0,0.4-0.1,0.8-0.3,1.1c-0.2,0.3-0.4,0.7-0.7,1c-0.3,0.3-0.7,0.7-1.1,1.1c-0.4,0.4-0.8,0.8-1.2,1.2h3.4v0.9h-4.8V524.6z"/>
			<path d="M144.2,525.6c-0.4,0-0.7-0.1-1-0.2s-0.6-0.4-0.8-0.7s-0.4-0.7-0.6-1.2c-0.1-0.5-0.2-1.1-0.2-1.7s0.1-1.3,0.2-1.7
				c0.1-0.5,0.3-0.9,0.6-1.2s0.5-0.5,0.8-0.7s0.7-0.2,1-0.2c0.4,0,0.7,0.1,1,0.2s0.6,0.4,0.8,0.7s0.4,0.7,0.6,1.2
				c0.1,0.5,0.2,1.1,0.2,1.7s-0.1,1.3-0.2,1.7c-0.1,0.5-0.3,0.9-0.6,1.2s-0.5,0.5-0.8,0.7S144.6,525.6,144.2,525.6z M144.2,524.7
				c0.2,0,0.4,0,0.6-0.1c0.2-0.1,0.3-0.2,0.5-0.5c0.1-0.2,0.2-0.5,0.3-0.9s0.1-0.8,0.1-1.4s0-1-0.1-1.4c-0.1-0.4-0.2-0.7-0.3-0.9
				c-0.1-0.2-0.3-0.4-0.5-0.5s-0.4-0.1-0.6-0.1c-0.2,0-0.4,0-0.6,0.1s-0.3,0.2-0.5,0.5c-0.1,0.2-0.2,0.5-0.3,0.9
				c-0.1,0.4-0.1,0.8-0.1,1.4s0,1,0.1,1.4s0.2,0.7,0.3,0.9c0.1,0.2,0.3,0.4,0.5,0.5C143.9,524.6,144,524.7,144.2,524.7z"/>
		</g>
	</g>
	<g id="XMLID_535_">
		<rect id="XMLID_137_" x="113" y="539.2" class="st8" width="53.4" height="10.3"/>
		<g class="st9">
			<path d="M113.5,545.7c0.6-0.5,1.1-1,1.5-1.4s0.8-0.8,1.1-1.1c0.3-0.3,0.6-0.7,0.7-1s0.3-0.6,0.3-0.9c0-0.4-0.1-0.7-0.3-0.9
				c-0.2-0.2-0.5-0.3-0.9-0.3c-0.4,0-0.7,0.1-1,0.4s-0.4,0.6-0.4,1.1h-1.1c0-0.4,0.1-0.7,0.2-1s0.3-0.5,0.5-0.8
				c0.2-0.2,0.5-0.4,0.8-0.5s0.6-0.2,1-0.2c0.4,0,0.7,0.1,1,0.2c0.3,0.1,0.5,0.2,0.7,0.4c0.2,0.2,0.3,0.4,0.4,0.7s0.1,0.5,0.1,0.8
				c0,0.4-0.1,0.8-0.3,1.1c-0.2,0.3-0.4,0.7-0.7,1c-0.3,0.3-0.7,0.7-1.1,1.1c-0.4,0.4-0.8,0.8-1.2,1.2h3.4v0.9h-4.8V545.7z"/>
			<path d="M119.7,545.7h1.7v-5.2l-1.6,1l-0.5-0.8l2.4-1.6h0.9v6.5h1.4v0.9h-4.2V545.7z"/>
			<path d="M128.1,542.9h4v0.9h-4V542.9z"/>
			<path d="M135.7,543.9l3-4.7h1.3v4.8h1.1v0.9H140v1.7h-1.1v-1.7h-3.2V543.9z M138.9,544v-3.5l-2.2,3.5H138.9z"/>
			<path d="M144.2,546.7c-0.4,0-0.7-0.1-1-0.2s-0.6-0.4-0.8-0.7s-0.4-0.7-0.6-1.2c-0.1-0.5-0.2-1.1-0.2-1.7s0.1-1.3,0.2-1.7
				c0.1-0.5,0.3-0.9,0.6-1.2s0.5-0.5,0.8-0.7s0.7-0.2,1-0.2c0.4,0,0.7,0.1,1,0.2s0.6,0.4,0.8,0.7s0.4,0.7,0.6,1.2
				c0.1,0.5,0.2,1.1,0.2,1.7s-0.1,1.3-0.2,1.7c-0.1,0.5-0.3,0.9-0.6,1.2s-0.5,0.5-0.8,0.7S144.6,546.7,144.2,546.7z M144.2,545.8
				c0.2,0,0.4,0,0.6-0.1c0.2-0.1,0.3-0.2,0.5-0.5c0.1-0.2,0.2-0.5,0.3-0.9s0.1-0.8,0.1-1.4s0-1-0.1-1.4c-0.1-0.4-0.2-0.7-0.3-0.9
				c-0.1-0.2-0.3-0.4-0.5-0.5s-0.4-0.1-0.6-0.1c-0.2,0-0.4,0-0.6,0.1s-0.3,0.2-0.5,0.5c-0.1,0.2-0.2,0.5-0.3,0.9
				c-0.1,0.4-0.1,0.8-0.1,1.4s0,1,0.1,1.4s0.2,0.7,0.3,0.9c0.1,0.2,0.3,0.4,0.5,0.5C143.9,545.7,144,545.8,144.2,545.8z"/>
		</g>
	</g>
	<g id="XMLID_10_">
		<rect id="XMLID_133_" x="182" y="496.6" class="st8" width="53.4" height="10.3"/>
		<g class="st9">
			<path d="M182.2,501.3l3-4.7h1.3v4.8h1.1v0.9h-1.1v1.7h-1.1v-1.7h-3.2V501.3z M185.4,501.4V498l-2.2,3.5H185.4z"/>
			<path d="M188.7,503.1h1.7v-5.2l-1.6,1l-0.5-0.8l2.4-1.6h0.9v6.5h1.4v0.9h-4.2V503.1z"/>
			<path d="M197.1,500.4h4v0.9h-4V500.4z"/>
			<path d="M208.9,498.9c0-0.5-0.2-0.8-0.4-1.1s-0.5-0.4-1-0.4c-0.2,0-0.4,0-0.6,0.1s-0.4,0.2-0.5,0.5c-0.1,0.2-0.3,0.5-0.3,0.9
				c-0.1,0.4-0.1,0.9-0.1,1.5c0.1-0.3,0.4-0.6,0.7-0.7c0.3-0.2,0.7-0.3,1.2-0.3c0.3,0,0.6,0,0.9,0.1c0.3,0.1,0.5,0.2,0.7,0.4
				c0.2,0.2,0.4,0.4,0.5,0.7s0.2,0.6,0.2,1c0,0.4-0.1,0.7-0.2,1s-0.3,0.6-0.5,0.8c-0.2,0.2-0.5,0.4-0.8,0.5c-0.3,0.1-0.7,0.2-1,0.2
				c-0.4,0-0.8-0.1-1.1-0.2s-0.6-0.4-0.8-0.7s-0.4-0.7-0.5-1.2c-0.1-0.5-0.2-1-0.2-1.7c0-1.3,0.2-2.3,0.7-2.9s1.1-1,2-1
				c0.7,0,1.3,0.2,1.7,0.6s0.7,1,0.7,1.7H208.9z M207.6,503.2c0.2,0,0.4,0,0.6-0.1c0.2-0.1,0.3-0.2,0.4-0.3s0.2-0.3,0.3-0.5
				s0.1-0.4,0.1-0.6c0-0.4-0.1-0.8-0.4-1s-0.6-0.4-1-0.4c-0.4,0-0.7,0.1-1,0.4s-0.4,0.6-0.4,1c0,0.2,0,0.4,0.1,0.6s0.2,0.3,0.3,0.5
				s0.3,0.2,0.4,0.3C207.2,503.2,207.4,503.2,207.6,503.2z"/>
			<path d="M213.2,504.1c-0.4,0-0.7-0.1-1-0.2s-0.6-0.4-0.8-0.7s-0.4-0.7-0.6-1.2c-0.1-0.5-0.2-1.1-0.2-1.7s0.1-1.3,0.2-1.7
				c0.1-0.5,0.3-0.9,0.6-1.2s0.5-0.5,0.8-0.7s0.7-0.2,1-0.2c0.4,0,0.7,0.1,1,0.2s0.6,0.4,0.8,0.7s0.4,0.7,0.6,1.2
				c0.1,0.5,0.2,1.1,0.2,1.7s-0.1,1.3-0.2,1.7c-0.1,0.5-0.3,0.9-0.6,1.2s-0.5,0.5-0.8,0.7S213.6,504.1,213.2,504.1z M213.2,503.2
				c0.2,0,0.4,0,0.6-0.1c0.2-0.1,0.3-0.2,0.5-0.5c0.1-0.2,0.2-0.5,0.3-0.9s0.1-0.8,0.1-1.4s0-1-0.1-1.4c-0.1-0.4-0.2-0.7-0.3-0.9
				c-0.1-0.2-0.3-0.4-0.5-0.5s-0.4-0.1-0.6-0.1c-0.2,0-0.4,0-0.6,0.1s-0.3,0.2-0.5,0.5c-0.1,0.2-0.2,0.5-0.3,0.9
				c-0.1,0.4-0.1,0.8-0.1,1.4s0,1,0.1,1.4s0.2,0.7,0.3,0.9c0.1,0.2,0.3,0.4,0.5,0.5C212.9,503.2,213,503.2,213.2,503.2z"/>
		</g>
	</g>
	<g id="XMLID_16_">
		<rect id="XMLID_131_" x="182" y="518.1" class="st8" width="53.4" height="10.3"/>
		<g class="st9">
			<path d="M182.3,522.4h2.1v-2.1h0.9v2.1h2.1v0.9h-2.1v2.2h-0.9v-2.2h-2.1V522.4z"/>
			<path d="M195.3,524.6L195.3,524.6c-0.2,0.3-0.4,0.5-0.7,0.7s-0.6,0.3-1.1,0.3c-0.4,0-0.7-0.1-1-0.2c-0.3-0.1-0.5-0.3-0.7-0.6
				s-0.3-0.5-0.4-0.9c-0.1-0.3-0.1-0.7-0.1-1.1c0-0.4,0-0.8,0.1-1.1c0.1-0.3,0.2-0.6,0.4-0.9c0.2-0.2,0.4-0.4,0.7-0.6s0.6-0.2,1-0.2
				c0.4,0,0.8,0.1,1,0.3s0.5,0.4,0.7,0.7h0v-2.9h1.1v7.4h-1.1V524.6z M193.9,524.8c0.5,0,0.9-0.2,1.1-0.5c0.2-0.3,0.3-0.8,0.3-1.5
				c0-0.6-0.1-1.1-0.4-1.4c-0.2-0.3-0.6-0.5-1.1-0.5c-0.5,0-0.8,0.2-1.1,0.5c-0.3,0.3-0.4,0.8-0.4,1.5c0,0.6,0.1,1.1,0.4,1.4
				S193.4,524.8,193.9,524.8z"/>
			<path d="M202.6,523.7c0,0.3-0.1,0.5-0.2,0.8s-0.3,0.4-0.5,0.6s-0.4,0.3-0.7,0.4c-0.3,0.1-0.6,0.1-0.9,0.1c-0.4,0-0.8-0.1-1.1-0.2
				c-0.3-0.1-0.6-0.3-0.8-0.6s-0.4-0.5-0.5-0.9c-0.1-0.3-0.1-0.7-0.1-1.1s0.1-0.8,0.2-1.1c0.1-0.3,0.3-0.6,0.5-0.9
				c0.2-0.2,0.5-0.4,0.8-0.6s0.7-0.2,1.1-0.2s0.8,0.1,1.1,0.2s0.5,0.3,0.7,0.5c0.2,0.2,0.3,0.5,0.4,0.9c0.1,0.3,0.1,0.7,0.1,1.2v0.2
				h-3.8c0,0.6,0.1,1,0.4,1.3s0.6,0.4,1,0.4c0.4,0,0.7-0.1,0.9-0.3s0.4-0.4,0.4-0.8H202.6z M201.5,522.3c0-0.4-0.1-0.7-0.3-1
				s-0.5-0.4-0.9-0.4c-0.4,0-0.7,0.1-1,0.3c-0.2,0.2-0.4,0.6-0.4,1.1H201.5z"/>
			<path d="M210.6,520.3c0-0.5-0.2-0.8-0.4-1.1s-0.5-0.4-1-0.4c-0.2,0-0.4,0-0.6,0.1s-0.4,0.2-0.5,0.5c-0.1,0.2-0.3,0.5-0.3,0.9
				c-0.1,0.4-0.1,0.9-0.1,1.5c0.1-0.3,0.4-0.6,0.7-0.7c0.3-0.2,0.7-0.3,1.2-0.3c0.3,0,0.6,0,0.9,0.1c0.3,0.1,0.5,0.2,0.7,0.4
				c0.2,0.2,0.4,0.4,0.5,0.7s0.2,0.6,0.2,1c0,0.4-0.1,0.7-0.2,1s-0.3,0.6-0.5,0.8c-0.2,0.2-0.5,0.4-0.8,0.5c-0.3,0.1-0.7,0.2-1,0.2
				c-0.4,0-0.8-0.1-1.1-0.2s-0.6-0.4-0.8-0.7s-0.4-0.7-0.5-1.2c-0.1-0.5-0.2-1-0.2-1.7c0-1.3,0.2-2.3,0.7-2.9s1.1-1,2-1
				c0.7,0,1.3,0.2,1.7,0.6s0.7,1,0.7,1.7H210.6z M209.3,524.7c0.2,0,0.4,0,0.6-0.1c0.2-0.1,0.3-0.2,0.4-0.3s0.2-0.3,0.3-0.5
				s0.1-0.4,0.1-0.6c0-0.4-0.1-0.8-0.4-1s-0.6-0.4-1-0.4c-0.4,0-0.7,0.1-1,0.4s-0.4,0.6-0.4,1c0,0.2,0,0.4,0.1,0.6s0.2,0.3,0.3,0.5
				s0.3,0.2,0.4,0.3C208.9,524.7,209.1,524.7,209.3,524.7z"/>
			<path d="M214.9,525.6c-0.4,0-0.7-0.1-1-0.2s-0.6-0.4-0.8-0.7s-0.4-0.7-0.6-1.2c-0.1-0.5-0.2-1.1-0.2-1.7s0.1-1.3,0.2-1.7
				c0.1-0.5,0.3-0.9,0.6-1.2s0.5-0.5,0.8-0.7s0.7-0.2,1-0.2c0.4,0,0.7,0.1,1,0.2s0.6,0.4,0.8,0.7s0.4,0.7,0.6,1.2
				c0.1,0.5,0.2,1.1,0.2,1.7s-0.1,1.3-0.2,1.7c-0.1,0.5-0.3,0.9-0.6,1.2s-0.5,0.5-0.8,0.7S215.3,525.6,214.9,525.6z M214.9,524.7
				c0.2,0,0.4,0,0.6-0.1c0.2-0.1,0.3-0.2,0.5-0.5c0.1-0.2,0.2-0.5,0.3-0.9s0.1-0.8,0.1-1.4s0-1-0.1-1.4c-0.1-0.4-0.2-0.7-0.3-0.9
				c-0.1-0.2-0.3-0.4-0.5-0.5s-0.4-0.1-0.6-0.1c-0.2,0-0.4,0-0.6,0.1s-0.3,0.2-0.5,0.5c-0.1,0.2-0.2,0.5-0.3,0.9
				c-0.1,0.4-0.1,0.8-0.1,1.4s0,1,0.1,1.4s0.2,0.7,0.3,0.9c0.1,0.2,0.3,0.4,0.5,0.5C214.5,524.6,214.7,524.7,214.9,524.7z"/>
		</g>
	</g>
	<circle class="st7" cx="169.5" cy="522.4" r="6.3"/>
	<circle class="st4" cx="101.5" cy="501.8" r="6.3"/>
	<circle class="st1" cx="101.5" cy="522.4" r="6.3"/>
	<circle class="st6" cx="169.5" cy="501.8" r="6.3"/>
	<circle class="st2" cx="101.5" cy="543.1" r="6.3"/>
</g>
<g>
	<polygon id="France_5_" class="st10" points="733.3,606.7 733.3,606.7 732,593.8 715.2,597.6 696,584.4 694.8,576.4 695.8,575.5 
		699.7,571.6 699.5,565.2 699.3,564.9 703.4,561.1 703.4,561 699.5,552.3 688.6,549.6 682,536.6 682,536.6 693.4,535.4 703.3,527.8 
		706,517.1 706,517.1 687.2,492.5 687.2,492.5 688.9,490.5 696.4,487.5 696.5,485.6 696.7,484.7 696.9,480.5 686.3,467.3 
		686.3,467.3 688.7,464.6 688.7,464.6 684.6,454.6 668.2,458.5 665.5,456.6 661.3,462.2 661.3,462.2 663.9,466.2 656.7,471.6 
		649.6,471.5 649.5,467.3 656.1,465.2 658.9,456.4 654.1,454.7 655.3,445.3 669.1,431.2 669.1,431.2 668.1,420.7 668.1,420.7 
		676.6,416.8 678,415 694.9,393.1 695.1,393.1 695.1,393.1 691.9,385.8 696.5,384.9 697.1,384.5 699.5,388.2 708.2,388.2 
		712.2,384.7 714.7,377.1 710.4,370.2 715.3,352.6 713,342.5 718.8,331.4 721.6,309 727.4,304.9 738,287.9 725.7,282.8 712.6,283.5 
		705.7,276.9 700,276.7 696.9,279.5 689.5,279.6 683.2,274.8 679.1,274.8 678.1,277.8 674.1,278.2 666.9,262.9 658.9,259.6 
		653,257.2 649.6,257.4 640.7,259.8 634,254.9 620.8,257.3 615.6,253.5 613.7,248.2 595.6,240.5 595.3,217.5 591,217.5 586.8,227.5 
		576.7,231.9 569.5,229.5 565,229.5 564.5,227.9 568.9,224.7 568.5,212.9 560.7,205.6 548.4,206.2 547.1,208.3 545.6,208.3 
		546,200.7 538.2,195.1 534,197 529.4,195 528.4,183.4 524.5,178.6 516.2,180.5 510.9,183.7 508.5,179.1 506.4,176.7 502,174.3 
		503.6,168.1 499.8,159.1 481.3,164.1 469.2,166.3 459.5,173.6 459.2,204.1 450.2,223.1 439.3,231.9 402.6,244.6 396.2,258.5 
		405.8,263.4 382.9,272.6 375.5,268.4 356.3,265.7 352.3,263.6 346.8,265 338.9,253.4 343.1,250.3 341.1,244.5 330,244.5 
		325.5,246.6 312.7,240.4 311.8,242.3 316.4,245.9 316.4,259.8 324.5,274.3 326.9,293.6 324.2,299.3 332.2,309.4 325.9,311.6 
		315.1,311.5 313.9,305.5 308.6,305.3 306.5,307.6 292.5,306 276.1,312.9 271.6,309.1 263,291.5 240.1,292.8 238.7,301 229.2,299.1 
		227,301.5 216.7,297.7 190.8,305.2 187.8,319.3 201.6,318.4 210.8,323.9 197,321.6 193.3,323.6 207.6,330.8 206.7,335.3 189.4,336 
		189.4,338.9 197.3,340.7 202.9,351.7 202.6,355 210.9,355.5 212.1,351.8 223.4,357.8 238,360.1 252.8,373.1 267,380.5 281,383.8 
		276.2,393.9 291.1,396.5 291.1,402.5 288.4,405.4 295.1,406.6 300.4,410.7 293.1,419.5 293,424.7 305.6,445.9 334.5,460.8 
		332.2,467.3 319.6,459.6 314.7,462.7 338.5,476.5 335.5,487.5 331.6,485.5 323.4,475.1 322.8,482.8 327.9,486.5 329.4,499.2 
		349.3,514.6 350.9,523 353.1,534.7 351.6,537.2 346.8,520.5 335.7,513 334.5,507.2 332.1,508.1 331,516.4 324,564.7 329.4,557.9 
		336.2,566.1 335.7,569.5 327.9,569.5 324.1,574 324,577.9 311.8,629.9 308.4,635.1 302.3,642.4 293.1,644.4 293.1,648.3 
		312.1,654.5 311.4,661.1 308.6,662.7 314.5,669.1 316.7,664.2 335.1,674 339.5,674.1 339.7,674.1 342.4,674.1 342.4,674.1 
		342.4,674.1 342.8,678.7 349.3,684.4 350,685 350,685 362.8,681.7 369.7,686.5 375.8,692.8 384.8,689.8 390.7,694.2 396.9,692.6 
		408.6,693.8 409,683 417.7,686 427.4,689.9 431.1,696.5 439,696.5 444.2,700.4 455.5,699.1 461.1,708 468.1,710.2 468.1,713.9 
		474.2,716.6 478,712.8 482.6,712.8 493.9,720.5 502,720.5 511,711 517.8,709.4 521.2,712.2 525.3,713.5 525.3,707.7 521.3,703.5 
		520.3,685.1 520.5,672.4 515.7,669.3 517.5,666.4 521.7,669.5 527,662.9 563.5,640.3 567.5,640.6 569.8,645.2 577.5,645.1 
		593.6,646.3 590.7,650.3 600.9,654.3 606.7,652.5 604.2,647.6 609.6,648.4 613.3,652.6 627.5,652.1 629.7,660 644.1,664 
		650.2,670.4 657.6,666.7 665.7,667.5 675.6,666.2 690.3,658.2 689.3,651.7 701.6,640.8 710,635.2 710.3,628.4 715.3,628 
		727.9,619.4 727.9,619.4 728.4,608.2 	"/>
	<g id="XMLID_5_">
		<polygon id="Royaume-Uni_4_" class="st10" points="285.6,2.5 275.7,4.9 245.7,7.1 232.4,20.5 216.9,32.2 220.6,34.2 239.4,29.6 
			241.7,54.3 237.2,70.5 200.5,80.2 188,89.4 189.9,100.4 199,108.8 221.9,102.6 228,115.8 245.1,112.2 249,122.1 269.8,127.7 
			277.4,120.2 303,108.3 281,127.7 276.4,140.4 252,137.7 227.2,138.3 212.2,155.4 187.7,183.5 159.5,199.7 181,209.7 200.3,190.3 
			220.2,191.1 244.7,204.9 257.5,180.5 283.9,180.5 291.4,182.7 310.5,179.1 343.5,171.4 361.8,174.8 405.7,179.1 434.2,167.9 
			453.3,153.4 456.4,137.9 430.1,139.3 413.5,133.4 434.6,126 436.9,116.1 447,110.7 462.7,94.5 464.9,82.8 469.8,60.1 454.8,42.6 
			435.6,39.5 423.6,37.1 416.6,49.6 406.4,41.8 401.9,41.6 416.7,24.6 411.7,11 401.5,-3.5 285.8,-3.5 		"/>
		<polygon id="Irlande_4_" class="st10" points="78.1,74 95.6,67.3 119.2,64.4 130.3,60.5 148.8,64.9 167.6,20.9 168.5,5.2 
			165.1,1.7 162,-3.5 78.1,-3.5 		"/>
		<polygon id="Espagne_4_" class="st10" points="517.8,709.4 511,711 502,720.5 493.9,720.5 482.6,712.8 478,712.9 474.2,716.6 
			468.1,713.9 468.1,710.2 460.8,707.7 449.1,711.7 444.1,705 444.2,700.4 439,696.5 431.1,696.5 427.4,689.9 417.7,686 409,683 
			408.6,693.8 396.9,692.7 390.7,694.2 384.8,689.8 375.8,692.8 369.7,686.5 362.8,681.7 350,684.7 350,684.5 350,684.5 
			349.3,684.2 342.8,678.6 342.4,674.1 342.4,674.1 339.7,674.1 339.5,674.1 335.1,674 316.7,664.2 314.5,669.1 308.6,662.7 
			311.4,661.1 312.1,654.5 293.1,648.3 293.1,644.4 280,648 263.1,644.8 248.5,636.7 235.7,644.2 217.3,633 199.7,629.3 
			183.3,634.3 139.8,626.9 124.2,618.5 100.3,614 78.1,613.7 78.1,796.5 445.1,796.5 468.1,789.2 527.4,748 523.7,727.4 531,725 
			525.3,713.5 521.2,712.2 		"/>
		<polygon id="Allemagne_5_" class="st10" points="683.3,17.5 683.3,17.5 681,52.2 680.1,53.5 677.6,56.8 677.3,56.8 677.3,56.8 
			667.7,56.2 664.9,66.9 676.1,67.5 676.5,69.1 679.4,82.2 666,93.4 670.4,101.9 654,108.8 654,108.8 654,108.8 645.2,104.9 
			637.4,109.4 652.6,136 651.1,139.7 649.6,143.6 643.6,158.8 644.2,170.9 644.2,170.9 641.3,177.9 651.4,188.7 651.4,188.7 
			651.1,189.4 649.7,193 655.4,196.7 657.4,204.1 647.4,217.2 645.1,224.7 651.4,232.4 664.5,237.3 665.8,244.2 657.9,255.4 
			658.9,259.6 666.9,262.9 674.1,278.2 678.1,277.8 679.1,274.8 683.2,274.8 689.5,279.6 696.9,279.5 700,276.7 705.7,276.9 
			712.6,283.5 725.7,282.8 738,287.9 727.4,304.9 721.6,309 718.8,331.4 713,342.5 715.3,352.6 710.4,370.2 714.7,377.1 
			712.2,384.7 714.9,380.5 732.3,379.8 742.9,374.7 753.8,377.2 754.7,374.9 754.9,374.6 760.7,372.3 753.2,370.5 751.2,368.6 
			757,363.2 763.1,362.1 768.7,367 774.9,370 782.4,368.5 792.8,369.7 807.7,374.2 809.7,370.6 825.1,383 825.1,385.3 825.1,388.8 
			838.7,378.8 839.5,370.3 845.6,370.2 846.1,370.2 846.1,-3.5 681.4,-3.5 672.4,8.8 672.6,9.1 		"/>
		<polygon id="Italie_4_" class="st10" points="846.1,419 830.6,432.4 828.3,450.6 794.6,446.7 772.3,469.3 759.3,461.3 
			758.4,447.5 743.5,461.2 747,466.4 733.9,484.3 723.1,480.6 711.4,486.7 700.6,488.1 698.8,487.6 696.5,485.6 696.4,487.5 
			688.9,490.5 687.2,492.5 706,517.1 706,517.1 706,517.1 703.3,527.8 693.4,535.4 682,536.6 688.6,549.6 699.5,552.3 703.4,561 
			703.4,561.1 699.3,564.9 699.5,565.2 699.7,571.6 695.8,575.5 694.8,576.4 696,584.4 715.2,597.6 732,593.8 733.3,606.7 
			733.3,606.7 728.4,608.2 727.9,619.4 734.6,621.4 753.1,614.4 768.7,589.5 781.2,577.2 808.4,583.4 844.6,598.8 846.1,600.3 		"/>
		<polygon id="Autriche_4_" class="st10" points="839.4,370.3 838.7,378.8 825.1,388.8 825.1,385.3 825.1,383 809.7,370.6 
			807.7,374.2 792.8,369.7 801.4,376.4 805.6,379.6 807.4,385 801.7,394.9 815.2,397 818.7,409.6 827.4,418.2 837.7,410.5 
			845.1,410.5 846.1,410.5 846.1,370.2 845.6,370.2 		"/>
		<polygon id="Liechtenstein_4_" class="st10" points="818.7,409.6 815.2,397 801.7,394.9 804.2,406.6 		"/>
		<polygon id="Pays-Bas_5_" class="st10" points="568.5,140.7 581.3,134.3 590.6,137.2 602,134.3 609,146.3 617.7,145.1 
			617.7,145.1 617.7,145.1 634.1,153.1 628.8,178.8 641.3,177.9 641.3,177.9 641.3,177.9 641.3,177.9 644.2,170.9 644.2,170.9 
			643.6,158.8 649.6,143.6 651.1,139.7 652.6,136 637.4,109.4 645.2,104.9 645.2,104.9 654,108.8 654,108.8 670.4,101.9 666,93.4 
			679.4,82.2 676.5,69.1 676.1,67.5 664.9,66.9 667.7,56.2 667.7,56.2 677.3,56.8 677.6,56.8 680.1,53.5 681,52.2 683.3,17.5 
			683.3,17.5 672.6,9.2 672.4,9.1 671.9,8.7 668.8,6.3 659.1,7 637.9,10.5 617,19 612.1,31.6 595.6,44.3 592.6,39.5 586.9,38.5 
			578.7,80.2 564.7,100.3 549.3,117.2 536.2,130.3 540.3,137.7 556.8,141.5 		"/>
		<polygon id="Belgique_4_" class="st10" points="502,174.3 506.4,176.7 508.5,179.1 510.9,183.7 516.2,180.5 524.5,178.6 
			528.4,183.4 529.4,195 534,197 538.2,195.1 546,200.7 545.6,208.3 547.1,208.3 548.4,206.2 560.7,205.6 568.5,212.9 568.9,224.7 
			564.5,228 565,229.5 569.5,229.6 576.7,232 586.8,227.5 591,217.5 595.3,217.5 595.6,240.5 613.7,248 615.6,253.4 620.8,257.2 
			634,254.9 637.9,252.6 637.5,249.9 631.1,233.1 642.3,214.2 647.4,217.2 657.4,204.1 655.4,196.7 649.7,193 651.1,189.4 
			651.4,188.7 641.3,177.9 641.3,177.9 628.8,178.8 628.8,178.8 634.1,153.1 617.7,145.1 617.7,145.1 609,146.3 602,134.3 
			590.6,137.2 581.3,134.3 568.5,140.7 556.8,141.5 540.3,137.7 526.8,141.3 496.1,157.1 496.1,160.2 499.9,159.1 503.6,168.1 		"/>
		<polygon id="Luxembourg_6_" class="st10" points="665.8,244.2 664.5,237.3 651.4,232.4 645.1,224.7 647.4,217.2 642.3,214.2 
			631.1,233.1 637.5,249.9 637.9,252.6 634,254.9 640.7,259.8 649.6,257.4 653,257.2 658.9,259.6 657.9,255.4 		"/>
		<polygon id="Suisse_5_" class="st10" points="837.7,410.5 827.4,418.2 818.7,409.5 804.2,406.6 801.7,394.9 807.4,385 
			805.6,379.6 801.4,376.4 792.8,369.7 782.4,368.5 774.9,370 768.7,367 763.1,362.1 757,363.2 751.2,368.6 753.2,370.5 
			760.7,372.3 754.9,374.6 754.7,374.9 753.8,377.1 742.9,374.7 732.3,379.8 714.9,380.3 711.9,384.5 711.5,384.5 708.2,388 
			699.5,388.1 697,384.5 696.4,384.8 691.9,385.8 695.1,393.1 695.1,393.1 695.1,393.1 694.9,393.1 694.9,393.1 678.1,415 
			676.7,416.8 668.1,420.8 669.1,431.5 669.1,431.5 669.1,431.5 655.3,445.5 654.1,454.8 658.9,456.5 656.1,465.3 649.5,467.3 
			649.6,471.5 656.7,471.6 663.9,466.2 661.3,462.2 661.3,462.2 661.3,462.2 665.5,456.6 668.2,458.5 684.6,454.6 688.7,464.6 
			688.7,464.6 688.7,464.6 686.3,467.3 696.9,480.5 696.7,484.7 696.5,485.6 698.8,487.6 700.6,488.1 711.4,486.7 723.1,480.6 
			733.9,484.3 733.9,484.3 747,466.4 743.5,461.2 758.4,447.5 759.3,461.3 772.3,469.3 794.5,446.7 828.3,450.6 830.6,432.4 
			846.1,419 846.1,410.5 845.1,410.5 		"/>
		<polygon id="France_6_" class="st3" points="809.7,650.3 802.4,650.6 800,656 785.7,661.5 780.5,674.4 778.8,676.8 784.6,680.6 
			784.9,682.3 779.2,683.6 780.6,690.8 787.2,692.9 787.6,696.8 783.2,701.4 783.8,705.3 790.2,705.9 791.9,710 787.4,715.8 
			799,717.7 792.4,724.9 798.5,729.7 808.1,732.7 810.8,735.9 816.4,737.4 821.5,721.9 822.7,710.5 822,704 822,697.5 827.3,690.2 
			827.4,677.9 825.3,673.7 824.7,660.6 820.4,655.9 820,647.8 821.3,644.1 818.6,633.4 816.6,629.8 812.4,633.1 814.3,646.2 
			812.9,652.1 		"/>
		<polygon id="Andorre_4_" class="st10" points="449.1,711.7 460.8,707.7 455.5,699.1 444.2,700.3 444.1,705 		"/>
		<polygon id="Monaco_4_" class="st11" points="710,635.2 710,635.2 719,635.5 715.3,628 710.3,628.4 		"/>
	</g>
</g>
</svg>
