<svg id="Calque_1" data-name="Calque 1" xmlns="http://www.w3.org/2000/svg" viewBox="0 0 768.34 801"><defs><style>.cls-1{fill:#ede6d8;}.cls-1,.cls-10,.cls-9{stroke:#fff;stroke-miterlimit:10;}.cls-2{fill:#f6b0bf;}.cls-3{fill:#ef6d89;}.cls-4{fill:#fff;}.cls-10,.cls-5{fill:#fad2db;}.cls-6{fill:#f28ea4;}.cls-7{fill:#eb4b6d;}.cls-8{fill:#e61e49;}.cls-9{fill:none;}</style></defs><title>cartesTOURFRANCE-depart_arrivee1903-39</title><rect class="cls-1" x="0.5" y="0.5" width="767.34" height="800"/><polygon id="Var" class="cls-2" points="608.39 624.05 623.75 645.38 611.39 656.24 612.41 662.78 597.71 670.8 587.79 672.11 579.72 671.28 572.34 674.95 566.19 668.54 569.45 660.43 565.68 655.92 570.33 651.12 565.68 642.4 569.63 630.7 580.79 633.38 608.39 624.05"/><polygon id="Bouches-du-Rhône" class="cls-3" points="565.68 642.4 570.33 651.12 565.68 655.92 569.45 660.43 566.19 668.54 551.79 664.58 549.6 656.71 535.43 657.17 531.7 652.94 526.27 652.19 528.83 657.08 523.04 658.88 512.81 654.89 515.75 650.84 499.61 649.71 508.87 634.46 515.29 633.89 517.28 622.99 526 618.14 526 620.65 537.71 629.63 557.38 635.15 569.62 630.7 569.63 630.7 565.68 642.4"/><polygon id="Drôme" class="cls-4" points="569.63 569.76 560.92 572.53 559.31 579.32 561.72 581.29 559.27 584.11 552.74 582.3 551.79 590.22 563.54 596.62 562.78 603.48 556.45 606.65 549.5 601.12 540.56 600.33 533.82 595.24 534.91 590.49 531.89 587.59 526.38 591.5 529.17 597.73 525.22 599.78 519.49 594.49 518.09 584.05 521.33 575.8 526.27 555.62 521.64 539.03 521.98 530.31 524.33 532.24 530.07 529.21 539.79 535.94 538.02 545 548.97 548.43 552.81 545.38 552.86 563.21 569.63 569.76"/><polygon id="Vaucluse" class="cls-4" points="569.62 630.7 557.38 635.15 537.71 629.63 526 620.65 526 618.14 526 615.33 519.54 608.78 519.58 603.81 513.72 595.24 513.71 595.17 519.49 594.49 525.22 599.78 529.17 597.73 526.38 591.5 531.89 587.59 534.91 590.49 533.82 595.24 540.56 600.33 549.5 601.12 556.45 606.65 558.45 623.28 567.92 630.3 569.62 630.7"/><polygon id="Haute-Marne" class="cls-4" points="563.8 363 555.71 371.9 555.71 380.01 544.16 380.56 544.08 384.17 538.2 385.97 534.28 380.48 525.32 379.74 526.05 371.65 514.56 359.11 514.26 357.56 513.54 353.88 520.08 351.61 518.67 338.13 514.9 336.76 510.95 331.16 510.95 326.2 514.77 326.28 519.46 322.99 520.18 317.46 523.84 316.63 525.4 320.84 544.57 333.06 544.08 337.18 557.35 346.93 554.02 354.15 563.8 363"/><polygon id="Marne" class="cls-5" points="463.38 321.37 460.38 320.49 460.88 306.38 469.56 296.04 471.81 287.1 467.96 277.22 484.19 272.98 518.03 281.43 521.13 279.96 526.5 294.57 520.68 308.08 523.84 316.63 520.18 317.46 519.46 322.99 514.77 326.28 510.95 326.2 499.64 325.94 495.28 315.47 491.95 315.19 473.66 324.39 463.38 321.37"/><polygon id="Ardèche" class="cls-4" points="521.64 539.03 526.27 555.62 521.33 575.8 518.09 584.05 519.49 594.49 513.71 595.17 499.61 596.84 489.63 595.22 485.86 587.77 485.06 586.17 482.04 577.49 480.05 568.76 488.96 559.65 494.21 559.7 505.99 542.07 507.27 536.71 519.36 528.16 521.98 530.31 521.64 539.03"/><polygon id="Gard" class="cls-2" points="526 615.33 526 618.14 517.28 622.99 515.29 633.89 508.87 634.46 499.61 649.71 491.9 649.75 489.64 645.19 495.48 640.36 493.17 631.83 479.36 624.6 477.46 617.82 473.89 617.4 467.69 625.27 457.22 620.73 462.92 617.15 460.37 612.63 453.53 610.46 457.11 604.61 463.83 609.19 470.61 606.65 475.55 607.29 481.29 607.93 483.92 604 484.18 593.91 481.06 590.51 485.86 587.77 489.63 595.22 499.61 596.84 513.71 595.17 513.72 595.24 519.58 603.81 519.54 608.78 526 615.33"/><polygon id="Aube" class="cls-5" points="518.67 338.13 520.08 351.61 513.54 353.88 514.26 357.56 514.18 357.58 506.87 361.4 497.11 364.64 494.13 364.61 479.69 364.45 466.23 349.03 466.95 343.11 461.32 337.14 457.41 336.94 457.16 335.81 458.35 325.25 463.38 321.37 473.66 324.39 491.95 315.19 495.28 315.47 499.64 325.94 510.95 326.2 510.95 331.16 514.9 336.76 518.67 338.13"/><polygon id="Loire" class="cls-4" points="520.08 521.16 519.36 528.16 507.27 536.71 494.5 526.41 487.25 530.52 482.1 528.8 484.69 521.95 482.79 514.71 477.11 510.92 472.18 501.7 474.86 494.92 470.54 490.79 476.87 489.89 476.57 478.26 475.04 474.35 475.69 471.95 480.32 471.53 485.95 477.28 503.15 473.02 505.37 477.71 503.16 479.62 498.78 479.62 497.1 484.64 499.88 494.89 503.16 498.37 501.41 508.5 520.08 521.16"/><polygon id="Haute-Loire" class="cls-4" points="507.27 536.71 505.99 542.07 494.21 559.7 488.96 559.65 480.05 568.76 475.56 562.91 461.8 564.47 457.41 552.94 450.79 535.54 445.44 534.12 443.79 531.24 443.5 530.83 444.71 529.95 462.32 525.81 468.94 530.31 481.54 530.31 482.1 528.8 487.25 530.52 494.5 526.41 507.27 536.71"/><polygon id="Yonne" class="cls-4" points="494.12 365.24 497.64 375.96 486.89 399.76 487.98 402.28 484.18 404.46 465.75 392.82 455.05 394.3 438.98 388.42 434.26 376.11 437.77 376.45 441.74 373.97 440.24 368.5 446.38 362.63 437.77 348.24 442.87 343.99 441.13 342.01 446.03 336.94 457.16 335.81 457.41 336.94 461.32 337.14 466.95 343.11 466.23 349.03 479.69 364.45 494.13 364.61 494.12 365.24"/><polygon id="Hérault" class="cls-6" points="493.17 631.83 495.48 640.36 489.64 645.19 485.56 644.86 449.11 667.43 434.68 658.48 431.67 662.41 428.22 664.58 422.77 661.36 419.24 656.77 420.34 651.84 425.05 650.41 426.35 646.39 422.97 643.24 425.79 637.42 428.85 639.58 438.21 636.36 443.78 634.46 443.55 625.79 450.25 627.71 457.22 620.73 467.69 625.27 473.89 617.4 477.46 617.82 479.36 624.6 493.17 631.83"/><polygon id="Nièvre" class="cls-4" points="487.98 402.28 493.52 415.17 485.8 417.23 488.01 437.64 475.56 442.41 472.73 440.67 468.94 442.11 462.57 446.23 449.01 445.23 442.68 440.56 442.88 437.75 443.79 425.27 435.97 404.58 437.35 399.13 435.35 392.26 435.34 392.26 434.59 389.68 438.98 388.42 455.05 394.3 465.75 392.82 484.18 404.46 487.98 402.28"/><polygon id="Lozère" class="cls-4" points="485.06 586.17 485.86 587.77 481.06 590.51 484.18 593.91 483.92 604 481.29 607.93 475.55 607.29 470.61 606.65 463.83 609.19 457.11 604.61 451.43 601.57 446.96 586.79 439.7 574.58 446.08 557.74 450.64 558.98 457.41 552.94 461.8 564.47 475.56 562.91 480.05 568.76 482.04 577.49 485.06 586.17"/><polygon id="Puy-de-Dôme" class="cls-4" points="482.79 514.71 484.69 521.95 482.1 528.8 481.54 530.31 468.94 530.31 462.32 525.81 444.71 529.95 443.5 530.83 440.96 532.69 432.44 526.48 427.49 527.8 424.81 523.76 418.79 522.87 418.83 516.79 417.54 512.16 418.65 505.34 413.73 498.78 423.65 490.11 420.86 479.62 424.81 482.24 434.31 472.58 437.68 472.6 436.66 475.95 446.03 483.56 455.36 484.59 459.16 483.3 470.54 490.79 474.86 494.92 472.18 501.7 477.11 510.92 482.79 514.71"/><polygon id="Allier" class="cls-4" points="484.19 457.63 484.07 467.64 480.32 471.53 475.69 471.95 475.04 474.35 476.57 478.26 476.87 489.89 470.54 490.79 459.16 483.3 455.36 484.59 446.03 483.56 436.66 475.95 437.68 472.6 434.31 472.58 424.81 482.24 420.86 479.62 418.31 469.95 411.16 466.59 408.41 460.89 411.39 455.25 415.93 454.43 420.69 455.25 423.73 452.63 421.35 447.19 428.44 440.89 429.98 444.17 437.45 437.25 442.49 437.71 442.88 437.75 442.68 440.56 449.01 445.23 462.57 446.23 468.94 442.11 473.26 453.74 484.19 457.63"/><polygon id="Seine-et-Marne" class="cls-4" points="463.38 321.37 458.35 325.25 457.16 335.81 446.03 336.94 441.13 342.01 442.87 343.99 437.77 348.24 432.7 352.46 418.68 353.88 416.73 352.1 420.08 346.01 416.11 342.61 416.12 341.35 416.15 338.2 421.08 335.01 422.12 315.95 422.51 308.48 423.12 297.37 423.37 292.6 439.6 291.62 443.87 289.92 448.33 296.53 460.88 306.38 460.38 320.49 463.38 321.37"/><polygon id="Aveyron" class="cls-4" points="460.37 612.63 462.92 617.15 457.22 620.73 450.25 627.71 443.55 625.79 443.78 634.46 438.21 636.36 434.13 631.74 425 631.45 417.87 614.84 401.47 603.89 392.35 605.38 389.47 593.49 388.36 585.35 400.31 578.78 402.49 575.87 404.94 576.2 409.94 573.16 417.36 574.14 422.41 560.59 429.29 556.3 434.2 559.74 436.33 565.96 439.7 574.58 446.96 586.79 451.43 601.57 457.11 604.61 453.53 610.46 460.37 612.63"/><polygon id="Cantal" class="cls-4" points="450.79 535.54 457.41 552.94 450.64 558.98 446.08 557.74 439.7 574.58 436.33 565.96 434.2 559.74 429.29 556.3 422.41 560.59 417.36 574.14 409.94 573.16 404.94 576.2 402.49 575.87 398.93 553.55 403.23 546.65 404.64 537.45 411.75 525.04 415.89 528.58 419.41 527.07 418.79 522.87 424.81 523.76 427.49 527.8 432.44 526.48 440.96 532.69 443.5 530.83 443.79 531.24 445.44 534.12 450.79 535.54"/><polygon id="Bas-Rhin" class="cls-6" points="641.07 335.92 643.89 313.58 649.6 309.5 660.25 292.49 647.86 287.37 634.89 288.1 631.6 296.13 622.39 295.6 610.83 290.45 606.82 298.09 622.51 306.33 621.81 314.44 616.48 322.91 613.9 322.05 613.9 326.28 615.05 334.54 617.92 336.31 635.27 347.04 641.07 335.92"/><polygon id="Alpes-Maritimes" class="cls-7" points="650.51 612.78 655.36 611.28 654.13 598.35 637.26 602.16 618.1 588.92 612.22 595.18 610.16 603.11 621.63 615.86 610.83 619.17 608.39 624.05 609.28 625.28 623.75 645.38 632.13 639.78 632.4 632.99 637.45 632.6 649.99 623.95 650 623.95 650.51 612.78"/><polygon id="Haut-Rhin" class="cls-5" points="614.87 382.53 619.15 388.95 621.63 392.69 630.29 392.55 634.49 389.29 636.96 381.63 636.96 381.63 632.64 374.81 637.59 357.12 635.27 347.04 617.92 336.31 605.99 369.25 614.08 373.94 614.87 382.53"/><polygon id="Moselle" class="cls-3" points="571.84 261.95 562.98 264.39 566.36 288.18 563.75 290.93 573.13 299.59 577.76 300.09 582.7 308.05 613.9 322.05 616.48 322.91 621.81 314.44 622.51 306.33 606.82 298.09 610.83 290.45 622.39 295.6 631.6 296.13 634.89 288.1 627.9 281.43 622.26 281.23 619.16 284.04 611.74 284.19 605.44 279.36 601.34 279.41 600.37 282.35 596.64 282.76 588.96 267.45 581.04 264.19 575.14 261.77 571.84 261.95"/><polygon id="Savoie" class="cls-2" points="597.31 491.2 594.01 494.38 589.35 504.94 585.52 505.64 580.42 500.84 577.45 502.09 569.63 498.03 565.68 486.69 564.34 504.48 558.32 510.88 569.18 522.88 572.31 518.6 584.17 525.15 581.21 533.91 586.43 539.71 586.1 541.72 597.97 541.74 604.07 541.13 615.47 539.99 625.38 532.4 628.1 521.7 609.27 497.09 606.07 500.81 597.31 491.2"/><polygon id="Hautes-Alpes" class="cls-6" points="573.79 591.32 583.01 582.85 589.9 588.05 593.48 583.14 606.16 583.64 621.36 569.47 625.51 565.61 621.63 556.84 610.72 554.17 604.07 541.13 597.97 541.74 586.1 541.72 585.2 547.33 591.3 551.77 593 557.46 569.63 569.76 567.48 570.44 560.92 572.53 559.31 579.32 561.72 581.29 559.27 584.11 552.74 582.3 551.79 590.22 563.54 596.62 562.78 603.48 573.92 600.6 573.79 591.32"/><polygon id="Alpes-de-Haute-Provence" class="cls-2" points="610.83 619.17 621.63 615.86 610.16 603.11 612.22 595.18 618.1 588.92 616.89 581.01 621.8 576.2 621.63 569.76 621.36 569.47 606.16 583.64 593.48 583.14 589.9 588.05 583.01 582.85 573.79 591.32 573.92 600.6 562.78 603.48 556.45 606.65 558.45 623.28 567.92 630.3 569.62 630.7 569.63 630.7 580.79 633.38 604.25 625.45 608.39 624.05 610.83 619.17"/><polygon id="Territoire_de_Belfort" data-name="Territoire de Belfort" class="cls-6" points="618.54 389.36 619.15 388.95 614.87 382.53 614.08 373.94 605.99 369.25 602.22 371.53 601.34 384.55 613.9 390.36 618.54 389.36"/><polygon id="Haute-Savoie" class="cls-6" points="608.38 471.82 610.81 469.21 606.74 459.12 590.29 463.04 587.59 461.19 583.43 466.81 586.03 470.75 578.77 476.19 571.67 476.13 571.71 477.88 566.23 479.51 565.68 486.68 565.68 486.69 569.63 498.03 577.45 502.09 580.42 500.84 585.52 505.64 589.35 504.94 594.01 494.38 597.31 491.2 606.07 500.81 609.27 497.09 611.01 495.06 618.5 492.05 618.63 490.17 618.99 485.04 608.38 471.82"/><polygon id="Vosges" class="cls-4" points="575.89 358.06 580.23 362.47 605.99 369.25 617.92 336.31 615.05 334.54 613.9 326.28 601.79 331.2 575.41 332.23 572.74 335.08 566.8 335.38 557.86 327.38 544.57 333.06 544.08 337.18 557.35 346.93 554.02 354.15 563.8 363 570.63 357.81 575.89 358.06"/><polygon id="Doubs" class="cls-5" points="560.46 420.5 570.5 422.34 570.76 430.05 577.82 432.28 580.61 437.84 575.21 441.09 577.45 449.9 591.38 435.76 591.04 425.25 599.17 421.39 616.89 397.69 613.9 390.36 601.34 384.55 595.63 389.69 587.59 388.33 558.29 404.08 563.37 412.85 560.46 420.5"/><polygon id="Meurthe-et-Moselle" class="cls-2" points="582.7 308.05 577.76 300.09 573.13 299.59 563.75 290.93 566.36 288.18 562.98 264.39 557.55 260.46 556.1 259.4 542.93 261.77 545.68 268.91 551.5 267.67 555.92 275.65 560.88 298.86 557.86 327.38 566.8 335.38 572.74 335.08 575.41 332.23 601.79 331.2 613.9 326.28 613.9 322.05 582.7 308.05"/><polygon id="Haute-Saône" class="cls-4" points="544.08 394.29 549.42 401.48 552.88 406.14 558.29 404.08 587.59 388.33 595.63 389.69 601.34 384.55 602.22 371.53 605.99 369.25 580.23 362.47 575.89 358.06 570.63 357.81 563.8 363 555.71 371.9 555.71 380.01 544.16 380.56 544.08 384.17 548.47 388.48 544.08 394.29"/><polygon id="Isère" class="cls-3" points="593 557.46 591.3 551.77 585.2 547.33 586.1 541.72 586.43 539.71 581.21 533.91 584.17 525.15 572.31 518.6 569.18 522.88 558.32 510.88 544.9 495.04 540.56 501.66 533.82 500.3 536.73 505.23 531.91 511.36 521.87 514.04 524.7 518.93 520.08 521.16 519.36 528.16 521.98 530.31 524.33 532.24 530.07 529.21 539.79 535.94 538.02 545 548.97 548.43 552.81 545.38 552.86 563.21 567.07 568.76 569.63 569.76 593 557.46"/><polygon id="Ain" class="cls-5" points="565.68 486.69 565.68 486.68 566.23 479.51 571.71 477.88 571.67 476.13 571.59 471.96 578.15 470.05 580.94 461.48 576.24 459.49 567.05 469.43 560.71 469.38 560.73 466.75 557.25 464.97 549.74 469.95 539.92 458.31 526.5 454.43 519.99 474.95 517.54 490.76 533.82 500.3 540.56 501.66 544.9 495.04 558.32 510.88 564.34 504.48 565.68 486.69"/><polygon id="Jura" class="cls-5" points="549.74 469.95 557.25 464.97 560.73 466.75 560.71 469.38 567.05 469.43 576.24 459.49 577.45 449.9 575.21 441.09 580.61 437.84 577.82 432.28 570.76 430.05 570.5 422.34 560.46 420.5 563.37 412.85 558.29 404.08 552.88 406.14 549.42 401.48 547.82 412.12 540.32 420.82 540.56 423.45 540.89 427.17 548.11 432.06 542.58 434.4 546.89 447.19 544.08 451.5 547.9 455.92 539.92 458.31 549.74 469.95"/><polygon id="Meuse" class="cls-4" points="560.88 298.86 555.92 275.65 551.5 267.67 545.68 268.91 542.93 261.77 537.71 257.92 534.68 260.9 529.23 258.47 526.1 264.12 528.6 267.92 526.41 277.47 521.13 279.96 526.5 294.57 520.68 308.08 523.84 316.63 525.4 320.84 544.57 333.06 557.86 327.38 560.88 298.86"/><polygon id="Côte-d_Or" data-name="Côte-d&apos;Or" class="cls-5" points="528.51 425.14 540.56 423.45 540.32 420.82 547.82 412.12 549.42 401.48 544.08 394.29 548.47 388.48 544.08 384.17 538.2 385.97 534.28 380.48 525.32 379.74 526.05 371.65 514.56 359.11 514.26 357.56 514.18 357.58 506.87 361.4 497.11 364.64 494.13 364.61 494.12 365.24 497.64 375.96 486.89 399.76 487.98 402.28 493.52 415.17 514.62 430.03 528.51 425.14"/><polygon id="Saône-et-Loire" class="cls-4" points="515.8 468.57 519.99 474.95 526.5 454.43 539.92 458.31 547.9 455.92 544.08 451.5 546.89 447.19 542.58 434.4 548.11 432.06 540.89 427.17 540.56 423.45 528.51 425.14 514.62 430.03 493.52 415.17 485.8 417.23 488.01 437.64 475.56 442.41 472.73 440.67 468.94 442.11 473.26 453.74 484.19 457.63 484.07 467.64 480.32 471.53 485.95 477.28 503.15 473.02 503.32 468.88 515.8 468.57"/><polygon id="Ardennes" class="cls-6" points="528.6 267.92 526.1 264.12 529.23 258.47 534.68 260.9 537.71 257.92 535.8 252.47 517.89 245.31 517.51 222.49 513.28 222.49 509.02 232.3 498.93 236.59 491.71 234.12 491.86 248.52 484.19 272.98 518.03 281.43 521.13 279.96 526.41 277.47 528.6 267.92"/><polygon id="Rhône" class="cls-2" points="521.87 514.04 531.91 511.36 536.73 505.23 533.82 500.3 517.54 490.76 519.99 474.95 515.8 468.57 503.32 468.88 503.15 473.02 505.37 477.71 503.16 479.62 498.78 479.62 497.1 484.64 499.88 494.89 503.16 498.37 501.41 508.5 520.08 521.16 524.7 518.93 521.87 514.04"/><polygon id="Aisne" class="cls-5" points="491.86 248.52 491.71 234.12 487.26 234.08 447.96 232.37 445.32 253.2 445.29 253.73 444.06 275.23 438.91 278.3 440.85 285.43 443.87 289.92 448.33 296.53 460.88 306.38 469.56 296.04 471.81 287.1 467.96 277.22 484.19 272.98 491.86 248.52"/><polygon id="Nord" class="cls-3" points="417.87 191.62 430.32 193.51 432.71 199.56 443.78 204.97 438.91 208.11 447.67 217.9 439.61 225.62 447.96 232.37 487.26 234.08 486.77 232.52 491.11 229.31 490.76 217.46 482.94 210.18 470.67 210.75 469.35 212.91 467.81 212.89 468.1 205.22 460.47 199.69 456.06 201.62 451.5 199.61 450.51 188 446.59 183.14 438.27 185.06 432.99 188.28 430.62 183.66 428.46 181.23 424.1 178.81 425.67 172.69 422.02 163.66 422.02 163.66 403.45 168.65 410.04 181.75 417.87 191.62"/><polygon id="Somme" class="cls-5" points="447.96 232.37 435.71 231.6 381.28 208.65 372.32 227.63 389.77 248.07 393.8 252.79 426.84 259.28 437.58 253.17 444.6 253.19 445.32 253.2 447.96 232.37"/><polygon id="Pas-de-Calais" class="cls-4" points="435.71 231.6 447.96 232.37 439.61 225.62 447.67 217.9 438.91 208.11 443.78 204.97 432.71 199.56 430.32 193.51 417.87 191.62 410.04 181.75 403.45 168.65 391.31 170.85 381.6 178.21 381.28 208.65 435.71 231.6"/><polygon id="Oise" class="cls-4" points="445.32 253.2 444.06 275.23 438.91 278.3 440.85 285.43 443.87 289.92 439.6 291.62 423.37 292.6 402.21 283.87 389.27 285.94 387.36 279.37 387.26 271.34 390.33 265.17 389.77 248.07 393.8 252.79 426.84 259.28 437.58 253.17 445.32 253.2"/><polygon id="Cher" class="cls-4" points="435.97 404.58 443.79 425.27 442.88 437.75 442.49 437.71 437.45 437.25 429.98 444.17 428.44 440.89 421.35 447.19 423.73 452.63 420.69 455.25 415.93 454.43 411.39 455.25 408.41 460.89 403.26 461.48 405.54 447.8 401.07 441.17 404.27 431.59 399.03 417.19 392.59 417.98 387.57 415.28 391.94 410.65 395.53 406.23 403.53 404.41 408.36 392.82 402.59 388.04 408.87 382.73 427.06 394.07 435.34 392.26 435.35 392.26 437.35 399.13 435.97 404.58"/><polygon id="Creuse" class="cls-4" points="420.86 479.62 423.65 490.11 413.73 498.78 418.65 505.34 408.87 509.12 404.27 505.49 391.27 507.18 391.94 502.55 386.11 498.61 378.39 497.92 375.34 492.63 376.13 483.6 369.06 474.19 371.72 467.29 369.99 463.04 384.92 462.62 386.25 459.13 403.26 461.48 408.41 460.89 411.16 466.59 418.31 469.95 420.86 479.62"/><polygon id="Val-d_Oise" data-name="Val-d&apos;Oise" class="cls-4" points="423.37 292.6 423.12 297.37 411.51 300.78 407.03 302.1 382.5 291.23 387.36 279.37 389.27 285.94 402.21 283.87 423.37 292.6"/><polygon id="Seine-Saint-Denis" class="cls-4" points="423.12 297.37 422.51 308.48 421.66 308.43 416.11 306.26 415.7 306.42 414.66 303.74 411.96 304.36 411.82 303.75 411.51 300.78 423.12 297.37"/><polygon id="Val-de-Marne" class="cls-4" points="422.51 308.48 422.12 315.95 411.94 313.94 411.67 309.37 411.84 308.87 413.31 309.37 416.13 307.5 415.7 306.42 416.11 306.26 421.66 308.43 422.51 308.48"/><polygon id="Essonne" class="cls-5" points="422.12 315.95 421.08 335.01 416.15 338.2 416.12 341.35 415.29 341.34 397.13 342.06 395.83 332.3 395.39 328.98 401.05 322.4 400 317.45 407.79 311.92 411.94 313.94 422.12 315.95"/><polygon id="Paris" class="cls-8" points="415.7 306.42 416.13 307.5 413.31 309.37 411.84 308.87 409.82 308.18 408.87 305.06 411.96 304.36 414.66 303.74 415.7 306.42"/><polygon id="Hauts-de-Seine" class="cls-4" points="411.82 303.75 411.96 304.36 408.87 305.06 409.82 308.18 411.84 308.87 411.67 309.37 411.94 313.94 407.79 311.92 405.03 306.36 407.03 302.1 411.51 300.78 411.82 303.75"/><polygon id="Loir-et-Cher" class="cls-4" points="408.87 382.73 402.59 388.04 408.36 392.82 403.53 404.41 395.53 406.23 391.94 410.65 385.11 407.05 368.54 411.61 359.08 404.46 356.76 386.6 349.18 380.36 335.8 377.92 347.21 366.16 346.2 356.52 350.53 350.3 366.48 362.63 376.75 361.12 378.94 375.26 385.67 378.61 390.37 383.06 406.88 381.49 408.87 382.73"/><polygon id="Yvelines" class="cls-4" points="405.03 306.36 407.79 311.92 400 317.45 401.05 322.4 395.39 328.98 395.83 332.3 394.83 332.44 390.33 330.55 388.95 326.28 381.28 317.5 382.09 306.68 377.48 300.4 377.19 300.23 378.45 298.1 376.28 293.08 382.5 291.23 407.03 302.1 405.03 306.36"/><polygon id="Indre" class="cls-4" points="401.07 441.17 405.54 447.8 403.26 461.48 386.25 459.13 384.92 462.62 369.99 463.04 361.26 463.3 361.71 460 348.26 448.08 348.64 440.73 352.97 438.38 356.71 422.4 364.1 423.1 369.99 416.57 368.54 411.61 385.11 407.05 391.94 410.65 387.57 415.28 392.59 417.98 399.03 417.19 404.27 431.59 401.07 441.17"/><polygon id="Eure-et-Loir" class="cls-4" points="395.83 332.3 397.13 342.06 396.47 349.48 391.69 355.89 386.49 357.25 381.81 356.12 376.75 361.12 366.48 362.63 350.53 350.3 347.57 348.02 345.23 338.99 354.03 333.81 353.69 325.71 349.09 321.75 348.18 317.5 370.44 311.63 377.19 300.23 377.48 300.4 382.09 306.68 381.28 317.5 388.95 326.28 390.33 330.55 394.83 332.44 395.83 332.3"/><polygon id="Haute-Vienne" class="cls-4" points="391.94 502.55 391.27 507.18 391.07 508.57 363.24 521.68 356.15 520.18 352.68 512.75 345.51 511.33 342.44 513.93 335.18 506.48 335.8 501.75 343.62 496.82 343.29 492.04 349.09 489.6 348.36 485.54 344.82 478.26 343.45 473.65 347.48 468.57 361.26 463.3 369.99 463.04 371.72 467.29 369.06 474.19 376.13 483.6 375.34 492.63 378.39 497.92 386.11 498.61 391.94 502.55"/><polygon id="Seine-Maritime" class="cls-6" points="389.77 248.07 390.33 265.17 387.26 271.34 372.96 268 368.8 274.41 356.36 279.66 354.03 273.41 337.02 265.41 327.93 267.92 318.27 263.08 324.73 249.12 361.42 236.5 372.32 227.63 389.77 248.07"/><polygon id="Eure" class="cls-4" points="387.26 271.34 387.36 279.37 382.5 291.23 376.28 293.08 378.45 298.1 377.19 300.23 370.44 311.63 348.18 317.5 345.01 315.33 346.23 311.92 339.19 303.48 333.07 303.21 331.33 300.99 331.09 298.61 327.93 267.92 337.02 265.41 354.03 273.41 356.36 279.66 368.8 274.41 372.96 268 387.26 271.34"/><polygon id="Dordogne" class="cls-4" points="370.44 550.34 370.98 556.43 354.59 576.43 349.39 573.74 342.04 576.05 334.34 571.22 323.4 572.94 316.91 564.38 319 559.6 316.24 557.79 313.45 561.13 306.08 558.3 308.82 544.23 303.36 541.72 307.42 535.54 312.35 535.54 317.98 530.16 317.68 521.68 328.66 514.75 335.18 506.48 342.44 513.93 345.51 511.33 352.68 512.75 356.15 520.18 363.24 521.68 364.9 528.23 361.26 532.69 370.44 550.34"/><polygon id="Indre-et-Loire" class="cls-4" points="368.54 411.61 369.99 416.57 364.1 423.1 356.71 422.4 352.97 438.38 348.64 440.73 339.9 425.02 323.05 426.64 323.31 419.84 313.08 411.2 318.91 398.12 319.54 385.97 327.96 385.97 335.8 377.92 349.18 380.36 356.76 386.6 359.08 404.46 368.54 411.61"/><polygon id="Vienne" class="cls-4" points="361.71 460 361.26 463.3 347.48 468.57 343.45 473.65 344.82 478.26 333.78 481.83 330.52 478.26 328.3 479.13 328.52 482.24 313.08 480.04 317.09 478.58 317.85 476.41 313.08 473.13 315.54 468.3 314.14 463.76 309.21 464.21 310.14 431.36 305.38 418.15 313.08 411.2 323.31 419.84 323.05 426.64 339.9 425.02 348.64 440.73 348.26 448.08 361.71 460"/><polygon id="Lot-et-Garonne" class="cls-4" points="354.59 576.43 353.48 579.31 349.09 579.48 352.96 590.9 348.12 591.73 344.68 590.22 343.25 594.73 345.65 597.38 344.07 605.71 334.13 612.18 330.88 608.89 324.31 609.46 322.54 612.54 305.85 612.98 307.71 604.88 297.81 603.81 296.52 598.71 301.09 596.84 304.87 589.4 312.55 571.63 309.21 569.22 310 567.05 316.91 564.38 323.4 572.94 334.34 571.22 342.04 576.05 349.39 573.74 354.59 576.43"/><polygon id="Orne" class="cls-4" points="353.69 325.71 354.03 333.81 345.23 338.99 347.57 348.02 335.81 343.53 329.92 338.86 327.93 329.63 321.25 328.72 315.29 334.14 311.47 333.54 304.87 322.24 292.58 324.98 281.16 329.05 275.27 323.81 279.54 322.91 282.59 313.51 278.94 309.45 296.63 302.41 308.46 305.81 320.17 298.45 331.09 298.61 331.33 300.99 333.07 303.21 339.19 303.48 346.23 311.92 345.01 315.33 348.18 317.5 349.09 321.75 353.69 325.71"/><polygon id="Sarthe" class="cls-4" points="350.53 350.3 346.2 356.52 347.21 366.16 335.8 377.92 327.96 385.97 319.54 385.97 294.76 372.93 295.54 364.77 306.57 344.96 306.81 337.4 311.47 333.54 315.29 334.14 321.25 328.72 327.93 329.63 329.92 338.86 335.81 343.53 347.57 348.02 350.53 350.3"/><polygon id="Charente" class="cls-4" points="348.36 485.54 349.09 489.6 343.29 492.04 343.62 496.82 335.8 501.75 335.18 506.48 328.66 514.75 317.68 521.68 317.98 530.16 312.35 535.54 307.42 535.54 292.87 525.27 294.76 515.27 288.38 507.88 287.57 500.18 300.49 499.14 304.15 487.1 306.75 482.35 313.08 480.04 328.52 482.24 328.3 479.13 330.52 478.26 333.78 481.83 344.82 478.26 348.36 485.54"/><polygon id="Calvados" class="cls-3" points="327.93 267.92 331.09 298.61 320.17 298.45 308.46 305.81 296.63 302.41 278.94 309.45 270.74 307.24 266.61 301.94 278.46 288.7 268.28 275.01 269.02 269.56 274.53 268.21 278.59 270.23 297.58 272.96 305.01 277.19 327.93 267.92"/><polygon id="Maine-et-Loire" class="cls-5" points="319.54 385.97 318.91 398.12 313.08 411.2 305.38 418.15 285.88 416.89 282.79 421.91 270.51 419.31 261.07 417.32 256.76 397.33 268.89 395.66 268.89 388.42 258.18 370.16 284.85 374.24 294.76 372.93 319.54 385.97"/><polygon id="Gironde" class="cls-3" points="319 559.6 316.91 564.38 310 567.05 309.21 569.22 312.55 571.63 304.87 589.4 301.09 596.84 296.52 598.71 292.03 600.55 285.76 599.15 284.31 593.41 272.83 582.19 258.52 584.62 258.47 580.07 254.83 577.48 246.08 581.05 246.3 578.82 250.19 574.5 257.94 574.5 258.44 570.91 251.52 562.49 246.08 569.26 254.2 512.65 256.57 511.74 257.79 517.59 268.89 525.06 273.71 541.74 275.2 539.26 272.99 527.57 286.45 530.56 287.27 537.57 303.36 541.72 308.82 544.23 306.08 558.3 313.45 561.13 316.24 557.79 319 559.6"/><polygon id="Deux-Sèvres" class="cls-4" points="317.85 476.41 317.09 478.58 313.08 480.04 306.75 482.35 304.15 487.1 300.48 485.86 299.87 483.19 277.62 472.74 275.2 465.47 284.85 460.47 280.42 438.64 270.51 419.31 282.79 421.91 285.88 416.89 305.38 418.15 310.14 431.36 309.21 464.21 314.14 463.76 315.54 468.3 313.08 473.13 317.85 476.41"/><polygon id="Mayenne" class="cls-4" points="304.87 322.24 311.47 333.54 306.81 337.4 306.57 344.96 295.54 364.77 294.76 372.93 284.85 374.24 258.18 370.16 263.4 357.56 268.89 356.09 266.61 340.06 268.85 335.5 267.24 323.24 272.59 324.37 275.27 323.81 281.16 329.05 292.58 324.98 304.87 322.24"/><polygon id="Charente-Maritime" class="cls-6" points="307.42 535.54 303.36 541.72 287.27 537.57 286.45 530.56 272.99 527.57 271.39 519.17 251.5 503.78 249.96 491.11 244.95 487.35 245.47 479.68 253.68 490.05 257.63 492.05 260.56 481.11 236.76 467.29 241.76 464.21 254.29 471.88 256.67 465.38 263.39 461.37 275.2 465.47 277.62 472.74 299.87 483.19 300.48 485.86 304.15 487.1 300.49 499.14 287.57 500.18 288.38 507.88 294.76 515.27 292.87 525.27 307.42 535.54"/><polygon id="Tarn-et-Garonne" class="cls-4" points="387.57 608.89 392.35 605.38 389.47 593.49 383.41 595.29 376.93 600.55 367.2 601.22 358.89 597.56 352.96 590.9 348.12 591.73 344.68 590.22 343.25 594.73 345.65 597.38 344.07 605.71 334.13 612.18 346.38 626.95 346.38 626.95 346.38 626.95 356.47 626.7 358.62 629.31 364.99 625.79 364.92 624 364.85 622.21 373.82 621.77 379.99 614.84 379.46 612.17 379.46 612.17 379.12 610.46 387.57 608.89"/><polygon id="Aude" class="cls-5" points="406.79 650.56 404.59 654.58 395.25 651.87 389.74 653.5 387.57 650.55 385.08 653.46 382.56 657.16 377.78 662.97 390.54 671.17 392.97 686.94 387.58 688.49 386.02 690.65 393.08 696.59 397.13 694.45 402.02 700.39 410.55 695.84 408.87 689.79 429.64 689.97 434.07 684.64 442.41 689.51 442.62 676.91 437.81 673.81 439.58 670.96 443.79 674.09 449.11 667.43 434.68 658.48 431.67 662.41 428.22 664.58 422.77 661.36 419.24 656.77 420.34 651.84 406.79 650.56"/><polygon id="Pyrénées-Orientales" class="cls-3" points="429.64 689.97 408.87 689.79 410.55 695.84 402.02 700.39 379.99 707.35 383.08 712.25 390.16 714.58 390.34 718.5 396.44 721.18 400.24 717.41 404.83 717.35 416.16 725 424.25 725 433.29 715.55 440.08 713.99 443.46 716.78 447.53 718.03 447.56 712.23 443.46 707.72 442.41 689.51 434.07 684.64 429.64 689.97"/><polygon id="Tarn" class="cls-4" points="373.82 621.77 395.36 647.63 395.25 651.87 404.59 654.58 406.79 650.56 420.34 651.84 425.05 650.41 426.35 646.39 422.97 643.24 425.79 637.42 428.85 639.58 438.21 636.36 434.13 631.74 425 631.45 417.87 614.84 401.47 603.89 392.35 605.38 387.57 608.89 379.12 610.46 379.46 612.17 379.99 614.84 373.82 621.77"/><polygon id="Ariège" class="cls-5" points="397.13 694.45 393.08 696.59 386.02 690.65 387.58 688.49 392.97 686.94 390.54 671.17 377.78 662.97 369.85 660.9 363.34 659.06 361.33 661.21 364.87 664.64 359.87 672.7 353.72 669.7 346.59 672.58 347.54 678.54 339.93 683.84 339.93 690.53 349.63 694.44 353.3 701 361.26 701 366.4 704.89 377.78 703.67 379.99 707.35 402.02 700.39 397.13 694.45"/><polygon id="Haute-Garonne" class="cls-7" points="347.54 678.54 346.59 672.58 353.72 669.7 359.87 672.7 364.87 664.64 361.33 661.21 363.34 659.06 369.85 660.9 377.78 662.97 382.56 657.16 385.08 653.46 387.57 650.55 389.74 653.5 395.25 651.87 395.36 647.63 373.82 621.77 364.85 622.21 364.99 625.79 358.62 629.31 356.47 626.7 346.38 626.95 357.17 639.98 351.56 644.32 346.91 654.97 342.34 652.63 336.42 652.11 330.24 658.39 322.39 670.2 329.83 681.75 325.82 686.88 320.94 684.64 321.83 696.51 319 697.19 330.73 698.3 331.28 687.55 339.93 690.53 339.93 683.84 347.54 678.54"/><polygon id="Gers" class="cls-4" points="304.15 619.18 301.29 614.52 290.3 618.14 293.95 623.67 290.57 638.82 296.31 639.64 301.86 638.53 306.79 644.1 309.69 652.26 330.24 658.39 336.42 652.11 342.34 652.63 346.91 654.97 351.56 644.32 357.17 639.98 346.38 626.95 341.25 620.76 334.13 612.18 330.88 608.89 324.31 609.46 322.54 612.54 305.85 612.98 305.84 618.73 304.15 619.18"/><polygon id="Hautes-Pyrénées" class="cls-5" points="320.94 684.64 325.82 686.88 329.83 681.75 322.39 670.2 330.24 658.39 309.69 652.26 306.79 644.1 301.86 638.53 296.31 639.64 302.24 654.61 287.43 673.55 284.88 686.28 291.83 691.01 297.86 697.36 306.91 694.35 312.8 698.67 319 697.19 321.83 696.51 320.94 684.64"/><polygon id="Landes" class="cls-4" points="290.57 638.82 293.95 623.67 290.3 618.14 301.29 614.52 304.15 619.18 305.84 618.73 305.85 612.98 307.71 604.88 297.81 603.81 296.52 598.71 292.03 600.55 285.76 599.15 284.31 593.41 272.83 582.19 258.52 584.62 258.47 580.07 254.83 577.48 246.08 581.05 233.85 633.75 230.55 639.32 238.11 642.42 290.57 638.82"/><polygon id="Pyrénées-Atlantiques" class="cls-7" points="215.2 648.92 215.2 652.83 234.25 659.06 233.61 665.7 230.83 667.22 236.76 673.68 238.9 668.77 257.29 678.61 264.55 678.68 264.96 683.26 272.09 689.51 284.88 686.28 287.43 673.55 302.24 654.61 296.31 639.64 290.57 638.82 238.11 642.42 230.55 639.32 224.52 647.01 224.52 647.01 215.2 648.92"/><polygon id="Vendée" class="cls-6" points="280.42 438.64 284.85 460.47 275.2 465.47 263.39 461.37 256.67 465.38 227.75 450.41 215.24 429.29 215.36 424.03 222.63 415.29 235 426.09 244.21 426 241.93 418.54 245.38 416.96 246.93 423.49 256.04 415.24 261.07 417.32 270.51 419.31 280.42 438.64"/><polygon id="Manche" class="cls-6" points="278.94 309.45 282.59 313.51 279.54 322.91 275.27 323.81 272.59 324.37 267.24 323.24 262.53 322.24 255.36 326.84 249.89 323.07 247.99 316.12 254.31 313.94 246.31 303.84 249.19 298.19 246.74 278.9 238.68 264.39 238.67 250.49 234.08 246.89 234.97 244.98 247.71 251.15 252.21 249 263.37 249 265.34 254.83 261.14 258 269.02 269.56 268.28 275.01 278.46 288.7 266.61 301.94 270.74 307.24 278.94 309.45"/><polygon id="Loire-Atlantique" class="cls-6" points="268.89 388.42 268.89 395.66 256.76 397.33 261.07 417.32 256.04 415.24 246.93 423.49 245.38 416.96 241.93 418.54 244.21 426 235 426.09 222.63 415.29 217.37 411.19 210.63 409.92 213.2 407.05 213.2 401.02 198.36 398.5 203.09 388.33 221.13 383.26 222.71 376.45 239.56 373.63 248.86 365.98 258.18 370.16 268.89 388.42"/><polygon id="Ille-et-Vilaine" class="cls-5" points="266.61 340.06 268.89 356.09 263.4 357.56 258.18 370.16 248.86 365.98 239.56 373.63 222.71 376.45 219.75 369.26 224.5 363.42 220.77 353.88 213.67 353.88 216.9 345.88 220.51 336.94 230.34 335.66 232.63 321.74 229.51 317.5 228.58 312.2 230.7 309.84 235.95 310.09 237.23 316.02 247.99 316.12 249.89 323.07 255.36 326.84 262.53 322.24 267.24 323.24 268.85 335.5 266.61 340.06"/><polygon id="Côtes-d_Armor" data-name="Côtes-d&apos;Armor" class="cls-2" points="229.51 317.5 232.63 321.74 230.34 335.66 220.51 336.94 216.9 345.88 212.63 345.54 207.23 342.06 202.03 347.15 182.22 338.37 176.05 342.06 162.92 336.94 160.05 309.84 160.78 305.56 162.19 297.39 185.06 296.1 193.67 313.69 198.23 317.5 214.63 310.53 228.58 312.2 229.51 317.5"/><polygon id="Morbihan" class="cls-2" points="220.77 353.88 224.5 363.42 219.75 369.26 222.71 376.45 221.13 383.26 203.09 388.33 189.1 385.02 175.42 377.93 160.12 364.66 161.22 360.36 166.66 358.41 167.78 354.11 156.61 349.85 153.99 340.78 162.92 336.94 176.05 342.06 182.22 338.37 202.03 347.15 207.23 342.06 212.63 345.54 216.9 345.88 213.67 353.88 220.77 353.88"/><polygon id="Finistère" class="cls-3" points="167.78 354.11 166.66 358.41 161.22 360.36 160.12 364.66 145.5 362.33 134.16 356.31 133.05 360.02 124.7 359.56 124.98 356.23 119.37 345.26 111.47 343.44 111.53 340.56 128.84 339.84 129.69 335.38 115.38 328.13 119.08 326.2 132.9 328.48 123.73 322.94 109.91 323.91 112.87 309.71 138.77 302.27 149.06 306.09 151.26 303.69 160.78 305.56 160.05 309.84 162.92 336.94 153.99 340.78 156.61 349.85 167.78 354.11"/><polygon id="Corrèze" class="cls-4" points="418.79 522.87 419.41 527.07 415.89 528.58 411.75 525.04 404.64 537.45 403.23 546.65 398.93 553.55 385.59 556.84 381.33 550.64 375.78 548.11 370.44 550.34 361.26 532.69 364.9 528.23 363.24 521.68 391.07 508.57 391.27 507.18 404.27 505.49 408.87 509.12 418.65 505.34 417.54 512.16 418.83 516.79 418.79 522.87"/><polygon id="Lot" class="cls-4" points="398.93 553.55 402.49 575.87 400.31 578.78 388.36 585.35 389.47 593.49 383.41 595.29 376.93 600.55 367.2 601.22 358.89 597.56 352.96 590.9 349.09 579.48 353.48 579.31 354.59 576.43 370.98 556.43 370.44 550.34 375.78 548.11 381.33 550.64 385.59 556.84 398.93 553.55"/><polygon id="Loiret" class="cls-4" points="437.77 348.24 446.38 362.63 440.24 368.5 441.74 373.97 437.77 376.45 434.26 376.11 438.98 388.42 434.59 389.68 435.34 392.26 427.06 394.07 408.87 382.73 406.88 381.49 390.37 383.06 385.67 378.61 378.94 375.26 376.75 361.12 381.81 356.12 386.49 357.25 391.69 355.89 396.47 349.48 397.13 342.06 415.29 341.34 416.12 341.35 416.11 342.61 420.08 346.01 416.73 352.1 418.68 353.88 432.7 352.46 437.77 348.24"/><rect class="cls-4" x="0.5" y="411.53" width="169.71" height="159.94"/><path d="M18.66,429.46h3.79a5.1,5.1,0,0,1,2,.38A4.25,4.25,0,0,1,26,430.9a4.59,4.59,0,0,1,1,1.64,6.13,6.13,0,0,1,.35,2.1,6.2,6.2,0,0,1-.35,2.12,4.59,4.59,0,0,1-1,1.64,4.35,4.35,0,0,1-1.53,1.05,5.1,5.1,0,0,1-2,.37H18.66Zm3.79,9a3,3,0,0,0,1.29-.27,2.75,2.75,0,0,0,1-.78,3.65,3.65,0,0,0,.66-1.2,4.84,4.84,0,0,0,.24-1.57,4.71,4.71,0,0,0-.24-1.55,3.65,3.65,0,0,0-.66-1.2,3,3,0,0,0-1-.79,3,3,0,0,0-1.3-.28H20.29v7.64Z"/><path d="M35.76,437.26a3.08,3.08,0,0,1-.28,1.09,2.6,2.6,0,0,1-.66.85,3.18,3.18,0,0,1-1,.56,4.05,4.05,0,0,1-1.31.2,4,4,0,0,1-1.59-.28,2.82,2.82,0,0,1-1.09-.79,3.31,3.31,0,0,1-.64-1.22,6.07,6.07,0,0,1-.2-1.59,5.25,5.25,0,0,1,.22-1.58,3.29,3.29,0,0,1,.65-1.23,3.07,3.07,0,0,1,1.1-.8,3.94,3.94,0,0,1,1.53-.28,3.81,3.81,0,0,1,1.51.27,2.61,2.61,0,0,1,1,.77,3.22,3.22,0,0,1,.58,1.22,6.69,6.69,0,0,1,.18,1.62v.24H30.49a2.94,2.94,0,0,0,.54,1.84,1.73,1.73,0,0,0,1.39.61,2,2,0,0,0,1.27-.39,1.55,1.55,0,0,0,.58-1.11Zm-1.47-1.93a2.25,2.25,0,0,0-.49-1.41,1.6,1.6,0,0,0-1.32-.55,1.85,1.85,0,0,0-1.34.48,2.31,2.31,0,0,0-.62,1.48Zm-1-5.87H35.1l-2.08,2H31.85Z"/><path d="M37.88,432.33h1.49v1.16h0a3,3,0,0,1,.92-.94,2.74,2.74,0,0,1,1.49-.36,3,3,0,0,1,1.39.3,2.68,2.68,0,0,1,1,.8,3.58,3.58,0,0,1,.61,1.22,5.84,5.84,0,0,1,0,3.14,3.91,3.91,0,0,1-.63,1.24,2.66,2.66,0,0,1-1,.79,3.12,3.12,0,0,1-1.36.28,2.65,2.65,0,0,1-1.46-.36,3,3,0,0,1-.94-1h0v3.93H37.88Zm3.51,6.49a1.84,1.84,0,0,0,1.52-.71,3.18,3.18,0,0,0,.56-2,3.29,3.29,0,0,0-.54-2,1.82,1.82,0,0,0-1.55-.72,1.7,1.7,0,0,0-1.54.73,3.65,3.65,0,0,0-.48,2,3.51,3.51,0,0,0,.49,2A1.74,1.74,0,0,0,41.39,438.82Z"/><path d="M51.29,438.77h0a2.79,2.79,0,0,1-1,.86,3.45,3.45,0,0,1-1.58.33,3,3,0,0,1-1-.16,2,2,0,0,1-.73-.42,1.71,1.71,0,0,1-.44-.63,2,2,0,0,1-.15-.77,2,2,0,0,1,.36-1.27,2.31,2.31,0,0,1,.92-.67,4.58,4.58,0,0,1,1.21-.33l1.24-.2.67-.12a1.61,1.61,0,0,0,.38-.14.42.42,0,0,0,.18-.22,1.32,1.32,0,0,0,0-.32,1.27,1.27,0,0,0-.39-1,1.64,1.64,0,0,0-1.15-.37,1.85,1.85,0,0,0-1.17.33,1.48,1.48,0,0,0-.49,1.07H46.65a2.92,2.92,0,0,1,.84-1.9,3.18,3.18,0,0,1,2.27-.69,2.63,2.63,0,0,1,3,3v4.63H51.29Zm0-2.6a10.61,10.61,0,0,1-1.2.24,11.09,11.09,0,0,0-1.14.21,2.26,2.26,0,0,0-.84.39.85.85,0,0,0-.33.73.92.92,0,0,0,.37.78,1.49,1.49,0,0,0,1,.3,2.75,2.75,0,0,0,.88-.14,2.36,2.36,0,0,0,.69-.4,1.91,1.91,0,0,0,.45-.63,2,2,0,0,0,.16-.82Z"/><path d="M55.07,432.33h1.5v1.16h0a2.85,2.85,0,0,1,.86-.95,2.1,2.1,0,0,1,1.23-.35h.22l.21,0v1.56a1.77,1.77,0,0,0-.29-.07,2.07,2.07,0,0,0-.35,0,1.88,1.88,0,0,0-1.39.53,2.06,2.06,0,0,0-.52,1.5v4.1h-1.5Z"/><path d="M60.73,433.57h-1v-1.24h1V430.4h1.49v1.93H64v1.24H62.22v3.93a1.1,1.1,0,0,0,.27.83,1.13,1.13,0,0,0,.8.26l.35,0,.38-.05v1.33l-.46.07a3,3,0,0,1-.54,0,2.38,2.38,0,0,1-1.68-.56,2.35,2.35,0,0,1-.61-1.82Z"/><path d="M66.57,437.38a1.4,1.4,0,0,0,.56,1.14,2.25,2.25,0,0,0,1.23.31,1.8,1.8,0,0,0,1-.25.87.87,0,0,0,.36-.76.74.74,0,0,0-.32-.66,2.7,2.7,0,0,0-.82-.35l-1.06-.24a5,5,0,0,1-1.06-.33,2.23,2.23,0,0,1-.82-.64,1.85,1.85,0,0,1-.32-1.15,2.17,2.17,0,0,1,.17-.89,1.88,1.88,0,0,1,.53-.72,2.41,2.41,0,0,1,.87-.47,3.8,3.8,0,0,1,1.23-.18,3.19,3.19,0,0,1,2.13.65,2.48,2.48,0,0,1,.82,1.89H69.66a1.45,1.45,0,0,0-.44-1.06,1.6,1.6,0,0,0-1.06-.33,2.22,2.22,0,0,0-.62.08,1,1,0,0,0-.4.23,1,1,0,0,0-.21.33,1.24,1.24,0,0,0-.06.37.69.69,0,0,0,.33.62,3,3,0,0,0,.81.34c.32.09.67.17,1.06.25a4.8,4.8,0,0,1,1.05.35,2.14,2.14,0,0,1,.81.65,1.88,1.88,0,0,1,.33,1.16,2,2,0,0,1-.73,1.63,3.35,3.35,0,0,1-2.19.61,3.85,3.85,0,0,1-2.32-.62,2.46,2.46,0,0,1-.9-2Z"/><path d="M83.7,437.26a3.08,3.08,0,0,1-.28,1.09,2.6,2.6,0,0,1-.66.85,3.24,3.24,0,0,1-1,.56,4.16,4.16,0,0,1-1.32.2,4,4,0,0,1-1.59-.28,2.82,2.82,0,0,1-1.09-.79,3.31,3.31,0,0,1-.64-1.22,6.07,6.07,0,0,1-.2-1.59,5.25,5.25,0,0,1,.22-1.58,3.29,3.29,0,0,1,.65-1.23,3.07,3.07,0,0,1,1.1-.8,3.94,3.94,0,0,1,1.53-.28,3.81,3.81,0,0,1,1.51.27,2.61,2.61,0,0,1,1,.77,3.22,3.22,0,0,1,.58,1.22,6.69,6.69,0,0,1,.18,1.62v.24H78.43a2.94,2.94,0,0,0,.54,1.84,1.73,1.73,0,0,0,1.39.61,2,2,0,0,0,1.28-.39,1.58,1.58,0,0,0,.57-1.11Zm-1.47-1.93a2.25,2.25,0,0,0-.49-1.41,1.6,1.6,0,0,0-1.32-.55,1.85,1.85,0,0,0-1.34.48,2.31,2.31,0,0,0-.62,1.48Z"/><path d="M85.86,433.57h-1v-1.24h1V430.4h1.49v1.93H89.1v1.24H87.35v3.93a.94.94,0,0,0,1.07,1.09l.35,0,.38-.05v1.33l-.46.07a3,3,0,0,1-.54,0,2.38,2.38,0,0,1-1.68-.56,2.35,2.35,0,0,1-.61-1.82Z"/><path d="M99.28,438.77h0a2.79,2.79,0,0,1-1,.86,3.46,3.46,0,0,1-1.59.33,3,3,0,0,1-1-.16,2,2,0,0,1-.73-.42,1.6,1.6,0,0,1-.44-.63,2,2,0,0,1-.15-.77,2,2,0,0,1,.36-1.27,2.31,2.31,0,0,1,.92-.67,4.58,4.58,0,0,1,1.21-.33l1.23-.2.67-.12a1.55,1.55,0,0,0,.39-.14.36.36,0,0,0,.17-.22.93.93,0,0,0,0-.32,1.27,1.27,0,0,0-.39-1,1.64,1.64,0,0,0-1.15-.37,1.85,1.85,0,0,0-1.17.33,1.48,1.48,0,0,0-.49,1.07H94.64a2.92,2.92,0,0,1,.84-1.9,3.16,3.16,0,0,1,2.27-.69,2.63,2.63,0,0,1,3,3v4.63H99.28Zm0-2.6a10.61,10.61,0,0,1-1.2.24,11.09,11.09,0,0,0-1.14.21,2.31,2.31,0,0,0-.85.39.87.87,0,0,0-.32.73.92.92,0,0,0,.37.78,1.49,1.49,0,0,0,1,.3,2.65,2.65,0,0,0,.87-.14,2.12,2.12,0,0,0,.69-.4,1.8,1.8,0,0,0,.46-.63,2,2,0,0,0,.16-.82Z"/><path d="M103.06,432.33h1.5v1.16h0a2.85,2.85,0,0,1,.86-.95,2.1,2.1,0,0,1,1.23-.35h.21l.22,0v1.56a1.77,1.77,0,0,0-.29-.07,2.07,2.07,0,0,0-.35,0,1.88,1.88,0,0,0-1.39.53,2.06,2.06,0,0,0-.52,1.5v4.1h-1.5Z"/><path d="M108.68,432.33h1.49v1.16h0a2.85,2.85,0,0,1,.86-.95,2.1,2.1,0,0,1,1.23-.35h.22l.21,0v1.56a1.77,1.77,0,0,0-.29-.07,2.07,2.07,0,0,0-.35,0,1.88,1.88,0,0,0-1.39.53,2.06,2.06,0,0,0-.52,1.5v4.1h-1.49Z"/><path d="M115,431a.92.92,0,0,1-1-.95,1,1,0,0,1,.26-.7.9.9,0,0,1,.69-.27.94.94,0,0,1,1,1,.91.91,0,0,1-.28.67A.94.94,0,0,1,115,431Zm-.74,1.31h1.49v7.49h-1.49Z"/><path d="M117.23,432.33h1.6l2,5.78,2-5.78h1.57l-2.87,7.49H120.1Z"/><path d="M132.2,437.26a2.88,2.88,0,0,1-.28,1.09,2.6,2.6,0,0,1-.66.85,3.13,3.13,0,0,1-1,.56,4.07,4.07,0,0,1-1.32.2,4,4,0,0,1-1.58-.28,2.82,2.82,0,0,1-1.09-.79,3.31,3.31,0,0,1-.64-1.22,6.07,6.07,0,0,1-.2-1.59,5.25,5.25,0,0,1,.22-1.58,3.29,3.29,0,0,1,.65-1.23,3,3,0,0,1,1.1-.8,3.94,3.94,0,0,1,1.53-.28,3.72,3.72,0,0,1,1.5.27,2.57,2.57,0,0,1,1,.77,3.22,3.22,0,0,1,.58,1.22,6.69,6.69,0,0,1,.18,1.62v.24h-5.28a2.94,2.94,0,0,0,.54,1.84,1.73,1.73,0,0,0,1.39.61,2,2,0,0,0,1.27-.39,1.55,1.55,0,0,0,.58-1.11Zm-1.47-1.93a2.18,2.18,0,0,0-.48-1.41,1.6,1.6,0,0,0-1.32-.55,1.89,1.89,0,0,0-1.35.48,2.36,2.36,0,0,0-.61,1.48Zm-1-5.87h1.83l-2.08,2h-1.18Z"/><path d="M140.64,437.26a3.08,3.08,0,0,1-.28,1.09,2.6,2.6,0,0,1-.66.85,3.13,3.13,0,0,1-1,.56,4.16,4.16,0,0,1-1.32.2,4,4,0,0,1-1.58-.28,2.85,2.85,0,0,1-1.1-.79,3.15,3.15,0,0,1-.63-1.22,5.67,5.67,0,0,1-.2-1.59,5.59,5.59,0,0,1,.21-1.58,3.17,3.17,0,0,1,.66-1.23,3,3,0,0,1,1.09-.8,4,4,0,0,1,1.54-.28,3.79,3.79,0,0,1,1.5.27,2.61,2.61,0,0,1,1,.77,3.08,3.08,0,0,1,.58,1.22,6.69,6.69,0,0,1,.18,1.62v.24h-5.27a2.88,2.88,0,0,0,.53,1.84,1.75,1.75,0,0,0,1.39.61,2,2,0,0,0,1.28-.39,1.59,1.59,0,0,0,.58-1.11Zm-1.47-1.93a2.3,2.3,0,0,0-.48-1.41,1.61,1.61,0,0,0-1.32-.55,1.87,1.87,0,0,0-1.35.48,2.36,2.36,0,0,0-.62,1.48Z"/><path d="M143.7,437.38a1.38,1.38,0,0,0,.56,1.14,2.2,2.2,0,0,0,1.23.31,1.78,1.78,0,0,0,1-.25.85.85,0,0,0,.37-.76.75.75,0,0,0-.33-.66,2.7,2.7,0,0,0-.82-.35l-1.05-.24a5,5,0,0,1-1.06-.33,2.15,2.15,0,0,1-.82-.64,1.79,1.79,0,0,1-.33-1.15,2.35,2.35,0,0,1,.17-.89,1.88,1.88,0,0,1,.53-.72,2.5,2.5,0,0,1,.87-.47,3.8,3.8,0,0,1,1.23-.18,3.22,3.22,0,0,1,2.14.65,2.44,2.44,0,0,1,.81,1.89h-1.45a1.41,1.41,0,0,0-.44-1.06,1.58,1.58,0,0,0-1.06-.33,2.15,2.15,0,0,0-.61.08,1,1,0,0,0-.4.23,1,1,0,0,0-.22.33,1.24,1.24,0,0,0-.06.37.69.69,0,0,0,.33.62,3,3,0,0,0,.81.34c.33.09.68.17,1.06.25a4.88,4.88,0,0,1,1.06.35,2.22,2.22,0,0,1,.81.65,1.88,1.88,0,0,1,.33,1.16,2,2,0,0,1-.74,1.63,3.35,3.35,0,0,1-2.19.61,3.8,3.8,0,0,1-2.31-.62,2.44,2.44,0,0,1-.91-2Z"/><path d="M18.59,450.33h1.5v1.16h0a2.85,2.85,0,0,1,.92-.94,2.72,2.72,0,0,1,1.49-.36,3,3,0,0,1,1.39.3,2.85,2.85,0,0,1,1,.8,3.58,3.58,0,0,1,.61,1.22,6,6,0,0,1,.2,1.56,5.2,5.2,0,0,1-.22,1.58,3.7,3.7,0,0,1-.62,1.24,2.75,2.75,0,0,1-1,.79,3.17,3.17,0,0,1-1.37.28,2.7,2.7,0,0,1-1.46-.36,2.82,2.82,0,0,1-.93-1h0v3.93h-1.5Zm3.51,6.49a1.84,1.84,0,0,0,1.53-.71,3.24,3.24,0,0,0,.56-2,3.29,3.29,0,0,0-.54-2,1.86,1.86,0,0,0-1.56-.72,1.69,1.69,0,0,0-1.53.73,4.41,4.41,0,0,0,0,4A1.75,1.75,0,0,0,22.1,456.82Z"/><path d="M32,456.77h0a2.91,2.91,0,0,1-1,.86,3.42,3.42,0,0,1-1.58.33,3,3,0,0,1-1-.16,2,2,0,0,1-.74-.42,1.84,1.84,0,0,1-.44-.63A2,2,0,0,1,27,456a2,2,0,0,1,.36-1.27,2.35,2.35,0,0,1,.91-.67,4.66,4.66,0,0,1,1.22-.33l1.23-.2.67-.12a1.55,1.55,0,0,0,.39-.14A.4.4,0,0,0,32,453a1,1,0,0,0,0-.32,1.3,1.3,0,0,0-.38-1,1.65,1.65,0,0,0-1.15-.37,1.85,1.85,0,0,0-1.17.33,1.48,1.48,0,0,0-.49,1.07H27.37a2.92,2.92,0,0,1,.84-1.9,3.16,3.16,0,0,1,2.27-.69,3.05,3.05,0,0,1,2.28.75,3,3,0,0,1,.74,2.25v4.63H32Zm0-2.6a11.58,11.58,0,0,1-1.2.24,10.61,10.61,0,0,0-1.14.21,2.31,2.31,0,0,0-.85.39.85.85,0,0,0-.33.73.93.93,0,0,0,.38.78,1.45,1.45,0,0,0,1,.3,2.69,2.69,0,0,0,.87-.14,2.23,2.23,0,0,0,.69-.4,1.8,1.8,0,0,0,.46-.63,2.14,2.14,0,0,0,.16-.82Z"/><path d="M35.79,450.33h1.5v1.16h0a2.87,2.87,0,0,1,.87-.95,2.1,2.1,0,0,1,1.23-.35h.21l.22,0v1.56a1.67,1.67,0,0,0-.3-.07,2,2,0,0,0-.35,0,1.85,1.85,0,0,0-1.38.53,2.06,2.06,0,0,0-.52,1.5v4.1h-1.5Z"/><path d="M50.71,456.62h0a3.17,3.17,0,0,1-.92,1,2.64,2.64,0,0,1-1.5.37,3.33,3.33,0,0,1-1.38-.28,2.77,2.77,0,0,1-1-.81,3.71,3.71,0,0,1-.6-1.23,5.74,5.74,0,0,1-.2-1.54,5.67,5.67,0,0,1,.21-1.59,3.55,3.55,0,0,1,.61-1.23,2.92,2.92,0,0,1,1-.8,3.09,3.09,0,0,1,1.36-.29,2.71,2.71,0,0,1,1.47.36,3.09,3.09,0,0,1,.93.94h0v-4h1.5v10.36h-1.5Zm-2,.2a1.71,1.71,0,0,0,1.53-.72,3.58,3.58,0,0,0,.49-2,3.46,3.46,0,0,0-.5-2,1.72,1.72,0,0,0-1.53-.72,1.84,1.84,0,0,0-1.53.72,4,4,0,0,0,0,4A1.82,1.82,0,0,0,48.71,456.82Z"/><path d="M60.93,455.26a2.88,2.88,0,0,1-.28,1.09,2.6,2.6,0,0,1-.66.85,3.13,3.13,0,0,1-1,.56,4.16,4.16,0,0,1-1.32.2,4,4,0,0,1-1.58-.28,2.82,2.82,0,0,1-1.09-.79,3.17,3.17,0,0,1-.64-1.22,6.07,6.07,0,0,1-.2-1.59,5.59,5.59,0,0,1,.21-1.58,3.46,3.46,0,0,1,.66-1.23,3,3,0,0,1,1.09-.8,4,4,0,0,1,1.54-.28,3.72,3.72,0,0,1,1.5.27,2.47,2.47,0,0,1,1,.77,3.08,3.08,0,0,1,.58,1.22,6.21,6.21,0,0,1,.19,1.62v.24H55.67a2.94,2.94,0,0,0,.54,1.84,1.73,1.73,0,0,0,1.39.61,2,2,0,0,0,1.27-.39,1.55,1.55,0,0,0,.58-1.11Zm-1.47-1.93a2.3,2.3,0,0,0-.48-1.41,1.6,1.6,0,0,0-1.32-.55,1.89,1.89,0,0,0-1.35.48,2.3,2.3,0,0,0-.61,1.48Zm-1-5.87h1.83l-2.08,2H57Z"/><path d="M63.05,450.33h1.5v1.16h0a3,3,0,0,1,.92-.94,2.72,2.72,0,0,1,1.49-.36,3,3,0,0,1,1.39.3,2.85,2.85,0,0,1,1,.8,3.58,3.58,0,0,1,.61,1.22,6,6,0,0,1,.2,1.56,5.2,5.2,0,0,1-.22,1.58,3.7,3.7,0,0,1-.62,1.24,2.75,2.75,0,0,1-1,.79A3.12,3.12,0,0,1,67,458a2.71,2.71,0,0,1-1.47-.36,2.82,2.82,0,0,1-.93-1h0v3.93h-1.5Zm3.52,6.49a1.84,1.84,0,0,0,1.52-.71,3.24,3.24,0,0,0,.56-2,3.29,3.29,0,0,0-.54-2,1.84,1.84,0,0,0-1.56-.72,1.69,1.69,0,0,0-1.53.73,3.65,3.65,0,0,0-.48,2,3.6,3.6,0,0,0,.48,2A1.76,1.76,0,0,0,66.57,456.82Z"/><path d="M76.46,456.77h0a2.83,2.83,0,0,1-1,.86,3.42,3.42,0,0,1-1.58.33,3,3,0,0,1-1-.16,2.14,2.14,0,0,1-.74-.42,1.84,1.84,0,0,1-.44-.63,2.23,2.23,0,0,1-.14-.77,2,2,0,0,1,.36-1.27,2.31,2.31,0,0,1,.92-.67,4.48,4.48,0,0,1,1.21-.33l1.23-.2.67-.12a1.55,1.55,0,0,0,.39-.14.36.36,0,0,0,.17-.22,1,1,0,0,0,0-.32,1.27,1.27,0,0,0-.38-1,1.64,1.64,0,0,0-1.15-.37,1.85,1.85,0,0,0-1.17.33,1.48,1.48,0,0,0-.49,1.07H71.83a2.92,2.92,0,0,1,.84-1.9,3.16,3.16,0,0,1,2.27-.69,3.1,3.1,0,0,1,2.29.75,3.06,3.06,0,0,1,.73,2.25v4.63h-1.5Zm0-2.6a11.07,11.07,0,0,1-1.2.24,11.09,11.09,0,0,0-1.14.21,2.31,2.31,0,0,0-.85.39.85.85,0,0,0-.33.73.93.93,0,0,0,.38.78,1.47,1.47,0,0,0,1,.3,2.65,2.65,0,0,0,.87-.14,2.12,2.12,0,0,0,.69-.4,1.8,1.8,0,0,0,.46-.63,2.14,2.14,0,0,0,.16-.82Z"/><path d="M80.25,450.33h1.5v1.16h0a2.75,2.75,0,0,1,.86-.95,2.1,2.1,0,0,1,1.23-.35h.21l.22,0v1.56a1.67,1.67,0,0,0-.3-.07,2,2,0,0,0-.34,0,1.86,1.86,0,0,0-1.39.53,2.06,2.06,0,0,0-.52,1.5v4.1h-1.5Z"/><path d="M85.9,451.57h-1v-1.24h1V448.4h1.5v1.93h1.75v1.24H87.4v3.93a.94.94,0,0,0,1.07,1.09l.35,0,.38-.05v1.33l-.47.07a2.86,2.86,0,0,1-.53,0,2.43,2.43,0,0,1-1.69-.56,2.39,2.39,0,0,1-.61-1.82Z"/><path d="M97.13,455.26a3.08,3.08,0,0,1-.28,1.09,2.6,2.6,0,0,1-.66.85,3.24,3.24,0,0,1-1,.56,4.16,4.16,0,0,1-1.32.2,4,4,0,0,1-1.58-.28,2.85,2.85,0,0,1-1.1-.79,3.15,3.15,0,0,1-.63-1.22,5.67,5.67,0,0,1-.21-1.59,5.58,5.58,0,0,1,.22-1.58,3.17,3.17,0,0,1,.66-1.23,3,3,0,0,1,1.09-.8,4,4,0,0,1,1.53-.28,3.81,3.81,0,0,1,1.51.27,2.61,2.61,0,0,1,1,.77,3.08,3.08,0,0,1,.58,1.22,6.69,6.69,0,0,1,.18,1.62v.24H91.87a2.88,2.88,0,0,0,.53,1.84,1.75,1.75,0,0,0,1.39.61,2,2,0,0,0,1.28-.39,1.59,1.59,0,0,0,.58-1.11Zm-1.47-1.93a2.3,2.3,0,0,0-.48-1.41,1.63,1.63,0,0,0-1.33-.55,1.85,1.85,0,0,0-1.34.48,2.36,2.36,0,0,0-.62,1.48Z"/><path d="M99.25,450.33h1.5v1.18h0a2.93,2.93,0,0,1,.84-1,2.29,2.29,0,0,1,1.35-.36,2.35,2.35,0,0,1,1.38.36,2.06,2.06,0,0,1,.75,1h0a2.72,2.72,0,0,1,.92-1,2.56,2.56,0,0,1,1.4-.36,2.18,2.18,0,0,1,1.8.7,3.19,3.19,0,0,1,.56,2v4.9h-1.49v-4.49a2.49,2.49,0,0,0-.32-1.41,1.14,1.14,0,0,0-1-.44,1.63,1.63,0,0,0-1.23.48,2,2,0,0,0-.48,1.47v4.39h-1.5v-4.49a2.73,2.73,0,0,0-.28-1.39,1.07,1.07,0,0,0-1-.46,1.55,1.55,0,0,0-1.28.55,2.29,2.29,0,0,0-.45,1.51v4.28h-1.5Z"/><path d="M118.48,455.26a2.88,2.88,0,0,1-.28,1.09,2.57,2.57,0,0,1-.65.85,3.29,3.29,0,0,1-1,.56,4.07,4.07,0,0,1-1.32.2,4,4,0,0,1-1.58-.28,2.82,2.82,0,0,1-1.09-.79,3.31,3.31,0,0,1-.64-1.22,6.07,6.07,0,0,1-.2-1.59,5.25,5.25,0,0,1,.22-1.58,3.29,3.29,0,0,1,.65-1.23,3.07,3.07,0,0,1,1.1-.8,3.94,3.94,0,0,1,1.53-.28,3.72,3.72,0,0,1,1.5.27,2.57,2.57,0,0,1,1,.77,3.22,3.22,0,0,1,.58,1.22,6.69,6.69,0,0,1,.18,1.62v.24h-5.28a2.94,2.94,0,0,0,.54,1.84,1.73,1.73,0,0,0,1.39.61,2,2,0,0,0,1.27-.39,1.55,1.55,0,0,0,.58-1.11ZM117,453.33a2.18,2.18,0,0,0-.48-1.41,1.6,1.6,0,0,0-1.32-.55,1.89,1.89,0,0,0-1.35.48,2.36,2.36,0,0,0-.61,1.48Z"/><path d="M120.6,450.33h1.5v1.18h0a2.82,2.82,0,0,1,.94-1,2.93,2.93,0,0,1,1.51-.35,2.25,2.25,0,0,1,1.9.72,3.19,3.19,0,0,1,.55,2v4.9h-1.5v-4.49a2.42,2.42,0,0,0-.33-1.39,1.26,1.26,0,0,0-1.12-.46,1.92,1.92,0,0,0-1.45.55,2.1,2.1,0,0,0-.53,1.51v4.28h-1.5Z"/><path d="M129.45,451.57h-1v-1.24h1V448.4H131v1.93h1.75v1.24H131v3.93a1.15,1.15,0,0,0,.26.83,1.13,1.13,0,0,0,.8.26l.36,0,.37-.05v1.33l-.46.07a2.93,2.93,0,0,1-.53,0,2.41,2.41,0,0,1-1.69-.56,2.35,2.35,0,0,1-.61-1.82Z"/><path d="M18.69,474.54H21V467.3l-2.25,1.44-.69-1.09,3.29-2.19h1.22v9.08h2v1.28h-5.9Z"/><path d="M27.59,472.68a2.52,2.52,0,0,0,.57,1.49,1.75,1.75,0,0,0,1.36.53,2.13,2.13,0,0,0,.88-.18,1.68,1.68,0,0,0,.71-.65,3.74,3.74,0,0,0,.49-1.29,10.74,10.74,0,0,0,.17-2.08,2.21,2.21,0,0,1-1,1.05,3.32,3.32,0,0,1-1.6.37,3.63,3.63,0,0,1-1.24-.21,2.8,2.8,0,0,1-1-.6,2.88,2.88,0,0,1-.69-1,3.47,3.47,0,0,1-.25-1.38,3.84,3.84,0,0,1,.24-1.4,3.06,3.06,0,0,1,.7-1.07,3,3,0,0,1,1.11-.69,4,4,0,0,1,1.46-.25,3.86,3.86,0,0,1,1.55.3,2.76,2.76,0,0,1,1.17.93,4.5,4.5,0,0,1,.73,1.62,9.58,9.58,0,0,1,.26,2.37,7.12,7.12,0,0,1-1,4.09A3.24,3.24,0,0,1,29.42,476a3.35,3.35,0,0,1-2.41-.85,3.42,3.42,0,0,1-1-2.43Zm1.89-2a1.85,1.85,0,0,0,1.41-.55,1.93,1.93,0,0,0,.53-1.43,2.28,2.28,0,0,0-.14-.84,2.08,2.08,0,0,0-.39-.68,1.75,1.75,0,0,0-.63-.44,1.92,1.92,0,0,0-.81-.16,2,2,0,0,0-.79.15,1.78,1.78,0,0,0-.61.43,2,2,0,0,0-.41.66,2.49,2.49,0,0,0-.13.83A2,2,0,0,0,28,470.1,1.86,1.86,0,0,0,29.48,470.67Z"/><path d="M37.72,476a3.44,3.44,0,0,1-1.44-.3,3.07,3.07,0,0,1-1.16-1,4.88,4.88,0,0,1-.79-1.65,10.6,10.6,0,0,1,0-4.84,5,5,0,0,1,.79-1.65,3.07,3.07,0,0,1,1.16-.95,3.44,3.44,0,0,1,1.44-.3,3.49,3.49,0,0,1,1.43.3,3.18,3.18,0,0,1,1.17.95,4.78,4.78,0,0,1,.78,1.65,10.24,10.24,0,0,1,0,4.84,4.69,4.69,0,0,1-.78,1.65,3.18,3.18,0,0,1-1.17,1A3.49,3.49,0,0,1,37.72,476Zm0-1.27a1.78,1.78,0,0,0,.78-.18,1.66,1.66,0,0,0,.67-.65,4.09,4.09,0,0,0,.46-1.24,9.92,9.92,0,0,0,.17-2,9.74,9.74,0,0,0-.17-2,4.26,4.26,0,0,0-.46-1.25,1.69,1.69,0,0,0-.67-.64,1.79,1.79,0,0,0-.78-.19,1.85,1.85,0,0,0-.8.19,1.67,1.67,0,0,0-.66.64,3.76,3.76,0,0,0-.46,1.25,9.74,9.74,0,0,0-.17,2,9.92,9.92,0,0,0,.17,2,3.62,3.62,0,0,0,.46,1.24,1.64,1.64,0,0,0,.66.65A1.84,1.84,0,0,0,37.72,474.69Z"/><path d="M43.66,472.52a2.44,2.44,0,0,0,.68,1.64,2.3,2.3,0,0,0,1.6.54,2.14,2.14,0,0,0,1.48-.47,1.69,1.69,0,0,0,.51-1.31,1.71,1.71,0,0,0-1.82-1.83H44.72v-1.23h1a1.58,1.58,0,0,0,1.24-.48,1.7,1.7,0,0,0,.44-1.19,1.64,1.64,0,0,0-.43-1.14,1.59,1.59,0,0,0-1.23-.47,1.64,1.64,0,0,0-1.3.53,2.55,2.55,0,0,0-.54,1.51H42.35a3.36,3.36,0,0,1,1-2.45,3.49,3.49,0,0,1,2.48-.85,4.2,4.2,0,0,1,1.34.2,3,3,0,0,1,1,.54,2.35,2.35,0,0,1,.61.82,2.67,2.67,0,0,1,.21,1.06,2.46,2.46,0,0,1-.34,1.33,2.73,2.73,0,0,1-1,.93,2.8,2.8,0,0,1,1.33,1,2.86,2.86,0,0,1,.47,1.68,3.35,3.35,0,0,1-.23,1.25,2.65,2.65,0,0,1-.7,1,3.27,3.27,0,0,1-1.14.61,5.07,5.07,0,0,1-1.58.22,4.69,4.69,0,0,1-1.63-.25,3,3,0,0,1-1.12-.7,3.12,3.12,0,0,1-.67-1.09,5,5,0,0,1-.26-1.4Z"/><path d="M54.75,470.71h5.61v1.22H54.75Z"/><path d="M66.51,474.54h2.31V467.3l-2.25,1.44-.69-1.09,3.3-2.19h1.21v9.08h2v1.28h-5.9Z"/><path d="M75.41,472.68a2.53,2.53,0,0,0,.58,1.49,1.73,1.73,0,0,0,1.36.53,2.16,2.16,0,0,0,.88-.18,1.74,1.74,0,0,0,.71-.65,4,4,0,0,0,.48-1.29,10,10,0,0,0,.17-2.08,2.24,2.24,0,0,1-1,1.05,3.36,3.36,0,0,1-1.61.37,3.63,3.63,0,0,1-1.24-.21,2.76,2.76,0,0,1-1.72-1.6,3.65,3.65,0,0,1-.25-1.38,3.84,3.84,0,0,1,.25-1.4,2.91,2.91,0,0,1,.69-1.07,3.16,3.16,0,0,1,1.11-.69,4,4,0,0,1,1.47-.25,3.81,3.81,0,0,1,1.54.3,2.76,2.76,0,0,1,1.17.93,4.5,4.5,0,0,1,.74,1.62,9.62,9.62,0,0,1,.25,2.37,7,7,0,0,1-1,4.09A3.23,3.23,0,0,1,77.24,476a3.32,3.32,0,0,1-2.4-.85,3.43,3.43,0,0,1-1-2.43Zm1.89-2a1.88,1.88,0,0,0,1.42-.55,2,2,0,0,0,.53-1.43,2.51,2.51,0,0,0-.14-.84,2.3,2.3,0,0,0-.4-.68,1.71,1.71,0,0,0-.62-.44,2,2,0,0,0-.82-.16,2,2,0,0,0-.79.15,1.88,1.88,0,0,0-.61.43,2,2,0,0,0-.4.66,2.49,2.49,0,0,0-.14.83,2.08,2.08,0,0,0,.53,1.46A1.89,1.89,0,0,0,77.3,470.67Z"/><path d="M83.35,472.52a2.49,2.49,0,0,0,.69,1.64,2.3,2.3,0,0,0,1.6.54,2.11,2.11,0,0,0,1.47-.47,1.66,1.66,0,0,0,.52-1.31,1.83,1.83,0,0,0-.49-1.33,1.8,1.8,0,0,0-1.33-.5H84.42v-1.23h1a1.61,1.61,0,0,0,1.24-.48,1.69,1.69,0,0,0,.43-1.19,1.67,1.67,0,0,0-.42-1.14,1.61,1.61,0,0,0-1.24-.47,1.64,1.64,0,0,0-1.29.53,2.55,2.55,0,0,0-.55,1.51H82a3.44,3.44,0,0,1,1-2.45,3.52,3.52,0,0,1,2.49-.85,4.13,4.13,0,0,1,1.33.2,2.8,2.8,0,0,1,1,.54,2.23,2.23,0,0,1,.61.82,2.68,2.68,0,0,1,.22,1.06,2.55,2.55,0,0,1-.34,1.33,2.85,2.85,0,0,1-1,.93,2.82,2.82,0,0,1,1.34,1,2.94,2.94,0,0,1,.47,1.68,3.17,3.17,0,0,1-.24,1.25,2.62,2.62,0,0,1-.69,1,3.23,3.23,0,0,1-1.15.61,5,5,0,0,1-1.57.22,4.62,4.62,0,0,1-1.63-.25,2.93,2.93,0,0,1-1.12-.7,3,3,0,0,1-.67-1.09,5,5,0,0,1-.27-1.4Z"/><path d="M91.67,472.68a2.52,2.52,0,0,0,.57,1.49,1.75,1.75,0,0,0,1.36.53,2.13,2.13,0,0,0,.88-.18,1.68,1.68,0,0,0,.71-.65,3.74,3.74,0,0,0,.49-1.29,10.74,10.74,0,0,0,.17-2.08,2.21,2.21,0,0,1-1,1.05,3.32,3.32,0,0,1-1.6.37,3.63,3.63,0,0,1-1.24-.21,2.8,2.8,0,0,1-1-.6,2.88,2.88,0,0,1-.69-1,3.47,3.47,0,0,1-.25-1.38,3.84,3.84,0,0,1,.24-1.4,3.06,3.06,0,0,1,.7-1.07,3,3,0,0,1,1.11-.69,4,4,0,0,1,1.46-.25,3.86,3.86,0,0,1,1.55.3,2.76,2.76,0,0,1,1.17.93,4.5,4.5,0,0,1,.73,1.62,9.58,9.58,0,0,1,.26,2.37,7.12,7.12,0,0,1-1,4.09A3.24,3.24,0,0,1,93.5,476a3.35,3.35,0,0,1-2.41-.85,3.42,3.42,0,0,1-1-2.43Zm1.89-2a1.85,1.85,0,0,0,1.41-.55,1.93,1.93,0,0,0,.53-1.43,2.28,2.28,0,0,0-.14-.84,2.08,2.08,0,0,0-.39-.68,1.75,1.75,0,0,0-.63-.44,1.92,1.92,0,0,0-.81-.16,2,2,0,0,0-.79.15,1.78,1.78,0,0,0-.61.43,2,2,0,0,0-.41.66,2.49,2.49,0,0,0-.13.83,2,2,0,0,0,.53,1.46A1.86,1.86,0,0,0,93.56,470.67Z"/><path d="M35.91,507.12h1.65V502L36,503l-.49-.78,2.35-1.57h.87v6.49h1.44V508H35.91Z"/><path d="M44.25,504.38h4v.88h-4Z"/><path d="M52.65,507.12H54.3V502l-1.61,1-.49-.78,2.35-1.57h.87v6.49h1.44V508H52.65Z"/><path d="M60.44,508.13a2.53,2.53,0,0,1-1-.21,2.28,2.28,0,0,1-.83-.67,3.5,3.5,0,0,1-.56-1.18,6.28,6.28,0,0,1-.2-1.73,6.18,6.18,0,0,1,.2-1.73,3.32,3.32,0,0,1,.56-1.18,2.31,2.31,0,0,1,.83-.68,2.61,2.61,0,0,1,2.05,0,2.16,2.16,0,0,1,.83.68,3.16,3.16,0,0,1,.56,1.18,6.15,6.15,0,0,1,.21,1.73,6.25,6.25,0,0,1-.21,1.73,3.32,3.32,0,0,1-.56,1.18,2.13,2.13,0,0,1-.83.67A2.52,2.52,0,0,1,60.44,508.13Zm0-.9a1.39,1.39,0,0,0,.56-.13,1.15,1.15,0,0,0,.47-.46,2.77,2.77,0,0,0,.33-.89,6.26,6.26,0,0,0,.13-1.41,6.15,6.15,0,0,0-.13-1.41,2.68,2.68,0,0,0-.33-.89,1.15,1.15,0,0,0-.47-.46,1.21,1.21,0,0,0-1.61.46,2.93,2.93,0,0,0-.32.89,6.85,6.85,0,0,0-.12,1.41,7,7,0,0,0,.12,1.41,3,3,0,0,0,.32.89,1.23,1.23,0,0,0,.48.46A1.4,1.4,0,0,0,60.44,507.23Z"/><path d="M35.91,528.57h1.65V523.4l-1.61,1-.49-.79,2.35-1.56h.87v6.49h1.44v.91H35.91Z"/><path d="M41.71,528.57h1.65V523.4l-1.6,1-.5-.79,2.36-1.56h.87v6.49h1.44v.91H41.71Z"/><path d="M50.06,525.83h4v.88h-4Z"/><path d="M58.06,528.59q.82-.83,1.5-1.44c.45-.42.82-.79,1.14-1.13a5.87,5.87,0,0,0,.72-1,1.88,1.88,0,0,0,.26-.94,1.29,1.29,0,0,0-.31-.88,1.19,1.19,0,0,0-.9-.34,1.3,1.3,0,0,0-1,.38,1.66,1.66,0,0,0-.42,1.12H58a3,3,0,0,1,.21-1,2.26,2.26,0,0,1,.51-.76,2.14,2.14,0,0,1,.76-.48,2.67,2.67,0,0,1,1-.18,3.25,3.25,0,0,1,1,.16,2,2,0,0,1,.73.43,1.78,1.78,0,0,1,.44.67,2.61,2.61,0,0,1,.14.85,2.27,2.27,0,0,1-.28,1.12,4.87,4.87,0,0,1-.74,1c-.31.35-.66.71-1.06,1.08s-.82.78-1.25,1.23h3.37v.91H58.06Z"/><path d="M66.24,529.58a2.48,2.48,0,0,1-1-.21,2.23,2.23,0,0,1-.83-.68,3.24,3.24,0,0,1-.56-1.18,7.23,7.23,0,0,1,0-3.46,3.32,3.32,0,0,1,.56-1.18,2.2,2.2,0,0,1,.83-.67,2.47,2.47,0,0,1,2,0,2.23,2.23,0,0,1,.84.67,3.5,3.5,0,0,1,.56,1.18,7.23,7.23,0,0,1,0,3.46,3.41,3.41,0,0,1-.56,1.18,2.26,2.26,0,0,1-.84.68A2.48,2.48,0,0,1,66.24,529.58Zm0-.91a1.21,1.21,0,0,0,.56-.13,1.2,1.2,0,0,0,.48-.45,2.74,2.74,0,0,0,.33-.9,8.29,8.29,0,0,0,0-2.81,2.68,2.68,0,0,0-.33-.89,1.26,1.26,0,0,0-.48-.47,1.35,1.35,0,0,0-.56-.13,1.39,1.39,0,0,0-.56.13,1.2,1.2,0,0,0-.48.47,2.68,2.68,0,0,0-.33.89,8.29,8.29,0,0,0,0,2.81,2.74,2.74,0,0,0,.33.9,1.14,1.14,0,0,0,.48.45A1.24,1.24,0,0,0,66.24,528.67Z"/><path d="M35.51,549.69q.83-.83,1.5-1.44c.45-.41.83-.79,1.14-1.13a5.44,5.44,0,0,0,.72-1,1.93,1.93,0,0,0,.26-.94,1.23,1.23,0,0,0-.31-.88,1.15,1.15,0,0,0-.9-.34,1.29,1.29,0,0,0-1,.37,1.68,1.68,0,0,0-.42,1.12H35.41a3,3,0,0,1,.21-1,2.49,2.49,0,0,1,.51-.75,2.31,2.31,0,0,1,.76-.49,2.89,2.89,0,0,1,1-.17,3.22,3.22,0,0,1,1,.15,2,2,0,0,1,.73.44,1.67,1.67,0,0,1,.44.67,2.57,2.57,0,0,1,.14.85,2.3,2.3,0,0,1-.28,1.12,4.77,4.77,0,0,1-.74,1c-.31.35-.66.7-1.06,1.07s-.82.78-1.25,1.23h3.37v.92H35.51Z"/><path d="M41.71,549.67h1.65V544.5l-1.6,1-.5-.78,2.36-1.56h.87v6.48h1.44v.92H41.71Z"/><path d="M50.06,546.94h4v.87h-4Z"/><path d="M57.75,547.89l3-4.7H62V548h1.07v.93H62v1.68H60.93v-1.68H57.75Zm3.18.09v-3.46L58.68,548Z"/><path d="M66.24,550.69a2.34,2.34,0,0,1-1-.22,2.2,2.2,0,0,1-.83-.67,3.32,3.32,0,0,1-.56-1.18,7.23,7.23,0,0,1,0-3.46,3.24,3.24,0,0,1,.56-1.18,2.23,2.23,0,0,1,.83-.68,2.58,2.58,0,0,1,2,0,2.26,2.26,0,0,1,.84.68,3.41,3.41,0,0,1,.56,1.18,7.23,7.23,0,0,1,0,3.46,3.5,3.5,0,0,1-.56,1.18,2.23,2.23,0,0,1-.84.67A2.34,2.34,0,0,1,66.24,550.69Zm0-.91a1.21,1.21,0,0,0,.56-.13,1.23,1.23,0,0,0,.48-.46,2.77,2.77,0,0,0,.33-.89,8.34,8.34,0,0,0,0-2.82,2.77,2.77,0,0,0-.33-.89,1.23,1.23,0,0,0-.48-.46,1.21,1.21,0,0,0-.56-.13,1.24,1.24,0,0,0-.56.13,1.17,1.17,0,0,0-.48.46,2.77,2.77,0,0,0-.33.89,8.34,8.34,0,0,0,0,2.82,2.77,2.77,0,0,0,.33.89,1.17,1.17,0,0,0,.48.46A1.24,1.24,0,0,0,66.24,549.78Z"/><path d="M104.2,505.34l3-4.71h1.26v4.79h1.07v.94h-1.07V508h-1.11v-1.68H104.2Zm3.18.08V502l-2.25,3.45Z"/><path d="M110.71,507.12h1.65V502l-1.6,1-.5-.78,2.36-1.57h.87v6.49h1.44V508h-4.22Z"/><path d="M119.06,504.38h4v.88h-4Z"/><path d="M130.92,502.88a1.8,1.8,0,0,0-.41-1.06,1.21,1.21,0,0,0-1-.38,1.53,1.53,0,0,0-.64.13,1.29,1.29,0,0,0-.51.46,3.12,3.12,0,0,0-.34.92,7.65,7.65,0,0,0-.12,1.49,1.57,1.57,0,0,1,.69-.75,2.41,2.41,0,0,1,1.15-.26,2.8,2.8,0,0,1,.88.14,2.14,2.14,0,0,1,.73.43,2,2,0,0,1,.5.71,2.59,2.59,0,0,1,.18,1,2.66,2.66,0,0,1-.18,1,2,2,0,0,1-.5.76,2.12,2.12,0,0,1-.79.49,2.87,2.87,0,0,1-1,.17,2.82,2.82,0,0,1-1.11-.21,1.9,1.9,0,0,1-.83-.66,3.37,3.37,0,0,1-.53-1.16,6.89,6.89,0,0,1-.18-1.69,5.07,5.07,0,0,1,.68-2.92,2.3,2.3,0,0,1,2-.95,2.38,2.38,0,0,1,1.72.61,2.47,2.47,0,0,1,.69,1.73Zm-1.32,4.37a1.47,1.47,0,0,0,.56-.11,1.4,1.4,0,0,0,.44-.31,1.58,1.58,0,0,0,.28-.47,1.87,1.87,0,0,0,.1-.59,1.49,1.49,0,0,0-.38-1,1.36,1.36,0,0,0-1-.4,1.37,1.37,0,0,0-1,.39,1.42,1.42,0,0,0-.38,1,1.63,1.63,0,0,0,.1.59,1.35,1.35,0,0,0,.28.48,1.39,1.39,0,0,0,1,.44Z"/><path d="M135.24,508.13a2.48,2.48,0,0,1-1-.21,2.2,2.2,0,0,1-.83-.67,3.32,3.32,0,0,1-.56-1.18,6.25,6.25,0,0,1-.21-1.73,6.15,6.15,0,0,1,.21-1.73,3.16,3.16,0,0,1,.56-1.18,2.23,2.23,0,0,1,.83-.68,2.58,2.58,0,0,1,2,0,2.26,2.26,0,0,1,.84.68,3.32,3.32,0,0,1,.56,1.18,6.15,6.15,0,0,1,.21,1.73,6.25,6.25,0,0,1-.21,1.73,3.5,3.5,0,0,1-.56,1.18,2.23,2.23,0,0,1-.84.67A2.48,2.48,0,0,1,135.24,508.13Zm0-.9a1.35,1.35,0,0,0,.56-.13,1.23,1.23,0,0,0,.48-.46,2.77,2.77,0,0,0,.33-.89,7,7,0,0,0,.12-1.41,6.85,6.85,0,0,0-.12-1.41,2.68,2.68,0,0,0-.33-.89,1.23,1.23,0,0,0-.48-.46,1.21,1.21,0,0,0-.56-.13,1.24,1.24,0,0,0-.56.13,1.17,1.17,0,0,0-.48.46,2.68,2.68,0,0,0-.33.89,6.85,6.85,0,0,0-.12,1.41,7,7,0,0,0,.12,1.41,2.77,2.77,0,0,0,.33.89,1.17,1.17,0,0,0,.48.46A1.39,1.39,0,0,0,135.24,507.23Z"/><path d="M104.3,526.37h2.15v-2.14h.86v2.14h2.15v.86h-2.15v2.16h-.86v-2.16H104.3Z"/><path d="M117.28,528.62h0a2.19,2.19,0,0,1-.65.7,2,2,0,0,1-1.07.26,2.32,2.32,0,0,1-1-.2,2.08,2.08,0,0,1-.71-.57,2.68,2.68,0,0,1-.43-.88,3.93,3.93,0,0,1-.14-1.11,4,4,0,0,1,.15-1.13,2.34,2.34,0,0,1,.43-.88,2.22,2.22,0,0,1,.72-.57,2.16,2.16,0,0,1,1-.2,1.94,1.94,0,0,1,1,.25,2,2,0,0,1,.66.67h0v-2.88h1.07v7.4h-1.07Zm-1.43.15a1.23,1.23,0,0,0,1.1-.52,2.61,2.61,0,0,0,.34-1.46,2.43,2.43,0,0,0-.35-1.42,1.24,1.24,0,0,0-1.1-.51,1.3,1.3,0,0,0-1.08.51,2.76,2.76,0,0,0,0,2.88A1.29,1.29,0,0,0,115.85,528.77Z"/><path d="M124.58,527.65a2,2,0,0,1-.2.78,1.76,1.76,0,0,1-.47.61,2.34,2.34,0,0,1-.71.4,3,3,0,0,1-.94.14,2.75,2.75,0,0,1-1.13-.2,2.07,2.07,0,0,1-.79-.56,2.44,2.44,0,0,1-.45-.88,4.48,4.48,0,0,1,0-2.26,2.4,2.4,0,0,1,.47-.88,2.11,2.11,0,0,1,.78-.56,3.12,3.12,0,0,1,2.17,0,1.75,1.75,0,0,1,.73.55,2.28,2.28,0,0,1,.42.87,5.08,5.08,0,0,1,.12,1.15V527h-3.77a2.16,2.16,0,0,0,.39,1.32,1.21,1.21,0,0,0,1,.43,1.43,1.43,0,0,0,.91-.27,1.14,1.14,0,0,0,.41-.8Zm-1-1.37a1.58,1.58,0,0,0-.34-1,1.16,1.16,0,0,0-.94-.39,1.34,1.34,0,0,0-1,.34,1.71,1.71,0,0,0-.44,1.06Z"/><path d="M132.6,524.32a1.86,1.86,0,0,0-.41-1.06,1.25,1.25,0,0,0-1-.38,1.69,1.69,0,0,0-.63.13,1.26,1.26,0,0,0-.51.47,3,3,0,0,0-.34.92,7.58,7.58,0,0,0-.12,1.49,1.57,1.57,0,0,1,.69-.75,2.3,2.3,0,0,1,1.15-.26,2.54,2.54,0,0,1,.88.14,2.14,2.14,0,0,1,.73.43,2,2,0,0,1,.5.71,2.52,2.52,0,0,1,.18,1,2.7,2.7,0,0,1-.18,1,2,2,0,0,1-.5.76,2.25,2.25,0,0,1-.79.49,3.11,3.11,0,0,1-1,.17,2.82,2.82,0,0,1-1.11-.21,2,2,0,0,1-.83-.66,3.37,3.37,0,0,1-.53-1.16,7,7,0,0,1-.18-1.69,5,5,0,0,1,.68-2.92,2.3,2.3,0,0,1,2-1,2.42,2.42,0,0,1,1.72.61,2.51,2.51,0,0,1,.69,1.73Zm-1.32,4.37a1.3,1.3,0,0,0,.56-.11,1.14,1.14,0,0,0,.44-.31,1.47,1.47,0,0,0,.28-.47,1.78,1.78,0,0,0,.1-.59,1.48,1.48,0,0,0-.38-1,1.5,1.5,0,0,0-2,0,1.45,1.45,0,0,0-.38,1,1.64,1.64,0,0,0,.1.6,1.44,1.44,0,0,0,.28.48,1.34,1.34,0,0,0,1,.43Z"/><path d="M136.92,529.58a2.48,2.48,0,0,1-1-.21,2.23,2.23,0,0,1-.83-.68,3.24,3.24,0,0,1-.56-1.18,7.23,7.23,0,0,1,0-3.46,3.32,3.32,0,0,1,.56-1.18,2.2,2.2,0,0,1,.83-.67,2.47,2.47,0,0,1,2,0,2.23,2.23,0,0,1,.84.67,3.5,3.5,0,0,1,.56,1.18,7.23,7.23,0,0,1,0,3.46,3.41,3.41,0,0,1-.56,1.18,2.26,2.26,0,0,1-.84.68A2.48,2.48,0,0,1,136.92,529.58Zm0-.91a1.21,1.21,0,0,0,.56-.13,1.2,1.2,0,0,0,.48-.45,3,3,0,0,0,.33-.9,8.29,8.29,0,0,0,0-2.81,2.92,2.92,0,0,0-.33-.89,1.26,1.26,0,0,0-.48-.47,1.35,1.35,0,0,0-.56-.13,1.44,1.44,0,0,0-.57.13,1.18,1.18,0,0,0-.47.47,2.68,2.68,0,0,0-.33.89,8.29,8.29,0,0,0,0,2.81,2.74,2.74,0,0,0,.33.9,1.12,1.12,0,0,0,.47.45A1.28,1.28,0,0,0,136.92,528.67Z"/><circle class="cls-8" cx="91.46" cy="526.43" r="6.35"/><circle class="cls-5" cx="23.46" cy="505.76" r="6.35"/><circle class="cls-2" cx="23.46" cy="526.43" r="6.35"/><circle class="cls-7" cx="91.46" cy="505.76" r="6.35"/><circle class="cls-3" cx="23.46" cy="547.1" r="6.35"/><polygon id="France" class="cls-9" points="655.26 610.72 655.26 610.72 654.03 597.78 637.15 601.6 617.99 588.36 616.79 580.45 617.78 579.47 621.7 575.64 621.53 569.2 621.26 568.9 625.41 565.05 625.41 565.05 621.53 556.28 610.62 553.61 603.97 540.56 603.97 540.56 615.37 539.43 625.28 531.84 628 521.14 628 521.14 609.17 496.53 609.17 496.53 610.91 494.5 618.4 491.5 618.53 489.63 618.65 488.67 618.89 484.48 608.28 471.25 608.28 471.25 610.71 468.65 610.71 468.65 606.63 458.56 590.19 462.48 587.49 460.62 583.34 466.24 583.33 466.24 585.93 470.17 578.67 475.6 571.57 475.5 571.49 471.28 578.06 469.25 580.88 460.44 576.1 458.69 577.26 449.33 591.1 435.2 591.1 435.2 590.1 424.69 590.1 424.69 598.64 420.83 600.04 419.01 616.92 397.13 617.06 397.13 617.06 397.13 613.94 389.81 618.5 388.86 619.08 388.55 621.55 392.18 630.19 392.23 634.25 388.73 636.72 381.07 632.4 374.24 637.35 356.55 634.99 346.48 640.83 335.35 643.64 313.02 649.36 308.94 660.01 291.93 647.67 286.82 634.65 287.54 627.66 280.86 622.02 280.67 618.92 283.48 611.49 283.63 605.19 278.79 601.09 278.84 600.12 281.79 596.1 282.2 588.86 266.88 580.92 263.62 575.03 261.2 571.57 261.39 562.69 263.79 556 258.87 542.83 261.27 537.61 257.49 535.7 252.15 517.64 244.53 517.27 221.5 513.04 221.5 508.78 231.52 498.69 235.92 491.46 233.5 487.01 233.49 486.52 231.95 490.87 228.74 490.52 216.9 482.69 209.61 470.43 210.18 469.11 212.34 467.57 212.32 467.99 204.66 460.22 199.13 455.96 201.03 451.4 199.03 450.4 187.44 446.49 182.57 438.17 184.5 432.89 187.72 430.52 183.1 428.37 180.67 423.99 178.25 425.56 172.13 421.78 163.1 403.35 168.09 391.21 170.29 381.5 177.64 381.18 208.08 372.22 227.06 361.32 235.94 324.63 248.56 318.17 262.51 327.83 267.36 304.91 276.63 297.48 272.39 278.34 269.67 274.28 267.65 268.78 269 260.89 257.44 265.09 254.3 263.13 248.5 251.97 248.5 247.47 250.62 234.72 244.43 233.83 246.33 238.43 249.94 238.44 263.83 246.49 278.34 248.95 297.63 246.21 303.3 254.21 313.39 247.89 315.56 237.13 315.46 235.85 309.53 230.6 309.27 228.48 311.64 214.53 309.96 198.13 316.94 193.56 313.13 184.96 295.54 162.09 296.83 160.68 304.99 151.16 303.13 148.96 305.53 138.67 301.71 112.77 309.15 109.81 323.34 123.63 322.38 132.8 327.92 118.98 325.64 115.28 327.56 129.59 334.82 128.74 339.28 111.42 340 111.37 342.88 119.26 344.69 124.88 355.67 124.6 359 132.95 359.45 134.06 355.75 145.39 361.77 160.02 364.1 174.84 377.12 189 384.46 202.99 387.76 198.16 397.94 213.06 400.45 213.06 406.49 210.44 409.36 217.15 410.63 222.4 414.73 215.12 423.47 215 428.72 227.56 449.85 256.52 464.81 254.17 471.31 241.64 463.65 236.66 466.73 260.46 480.55 257.53 491.49 253.58 489.49 245.37 479.12 244.85 486.78 249.86 490.55 251.4 503.22 271.29 518.6 272.89 527 275.1 538.7 273.61 541.17 268.79 524.5 257.69 517.03 256.47 511.18 254.1 512.09 253.04 520.45 245.97 568.7 251.42 561.93 258.2 570.13 257.69 573.5 249.94 573.5 246.06 578.03 245.97 581.87 233.75 633.88 230.45 639.11 224.33 646.44 215.06 648.36 215.06 652.26 234.06 658.5 233.39 665.13 230.59 666.66 236.53 673.12 238.65 668.21 257.11 678.05 261.48 678.09 261.7 678.09 264.41 678.12 264.41 678.12 264.41 678.12 264.84 682.7 271.34 688.38 271.98 688.95 271.99 688.95 284.77 685.72 291.73 690.45 297.76 696.82 306.81 693.79 312.7 698.21 318.9 696.63 330.63 697.8 331.04 686.98 339.69 689.97 349.39 693.91 353.06 700.5 361.02 700.5 366.15 704.36 377.53 703.12 383.1 711.99 390.06 714.23 390.09 717.94 396.2 720.62 399.99 716.85 404.59 716.82 415.92 724.5 424.01 724.5 433.05 715.02 439.83 713.45 443.21 716.23 447.29 717.47 447.32 711.66 443.27 707.51 442.27 689.13 442.49 676.43 437.69 673.29 439.48 670.42 443.69 673.53 449 666.88 485.46 644.3 489.54 644.63 491.8 649.19 499.51 649.15 515.65 650.27 512.71 654.33 522.94 658.32 528.73 656.51 526.17 651.62 531.6 652.37 535.33 656.6 549.5 656.15 551.69 664.02 566.09 667.98 572.24 674.39 579.62 670.71 587.68 671.54 597.61 670.24 612.31 662.21 611.29 655.68 623.64 644.82 632.03 639.22 632.3 632.42 637.35 632.04 649.89 623.39 649.89 623.38 650.41 612.22 655.26 610.72"/><polygon id="Royaume-Uni" class="cls-9" points="207.59 6.52 197.69 8.92 167.68 11.1 154.44 24.47 138.89 36.24 142.63 38.2 161.41 33.62 163.72 58.33 159.2 74.5 122.47 84.24 110.01 93.36 111.92 104.38 120.96 112.78 143.88 106.57 150.04 119.76 167.13 116.2 170.96 126.14 191.79 131.72 199.4 124.17 225.04 112.31 202.96 131.72 198.44 144.44 173.99 141.66 149.23 142.32 134.18 159.42 109.66 187.48 81.5 203.69 103.02 213.7 122.31 194.27 142.2 195.13 166.72 208.94 179.5 184.5 205.95 184.5 213.35 186.67 232.53 183.08 265.54 175.38 283.77 178.83 327.74 183.11 356.2 171.91 375.29 157.43 378.36 141.93 352.12 143.31 335.52 137.42 356.56 129.97 358.85 120.11 368.96 114.66 384.67 98.45 386.9 86.82 391.84 64.09 376.83 46.61 357.64 43.52 345.55 41.13 338.58 53.6 328.44 45.8 323.88 45.61 338.72 28.63 333.68 14.96 323.48 0.5 207.79 0.5 207.59 6.52"/><polygon id="Irlande" class="cls-9" points="0.06 78.02 17.56 71.28 41.2 68.37 52.26 64.45 70.8 68.9 89.57 24.95 90.46 9.23 87.08 5.72 84.03 0.5 0.06 0.5 0.06 78.02"/><polygon id="Espagne" class="cls-9" points="439.83 713.43 433.05 715.02 424.01 724.5 415.92 724.5 404.59 716.82 399.99 716.86 396.2 720.63 390.09 717.95 390.06 714.23 382.84 711.69 371.07 715.72 366.1 708.95 366.15 704.36 361.02 700.5 353.06 700.5 349.39 693.91 339.69 689.99 331.04 686.99 330.63 697.8 318.9 696.66 312.7 698.23 306.81 693.8 297.76 696.82 291.73 690.47 284.77 685.72 271.99 688.73 271.99 688.5 271.98 688.5 271.34 688.16 264.84 682.59 264.41 678.06 264.41 678.06 261.71 678.06 261.49 678.08 257.11 678.04 238.65 668.21 236.52 673.12 230.58 666.65 233.37 665.13 234.06 658.5 215.06 652.26 215.06 648.36 202 652.02 185.08 648.78 170.53 640.68 157.73 648.2 139.27 636.99 121.73 633.3 105.26 638.26 61.81 630.89 46.22 622.54 22.34 618.04 0.06 617.66 0.06 800.5 367.14 800.5 390.06 793.18 449.42 752 445.65 731.43 453.01 728.97 447.29 717.47 443.21 716.22 439.83 713.43"/><polygon id="Allemagne" class="cls-9" points="605.34 21.55 605.34 21.55 603.01 56.23 602.07 57.48 599.58 60.79 599.31 60.78 599.3 60.8 589.72 60.18 586.89 70.91 598.1 71.48 598.47 73.14 601.42 86.19 588.01 97.42 592.44 105.88 576 112.78 576 112.78 576 112.78 567.2 108.85 559.37 113.37 574.59 139.98 573.11 143.74 571.6 147.56 565.59 162.82 566.16 174.86 566.16 174.86 563.33 181.9 573.37 192.72 573.37 192.72 573.1 193.42 571.71 197.04 577.39 200.69 579.44 208.08 569.42 221.18 567.1 228.7 573.43 236.42 586.46 241.29 587.81 248.2 579.88 259.38 580.92 263.62 588.86 266.88 596.1 282.2 600.12 281.79 601.09 278.84 605.19 278.79 611.49 283.63 618.92 283.48 622.02 280.67 627.66 280.86 634.65 287.54 647.67 286.82 660.01 291.93 649.36 308.94 643.64 313.02 640.83 335.35 634.99 346.48 637.35 356.55 632.4 374.24 636.72 381.07 634.24 388.73 636.86 384.54 654.31 383.76 664.87 378.66 675.77 381.16 676.72 378.92 676.85 378.59 682.66 376.33 675.21 374.54 673.17 372.6 679.05 367.22 685.1 366.09 690.66 371.01 696.94 374.02 704.42 372.53 714.79 373.68 729.67 378.23 731.69 374.58 747.06 386.99 747.06 389.34 747.06 392.85 760.72 382.83 761.5 374.32 767.56 374.19 768.06 374.19 768.06 0.5 603.35 0.5 594.37 12.77 594.59 13.09 605.34 21.55"/><polygon id="Italie" class="cls-9" points="768.06 423.05 752.56 436.43 750.32 454.56 716.58 450.66 694.3 473.35 681.29 465.31 680.4 451.47 665.49 465.23 669 470.35 655.91 488.27 645.06 484.64 633.43 490.74 622.56 492.15 620.75 491.63 618.53 489.63 618.4 491.5 610.91 494.5 609.17 496.53 628 521.14 628 521.14 628 521.14 625.28 531.84 615.37 539.43 603.97 540.56 610.62 553.61 621.53 556.28 625.41 565.05 625.41 565.05 621.26 568.9 621.53 569.2 621.7 575.64 617.78 579.47 616.79 580.45 617.99 588.36 637.15 601.6 654.03 597.78 655.26 610.72 655.26 610.72 650.41 612.22 649.89 623.38 656.59 625.44 675.11 618.43 690.66 593.5 703.22 581.22 730.42 587.39 766.65 602.83 768.06 604.34 768.06 423.05"/><polygon id="Autriche" class="cls-9" points="761.43 374.32 760.72 382.83 747.06 392.85 747.06 389.34 747.06 386.99 731.69 374.58 729.73 378.23 714.79 373.68 723.36 380.4 727.62 383.61 729.39 388.96 723.74 398.94 737.22 400.99 740.69 413.59 749.43 422.21 759.7 414.5 767.1 414.5 768.06 414.5 768.06 374.19 767.57 374.19 761.43 374.32"/><polygon id="Liechtenstein" class="cls-9" points="740.69 413.59 737.22 400.99 723.74 398.94 726.24 410.62 740.69 413.59"/><polygon id="Pays-Bas" class="cls-9" points="490.5 144.68 503.33 138.27 512.61 141.15 523.96 138.27 530.96 150.34 539.68 149.06 539.68 149.06 539.68 149.06 556.09 157.09 550.78 182.82 563.33 181.9 563.33 181.9 563.33 181.9 563.33 181.9 566.16 174.86 566.16 174.86 565.59 162.82 571.6 147.56 573.11 143.74 574.59 139.98 559.37 113.37 567.2 108.85 567.2 108.85 576 112.78 576 112.78 592.44 105.88 588.01 97.42 601.42 86.19 598.47 73.14 598.1 71.48 586.89 70.91 589.72 60.18 589.72 60.17 599.31 60.78 599.58 60.79 602.07 57.48 603.01 56.23 605.34 21.55 605.34 21.55 594.59 13.24 594.37 13.07 593.91 12.72 590.79 10.31 581.08 11.04 559.94 14.52 539.04 22.98 534.06 35.59 517.59 48.29 514.62 43.52 508.85 42.49 500.65 84.24 486.72 104.32 471.28 121.17 458.24 134.26 462.28 141.68 478.79 145.55 490.5 144.68"/><polygon id="Belgique" class="cls-9" points="424 178.25 428.37 180.67 430.52 183.1 432.89 187.72 438.17 184.5 446.49 182.57 450.4 187.44 451.4 199.03 455.96 201.03 460.22 199.13 467.99 204.66 467.57 212.32 469.11 212.34 470.43 210.18 482.69 209.62 490.52 216.9 490.87 228.75 486.52 231.96 487.01 233.51 491.46 233.55 498.69 236.03 508.78 231.52 513.04 221.5 517.27 221.5 517.64 244.53 535.7 252.05 537.61 257.43 542.83 261.24 556 258.86 559.92 256.55 559.45 253.9 553.07 237.09 564.3 218.19 569.42 221.18 579.44 208.08 577.39 200.69 571.7 197.04 573.1 193.42 573.37 192.72 563.33 181.9 563.33 181.9 550.78 182.82 550.78 182.82 556.09 157.09 539.68 149.06 539.68 149.06 530.96 150.34 523.96 138.27 512.61 141.15 503.33 138.27 490.5 144.68 478.79 145.55 462.28 141.68 448.8 145.3 418.06 161.09 418.06 164.17 421.9 163.1 425.62 172.13 424 178.25"/><polygon id="Luxembourg" class="cls-9" points="587.81 248.2 586.46 241.29 573.43 236.42 567.1 228.7 569.42 221.18 564.3 218.19 553.07 237.09 559.45 253.9 559.92 256.56 556 258.87 562.69 263.79 571.57 261.39 575.03 261.2 580.92 263.62 579.88 259.38 587.81 248.2"/><polygon id="Suisse" class="cls-9" points="759.7 414.5 749.43 422.21 740.68 413.48 726.24 410.57 723.74 398.94 729.39 388.96 727.61 383.61 723.36 380.4 714.79 373.68 704.42 372.53 696.94 374.02 690.66 371.01 685.1 366.09 679.05 367.22 673.17 372.6 675.21 374.53 682.66 376.32 676.85 378.59 676.72 378.9 675.77 381.13 664.87 378.66 654.31 383.76 636.86 384.32 633.89 388.5 633.5 388.5 630.18 392.01 621.53 392.07 619.05 388.49 618.44 388.83 613.94 389.81 617.06 397.12 617.06 397.13 617.06 397.13 616.92 397.13 616.85 397.13 600.07 419.01 598.66 420.83 590.11 424.84 591.1 435.5 591.1 435.5 591.1 435.5 577.26 449.49 576.1 458.77 580.88 460.48 578.06 469.27 571.49 471.29 571.57 475.51 578.67 475.6 585.93 470.18 583.33 466.24 583.34 466.24 583.33 466.24 587.49 460.62 590.19 462.48 606.63 458.55 610.71 468.65 610.71 468.65 610.71 468.65 608.28 471.25 618.89 484.48 618.65 488.67 618.53 489.63 620.75 491.63 622.56 492.15 633.43 490.74 645.06 484.64 655.9 488.27 655.9 488.27 668.99 470.35 665.49 465.23 680.39 451.47 681.28 465.31 694.28 473.35 716.52 450.66 750.25 454.56 752.56 436.43 768.06 423.05 768.06 414.5 767.1 414.5 759.7 414.5"/><polygon id="France-2" data-name="France" class="cls-4" points="731.68 654.34 724.43 654.57 721.96 659.97 707.69 665.52 702.54 678.41 700.76 680.81 706.65 684.58 706.88 686.32 701.16 687.61 702.64 694.85 709.17 696.86 709.6 700.82 705.18 705.37 705.77 709.3 712.24 709.88 713.86 714 709.44 719.85 721.01 721.69 714.4 728.9 720.49 733.75 730.07 736.67 732.83 739.85 738.37 741.36 743.54 725.85 744.73 714.47 744.05 708.02 743.97 701.54 749.28 694.15 749.38 681.89 747.25 677.7 746.69 664.56 742.35 659.93 741.97 651.81 743.34 648.1 740.59 637.35 738.6 633.82 734.42 637.09 736.31 650.24 734.93 656.12 731.68 654.34"/><polygon id="Andorre" class="cls-9" points="371.07 715.71 382.84 711.69 377.53 703.11 366.15 704.33 366.1 708.95 371.07 715.71"/><polygon id="Monaco" class="cls-10" points="632.03 639.22 632.03 639.22 640.97 639.48 637.35 632.04 632.3 632.42 632.03 639.22"/></svg>