<?xml version="1.0" encoding="utf-8"?>
<!-- Generator: Adobe Illustrator 19.0.0, SVG Export Plug-In . SVG Version: 6.00 Build 0)  -->
<svg version="1.1" id="Calque_1" xmlns="http://www.w3.org/2000/svg" xmlns:xlink="http://www.w3.org/1999/xlink" x="0px" y="0px"
	 viewBox="0 0 769.3 801.5" style="enable-background:new 0 0 769.3 801.5;" xml:space="preserve">
<style type="text/css">
	.st0{fill:#EBB7A5;stroke:#F4D7CB;stroke-linecap:round;stroke-linejoin:round;stroke-miterlimit:10;}
	.st1{fill:#F4D7CB;stroke:#F4D7CB;stroke-linecap:round;stroke-linejoin:round;stroke-miterlimit:10;}
	.st2{fill:#E2967F;stroke:#F4D7CB;stroke-linecap:round;stroke-linejoin:round;stroke-miterlimit:10;}
	.st3{fill:#FFFFFF;stroke:#F4D7CB;stroke-miterlimit:10;}
	.st4{fill:#E2967F;stroke:#F4D7CB;stroke-width:0.5;stroke-linecap:round;stroke-linejoin:round;stroke-miterlimit:10;}
	.st5{fill:#C32121;stroke:#F4D7CB;stroke-linecap:round;stroke-linejoin:round;stroke-miterlimit:10;}
	.st6{fill:#F4D7CB;}
	.st7{fill:#D9745E;}
	.st8{fill:#EBB7A5;}
	.st9{fill:#E2967F;}
	.st10{fill:#D0523F;}
	.st11{fill:#C32121;}
	.st12{fill:none;stroke:#F4D7CB;stroke-miterlimit:10;}
</style>
<g id="XMLID_2933_">
	<polygon id="Royaume-Uni_1_" class="st0" points="208.6,6.3 198.7,8.6 168.7,10.7 155.4,24.1 139.9,35.8 143.6,37.8 162.4,33.2 
		164.7,57.9 160.2,74.1 123.4,83.8 111,92.9 112.9,103.9 121.9,112.3 144.9,106.1 151,119.3 168.1,115.8 171.9,125.7 192.8,131.3 
		200.4,123.7 226,111.9 203.9,131.3 199.4,144 175,141.2 150.2,141.9 135.2,159 110.6,187 82.5,203.3 104,213.3 123.3,193.8 
		143.2,194.7 167.7,208.7 180.5,184.5 206.9,184.5 214.3,186.4 233.5,182.7 266.5,175 284.7,178.4 328.7,182.7 357.2,171.5 
		376.3,157 379.3,141.5 353.1,142.9 336.5,137 357.5,129.5 359.8,119.7 369.9,114.2 385.6,98 387.9,86.4 392.8,63.6 377.8,46.2 
		358.6,43.1 346.5,40.7 339.6,53.2 329.4,45.4 324.9,45.2 339.7,28.2 334.7,14.7 324.5,0.5 208.8,0.5 	"/>
	<polygon id="Irlande_1_" class="st1" points="0.8,77.6 18.4,70.8 42.1,67.9 53.2,64 71.8,68.5 90.5,24.5 91.4,8.8 88.1,5.5 85,0.5 
		0.8,0.5 	"/>
	<polygon id="Espagne_1_" class="st2" points="440.8,713 434,714.6 425,724 416.9,724 405.6,716.3 401,716.4 397.2,720.2 
		391.1,717.5 391,713.8 383.8,711.3 372.1,715.3 367.1,708.5 367.1,703.9 362,700 354,700 350.4,693.4 340.7,689.5 332,686.5 
		331.6,697.4 319.9,696.2 313.7,697.8 307.8,693.4 298.7,696.4 292.7,690 285.8,685.3 273,688.5 273,688.5 273,688.5 272.3,687.9 
		265.8,682.3 265.4,677.7 265.4,677.7 262.7,677.7 262.5,677.7 258.1,677.6 239.6,667.8 237.5,672.7 231.6,666.2 234.3,664.7 
		235,658.1 215.9,651.8 215.9,647.9 202.9,651.6 186,648.3 171.5,640.2 158.7,647.8 140.2,636.6 122.7,632.9 106.2,637.8 
		62.8,630.5 47.2,622.1 23.5,617.6 0.5,617.2 0.5,801 368.1,801 391,792.7 450.4,751.5 446.6,731 454,728.5 448.3,717 444.2,715.8 	
		"/>
	<polygon id="Allemagne_1_" class="st2" points="606.3,21.1 606.3,21.1 604,55.8 603,57 600.6,60.4 600.3,60.3 600.3,60.4 
		590.7,59.7 587.9,70.5 599.1,71 599.5,72.7 602.4,85.8 589,97 593.4,105.4 577,112.3 577,112.3 577,112.3 568.2,108.4 560.3,112.9 
		575.6,139.5 574.1,143.3 572.6,147.1 566.6,162.4 567.1,174.4 567.1,174.4 564.3,181.5 574.3,192.3 574.3,192.3 574.1,193 
		572.7,196.6 578.4,200.3 580.4,207.6 570.4,220.7 568.1,228.3 574.4,236 587.4,240.8 588.8,247.8 580.9,258.9 581.9,263.2 
		589.8,266.4 597.1,281.8 601.1,281.3 602.1,278.4 606.2,278.4 612.5,283.2 619.9,283 623,280.2 628.6,280.4 635.6,287.1 
		648.7,286.4 661,291.5 650.3,308.5 644.6,312.6 641.8,334.9 636,346 638.3,356.1 633.4,373.8 637.7,380.6 635.2,388.3 637.8,384.1 
		655.3,383.3 665.8,378.2 676.8,380.7 677.7,378.5 677.8,378.1 683.6,375.9 676.2,374.1 674.1,372.2 680,366.8 686.1,365.7 
		691.6,370.6 697.9,373.6 705.4,372.1 715.8,373.2 730.6,377.8 732.5,374.1 747.8,386.5 747.8,388.9 747.8,392.4 761.6,382.4 
		762.4,373.9 768.4,373.8 768.8,373.7 768.8,0.5 604.3,0.5 595.4,12.6 595.6,12.8 	"/>
	<polygon id="Italie_1_" class="st2" points="768.8,422.6 753.4,436 751.2,454.1 717.5,450.2 695.3,472.9 682.3,464.9 681.4,451 
		666.5,464.8 670,469.9 656.9,487.8 646,484.2 634.4,490.3 623.5,491.7 621.7,491.2 619.5,489.2 619.4,491.1 611.9,494.1 
		610.1,496.1 629,520.7 629,520.7 629,520.7 626.3,531.4 616.3,539 604.9,540.1 611.6,553.2 622.5,555.8 626.4,564.6 626.4,564.6 
		622.2,568.5 622.5,568.8 622.7,575.2 618.8,579 617.8,580 619,587.9 638.1,601.2 655,597.3 656.2,610.3 656.2,610.3 651.4,611.8 
		650.9,622.9 657.6,625 676.1,618 691.6,593.1 704.2,580.8 731.4,587 767.5,602.4 768.8,603.9 	"/>
	<polygon id="Autriche_1_" class="st3" points="762.4,373.9 761.6,382.4 747.8,392.4 747.8,388.9 747.8,386.5 732.5,374.1 
		730.6,377.8 715.7,373.2 724.3,380 728.6,383.2 730.4,388.5 724.7,398.5 738.2,400.6 741.7,413.1 750.4,422 760.7,414.5 
		768.1,414.5 768.8,414.5 768.8,373.7 768.4,373.8 	"/>
	<polygon id="Liechtenstein_1_" class="st3" points="741.7,413.1 738.2,400.6 724.7,398.5 727.2,410.2 	"/>
	<polygon id="Pays-Bas_1_" class="st4" points="491.5,144.2 504.3,137.8 513.6,140.7 524.9,137.8 531.9,149.9 540.7,148.6 
		540.7,148.6 540.7,148.6 557.1,156.7 551.8,182.4 564.3,181.5 564.3,181.5 564.3,181.5 564.3,181.5 567.1,174.4 567.1,174.4 
		566.6,162.4 572.6,147.1 574.1,143.3 575.6,139.5 560.3,112.9 568.2,108.4 568.2,108.4 577,112.3 577,112.3 593.4,105.4 589,97 
		602.4,85.8 599.5,72.7 599.1,71 587.9,70.5 590.7,59.7 590.7,59.7 600.3,60.3 600.6,60.4 603,57 604,55.8 606.3,21.1 606.3,21.1 
		595.6,12.8 595.4,12.6 594.9,12.3 591.8,9.9 582.1,10.6 560.9,14.1 540,22.5 535,35.2 518.6,47.9 515.6,43.1 509.8,42.1 
		501.6,83.8 487.7,103.9 472.3,120.7 459.2,133.8 463.3,141.2 479.8,145.1 	"/>
	<polygon id="Belgique_1_" class="st5" points="425,177.8 429.3,180.2 431.5,182.7 433.9,187.3 439.2,184.1 447.5,182.1 451.4,187 
		452.4,198.6 456.9,200.6 461.2,198.7 469,204.2 468.5,211.9 470.1,211.9 471.4,209.7 483.7,209.2 491.5,216.5 491.8,228.3 
		487.5,231.5 488,233.1 492.4,233.1 499.7,235.6 509.8,231.3 514,221.5 518.2,221.5 518.6,244.3 536.7,251.7 538.6,257 543.8,260.8 
		557,258.4 560.9,256.1 560.4,253.5 554,236.7 565.3,217.8 570.4,220.7 580.4,207.6 578.4,200.3 572.7,196.6 574.1,193 574.3,192.3 
		564.3,181.5 564.3,181.5 551.8,182.4 551.8,182.4 557.1,156.7 540.7,148.6 540.7,148.6 531.9,149.9 524.9,137.8 513.6,140.7 
		504.3,137.8 491.5,144.2 479.8,145.1 463.3,141.2 449.7,144.9 418.8,160.7 418.8,163.7 422.8,162.7 426.5,171.7 	"/>
	<polygon id="Luxembourg_1_" class="st0" points="588.8,247.8 587.4,240.8 574.4,236 568.1,228.3 570.4,220.7 565.3,217.8 
		554,236.7 560.4,253.5 560.9,256.1 557,258.4 563.7,263.4 572.6,260.9 576,260.8 581.9,263.2 580.9,258.9 	"/>
	<polygon id="Suisse_1_" class="st2" points="760.7,414.5 750.4,422 741.7,413.1 727.2,410.2 724.7,398.5 730.4,388.5 728.6,383.2 
		724.3,380 715.8,373.2 705.4,372.1 697.9,373.6 691.6,370.6 686.1,365.7 680,366.8 674.1,372.2 676.2,374.1 683.6,375.9 
		677.8,378.1 677.7,378.5 676.8,380.7 665.8,378.2 655.3,383.3 637.8,384.1 634.9,388.5 634.5,388.5 631.2,391.8 622.5,391.7 
		620,388.1 619.4,388.4 614.8,389.4 617.8,396.7 617.8,396.7 617.8,396.7 617.8,396.7 617.8,396.7 601,418.6 599.6,420.4 
		591.1,424.3 592.1,434.8 592.1,434.8 592.1,434.8 578.2,448.9 577.1,458.3 581.9,460 579,468.8 572.5,470.8 572.5,475.1 
		579.6,475.2 586.9,469.7 584.3,465.8 584.3,465.8 584.3,465.8 588.5,460.2 591.2,462 607.6,458.1 611.7,468.2 611.7,468.2 
		611.7,468.2 609.3,470.8 619.9,484 619.6,488.2 619.5,489.2 621.7,491.2 623.5,491.7 634.4,490.3 646,484.2 656.9,487.8 
		656.9,487.8 670,469.9 666.5,464.8 681.4,451 682.3,464.9 695.3,472.9 717.5,450.2 751.2,454.1 753.4,436 768.8,422.6 768.8,414.5 
		768.1,414.5 	"/>
	<polygon id="France_2_" class="st0" points="732.7,653.9 725.4,654.1 722.9,659.5 708.7,665.1 703.5,678 701.7,680.4 707.6,684.1 
		707.9,685.9 702.1,687.2 703.6,694.4 710.2,696.4 710.6,700.4 706.2,704.9 706.8,708.9 713.2,709.4 714.8,713.6 710.4,719.4 
		722,721.3 715.4,728.5 721.5,733.3 731,736.2 733.8,739.4 739.3,740.9 744.5,725.4 745.7,714 745,707.6 744.9,701.1 750.3,693.7 
		750.4,681.5 748.2,677.3 747.7,664.1 743.3,659.5 742.9,651.4 744.3,647.7 741.6,636.9 739.6,633.4 735.4,636.7 737.3,649.8 
		735.9,655.7 	"/>
	<polygon id="Monaco_1_" class="st0" points="633,638.8 633,638.8 641.9,639 638.3,631.6 633.3,632 	"/>
	<polygon id="Andorre_1_" class="st1" points="372.1,715.3 383.8,711.3 378.5,702.7 367.1,703.9 367.1,708.5 	"/>
</g>
<g id="XMLID_3211_">
	<polygon id="Var_1_" class="st6" points="609.1,623 624.5,644.4 612.1,655.2 613.1,661.8 598.4,669.8 588.5,671.1 580.5,670.3 
		573.1,673.9 566.9,667.5 570.2,659.4 566.4,654.9 571.1,650.1 566.4,641.4 570.4,629.7 581.5,632.4 	"/>
	<polygon id="Bouches-du_x29_Rhône" class="st7" points="566.4,641.4 571.1,650.1 566.4,654.9 570.2,659.4 566.9,667.5 
		552.5,663.6 550.3,655.7 536.2,656.2 532.4,651.9 527,651.2 529.6,656.1 523.8,657.9 513.5,653.9 516.5,649.8 500.3,648.7 
		509.6,633.5 516,632.9 518,622 526.7,617.1 526.7,619.7 538.4,628.6 558.1,634.2 570.4,629.7 570.4,629.7 	"/>
	<polygon id="Drôme_1_" class="st8" points="570.4,568.8 561.7,571.5 560,578.3 562.5,580.3 560,583.1 553.5,581.3 552.5,589.2 
		564.3,595.6 563.5,602.5 557.2,605.7 550.2,600.1 541.3,599.3 534.6,594.2 535.6,589.5 532.6,586.6 527.1,590.5 529.9,596.7 
		526,598.8 520.2,593.5 518.8,583.1 522.1,574.8 527,554.6 522.4,538 522.7,529.3 525.1,531.2 530.8,528.2 540.5,534.9 538.8,544 
		549.7,547.4 553.5,544.4 553.6,562.2 	"/>
	<polygon id="Vaucluse_1_" class="st9" points="570.4,629.7 558.1,634.2 538.4,628.6 526.7,619.7 526.7,617.1 526.7,614.3 
		520.3,607.8 520.3,602.8 514.5,594.2 514.4,594.2 520.2,593.5 526,598.8 529.9,596.7 527.1,590.5 532.6,586.6 535.6,589.5 
		534.6,594.2 541.3,599.3 550.2,600.1 557.2,605.7 559.2,622.3 568.6,629.3 	"/>
	<polygon id="Haute-Marne_1_" class="st6" points="564.5,362 556.4,370.9 556.4,379 544.9,379.6 544.8,383.2 538.9,385 535,379.5 
		526.1,378.7 526.8,370.7 515.3,358.1 515,356.6 514.3,352.9 520.8,350.6 519.4,337.1 515.6,335.8 511.7,330.2 511.7,325.2 
		515.5,325.3 520.2,322 520.9,316.5 524.6,315.6 526.1,319.8 545.3,332.1 544.8,336.2 558.1,345.9 554.8,353.2 	"/>
	<polygon id="Marne_1_" class="st9" points="464.1,320.4 461.1,319.5 461.6,305.4 470.3,295 472.5,286.1 468.7,276.2 484.9,272 
		518.8,280.4 521.9,279 527.2,293.6 521.4,307.1 524.6,315.6 520.9,316.5 520.2,322 515.5,325.3 511.7,325.2 500.4,324.9 496,314.5 
		492.7,314.2 474.4,323.4 	"/>
	<polygon id="Ardèche_1_" class="st6" points="522.4,538 527,554.6 522.1,574.8 518.8,583.1 520.2,593.5 514.4,594.2 500.3,595.8 
		490.4,594.2 486.6,586.8 485.8,585.2 482.8,576.5 480.8,567.8 489.7,558.6 494.9,558.7 506.7,541.1 508,535.7 520.1,527.2 
		522.7,529.3 	"/>
	<polygon id="Gard_1_" class="st8" points="526.7,614.3 526.7,617.1 518,622 516,632.9 509.6,633.5 500.3,648.7 492.6,648.8 
		490.4,644.2 496.2,639.4 493.9,630.8 480.1,623.6 478.2,616.8 474.6,616.4 468.4,624.3 458,619.7 463.7,616.2 461.1,611.6 
		454.3,609.5 457.8,603.6 464.6,608.2 471.3,605.7 476.3,606.3 482,606.9 484.7,603 484.9,592.9 481.8,589.5 486.6,586.8 
		490.4,594.2 500.3,595.8 514.4,594.2 514.5,594.2 520.3,602.8 520.3,607.8 	"/>
	<polygon id="Aube_1_" class="st8" points="519.4,337.1 520.8,350.6 514.3,352.9 515,356.6 514.9,356.6 507.6,360.4 497.8,363.6 
		494.9,363.6 480.4,363.4 467,348 467.7,342.1 462.1,336.1 458.1,335.9 457.9,334.8 459.1,324.3 464.1,320.4 474.4,323.4 
		492.7,314.2 496,314.5 500.4,324.9 511.7,325.2 511.7,330.2 515.6,335.8 	"/>
	<polygon id="Loire_1_" class="st7" points="520.8,520.2 520.1,527.2 508,535.7 495.2,525.4 488,529.5 482.8,527.8 485.4,520.9 
		483.5,513.7 477.8,509.9 472.9,500.7 475.6,493.9 471.3,489.8 477.6,488.9 477.3,477.3 475.8,473.4 476.4,470.9 481.1,470.5 
		486.7,476.3 503.9,472 506.1,476.7 503.9,478.6 499.5,478.6 497.8,483.6 500.6,493.9 503.9,497.4 502.1,507.5 	"/>
	<polygon id="Haute-Loire_1_" class="st6" points="508,535.7 506.7,541.1 494.9,558.7 489.7,558.6 480.8,567.8 476.3,561.9 
		462.5,563.5 458.1,551.9 451.5,534.5 446.2,533.1 444.5,530.2 444.2,529.8 445.4,528.9 463.1,524.8 469.7,529.3 482.3,529.3 
		482.8,527.8 488,529.5 495.2,525.4 	"/>
	<polygon id="Yonne_1_" class="st8" points="494.9,364.2 498.4,375 487.6,398.8 488.7,401.3 484.9,403.5 466.5,391.8 455.8,393.3 
		439.7,387.4 435,375.1 438.5,375.4 442.5,373 441,367.5 447.1,361.6 438.5,347.2 443.6,343 441.9,341 446.8,335.9 457.9,334.8 
		458.1,335.9 462.1,336.1 467.7,342.1 467,348 480.4,363.4 494.9,363.6 	"/>
	<polygon id="Hérault_1_" class="st9" points="493.9,630.8 496.2,639.4 490.4,644.2 486.3,643.9 449.8,666.4 435.4,657.5 
		432.4,661.4 429,663.6 423.5,660.4 420,655.8 421.1,650.8 425.8,649.4 427.1,645.4 423.7,642.2 426.5,636.4 429.6,638.6 
		438.9,635.4 444.5,633.5 444.3,624.8 451,626.7 458,619.7 468.4,624.3 474.6,616.4 478.2,616.8 480.1,623.6 	"/>
	<polygon id="Nièvre_1_" class="st6" points="488.7,401.3 494.3,414.2 486.5,416.2 488.7,436.6 476.3,441.4 473.5,439.7 
		469.7,441.1 463.3,445.2 449.7,444.2 443.4,439.6 443.6,436.7 444.5,424.3 436.7,403.6 438.1,398.1 436.1,391.3 436.1,391.3 
		435.3,388.7 439.7,387.4 455.8,393.3 466.5,391.8 484.9,403.5 	"/>
	<polygon id="Lozère_1_" class="st6" points="485.8,585.2 486.6,586.8 481.8,589.5 484.9,592.9 484.7,603 482,606.9 476.3,606.3 
		471.3,605.7 464.6,608.2 457.8,603.6 452.2,600.6 447.7,585.8 440.4,573.6 446.8,556.7 451.4,558 458.1,551.9 462.5,563.5 
		476.3,561.9 480.8,567.8 482.8,576.5 	"/>
	<polygon id="Puy-de-Dôme_1_" class="st9" points="483.5,513.7 485.4,520.9 482.8,527.8 482.3,529.3 469.7,529.3 463.1,524.8 
		445.4,528.9 444.2,529.8 441.7,531.7 433.2,525.5 428.2,526.8 425.5,522.8 419.5,521.9 419.6,515.8 418.3,511.2 419.4,504.3 
		414.5,497.8 424.4,489.1 421.6,478.6 425.5,481.2 435,471.6 438.4,471.6 437.4,475 446.8,482.6 456.1,483.6 459.9,482.3 
		471.3,489.8 475.6,493.9 472.9,500.7 477.8,509.9 	"/>
	<polygon id="Allier_1_" class="st8" points="484.9,456.6 484.8,466.6 481.1,470.5 476.4,470.9 475.8,473.4 477.3,477.3 
		477.6,488.9 471.3,489.8 459.9,482.3 456.1,483.6 446.8,482.6 437.4,475 438.4,471.6 435,471.6 425.5,481.2 421.6,478.6 419,469 
		411.9,465.6 409.1,459.9 412.1,454.3 416.7,453.4 421.4,454.3 424.5,451.6 422.1,446.2 429.2,439.9 430.7,443.2 438.2,436.2 
		443.2,436.7 443.6,436.7 443.4,439.6 449.7,444.2 463.3,445.2 469.7,441.1 474,452.7 	"/>
	<polygon id="Seine-et-Marne_1_" class="st8" points="464.1,320.4 459.1,324.3 457.9,334.8 446.8,335.9 441.9,341 443.6,343 
		438.5,347.2 433.4,351.5 419.4,352.9 417.5,351.1 420.8,345 416.8,341.6 416.9,340.4 416.9,337.2 421.8,334 422.8,315 423.2,307.5 
		423.9,296.4 424.1,291.6 440.3,290.6 444.6,288.9 449.1,295.5 461.6,305.4 461.1,319.5 	"/>
	<polygon id="Aveyron_1_" class="st8" points="461.1,611.6 463.7,616.2 458,619.7 451,626.7 444.3,624.8 444.5,633.5 438.9,635.4 
		434.9,630.7 425.7,630.5 418.6,613.8 402.2,602.9 393.1,604.4 390.2,592.5 389.1,584.4 401,577.8 403.2,574.9 405.7,575.2 
		410.7,572.2 418.1,573.1 423.1,559.6 430,555.3 434.9,558.7 437.1,565 440.4,573.6 447.7,585.8 452.2,600.6 457.8,603.6 
		454.3,609.5 	"/>
	<polygon id="Cantal_1_" class="st8" points="451.5,534.5 458.1,551.9 451.4,558 446.8,556.7 440.4,573.6 437.1,565 434.9,558.7 
		430,555.3 423.1,559.6 418.1,573.1 410.7,572.2 405.7,575.2 403.2,574.9 399.7,552.6 404,545.7 405.4,536.5 412.5,524 416.6,527.6 
		420.1,526.1 419.5,521.9 425.5,522.8 428.2,526.8 433.2,525.5 441.7,531.7 444.2,529.8 444.5,530.2 446.2,533.1 	"/>
	<polygon id="Bas-Rhin_1_" class="st9" points="641.8,334.9 644.6,312.6 650.3,308.5 661,291.5 648.6,286.4 635.6,287.1 
		632.3,295.1 623.1,294.6 611.6,289.5 607.5,297.1 623.2,305.3 622.5,313.4 617.2,321.9 614.6,321 614.6,325.3 615.8,333.5 
		618.7,335.3 636,346 	"/>
	<polygon id="Alpes-Maritimes_1_" class="st9" points="651.2,611.8 656.1,610.3 654.9,597.3 638,601.2 618.8,587.9 613,594.2 
		610.9,602.1 622.4,614.9 611.6,618.2 609.1,623 610,624.3 624.5,644.4 632.9,638.8 633.1,632 638.2,631.6 650.7,623 650.7,622.9 	
		"/>
	<polygon id="Haut-Rhin_1_" class="st9" points="615.6,381.5 619.9,388 622.4,391.7 631,391.5 635.2,388.3 637.7,380.6 637.7,380.6 
		633.4,373.8 638.3,356.1 636,346 618.7,335.3 606.7,368.2 614.8,372.9 	"/>
	<polygon id="Moselle_1_" class="st9" points="572.6,260.9 563.7,263.4 567.1,287.2 564.5,289.9 573.9,298.6 578.5,299.1 
		583.4,307.1 614.6,321 617.2,321.9 622.5,313.4 623.2,305.3 607.5,297.1 611.6,289.5 623.1,294.6 632.3,295.1 635.6,287.1 
		628.6,280.4 623,280.2 619.9,283 612.5,283.2 606.2,278.4 602.1,278.4 601.1,281.3 597.4,281.8 589.7,266.4 581.8,263.2 
		575.9,260.8 	"/>
	<polygon id="Savoie_1_" class="st10" points="598,490.2 594.7,493.4 590.1,503.9 586.3,504.6 581.2,499.8 578.2,501.1 570.4,497 
		566.4,485.7 565.1,503.5 559.1,509.9 569.9,521.9 573,517.6 584.9,524.2 581.9,532.9 587.2,538.7 586.8,540.7 598.7,540.7 
		604.8,540.1 616.2,539 626.1,531.4 628.8,520.7 610,496.1 606.8,499.8 	"/>
	<polygon id="Haute-Alpes" class="st11" points="574.5,590.3 583.7,581.8 590.6,587 594.2,582.1 606.9,582.6 622.1,568.5 
		626.2,564.6 622.4,555.8 611.5,553.2 604.8,540.1 598.7,540.7 586.8,540.7 585.9,546.3 592,550.8 593.7,556.5 570.4,568.8 
		568.2,569.4 561.7,571.5 560,578.3 562.5,580.3 560,583.1 553.5,581.3 552.5,589.2 564.3,595.6 563.5,602.5 574.7,599.6 	"/>
	<polygon id="Alpes-de-Haute-Provence_1_" class="st8" points="611.6,618.2 622.4,614.9 610.9,602.1 613,594.2 618.8,587.9 
		617.6,580 622.5,575.2 622.4,568.8 622.1,568.5 606.9,582.6 594.2,582.1 590.6,587 583.7,581.8 574.5,590.3 574.7,599.6 
		563.5,602.5 557.2,605.7 559.2,622.3 568.6,629.3 570.4,629.7 570.4,629.7 581.5,632.4 605,624.4 609.1,623 	"/>
	<polygon id="Territoire_de_Belfort_1_" class="st8" points="619.3,388.4 619.9,388 615.6,381.5 614.8,372.9 606.7,368.2 603,370.5 
		602.1,383.6 614.6,389.4 	"/>
	<polygon id="Haute-Savoie_1_" class="st7" points="609.1,470.8 611.5,468.2 607.5,458.1 591,462 588.3,460.2 584.2,465.8 
		586.8,469.8 579.5,475.2 572.4,475.1 572.4,476.9 567,478.5 566.4,485.7 566.4,485.7 570.4,497 578.2,501.1 581.2,499.8 
		586.3,504.6 590.1,503.9 594.7,493.4 598,490.2 606.8,499.8 610,496.1 611.7,494.1 619.2,491.1 619.4,489.2 619.7,484 	"/>
	<polygon id="Vosges_1_" class="st8" points="576.6,357.1 581,361.5 606.7,368.2 618.7,335.3 615.8,333.5 614.6,325.3 602.5,330.2 
		576.1,331.2 573.5,334.1 567.5,334.4 558.6,326.4 545.3,332.1 544.8,336.2 558.1,345.9 554.8,353.2 564.5,362 571.4,356.8 	"/>
	<polygon id="Doubs_1_" class="st7" points="561.2,419.5 571.2,421.3 571.5,429 578.5,431.3 581.3,436.8 575.9,440.1 578.2,448.9 
		592.1,434.8 591.8,424.2 599.9,420.4 617.6,396.7 614.6,389.4 602.1,383.6 596.4,388.7 588.3,387.3 559,403.1 564.1,411.9 	"/>
	<polygon id="Meurthe-et-Moselle_1_" class="st9" points="583.4,307.1 578.5,299.1 573.9,298.6 564.5,289.9 567.1,287.2 
		563.7,263.4 558.3,259.5 556.8,258.4 543.7,260.8 546.4,267.9 552.2,266.7 556.6,274.7 561.6,297.9 558.6,326.4 567.5,334.4 
		573.5,334.1 576.1,331.2 602.5,330.2 614.6,325.3 614.6,321 	"/>
	<polygon id="Haute-Saône_1_" class="st6" points="544.8,393.3 550.2,400.5 553.6,405.1 559,403.1 588.3,387.3 596.4,388.7 
		602.1,383.6 603,370.5 606.7,368.2 581,361.5 576.6,357.1 571.4,356.8 564.5,362 556.4,370.9 556.4,379 544.9,379.6 544.8,383.2 
		549.2,387.5 	"/>
	<polygon id="Isère_1_" class="st11" points="593.7,556.5 592,550.8 585.9,546.3 586.8,540.7 587.2,538.7 581.9,532.9 584.9,524.2 
		573,517.6 569.9,521.9 559.1,509.9 545.6,494 541.3,500.7 534.6,499.3 537.5,504.2 532.6,510.4 522.6,513 525.4,517.9 520.8,520.2 
		520.1,527.2 522.7,529.3 525.1,531.2 530.8,528.2 540.5,534.9 538.8,544 549.7,547.4 553.5,544.4 553.6,562.2 567.8,567.8 
		570.4,568.8 	"/>
	<polygon id="Ain_1_" class="st9" points="566.4,485.7 566.4,485.7 567,478.5 572.4,476.9 572.4,475.1 572.3,471 578.9,469.1 
		581.7,460.5 577,458.5 567.8,468.4 561.4,468.4 561.5,465.8 558,464 550.5,469 540.7,457.3 527.2,453.4 520.7,474 518.3,489.8 
		534.6,499.3 541.3,500.7 545.6,494 559.1,509.9 565.1,503.5 	"/>
	<polygon id="Jura_1_" class="st6" points="550.5,469 558,464 561.5,465.8 561.4,468.4 567.8,468.4 577,458.5 578.2,448.9 
		575.9,440.1 581.3,436.8 578.5,431.3 571.5,429 571.2,421.3 561.2,419.5 564.1,411.9 559,403.1 553.6,405.1 550.2,400.5 
		548.6,411.1 541,419.8 541.3,422.5 541.6,426.2 548.8,431.1 543.3,433.4 547.6,446.2 544.8,450.5 548.6,454.9 540.7,457.3 	"/>
	<polygon id="Meuse_1_" class="st6" points="561.6,297.9 556.6,274.7 552.2,266.7 546.4,267.9 543.7,260.8 538.4,256.9 535.4,259.9 
		530,257.5 526.8,263.1 529.3,266.9 527.1,276.5 521.9,279 527.2,293.6 521.4,307.1 524.6,315.6 526.1,319.8 545.3,332.1 
		558.6,326.4 	"/>
	<polygon id="Côte-d_x27_Or_1_" class="st9" points="529.2,424.1 541.3,422.5 541,419.8 548.6,411.1 550.2,400.5 544.8,393.3 
		549.2,387.5 544.8,383.2 538.9,385 535,379.5 526.1,378.7 526.8,370.7 515.3,358.1 515,356.6 514.9,356.6 507.6,360.4 497.8,363.6 
		494.9,363.6 494.9,364.2 498.4,375 487.6,398.8 488.7,401.3 494.3,414.2 515.4,429 	"/>
	<polygon id="Saône-et-Loire_1_" class="st8" points="516.5,467.6 520.7,474 527.2,453.4 540.7,457.3 548.6,454.9 544.8,450.5 
		547.6,446.2 543.3,433.4 548.8,431.1 541.6,426.2 541.3,422.5 529.2,424.1 515.4,429 494.3,414.2 486.5,416.2 488.7,436.6 
		476.3,441.4 473.5,439.7 469.7,441.1 474,452.7 484.9,456.6 484.8,466.6 481.1,470.5 486.7,476.3 503.9,472 504.1,467.9 	"/>
	<polygon id="Ardennes_1_" class="st6" points="529.3,266.9 526.8,263.1 530,257.5 535.4,259.9 538.4,256.9 536.5,251.5 
		518.6,244.3 518.2,221.5 514,221.5 509.8,231.3 499.7,235.6 492.4,233.1 492.6,247.5 484.9,272 518.8,280.4 521.9,279 527.1,276.5 
			"/>
	<polygon id="Rhône_1_" class="st9" points="522.6,513 532.6,510.4 537.5,504.2 534.6,499.3 518.3,489.8 520.7,474 516.5,467.6 
		504.1,467.9 503.9,472 506.1,476.7 503.9,478.6 499.5,478.6 497.8,483.6 500.6,493.9 503.9,497.4 502.1,507.5 520.8,520.2 
		525.4,517.9 	"/>
	<polygon id="Aisne_1_" class="st6" points="492.6,247.5 492.4,233.1 488,233.1 448.7,231.4 446.1,252.2 446,252.7 444.8,274.2 
		439.6,277.3 441.6,284.4 444.6,288.9 449.1,295.5 461.6,305.4 470.3,295 472.5,286.1 468.7,276.2 484.9,272 	"/>
	<polygon id="Nord_1_" class="st10" points="418.6,190.6 431.1,192.5 433.4,198.6 444.5,204 439.6,207.1 448.4,216.9 440.3,224.6 
		448.7,231.4 488,233.1 487.5,231.5 491.8,228.3 491.5,216.5 483.7,209.2 471.4,209.7 470.1,211.9 468.5,211.9 468.8,204.2 
		461.2,198.7 456.8,200.6 452.2,198.6 451.2,187 447.3,182.1 439,184.1 433.7,187.3 431.3,182.7 429.2,180.2 424.8,177.8 
		426.4,171.7 422.8,162.7 422.8,162.7 404.2,167.7 410.8,180.7 	"/>
	<polygon id="Somme_1_" class="st9" points="448.7,231.4 436.4,230.6 382,207.6 373.1,226.6 390.5,247.1 394.5,251.8 427.6,258.3 
		438.3,252.2 445.3,252.2 446.1,252.2 	"/>
	<polygon id="Pas-de-Calais_1_" class="st9" points="436.4,230.6 448.7,231.4 440.3,224.6 448.4,216.9 439.6,207.1 444.5,204 
		433.4,198.6 431.1,192.5 418.6,190.6 410.8,180.7 404.2,167.7 392,169.9 382.3,177.2 382,207.6 	"/>
	<polygon id="Oise_1_" class="st8" points="446.1,252.2 444.8,274.2 439.6,277.3 441.6,284.4 444.6,288.9 440.3,290.6 424.1,291.6 
		402.9,282.9 390,284.9 388.1,278.4 388,270.3 391.1,264.2 390.5,247.1 394.5,251.8 427.6,258.3 438.3,252.2 	"/>
	<polygon id="Cher_1_" class="st6" points="436.7,403.6 444.5,424.3 443.6,436.7 443.2,436.7 438.2,436.2 430.7,443.2 429.2,439.9 
		422.1,446.2 424.5,451.6 421.4,454.3 416.7,453.4 412.1,454.3 409.1,459.9 404,460.5 406.3,446.8 401.8,440.2 405,430.6 
		399.8,416.2 393.3,417 388.3,414.3 392.7,409.7 396.3,405.2 404.3,403.4 409.1,391.8 403.3,387 409.6,381.7 427.8,393.1 
		436.1,391.3 436.1,391.3 438.1,398.1 	"/>
	<polygon id="Creuse_1_" class="st6" points="421.6,478.6 424.4,489.1 414.5,497.8 419.4,504.3 409.6,508.1 405,504.5 392,506.2 
		392.7,501.6 386.8,497.6 379.1,496.9 376.1,491.6 376.9,482.6 369.8,473.2 372.5,466.3 370.7,462 385.7,461.6 387,458.1 404,460.5 
		409.1,459.9 411.9,465.6 419,469 	"/>
	<polygon id="Val-d_x27_Oise_1_" class="st6" points="424.1,291.6 423.9,296.4 412.2,299.8 407.8,301.1 383.2,290.2 388.1,278.4 
		390,284.9 402.9,282.9 	"/>
	<polygon id="Seine-Saint-Denis_1_" class="st6" points="423.9,296.4 423.2,307.5 422.4,307.4 416.8,305.3 416.4,305.4 415.4,302.7 
		412.7,303.4 412.6,302.8 412.2,299.8 	"/>
	<polygon id="Val-de-Marne_1_" class="st8" points="423.2,307.5 422.8,315 412.7,312.9 412.4,308.4 412.6,307.9 414,308.4 
		416.9,306.5 416.4,305.4 416.8,305.3 422.4,307.4 	"/>
	<polygon id="Essonne_1_" class="st8" points="422.8,315 421.8,334 416.9,337.2 416.9,340.4 416,340.3 397.9,341.1 396.6,331.3 
		396.1,328 401.8,321.4 400.7,316.5 408.5,310.9 412.7,312.9 	"/>
	<polygon id="Paris_1_" class="st10" points="416.4,305.4 416.9,306.5 414,308.4 412.6,307.9 410.6,307.2 409.6,304.1 412.7,303.4 
		415.4,302.7 	"/>
	<polygon id="Haut-de-Seine" class="st8" points="412.6,302.8 412.7,303.4 409.6,304.1 410.6,307.2 412.6,307.9 412.4,308.4 
		412.7,312.9 408.5,310.9 405.8,305.4 407.8,301.1 412.2,299.8 	"/>
	<polygon id="Loir-et-Cher_1_" class="st6" points="409.6,381.7 403.3,387 409.1,391.8 404.3,403.4 396.3,405.2 392.7,409.7 
		385.8,406.1 369.3,410.6 359.8,403.5 357.5,385.6 349.9,379.4 336.5,376.9 347.9,365.2 346.9,355.5 351.3,349.3 367.2,361.6 
		377.5,360.1 379.7,374.3 386.4,377.6 391.1,382.1 407.6,380.5 	"/>
	<polygon id="Yvelines_1_" class="st9" points="405.8,305.4 408.5,310.9 400.7,316.5 401.8,321.4 396.1,328 396.6,331.3 
		395.6,331.4 391.1,329.5 389.7,325.3 382,316.5 382.8,305.7 378.2,299.4 377.9,299.2 379.2,297.1 377,292.1 383.2,290.2 
		407.8,301.1 	"/>
	<polygon id="Indre_1_" class="st6" points="401.8,440.2 406.3,446.8 404,460.5 387,458.1 385.7,461.6 370.7,462 362,462.3 
		362.4,459 349,447.1 349.4,439.7 353.7,437.4 357.4,421.4 364.8,422.1 370.7,415.6 369.3,410.6 385.8,406.1 392.7,409.7 
		388.3,414.3 393.3,417 399.8,416.2 405,430.6 	"/>
	<polygon id="Eure-et-Loir_1_" class="st6" points="396.6,331.3 397.9,341.1 397.2,348.5 392.4,354.9 387.2,356.2 382.5,355.1 
		377.5,360.1 367.2,361.6 351.3,349.3 348.3,347 346,338 354.8,332.8 354.4,324.7 349.8,320.7 348.9,316.5 371.2,310.6 377.9,299.2 
		378.2,299.4 382.8,305.7 382,316.5 389.7,325.3 391.1,329.5 395.6,331.4 	"/>
	<polygon id="Haute-Vienne_1_" class="st9" points="392.7,501.6 392,506.2 391.8,507.6 364,520.7 356.9,519.2 353.4,511.7 
		346.2,510.3 343.2,512.9 335.9,505.5 336.5,500.7 344.3,495.8 344,491 349.8,488.6 349.1,484.5 345.6,477.3 344.2,472.7 
		348.2,467.6 362,462.3 370.7,462 372.5,466.3 369.8,473.2 376.9,482.6 376.1,491.6 379.1,496.9 386.8,497.6 	"/>
	<polygon id="Seine-Maritime_1_" class="st10" points="390.5,247.1 391.1,264.2 388,270.3 373.7,267 369.5,273.4 357.1,278.7 
		354.8,272.4 337.8,264.4 328.7,266.9 319,262.1 325.5,248.1 362.2,235.5 373.1,226.6 	"/>
	<polygon id="Eure_1_" class="st6" points="388,270.3 388.1,278.4 383.2,290.2 377,292.1 379.2,297.1 377.9,299.2 371.2,310.6 
		348.9,316.5 345.7,314.3 347,310.9 339.9,302.5 333.8,302.2 332.1,300 331.8,297.6 328.7,266.9 337.8,264.4 354.8,272.4 
		357.1,278.7 369.5,273.4 373.7,267 	"/>
	<polygon id="Dordogne_1_" class="st8" points="371.2,549.3 371.7,555.4 355.3,575.4 350.1,572.7 342.8,575 335.1,570.2 
		324.1,571.9 317.6,563.4 319.7,558.6 317,556.8 314.2,560.1 306.8,557.3 309.6,543.2 304.1,540.7 308.2,534.5 313.1,534.5 
		318.7,529.2 318.4,520.7 329.4,513.8 335.9,505.5 343.2,512.9 346.2,510.3 353.4,511.7 356.9,519.2 364,520.7 365.6,527.2 
		362,531.7 	"/>
	<polygon id="Indre-et-Loire_1_" class="st8" points="369.3,410.6 370.7,415.6 364.8,422.1 357.4,421.4 353.7,437.4 349.4,439.7 
		340.6,424 323.8,425.6 324,418.8 313.8,410.2 319.6,397.1 320.3,385 328.7,385 336.5,376.9 349.9,379.4 357.5,385.6 359.8,403.5 	
		"/>
	<polygon id="Vienne_1_" class="st9" points="362.4,459 362,462.3 348.2,467.6 344.2,472.7 345.6,477.3 334.5,480.8 331.3,477.3 
		329,478.1 329.3,481.2 313.8,479 317.8,477.6 318.6,475.4 313.8,472.1 316.3,467.3 314.9,462.8 309.9,463.2 310.9,430.4 
		306.1,417.1 313.8,410.2 324,418.8 323.8,425.6 340.6,424 349.4,439.7 349,447.1 	"/>
	<polygon id="Lot-et-Garonne_1_" class="st6" points="355.3,575.4 354.2,578.3 349.8,578.5 353.7,589.9 348.9,590.7 345.4,589.2 
		344,593.7 346.4,596.4 344.8,604.7 334.9,611.2 331.6,607.9 325,608.5 323.3,611.5 306.6,612 308.4,603.9 298.5,602.8 297.3,597.7 
		301.8,595.8 305.6,588.4 313.3,570.6 309.9,568.2 310.7,566.1 317.6,563.4 324.1,571.9 335.1,570.2 342.8,575 350.1,572.7 	"/>
	<polygon id="Orne_1_" class="st8" points="354.4,324.7 354.8,332.8 346,338 348.3,347 336.5,342.5 330.7,337.9 328.7,328.6 
		322,327.7 316,333.1 312.2,332.5 305.6,321.2 293.3,324 281.9,328 276,322.8 280.3,321.9 283.3,312.5 279.7,308.5 297.4,301.4 
		309.2,304.8 320.9,297.4 331.8,297.6 332.1,300 333.8,302.2 339.9,302.5 347,310.9 345.7,314.3 348.9,316.5 349.8,320.7 	"/>
	<polygon id="Sarthe_1_" class="st8" points="351.3,349.3 346.9,355.5 347.9,365.2 336.5,376.9 328.7,385 320.3,385 295.5,371.9 
		296.3,363.8 307.3,344 307.5,336.4 312.2,332.5 316,333.1 322,327.7 328.7,328.6 330.7,337.9 336.5,342.5 348.3,347 	"/>
	<polygon id="Charente_1_" class="st6" points="349.1,484.5 349.8,488.6 344,491 344.3,495.8 336.5,500.7 335.9,505.5 329.4,513.8 
		318.4,520.7 318.7,529.2 313.1,534.5 308.2,534.5 293.6,524.3 295.5,514.3 289.1,506.9 288.3,499.2 301.2,498.1 304.9,486.1 
		307.5,481.3 313.8,479 329.3,481.2 329,478.1 331.3,477.3 334.5,480.8 345.6,477.3 	"/>
	<polygon id="Calvados_1_" class="st7" points="328.7,266.9 331.8,297.6 320.9,297.4 309.2,304.8 297.4,301.4 279.7,308.5 
		271.5,306.2 267.3,300.9 279.2,287.7 269,274 269.8,268.6 275.3,267.2 279.3,269.2 298.3,272 305.7,276.2 	"/>
	<polygon id="Maine-et-Loire_1_" class="st7" points="320.3,385 319.6,397.1 313.8,410.2 306.1,417.1 286.6,415.9 283.5,420.9 
		271.2,418.3 261.8,416.3 257.5,396.3 269.6,394.7 269.6,387.4 258.9,369.2 285.6,373.2 295.5,371.9 	"/>
	<polygon id="Gironde" class="st11" points="319.7,558.6 317.6,563.4 310.7,566.1 309.9,568.2 313.3,570.6 305.6,588.4 301.8,595.8 
		297.3,597.7 292.8,599.5 286.5,598.1 285,592.4 273.6,581.2 259.3,583.6 259.2,579.1 255.6,576.5 246.8,580.1 247,577.8 
		250.9,573.5 258.7,573.5 259.2,569.9 252.4,561.5 246.8,568.3 254.9,511.7 257.3,510.7 258.5,516.6 269.6,524.1 274.4,540.7 
		275.9,538.3 273.7,526.6 287.2,529.6 288,536.6 304.1,540.7 309.6,543.2 306.8,557.3 314.2,560.1 317,556.8 	"/>
	<polygon id="Deux-Sèvres_1_" class="st6" points="318.6,475.4 317.8,477.6 313.8,479 307.5,481.3 304.9,486.1 301.2,484.9 
		300.6,482.2 278.4,471.7 275.9,464.5 285.6,459.5 281.2,437.6 271.2,418.3 283.5,420.9 286.6,415.9 306.1,417.1 310.9,430.4 
		309.9,463.2 314.9,462.8 316.3,467.3 313.8,472.1 	"/>
	<polygon id="Mayenne_1_" class="st6" points="305.6,321.2 312.2,332.5 307.5,336.4 307.3,344 296.3,363.8 295.5,371.9 285.6,373.2 
		258.9,369.2 264.1,356.6 269.6,355.1 267.3,339.1 269.6,334.5 268,322.2 273.3,323.4 276,322.8 281.9,328 293.3,324 	"/>
	<polygon id="Charente-Maritime_1_" class="st9" points="308.2,534.5 304.1,540.7 288,536.6 287.2,529.6 273.7,526.6 272.1,518.2 
		252.2,502.8 250.7,490.1 245.7,486.3 246.2,478.7 254.4,489.1 258.4,491.1 261.3,480.1 237.5,466.3 242.5,463.2 255,470.9 
		257.4,464.4 264.1,460.4 275.9,464.5 278.4,471.7 300.6,482.2 301.2,484.9 304.9,486.1 301.2,498.1 288.3,499.2 289.1,506.9 
		295.5,514.3 293.6,524.3 	"/>
	<polygon id="Tarn-et-Garonne_1_" class="st6" points="388.3,607.9 393.1,604.4 390.2,592.5 384.1,594.3 377.7,599.5 367.9,600.2 
		359.6,596.6 353.7,589.9 348.9,590.7 345.4,589.2 344,593.7 346.4,596.4 344.8,604.7 334.9,611.2 347.1,625.9 347.1,625.9 
		347.1,625.9 357.2,625.7 359.4,628.3 365.7,624.8 365.6,623 365.6,621.2 374.6,620.8 380.7,613.8 380.2,611.2 380.2,611.2 
		379.9,609.5 	"/>
	<polygon id="Aude_1_" class="st9" points="407.5,649.6 405.3,653.6 396,650.9 390.5,652.5 388.3,649.6 385.8,652.5 383.3,656.2 
		378.5,662 391.3,670.2 393.7,685.9 388.3,687.5 386.8,689.6 393.8,695.6 397.9,693.5 402.8,699.4 411.3,694.8 409.6,688.8 
		430.4,689 434.8,683.6 443.1,688.5 443.3,675.9 438.5,672.8 440.3,670 444.5,673.1 449.8,666.4 435.4,657.5 432.4,661.4 429,663.6 
		423.5,660.4 420,655.8 421.1,650.8 	"/>
	<polygon id="Pyrénées-Orientales_1_" class="st9" points="430.4,689 409.6,688.8 411.3,694.8 402.8,699.4 380.7,706.3 
		383.8,711.3 390.9,713.6 391.1,717.5 397.2,720.2 401,716.4 405.6,716.3 416.9,724 425,724 434,714.6 440.8,713 444.2,715.8 
		448.3,717 448.3,711.2 444.2,706.7 443.1,688.5 434.8,683.6 	"/>
	<polygon id="Tarn_1_" class="st9" points="374.6,620.8 396.1,646.6 396,650.9 405.3,653.6 407.5,649.6 421.1,650.8 425.8,649.4 
		427.1,645.4 423.7,642.2 426.5,636.4 429.6,638.6 438.9,635.4 434.9,630.7 425.7,630.5 418.6,613.8 402.2,602.9 393.1,604.4 
		388.3,607.9 379.9,609.5 380.2,611.2 380.7,613.8 	"/>
	<polygon id="Ariège_1_" class="st9" points="397.9,693.5 393.8,695.6 386.8,689.6 388.3,687.5 393.7,685.9 391.3,670.2 378.5,662 
		370.6,659.9 364.1,658.1 362.1,660.2 365.6,663.6 360.6,671.7 354.5,668.7 347.3,671.6 348.3,677.5 340.7,682.8 340.7,689.5 
		350.4,693.4 354,700 362,700 367.1,703.9 378.5,702.7 380.7,706.3 402.8,699.4 	"/>
	<polygon id="Haute-Garonne_1_" class="st11" points="348.3,677.5 347.3,671.6 354.5,668.7 360.6,671.7 365.6,663.6 362.1,660.2 
		364.1,658.1 370.6,659.9 378.5,662 383.3,656.2 385.8,652.5 388.3,649.6 390.5,652.5 396,650.9 396.1,646.6 374.6,620.8 
		365.6,621.2 365.7,624.8 359.4,628.3 357.2,625.7 347.1,625.9 357.9,639 352.3,643.3 347.6,654 343.1,651.6 337.2,651.1 331,657.4 
		323.1,669.2 330.6,680.8 326.6,685.9 321.7,683.6 322.6,695.5 319.7,696.2 331.5,697.3 332,686.5 340.7,689.5 340.7,682.8 	"/>
	<polygon id="Gers_1_" class="st9" points="304.9,618.2 302,613.5 291,617.1 294.7,622.7 291.3,637.8 297,638.6 302.6,637.5 
		307.5,643.1 310.4,651.3 331,657.4 337.2,651.1 343.1,651.6 347.6,654 352.3,643.3 357.9,639 347.1,625.9 342,619.8 334.9,611.2 
		331.6,607.9 325,608.5 323.3,611.5 306.6,612 306.6,617.7 	"/>
	<polygon id="Hautes-Pyrénées_1_" class="st10" points="321.7,683.6 326.6,685.9 330.6,680.8 323.1,669.2 331,657.4 310.4,651.3 
		307.5,643.1 302.6,637.5 297,638.6 303,653.6 288.2,672.5 285.6,685.3 292.6,690 298.6,696.4 307.6,693.4 313.5,697.7 319.7,696.2 
		322.6,695.5 	"/>
	<polygon id="Landes_1_" class="st8" points="291.3,637.8 294.7,622.7 291,617.1 302,613.5 304.9,618.2 306.6,617.7 306.6,612 
		308.4,603.9 298.5,602.8 297.3,597.7 292.8,599.5 286.5,598.1 285,592.4 273.6,581.2 259.3,583.6 259.2,579.1 255.6,576.5 
		246.8,580.1 234.6,632.7 231.3,638.3 238.8,641.4 	"/>
	<polygon id="Pyrénées-Atlantiques_1_" class="st11" points="215.9,647.9 215.9,651.8 235,658.1 234.3,664.7 231.6,666.2 
		237.5,672.7 239.6,667.8 258,677.6 265.3,677.7 265.7,682.3 272.8,688.5 285.6,685.3 288.2,672.5 303,653.6 297,638.6 291.3,637.8 
		238.8,641.4 231.3,638.3 225.3,646 225.3,646 	"/>
	<polygon id="Vendée_1_" class="st9" points="281.2,437.6 285.6,459.5 275.9,464.5 264.1,460.4 257.4,464.4 228.5,449.4 216,428.3 
		216.1,423 223.4,414.3 235.7,425.1 244.9,425 242.7,417.5 246.1,416 247.7,422.5 256.8,414.2 261.8,416.3 271.2,418.3 	"/>
	<polygon id="Manche_1_" class="st8" points="279.7,308.5 283.3,312.5 280.3,321.9 276,322.8 273.3,323.4 268,322.2 263.3,321.2 
		256.1,325.8 250.6,322.1 248.7,315.1 255,312.9 247,302.8 249.9,297.2 247.5,277.9 239.4,263.4 239.4,249.5 234.8,245.9 235.7,244 
		248.4,250.1 252.9,248 264.1,248 266.1,253.8 261.9,257 269.8,268.6 269,274 279.2,287.7 267.3,300.9 271.5,306.2 	"/>
	<polygon id="Loire-Atlantique_1_" class="st7" points="269.6,387.4 269.6,394.7 257.5,396.3 261.8,416.3 256.8,414.2 247.7,422.5 
		246.1,416 242.7,417.5 244.9,425 235.7,425.1 223.4,414.3 218.1,410.2 211.4,408.9 213.9,406.1 213.9,400 199.1,397.5 203.8,387.3 
		221.9,382.3 223.4,375.4 240.3,372.6 249.6,365 258.9,369.2 	"/>
	<polygon id="Ille-et-Vilaine_1_" class="st7" points="267.3,339.1 269.6,355.1 264.1,356.6 258.9,369.2 249.6,365 240.3,372.6 
		223.4,375.4 220.5,368.3 225.2,362.4 221.5,352.9 214.4,352.9 217.6,344.9 221.2,335.9 231.1,334.7 233.4,320.7 230.2,316.5 
		229.3,311.2 231.4,308.8 236.7,309.1 238,315 248.7,315.1 250.6,322.1 256.1,325.8 263.3,321.2 268,322.2 269.6,334.5 	"/>
	<polygon id="Côtes-d_x27_Armor_1_" class="st9" points="230.2,316.5 233.4,320.7 231.1,334.7 221.2,335.9 217.6,344.9 
		213.4,344.5 208,341.1 202.8,346.2 183,337.4 176.8,341.1 163.7,335.9 160.8,308.8 161.5,304.6 162.9,296.4 185.8,295.1 
		194.4,312.7 199,316.5 215.4,309.5 229.3,311.2 	"/>
	<polygon id="Morbihan_1_" class="st9" points="221.5,352.9 225.2,362.4 220.5,368.3 223.4,375.4 221.9,382.3 203.8,387.3 
		189.8,384 176.2,376.9 160.9,363.7 162,359.4 167.4,357.4 168.5,353.1 157.3,348.9 154.7,339.8 163.7,335.9 176.8,341.1 183,337.4 
		202.8,346.2 208,341.1 213.4,344.5 217.6,344.9 214.4,352.9 	"/>
	<polygon id="Finistère_1_" class="st9" points="168.5,353.1 167.4,357.4 162,359.4 160.9,363.7 146.2,361.3 134.9,355.3 
		133.8,359 125.4,358.6 125.7,355.2 120.1,344.3 112.2,342.4 112.3,339.6 129.6,338.8 130.4,334.4 116.1,327.1 119.8,325.2 
		133.6,327.5 124.5,321.9 110.6,322.9 113.6,308.7 139.5,301.3 149.8,305.1 152,302.7 161.5,304.6 160.8,308.8 163.7,335.9 
		154.7,339.8 157.3,348.9 	"/>
	<polygon id="Corrèze_1_" class="st9" points="419.5,521.9 420.1,526.1 416.6,527.6 412.5,524 405.4,536.5 404,545.7 399.7,552.6 
		386.3,555.8 382.1,549.6 376.5,547.1 371.2,549.3 362,531.7 365.6,527.2 364,520.7 391.8,507.6 392,506.2 405,504.5 409.6,508.1 
		419.4,504.3 418.3,511.2 419.6,515.8 	"/>
	<polygon id="Lot_1_" class="st6" points="399.7,552.6 403.2,574.9 401,577.8 389.1,584.4 390.2,592.5 384.1,594.3 377.7,599.5 
		367.9,600.2 359.6,596.6 353.7,589.9 349.8,578.5 354.2,578.3 355.3,575.4 371.7,555.4 371.2,549.3 376.5,547.1 382.1,549.6 
		386.3,555.8 	"/>
	<polygon id="Loiret_1_" class="st8" points="438.5,347.2 447.1,361.6 441,367.5 442.5,373 438.5,375.4 435,375.1 439.7,387.4 
		435.3,388.7 436.1,391.3 427.8,393.1 409.6,381.7 407.6,380.5 391.1,382.1 386.4,377.6 379.7,374.3 377.5,360.1 382.5,355.1 
		387.2,356.2 392.4,354.9 397.2,348.5 397.9,341.1 416,340.3 416.9,340.4 416.8,341.6 420.8,345 417.5,351.1 419.4,352.9 
		433.4,351.5 	"/>
</g>
<polygon id="FRANCE_3_" class="st12" points="656.2,610.3 656.2,610.3 655,597.3 638.1,601.2 619,587.9 617.8,580 618.8,579 
	622.7,575.2 622.5,568.8 622.2,568.5 626.4,564.6 626.4,564.6 622.5,555.8 611.6,553.2 604.9,540.1 604.9,540.1 616.3,539 
	626.3,531.4 629,520.7 629,520.7 610.1,496.1 610.1,496.1 611.9,494.1 619.4,491.1 619.5,489.2 619.6,488.2 619.9,484 609.3,470.8 
	609.3,470.8 611.7,468.2 611.7,468.2 607.6,458.1 591.2,462 588.5,460.2 584.3,465.8 584.3,465.8 586.9,469.7 579.6,475.2 
	572.5,475.1 572.5,470.8 579,468.8 581.9,460 577.1,458.3 578.2,448.9 592.1,434.8 592.1,434.8 591.1,424.3 591.1,424.3 
	599.6,420.4 601,418.6 617.8,396.7 617.8,396.7 617.8,396.7 614.8,389.4 619.4,388.4 620,388.1 622.5,391.7 631.2,391.8 
	635.2,388.3 637.7,380.6 633.4,373.8 638.3,356.1 636,346 641.8,334.9 644.6,312.6 650.3,308.5 661,291.5 648.6,286.4 635.6,287.1 
	628.6,280.4 623,280.2 619.9,283 612.5,283.2 606.2,278.4 602.1,278.4 601.1,281.3 597.1,281.8 589.8,266.4 581.9,263.2 576,260.8 
	572.6,260.9 563.7,263.4 557,258.4 543.8,260.8 538.6,257 536.7,251.7 518.6,244.3 518.2,221.5 514,221.5 509.8,231.3 499.7,235.6 
	492.4,233.1 488,233.1 487.5,231.5 491.8,228.3 491.5,216.5 483.7,209.2 471.4,209.7 470.1,211.9 468.5,211.9 469,204.2 
	461.2,198.7 456.9,200.6 452.4,198.6 451.4,187 447.5,182.1 439.2,184.1 433.9,187.3 431.5,182.7 429.3,180.2 425,177.8 
	426.5,171.7 422.8,162.7 404.3,167.7 392.2,169.9 382.5,177.2 382.2,207.6 373.2,226.6 362.3,235.5 325.6,248.1 319.1,262.1 
	328.8,266.9 305.9,276.2 298.5,272 279.3,269.2 275.3,267.2 269.8,268.6 261.9,257 266.1,253.8 264.1,248 252.9,248 248.4,250.1 
	235.7,244 234.8,245.9 239.4,249.5 239.4,263.4 247.5,277.9 249.9,297.2 247.2,302.9 255.2,313 248.9,315.1 238.1,315 236.8,309.1 
	231.6,308.8 229.5,311.2 215.5,309.5 199.1,316.5 194.5,312.7 185.9,295.1 163.1,296.4 161.7,304.6 152.1,302.7 149.9,305.1 
	139.6,301.3 113.8,308.7 110.8,322.9 124.6,321.9 133.8,327.5 120,325.2 116.3,327.1 130.6,334.4 129.7,338.8 112.4,339.6 
	112.4,342.4 120.2,344.3 125.9,355.2 125.6,358.6 133.9,359 135,355.3 146.4,361.3 161,363.7 175.8,376.7 190,384 204,387.3 
	199.1,397.5 213.9,400 213.9,406.1 211.4,408.9 218.1,410.2 223.4,414.3 216.1,423 216,428.3 228.5,449.4 257.5,464.4 255.1,470.9 
	242.6,463.2 237.6,466.3 261.4,480.1 258.5,491.1 254.6,489.1 246.3,478.7 245.8,486.3 250.8,490.1 252.4,502.8 272.3,518.2 
	273.9,526.6 276.1,538.3 274.6,540.7 269.8,524.1 258.7,516.6 257.5,510.7 255.1,511.7 254,520 247,568.3 252.4,561.5 259.2,569.9 
	258.7,573.5 250.9,573.5 247,577.8 247,581.5 234.7,633.5 231.4,638.7 225.3,646 215.9,647.9 215.9,651.8 235,658.1 234.3,664.7 
	231.6,666.2 237.5,672.7 239.6,667.8 258.1,677.6 262.5,677.7 262.7,677.7 265.4,677.7 265.4,677.7 265.4,677.7 265.8,682.3 
	272.3,687.9 273,688.5 273,688.5 285.7,685.3 292.7,690 298.7,696.4 307.8,693.4 313.7,697.8 319.9,696.2 331.6,697.4 332,686.5 
	340.7,689.5 350.4,693.4 354,700 362,700 367.1,703.9 378.5,702.7 384.1,711.5 391,713.8 391.1,717.5 397.2,720.2 401,716.4 
	405.6,716.3 416.9,724 425,724 434,714.6 440.8,713 444.2,715.8 448.3,717 448.3,711.2 444.2,707.1 443.2,688.7 443.5,676 
	438.7,672.9 440.5,670 444.7,673.1 450,666.4 486.4,643.9 490.5,644.2 492.8,648.8 500.5,648.7 516.6,649.8 513.7,653.9 
	523.9,657.9 529.7,656.1 527.1,651.2 532.6,651.9 536.3,656.2 550.5,655.7 552.7,663.6 567.1,667.5 573.2,673.9 580.6,670.3 
	588.7,671.1 598.6,669.8 613.3,661.8 612.3,655.2 624.6,644.4 633,638.8 633.3,632 638.3,631.6 650.9,623 650.9,622.9 651.4,611.8 
	"/>
</svg>
