<svg id="Calque_1" data-name="Calque 1" xmlns="http://www.w3.org/2000/svg" viewBox="0 0 769 801"><defs><style>.cls-1{fill:#ede6d8;}.cls-1,.cls-10,.cls-11,.cls-12,.cls-13,.cls-14,.cls-8,.cls-9{stroke:#fff;}.cls-1,.cls-14,.cls-9{stroke-miterlimit:10;}.cls-11,.cls-14,.cls-2{fill:#fad2db;}.cls-3{fill:#ef6d89;}.cls-10,.cls-4{fill:#f6b0bf;}.cls-12,.cls-13,.cls-5{fill:#f28ea4;}.cls-6{fill:#eb4b6d;}.cls-7,.cls-8{fill:#e61e49;}.cls-10,.cls-11,.cls-12,.cls-13,.cls-8{stroke-linecap:round;stroke-linejoin:round;}.cls-9{fill:none;}.cls-13{stroke-width:0.5px;}.cls-15{fill:#fff;}</style></defs><title>cartesTOURFRANCE-departs-arrivees1947-2019</title><rect class="cls-1" x="0.94" y="0.5" width="767.34" height="800"/><polygon id="Var" class="cls-2" points="608.59 623.49 623.95 644.82 611.59 655.68 612.61 662.22 597.91 670.24 587.99 671.55 579.92 670.72 572.54 674.39 566.39 667.98 569.65 659.87 565.88 655.36 570.53 650.56 565.88 641.84 569.83 630.14 580.99 632.82 608.59 623.49"/><polygon id="Bouches-du_Rhône" data-name="Bouches-du)Rhône" class="cls-3" points="565.88 641.84 570.53 650.56 565.88 655.36 569.65 659.87 566.39 667.98 551.99 664.02 549.8 656.15 535.63 656.61 531.9 652.38 526.47 651.63 529.03 656.51 523.24 658.32 513.01 654.33 515.95 650.28 499.81 649.15 509.07 633.89 515.49 633.33 517.48 622.43 526.2 617.58 526.2 620.09 537.91 629.07 557.58 634.59 569.82 630.14 569.83 630.14 565.88 641.84"/><polygon id="Drôme" class="cls-4" points="569.83 569.2 561.12 571.97 559.51 578.75 561.92 580.73 559.47 583.55 552.94 581.74 551.99 589.66 563.74 596.06 562.98 602.92 556.65 606.09 549.7 600.56 540.76 599.77 534.02 594.68 535.11 589.93 532.09 587.03 526.58 590.94 529.37 597.16 525.42 599.22 519.69 593.93 518.29 583.49 521.53 575.24 526.47 555.06 521.84 538.47 522.18 529.75 524.53 531.68 530.27 528.65 539.99 535.38 538.22 544.44 549.17 547.87 553.01 544.82 553.06 562.65 569.83 569.2"/><polygon id="Vaucluse" class="cls-5" points="569.82 630.14 557.58 634.59 537.91 629.07 526.2 620.09 526.2 617.58 526.2 614.76 519.74 608.22 519.78 603.25 513.92 594.68 513.91 594.61 519.69 593.93 525.42 599.22 529.37 597.16 526.58 590.94 532.09 587.03 535.11 589.93 534.02 594.68 540.76 599.77 549.7 600.56 556.65 606.09 558.65 622.72 568.12 629.74 569.82 630.14"/><polygon id="Haute-Marne" class="cls-2" points="564 362.44 555.91 371.34 555.91 379.45 544.36 380 544.28 383.61 538.39 385.41 534.48 379.91 525.52 379.17 526.25 371.09 514.76 358.55 514.46 357 513.74 353.32 520.28 351.05 518.87 337.57 515.1 336.2 511.15 330.6 511.15 325.64 514.97 325.72 519.66 322.43 520.38 316.9 524.04 316.07 525.61 320.28 544.76 332.49 544.28 336.62 557.55 346.37 554.22 353.59 564 362.44"/><polygon id="Marne" class="cls-5" points="463.58 320.81 460.57 319.93 461.08 305.82 469.75 295.48 472.01 286.53 468.16 276.65 484.39 272.42 518.23 280.86 521.32 279.4 526.7 294.01 520.88 307.52 524.04 316.07 520.38 316.9 519.66 322.43 514.97 325.72 511.15 325.64 499.84 325.38 495.48 314.9 492.15 314.63 473.86 323.83 463.58 320.81"/><polygon id="Ardèche" class="cls-2" points="521.84 538.47 526.47 555.06 521.53 575.24 518.29 583.49 519.69 593.93 513.91 594.61 499.81 596.28 489.83 594.66 486.06 587.2 485.25 585.61 482.24 576.93 480.25 568.2 489.16 559.09 494.41 559.14 506.19 541.51 507.47 536.15 519.56 527.6 522.18 529.75 521.84 538.47"/><polygon id="Gard" class="cls-4" points="526.2 614.76 526.2 617.58 517.48 622.43 515.49 633.33 509.07 633.89 499.81 649.15 492.1 649.19 489.84 644.63 495.68 639.8 493.37 631.27 479.56 624.03 477.66 617.26 474.09 616.84 467.89 624.7 457.42 620.17 463.12 616.59 460.56 612.07 453.73 609.89 457.31 604.05 464.03 608.63 470.81 606.09 475.75 606.73 481.49 607.37 484.12 603.43 484.38 593.35 481.26 589.95 486.06 587.2 489.83 594.66 499.81 596.28 513.91 594.61 513.92 594.68 519.78 603.25 519.74 608.22 526.2 614.76"/><polygon id="Aube" class="cls-4" points="518.87 337.57 520.28 351.05 513.74 353.32 514.46 357 514.38 357.02 507.07 360.83 497.3 364.08 494.33 364.05 479.89 363.89 466.43 348.47 467.15 342.55 461.52 336.58 457.61 336.38 457.36 335.25 458.55 324.69 463.58 320.81 473.86 323.83 492.15 314.63 495.48 314.9 499.84 325.38 511.15 325.64 511.15 330.6 515.1 336.2 518.87 337.57"/><polygon id="Loire" class="cls-3" points="520.28 520.6 519.56 527.6 507.47 536.15 494.7 525.85 487.44 529.96 482.3 528.24 484.89 521.38 482.99 514.15 477.31 510.36 472.38 501.14 475.06 494.36 470.74 490.22 477.07 489.33 476.77 477.7 475.24 473.79 475.89 471.39 480.52 470.97 486.15 476.72 503.35 472.46 505.57 477.15 503.36 479.06 498.98 479.06 497.29 484.08 500.08 494.33 503.36 497.81 501.61 507.93 520.28 520.6"/><polygon id="Haute-Loire" class="cls-2" points="507.47 536.15 506.19 541.51 494.41 559.14 489.16 559.09 480.25 568.2 475.76 562.35 462 563.9 457.61 552.38 450.99 534.98 445.64 533.56 443.99 530.67 443.7 530.27 444.91 529.39 462.52 525.25 469.14 529.75 481.73 529.75 482.3 528.24 487.44 529.96 494.7 525.85 507.47 536.15"/><polygon id="Yonne" class="cls-4" points="494.32 364.68 497.84 375.4 487.09 399.2 488.18 401.72 484.38 403.9 465.95 392.26 455.25 393.74 439.18 387.86 434.46 375.55 437.97 375.89 441.94 373.41 440.44 367.94 446.58 362.07 437.97 347.68 443.07 343.43 441.33 341.45 446.23 336.38 457.36 335.25 457.61 336.38 461.52 336.58 467.15 342.55 466.43 348.47 479.89 363.89 494.33 364.05 494.32 364.68"/><polygon id="Hérault" class="cls-6" points="493.37 631.27 495.68 639.8 489.84 644.63 485.76 644.3 449.31 666.87 434.88 657.91 431.87 661.85 428.42 664.02 422.97 660.79 419.44 656.21 420.54 651.28 425.25 649.85 426.54 645.83 423.17 642.68 425.99 636.86 429.05 639.02 438.41 635.8 443.98 633.89 443.75 625.23 450.45 627.15 457.42 620.17 467.89 624.7 474.09 616.84 477.66 617.26 479.56 624.03 493.37 631.27"/><polygon id="Nièvre" class="cls-2" points="488.18 401.72 493.72 414.6 486 416.66 488.21 437.08 475.76 441.85 472.93 440.11 469.14 441.55 462.77 445.66 449.21 444.67 442.88 439.99 443.08 437.18 443.99 424.71 436.17 404.01 437.55 398.57 435.55 391.7 435.54 391.7 434.79 389.11 439.18 387.86 455.25 393.74 465.95 392.26 484.38 403.9 488.18 401.72"/><polygon id="Lozère" class="cls-2" points="485.25 585.61 486.06 587.2 481.26 589.95 484.38 593.35 484.12 603.43 481.49 607.37 475.75 606.73 470.81 606.09 464.03 608.63 457.31 604.05 451.63 601.01 447.16 586.23 439.9 574.02 446.28 557.18 450.84 558.42 457.61 552.38 462 563.9 475.76 562.35 480.25 568.2 482.24 576.93 485.25 585.61"/><polygon id="Puy-de-Dôme" class="cls-5" points="482.99 514.15 484.89 521.38 482.3 528.24 481.73 529.75 469.14 529.75 462.52 525.25 444.91 529.39 443.7 530.27 441.16 532.13 432.64 525.92 427.69 527.24 425.01 523.2 418.99 522.31 419.03 516.23 417.74 511.6 418.85 504.78 413.93 498.22 423.85 489.54 421.06 479.06 425.01 481.68 434.51 472.02 437.87 472.04 436.86 475.39 446.23 483 455.55 484.03 459.36 482.74 470.74 490.22 475.06 494.36 472.38 501.14 477.31 510.36 482.99 514.15"/><polygon id="Allier" class="cls-4" points="484.39 457.06 484.27 467.08 480.52 470.97 475.89 471.39 475.24 473.79 476.77 477.7 477.07 489.33 470.74 490.22 459.36 482.74 455.55 484.03 446.23 483 436.86 475.39 437.87 472.04 434.51 472.02 425.01 481.68 421.06 479.06 418.51 469.39 411.36 466.03 408.61 460.33 411.59 454.69 416.13 453.87 420.88 454.69 423.93 452.06 421.55 446.63 428.64 440.33 430.18 443.6 437.65 436.69 442.69 437.15 443.08 437.18 442.88 439.99 449.21 444.67 462.77 445.66 469.14 441.55 473.46 453.18 484.39 457.06"/><polygon id="Seine-et-Marne" class="cls-4" points="463.58 320.81 458.55 324.69 457.36 335.25 446.23 336.38 441.33 341.45 443.07 343.43 437.97 347.68 432.9 351.9 418.88 353.32 416.93 351.54 420.28 345.45 416.31 342.05 416.32 340.79 416.35 337.64 421.28 334.45 422.31 315.39 422.71 307.92 423.32 296.81 423.57 292.04 439.8 291.06 444.07 289.35 448.52 295.97 461.08 305.82 460.57 319.93 463.58 320.81"/><polygon id="Aveyron" class="cls-4" points="460.56 612.07 463.12 616.59 457.42 620.17 450.45 627.15 443.75 625.23 443.98 633.89 438.41 635.8 434.33 631.18 425.19 630.89 418.06 614.28 401.67 603.33 392.55 604.82 389.67 592.92 388.56 584.79 400.51 578.22 402.69 575.31 405.14 575.64 410.14 572.6 417.56 573.58 422.61 560.03 429.49 555.74 434.39 559.18 436.52 565.4 439.9 574.02 447.16 586.23 451.63 601.01 457.31 604.05 453.73 609.89 460.56 612.07"/><polygon id="Cantal" class="cls-4" points="450.99 534.98 457.61 552.38 450.84 558.42 446.28 557.18 439.9 574.02 436.52 565.4 434.39 559.18 429.49 555.74 422.61 560.03 417.56 573.58 410.14 572.6 405.14 575.64 402.69 575.31 399.13 552.99 403.43 546.09 404.84 536.89 411.95 524.48 416.09 528.02 419.61 526.51 418.99 522.31 425.01 523.2 427.69 527.24 432.64 525.92 441.16 532.13 443.7 530.27 443.99 530.67 445.64 533.56 450.99 534.98"/><polygon id="Bas-Rhin" class="cls-5" points="641.27 335.35 644.09 313.02 649.8 308.94 660.45 291.93 648.05 286.81 635.09 287.54 631.8 295.57 622.59 295.03 611.03 289.89 607.01 297.53 622.71 305.77 622.01 313.88 616.68 322.35 614.1 321.49 614.1 325.72 615.25 333.98 618.12 335.75 635.47 346.48 641.27 335.35"/><polygon id="Alpes-Maritimes" class="cls-5" points="650.71 612.22 655.56 610.72 654.33 597.78 637.46 601.6 618.29 588.36 612.42 594.62 610.36 602.55 621.84 615.3 611.03 618.61 608.59 623.49 609.48 624.72 623.95 644.82 632.33 639.22 632.6 632.42 637.65 632.04 650.19 623.39 650.2 623.39 650.71 612.22"/><polygon id="Haut-Rhin" class="cls-5" points="615.07 381.97 619.35 388.39 621.84 392.13 630.49 391.99 634.69 388.73 637.16 381.07 637.16 381.07 632.84 374.24 637.79 356.55 635.47 346.48 618.12 335.75 606.19 368.69 614.28 373.38 615.07 381.97"/><polygon id="Moselle" class="cls-5" points="572.04 261.39 563.18 263.83 566.56 287.62 563.95 290.37 573.33 299.03 577.97 299.53 582.89 307.49 614.1 321.49 616.68 322.35 622.01 313.88 622.71 305.77 607.01 297.53 611.03 289.89 622.59 295.03 631.8 295.57 635.09 287.54 628.1 280.86 622.46 280.67 619.36 283.48 611.93 283.63 605.64 278.8 601.54 278.85 600.56 281.79 596.84 282.2 589.16 266.89 581.24 263.63 575.34 261.21 572.04 261.39"/><polygon id="Savoie" class="cls-6" points="597.51 490.64 594.21 493.81 589.55 504.38 585.72 505.08 580.62 500.27 577.65 501.53 569.83 497.47 565.88 486.13 564.53 503.92 558.52 510.32 569.38 522.32 572.51 518.04 584.37 524.59 581.41 533.35 586.63 539.14 586.3 541.15 598.17 541.17 604.27 540.57 615.67 539.43 625.58 531.84 628.3 521.14 609.47 496.53 606.26 500.25 597.51 490.64"/><polygon id="Haute-Alpes" class="cls-7" points="573.99 590.75 583.21 582.28 590.1 587.49 593.68 582.58 606.36 583.08 621.56 568.91 625.71 565.05 621.84 556.28 610.92 553.61 604.27 540.57 598.17 541.17 586.3 541.15 585.4 546.77 591.5 551.21 593.2 556.9 569.83 569.2 567.68 569.88 561.12 571.97 559.51 578.75 561.92 580.73 559.47 583.55 552.94 581.74 551.99 589.66 563.74 596.06 562.98 602.92 574.12 600.04 573.99 590.75"/><polygon id="Alpes-de-Haute-Provence" class="cls-4" points="611.03 618.61 621.84 615.3 610.36 602.55 612.42 594.62 618.29 588.36 617.09 580.45 622 575.64 621.84 569.2 621.56 568.91 606.36 583.08 593.68 582.58 590.1 587.49 583.21 582.28 573.99 590.75 574.12 600.04 562.98 602.92 556.65 606.09 558.65 622.72 568.12 629.74 569.82 630.14 569.83 630.14 580.99 632.82 604.45 624.89 608.59 623.49 611.03 618.61"/><polygon id="Territoire_de_Belfort" data-name="Territoire de Belfort" class="cls-4" points="618.74 388.8 619.35 388.39 615.07 381.97 614.28 373.38 606.19 368.69 602.42 370.97 601.54 383.99 614.1 389.79 618.74 388.8"/><polygon id="Haute-Savoie" class="cls-7" points="608.58 471.25 611.01 468.65 606.93 458.56 590.49 462.48 587.79 460.63 583.63 466.24 586.23 470.19 578.97 475.63 571.87 475.57 571.91 477.32 566.43 478.95 565.88 486.12 565.88 486.13 569.83 497.47 577.65 501.53 580.62 500.27 585.72 505.08 589.55 504.38 594.21 493.81 597.51 490.64 606.26 500.25 609.47 496.53 611.22 494.5 618.7 491.49 618.83 489.61 619.19 484.48 608.58 471.25"/><polygon id="Vosges" class="cls-5" points="576.09 357.5 580.43 361.91 606.19 368.69 618.12 335.75 615.25 333.98 614.1 325.72 601.99 330.64 575.61 331.67 572.94 334.52 567 334.82 558.06 326.82 544.76 332.49 544.28 336.62 557.55 346.37 554.22 353.59 564 362.44 570.83 357.24 576.09 357.5"/><polygon id="Doubs" class="cls-3" points="560.66 419.94 570.7 421.78 570.96 429.49 578.01 431.72 580.8 437.27 575.41 440.53 577.65 449.33 591.58 435.2 591.24 424.69 599.37 420.83 617.09 397.13 614.1 389.79 601.54 383.99 595.83 389.12 587.79 387.76 558.49 403.52 563.57 412.29 560.66 419.94"/><polygon id="Meurthe-et-Moselle" class="cls-5" points="582.89 307.49 577.97 299.53 573.33 299.03 563.95 290.37 566.56 287.62 563.18 263.83 557.75 259.9 556.3 258.84 543.13 261.21 545.88 268.35 551.7 267.11 556.12 275.09 561.08 298.3 558.06 326.82 567 334.82 572.94 334.52 575.61 331.67 601.99 330.64 614.1 325.72 614.1 321.49 582.89 307.49"/><polygon id="Haute-Saône" class="cls-2" points="544.28 393.73 549.62 400.92 553.08 405.58 558.49 403.52 587.79 387.76 595.83 389.12 601.54 383.99 602.42 370.97 606.19 368.69 580.43 361.91 576.09 357.5 570.83 357.24 564 362.44 555.91 371.34 555.91 379.45 544.36 380 544.28 383.61 548.67 387.92 544.28 393.73"/><polygon id="Isère" class="cls-7" points="593.2 556.9 591.5 551.21 585.4 546.77 586.3 541.15 586.63 539.14 581.41 533.35 584.37 524.59 572.51 518.04 569.38 522.32 558.52 510.32 545.1 494.47 540.76 501.1 534.02 499.74 536.92 504.67 532.11 510.79 522.07 513.48 524.89 518.37 520.28 520.6 519.56 527.6 522.18 529.75 524.53 531.68 530.27 528.65 539.99 535.38 538.22 544.44 549.17 547.87 553.01 544.82 553.06 562.65 567.27 568.2 569.83 569.2 593.2 556.9"/><polygon id="Ain" class="cls-5" points="565.88 486.13 565.88 486.12 566.43 478.95 571.91 477.32 571.87 475.57 571.79 471.4 578.35 469.49 581.14 460.92 576.44 458.93 567.25 468.87 560.91 468.82 560.93 466.19 557.45 464.41 549.94 469.39 540.12 457.74 526.7 453.87 520.19 474.39 517.74 490.2 534.02 499.74 540.76 501.1 545.1 494.47 558.52 510.32 564.53 503.92 565.88 486.13"/><polygon id="Jura" class="cls-4" points="549.94 469.39 557.45 464.41 560.93 466.19 560.91 468.82 567.25 468.87 576.44 458.93 577.65 449.33 575.41 440.53 580.8 437.27 578.01 431.72 570.96 429.49 570.7 421.78 560.66 419.94 563.57 412.29 558.49 403.52 553.08 405.58 549.62 400.92 548.02 411.56 540.51 420.25 540.76 422.89 541.09 426.6 548.3 431.5 542.78 433.84 547.09 446.63 544.28 450.94 548.1 455.36 540.12 457.74 549.94 469.39"/><polygon id="Meuse" class="cls-2" points="561.08 298.3 556.12 275.09 551.7 267.11 545.88 268.35 543.13 261.21 537.91 257.36 534.88 260.34 529.43 257.91 526.29 263.56 528.8 267.36 526.61 276.91 521.32 279.4 526.7 294.01 520.88 307.52 524.04 316.07 525.61 320.28 544.76 332.49 558.06 326.82 561.08 298.3"/><polygon id="Côte-d_Or" data-name="Côte-d&apos;Or" class="cls-5" points="528.71 424.57 540.76 422.89 540.51 420.25 548.02 411.56 549.62 400.92 544.28 393.73 548.67 387.92 544.28 383.61 538.39 385.41 534.48 379.91 525.52 379.17 526.25 371.09 514.76 358.55 514.46 357 514.38 357.02 507.07 360.83 497.3 364.08 494.33 364.05 494.32 364.68 497.84 375.4 487.09 399.2 488.18 401.72 493.72 414.6 514.82 429.46 528.71 424.57"/><polygon id="Saône-et-Loire" class="cls-5" points="516 468.01 520.19 474.39 526.7 453.87 540.12 457.74 548.1 455.36 544.28 450.94 547.09 446.63 542.78 433.84 548.3 431.5 541.09 426.6 540.76 422.89 528.71 424.57 514.82 429.46 493.72 414.6 486 416.66 488.21 437.08 475.76 441.85 472.93 440.11 469.14 441.55 473.46 453.18 484.39 457.06 484.27 467.08 480.52 470.97 486.15 476.72 503.35 472.46 503.52 468.32 516 468.01"/><polygon id="Ardennes" class="cls-2" points="528.8 267.36 526.29 263.56 529.43 257.91 534.88 260.34 537.91 257.36 536 251.91 518.09 244.74 517.71 221.93 513.48 221.93 509.22 231.74 499.13 236.03 491.91 233.56 492.06 247.96 484.39 272.42 518.23 280.86 521.32 279.4 526.61 276.91 528.8 267.36"/><polygon id="Rhône" class="cls-5" points="522.07 513.48 532.11 510.79 536.92 504.67 534.02 499.74 517.74 490.2 520.19 474.39 516 468.01 503.52 468.32 503.35 472.46 505.57 477.15 503.36 479.06 498.98 479.06 497.29 484.08 500.08 494.33 503.36 497.81 501.61 507.93 520.28 520.6 524.89 518.37 522.07 513.48"/><polygon id="Aisne" class="cls-2" points="492.06 247.96 491.91 233.56 487.45 233.51 448.16 231.81 445.52 252.63 445.49 253.17 444.25 274.67 439.11 277.74 441.05 284.87 444.07 289.35 448.52 295.97 461.08 305.82 469.75 295.48 472.01 286.53 468.16 276.65 484.39 272.42 492.06 247.96"/><polygon id="Nord" class="cls-8" points="418.06 191.06 430.52 192.95 432.91 199 443.98 204.41 439.11 207.55 447.87 217.34 439.81 225.06 448.16 231.81 487.45 233.51 486.97 231.96 491.31 228.75 490.96 216.9 483.13 209.62 470.87 210.19 469.55 212.34 468.01 212.32 468.29 204.66 460.67 199.13 456.26 201.06 451.7 199.05 450.71 187.44 446.79 182.57 438.47 184.5 433.19 187.72 430.81 183.1 428.66 180.67 424.3 178.25 425.87 172.13 422.22 163.1 422.22 163.1 403.65 168.09 410.24 181.19 418.06 191.06"/><polygon id="Somme" class="cls-5" points="448.16 231.81 435.91 231.04 381.48 208.09 372.52 227.06 389.97 247.51 393.99 252.23 427.04 258.72 437.78 252.6 444.8 252.63 445.52 252.63 448.16 231.81"/><polygon id="Pas-de-Calais" class="cls-5" points="435.91 231.04 448.16 231.81 439.81 225.06 447.87 217.34 439.11 207.55 443.98 204.41 432.91 199 430.52 192.95 418.06 191.06 410.24 181.19 403.65 168.09 391.51 170.29 381.8 177.65 381.48 208.09 435.91 231.04"/><polygon id="Oise" class="cls-4" points="445.52 252.63 444.25 274.67 439.11 277.74 441.05 284.87 444.07 289.35 439.8 291.06 423.57 292.04 402.41 283.31 389.47 285.38 387.56 278.81 387.46 270.78 390.52 264.6 389.97 247.51 393.99 252.23 427.04 258.72 437.78 252.6 445.52 252.63"/><polygon id="Cher" class="cls-2" points="436.17 404.01 443.99 424.71 443.08 437.18 442.69 437.15 437.65 436.69 430.18 443.6 428.64 440.33 421.55 446.63 423.93 452.06 420.88 454.69 416.13 453.87 411.59 454.69 408.61 460.33 403.46 460.92 405.74 447.24 401.27 440.61 404.47 431.03 399.23 416.63 392.79 417.41 387.77 414.72 392.14 410.09 395.73 405.67 403.73 403.85 408.56 392.26 402.79 387.48 409.07 382.17 427.26 393.51 435.54 391.7 435.55 391.7 437.55 398.57 436.17 404.01"/><polygon id="Creuse" class="cls-2" points="421.06 479.06 423.85 489.54 413.93 498.22 418.85 504.78 409.07 508.56 404.47 504.93 391.47 506.62 392.14 501.99 386.31 498.04 378.59 497.35 375.54 492.07 376.32 483.04 369.26 473.63 371.92 466.73 370.19 462.48 385.12 462.06 386.45 458.57 403.46 460.92 408.61 460.33 411.36 466.03 418.51 469.39 421.06 479.06"/><polygon id="Val-d_Oise" data-name="Val-d&apos;Oise" class="cls-2" points="423.57 292.04 423.32 296.81 411.71 300.22 407.23 301.54 382.69 290.67 387.56 278.81 389.47 285.38 402.41 283.31 423.57 292.04"/><polygon id="Seine-Saint-Denis" class="cls-2" points="423.32 296.81 422.71 307.92 421.86 307.87 416.31 305.69 415.9 305.86 414.86 303.18 412.16 303.8 412.02 303.19 411.71 300.22 423.32 296.81"/><polygon id="Val-de-Marne" class="cls-4" points="422.71 307.92 422.31 315.39 412.14 313.38 411.87 308.81 412.04 308.31 413.51 308.81 416.33 306.94 415.9 305.86 416.31 305.69 421.86 307.87 422.71 307.92"/><polygon id="Essonne" class="cls-4" points="422.31 315.39 421.28 334.45 416.35 337.64 416.32 340.79 415.49 340.78 397.33 341.5 396.03 331.74 395.59 328.42 401.25 321.84 400.2 316.89 407.99 311.36 412.14 313.38 422.31 315.39"/><polygon id="Paris" class="cls-6" points="415.9 305.86 416.33 306.94 413.51 308.81 412.04 308.31 410.02 307.62 409.07 304.5 412.16 303.8 414.86 303.18 415.9 305.86"/><polygon id="Haut-de-Seine" class="cls-4" points="412.02 303.19 412.16 303.8 409.07 304.5 410.02 307.62 412.04 308.31 411.87 308.81 412.14 313.38 407.99 311.36 405.23 305.8 407.23 301.54 411.71 300.22 412.02 303.19"/><polygon id="Loir-et-Cher" class="cls-2" points="409.07 382.17 402.79 387.48 408.56 392.26 403.73 403.85 395.73 405.67 392.14 410.09 385.31 406.49 368.74 411.04 359.28 403.9 356.96 386.04 349.38 379.8 335.99 377.36 347.41 365.6 346.4 355.95 350.73 349.74 366.68 362.07 376.95 360.56 379.14 374.7 385.87 378.05 390.57 382.5 407.08 380.93 409.07 382.17"/><polygon id="Yvelines" class="cls-5" points="405.23 305.8 407.99 311.36 400.2 316.89 401.25 321.84 395.59 328.42 396.03 331.74 395.03 331.88 390.52 329.99 389.15 325.72 381.48 316.94 382.29 306.12 377.68 299.84 377.39 299.67 378.65 297.54 376.48 292.52 382.69 290.67 407.23 301.54 405.23 305.8"/><polygon id="Indre" class="cls-2" points="401.27 440.61 405.74 447.24 403.46 460.92 386.45 458.57 385.12 462.06 370.19 462.48 361.46 462.74 361.91 459.44 348.46 447.52 348.84 440.17 353.17 437.82 356.91 421.84 364.29 422.54 370.19 416 368.74 411.04 385.31 406.49 392.14 410.09 387.77 414.72 392.79 417.41 399.23 416.63 404.47 431.03 401.27 440.61"/><polygon id="Eure-et-Loir" class="cls-2" points="396.03 331.74 397.33 341.5 396.67 348.92 391.88 355.33 386.69 356.69 382 355.56 376.95 360.56 366.68 362.07 350.73 349.74 347.77 347.45 345.43 338.43 354.23 333.24 353.89 325.15 349.29 321.18 348.38 316.94 370.64 311.07 377.39 299.67 377.68 299.84 382.29 306.12 381.48 316.94 389.15 325.72 390.52 329.99 395.03 331.88 396.03 331.74"/><polygon id="Haute-Vienne" class="cls-5" points="392.14 501.99 391.47 506.62 391.27 508 363.44 521.12 356.35 519.62 352.88 512.18 345.71 510.77 342.64 513.37 335.38 505.92 335.99 501.19 343.81 496.26 343.49 491.48 349.29 489.04 348.56 484.98 345.02 477.7 343.65 473.09 347.68 468.01 361.46 462.74 370.19 462.48 371.92 466.73 369.26 473.63 376.32 483.04 375.54 492.07 378.59 497.35 386.31 498.04 392.14 501.99"/><polygon id="Seine-Maritime" class="cls-6" points="389.97 247.51 390.52 264.6 387.46 270.78 373.16 267.43 369 273.85 356.56 279.1 354.23 272.85 337.22 264.85 328.13 267.36 318.47 262.51 324.93 248.56 361.62 235.94 372.52 227.06 389.97 247.51"/><polygon id="Eure" class="cls-2" points="387.46 270.78 387.56 278.81 382.69 290.67 376.48 292.52 378.65 297.54 377.39 299.67 370.64 311.07 348.38 316.94 345.21 314.77 346.43 311.36 339.39 302.92 333.27 302.65 331.53 300.43 331.29 298.05 328.13 267.36 337.22 264.85 354.23 272.85 356.56 279.1 369 273.85 373.16 267.43 387.46 270.78"/><polygon id="Dordogne" class="cls-4" points="370.63 549.77 371.18 555.87 354.79 575.87 349.59 573.18 342.24 575.49 334.54 570.66 323.6 572.38 317.11 563.82 319.2 559.04 316.44 557.23 313.65 560.57 306.28 557.74 309.02 543.67 303.56 541.15 307.62 534.98 312.55 534.98 318.18 529.6 317.88 521.12 328.86 514.19 335.38 505.92 342.64 513.37 345.71 510.77 352.88 512.18 356.35 519.62 363.44 521.12 365.1 527.67 361.46 532.13 370.63 549.77"/><polygon id="Indre-et-Loire" class="cls-4" points="368.74 411.04 370.19 416 364.29 422.54 356.91 421.84 353.17 437.82 348.84 440.17 340.1 424.46 323.24 426.08 323.51 419.28 313.28 410.64 319.11 397.55 319.73 385.41 328.16 385.41 335.99 377.36 349.38 379.8 356.96 386.04 359.28 403.9 368.74 411.04"/><polygon id="Vienne" class="cls-5" points="361.91 459.44 361.46 462.74 347.68 468.01 343.65 473.09 345.02 477.7 333.98 481.27 330.72 477.7 328.5 478.57 328.72 481.68 313.28 479.48 317.29 478.02 318.05 475.85 313.28 472.57 315.74 467.74 314.34 463.2 309.41 463.65 310.34 430.79 305.58 417.59 313.28 410.64 323.51 419.28 323.24 426.08 340.1 424.46 348.84 440.17 348.46 447.52 361.91 459.44"/><polygon id="Lot-et-Garonne" class="cls-2" points="354.79 575.87 353.67 578.75 349.29 578.92 353.16 590.34 348.32 591.17 344.88 589.66 343.45 594.17 345.85 596.82 344.27 605.15 334.33 611.62 331.07 608.33 324.51 608.9 322.74 611.97 306.05 612.42 307.91 604.32 298.01 603.25 296.72 598.15 301.29 596.28 305.07 588.84 312.75 571.07 309.41 568.66 310.2 566.49 317.11 563.82 323.6 572.38 334.54 570.66 342.24 575.49 349.59 573.18 354.79 575.87"/><polygon id="Orne" class="cls-4" points="353.89 325.15 354.23 333.24 345.43 338.43 347.77 347.45 336 342.97 330.12 338.3 328.13 329.06 321.45 328.16 315.48 333.58 311.67 332.98 305.07 321.68 292.78 324.42 281.36 328.49 275.47 323.25 279.74 322.35 282.79 312.95 279.14 308.89 296.83 301.85 308.66 305.25 320.37 297.88 331.29 298.05 331.53 300.43 333.27 302.65 339.39 302.92 346.43 311.36 345.21 314.77 348.38 316.94 349.29 321.18 353.89 325.15"/><polygon id="Sarthe" class="cls-4" points="350.73 349.74 346.4 355.95 347.41 365.6 335.99 377.36 328.16 385.41 319.73 385.41 294.96 372.37 295.74 364.21 306.77 344.4 307 336.83 311.67 332.98 315.48 333.58 321.45 328.16 328.13 329.06 330.12 338.3 336 342.97 347.77 347.45 350.73 349.74"/><polygon id="Charente" class="cls-2" points="348.56 484.98 349.29 489.04 343.49 491.48 343.81 496.26 335.99 501.19 335.38 505.92 328.86 514.19 317.88 521.12 318.18 529.6 312.55 534.98 307.62 534.98 293.07 524.71 294.96 514.71 288.57 507.31 287.77 499.62 300.69 498.58 304.35 486.54 306.95 481.78 313.28 479.48 328.72 481.68 328.5 478.57 330.72 477.7 333.98 481.27 345.02 477.7 348.56 484.98"/><polygon id="Calvados" class="cls-3" points="328.13 267.36 331.29 298.05 320.37 297.88 308.66 305.25 296.83 301.85 279.14 308.89 270.94 306.68 266.81 301.38 278.66 288.14 268.48 274.45 269.22 269 274.73 267.65 278.79 269.67 297.78 272.39 305.21 276.63 328.13 267.36"/><polygon id="Maine-et-Loire" class="cls-3" points="319.73 385.41 319.11 397.55 313.28 410.64 305.58 417.59 286.08 416.33 282.99 421.35 270.71 418.75 261.27 416.75 256.96 396.77 269.09 395.1 269.09 387.86 258.38 369.6 285.04 373.68 294.96 372.37 319.73 385.41"/><polygon id="Gironde" class="cls-7" points="319.2 559.04 317.11 563.82 310.2 566.49 309.41 568.66 312.75 571.07 305.07 588.84 301.29 596.28 296.72 598.15 292.23 599.99 285.96 598.59 284.51 592.85 273.03 581.63 258.72 584.06 258.67 579.5 255.03 576.92 246.28 580.49 246.5 578.25 250.38 573.94 258.13 573.94 258.64 570.35 251.87 561.93 246.28 568.7 254.4 512.09 256.77 511.18 257.99 517.03 269.09 524.5 273.91 541.17 275.4 538.7 273.19 527 286.65 530 287.47 537 303.56 541.15 309.02 543.67 306.28 557.74 313.65 560.57 316.44 557.23 319.2 559.04"/><polygon id="Deux-Sèvres" class="cls-2" points="318.05 475.85 317.29 478.02 313.28 479.48 306.95 481.78 304.35 486.54 300.68 485.29 300.07 482.63 277.82 472.18 275.4 464.9 285.04 459.9 280.62 438.08 270.71 418.75 282.99 421.35 286.08 416.33 305.58 417.59 310.34 430.79 309.41 463.65 314.34 463.2 315.74 467.74 313.28 472.57 318.05 475.85"/><polygon id="Mayenne" class="cls-2" points="305.07 321.68 311.67 332.98 307 336.83 306.77 344.4 295.74 364.21 294.96 372.37 285.04 373.68 258.38 369.6 263.6 357 269.09 355.53 266.81 339.5 269.05 334.94 267.44 322.68 272.79 323.81 275.47 323.25 281.36 328.49 292.78 324.42 305.07 321.68"/><polygon id="Charente-Maritime" class="cls-5" points="307.62 534.98 303.56 541.15 287.47 537 286.65 530 273.19 527 271.59 518.61 251.7 503.22 250.16 490.55 245.15 486.79 245.67 479.12 253.88 489.49 257.83 491.49 260.76 480.55 236.96 466.73 241.96 463.65 254.49 471.32 256.87 464.81 263.59 460.81 275.4 464.9 277.82 472.18 300.07 482.63 300.68 485.29 304.35 486.54 300.69 498.58 287.77 499.62 288.57 507.31 294.96 514.71 293.07 524.71 307.62 534.98"/><polygon id="Tarn-et-Garonne" class="cls-2" points="387.77 608.33 392.55 604.82 389.67 592.92 383.61 594.73 377.13 599.99 367.4 600.65 359.09 597 353.16 590.34 348.32 591.17 344.88 589.66 343.45 594.17 345.85 596.82 344.27 605.15 334.33 611.62 346.57 626.39 346.57 626.39 346.57 626.39 356.67 626.13 358.82 628.75 365.19 625.23 365.12 623.44 365.05 621.65 374.02 621.21 380.19 614.28 379.66 611.61 379.66 611.61 379.32 609.89 387.77 608.33"/><polygon id="Aude" class="cls-5" points="406.99 650 404.79 654.02 395.45 651.31 389.94 652.94 387.77 649.99 385.28 652.9 382.75 656.6 377.98 662.41 390.74 670.61 393.17 686.38 387.78 687.93 386.22 690.09 393.28 696.03 397.33 693.89 402.22 699.83 410.75 695.28 409.07 689.23 429.84 689.41 434.27 684.08 442.61 688.95 442.81 676.34 438.01 673.25 439.78 670.4 443.99 673.52 449.31 666.87 434.88 657.91 431.87 661.85 428.42 664.02 422.97 660.79 419.44 656.21 420.54 651.28 406.99 650"/><polygon id="Pyrénées-Orientales" class="cls-5" points="429.84 689.41 409.07 689.23 410.75 695.28 402.22 699.83 380.19 706.78 383.28 711.69 390.36 714.02 390.54 717.94 396.64 720.62 400.44 716.85 405.03 716.79 416.36 724.44 424.45 724.44 433.49 714.99 440.28 713.43 443.66 716.22 447.73 717.47 447.76 711.66 443.66 707.16 442.61 688.95 434.27 684.08 429.84 689.41"/><polygon id="Tarn" class="cls-5" points="374.02 621.21 395.56 647.07 395.45 651.31 404.79 654.02 406.99 650 420.54 651.28 425.25 649.85 426.54 645.83 423.17 642.68 425.99 636.86 429.05 639.02 438.41 635.8 434.33 631.18 425.19 630.89 418.06 614.28 401.67 603.33 392.55 604.82 387.77 608.33 379.32 609.89 379.66 611.61 380.19 614.28 374.02 621.21"/><polygon id="Ariège" class="cls-5" points="397.33 693.89 393.28 696.03 386.22 690.09 387.78 687.93 393.17 686.38 390.74 670.61 377.98 662.41 370.05 660.34 363.54 658.5 361.52 660.65 365.06 664.08 360.06 672.13 353.92 669.14 346.79 672.02 347.74 677.98 340.13 683.28 340.13 689.97 349.83 693.88 353.5 700.44 361.46 700.44 366.6 704.33 377.98 703.11 380.19 706.78 402.22 699.83 397.33 693.89"/><polygon id="Haute-Garonne" class="cls-7" points="347.74 677.98 346.79 672.02 353.92 669.14 360.06 672.13 365.06 664.08 361.52 660.65 363.54 658.5 370.05 660.34 377.98 662.41 382.75 656.6 385.28 652.9 387.77 649.99 389.94 652.94 395.45 651.31 395.56 647.07 374.02 621.21 365.05 621.65 365.19 625.23 358.82 628.75 356.67 626.13 346.57 626.39 357.37 639.42 351.76 643.75 347.11 654.4 342.54 652.07 336.62 651.54 330.44 657.83 322.6 669.64 330.03 681.19 326.02 686.32 321.14 684.08 322.03 695.95 319.2 696.63 330.93 697.74 331.48 686.99 340.13 689.97 340.13 683.28 347.74 677.98"/><polygon id="Gers" class="cls-5" points="304.35 618.62 301.49 613.96 290.5 617.58 294.15 623.11 290.76 638.26 296.51 639.08 302.05 637.97 306.98 643.54 309.88 651.7 330.44 657.83 336.62 651.54 342.54 652.07 347.11 654.4 351.76 643.75 357.37 639.42 346.57 626.39 341.45 620.2 334.33 611.62 331.07 608.33 324.51 608.9 322.74 611.97 306.05 612.42 306.04 618.17 304.35 618.62"/><polygon id="Hautes-Pyrénées" class="cls-6" points="321.14 684.08 326.02 686.32 330.03 681.19 322.6 669.64 330.44 657.83 309.88 651.7 306.98 643.54 302.05 637.97 296.51 639.08 302.44 654.05 287.63 672.99 285.07 685.72 292.03 690.45 298.06 696.79 307.11 693.79 313 698.11 319.2 696.63 322.03 695.95 321.14 684.08"/><polygon id="Landes" class="cls-4" points="290.76 638.26 294.15 623.11 290.5 617.58 301.49 613.96 304.35 618.62 306.04 618.17 306.05 612.42 307.91 604.32 298.01 603.25 296.72 598.15 292.23 599.99 285.96 598.59 284.51 592.85 273.03 581.63 258.72 584.06 258.67 579.5 255.03 576.92 246.28 580.49 234.05 633.18 230.75 638.76 238.31 641.86 290.76 638.26"/><polygon id="Pyrénées-Atlantiques" class="cls-7" points="215.4 648.36 215.4 652.26 234.45 658.5 233.81 665.14 231.03 666.66 236.96 673.12 239.09 668.21 257.49 678.05 264.75 678.12 265.16 682.7 272.29 688.95 285.07 685.72 287.63 672.99 302.44 654.05 296.51 639.08 290.76 638.26 238.31 641.86 230.75 638.76 224.72 646.45 224.72 646.45 215.4 648.36"/><polygon id="Vendée" class="cls-3" points="280.62 438.08 285.04 459.9 275.4 464.9 263.59 460.81 256.87 464.81 227.95 449.85 215.44 428.72 215.56 423.47 222.84 414.73 235.2 425.53 244.41 425.44 242.13 417.98 245.58 416.4 247.13 422.93 256.24 414.68 261.27 416.75 270.71 418.75 280.62 438.08"/><polygon id="Manche" class="cls-5" points="279.14 308.89 282.79 312.95 279.74 322.35 275.47 323.25 272.79 323.81 267.44 322.68 262.73 321.68 255.56 326.28 250.09 322.51 248.19 315.55 254.51 313.38 246.51 303.28 249.39 297.63 246.94 278.34 238.88 263.83 238.87 249.93 234.28 246.33 235.17 244.42 247.91 250.59 252.41 248.44 263.57 248.44 265.54 254.27 261.34 257.44 269.22 269 268.48 274.45 278.66 288.14 266.81 301.38 270.94 306.68 279.14 308.89"/><polygon id="Loire-Atlantique" class="cls-3" points="269.09 387.86 269.09 395.1 256.96 396.77 261.27 416.75 256.24 414.68 247.13 422.93 245.58 416.4 242.13 417.98 244.41 425.44 235.2 425.53 222.84 414.73 217.57 410.63 210.83 409.36 213.4 406.49 213.4 400.45 198.56 397.94 203.29 387.76 221.33 382.7 222.91 375.89 239.75 373.07 249.06 365.42 258.38 369.6 269.09 387.86"/><polygon id="Ille-et-Vilaine" class="cls-3" points="266.81 339.5 269.09 355.53 263.6 357 258.38 369.6 249.06 365.42 239.75 373.07 222.91 375.89 219.95 368.7 224.7 362.86 220.97 353.32 213.87 353.32 217.1 345.31 220.72 336.38 230.54 335.1 232.83 321.17 229.71 316.94 228.78 311.64 230.9 309.28 236.15 309.53 237.43 315.46 248.19 315.55 250.09 322.51 255.56 326.28 262.73 321.68 267.44 322.68 269.05 334.94 266.81 339.5"/><polygon id="Côtes-d_Armor" data-name="Côtes-d&apos;Armor" class="cls-5" points="229.71 316.94 232.83 321.17 230.54 335.1 220.72 336.38 217.1 345.31 212.83 344.98 207.43 341.5 202.23 346.59 182.42 337.81 176.25 341.5 163.12 336.38 160.25 309.28 160.98 305 162.39 296.83 185.26 295.54 193.87 313.13 198.43 316.94 214.83 309.96 228.78 311.64 229.71 316.94"/><polygon id="Morbihan" class="cls-5" points="220.97 353.32 224.7 362.86 219.95 368.7 222.91 375.89 221.33 382.7 203.29 387.76 189.3 384.46 175.62 377.37 160.32 364.1 161.42 359.8 166.86 357.85 167.98 353.55 156.81 349.29 154.18 340.22 163.12 336.38 176.25 341.5 182.42 337.81 202.23 346.59 207.43 341.5 212.83 344.98 217.1 345.31 213.87 353.32 220.97 353.32"/><polygon id="Finistère" class="cls-5" points="167.98 353.55 166.86 357.85 161.42 359.8 160.32 364.1 145.69 361.77 134.36 355.75 133.25 359.45 124.9 359 125.18 355.67 119.56 344.7 111.67 342.88 111.72 340 129.04 339.28 129.89 334.82 115.58 327.56 119.28 325.64 133.1 327.92 123.93 322.38 110.11 323.34 113.07 309.15 138.97 301.71 149.26 305.53 151.46 303.13 160.98 305 160.25 309.28 163.12 336.38 154.18 340.22 156.81 349.29 167.98 353.55"/><polygon id="Corrèze" class="cls-5" points="418.99 522.31 419.61 526.51 416.09 528.02 411.95 524.48 404.84 536.89 403.43 546.09 399.13 552.99 385.79 556.28 381.53 550.08 375.98 547.54 370.63 549.77 361.46 532.13 365.1 527.67 363.44 521.12 391.27 508 391.47 506.62 404.47 504.93 409.07 508.56 418.85 504.78 417.74 511.6 419.03 516.23 418.99 522.31"/><polygon id="Lot" class="cls-2" points="399.13 552.99 402.69 575.31 400.51 578.22 388.56 584.79 389.67 592.92 383.61 594.73 377.13 599.99 367.4 600.65 359.09 597 353.16 590.34 349.29 578.92 353.67 578.75 354.79 575.87 371.18 555.87 370.63 549.77 375.98 547.54 381.53 550.08 385.79 556.28 399.13 552.99"/><polygon id="Loiret" class="cls-4" points="437.97 347.68 446.58 362.07 440.44 367.94 441.94 373.41 437.97 375.89 434.46 375.55 439.18 387.86 434.79 389.11 435.54 391.7 427.26 393.51 409.07 382.17 407.08 380.93 390.57 382.5 385.87 378.05 379.14 374.7 376.95 360.56 382 355.56 386.69 356.69 391.88 355.33 396.67 348.92 397.33 341.5 415.49 340.78 416.32 340.79 416.31 342.05 420.28 345.45 416.93 351.54 418.88 353.32 432.9 351.9 437.97 347.68"/><polygon id="France" class="cls-9" points="655.71 610.72 655.71 610.72 654.48 597.78 637.6 601.6 618.44 588.36 617.23 580.45 618.23 579.47 622.14 575.64 621.98 569.2 621.7 568.9 625.85 565.05 625.85 565.05 621.98 556.28 611.06 553.61 604.41 540.56 604.41 540.56 615.81 539.43 625.72 531.84 628.44 521.14 628.44 521.14 609.61 496.53 609.61 496.53 611.36 494.5 618.84 491.5 618.97 489.63 619.1 488.67 619.33 484.48 608.72 471.25 608.72 471.25 611.15 468.65 611.15 468.65 607.08 458.56 590.63 462.48 587.94 460.62 583.78 466.24 583.78 466.24 586.38 470.17 579.11 475.6 572.01 475.5 571.93 471.28 578.5 469.25 581.32 460.44 576.54 458.69 577.7 449.33 591.54 435.2 591.54 435.2 590.54 424.69 590.54 424.69 599.09 420.83 600.48 419.01 617.36 397.13 617.5 397.13 617.5 397.13 614.38 389.81 618.95 388.86 619.52 388.55 621.99 392.18 630.64 392.23 634.69 388.73 637.16 381.07 632.84 374.24 637.79 356.55 635.44 346.48 641.27 335.35 644.09 313.02 649.8 308.94 660.45 291.93 648.11 286.82 635.09 287.54 628.1 280.86 622.46 280.67 619.36 283.48 611.93 283.63 605.64 278.79 601.54 278.84 600.56 281.79 596.54 282.2 589.31 266.88 581.37 263.62 575.47 261.2 572.02 261.39 563.14 263.79 556.44 258.87 543.28 261.27 538.05 257.49 536.14 252.15 518.09 244.53 517.71 221.5 513.48 221.5 509.22 231.52 499.13 235.92 491.91 233.5 487.45 233.49 486.97 231.95 491.31 228.74 490.96 216.9 483.13 209.61 470.87 210.18 469.55 212.34 468.01 212.32 468.44 204.66 460.67 199.13 456.4 201.03 451.84 199.03 450.85 187.44 446.93 182.57 438.62 184.5 433.33 187.72 430.96 183.1 428.81 180.67 424.44 178.25 426 172.13 422.22 163.1 403.79 168.09 391.65 170.29 381.94 177.64 381.62 208.08 372.66 227.06 361.76 235.94 325.07 248.56 318.61 262.51 328.28 267.36 305.35 276.63 297.93 272.39 278.79 269.67 274.73 267.65 269.22 269 261.34 257.44 265.54 254.3 263.57 248.5 252.41 248.5 247.91 250.62 235.17 244.43 234.28 246.33 238.87 249.94 238.88 263.83 246.94 278.34 249.39 297.63 246.65 303.3 254.66 313.39 248.34 315.56 237.57 315.46 236.3 309.53 231.04 309.27 228.92 311.64 214.97 309.96 198.57 316.94 194.01 313.13 185.41 295.54 162.53 296.83 161.12 304.99 151.6 303.13 149.41 305.53 139.11 301.71 113.22 309.15 110.25 323.34 124.07 322.38 133.24 327.92 119.42 325.64 115.72 327.56 130.03 334.82 129.18 339.28 111.87 340 111.82 342.88 119.71 344.69 125.33 355.67 125.04 359 133.39 359.45 134.51 355.75 145.84 361.77 160.46 364.1 175.28 377.12 189.44 384.46 203.43 387.76 198.61 397.94 213.5 400.45 213.5 406.49 210.88 409.36 217.59 410.63 222.85 414.73 215.57 423.47 215.44 428.72 228 449.85 256.97 464.81 254.61 471.31 242.09 463.65 237.1 466.73 260.9 480.55 257.97 491.49 254.03 489.49 245.81 479.12 245.29 486.78 250.3 490.55 251.85 503.22 271.74 518.6 273.33 527 275.54 538.7 274.05 541.17 269.23 524.5 258.13 517.03 256.92 511.18 254.54 512.09 253.49 520.45 246.42 568.7 251.87 561.93 258.64 570.13 258.13 573.5 250.38 573.5 246.5 578.03 246.42 581.87 234.2 633.88 230.89 639.11 224.77 646.44 215.5 648.36 215.5 652.26 234.5 658.5 233.84 665.13 231.04 666.66 236.97 673.12 239.1 668.21 257.55 678.05 261.93 678.09 262.15 678.09 264.85 678.12 264.85 678.12 264.85 678.12 265.29 682.7 271.78 688.38 272.43 688.95 272.43 688.95 285.21 685.72 292.17 690.45 298.2 696.82 307.25 693.79 313.14 698.21 319.34 696.63 331.08 697.8 331.48 686.98 340.13 689.97 349.83 693.91 353.5 700.5 361.46 700.5 366.6 704.36 377.98 703.12 383.54 711.99 390.51 714.23 390.54 717.94 396.64 720.62 400.44 716.85 405.03 716.82 416.36 724.5 424.45 724.5 433.49 715.02 440.28 713.45 443.66 716.23 447.73 717.47 447.76 711.66 443.72 707.51 442.71 689.13 442.94 676.43 438.14 673.29 439.92 670.42 444.13 673.53 449.45 666.88 485.9 644.3 489.98 644.63 492.24 649.19 499.95 649.15 516.09 650.27 513.15 654.33 523.38 658.32 529.18 656.51 526.61 651.62 532.05 652.37 535.77 656.6 549.94 656.15 552.13 664.02 566.53 667.98 572.68 674.39 580.07 670.71 588.13 671.54 598.05 670.24 612.76 662.21 611.73 655.68 624.09 644.82 632.48 639.22 632.74 632.42 637.79 632.04 650.33 623.39 650.34 623.38 650.86 612.22 655.71 610.72"/><polygon id="Royaume-Uni" class="cls-10" points="208.03 6.52 198.13 8.92 168.13 11.1 154.89 24.47 139.33 36.24 143.07 38.2 161.85 33.62 164.17 58.33 159.65 74.5 122.91 84.24 110.45 93.36 112.36 104.38 121.41 112.78 144.33 106.57 150.49 119.76 167.57 116.2 171.4 126.14 192.24 131.72 199.84 124.17 225.49 112.31 203.41 131.72 198.88 144.44 174.43 141.66 149.67 142.32 134.62 159.42 110.11 187.48 81.94 203.69 103.47 213.7 122.76 194.27 142.64 195.13 167.16 208.94 179.94 184.5 206.39 184.5 213.8 186.67 232.97 183.08 265.99 175.38 284.22 178.83 328.19 183.11 356.65 171.91 375.74 157.43 378.8 141.93 352.57 143.31 335.97 137.42 357 129.97 359.29 120.11 369.4 114.66 385.12 98.45 387.35 86.82 392.28 64.09 377.27 46.61 358.09 43.52 346 41.13 339.03 53.6 328.88 45.8 324.32 45.61 339.17 28.63 334.12 14.96 323.93 0.5 208.23 0.5 208.03 6.52"/><polygon id="Irlande" class="cls-11" points="0.5 78.02 18.01 71.28 41.65 68.37 52.71 64.45 71.25 68.9 90.02 24.95 90.91 9.23 87.53 5.72 84.47 0.5 0.5 0.5 0.5 78.02"/><polygon id="Espagne" class="cls-12" points="440.28 713.43 433.49 715.02 424.45 724.5 416.36 724.5 405.03 716.82 400.44 716.86 396.64 720.63 390.54 717.95 390.51 714.23 383.28 711.69 371.52 715.72 366.54 708.95 366.6 704.36 361.46 700.5 353.5 700.5 349.83 693.91 340.13 689.99 331.48 686.99 331.08 697.8 319.34 696.66 313.14 698.23 307.25 693.8 298.2 696.82 292.18 690.47 285.22 685.72 272.44 688.73 272.43 688.5 272.43 688.5 271.78 688.16 265.29 682.59 264.85 678.06 264.85 678.06 262.15 678.06 261.93 678.08 257.55 678.04 239.09 668.21 236.96 673.12 231.03 666.65 233.81 665.13 234.5 658.5 215.5 652.26 215.5 648.36 202.44 652.02 185.53 648.78 170.98 640.68 158.18 648.2 139.71 636.99 122.17 633.3 105.7 638.26 62.26 630.89 46.67 622.54 22.78 618.04 0.5 617.66 0.5 800.5 367.58 800.5 390.5 793.18 449.86 752 446.1 731.43 453.46 728.97 447.73 717.47 443.66 716.22 440.28 713.43"/><polygon id="Allemagne" class="cls-12" points="605.78 21.55 605.78 21.55 603.45 56.23 602.51 57.48 600.02 60.79 599.76 60.78 599.74 60.8 590.16 60.18 587.34 70.91 598.54 71.48 598.92 73.14 601.87 86.19 588.46 97.42 592.88 105.88 576.45 112.78 576.45 112.78 576.45 112.78 567.65 108.85 559.81 113.37 575.03 139.98 573.55 143.74 572.05 147.56 566.03 162.82 566.6 174.86 566.6 174.86 563.78 181.9 573.82 192.72 573.82 192.72 573.55 193.42 572.15 197.04 577.83 200.69 579.88 208.08 569.87 221.18 567.54 228.7 573.87 236.42 586.9 241.29 588.25 248.2 580.33 259.38 581.37 263.62 589.31 266.88 596.54 282.2 600.56 281.79 601.54 278.84 605.64 278.79 611.93 283.63 619.36 283.48 622.46 280.67 628.1 280.86 635.09 287.54 648.12 286.82 660.45 291.93 649.8 308.94 644.09 313.02 641.27 335.35 635.44 346.48 637.79 356.55 632.84 374.24 637.16 381.07 634.69 388.73 637.3 384.54 654.76 383.76 665.32 378.66 676.22 381.16 677.16 378.92 677.3 378.59 683.1 376.33 675.65 374.54 673.61 372.6 679.49 367.22 685.54 366.09 691.1 371.01 697.38 374.02 704.86 372.53 715.24 373.68 730.12 378.23 732.13 374.58 747.5 386.99 747.5 389.34 747.5 392.85 761.16 382.83 761.94 374.32 768 374.19 768.5 374.19 768.5 0.5 603.79 0.5 594.82 12.77 595.03 13.09 605.78 21.55"/><polygon id="Italie" class="cls-12" points="768.5 423.05 753.01 436.43 750.76 454.56 717.02 450.66 694.75 473.35 681.73 465.31 680.85 451.47 665.94 465.23 669.45 470.35 656.35 488.27 645.51 484.64 633.87 490.74 623 492.15 621.2 491.63 618.97 489.63 618.84 491.5 611.36 494.5 609.61 496.53 628.44 521.14 628.44 521.14 628.44 521.14 625.72 531.84 615.81 539.43 604.41 540.56 611.06 553.61 621.98 556.28 625.85 565.05 625.85 565.05 621.7 568.9 621.98 569.2 622.14 575.64 618.23 579.47 617.23 580.45 618.44 588.36 637.6 601.6 654.48 597.78 655.71 610.72 655.71 610.72 650.86 612.22 650.34 623.38 657.04 625.44 675.55 618.43 691.1 593.5 703.66 581.22 730.87 587.39 767.09 602.83 768.5 604.34 768.5 423.05"/><polygon id="Autriche" class="cls-9" points="761.88 374.32 761.16 382.83 747.5 392.85 747.5 389.34 747.5 386.99 732.13 374.58 730.18 378.23 715.23 373.68 723.8 380.4 728.06 383.61 729.84 388.96 724.18 398.94 737.66 400.99 741.13 413.59 749.87 422.21 760.14 414.5 767.54 414.5 768.5 414.5 768.5 374.19 768.01 374.19 761.88 374.32"/><polygon id="Liechtenstein" class="cls-9" points="741.13 413.59 737.66 400.99 724.18 398.94 726.69 410.62 741.13 413.59"/><polygon id="Pays-Bas" class="cls-13" points="490.95 144.68 503.78 138.27 513.05 141.15 524.4 138.27 531.4 150.34 540.13 149.06 540.13 149.06 540.13 149.06 556.53 157.09 551.23 182.82 563.78 181.9 563.78 181.9 563.78 181.9 563.78 181.9 566.6 174.86 566.6 174.86 566.03 162.82 572.05 147.56 573.55 143.74 575.03 139.98 559.81 113.37 567.65 108.85 567.65 108.85 576.45 112.78 576.45 112.78 592.88 105.88 588.46 97.42 601.87 86.19 598.92 73.14 598.54 71.48 587.34 70.91 590.16 60.18 590.17 60.17 599.76 60.78 600.02 60.79 602.51 57.48 603.45 56.23 605.78 21.55 605.78 21.55 595.03 13.24 594.82 13.07 594.36 12.72 591.24 10.31 581.52 11.04 560.38 14.52 539.48 22.98 534.51 35.59 518.04 48.29 515.06 43.52 509.3 42.49 501.09 84.24 487.17 104.32 471.73 121.17 458.69 134.26 462.72 141.68 479.23 145.55 490.95 144.68"/><polygon id="Belgique" class="cls-8" points="424.45 178.25 428.81 180.67 430.96 183.1 433.33 187.72 438.62 184.5 446.93 182.57 450.85 187.44 451.84 199.03 456.4 201.03 460.67 199.13 468.44 204.66 468.01 212.32 469.55 212.34 470.87 210.18 483.13 209.62 490.96 216.9 491.31 228.75 486.97 231.96 487.45 233.51 491.91 233.55 499.13 236.03 509.22 231.52 513.48 221.5 517.71 221.5 518.09 244.53 536.14 252.05 538.05 257.43 543.28 261.24 556.44 258.86 560.37 256.55 559.9 253.9 553.51 237.09 564.74 218.19 569.87 221.18 579.88 208.08 577.83 200.69 572.15 197.04 573.54 193.42 573.81 192.72 563.78 181.9 563.78 181.9 551.23 182.82 551.23 182.82 556.53 157.09 540.13 149.06 540.13 149.06 531.4 150.34 524.4 138.27 513.05 141.15 503.78 138.27 490.95 144.68 479.23 145.55 462.72 141.68 449.24 145.3 418.5 161.09 418.5 164.17 422.35 163.1 426.06 172.13 424.45 178.25"/><polygon id="Luxembourg" class="cls-10" points="588.25 248.2 586.9 241.29 573.87 236.42 567.54 228.7 569.87 221.18 564.74 218.19 553.51 237.09 559.9 253.9 560.37 256.56 556.44 258.87 563.14 263.79 572.02 261.39 575.47 261.2 581.37 263.62 580.33 259.38 588.25 248.2"/><polygon id="Suisse" class="cls-12" points="760.14 414.5 749.87 422.21 741.13 413.48 726.69 410.57 724.18 398.94 729.84 388.96 728.05 383.61 723.8 380.4 715.24 373.68 704.86 372.53 697.38 374.02 691.1 371.01 685.54 366.09 679.49 367.22 673.61 372.6 675.65 374.53 683.1 376.32 677.3 378.59 677.16 378.9 676.22 381.13 665.32 378.66 654.76 383.76 637.3 384.32 634.34 388.5 633.95 388.5 630.63 392.01 621.98 392.07 619.49 388.49 618.88 388.83 614.38 389.81 617.5 397.12 617.5 397.13 617.5 397.13 617.36 397.13 617.3 397.13 600.52 419.01 599.11 420.83 590.55 424.84 591.55 435.5 591.55 435.5 591.54 435.5 577.71 449.49 576.54 458.77 581.32 460.48 578.5 469.27 571.94 471.29 572.01 475.51 579.11 475.6 586.38 470.18 583.78 466.24 583.78 466.24 583.78 466.24 587.94 460.62 590.63 462.48 607.08 458.55 611.15 468.65 611.15 468.65 611.15 468.65 608.72 471.25 619.33 484.48 619.1 488.67 618.97 489.63 621.2 491.63 623 492.15 633.87 490.74 645.5 484.64 656.35 488.27 656.35 488.27 669.43 470.35 665.93 465.23 680.84 451.47 681.73 465.31 694.72 473.35 716.96 450.66 750.7 454.56 753.01 436.43 768.5 423.05 768.5 414.5 767.54 414.5 760.14 414.5"/><polygon id="France-2" data-name="France" class="cls-14" points="732.13 654.34 724.87 654.57 722.41 659.97 708.14 665.52 702.98 678.41 701.21 680.81 707.09 684.58 707.32 686.32 701.6 687.61 703.09 694.85 709.62 696.86 710.04 700.82 705.62 705.37 706.22 709.3 712.68 709.88 714.3 714 709.88 719.85 721.45 721.69 714.84 728.9 720.94 733.75 730.51 736.67 733.27 739.85 738.81 741.36 743.98 725.85 745.17 714.47 744.49 708.02 744.41 701.54 749.72 694.15 749.83 681.89 747.7 677.7 747.14 664.56 742.8 659.93 742.41 651.81 743.78 648.1 741.03 637.35 739.04 633.82 734.86 637.09 736.75 650.24 735.37 656.12 732.13 654.34"/><polygon id="Andorre" class="cls-11" points="371.52 715.71 383.28 711.69 377.98 703.11 366.6 704.33 366.54 708.95 371.52 715.71"/><polygon id="Monaco" class="cls-10" points="632.48 639.22 632.48 639.22 641.42 639.48 637.79 632.04 632.74 632.42 632.48 639.22"/><rect class="cls-15" x="0.5" y="411.53" width="169.71" height="159.94"/><path d="M18.66,429.46h3.79a5.1,5.1,0,0,1,2,.38A4.25,4.25,0,0,1,26,430.9a4.59,4.59,0,0,1,1,1.64,6.13,6.13,0,0,1,.35,2.1,6.2,6.2,0,0,1-.35,2.12,4.59,4.59,0,0,1-1,1.64,4.35,4.35,0,0,1-1.53,1.05,5.1,5.1,0,0,1-2,.37H18.66Zm3.79,9a3,3,0,0,0,1.29-.27,2.75,2.75,0,0,0,1-.78,3.65,3.65,0,0,0,.66-1.2,4.84,4.84,0,0,0,.24-1.57,4.71,4.71,0,0,0-.24-1.55,3.65,3.65,0,0,0-.66-1.2,3,3,0,0,0-1-.79,3,3,0,0,0-1.3-.28H20.29v7.64Z"/><path d="M35.76,437.26a3.08,3.08,0,0,1-.28,1.09,2.6,2.6,0,0,1-.66.85,3.18,3.18,0,0,1-1,.56,4.05,4.05,0,0,1-1.31.2,4,4,0,0,1-1.59-.28,2.82,2.82,0,0,1-1.09-.79,3.31,3.31,0,0,1-.64-1.22,6.07,6.07,0,0,1-.2-1.59,5.25,5.25,0,0,1,.22-1.58,3.29,3.29,0,0,1,.65-1.23,3.07,3.07,0,0,1,1.1-.8,3.94,3.94,0,0,1,1.53-.28,3.81,3.81,0,0,1,1.51.27,2.61,2.61,0,0,1,1,.77,3.22,3.22,0,0,1,.58,1.22,6.69,6.69,0,0,1,.18,1.62v.24H30.49a2.94,2.94,0,0,0,.54,1.84,1.73,1.73,0,0,0,1.39.61,2,2,0,0,0,1.27-.39,1.55,1.55,0,0,0,.58-1.11Zm-1.47-1.93a2.25,2.25,0,0,0-.49-1.41,1.6,1.6,0,0,0-1.32-.55,1.89,1.89,0,0,0-1.35.48,2.36,2.36,0,0,0-.61,1.48Zm-1-5.87H35.1l-2.08,2H31.85Z"/><path d="M37.88,432.33h1.49v1.16h0a3,3,0,0,1,.92-.94,2.74,2.74,0,0,1,1.49-.36,3,3,0,0,1,1.39.3,2.68,2.68,0,0,1,1,.8,3.58,3.58,0,0,1,.61,1.22,6.12,6.12,0,0,1,0,3.14,3.91,3.91,0,0,1-.63,1.24,2.66,2.66,0,0,1-1,.79,3.12,3.12,0,0,1-1.36.28,2.65,2.65,0,0,1-1.46-.36,3,3,0,0,1-.94-1h0v3.93H37.88Zm3.51,6.49a1.84,1.84,0,0,0,1.52-.71,3.18,3.18,0,0,0,.56-2,3.29,3.29,0,0,0-.54-2,1.82,1.82,0,0,0-1.55-.72,1.7,1.7,0,0,0-1.54.73,3.65,3.65,0,0,0-.48,2,3.51,3.51,0,0,0,.49,2A1.74,1.74,0,0,0,41.39,438.82Z"/><path d="M51.29,438.77h0a2.79,2.79,0,0,1-1,.86,3.45,3.45,0,0,1-1.58.33,3,3,0,0,1-1-.16,2,2,0,0,1-.73-.42,1.71,1.71,0,0,1-.44-.63,2,2,0,0,1-.15-.77,2,2,0,0,1,.36-1.27,2.31,2.31,0,0,1,.92-.67,4.58,4.58,0,0,1,1.21-.33l1.24-.2.67-.12a1.61,1.61,0,0,0,.38-.14.42.42,0,0,0,.18-.22,1.32,1.32,0,0,0,0-.32,1.27,1.27,0,0,0-.39-1,1.64,1.64,0,0,0-1.15-.37,1.85,1.85,0,0,0-1.17.33,1.48,1.48,0,0,0-.49,1.07H46.65a2.92,2.92,0,0,1,.84-1.9,3.18,3.18,0,0,1,2.27-.69,2.63,2.63,0,0,1,3,3v4.63H51.29Zm0-2.6a10.61,10.61,0,0,1-1.2.24,11.09,11.09,0,0,0-1.14.21,2.26,2.26,0,0,0-.84.39.85.85,0,0,0-.33.73.92.92,0,0,0,.37.78,1.49,1.49,0,0,0,1,.3,2.75,2.75,0,0,0,.88-.14,2.36,2.36,0,0,0,.69-.4,1.91,1.91,0,0,0,.45-.63,2,2,0,0,0,.16-.82Z"/><path d="M55.07,432.33h1.5v1.16h0a2.85,2.85,0,0,1,.86-.95,2.1,2.1,0,0,1,1.23-.35h.22l.21,0v1.56a1.77,1.77,0,0,0-.29-.07,2.07,2.07,0,0,0-.35,0,1.88,1.88,0,0,0-1.39.53,2.06,2.06,0,0,0-.52,1.5v4.1h-1.5Z"/><path d="M60.73,433.57h-1v-1.24h1V430.4h1.49v1.93H64v1.24H62.22v3.93a1.1,1.1,0,0,0,.27.83,1.13,1.13,0,0,0,.8.26l.35,0,.38-.05v1.33l-.46.07a3,3,0,0,1-.54,0,2.38,2.38,0,0,1-1.68-.56,2.35,2.35,0,0,1-.61-1.82Z"/><path d="M66.57,437.38a1.4,1.4,0,0,0,.56,1.14,2.25,2.25,0,0,0,1.23.31,1.8,1.8,0,0,0,1-.25.87.87,0,0,0,.36-.76.74.74,0,0,0-.32-.66,2.7,2.7,0,0,0-.82-.35l-1.06-.24a5.23,5.23,0,0,1-1.06-.33,2.23,2.23,0,0,1-.82-.64,1.79,1.79,0,0,1-.32-1.15,2.17,2.17,0,0,1,.17-.89,1.88,1.88,0,0,1,.53-.72,2.41,2.41,0,0,1,.87-.47,3.8,3.8,0,0,1,1.23-.18,3.19,3.19,0,0,1,2.13.65,2.48,2.48,0,0,1,.82,1.89H69.66a1.45,1.45,0,0,0-.44-1.06,1.6,1.6,0,0,0-1.06-.33,2.22,2.22,0,0,0-.62.08,1,1,0,0,0-.4.23.84.84,0,0,0-.21.33,1.24,1.24,0,0,0-.06.37.69.69,0,0,0,.33.62,3,3,0,0,0,.81.34c.32.09.67.17,1.06.25a4.8,4.8,0,0,1,1.05.35,2.22,2.22,0,0,1,.81.65,1.88,1.88,0,0,1,.33,1.16,2,2,0,0,1-.73,1.63,3.35,3.35,0,0,1-2.19.61,3.85,3.85,0,0,1-2.32-.62,2.46,2.46,0,0,1-.9-2Z"/><path d="M83.7,437.26a3.08,3.08,0,0,1-.28,1.09,2.6,2.6,0,0,1-.66.85,3.18,3.18,0,0,1-1,.56,4.05,4.05,0,0,1-1.31.2,4,4,0,0,1-1.59-.28,2.82,2.82,0,0,1-1.09-.79,3.31,3.31,0,0,1-.64-1.22,6.07,6.07,0,0,1-.2-1.59,5.25,5.25,0,0,1,.22-1.58,3.29,3.29,0,0,1,.65-1.23,3.07,3.07,0,0,1,1.1-.8,3.94,3.94,0,0,1,1.53-.28,3.81,3.81,0,0,1,1.51.27,2.61,2.61,0,0,1,1,.77,3.22,3.22,0,0,1,.58,1.22,6.69,6.69,0,0,1,.18,1.62v.24H78.43a2.94,2.94,0,0,0,.54,1.84,1.73,1.73,0,0,0,1.39.61,2,2,0,0,0,1.28-.39,1.58,1.58,0,0,0,.57-1.11Zm-1.47-1.93a2.25,2.25,0,0,0-.49-1.41,1.6,1.6,0,0,0-1.32-.55,1.85,1.85,0,0,0-1.34.48,2.31,2.31,0,0,0-.62,1.48Z"/><path d="M85.86,433.57h-1v-1.24h1V430.4h1.49v1.93H89.1v1.24H87.35v3.93a.94.94,0,0,0,1.07,1.09l.35,0,.38-.05v1.33l-.46.07a3,3,0,0,1-.54,0,2.43,2.43,0,0,1-1.69-.56,2.39,2.39,0,0,1-.6-1.82Z"/><path d="M99.28,438.77h0a2.79,2.79,0,0,1-1,.86,3.46,3.46,0,0,1-1.59.33,3,3,0,0,1-1-.16,2,2,0,0,1-.73-.42,1.6,1.6,0,0,1-.44-.63,2,2,0,0,1-.15-.77,2,2,0,0,1,.36-1.27,2.31,2.31,0,0,1,.92-.67,4.58,4.58,0,0,1,1.21-.33l1.23-.2.67-.12a1.55,1.55,0,0,0,.39-.14.36.36,0,0,0,.17-.22.93.93,0,0,0,0-.32,1.27,1.27,0,0,0-.39-1,1.64,1.64,0,0,0-1.15-.37,1.85,1.85,0,0,0-1.17.33,1.48,1.48,0,0,0-.49,1.07H94.64a2.92,2.92,0,0,1,.84-1.9,3.16,3.16,0,0,1,2.27-.69,2.63,2.63,0,0,1,3,3v4.63H99.28Zm0-2.6a10.61,10.61,0,0,1-1.2.24,11.09,11.09,0,0,0-1.14.21,2.31,2.31,0,0,0-.85.39.84.84,0,0,0-.32.73.92.92,0,0,0,.37.78,1.49,1.49,0,0,0,1,.3,2.65,2.65,0,0,0,.87-.14,2.12,2.12,0,0,0,.69-.4,1.8,1.8,0,0,0,.46-.63,2,2,0,0,0,.16-.82Z"/><path d="M103.06,432.33h1.5v1.16h0a2.85,2.85,0,0,1,.86-.95,2.1,2.1,0,0,1,1.23-.35h.21l.22,0v1.56a1.77,1.77,0,0,0-.29-.07,2.07,2.07,0,0,0-.35,0,1.88,1.88,0,0,0-1.39.53,2.06,2.06,0,0,0-.52,1.5v4.1h-1.5Z"/><path d="M108.67,432.33h1.5v1.16h0a2.85,2.85,0,0,1,.86-.95,2.1,2.1,0,0,1,1.23-.35h.22l.21,0v1.56a1.77,1.77,0,0,0-.29-.07,2.07,2.07,0,0,0-.35,0,1.88,1.88,0,0,0-1.39.53,2.1,2.1,0,0,0-.52,1.5v4.1h-1.5Z"/><path d="M115,431a.92.92,0,0,1-1-.95,1,1,0,0,1,.25-.7.94.94,0,0,1,.7-.27.94.94,0,0,1,1,1,.91.91,0,0,1-.28.67A.94.94,0,0,1,115,431Zm-.74,1.31h1.49v7.49h-1.49Z"/><path d="M117.23,432.33h1.6l2,5.78,2-5.78h1.57l-2.87,7.49H120.1Z"/><path d="M132.2,437.26a2.88,2.88,0,0,1-.28,1.09,2.6,2.6,0,0,1-.66.85,3.13,3.13,0,0,1-1,.56,4.07,4.07,0,0,1-1.32.2,4,4,0,0,1-1.58-.28,2.82,2.82,0,0,1-1.09-.79,3.31,3.31,0,0,1-.64-1.22,6.07,6.07,0,0,1-.2-1.59,5.25,5.25,0,0,1,.22-1.58,3.29,3.29,0,0,1,.65-1.23,3,3,0,0,1,1.1-.8,3.94,3.94,0,0,1,1.53-.28,3.72,3.72,0,0,1,1.5.27,2.57,2.57,0,0,1,1,.77,3.22,3.22,0,0,1,.58,1.22,6.69,6.69,0,0,1,.18,1.62v.24h-5.28a2.94,2.94,0,0,0,.54,1.84,1.73,1.73,0,0,0,1.39.61,2,2,0,0,0,1.27-.39,1.55,1.55,0,0,0,.58-1.11Zm-1.47-1.93a2.18,2.18,0,0,0-.48-1.41,1.6,1.6,0,0,0-1.32-.55,1.89,1.89,0,0,0-1.35.48,2.36,2.36,0,0,0-.61,1.48Zm-1-5.87h1.83l-2.08,2h-1.18Z"/><path d="M140.64,437.26a3.08,3.08,0,0,1-.28,1.09,2.6,2.6,0,0,1-.66.85,3.13,3.13,0,0,1-1,.56,4.16,4.16,0,0,1-1.32.2,4,4,0,0,1-1.58-.28,2.85,2.85,0,0,1-1.1-.79,3.15,3.15,0,0,1-.63-1.22,5.67,5.67,0,0,1-.2-1.59,5.59,5.59,0,0,1,.21-1.58,3.17,3.17,0,0,1,.66-1.23,3,3,0,0,1,1.09-.8,4,4,0,0,1,1.54-.28,3.79,3.79,0,0,1,1.5.27,2.61,2.61,0,0,1,1,.77,3.08,3.08,0,0,1,.58,1.22,6.69,6.69,0,0,1,.18,1.62v.24h-5.27a2.88,2.88,0,0,0,.53,1.84,1.75,1.75,0,0,0,1.39.61,2,2,0,0,0,1.28-.39,1.59,1.59,0,0,0,.58-1.11Zm-1.47-1.93a2.3,2.3,0,0,0-.48-1.41,1.62,1.62,0,0,0-1.32-.55,1.87,1.87,0,0,0-1.35.48,2.36,2.36,0,0,0-.62,1.48Z"/><path d="M143.7,437.38a1.38,1.38,0,0,0,.56,1.14,2.2,2.2,0,0,0,1.23.31,1.78,1.78,0,0,0,1-.25.85.85,0,0,0,.37-.76.75.75,0,0,0-.33-.66,2.7,2.7,0,0,0-.82-.35l-1.05-.24a5,5,0,0,1-1.06-.33,2.15,2.15,0,0,1-.82-.64,1.79,1.79,0,0,1-.33-1.15,2.35,2.35,0,0,1,.17-.89,1.88,1.88,0,0,1,.53-.72,2.5,2.5,0,0,1,.87-.47,3.8,3.8,0,0,1,1.23-.18,3.22,3.22,0,0,1,2.14.65,2.44,2.44,0,0,1,.81,1.89h-1.45a1.41,1.41,0,0,0-.44-1.06,1.58,1.58,0,0,0-1.06-.33,2.1,2.1,0,0,0-.61.08,1,1,0,0,0-.4.23,1,1,0,0,0-.22.33,1.24,1.24,0,0,0-.06.37.69.69,0,0,0,.33.62,3,3,0,0,0,.81.34c.33.09.68.17,1.06.25a5.07,5.07,0,0,1,1.06.35,2.22,2.22,0,0,1,.81.65,1.88,1.88,0,0,1,.32,1.16,2,2,0,0,1-.73,1.63,3.35,3.35,0,0,1-2.19.61,3.8,3.8,0,0,1-2.31-.62,2.44,2.44,0,0,1-.91-2Z"/><path d="M18.59,450.33h1.5v1.16h0a2.85,2.85,0,0,1,.92-.94,2.72,2.72,0,0,1,1.49-.36,3,3,0,0,1,1.39.3,2.85,2.85,0,0,1,1,.8,3.58,3.58,0,0,1,.61,1.22,6,6,0,0,1,.2,1.56,5.2,5.2,0,0,1-.22,1.58,3.7,3.7,0,0,1-.62,1.24,2.75,2.75,0,0,1-1,.79,3.17,3.17,0,0,1-1.37.28,2.7,2.7,0,0,1-1.46-.36,2.82,2.82,0,0,1-.93-1h0v3.93h-1.5Zm3.51,6.49a1.84,1.84,0,0,0,1.53-.71,3.24,3.24,0,0,0,.56-2,3.29,3.29,0,0,0-.54-2,1.84,1.84,0,0,0-1.56-.72,1.69,1.69,0,0,0-1.53.73,4.41,4.41,0,0,0,0,4A1.75,1.75,0,0,0,22.1,456.82Z"/><path d="M32,456.77h0a2.83,2.83,0,0,1-1,.86,3.42,3.42,0,0,1-1.58.33,3,3,0,0,1-1-.16,2,2,0,0,1-.74-.42,1.84,1.84,0,0,1-.44-.63A2,2,0,0,1,27,456a2,2,0,0,1,.36-1.27,2.35,2.35,0,0,1,.91-.67,4.66,4.66,0,0,1,1.22-.33l1.23-.2.67-.12a1.55,1.55,0,0,0,.39-.14A.4.4,0,0,0,32,453a1,1,0,0,0,0-.32,1.3,1.3,0,0,0-.38-1,1.65,1.65,0,0,0-1.16-.37,1.84,1.84,0,0,0-1.16.33,1.48,1.48,0,0,0-.49,1.07H27.37a2.92,2.92,0,0,1,.84-1.9,3.16,3.16,0,0,1,2.27-.69,3.1,3.1,0,0,1,2.29.75,3.1,3.1,0,0,1,.73,2.25v4.63H32Zm0-2.6a11.58,11.58,0,0,1-1.2.24,10.61,10.61,0,0,0-1.14.21,2.31,2.31,0,0,0-.85.39.85.85,0,0,0-.33.73.93.93,0,0,0,.38.78,1.45,1.45,0,0,0,1,.3,2.69,2.69,0,0,0,.87-.14,2.12,2.12,0,0,0,.69-.4,1.8,1.8,0,0,0,.46-.63,2.14,2.14,0,0,0,.16-.82Z"/><path d="M35.79,450.33h1.5v1.16h0a2.87,2.87,0,0,1,.87-.95,2.1,2.1,0,0,1,1.23-.35h.21l.22,0v1.56l-.3-.07a2,2,0,0,0-.35,0,1.85,1.85,0,0,0-1.38.53,2.06,2.06,0,0,0-.52,1.5v4.1h-1.5Z"/><path d="M50.71,456.62h0a3.17,3.17,0,0,1-.92,1,2.64,2.64,0,0,1-1.5.37,3.25,3.25,0,0,1-1.37-.28,2.72,2.72,0,0,1-1-.81,3.71,3.71,0,0,1-.6-1.23,5.74,5.74,0,0,1-.2-1.54,5.67,5.67,0,0,1,.21-1.59,3.55,3.55,0,0,1,.61-1.23,2.92,2.92,0,0,1,1-.8,3.09,3.09,0,0,1,1.36-.29,2.71,2.71,0,0,1,1.47.36,3.09,3.09,0,0,1,.93.94h0v-4h1.5v10.36h-1.5Zm-2,.2a1.71,1.71,0,0,0,1.53-.72,3.58,3.58,0,0,0,.49-2,3.46,3.46,0,0,0-.5-2,1.72,1.72,0,0,0-1.53-.72,1.84,1.84,0,0,0-1.53.72,4,4,0,0,0,0,4A1.82,1.82,0,0,0,48.71,456.82Z"/><path d="M60.93,455.26a2.88,2.88,0,0,1-.28,1.09,2.6,2.6,0,0,1-.66.85,3.13,3.13,0,0,1-1,.56,4.16,4.16,0,0,1-1.32.2,4,4,0,0,1-1.58-.28,2.82,2.82,0,0,1-1.09-.79,3.17,3.17,0,0,1-.64-1.22,6.07,6.07,0,0,1-.2-1.59,5.59,5.59,0,0,1,.21-1.58,3.46,3.46,0,0,1,.66-1.23,3,3,0,0,1,1.09-.8,4,4,0,0,1,1.54-.28,3.72,3.72,0,0,1,1.5.27,2.47,2.47,0,0,1,1,.77,3.23,3.23,0,0,1,.59,1.22,6.69,6.69,0,0,1,.18,1.62v.24H55.67a2.94,2.94,0,0,0,.54,1.84,1.72,1.72,0,0,0,1.39.61,2,2,0,0,0,1.27-.39,1.55,1.55,0,0,0,.58-1.11Zm-1.47-1.93a2.3,2.3,0,0,0-.48-1.41,1.6,1.6,0,0,0-1.32-.55,1.89,1.89,0,0,0-1.35.48,2.3,2.3,0,0,0-.61,1.48Zm-1-5.87h1.83l-2.08,2H57Z"/><path d="M63.05,450.33h1.5v1.16h0a3,3,0,0,1,.92-.94,2.72,2.72,0,0,1,1.49-.36,3,3,0,0,1,1.39.3,2.85,2.85,0,0,1,1,.8,3.58,3.58,0,0,1,.61,1.22,6,6,0,0,1,.2,1.56,5.2,5.2,0,0,1-.22,1.58,3.7,3.7,0,0,1-.62,1.24,2.75,2.75,0,0,1-1,.79A3.12,3.12,0,0,1,67,458a2.71,2.71,0,0,1-1.47-.36,2.82,2.82,0,0,1-.93-1h0v3.93h-1.5Zm3.52,6.49a1.84,1.84,0,0,0,1.52-.71,3.24,3.24,0,0,0,.56-2,3.29,3.29,0,0,0-.54-2,1.84,1.84,0,0,0-1.56-.72,1.69,1.69,0,0,0-1.53.73,3.65,3.65,0,0,0-.48,2,3.6,3.6,0,0,0,.48,2A1.76,1.76,0,0,0,66.57,456.82Z"/><path d="M76.46,456.77h0a2.75,2.75,0,0,1-1,.86,3.42,3.42,0,0,1-1.58.33,3,3,0,0,1-1-.16,2.14,2.14,0,0,1-.74-.42,1.84,1.84,0,0,1-.44-.63,2.23,2.23,0,0,1-.14-.77,2,2,0,0,1,.36-1.27,2.31,2.31,0,0,1,.92-.67,4.48,4.48,0,0,1,1.21-.33l1.23-.2.67-.12a1.55,1.55,0,0,0,.39-.14.36.36,0,0,0,.17-.22,1,1,0,0,0,0-.32,1.3,1.3,0,0,0-.38-1,1.64,1.64,0,0,0-1.15-.37,1.85,1.85,0,0,0-1.17.33,1.48,1.48,0,0,0-.49,1.07H71.83a2.92,2.92,0,0,1,.84-1.9,3.16,3.16,0,0,1,2.27-.69,3.1,3.1,0,0,1,2.29.75,3.06,3.06,0,0,1,.73,2.25v4.63h-1.5Zm0-2.6a11.07,11.07,0,0,1-1.2.24,11.09,11.09,0,0,0-1.14.21,2.31,2.31,0,0,0-.85.39.85.85,0,0,0-.33.73.93.93,0,0,0,.38.78,1.45,1.45,0,0,0,1,.3,2.65,2.65,0,0,0,.87-.14,2.12,2.12,0,0,0,.69-.4,1.8,1.8,0,0,0,.46-.63,2.14,2.14,0,0,0,.16-.82Z"/><path d="M80.25,450.33h1.5v1.16h0a2.75,2.75,0,0,1,.86-.95,2.1,2.1,0,0,1,1.23-.35h.21l.22,0v1.56a1.67,1.67,0,0,0-.3-.07,2,2,0,0,0-.34,0,1.86,1.86,0,0,0-1.39.53,2.06,2.06,0,0,0-.52,1.5v4.1h-1.5Z"/><path d="M85.9,451.57h-1v-1.24h1V448.4h1.5v1.93h1.75v1.24H87.4v3.93a.94.94,0,0,0,1.07,1.09l.35,0,.38-.05v1.33l-.47.07a2.86,2.86,0,0,1-.53,0,2.43,2.43,0,0,1-1.69-.56,2.39,2.39,0,0,1-.61-1.82Z"/><path d="M97.13,455.26a3.08,3.08,0,0,1-.28,1.09,2.6,2.6,0,0,1-.66.85,3.24,3.24,0,0,1-1,.56,4.16,4.16,0,0,1-1.32.2,4,4,0,0,1-1.58-.28,2.85,2.85,0,0,1-1.1-.79,3.15,3.15,0,0,1-.63-1.22,5.67,5.67,0,0,1-.21-1.59,5.58,5.58,0,0,1,.22-1.58,3.17,3.17,0,0,1,.66-1.23,2.94,2.94,0,0,1,1.09-.8,4,4,0,0,1,1.53-.28,3.81,3.81,0,0,1,1.51.27,2.61,2.61,0,0,1,1,.77,3.08,3.08,0,0,1,.58,1.22,6.69,6.69,0,0,1,.18,1.62v.24H91.87a2.88,2.88,0,0,0,.53,1.84,1.75,1.75,0,0,0,1.39.61,2,2,0,0,0,1.28-.39,1.59,1.59,0,0,0,.58-1.11Zm-1.47-1.93a2.3,2.3,0,0,0-.48-1.41,1.63,1.63,0,0,0-1.33-.55,1.86,1.86,0,0,0-1.34.48,2.36,2.36,0,0,0-.62,1.48Z"/><path d="M99.25,450.33h1.5v1.18h0a2.93,2.93,0,0,1,.84-1,2.29,2.29,0,0,1,1.35-.36,2.35,2.35,0,0,1,1.38.36,2.06,2.06,0,0,1,.75,1h0a2.72,2.72,0,0,1,.92-1,2.56,2.56,0,0,1,1.4-.36,2.14,2.14,0,0,1,1.79.7,3.13,3.13,0,0,1,.57,2v4.9h-1.49v-4.49a2.41,2.41,0,0,0-.32-1.41,1.14,1.14,0,0,0-1-.44,1.63,1.63,0,0,0-1.23.48,2,2,0,0,0-.48,1.47v4.39h-1.5v-4.49a2.73,2.73,0,0,0-.28-1.39,1.07,1.07,0,0,0-1-.46,1.55,1.55,0,0,0-1.28.55,2.29,2.29,0,0,0-.45,1.51v4.28h-1.5Z"/><path d="M118.48,455.26a2.88,2.88,0,0,1-.28,1.09,2.6,2.6,0,0,1-.66.85,3.13,3.13,0,0,1-1,.56,4.07,4.07,0,0,1-1.32.2,4,4,0,0,1-1.58-.28,2.82,2.82,0,0,1-1.09-.79,3.31,3.31,0,0,1-.64-1.22,6.07,6.07,0,0,1-.2-1.59,5.25,5.25,0,0,1,.22-1.58,3.29,3.29,0,0,1,.65-1.23,3.07,3.07,0,0,1,1.1-.8,3.94,3.94,0,0,1,1.53-.28,3.72,3.72,0,0,1,1.5.27,2.57,2.57,0,0,1,1,.77,3.22,3.22,0,0,1,.58,1.22,6.69,6.69,0,0,1,.18,1.62v.24h-5.28a2.94,2.94,0,0,0,.54,1.84,1.73,1.73,0,0,0,1.39.61,2,2,0,0,0,1.27-.39,1.55,1.55,0,0,0,.58-1.11ZM117,453.33a2.18,2.18,0,0,0-.48-1.41,1.6,1.6,0,0,0-1.32-.55,1.89,1.89,0,0,0-1.35.48,2.36,2.36,0,0,0-.61,1.48Z"/><path d="M120.6,450.33h1.5v1.18h0a2.82,2.82,0,0,1,.94-1,2.93,2.93,0,0,1,1.51-.35,2.25,2.25,0,0,1,1.9.72,3.19,3.19,0,0,1,.55,2v4.9h-1.5v-4.49a2.42,2.42,0,0,0-.33-1.39,1.26,1.26,0,0,0-1.12-.46,1.92,1.92,0,0,0-1.45.55,2.1,2.1,0,0,0-.53,1.51v4.28h-1.5Z"/><path d="M129.45,451.57h-1v-1.24h1V448.4H131v1.93h1.75v1.24H131v3.93a1.15,1.15,0,0,0,.26.83,1.13,1.13,0,0,0,.8.26l.36,0,.37-.05v1.33l-.46.07a2.93,2.93,0,0,1-.53,0,2.41,2.41,0,0,1-1.69-.56,2.35,2.35,0,0,1-.61-1.82Z"/><path d="M18.69,474.54H21V467.3l-2.25,1.44-.69-1.09,3.29-2.19h1.22v9.08h2v1.28h-5.9Z"/><path d="M27.59,472.68a2.52,2.52,0,0,0,.57,1.49,1.75,1.75,0,0,0,1.36.53,2.13,2.13,0,0,0,.88-.18,1.68,1.68,0,0,0,.71-.65,3.74,3.74,0,0,0,.49-1.29,10.74,10.74,0,0,0,.17-2.08,2.21,2.21,0,0,1-1,1.05,3.32,3.32,0,0,1-1.6.37,3.63,3.63,0,0,1-1.24-.21,2.8,2.8,0,0,1-1-.6,2.88,2.88,0,0,1-.69-1,3.47,3.47,0,0,1-.25-1.38,3.84,3.84,0,0,1,.24-1.4,2.93,2.93,0,0,1,.7-1.07,3,3,0,0,1,1.11-.69,4,4,0,0,1,1.46-.25,3.86,3.86,0,0,1,1.55.3,2.76,2.76,0,0,1,1.17.93,4.5,4.5,0,0,1,.73,1.62,9.58,9.58,0,0,1,.26,2.37,7.12,7.12,0,0,1-1,4.09A3.24,3.24,0,0,1,29.42,476a3.35,3.35,0,0,1-2.41-.85,3.42,3.42,0,0,1-1-2.43Zm1.89-2a1.85,1.85,0,0,0,1.41-.55,1.93,1.93,0,0,0,.53-1.43,2.28,2.28,0,0,0-.14-.84,2.08,2.08,0,0,0-.39-.68,1.75,1.75,0,0,0-.63-.44,1.92,1.92,0,0,0-.81-.16,2,2,0,0,0-.79.15,1.92,1.92,0,0,0-.62.43,2,2,0,0,0-.39.66,2.27,2.27,0,0,0-.15.83A2,2,0,0,0,28,470.1,1.86,1.86,0,0,0,29.48,470.67Z"/><path d="M34,472l4.25-6.58H40v6.71h1.5v1.3H40v2.35H38.4v-2.35H34Zm4.45.13v-4.84l-3.14,4.84Z"/><path d="M47.64,466.75H42.4v-1.29h6.92v1.25l-4.4,9.11H43.17Z"/><path d="M54.75,470.71h5.61v1.22H54.75Z"/><path d="M66,474.56q1.16-1.14,2.1-2T69.65,471a7.23,7.23,0,0,0,1-1.34A2.68,2.68,0,0,0,71,468.3a1.76,1.76,0,0,0-.43-1.23,1.61,1.61,0,0,0-1.26-.48,1.82,1.82,0,0,0-1.36.53,2.43,2.43,0,0,0-.59,1.57H65.81a4.23,4.23,0,0,1,.3-1.39,3.4,3.4,0,0,1,.71-1.06,3.21,3.21,0,0,1,1.07-.68,3.93,3.93,0,0,1,1.41-.24,4.27,4.27,0,0,1,1.46.22,2.6,2.6,0,0,1,1,.61,2.29,2.29,0,0,1,.61.94,3.5,3.5,0,0,1,.2,1.19,3.33,3.33,0,0,1-.38,1.56,7.75,7.75,0,0,1-1,1.46,21,21,0,0,1-1.49,1.5c-.56.52-1.15,1.09-1.75,1.72h4.71v1.29H66Z"/><path d="M77.41,476a3.43,3.43,0,0,1-1.43-.3,3.07,3.07,0,0,1-1.16-1,4.53,4.53,0,0,1-.79-1.65,10.24,10.24,0,0,1,0-4.84,4.61,4.61,0,0,1,.79-1.65,3.07,3.07,0,0,1,1.16-.95,3.56,3.56,0,0,1,2.86,0,3,3,0,0,1,1.17.95,4.79,4.79,0,0,1,.79,1.65,10.6,10.6,0,0,1,0,4.84,4.7,4.7,0,0,1-.79,1.65,3,3,0,0,1-1.17,1A3.43,3.43,0,0,1,77.41,476Zm0-1.27a1.86,1.86,0,0,0,.79-.18,1.64,1.64,0,0,0,.66-.65,3.84,3.84,0,0,0,.46-1.24,9.16,9.16,0,0,0,.18-2,9,9,0,0,0-.18-2,4,4,0,0,0-.46-1.25,1.67,1.67,0,0,0-.66-.64,1.87,1.87,0,0,0-.79-.19,1.84,1.84,0,0,0-.79.19,1.63,1.63,0,0,0-.67.64,4,4,0,0,0-.45,1.25,9.07,9.07,0,0,0-.17,2,9.23,9.23,0,0,0,.17,2,3.85,3.85,0,0,0,.45,1.24,1.6,1.6,0,0,0,.67.65A1.82,1.82,0,0,0,77.41,474.69Z"/><path d="M82.77,474.54h2.31V467.3l-2.25,1.44-.69-1.09,3.29-2.19h1.22v9.08h2v1.28h-5.9Z"/><path d="M91.67,472.68a2.52,2.52,0,0,0,.57,1.49,1.75,1.75,0,0,0,1.36.53,2.13,2.13,0,0,0,.88-.18,1.68,1.68,0,0,0,.71-.65,3.74,3.74,0,0,0,.49-1.29,10.74,10.74,0,0,0,.17-2.08,2.21,2.21,0,0,1-1,1.05,3.32,3.32,0,0,1-1.6.37,3.63,3.63,0,0,1-1.24-.21,2.8,2.8,0,0,1-1-.6,2.88,2.88,0,0,1-.69-1,3.47,3.47,0,0,1-.25-1.38,3.84,3.84,0,0,1,.24-1.4,2.93,2.93,0,0,1,.7-1.07,3,3,0,0,1,1.11-.69,4,4,0,0,1,1.46-.25,3.86,3.86,0,0,1,1.55.3,2.76,2.76,0,0,1,1.17.93,4.5,4.5,0,0,1,.73,1.62,9.58,9.58,0,0,1,.26,2.37,7.12,7.12,0,0,1-1,4.09A3.24,3.24,0,0,1,93.5,476a3.35,3.35,0,0,1-2.41-.85,3.42,3.42,0,0,1-1-2.43Zm1.89-2a1.85,1.85,0,0,0,1.41-.55,1.93,1.93,0,0,0,.53-1.43,2.28,2.28,0,0,0-.14-.84,2.08,2.08,0,0,0-.39-.68,1.75,1.75,0,0,0-.63-.44,1.92,1.92,0,0,0-.81-.16,2,2,0,0,0-.79.15,1.92,1.92,0,0,0-.62.43,2,2,0,0,0-.39.66,2.27,2.27,0,0,0-.15.83,2,2,0,0,0,.54,1.46A1.86,1.86,0,0,0,93.56,470.67Z"/><path d="M35.91,507.12h1.65V502L36,503l-.49-.78,2.35-1.57h.87v6.49h1.44V508H35.91Z"/><path d="M44.25,504.38h4v.88h-4Z"/><path d="M52.65,507.12H54.3V502l-1.61,1-.49-.78,2.35-1.57h.87v6.49h1.44V508H52.65Z"/><path d="M60.44,508.13a2.53,2.53,0,0,1-1-.21,2.28,2.28,0,0,1-.83-.67,3.7,3.7,0,0,1-.56-1.18,6.28,6.28,0,0,1-.2-1.73,6.18,6.18,0,0,1,.2-1.73,3.5,3.5,0,0,1,.56-1.18,2.31,2.31,0,0,1,.83-.68,2.61,2.61,0,0,1,2.05,0,2.16,2.16,0,0,1,.83.68,3.33,3.33,0,0,1,.57,1.18,6.58,6.58,0,0,1,.2,1.73,6.69,6.69,0,0,1-.2,1.73,3.51,3.51,0,0,1-.57,1.18,2.13,2.13,0,0,1-.83.67A2.52,2.52,0,0,1,60.44,508.13Zm0-.9a1.39,1.39,0,0,0,.56-.13,1.15,1.15,0,0,0,.47-.46,2.77,2.77,0,0,0,.33-.89,6.26,6.26,0,0,0,.13-1.41,6.15,6.15,0,0,0-.13-1.41,2.68,2.68,0,0,0-.33-.89,1.15,1.15,0,0,0-.47-.46,1.21,1.21,0,0,0-1.61.46,2.93,2.93,0,0,0-.32.89,6.85,6.85,0,0,0-.12,1.41,7,7,0,0,0,.12,1.41,3,3,0,0,0,.32.89,1.23,1.23,0,0,0,.48.46A1.4,1.4,0,0,0,60.44,507.23Z"/><path d="M35.91,528.57h1.65V523.4l-1.61,1-.49-.79,2.35-1.56h.87v6.49h1.44v.91H35.91Z"/><path d="M41.71,528.57h1.65V523.4l-1.6,1-.5-.79,2.36-1.56h.87v6.49h1.44v.91H41.71Z"/><path d="M50.06,525.83h4v.88h-4Z"/><path d="M58.06,528.59q.82-.83,1.5-1.44c.44-.42.82-.79,1.14-1.13a5.87,5.87,0,0,0,.72-1,1.88,1.88,0,0,0,.26-.94,1.29,1.29,0,0,0-.31-.88,1.19,1.19,0,0,0-.9-.34,1.3,1.3,0,0,0-1,.38,1.66,1.66,0,0,0-.42,1.12H58a3,3,0,0,1,.21-1,2.26,2.26,0,0,1,.51-.76,2.14,2.14,0,0,1,.76-.48,2.67,2.67,0,0,1,1-.18,3.25,3.25,0,0,1,1,.16,2,2,0,0,1,.73.43,1.78,1.78,0,0,1,.44.67,2.61,2.61,0,0,1,.14.85,2.27,2.27,0,0,1-.28,1.12,4.87,4.87,0,0,1-.74,1c-.31.35-.66.71-1.06,1.08s-.82.78-1.25,1.23h3.37v.91H58.06Z"/><path d="M66.24,529.58a2.48,2.48,0,0,1-1-.21,2.23,2.23,0,0,1-.83-.68,3.24,3.24,0,0,1-.56-1.18,7.23,7.23,0,0,1,0-3.46,3.32,3.32,0,0,1,.56-1.18,2.2,2.2,0,0,1,.83-.67,2.47,2.47,0,0,1,2,0,2.23,2.23,0,0,1,.84.67,3.5,3.5,0,0,1,.56,1.18,7.23,7.23,0,0,1,0,3.46,3.41,3.41,0,0,1-.56,1.18,2.26,2.26,0,0,1-.84.68A2.48,2.48,0,0,1,66.24,529.58Zm0-.91a1.21,1.21,0,0,0,.56-.13,1.2,1.2,0,0,0,.48-.45,2.74,2.74,0,0,0,.33-.9,8.29,8.29,0,0,0,0-2.81,2.68,2.68,0,0,0-.33-.89,1.26,1.26,0,0,0-.48-.47,1.35,1.35,0,0,0-.56-.13,1.44,1.44,0,0,0-.57.13,1.24,1.24,0,0,0-.47.47,2.68,2.68,0,0,0-.33.89,8.29,8.29,0,0,0,0,2.81,2.74,2.74,0,0,0,.33.9,1.18,1.18,0,0,0,.47.45A1.28,1.28,0,0,0,66.24,528.67Z"/><path d="M35.51,549.69q.83-.83,1.5-1.44c.45-.41.83-.79,1.14-1.13a5.44,5.44,0,0,0,.72-1,1.93,1.93,0,0,0,.26-.94,1.23,1.23,0,0,0-.31-.88,1.15,1.15,0,0,0-.9-.34,1.29,1.29,0,0,0-1,.37,1.68,1.68,0,0,0-.42,1.12H35.41a3,3,0,0,1,.21-1,2.49,2.49,0,0,1,.51-.75,2.31,2.31,0,0,1,.76-.49,2.89,2.89,0,0,1,1-.17,3.22,3.22,0,0,1,1,.15,2,2,0,0,1,.73.44,1.67,1.67,0,0,1,.44.67,2.57,2.57,0,0,1,.14.85,2.3,2.3,0,0,1-.28,1.12,4.77,4.77,0,0,1-.74,1c-.31.35-.66.7-1.06,1.07s-.82.78-1.25,1.23h3.37v.92H35.51Z"/><path d="M41.71,549.67h1.65V544.5l-1.6,1-.5-.78,2.36-1.56h.87v6.48h1.44v.92H41.71Z"/><path d="M50.06,546.94h4v.87h-4Z"/><path d="M57.75,547.89l3-4.7H62V548h1.07v.93H62v1.68H60.93v-1.68H57.75Zm3.18.09v-3.46L58.68,548Z"/><path d="M66.24,550.69a2.34,2.34,0,0,1-1-.22,2.2,2.2,0,0,1-.83-.67,3.32,3.32,0,0,1-.56-1.18,7.23,7.23,0,0,1,0-3.46,3.24,3.24,0,0,1,.56-1.18,2.23,2.23,0,0,1,.83-.68,2.58,2.58,0,0,1,2,0,2.26,2.26,0,0,1,.84.68,3.41,3.41,0,0,1,.56,1.18,7.23,7.23,0,0,1,0,3.46,3.5,3.5,0,0,1-.56,1.18,2.23,2.23,0,0,1-.84.67A2.34,2.34,0,0,1,66.24,550.69Zm0-.91a1.21,1.21,0,0,0,.56-.13,1.23,1.23,0,0,0,.48-.46,2.77,2.77,0,0,0,.33-.89,8.34,8.34,0,0,0,0-2.82,2.77,2.77,0,0,0-.33-.89,1.23,1.23,0,0,0-.48-.46,1.21,1.21,0,0,0-.56-.13,1.28,1.28,0,0,0-.57.13,1.21,1.21,0,0,0-.47.46,2.77,2.77,0,0,0-.33.89,8.34,8.34,0,0,0,0,2.82,2.77,2.77,0,0,0,.33.89,1.21,1.21,0,0,0,.47.46A1.28,1.28,0,0,0,66.24,549.78Z"/><path d="M104.2,505.34l3-4.71h1.26v4.79h1.07v.94h-1.07V508h-1.11v-1.68H104.2Zm3.18.08V502l-2.25,3.45Z"/><path d="M110.71,507.12h1.65V502l-1.6,1-.5-.78,2.36-1.57h.87v6.49h1.44V508h-4.22Z"/><path d="M119.06,504.38h4v.88h-4Z"/><path d="M130.92,502.88a1.8,1.8,0,0,0-.41-1.06,1.21,1.21,0,0,0-1-.38,1.53,1.53,0,0,0-.64.13,1.29,1.29,0,0,0-.51.46,3.12,3.12,0,0,0-.34.92,7.65,7.65,0,0,0-.12,1.49,1.57,1.57,0,0,1,.69-.75,2.41,2.41,0,0,1,1.15-.26,2.8,2.8,0,0,1,.88.14,2.14,2.14,0,0,1,.73.43,2,2,0,0,1,.5.71,2.59,2.59,0,0,1,.18,1,2.66,2.66,0,0,1-.18,1,2,2,0,0,1-.5.76,2.12,2.12,0,0,1-.79.49,2.87,2.87,0,0,1-1,.17,2.82,2.82,0,0,1-1.11-.21,2,2,0,0,1-.83-.66,3.37,3.37,0,0,1-.53-1.16,6.89,6.89,0,0,1-.18-1.69,5,5,0,0,1,.68-2.92,2.3,2.3,0,0,1,2-.95,2.38,2.38,0,0,1,1.72.61,2.47,2.47,0,0,1,.69,1.73Zm-1.32,4.37a1.47,1.47,0,0,0,.56-.11,1.4,1.4,0,0,0,.44-.31,1.58,1.58,0,0,0,.28-.47,1.87,1.87,0,0,0,.1-.59,1.49,1.49,0,0,0-.38-1,1.34,1.34,0,0,0-1-.4,1.37,1.37,0,0,0-1,.39,1.42,1.42,0,0,0-.38,1,1.63,1.63,0,0,0,.1.59,1.52,1.52,0,0,0,.28.48,1.39,1.39,0,0,0,1,.44Z"/><path d="M135.24,508.13a2.48,2.48,0,0,1-1-.21,2.2,2.2,0,0,1-.83-.67,3.32,3.32,0,0,1-.56-1.18,6.25,6.25,0,0,1-.21-1.73,6.15,6.15,0,0,1,.21-1.73,3.16,3.16,0,0,1,.56-1.18,2.23,2.23,0,0,1,.83-.68,2.58,2.58,0,0,1,2,0,2.26,2.26,0,0,1,.84.68,3.32,3.32,0,0,1,.56,1.18,6.15,6.15,0,0,1,.21,1.73,6.25,6.25,0,0,1-.21,1.73,3.5,3.5,0,0,1-.56,1.18,2.23,2.23,0,0,1-.84.67A2.48,2.48,0,0,1,135.24,508.13Zm0-.9a1.35,1.35,0,0,0,.56-.13,1.23,1.23,0,0,0,.48-.46,2.77,2.77,0,0,0,.33-.89,7,7,0,0,0,.12-1.41,6.85,6.85,0,0,0-.12-1.41,2.68,2.68,0,0,0-.33-.89,1.23,1.23,0,0,0-.48-.46,1.21,1.21,0,0,0-.56-.13,1.28,1.28,0,0,0-.57.13,1.21,1.21,0,0,0-.47.46,2.68,2.68,0,0,0-.33.89,6.85,6.85,0,0,0-.12,1.41,7,7,0,0,0,.12,1.41,2.77,2.77,0,0,0,.33.89,1.21,1.21,0,0,0,.47.46A1.44,1.44,0,0,0,135.24,507.23Z"/><path d="M108.37,524.32a1.86,1.86,0,0,0-.41-1.06,1.24,1.24,0,0,0-1-.38,1.7,1.7,0,0,0-.64.13,1.32,1.32,0,0,0-.51.47,3,3,0,0,0-.34.92,7.58,7.58,0,0,0-.12,1.49,1.57,1.57,0,0,1,.69-.75,2.3,2.3,0,0,1,1.15-.26,2.54,2.54,0,0,1,.88.14,2.14,2.14,0,0,1,.73.43,2,2,0,0,1,.5.71,2.52,2.52,0,0,1,.18,1,2.91,2.91,0,0,1-.17,1,2.12,2.12,0,0,1-.51.76,2.25,2.25,0,0,1-.79.49,3.06,3.06,0,0,1-1,.17,2.82,2.82,0,0,1-1.11-.21,2,2,0,0,1-.83-.66,3.19,3.19,0,0,1-.52-1.16,6.45,6.45,0,0,1-.19-1.69,5.05,5.05,0,0,1,.68-2.92,2.31,2.31,0,0,1,2-1,2.42,2.42,0,0,1,1.72.61,2.47,2.47,0,0,1,.69,1.73Zm-1.32,4.37a1.27,1.27,0,0,0,.56-.11,1.07,1.07,0,0,0,.44-.31,1.47,1.47,0,0,0,.28-.47,1.78,1.78,0,0,0,.1-.59,1.48,1.48,0,0,0-.38-1,1.35,1.35,0,0,0-1-.41,1.33,1.33,0,0,0-1,.39,1.42,1.42,0,0,0-.39,1,1.64,1.64,0,0,0,.1.6,1.47,1.47,0,0,0,.29.48,1.28,1.28,0,0,0,.44.32A1.44,1.44,0,0,0,107.05,528.69Z"/><path d="M110.71,528.57h1.65V523.4l-1.6,1-.5-.79,2.36-1.56h.87v6.49h1.44v.91h-4.22Z"/><path d="M119.06,525.83h4v.88h-4Z"/><path d="M127.46,528.57h1.65V523.4l-1.61,1-.49-.79,2.35-1.56h.87v6.49h1.44v.91h-4.21Z"/><path d="M135.24,529.58a2.48,2.48,0,0,1-1-.21,2.23,2.23,0,0,1-.83-.68,3.24,3.24,0,0,1-.56-1.18,7.23,7.23,0,0,1,0-3.46,3.32,3.32,0,0,1,.56-1.18,2.2,2.2,0,0,1,.83-.67,2.47,2.47,0,0,1,2,0,2.23,2.23,0,0,1,.84.67,3.5,3.5,0,0,1,.56,1.18,7.23,7.23,0,0,1,0,3.46,3.41,3.41,0,0,1-.56,1.18,2.26,2.26,0,0,1-.84.68A2.48,2.48,0,0,1,135.24,529.58Zm0-.91a1.21,1.21,0,0,0,.56-.13,1.2,1.2,0,0,0,.48-.45,2.74,2.74,0,0,0,.33-.9,8.29,8.29,0,0,0,0-2.81,2.68,2.68,0,0,0-.33-.89,1.26,1.26,0,0,0-.48-.47,1.35,1.35,0,0,0-.56-.13,1.44,1.44,0,0,0-.57.13,1.24,1.24,0,0,0-.47.47,2.68,2.68,0,0,0-.33.89,8.29,8.29,0,0,0,0,2.81,2.74,2.74,0,0,0,.33.9,1.18,1.18,0,0,0,.47.45A1.28,1.28,0,0,0,135.24,528.67Z"/><path d="M141.05,529.58a2.53,2.53,0,0,1-1-.21,2.31,2.31,0,0,1-.83-.68,3.6,3.6,0,0,1-.56-1.18,7.58,7.58,0,0,1,0-3.46,3.7,3.7,0,0,1,.56-1.18,2.28,2.28,0,0,1,.83-.67,2.5,2.5,0,0,1,2,0,2.13,2.13,0,0,1,.83.67,3.51,3.51,0,0,1,.57,1.18,7.58,7.58,0,0,1,0,3.46,3.42,3.42,0,0,1-.57,1.18,2.16,2.16,0,0,1-.83.68A2.52,2.52,0,0,1,141.05,529.58Zm0-.91a1.24,1.24,0,0,0,.56-.13,1.12,1.12,0,0,0,.47-.45,2.74,2.74,0,0,0,.33-.9,7.66,7.66,0,0,0,0-2.81,2.68,2.68,0,0,0-.33-.89,1.18,1.18,0,0,0-.47-.47,1.29,1.29,0,0,0-1.13,0,1.26,1.26,0,0,0-.48.47,2.93,2.93,0,0,0-.32.89,8.29,8.29,0,0,0,0,2.81,3,3,0,0,0,.32.9,1.2,1.2,0,0,0,.48.45A1.25,1.25,0,0,0,141.05,528.67Z"/><circle class="cls-6" cx="91.46" cy="526.43" r="6.35"/><path d="M104.3,546.37h2.15v-2.14h.86v2.14h2.15v.86h-2.15v2.16h-.86v-2.16H104.3Z"/><path d="M120.25,548.62h0a2.19,2.19,0,0,1-.65.7,2,2,0,0,1-1.07.26,2.32,2.32,0,0,1-1-.2,2,2,0,0,1-.71-.57,2.49,2.49,0,0,1-.43-.88,3.92,3.92,0,0,1-.15-1.11,4,4,0,0,1,.15-1.13,2.51,2.51,0,0,1,.44-.88,2.22,2.22,0,0,1,.72-.57,2.16,2.16,0,0,1,1-.2,1.94,1.94,0,0,1,1,.25,2,2,0,0,1,.66.67h0v-2.88h1.07v7.4h-1.07Zm-1.43.15a1.24,1.24,0,0,0,1.1-.52,2.61,2.61,0,0,0,.34-1.46,2.43,2.43,0,0,0-.35-1.42,1.24,1.24,0,0,0-1.1-.51,1.32,1.32,0,0,0-1.09.51,2.34,2.34,0,0,0-.4,1.45,2.3,2.3,0,0,0,.39,1.43A1.3,1.3,0,0,0,118.82,548.77Z"/><path d="M127.55,547.65a2,2,0,0,1-.2.78,1.76,1.76,0,0,1-.47.61,2.34,2.34,0,0,1-.71.4,3.06,3.06,0,0,1-1,.14,2.78,2.78,0,0,1-1.13-.2,2.11,2.11,0,0,1-.78-.56,2.29,2.29,0,0,1-.45-.88,4,4,0,0,1-.15-1.13,4,4,0,0,1,.16-1.13,2.4,2.4,0,0,1,.47-.88,2.11,2.11,0,0,1,.78-.56,2.62,2.62,0,0,1,1.09-.2,2.71,2.71,0,0,1,1.08.19,1.81,1.81,0,0,1,.73.55,2.13,2.13,0,0,1,.41.87,4.55,4.55,0,0,1,.13,1.15V547h-3.77a2.1,2.1,0,0,0,.39,1.32,1.21,1.21,0,0,0,1,.43,1.45,1.45,0,0,0,.91-.27,1.14,1.14,0,0,0,.41-.8Zm-1-1.37a1.58,1.58,0,0,0-.34-1,1.17,1.17,0,0,0-1-.39,1.33,1.33,0,0,0-1,.34,1.71,1.71,0,0,0-.44,1.06Z"/><path d="M132.1,548.57h1.65V543.4l-1.6,1-.5-.79,2.36-1.56h.87v6.49h1.44v.91H132.1Z"/><path d="M139.89,549.58a2.45,2.45,0,0,1-1-.21,2.16,2.16,0,0,1-.83-.68,3.24,3.24,0,0,1-.56-1.18,7.23,7.23,0,0,1,0-3.46,3.32,3.32,0,0,1,.56-1.18,2.13,2.13,0,0,1,.83-.67,2.45,2.45,0,0,1,1-.22,2.53,2.53,0,0,1,1,.22,2.23,2.23,0,0,1,.84.67,3.5,3.5,0,0,1,.56,1.18,7.58,7.58,0,0,1,0,3.46,3.41,3.41,0,0,1-.56,1.18,2.26,2.26,0,0,1-.84.68A2.52,2.52,0,0,1,139.89,549.58Zm0-.91a1.24,1.24,0,0,0,.56-.13,1.2,1.2,0,0,0,.48-.45,3.29,3.29,0,0,0,.33-.9,8.29,8.29,0,0,0,0-2.81,3.21,3.21,0,0,0-.33-.89,1.26,1.26,0,0,0-.48-.47,1.29,1.29,0,0,0-1.13,0,1.18,1.18,0,0,0-.47.47,2.68,2.68,0,0,0-.33.89,8.29,8.29,0,0,0,0,2.81,2.74,2.74,0,0,0,.33.9,1.12,1.12,0,0,0,.47.45A1.25,1.25,0,0,0,139.89,548.67Z"/><path d="M145.7,549.58a2.53,2.53,0,0,1-1-.21,2.31,2.31,0,0,1-.83-.68,3.41,3.41,0,0,1-.56-1.18,7.58,7.58,0,0,1,0-3.46,3.5,3.5,0,0,1,.56-1.18,2.28,2.28,0,0,1,.83-.67,2.5,2.5,0,0,1,2.05,0,2.13,2.13,0,0,1,.83.67,3.32,3.32,0,0,1,.56,1.18,7.23,7.23,0,0,1,0,3.46,3.24,3.24,0,0,1-.56,1.18,2.16,2.16,0,0,1-.83.68A2.52,2.52,0,0,1,145.7,549.58Zm0-.91a1.24,1.24,0,0,0,.56-.13,1.12,1.12,0,0,0,.47-.45,2.74,2.74,0,0,0,.33-.9,7.66,7.66,0,0,0,0-2.81,2.68,2.68,0,0,0-.33-.89,1.18,1.18,0,0,0-.47-.47,1.29,1.29,0,0,0-1.13,0,1.26,1.26,0,0,0-.48.47,2.93,2.93,0,0,0-.32.89,8.29,8.29,0,0,0,0,2.81,3,3,0,0,0,.32.9,1.2,1.2,0,0,0,.48.45A1.25,1.25,0,0,0,145.7,548.67Z"/><circle class="cls-7" cx="91.46" cy="547.43" r="6.35"/><circle class="cls-2" cx="23.46" cy="505.76" r="6.35"/><circle class="cls-4" cx="23.46" cy="526.43" r="6.35"/><circle class="cls-3" cx="91.46" cy="505.76" r="6.35"/><circle class="cls-5" cx="23.46" cy="547.1" r="6.35"/></svg>