<?xml version="1.0" encoding="utf-8"?>
<!-- Generator: Adobe Illustrator 19.1.0, SVG Export Plug-In . SVG Version: 6.00 Build 0)  -->
<svg version="1.1" id="Calque_1" xmlns="http://www.w3.org/2000/svg" xmlns:xlink="http://www.w3.org/1999/xlink" x="0px" y="0px"
	 viewBox="79 -4 769 801" style="enable-background:new 79 -4 769 801;" xml:space="preserve">
<style type="text/css">
	.st0{fill:#EDE6D8;stroke:#FFFFFF;stroke-miterlimit:10;}
	.st1{fill:#F6B0BF;}
	.st2{fill:#F28EA4;}
	.st3{fill:#EF6D89;}
	.st4{fill:#E61E49;}
	.st5{fill:#FFFFFF;}
	.st6{fill:#F28EA4;stroke:#FFFFFF;stroke-miterlimit:10;}
	.st7{fill:none;stroke:#FFFFFF;stroke-miterlimit:10;}
	.st8{fill:#F6B0BF;stroke:#FFFFFF;stroke-miterlimit:10;}
	.st9{fill:#E61E49;stroke:#FFFFFF;stroke-miterlimit:10;}
	.st10{fill:none;}
	.st11{enable-background:new    ;}
</style>
<g>
	<g id="XMLID_116_">
		<g id="XMLID_117_">
			<rect id="XMLID_118_" x="79.9" y="-3.5" class="st0" width="767.3" height="800"/>
		</g>
	</g>
	<g>
		<g id="XMLID_478_">
			<g id="XMLID_3497_">
				<polygon id="Var_2_" class="st1" points="688.3,618.5 703.7,639.8 691.3,650.7 692.4,657.2 677.7,665.2 667.7,666.5 
					659.7,665.7 652.3,669.4 646.1,663 649.4,654.9 645.6,650.4 650.3,645.6 645.6,636.8 649.6,625.1 660.7,627.8 				"/>
				<polygon id="Bouches-du-Rhône_1_" class="st2" points="645.6,636.8 650.3,645.6 645.6,650.4 649.4,654.9 646.1,663 631.7,659 
					629.5,651.1 615.4,651.6 611.6,647.4 606.2,646.6 608.8,651.5 603,653.3 592.8,649.3 595.7,645.3 579.6,644.1 588.8,628.9 
					595.2,628.3 597.2,617.4 605.9,612.6 605.9,615.1 617.7,624.1 637.3,629.6 649.6,625.1 649.6,625.1 				"/>
				<polygon id="Drôme_2_" class="st2" points="649.6,564.2 640.9,567 639.3,573.8 641.7,575.7 639.2,578.6 632.7,576.7 
					631.7,584.7 643.5,591.1 642.7,597.9 636.4,601.1 629.4,595.6 620.5,594.8 613.8,589.7 614.9,584.9 611.8,582 606.3,585.9 
					609.1,592.2 605.2,594.2 599.4,588.9 598,578.5 601.3,570.2 606.2,550.1 601.6,533.5 601.9,524.8 604.3,526.7 610,523.6 
					619.7,530.4 618,539.4 628.9,542.9 632.8,539.8 632.8,557.6 				"/>
				<polygon id="Vaucluse_2_" class="st2" points="649.6,625.1 637.3,629.6 617.7,624.1 605.9,615.1 605.9,612.6 605.9,609.8 
					599.5,603.2 599.5,598.2 593.7,589.7 593.7,589.6 599.4,588.9 605.2,594.2 609.1,592.2 606.3,585.9 611.8,582 614.9,584.9 
					613.8,589.7 620.5,594.8 629.4,595.6 636.4,601.1 638.4,617.7 647.9,624.7 				"/>
				<polygon id="Haute-Marne_2_" class="st1" points="643.7,357.4 635.7,366.3 635.7,374.4 624.1,375 624,378.6 618.1,380.4 
					614.2,374.9 605.3,374.2 606,366.1 594.5,353.6 594.2,352 593.5,348.3 600,346 598.6,332.6 594.8,331.2 590.9,325.6 
					590.9,320.6 594.7,320.7 599.4,317.4 600.1,311.9 603.8,311.1 605.4,315.3 624.5,327.5 624,331.6 637.3,341.4 634,348.6 				"/>
				<polygon id="Marne_2_" class="st2" points="543.3,315.8 540.3,314.9 540.8,300.8 549.5,290.5 551.8,281.5 547.9,271.7 
					564.1,267.4 598,275.9 601.1,274.4 606.4,289 600.6,302.5 603.8,311.1 600.1,311.9 599.4,317.4 594.7,320.7 590.9,320.6 
					579.6,320.4 575.2,309.9 571.9,309.6 553.6,318.8 				"/>
				<polygon id="Ardèche_2_" class="st1" points="601.6,533.5 606.2,550.1 601.3,570.2 598,578.5 599.4,588.9 593.7,589.6 
					579.6,591.3 569.6,589.7 565.8,582.2 565,580.6 562,571.9 560,563.2 568.9,554.1 574.2,554.1 585.9,536.5 587.2,531.2 
					599.3,522.6 601.9,524.8 				"/>
				<polygon id="Gard_2_" class="st1" points="605.9,609.8 605.9,612.6 597.2,617.4 595.2,628.3 588.8,628.9 579.6,644.1 
					571.8,644.2 569.6,639.6 575.4,634.8 573.1,626.3 559.3,619 557.4,612.3 553.8,611.8 547.6,619.7 537.2,615.2 542.9,611.6 
					540.3,607.1 533.5,604.9 537.1,599.1 543.8,603.6 550.6,601.1 555.5,601.7 561.2,602.4 563.9,598.4 564.1,588.4 561,585 
					565.8,582.2 569.6,589.7 579.6,591.3 593.7,589.6 593.7,589.7 599.5,598.2 599.5,603.2 				"/>
				<polygon id="Aube_2_" class="st1" points="598.6,332.6 600,346 593.5,348.3 594.2,352 594.1,352 586.8,355.8 577.1,359.1 
					574.1,359 559.6,358.9 546.2,343.5 546.9,337.5 541.3,331.6 537.4,331.4 537.1,330.3 538.3,319.7 543.3,315.8 553.6,318.8 
					571.9,309.6 575.2,309.9 579.6,320.4 590.9,320.6 590.9,325.6 594.8,331.2 				"/>
				<polygon id="Loire_2_" class="st2" points="600,515.6 599.3,522.6 587.2,531.2 574.4,520.8 567.2,525 562,523.2 564.6,516.4 
					562.7,509.2 557.1,505.4 552.1,496.1 554.8,489.4 550.5,485.2 556.8,484.3 556.5,472.7 555,468.8 555.6,466.4 560.3,466 
					565.9,471.7 583.1,467.5 585.3,472.1 583.1,474.1 578.7,474.1 577,479.1 579.8,489.3 583.1,492.8 581.4,502.9 				"/>
				<polygon id="Haute-Loire_2_" class="st1" points="587.2,531.2 585.9,536.5 574.2,554.1 568.9,554.1 560,563.2 555.5,557.4 
					541.7,558.9 537.4,547.4 530.7,530 525.4,528.6 523.7,525.7 523.4,525.3 524.7,524.4 542.3,520.2 548.9,524.8 561.5,524.8 
					562,523.2 567.2,525 574.4,520.8 				"/>
				<polygon id="Yonne_2_" class="st1" points="574.1,359.7 577.6,370.4 566.8,394.2 567.9,396.7 564.1,398.9 545.7,387.3 
					535,388.7 518.9,382.9 514.2,370.6 517.7,370.9 521.7,368.4 520.2,362.9 526.3,357.1 517.7,342.7 522.8,338.4 521.1,336.4 
					526,331.4 537.1,330.3 537.4,331.4 541.3,331.6 546.9,337.5 546.2,343.5 559.6,358.9 574.1,359 				"/>
				<polygon id="Hérault_2_" class="st3" points="573.1,626.3 575.4,634.8 569.6,639.6 565.5,639.3 529.1,661.9 514.6,652.9 
					511.6,656.8 508.2,659 502.7,655.8 499.2,651.2 500.3,646.3 505,644.8 506.3,640.8 502.9,637.7 505.7,631.9 508.8,634 
					518.2,630.8 523.7,628.9 523.5,620.2 530.2,622.1 537.2,615.2 547.6,619.7 553.8,611.8 557.4,612.3 559.3,619 				"/>
				<polygon id="Nièvre_2_" class="st1" points="567.9,396.7 573.5,409.6 565.7,411.7 568,432.1 555.5,436.8 552.7,435.1 
					548.9,436.5 542.5,440.7 529,439.7 522.6,435 522.8,432.2 523.7,419.7 515.9,399 517.3,393.6 515.3,386.7 515.3,386.7 
					514.5,384.1 518.9,382.9 535,388.7 545.7,387.3 564.1,398.9 				"/>
				<polygon id="Lozère_2_" class="st1" points="565,580.6 565.8,582.2 561,585 564.1,588.4 563.9,598.4 561.2,602.4 555.5,601.7 
					550.6,601.1 543.8,603.6 537.1,599.1 531.4,596 526.9,581.2 519.6,569 526,552.2 530.6,553.4 537.4,547.4 541.7,558.9 
					555.5,557.4 560,563.2 562,571.9 				"/>
				<polygon id="Puy-de-Dôme_2_" class="st1" points="562.7,509.2 564.6,516.4 562,523.2 561.5,524.8 548.9,524.8 542.3,520.2 
					524.7,524.4 523.4,525.3 520.9,527.1 512.4,520.9 507.4,522.2 504.8,518.2 498.7,517.3 498.8,511.2 497.5,506.6 498.6,499.8 
					493.7,493.2 503.6,484.5 500.8,474.1 504.8,476.7 514.3,467 517.6,467 516.6,470.4 526,478 535.3,479 539.1,477.7 550.5,485.2 
					554.8,489.4 552.1,496.1 557.1,505.4 				"/>
				<polygon id="Allier_2_" class="st1" points="564.1,452.1 564,462.1 560.3,466 555.6,466.4 555,468.8 556.5,472.7 556.8,484.3 
					550.5,485.2 539.1,477.7 535.3,479 526,478 516.6,470.4 517.6,467 514.3,467 504.8,476.7 500.8,474.1 498.3,464.4 491.1,461 
					488.4,455.3 491.3,449.7 495.9,448.9 500.6,449.7 503.7,447.1 501.3,441.6 508.4,435.3 509.9,438.6 517.4,431.7 522.4,432.2 
					522.8,432.2 522.6,435 529,439.7 542.5,440.7 548.9,436.5 553.2,448.2 				"/>
				<polygon id="Seine-et-Marne_2_" class="st1" points="543.3,315.8 538.3,319.7 537.1,330.3 526,331.4 521.1,336.4 522.8,338.4 
					517.7,342.7 512.7,346.9 498.6,348.3 496.7,346.5 500,340.4 496.1,337 496.1,335.8 496.1,332.6 501,329.5 502.1,310.4 
					502.5,302.9 503.1,291.8 503.3,287 519.5,286.1 523.8,284.4 528.3,291 540.8,300.8 540.3,314.9 				"/>
				<polygon id="Aveyron_2_" class="st1" points="540.3,607.1 542.9,611.6 537.2,615.2 530.2,622.1 523.5,620.2 523.7,628.9 
					518.2,630.8 514.1,626.2 504.9,625.9 497.8,609.3 481.4,598.3 472.3,599.8 469.4,587.9 468.3,579.8 480.3,573.2 482.4,570.3 
					484.9,570.6 489.9,567.6 497.3,568.6 502.4,555 509.2,550.7 514.1,554.2 516.3,560.4 519.6,569 526.9,581.2 531.4,596 
					537.1,599.1 533.5,604.9 				"/>
				<polygon id="Cantal_2_" class="st2" points="530.7,530 537.4,547.4 530.6,553.4 526,552.2 519.6,569 516.3,560.4 514.1,554.2 
					509.2,550.7 502.4,555 497.3,568.6 489.9,567.6 484.9,570.6 482.4,570.3 478.9,548 483.2,541.1 484.6,531.9 491.7,519.5 
					495.8,523 499.4,521.5 498.7,517.3 504.8,518.2 507.4,522.2 512.4,520.9 520.9,527.1 523.4,525.3 523.7,525.7 525.4,528.6 				
					"/>
				<polygon id="Bas-Rhin_2_" class="st2" points="721,330.4 723.8,308 729.5,303.9 740.2,286.9 727.8,281.8 714.8,282.5 
					711.5,290.6 702.3,290 690.8,284.9 686.8,292.5 702.5,300.8 701.8,308.9 696.4,317.3 693.8,316.5 693.8,320.7 695,329 
					697.9,330.7 715.2,341.5 				"/>
				<polygon id="Alpes-Maritimes_2_" class="st1" points="730.5,607.2 735.3,605.7 734.1,592.8 717.2,596.6 698,583.4 692.2,589.6 
					690.1,597.6 701.6,610.3 690.8,613.6 688.3,618.5 689.2,619.7 703.7,639.8 712.1,634.2 712.3,627.4 717.4,627 729.9,618.4 
					729.9,618.4 				"/>
				<polygon id="Haut-Rhin_2_" class="st2" points="694.8,377 699.1,383.4 701.6,387.1 710.2,387 714.4,383.7 716.9,376.1 
					716.9,376.1 712.6,369.2 717.5,351.6 715.2,341.5 697.9,330.7 685.9,363.7 694,368.4 				"/>
				<polygon id="Moselle_2_" class="st1" points="651.8,256.4 642.9,258.8 646.3,282.6 643.7,285.4 653.1,294 657.7,294.5 
					662.6,302.5 693.8,316.5 696.4,317.3 701.8,308.9 702.5,300.8 686.8,292.5 690.8,284.9 702.3,290 711.5,290.6 714.8,282.5 
					707.8,275.9 702.2,275.7 699.1,278.5 691.7,278.6 685.4,273.8 681.3,273.8 680.3,276.8 676.6,277.2 668.9,261.9 661,258.6 
					655.1,256.2 				"/>
				<polygon id="Savoie_2_" class="st4" points="677.3,485.6 674,488.8 669.3,499.4 665.5,500.1 660.4,495.3 657.4,496.5 
					649.6,492.5 645.6,481.1 644.3,498.9 638.3,505.3 649.1,517.3 652.3,513 664.1,519.6 661.2,528.4 666.4,534.1 666,536.2 
					677.9,536.2 684,535.6 695.4,534.4 705.3,526.8 708,516.1 689.2,491.5 686,495.2 				"/>
				<polygon id="Hautes-Alpes_1_" class="st4" points="653.7,585.8 663,577.3 669.8,582.5 673.4,577.6 686.1,578.1 701.3,563.9 
					705.5,560 701.6,551.3 690.7,548.6 684,535.6 677.9,536.2 666,536.2 665.1,541.8 671.2,546.2 672.9,551.9 649.6,564.2 
					647.4,564.9 640.9,567 639.3,573.8 641.7,575.7 639.2,578.6 632.7,576.7 631.7,584.7 643.5,591.1 642.7,597.9 653.9,595 				"/>
				<polygon id="Alpes-de-Haute-Provence_2_" class="st2" points="690.8,613.6 701.6,610.3 690.1,597.6 692.2,589.6 698,583.4 
					696.8,575.4 701.7,570.6 701.6,564.2 701.3,563.9 686.1,578.1 673.4,577.6 669.8,582.5 663,577.3 653.7,585.8 653.9,595 
					642.7,597.9 636.4,601.1 638.4,617.7 647.9,624.7 649.6,625.1 649.6,625.1 660.7,627.8 684.2,619.9 688.3,618.5 				"/>
				<polygon id="Territoire_de_Belfort_2_" class="st1" points="698.5,383.8 699.1,383.4 694.8,377 694,368.4 685.9,363.7 
					682.2,366 681.3,379 693.8,384.8 				"/>
				<polygon id="Haute-Savoie_2_" class="st4" points="688.3,466.3 690.8,463.6 686.7,453.6 670.2,457.5 667.5,455.6 663.4,461.2 
					666,465.2 658.7,470.6 651.6,470.6 651.7,472.3 646.2,474 645.6,481.1 645.6,481.1 649.6,492.5 657.4,496.5 660.4,495.3 
					665.5,500.1 669.3,499.4 674,488.8 677.3,485.6 686,495.2 689.2,491.5 691,489.5 698.4,486.5 698.6,484.6 698.9,479.5 				"/>
				<polygon id="Vosges_2_" class="st2" points="655.8,352.5 660.2,356.9 685.9,363.7 697.9,330.7 695,329 693.8,320.7 681.7,325.6 
					655.4,326.7 652.7,329.5 646.7,329.8 637.8,321.8 624.5,327.5 624,331.6 637.3,341.4 634,348.6 643.7,357.4 650.6,352.2 				"/>
				<polygon id="Doubs_2_" class="st2" points="640.4,414.9 650.4,416.8 650.7,424.5 657.8,426.7 660.6,432.3 655.2,435.5 
					657.4,444.3 671.3,430.2 671,419.7 679.1,415.8 696.8,392.1 693.8,384.8 681.3,379 675.6,384.1 667.5,382.8 638.2,398.5 
					643.3,407.3 				"/>
				<polygon id="Meurthe-et-Moselle_2_" class="st1" points="662.6,302.5 657.7,294.5 653.1,294 643.7,285.4 646.3,282.6 
					642.9,258.8 637.5,254.9 636,253.8 622.9,256.2 625.6,263.3 631.4,262.1 635.9,270.1 640.8,293.3 637.8,321.8 646.7,329.8 
					652.7,329.5 655.4,326.7 681.7,325.6 693.8,320.7 693.8,316.5 				"/>
				<polygon id="Haute-Saône_2_" class="st1" points="624,388.7 629.4,395.9 632.8,400.6 638.2,398.5 667.5,382.8 675.6,384.1 
					681.3,379 682.2,366 685.9,363.7 660.2,356.9 655.8,352.5 650.6,352.2 643.7,357.4 635.7,366.3 635.7,374.4 624.1,375 
					624,378.6 628.4,382.9 				"/>
				<polygon id="Isère_2_" class="st4" points="672.9,551.9 671.2,546.2 665.1,541.8 666,536.2 666.4,534.1 661.2,528.4 
					664.1,519.6 652.3,513 649.1,517.3 638.3,505.3 624.8,489.5 620.5,496.1 613.8,494.7 616.7,499.7 611.9,505.8 601.8,508.5 
					604.6,513.4 600,515.6 599.3,522.6 601.9,524.8 604.3,526.7 610,523.6 619.7,530.4 618,539.4 628.9,542.9 632.8,539.8 
					632.8,557.6 647,563.2 649.6,564.2 				"/>
				<polygon id="Ain_2_" class="st2" points="645.6,481.1 645.6,481.1 646.2,474 651.7,472.3 651.6,470.6 651.5,466.4 658.1,464.5 
					660.9,455.9 656.2,453.9 647,463.9 640.7,463.8 640.7,461.2 637.2,459.4 629.7,464.4 619.9,452.7 606.4,448.9 599.9,469.4 
					597.5,485.2 613.8,494.7 620.5,496.1 624.8,489.5 638.3,505.3 644.3,498.9 				"/>
				<polygon id="Jura_2_" class="st1" points="629.7,464.4 637.2,459.4 640.7,461.2 640.7,463.8 647,463.9 656.2,453.9 657.4,444.3 
					655.2,435.5 660.6,432.3 657.8,426.7 650.7,424.5 650.4,416.8 640.4,414.9 643.3,407.3 638.2,398.5 632.8,400.6 629.4,395.9 
					627.8,406.6 620.3,415.3 620.5,417.9 620.8,421.6 628.1,426.5 622.5,428.8 626.8,441.6 624,445.9 627.8,450.4 619.9,452.7 				
					"/>
				<polygon id="Meuse_2_" class="st1" points="640.8,293.3 635.9,270.1 631.4,262.1 625.6,263.3 622.9,256.2 617.7,252.4 
					614.6,255.3 609.2,252.9 606,258.6 608.5,262.4 606.4,271.9 601.1,274.4 606.4,289 600.6,302.5 603.8,311.1 605.4,315.3 
					624.5,327.5 637.8,321.8 				"/>
				<polygon id="Côte-d_x27_Or_2_" class="st1" points="608.5,419.6 620.5,417.9 620.3,415.3 627.8,406.6 629.4,395.9 624,388.7 
					628.4,382.9 624,378.6 618.1,380.4 614.2,374.9 605.3,374.2 606,366.1 594.5,353.6 594.2,352 594.1,352 586.8,355.8 
					577.1,359.1 574.1,359 574.1,359.7 577.6,370.4 566.8,394.2 567.9,396.7 573.5,409.6 594.6,424.5 				"/>
				<polygon id="Saône-et-Loire_2_" class="st2" points="595.7,463 599.9,469.4 606.4,448.9 619.9,452.7 627.8,450.4 624,445.9 
					626.8,441.6 622.5,428.8 628.1,426.5 620.8,421.6 620.5,417.9 608.5,419.6 594.6,424.5 573.5,409.6 565.7,411.7 568,432.1 
					555.5,436.8 552.7,435.1 548.9,436.5 553.2,448.2 564.1,452.1 564,462.1 560.3,466 565.9,471.7 583.1,467.5 583.3,463.3 				"/>
				<polygon id="Ardennes_2_" class="st1" points="608.5,262.4 606,258.6 609.2,252.9 614.6,255.3 617.7,252.4 615.7,246.9 
					597.8,239.7 597.5,216.9 593.2,216.9 589,226.7 578.9,231 571.7,228.6 571.8,243 564.1,267.4 598,275.9 601.1,274.4 
					606.4,271.9 				"/>
				<polygon id="Rhône_2_" class="st1" points="601.8,508.5 611.9,505.8 616.7,499.7 613.8,494.7 597.5,485.2 599.9,469.4 
					595.7,463 583.3,463.3 583.1,467.5 585.3,472.1 583.1,474.1 578.7,474.1 577,479.1 579.8,489.3 583.1,492.8 581.4,502.9 
					600,515.6 604.6,513.4 				"/>
				<polygon id="Aisne_2_" class="st1" points="571.8,243 571.7,228.6 567.2,228.5 527.9,226.8 525.3,247.6 525.2,248.2 524,269.7 
					518.9,272.7 520.8,279.9 523.8,284.4 528.3,291 540.8,300.8 549.5,290.5 551.8,281.5 547.9,271.7 564.1,267.4 				"/>
				<polygon id="Nord_2_" class="st3" points="497.8,186.1 510.3,188 512.7,194 523.7,199.4 518.9,202.5 527.6,212.3 519.6,220.1 
					527.9,226.8 567.2,228.5 566.7,227 571.1,223.7 570.7,211.9 562.9,204.6 550.6,205.2 549.3,207.3 547.8,207.3 548,199.7 
					540.4,194.1 536,196.1 531.4,194 530.5,182.4 526.5,177.6 518.2,179.5 512.9,182.7 510.6,178.1 508.4,175.7 504,173.3 
					505.6,167.1 502,158.1 502,158.1 483.4,163.1 490,176.2 				"/>
				<polygon id="Somme_2_" class="st1" points="527.9,226.8 515.7,226 461.2,203.1 452.3,222.1 469.7,242.5 473.7,247.2 
					506.8,253.7 517.5,247.6 524.5,247.6 525.3,247.6 				"/>
				<polygon id="Pas-de-Calais_2_" class="st2" points="515.7,226 527.9,226.8 519.6,220.1 527.6,212.3 518.9,202.5 523.7,199.4 
					512.7,194 510.3,188 497.8,186.1 490,176.2 483.4,163.1 471.3,165.3 461.5,172.6 461.2,203.1 				"/>
				<polygon id="Oise_2_" class="st1" points="525.3,247.6 524,269.7 518.9,272.7 520.8,279.9 523.8,284.4 519.5,286.1 503.3,287 
					482.2,278.3 469.2,280.4 467.3,273.8 467.2,265.8 470.3,259.6 469.7,242.5 473.7,247.2 506.8,253.7 517.5,247.6 				"/>
				<polygon id="Cher_2_" class="st1" points="515.9,399 523.7,419.7 522.8,432.2 522.4,432.2 517.4,431.7 509.9,438.6 508.4,435.3 
					501.3,441.6 503.7,447.1 500.6,449.7 495.9,448.9 491.3,449.7 488.4,455.3 483.2,455.9 485.5,442.2 481,435.6 484.2,426 
					479,411.6 472.5,412.4 467.5,409.7 471.9,405.1 475.5,400.7 483.5,398.9 488.3,387.3 482.5,382.5 488.8,377.2 507,388.5 
					515.3,386.7 515.3,386.7 517.3,393.6 				"/>
				<polygon id="Creuse_2_" class="st1" points="500.8,474.1 503.6,484.5 493.7,493.2 498.6,499.8 488.8,503.6 484.2,499.9 
					471.2,501.6 471.9,497 466.1,493 458.3,492.4 455.3,487.1 456.1,478 449,468.6 451.7,461.7 449.9,457.5 464.9,457.1 
					466.2,453.6 483.2,455.9 488.4,455.3 491.1,461 498.3,464.4 				"/>
				<polygon id="Val-d_x27_Oise_2_" class="st5" points="503.3,287 503.1,291.8 491.5,295.2 487,296.5 462.4,285.7 467.3,273.8 
					469.2,280.4 482.2,278.3 				"/>
				<polygon id="Seine-Saint-Denis_2_" class="st5" points="503.1,291.8 502.5,302.9 501.6,302.9 496.1,300.7 495.6,300.9 
					494.6,298.2 491.9,298.8 491.8,298.2 491.5,295.2 				"/>
				<polygon id="Val-de-Marne_2_" class="st1" points="502.5,302.9 502.1,310.4 491.9,308.4 491.6,303.8 491.8,303.3 493.3,303.8 
					496.1,301.9 495.6,300.9 496.1,300.7 501.6,302.9 				"/>
				<polygon id="Essonne_2_" class="st2" points="502.1,310.4 501,329.5 496.1,332.6 496.1,335.8 495.2,335.8 477.1,336.5 
					475.8,326.7 475.3,323.4 481,316.8 479.9,311.9 487.7,306.4 491.9,308.4 				"/>
				<polygon id="Paris_7_" class="st3" points="495.6,300.9 496.1,301.9 493.3,303.8 491.8,303.3 489.8,302.6 488.8,299.5 
					491.9,298.8 494.6,298.2 				"/>
				<polygon id="Hauts-de-Seine_1_" class="st1" points="491.8,298.2 491.9,298.8 488.8,299.5 489.8,302.6 491.8,303.3 491.6,303.8 
					491.9,308.4 487.7,306.4 485,300.8 487,296.5 491.5,295.2 				"/>
				<polygon id="Loir-et-Cher_2_" class="st1" points="488.8,377.2 482.5,382.5 488.3,387.3 483.5,398.9 475.5,400.7 471.9,405.1 
					465.1,401.5 448.5,406 439,398.9 436.7,381 429.1,374.8 415.7,372.4 427.2,360.6 426.1,351 430.5,344.7 446.4,357.1 
					456.7,355.6 458.9,369.7 465.6,373 470.3,377.5 486.8,375.9 				"/>
				<polygon id="Yelines" class="st1" points="485,300.8 487.7,306.4 479.9,311.9 481,316.8 475.3,323.4 475.8,326.7 474.8,326.9 
					470.3,325 468.9,320.7 461.2,311.9 462,301.1 457.4,294.8 457.1,294.7 458.4,292.5 456.2,287.5 462.4,285.7 487,296.5 				"/>
				<polygon id="Indre_2_" class="st2" points="481,435.6 485.5,442.2 483.2,455.9 466.2,453.6 464.9,457.1 449.9,457.5 
					441.2,457.7 441.7,454.4 428.2,442.5 428.6,435.2 432.9,432.8 436.7,416.8 444,417.5 449.9,411 448.5,406 465.1,401.5 
					471.9,405.1 467.5,409.7 472.5,412.4 479,411.6 484.2,426 				"/>
				<polygon id="Eure-et-Loire" class="st1" points="475.8,326.7 477.1,336.5 476.4,343.9 471.6,350.3 466.4,351.7 461.8,350.6 
					456.7,355.6 446.4,357.1 430.5,344.7 427.5,342.5 425.2,333.4 434,328.2 433.6,320.1 429,316.2 428.1,311.9 450.4,306.1 
					457.1,294.7 457.4,294.8 462,301.1 461.2,311.9 468.9,320.7 470.3,325 474.8,326.9 				"/>
				<polygon id="Haute-Vienne_2_" class="st1" points="471.9,497 471.2,501.6 471,503 443.2,516.1 436.1,514.6 432.6,507.2 
					425.5,505.8 422.4,508.4 415.1,500.9 415.7,496.2 423.6,491.3 423.2,486.5 429,484 428.3,480 424.8,472.7 423.4,468.1 
					427.4,463 441.2,457.7 449.9,457.5 451.7,461.7 449,468.6 456.1,478 455.3,487.1 458.3,492.4 466.1,493 				"/>
				<polygon id="Seine-Maritime_2_" class="st1" points="469.7,242.5 470.3,259.6 467.2,265.8 452.9,262.4 448.7,268.8 436.3,274.1 
					434,267.8 417,259.8 407.9,262.4 398.2,257.5 404.7,243.6 441.4,230.9 452.3,222.1 				"/>
				<polygon id="Eure_2_" class="st5" points="467.2,265.8 467.3,273.8 462.4,285.7 456.2,287.5 458.4,292.5 457.1,294.7 
					450.4,306.1 428.1,311.9 425,309.8 426.2,306.4 419.1,297.9 413,297.7 411.3,295.4 411,293 407.9,262.4 417,259.8 434,267.8 
					436.3,274.1 448.7,268.8 452.9,262.4 				"/>
				<polygon id="Dordogne_2_" class="st1" points="450.4,544.8 450.9,550.9 434.5,570.9 429.3,568.2 422,570.5 414.3,565.7 
					403.3,567.4 396.9,558.8 398.9,554 396.2,552.2 393.4,555.6 386,552.7 388.8,538.7 383.3,536.2 387.4,530 392.3,530 
					397.9,524.6 397.6,516.1 408.6,509.2 415.1,500.9 422.4,508.4 425.5,505.8 432.6,507.2 436.1,514.6 443.2,516.1 444.8,522.7 
					441.2,527.1 				"/>
				<polygon id="Indre-et-Loire_2_" class="st1" points="448.5,406 449.9,411 444,417.5 436.7,416.8 432.9,432.8 428.6,435.2 
					419.8,419.5 403,421.1 403.3,414.3 393,405.6 398.9,392.6 399.5,380.4 407.9,380.4 415.7,372.4 429.1,374.8 436.7,381 
					439,398.9 				"/>
				<polygon id="Vienne_2_" class="st5" points="441.7,454.4 441.2,457.7 427.4,463 423.4,468.1 424.8,472.7 413.7,476.3 
					410.5,472.7 408.2,473.6 408.5,476.7 393,474.5 397,473 397.8,470.8 393,467.6 395.5,462.7 394.1,458.2 389.2,458.6 
					390.1,425.8 385.3,412.6 393,405.6 403.3,414.3 403,421.1 419.8,419.5 428.6,435.2 428.2,442.5 				"/>
				<polygon id="Lot-et-Garonne_2_" class="st5" points="434.5,570.9 433.4,573.7 429,573.9 432.9,585.3 428.1,586.2 424.6,584.7 
					423.2,589.2 425.6,591.8 424,600.1 414.1,606.6 410.8,603.3 404.3,603.9 402.5,607 385.8,607.4 387.7,599.3 377.8,598.2 
					376.5,593.1 381,591.3 384.8,583.8 392.5,566.1 389.2,563.7 389.9,561.5 396.9,558.8 403.3,567.4 414.3,565.7 422,570.5 
					429.3,568.2 				"/>
				<polygon id="Orne_2_" class="st1" points="433.6,320.1 434,328.2 425.2,333.4 427.5,342.5 415.8,338 409.9,333.3 407.9,324.1 
					401.2,323.2 395.2,328.6 391.4,328 384.8,316.7 372.5,319.4 361.1,323.5 355.2,318.3 359.5,317.3 362.5,307.9 358.9,303.9 
					376.6,296.8 388.4,300.2 400.1,292.9 411,293 411.3,295.4 413,297.7 419.1,297.9 426.2,306.4 425,309.8 428.1,311.9 429,316.2 
									"/>
				<polygon id="Sarthe_2_" class="st1" points="430.5,344.7 426.1,351 427.2,360.6 415.7,372.4 407.9,380.4 399.5,380.4 
					374.7,367.4 375.5,359.2 386.5,339.4 386.8,331.8 391.4,328 395.2,328.6 401.2,323.2 407.9,324.1 409.9,333.3 415.8,338 
					427.5,342.5 				"/>
				<polygon id="Charente_2_" class="st1" points="428.3,480 429,484 423.2,486.5 423.6,491.3 415.7,496.2 415.1,500.9 408.6,509.2 
					397.6,516.1 397.9,524.6 392.3,530 387.4,530 372.8,519.7 374.7,509.7 368.3,502.3 367.5,494.6 380.4,493.6 384.1,481.5 
					386.7,476.8 393,474.5 408.5,476.7 408.2,473.6 410.5,472.7 413.7,476.3 424.8,472.7 				"/>
				<polygon id="Calvados_2_" class="st1" points="407.9,262.4 411,293 400.1,292.9 388.4,300.2 376.6,296.8 358.9,303.9 
					350.7,301.7 346.6,296.4 358.4,283.1 348.2,269.5 349,264 354.5,262.6 358.5,264.7 377.5,267.4 385,271.6 				"/>
				<polygon id="Maine-et-Loire_2_" class="st2" points="399.5,380.4 398.9,392.6 393,405.6 385.3,412.6 365.8,411.3 362.7,416.3 
					350.5,413.8 341,411.8 336.7,391.8 348.8,390.1 348.8,382.9 338.1,364.6 364.8,368.7 374.7,367.4 				"/>
				<polygon id="Gironde_2_" class="st2" points="398.9,554 396.9,558.8 389.9,561.5 389.2,563.7 392.5,566.1 384.8,583.8 
					381,591.3 376.5,593.1 372,595 365.7,593.6 364.3,587.9 352.8,576.6 338.5,579.1 338.4,574.5 334.8,571.9 326,575.5 
					326.2,573.3 330.1,568.9 337.9,568.9 338.4,565.4 331.5,556.9 326,563.7 334.1,507.1 336.5,506.2 337.7,512 348.8,519.5 
					353.7,536.2 355.1,533.7 352.9,522 366.4,525 367.2,532 383.3,536.2 388.8,538.7 386,552.7 393.4,555.6 396.2,552.2 				"/>
				<polygon id="Deux-Sèvres_2_" class="st1" points="397.8,470.8 397,473 393,474.5 386.7,476.8 384.1,481.5 380.4,480.3 
					379.8,477.6 357.6,467.2 355.1,459.9 364.8,454.9 360.4,433.1 350.5,413.8 362.7,416.3 365.8,411.3 385.3,412.6 390.1,425.8 
					389.2,458.6 394.1,458.2 395.5,462.7 393,467.6 				"/>
				<polygon id="Mayenne_2_" class="st5" points="384.8,316.7 391.4,328 386.8,331.8 386.5,339.4 375.5,359.2 374.7,367.4 
					364.8,368.7 338.1,364.6 343.3,352 348.8,350.5 346.6,334.5 348.8,329.9 347.2,317.7 352.5,318.8 355.2,318.3 361.1,323.5 
					372.5,319.4 				"/>
				<polygon id="Charente-Maritime_2_" class="st5" points="387.4,530 383.3,536.2 367.2,532 366.4,525 352.9,522 351.3,513.6 
					331.4,498.2 329.9,485.5 324.9,481.8 325.4,474.1 333.6,484.5 337.6,486.5 340.5,475.5 316.7,461.7 321.7,458.6 334.2,466.3 
					336.6,459.8 343.3,455.8 355.1,459.9 357.6,467.2 379.8,477.6 380.4,480.3 384.1,481.5 380.4,493.6 367.5,494.6 368.3,502.3 
					374.7,509.7 372.8,519.7 				"/>
				<polygon id="Tarn-et-Garonne_2_" class="st1" points="467.5,603.3 472.3,599.8 469.4,587.9 463.4,589.7 456.9,595 447.1,595.7 
					438.8,592 432.9,585.3 428.1,586.2 424.6,584.7 423.2,589.2 425.6,591.8 424,600.1 414.1,606.6 426.3,621.4 426.3,621.4 
					426.3,621.4 436.4,621.1 438.6,623.8 444.9,620.2 444.9,618.4 444.8,616.7 453.8,616.2 459.9,609.3 459.4,606.6 459.4,606.6 
					459.1,604.9 				"/>
				<polygon id="Aude_2_" class="st2" points="486.7,645 484.5,649 475.2,646.3 469.7,647.9 467.5,645 465,647.9 462.5,651.6 
					457.7,657.4 470.5,665.6 472.9,681.4 467.5,682.9 466,685.1 473,691 477.1,688.9 482,694.8 490.5,690.3 488.8,684.2 
					509.6,684.4 514,679.1 522.4,684 522.6,671.3 517.8,668.2 519.5,665.4 523.7,668.5 529.1,661.9 514.6,652.9 511.6,656.8 
					508.2,659 502.7,655.8 499.2,651.2 500.3,646.3 				"/>
				<polygon id="Pyrénées-Orientales_2_" class="st1" points="509.6,684.4 488.8,684.2 490.5,690.3 482,694.8 459.9,701.8 
					463,706.7 470.1,709 470.3,712.9 476.4,715.6 480.2,711.8 484.8,711.8 496.1,719.4 504.2,719.4 513.2,710 520,708.4 
					523.4,711.2 527.5,712.5 527.5,706.7 523.4,702.2 522.4,684 514,679.1 				"/>
				<polygon id="Tarn_2_" class="st3" points="453.8,616.2 475.3,642.1 475.2,646.3 484.5,649 486.7,645 500.3,646.3 505,644.8 
					506.3,640.8 502.9,637.7 505.7,631.9 508.8,634 518.2,630.8 514.1,626.2 504.9,625.9 497.8,609.3 481.4,598.3 472.3,599.8 
					467.5,603.3 459.1,604.9 459.4,606.6 459.9,609.3 				"/>
				<polygon id="Ariège_2_" class="st4" points="477.1,688.9 473,691 466,685.1 467.5,682.9 472.9,681.4 470.5,665.6 457.7,657.4 
					449.8,655.3 443.3,653.5 441.3,655.7 444.8,659.1 439.8,667.1 433.7,664.1 426.5,667 427.5,673 419.9,678.3 419.9,685 
					429.6,688.9 433.2,695.4 441.2,695.4 446.3,699.3 457.7,698.1 459.9,701.8 482,694.8 				"/>
				<polygon id="Haute-Garonne_2_" class="st4" points="427.5,673 426.5,667 433.7,664.1 439.8,667.1 444.8,659.1 441.3,655.7 
					443.3,653.5 449.8,655.3 457.7,657.4 462.5,651.6 465,647.9 467.5,645 469.7,647.9 475.2,646.3 475.3,642.1 453.8,616.2 
					444.8,616.7 444.9,620.2 438.6,623.8 436.4,621.1 426.3,621.4 437.1,634.4 431.5,638.8 426.9,649.4 422.3,647.1 416.4,646.5 
					410.2,652.8 402.3,664.6 409.8,676.2 405.8,681.3 400.9,679.1 401.8,691 398.9,691.6 410.7,692.7 411.2,682 419.9,685 
					419.9,678.3 				"/>
				<polygon id="Gers_2_" class="st1" points="384.1,613.6 381.2,609 370.2,612.6 373.9,618.1 370.5,633.3 376.3,634.1 381.8,633 
					386.7,638.5 389.6,646.7 410.2,652.8 416.4,646.5 422.3,647.1 426.9,649.4 431.5,638.8 437.1,634.4 426.3,621.4 421.2,615.2 
					414.1,606.6 410.8,603.3 404.3,603.9 402.5,607 385.8,607.4 385.8,613.2 				"/>
				<polygon id="Hautes-Pyrénées_2_" class="st4" points="400.9,679.1 405.8,681.3 409.8,676.2 402.3,664.6 410.2,652.8 
					389.6,646.7 386.7,638.5 381.8,633 376.3,634.1 382.2,649 367.4,668 364.8,680.7 371.8,685.5 377.8,691.8 386.9,688.8 
					392.7,693.1 398.9,691.6 401.8,691 				"/>
				<polygon id="Landes_2_" class="st1" points="370.5,633.3 373.9,618.1 370.2,612.6 381.2,609 384.1,613.6 385.8,613.2 
					385.8,607.4 387.7,599.3 377.8,598.2 376.5,593.1 372,595 365.7,593.6 364.3,587.9 352.8,576.6 338.5,579.1 338.4,574.5 
					334.8,571.9 326,575.5 313.8,628.2 310.5,633.8 318.1,636.9 				"/>
				<polygon id="Pyrénées-Atlantiques_2_" class="st4" points="295.1,643.4 295.1,647.3 314.2,653.5 313.6,660.1 310.8,661.7 
					316.7,668.1 318.8,663.2 337.2,673 344.5,673.1 344.9,677.7 352,684 364.8,680.7 367.4,668 382.2,649 376.3,634.1 370.5,633.3 
					318.1,636.9 310.5,633.8 304.5,641.5 304.5,641.5 				"/>
				<polygon id="Vendée_2_" class="st2" points="360.4,433.1 364.8,454.9 355.1,459.9 343.3,455.8 336.6,459.8 307.7,444.9 
					295.2,423.7 295.3,418.5 302.6,409.7 314.9,420.5 324.2,420.4 321.9,413 325.3,411.4 326.9,417.9 336,409.7 341,411.8 
					350.5,413.8 				"/>
				<polygon id="Manche_2_" class="st2" points="358.9,303.9 362.5,307.9 359.5,317.3 355.2,318.3 352.5,318.8 347.2,317.7 
					342.5,316.7 335.3,321.3 329.8,317.5 327.9,310.6 334.3,308.4 326.3,298.3 329.1,292.6 326.7,273.3 318.6,258.8 318.6,244.9 
					314,241.3 314.9,239.4 327.7,245.6 332.2,243.4 343.3,243.4 345.3,249.3 341.1,252.4 349,264 348.2,269.5 358.4,283.1 
					346.6,296.4 350.7,301.7 				"/>
				<polygon id="Loire-Atlantique_2_" class="st1" points="348.8,382.9 348.8,390.1 336.7,391.8 341,411.8 336,409.7 326.9,417.9 
					325.3,411.4 321.9,413 324.2,420.4 314.9,420.5 302.6,409.7 297.3,405.6 290.6,404.4 293.1,401.5 293.1,395.5 278.3,392.9 
					283,382.8 301.1,377.7 302.7,370.9 319.5,368.1 328.8,360.4 338.1,364.6 				"/>
				<polygon id="Ille-et-Vilaine_2_" class="st2" points="346.6,334.5 348.8,350.5 343.3,352 338.1,364.6 328.8,360.4 319.5,368.1 
					302.7,370.9 299.7,363.7 304.4,357.9 300.7,348.3 293.6,348.3 296.8,340.3 300.5,331.4 310.3,330.1 312.6,316.2 309.5,311.9 
					308.5,306.6 310.6,304.3 315.9,304.5 317.2,310.5 327.9,310.6 329.8,317.5 335.3,321.3 342.5,316.7 347.2,317.7 348.8,329.9 
									"/>
				<polygon id="Côtes-d_x27_Armor_2_" class="st2" points="309.5,311.9 312.6,316.2 310.3,330.1 300.5,331.4 296.8,340.3 
					292.6,340 287.2,336.5 282,341.6 262.2,332.8 256,336.5 242.9,331.4 240,304.3 240.7,300 242.1,291.8 265,290.5 273.6,308.1 
					278.2,311.9 294.6,305 308.5,306.6 				"/>
				<polygon id="Morbihan_2_" class="st2" points="300.7,348.3 304.4,357.9 299.7,363.7 302.7,370.9 301.1,377.7 283,382.8 
					269,379.5 255.4,372.4 240.1,359.1 241.2,354.8 246.6,352.9 247.7,348.6 236.6,344.3 233.9,335.2 242.9,331.4 256,336.5 
					262.2,332.8 282,341.6 287.2,336.5 292.6,340 296.8,340.3 293.6,348.3 				"/>
				<polygon id="Finistère_2_" class="st1" points="247.7,348.6 246.6,352.9 241.2,354.8 240.1,359.1 225.4,356.8 214.1,350.8 
					213,354.5 204.6,354 204.9,350.7 199.3,339.7 191.4,337.9 191.5,335 208.8,334.3 209.6,329.8 195.3,322.6 199,320.6 
					212.8,322.9 203.7,317.4 189.9,318.3 192.8,304.2 218.7,296.7 229,300.5 231.2,298.1 240.7,300 240,304.3 242.9,331.4 
					233.9,335.2 236.6,344.3 				"/>
				<polygon id="XMLID_3516_" class="st1" points="498.7,517.3 499.4,521.5 495.8,523 491.7,519.5 484.6,531.9 483.2,541.1 
					478.9,548 465.5,551.3 461.3,545.1 455.7,542.5 450.4,544.8 441.2,527.1 444.8,522.7 443.2,516.1 471,503 471.2,501.6 
					484.2,499.9 488.8,503.6 498.6,499.8 497.5,506.6 498.8,511.2 				"/>
				<polygon id="XMLID_3515_" class="st1" points="478.9,548 482.4,570.3 480.3,573.2 468.3,579.8 469.4,587.9 463.4,589.7 
					456.9,595 447.1,595.7 438.8,592 432.9,585.3 429,573.9 433.4,573.7 434.5,570.9 450.9,550.9 450.4,544.8 455.7,542.5 
					461.3,545.1 465.5,551.3 				"/>
				<polygon id="Loiret_2_" class="st1" points="517.7,342.7 526.3,357.1 520.2,362.9 521.7,368.4 517.7,370.9 514.2,370.6 
					518.9,382.9 514.5,384.1 515.3,386.7 507,388.5 488.8,377.2 486.8,375.9 470.3,377.5 465.6,373 458.9,369.7 456.7,355.6 
					461.8,350.6 466.4,351.7 471.6,350.3 476.4,343.9 477.1,336.5 495.2,335.8 496.1,335.8 496.1,337 500,340.4 496.7,346.5 
					498.6,348.3 512.7,346.9 				"/>
			</g>
		</g>
		<g>
			<g id="XMLID_113_">
				<polygon id="Royaume-Uni_5_" class="st6" points="287.8,2.5 277.9,4.4 247.9,6.3 234.6,19.6 219.1,31.3 222.8,33.2 241.6,28.6 
					243.9,53.3 239.4,69.5 202.7,79.2 190.2,88.4 192.1,99.4 201.2,107.8 224.1,101.6 230.2,114.8 247.3,111.2 251.1,121.1 
					272,126.7 279.6,119.2 305.2,107.3 283.2,126.7 278.6,139.4 254.2,136.7 229.4,137.3 214.4,154.4 189.9,182.5 161.7,198.7 
					183.2,208.7 202.5,189.3 222.4,190.1 246.9,204.9 259.7,181.5 286.1,181.5 293.5,182.7 312.7,178.6 345.7,170.6 364,174 
					407.9,178.2 436.4,166.9 455.5,152.4 458.5,136.9 432.3,138.3 415.7,132.4 436.7,125 439,115.1 449.2,109.7 464.9,93.5 
					467.1,81.8 472,59.1 457,41.6 437.8,38.5 425.7,36.1 418.8,48.6 408.6,40.8 404.1,40.6 418.9,23.6 413.9,11 403.7,-2.5 
					288,-2.5 				"/>
				<polygon id="Irlande_5_" class="st7" points="79.5,73 97.4,66.3 121.2,63.4 132.4,59.5 150.9,63.9 169.7,19.9 170.6,4.2 
					167.3,1.2 164.2,-3.5 79.5,-3.5 				"/>
				<polygon id="Espagne_5_" class="st8" points="520,708.4 513.2,711 504.2,721.5 496.1,721.5 484.8,712.8 480.2,712.4 
					476.4,715.9 470.3,713.1 470.3,709.3 463,706.7 451.3,710.7 446.3,704 446.3,700.4 441.2,697.5 433.2,697.5 429.6,689.9 
					419.9,685.5 411.2,682.2 410.8,692.9 399.1,691.7 392.9,693.3 387,688.8 377.9,691.8 371.9,685.5 365,680.7 352.2,684.7 
					352.2,685.5 352.2,685.5 351.5,684.2 345,678.1 344.6,673.3 344.6,673.3 341.9,673.2 341.7,673.1 337.3,673.1 318.8,663.2 
					316.7,668.1 310.8,661.7 313.6,660.1 313.4,653.5 293.5,647.3 293.5,643.4 281.3,647 264.8,643.8 250.5,635.7 237.8,643.2 
					219.4,632 201.9,628.3 185.4,633.3 142,625.9 126.4,617.5 101.7,613 78.5,612.7 78.5,797.5 447.3,797.5 470.2,789.2 
					529.6,747.5 525.8,726.7 533.2,724.1 527.5,712.5 523.4,711.3 				"/>
				<polygon id="Allemagne_6_" class="st8" points="685.5,16.5 685.5,16.5 683.2,51.2 682.3,52.5 679.8,55.8 679.5,55.8 679.5,55.8 
					669.9,55.2 667.1,65.9 678.3,66.5 678.7,68.1 681.6,81.2 668.2,92.4 672.6,100.9 656.2,107.8 656.2,107.8 656.2,107.8 
					647.4,103.9 639.6,108.4 654.8,135 653.3,138.7 651.8,142.6 645.8,157.8 646.3,169.9 646.3,169.9 643.5,176.9 653.6,187.7 
					653.6,187.7 653.3,188.4 651.9,192 657.6,195.7 659.6,203.1 649.6,216.2 647.3,223.7 653.6,231.4 666.6,236.3 668,243.2 
					660.1,254.4 661.1,258.6 669.1,261.9 676.3,277.2 680.3,276.8 681.3,273.8 685.4,273.8 691.7,278.6 699.1,278.5 702.2,275.7 
					707.8,275.9 714.8,282.5 727.9,281.8 740.2,286.9 729.5,303.9 723.8,308 721,330.4 715.2,341.5 717.5,351.6 712.6,369.2 
					716.9,376.1 714.4,383.7 717,379.5 734.5,378.8 745.1,373.7 756,376.2 756.9,373.9 757,373.6 762.8,371.3 755.4,369.5 
					753.4,367.6 759.2,362.2 765.3,361.1 770.8,366 777.1,369 784.6,367.5 795,368.7 809.9,373.2 811,369.6 825.5,382 825.5,384.3 
					825.5,387.8 840,377.8 841.2,369.3 846.7,369.2 846.5,369.2 846.5,-2.5 683.5,-2.5 674.6,8.8 674.8,8.6 				"/>
				<polygon id="Italie_5_" class="st8" points="846.5,418 831.9,431.4 830.1,449.6 796.5,445.7 774.4,468.3 761.4,460.3 
					760.6,446.5 745.7,460.2 749.2,465.4 736.1,483.3 725.2,479.6 713.6,485.7 702.7,487.1 700.9,486.6 698.7,484.6 698.6,486.5 
					691.1,489.5 689.4,491.5 708.2,516.1 708.2,516.1 708.2,516.1 705.5,526.8 695.6,534.4 684.2,535.6 690.8,548.6 701.7,551.3 
					705.6,560 705.6,560.1 701.4,563.9 701.7,564.2 701.9,570.6 698,574.5 697,575.4 698.2,583.4 717.3,596.6 734.2,592.8 
					735.5,605.7 735.5,605.7 730.6,607.2 730.1,618.4 736.8,620.4 755.3,613.4 770.8,588.5 783.4,576.2 810.6,582.4 846,597.8 
					846.5,599.3 				"/>
				<polygon id="Autriche_5_" class="st7" points="841.6,369.3 840.5,377.8 826.5,387.8 826.5,384.3 826.5,382 811.5,369.6 
					809.7,373.2 794.9,368.7 803.5,375.4 807.8,378.6 809.6,384 803.9,393.9 817.4,396 820.9,408.6 829.6,417.7 839.9,410.5 
					847.3,410.5 847.5,410.5 847.5,369.2 847.4,369.2 				"/>
				<polygon id="Liechtenstein_5_" class="st7" points="820.9,408.6 817.4,396 803.9,393.9 806.4,405.6 				"/>
				<polygon id="Pays-Bas_6_" class="st6" points="570.7,139.7 583.5,133.3 592.8,136.2 604.2,133.3 611.1,145.3 619.9,144.1 
					619.9,144.1 619.9,144.1 636.3,152.1 631,177.8 643.5,176.9 643.5,176.9 643.5,176.9 643.5,176.9 646.3,169.9 646.3,169.9 
					645.8,157.8 651.8,142.6 653.3,138.7 654.8,135 639.6,108.4 647.4,103.9 647.4,103.9 656.2,107.8 656.2,107.8 672.6,100.9 
					668.2,92.4 681.6,81.2 678.7,68.1 678.3,66.5 667.1,65.9 669.9,55.2 669.9,55.2 679.5,55.8 679.8,55.8 682.3,52.5 683.2,51.2 
					685.5,16.5 685.5,16.5 674.8,8.2 674.6,8.1 674.1,7.7 671,5.3 661.3,6 640.1,9.5 619.2,18 614.3,30.6 597.8,43.3 594.8,38.5 
					589,37.5 580.8,79.2 566.9,99.3 551.5,116.2 538.4,129.3 542.5,136.7 559,140.5 				"/>
				<polygon id="Belgique_5_" class="st9" points="504.2,173.3 508.6,175.7 510.7,178.1 513.1,182.7 518.4,179.5 526.7,177.6 
					530.6,182.4 531.6,194 536.2,196 540.4,194.1 548.2,199.7 547.8,207.3 549.3,207.3 550.6,205.2 562.9,204.6 570.7,211.9 
					571.1,223.7 566.7,227 567.2,228.5 571.7,228.6 578.9,231 589,227.5 593.2,218.5 597.5,218.5 597.8,240.5 615.9,247.5 
					617.8,252.7 623,256.4 636.2,253.9 640.1,251.6 639.6,248.9 633.3,232.1 644.5,213.2 649.6,216.2 659.6,203.1 657.6,195.7 
					651.9,192 653.3,188.4 653.6,187.7 643.5,176.9 643.5,176.9 631,177.8 631,177.8 636.3,152.1 619.9,144.1 619.9,144.1 
					611.1,145.3 604.2,133.3 592.8,136.2 583.5,133.3 570.7,139.7 559,140.5 542.5,136.7 528.1,140.3 496.5,156.1 496.5,159.2 
					501.2,158.1 505.4,167.1 				"/>
				<polygon id="Luxembourg_7_" class="st6" points="668,243.2 666.6,236.3 653.6,231.4 647.3,223.7 649.6,216.2 644.5,213.2 
					633.3,232.1 639.6,248.9 640.1,251.6 636.2,253.9 642.9,258.8 651.8,256.4 655.2,256.2 661.1,258.6 660.1,254.4 				"/>
				<polygon id="Suisse_6_" class="st6" points="839.9,411.5 829.6,418.2 820.9,409 806.4,405.8 803.9,394.1 809.6,384 807.8,378.6 
					803.5,375.4 795,368.7 784.6,367.5 777.1,369 770.8,366 765.3,361.1 759.2,362.2 753.4,367.6 755.4,369.5 762.8,371.3 
					757,373.6 756.9,373.9 756,376.1 745.1,373.7 734.5,378.8 717,380.3 714.1,385.5 713.7,385.5 710.4,388 701.7,387.6 
					699.2,383.7 698.6,384 693.3,384.9 695.5,392.1 695.5,392.1 695.5,392.1 696.2,392.1 696.6,392.1 680,414 678.7,415.8 
					670.2,420.8 671.3,432.5 671.3,432.5 671.3,432.5 657.5,445.5 656.3,454.3 661.1,455.7 658.2,464.4 651.7,466.3 651.8,470.5 
					658.9,470.6 666.1,465.2 663.5,461.2 663.5,461.2 663.5,461.2 667.7,455.6 670.4,457.5 686.8,453.6 690.9,463.6 690.9,463.6 
					690.9,463.6 688.5,466.3 699.1,479.5 698.8,483.7 698.7,484.6 700.9,486.6 702.7,487.1 713.6,485.7 725.3,479.6 736.1,483.3 
					736.1,483.3 749.2,465.4 745.7,460.2 760.6,446.5 761.5,460.3 774.5,468.3 796.7,445.7 830.4,449.6 831.9,431.4 846.5,418 
					846.5,411.5 847.3,411.5 				"/>
				<polygon id="France_8_" class="st8" points="811.9,649.3 804.6,649.6 802.2,655 787.9,660.5 782.7,673.4 781,675.8 786.8,679.6 
					787.1,681.3 781.3,682.6 782.8,689.8 789.4,691.9 789.8,695.8 785.4,700.4 786,704.3 792.4,704.9 794,709 789.6,714.8 
					801.2,716.7 794.6,723.9 800.7,728.7 810.3,731.7 813,734.9 818.6,736.4 823.7,720.9 824.9,709.5 824.2,703 824.2,696.5 
					829.5,689.2 829.6,676.9 827.4,672.7 826.9,659.6 822.5,654.9 822.2,646.8 823.5,643.1 820.8,632.4 818.8,628.8 814.6,632.1 
					816.5,645.2 815.1,651.1 				"/>
				<polygon id="Andorre_5_" class="st8" points="451.3,710.7 463,706.7 457.7,698.1 446.3,699.3 446.3,704 				"/>
				<polygon id="Monaco_5_" class="st8" points="712.2,634.2 712.2,634.2 721.2,634.5 717.5,627 712.5,627.4 				"/>
			</g>
		</g>
	</g>
</g>
<g>
	<rect x="79.5" y="407.5" class="st5" width="169.7" height="159.9"/>
	<g id="XMLID_106_">
		<rect id="XMLID_143_" x="96.4" y="425.5" class="st10" width="177.7" height="77.3"/>
		<g class="st11">
			<path d="M97.7,425.5h3.8c0.7,0,1.4,0.1,2,0.4c0.6,0.3,1.1,0.6,1.5,1.1c0.4,0.5,0.8,1,1,1.6s0.3,1.3,0.3,2.1
				c0,0.8-0.1,1.5-0.3,2.1c-0.2,0.6-0.6,1.2-1,1.6s-0.9,0.8-1.5,1c-0.6,0.2-1.3,0.4-2,0.4h-3.8V425.5z M101.5,434.5
				c0.5,0,0.9-0.1,1.3-0.3s0.7-0.4,1-0.8c0.3-0.3,0.5-0.7,0.7-1.2c0.2-0.5,0.2-1,0.2-1.6c0-0.6-0.1-1.1-0.2-1.6s-0.4-0.9-0.7-1.2
				s-0.6-0.6-1-0.8s-0.8-0.3-1.3-0.3h-2.2v7.6H101.5z"/>
			<path d="M114.8,433.3c0,0.4-0.1,0.8-0.3,1.1s-0.4,0.6-0.7,0.9s-0.6,0.4-1,0.6c-0.4,0.1-0.8,0.2-1.3,0.2c-0.6,0-1.1-0.1-1.6-0.3
				c-0.4-0.2-0.8-0.4-1.1-0.8s-0.5-0.8-0.6-1.2c-0.1-0.5-0.2-1-0.2-1.6s0.1-1.1,0.2-1.6c0.1-0.5,0.4-0.9,0.7-1.2
				c0.3-0.3,0.7-0.6,1.1-0.8s0.9-0.3,1.5-0.3s1.1,0.1,1.5,0.3s0.8,0.4,1,0.8c0.3,0.3,0.5,0.7,0.6,1.2c0.1,0.5,0.2,1,0.2,1.6v0.2
				h-5.3c0,0.8,0.2,1.4,0.5,1.8s0.8,0.6,1.4,0.6c0.5,0,0.9-0.1,1.3-0.4s0.5-0.6,0.6-1.1H114.8z M113.3,431.3c0-0.6-0.2-1-0.5-1.4
				s-0.7-0.6-1.3-0.6c-0.6,0-1,0.2-1.3,0.5c-0.3,0.3-0.5,0.8-0.6,1.5H113.3z M112.3,425.5h1.8l-2.1,2h-1.2L112.3,425.5z"/>
			<path d="M116.9,428.3h1.5v1.2h0c0.2-0.4,0.5-0.7,0.9-0.9s0.9-0.4,1.5-0.4c0.5,0,1,0.1,1.4,0.3s0.7,0.5,1,0.8
				c0.3,0.3,0.5,0.7,0.6,1.2c0.1,0.5,0.2,1,0.2,1.6c0,0.6-0.1,1.1-0.2,1.6c-0.1,0.5-0.4,0.9-0.6,1.2s-0.6,0.6-1,0.8
				c-0.4,0.2-0.9,0.3-1.4,0.3c-0.6,0-1.1-0.1-1.5-0.4s-0.7-0.6-0.9-1h0v3.9h-1.5V428.3z M120.4,434.8c0.6,0,1.2-0.2,1.5-0.7
				c0.4-0.5,0.6-1.2,0.6-2c0-0.9-0.2-1.5-0.5-2c-0.4-0.5-0.9-0.7-1.6-0.7c-0.7,0-1.2,0.2-1.5,0.7c-0.3,0.5-0.5,1.2-0.5,2
				s0.2,1.5,0.5,2S119.7,434.8,120.4,434.8z"/>
			<path d="M130.3,434.8L130.3,434.8c-0.3,0.4-0.6,0.6-1,0.9s-1,0.3-1.6,0.3c-0.4,0-0.7-0.1-1-0.2c-0.3-0.1-0.5-0.2-0.7-0.4
				c-0.2-0.2-0.3-0.4-0.4-0.6c-0.1-0.2-0.1-0.5-0.1-0.8c0-0.5,0.1-1,0.4-1.3c0.2-0.3,0.5-0.5,0.9-0.7s0.8-0.3,1.2-0.3
				s0.9-0.1,1.2-0.2c0.3,0,0.5-0.1,0.7-0.1s0.3-0.1,0.4-0.1c0.1-0.1,0.1-0.1,0.2-0.2c0-0.1,0-0.2,0-0.3c0-0.4-0.1-0.7-0.4-1
				s-0.6-0.4-1.2-0.4c-0.5,0-0.9,0.1-1.2,0.3s-0.4,0.6-0.5,1.1h-1.4c0.1-0.8,0.4-1.4,0.8-1.9c0.5-0.5,1.2-0.7,2.3-0.7
				c1,0,1.8,0.2,2.3,0.7c0.5,0.5,0.7,1.2,0.7,2.3v4.6h-1.5V434.8z M130.3,432.2c-0.4,0.1-0.8,0.2-1.2,0.2c-0.4,0.1-0.8,0.1-1.1,0.2
				s-0.6,0.2-0.8,0.4s-0.3,0.4-0.3,0.7c0,0.3,0.1,0.6,0.4,0.8s0.6,0.3,1,0.3c0.3,0,0.6,0,0.9-0.1c0.3-0.1,0.5-0.2,0.7-0.4
				s0.3-0.4,0.5-0.6c0.1-0.2,0.2-0.5,0.2-0.8V432.2z"/>
			<path d="M134.1,428.3h1.5v1.2h0c0.2-0.4,0.5-0.7,0.9-1s0.7-0.3,1.2-0.3c0,0,0.1,0,0.2,0s0.2,0,0.2,0v1.6c-0.1,0-0.2,0-0.3-0.1
				s-0.2,0-0.3,0c-0.6,0-1,0.2-1.4,0.5s-0.5,0.9-0.5,1.5v4.1h-1.5V428.3z"/>
			<path d="M139.7,429.6h-1v-1.2h1v-1.9h1.5v1.9h1.8v1.2h-1.8v3.9c0,0.4,0.1,0.7,0.3,0.8s0.4,0.3,0.8,0.3c0.1,0,0.2,0,0.4,0
				s0.2,0,0.4,0v1.3c-0.2,0-0.3,0.1-0.5,0.1s-0.3,0-0.5,0c-0.7,0-1.3-0.2-1.7-0.6c-0.4-0.4-0.6-1-0.6-1.8V429.6z"/>
			<path d="M145.6,433.4c0,0.6,0.2,0.9,0.6,1.1s0.7,0.3,1.2,0.3c0.4,0,0.8-0.1,1-0.3s0.4-0.4,0.4-0.8c0-0.3-0.1-0.5-0.3-0.7
				s-0.5-0.3-0.8-0.4c-0.3-0.1-0.7-0.2-1.1-0.2c-0.4-0.1-0.7-0.2-1.1-0.3c-0.3-0.1-0.6-0.4-0.8-0.6c-0.2-0.3-0.3-0.7-0.3-1.2
				c0-0.3,0.1-0.6,0.2-0.9c0.1-0.3,0.3-0.5,0.5-0.7s0.5-0.4,0.9-0.5c0.3-0.1,0.8-0.2,1.2-0.2c0.9,0,1.6,0.2,2.1,0.6s0.8,1.1,0.8,1.9
				h-1.5c0-0.5-0.2-0.8-0.4-1.1c-0.3-0.2-0.6-0.3-1.1-0.3c-0.2,0-0.4,0-0.6,0.1s-0.3,0.1-0.4,0.2c-0.1,0.1-0.2,0.2-0.2,0.3
				s-0.1,0.2-0.1,0.4c0,0.3,0.1,0.5,0.3,0.6s0.5,0.2,0.8,0.3c0.3,0.1,0.7,0.2,1.1,0.3c0.4,0.1,0.7,0.2,1.1,0.3
				c0.3,0.2,0.6,0.4,0.8,0.7c0.2,0.3,0.3,0.7,0.3,1.2c0,0.7-0.2,1.2-0.7,1.6c-0.5,0.4-1.2,0.6-2.2,0.6c-1,0-1.8-0.2-2.3-0.6
				s-0.9-1.1-0.9-2H145.6z"/>
			<path d="M162.7,433.3c0,0.4-0.1,0.8-0.3,1.1s-0.4,0.6-0.7,0.9s-0.6,0.4-1,0.6c-0.4,0.1-0.8,0.2-1.3,0.2c-0.6,0-1.1-0.1-1.6-0.3
				c-0.4-0.2-0.8-0.4-1.1-0.8s-0.5-0.8-0.6-1.2c-0.1-0.5-0.2-1-0.2-1.6s0.1-1.1,0.2-1.6c0.1-0.5,0.4-0.9,0.7-1.2
				c0.3-0.3,0.7-0.6,1.1-0.8s0.9-0.3,1.5-0.3s1.1,0.1,1.5,0.3s0.8,0.4,1,0.8c0.3,0.3,0.5,0.7,0.6,1.2c0.1,0.5,0.2,1,0.2,1.6v0.2
				h-5.3c0,0.8,0.2,1.4,0.5,1.8s0.8,0.6,1.4,0.6c0.5,0,0.9-0.1,1.3-0.4s0.5-0.6,0.6-1.1H162.7z M161.2,431.3c0-0.6-0.2-1-0.5-1.4
				s-0.7-0.6-1.3-0.6c-0.6,0-1,0.2-1.3,0.5c-0.3,0.3-0.5,0.8-0.6,1.5H161.2z"/>
			<path d="M164.9,429.6h-1v-1.2h1v-1.9h1.5v1.9h1.8v1.2h-1.8v3.9c0,0.4,0.1,0.7,0.3,0.8s0.4,0.3,0.8,0.3c0.1,0,0.2,0,0.4,0
				s0.2,0,0.4,0v1.3c-0.2,0-0.3,0.1-0.5,0.1s-0.3,0-0.5,0c-0.7,0-1.3-0.2-1.7-0.6c-0.4-0.4-0.6-1-0.6-1.8V429.6z"/>
			<path d="M178.3,434.8L178.3,434.8c-0.3,0.4-0.6,0.6-1,0.9s-1,0.3-1.6,0.3c-0.4,0-0.7-0.1-1-0.2c-0.3-0.1-0.5-0.2-0.7-0.4
				c-0.2-0.2-0.3-0.4-0.4-0.6c-0.1-0.2-0.1-0.5-0.1-0.8c0-0.5,0.1-1,0.4-1.3c0.2-0.3,0.5-0.5,0.9-0.7s0.8-0.3,1.2-0.3
				s0.9-0.1,1.2-0.2c0.3,0,0.5-0.1,0.7-0.1s0.3-0.1,0.4-0.1c0.1-0.1,0.1-0.1,0.2-0.2c0-0.1,0-0.2,0-0.3c0-0.4-0.1-0.7-0.4-1
				s-0.6-0.4-1.2-0.4c-0.5,0-0.9,0.1-1.2,0.3s-0.4,0.6-0.5,1.1h-1.4c0.1-0.8,0.4-1.4,0.8-1.9c0.5-0.5,1.2-0.7,2.3-0.7
				c1,0,1.8,0.2,2.3,0.7c0.5,0.5,0.7,1.2,0.7,2.3v4.6h-1.5V434.8z M178.3,432.2c-0.4,0.1-0.8,0.2-1.2,0.2c-0.4,0.1-0.8,0.1-1.1,0.2
				s-0.6,0.2-0.8,0.4s-0.3,0.4-0.3,0.7c0,0.3,0.1,0.6,0.4,0.8s0.6,0.3,1,0.3c0.3,0,0.6,0,0.9-0.1c0.3-0.1,0.5-0.2,0.7-0.4
				s0.3-0.4,0.5-0.6c0.1-0.2,0.2-0.5,0.2-0.8V432.2z"/>
			<path d="M182.1,428.3h1.5v1.2h0c0.2-0.4,0.5-0.7,0.9-1s0.7-0.3,1.2-0.3c0,0,0.1,0,0.2,0s0.2,0,0.2,0v1.6c-0.1,0-0.2,0-0.3-0.1
				s-0.2,0-0.3,0c-0.6,0-1,0.2-1.4,0.5s-0.5,0.9-0.5,1.5v4.1h-1.5V428.3z"/>
			<path d="M187.7,428.3h1.5v1.2h0c0.2-0.4,0.5-0.7,0.9-1s0.7-0.3,1.2-0.3c0,0,0.1,0,0.2,0s0.2,0,0.2,0v1.6c-0.1,0-0.2,0-0.3-0.1
				s-0.2,0-0.3,0c-0.6,0-1,0.2-1.4,0.5s-0.5,0.9-0.5,1.5v4.1h-1.5V428.3z"/>
			<path d="M194,427c-0.3,0-0.5-0.1-0.7-0.3s-0.3-0.4-0.3-0.7c0-0.3,0.1-0.5,0.3-0.7c0.2-0.2,0.4-0.3,0.7-0.3c0.3,0,0.5,0.1,0.7,0.3
				s0.3,0.4,0.3,0.7c0,0.3-0.1,0.5-0.3,0.7S194.3,427,194,427z M193.3,428.3h1.5v7.5h-1.5V428.3z"/>
			<path d="M196.2,428.3h1.6l2,5.8l2-5.8h1.6l-2.9,7.5h-1.5L196.2,428.3z"/>
			<path d="M211.2,433.3c0,0.4-0.1,0.8-0.3,1.1s-0.4,0.6-0.7,0.9s-0.6,0.4-1,0.6c-0.4,0.1-0.8,0.2-1.3,0.2c-0.6,0-1.1-0.1-1.6-0.3
				c-0.4-0.2-0.8-0.4-1.1-0.8s-0.5-0.8-0.6-1.2c-0.1-0.5-0.2-1-0.2-1.6s0.1-1.1,0.2-1.6c0.1-0.5,0.4-0.9,0.7-1.2
				c0.3-0.3,0.7-0.6,1.1-0.8s0.9-0.3,1.5-0.3s1.1,0.1,1.5,0.3s0.8,0.4,1,0.8c0.3,0.3,0.5,0.7,0.6,1.2c0.1,0.5,0.2,1,0.2,1.6v0.2
				h-5.3c0,0.8,0.2,1.4,0.5,1.8s0.8,0.6,1.4,0.6c0.5,0,0.9-0.1,1.3-0.4s0.5-0.6,0.6-1.1H211.2z M209.7,431.3c0-0.6-0.2-1-0.5-1.4
				s-0.7-0.6-1.3-0.6c-0.6,0-1,0.2-1.3,0.5c-0.3,0.3-0.5,0.8-0.6,1.5H209.7z M208.7,425.5h1.8l-2.1,2h-1.2L208.7,425.5z"/>
			<path d="M219.6,433.3c0,0.4-0.1,0.8-0.3,1.1s-0.4,0.6-0.7,0.9s-0.6,0.4-1,0.6c-0.4,0.1-0.8,0.2-1.3,0.2c-0.6,0-1.1-0.1-1.6-0.3
				c-0.4-0.2-0.8-0.4-1.1-0.8s-0.5-0.8-0.6-1.2c-0.1-0.5-0.2-1-0.2-1.6s0.1-1.1,0.2-1.6c0.1-0.5,0.4-0.9,0.7-1.2
				c0.3-0.3,0.7-0.6,1.1-0.8s0.9-0.3,1.5-0.3s1.1,0.1,1.5,0.3s0.8,0.4,1,0.8c0.3,0.3,0.5,0.7,0.6,1.2c0.1,0.5,0.2,1,0.2,1.6v0.2
				h-5.3c0,0.8,0.2,1.4,0.5,1.8s0.8,0.6,1.4,0.6c0.5,0,0.9-0.1,1.3-0.4s0.5-0.6,0.6-1.1H219.6z M218.2,431.3c0-0.6-0.2-1-0.5-1.4
				s-0.7-0.6-1.3-0.6c-0.6,0-1,0.2-1.3,0.5c-0.3,0.3-0.5,0.8-0.6,1.5H218.2z"/>
			<path d="M222.7,433.4c0,0.6,0.2,0.9,0.6,1.1s0.7,0.3,1.2,0.3c0.4,0,0.8-0.1,1-0.3s0.4-0.4,0.4-0.8c0-0.3-0.1-0.5-0.3-0.7
				s-0.5-0.3-0.8-0.4c-0.3-0.1-0.7-0.2-1.1-0.2c-0.4-0.1-0.7-0.2-1.1-0.3c-0.3-0.1-0.6-0.4-0.8-0.6c-0.2-0.3-0.3-0.7-0.3-1.2
				c0-0.3,0.1-0.6,0.2-0.9c0.1-0.3,0.3-0.5,0.5-0.7s0.5-0.4,0.9-0.5c0.3-0.1,0.8-0.2,1.2-0.2c0.9,0,1.6,0.2,2.1,0.6s0.8,1.1,0.8,1.9
				h-1.5c0-0.5-0.2-0.8-0.4-1.1c-0.3-0.2-0.6-0.3-1.1-0.3c-0.2,0-0.4,0-0.6,0.1s-0.3,0.1-0.4,0.2c-0.1,0.1-0.2,0.2-0.2,0.3
				s-0.1,0.2-0.1,0.4c0,0.3,0.1,0.5,0.3,0.6s0.5,0.2,0.8,0.3c0.3,0.1,0.7,0.2,1.1,0.3c0.4,0.1,0.7,0.2,1.1,0.3
				c0.3,0.2,0.6,0.4,0.8,0.7c0.2,0.3,0.3,0.7,0.3,1.2c0,0.7-0.2,1.2-0.7,1.6c-0.5,0.4-1.2,0.6-2.2,0.6c-1,0-1.8-0.2-2.3-0.6
				s-0.9-1.1-0.9-2H222.7z"/>
		</g>
		<g class="st11">
			<path d="M97.6,446.3h1.5v1.2h0c0.2-0.4,0.5-0.7,0.9-0.9s0.9-0.4,1.5-0.4c0.5,0,1,0.1,1.4,0.3s0.7,0.5,1,0.8
				c0.3,0.3,0.5,0.7,0.6,1.2c0.1,0.5,0.2,1,0.2,1.6c0,0.6-0.1,1.1-0.2,1.6c-0.1,0.5-0.4,0.9-0.6,1.2s-0.6,0.6-1,0.8
				c-0.4,0.2-0.9,0.3-1.4,0.3c-0.6,0-1.1-0.1-1.5-0.4s-0.7-0.6-0.9-1h0v3.9h-1.5V446.3z M101.1,452.8c0.6,0,1.2-0.2,1.5-0.7
				c0.4-0.5,0.6-1.2,0.6-2c0-0.9-0.2-1.5-0.5-2c-0.4-0.5-0.9-0.7-1.6-0.7c-0.7,0-1.2,0.2-1.5,0.7c-0.3,0.5-0.5,1.2-0.5,2
				s0.2,1.5,0.5,2S100.4,452.8,101.1,452.8z"/>
			<path d="M111,452.8L111,452.8c-0.3,0.4-0.6,0.6-1,0.9s-1,0.3-1.6,0.3c-0.4,0-0.7-0.1-1-0.2c-0.3-0.1-0.5-0.2-0.7-0.4
				c-0.2-0.2-0.3-0.4-0.4-0.6c-0.1-0.2-0.1-0.5-0.1-0.8c0-0.5,0.1-1,0.4-1.3c0.2-0.3,0.5-0.5,0.9-0.7s0.8-0.3,1.2-0.3
				s0.9-0.1,1.2-0.2c0.3,0,0.5-0.1,0.7-0.1s0.3-0.1,0.4-0.1c0.1-0.1,0.1-0.1,0.2-0.2c0-0.1,0-0.2,0-0.3c0-0.4-0.1-0.7-0.4-1
				s-0.6-0.4-1.2-0.4c-0.5,0-0.9,0.1-1.2,0.3s-0.4,0.6-0.5,1.1h-1.4c0.1-0.8,0.4-1.4,0.8-1.9c0.5-0.5,1.2-0.7,2.3-0.7
				c1,0,1.8,0.2,2.3,0.7c0.5,0.5,0.7,1.2,0.7,2.3v4.6H111V452.8z M111,450.2c-0.4,0.1-0.8,0.2-1.2,0.2c-0.4,0.1-0.8,0.1-1.1,0.2
				s-0.6,0.2-0.8,0.4s-0.3,0.4-0.3,0.7c0,0.3,0.1,0.6,0.4,0.8s0.6,0.3,1,0.3c0.3,0,0.6,0,0.9-0.1c0.3-0.1,0.5-0.2,0.7-0.4
				s0.3-0.4,0.5-0.6c0.1-0.2,0.2-0.5,0.2-0.8V450.2z"/>
			<path d="M114.8,446.3h1.5v1.2h0c0.2-0.4,0.5-0.7,0.9-1s0.7-0.3,1.2-0.3c0,0,0.1,0,0.2,0s0.2,0,0.2,0v1.6c-0.1,0-0.2,0-0.3-0.1
				s-0.2,0-0.3,0c-0.6,0-1,0.2-1.4,0.5s-0.5,0.9-0.5,1.5v4.1h-1.5V446.3z"/>
			<path d="M129.7,452.6L129.7,452.6c-0.3,0.4-0.6,0.7-0.9,1s-0.9,0.4-1.5,0.4c-0.5,0-1-0.1-1.4-0.3c-0.4-0.2-0.7-0.5-1-0.8
				s-0.5-0.8-0.6-1.2c-0.1-0.5-0.2-1-0.2-1.5c0-0.6,0.1-1.1,0.2-1.6c0.1-0.5,0.3-0.9,0.6-1.2c0.3-0.3,0.6-0.6,1-0.8s0.9-0.3,1.4-0.3
				c0.6,0,1.1,0.1,1.5,0.4s0.7,0.6,0.9,0.9h0v-4h1.5v10.4h-1.5V452.6z M127.7,452.8c0.7,0,1.2-0.2,1.5-0.7c0.3-0.5,0.5-1.2,0.5-2
				c0-0.9-0.2-1.5-0.5-2c-0.3-0.5-0.8-0.7-1.5-0.7c-0.6,0-1.2,0.2-1.5,0.7c-0.4,0.5-0.6,1.2-0.6,2c0,0.9,0.2,1.5,0.5,2
				S127,452.8,127.7,452.8z"/>
			<path d="M139.9,451.3c0,0.4-0.1,0.8-0.3,1.1s-0.4,0.6-0.7,0.9s-0.6,0.4-1,0.6c-0.4,0.1-0.8,0.2-1.3,0.2c-0.6,0-1.1-0.1-1.6-0.3
				c-0.4-0.2-0.8-0.4-1.1-0.8s-0.5-0.8-0.6-1.2c-0.1-0.5-0.2-1-0.2-1.6s0.1-1.1,0.2-1.6c0.1-0.5,0.4-0.9,0.7-1.2
				c0.3-0.3,0.7-0.6,1.1-0.8s0.9-0.3,1.5-0.3s1.1,0.1,1.5,0.3s0.8,0.4,1,0.8c0.3,0.3,0.5,0.7,0.6,1.2c0.1,0.5,0.2,1,0.2,1.6v0.2
				h-5.3c0,0.8,0.2,1.4,0.5,1.8s0.8,0.6,1.4,0.6c0.5,0,0.9-0.1,1.3-0.4s0.5-0.6,0.6-1.1H139.9z M138.5,449.3c0-0.6-0.2-1-0.5-1.4
				s-0.7-0.6-1.3-0.6c-0.6,0-1,0.2-1.3,0.5c-0.3,0.3-0.5,0.8-0.6,1.5H138.5z M137.5,443.5h1.8l-2.1,2H136L137.5,443.5z"/>
			<path d="M142.1,446.3h1.5v1.2h0c0.2-0.4,0.5-0.7,0.9-0.9s0.9-0.4,1.5-0.4c0.5,0,1,0.1,1.4,0.3s0.7,0.5,1,0.8
				c0.3,0.3,0.5,0.7,0.6,1.2c0.1,0.5,0.2,1,0.2,1.6c0,0.6-0.1,1.1-0.2,1.6c-0.1,0.5-0.4,0.9-0.6,1.2s-0.6,0.6-1,0.8
				c-0.4,0.2-0.9,0.3-1.4,0.3c-0.6,0-1.1-0.1-1.5-0.4s-0.7-0.6-0.9-1h0v3.9h-1.5V446.3z M145.6,452.8c0.6,0,1.2-0.2,1.5-0.7
				c0.4-0.5,0.6-1.2,0.6-2c0-0.9-0.2-1.5-0.5-2c-0.4-0.5-0.9-0.7-1.6-0.7c-0.7,0-1.2,0.2-1.5,0.7c-0.3,0.5-0.5,1.2-0.5,2
				s0.2,1.5,0.5,2S144.9,452.8,145.6,452.8z"/>
			<path d="M155.5,452.8L155.5,452.8c-0.3,0.4-0.6,0.6-1,0.9s-1,0.3-1.6,0.3c-0.4,0-0.7-0.1-1-0.2c-0.3-0.1-0.5-0.2-0.7-0.4
				c-0.2-0.2-0.3-0.4-0.4-0.6c-0.1-0.2-0.1-0.5-0.1-0.8c0-0.5,0.1-1,0.4-1.3c0.2-0.3,0.5-0.5,0.9-0.7s0.8-0.3,1.2-0.3
				s0.9-0.1,1.2-0.2c0.3,0,0.5-0.1,0.7-0.1s0.3-0.1,0.4-0.1c0.1-0.1,0.1-0.1,0.2-0.2c0-0.1,0-0.2,0-0.3c0-0.4-0.1-0.7-0.4-1
				s-0.6-0.4-1.2-0.4c-0.5,0-0.9,0.1-1.2,0.3s-0.4,0.6-0.5,1.1h-1.4c0.1-0.8,0.4-1.4,0.8-1.9c0.5-0.5,1.2-0.7,2.3-0.7
				c1,0,1.8,0.2,2.3,0.7c0.5,0.5,0.7,1.2,0.7,2.3v4.6h-1.5V452.8z M155.5,450.2c-0.4,0.1-0.8,0.2-1.2,0.2c-0.4,0.1-0.8,0.1-1.1,0.2
				s-0.6,0.2-0.8,0.4s-0.3,0.4-0.3,0.7c0,0.3,0.1,0.6,0.4,0.8s0.6,0.3,1,0.3c0.3,0,0.6,0,0.9-0.1c0.3-0.1,0.5-0.2,0.7-0.4
				s0.3-0.4,0.5-0.6c0.1-0.2,0.2-0.5,0.2-0.8V450.2z"/>
			<path d="M159.3,446.3h1.5v1.2h0c0.2-0.4,0.5-0.7,0.9-1s0.7-0.3,1.2-0.3c0,0,0.1,0,0.2,0s0.2,0,0.2,0v1.6c-0.1,0-0.2,0-0.3-0.1
				s-0.2,0-0.3,0c-0.6,0-1,0.2-1.4,0.5s-0.5,0.9-0.5,1.5v4.1h-1.5V446.3z"/>
			<path d="M164.9,447.6h-1v-1.2h1v-1.9h1.5v1.9h1.8v1.2h-1.8v3.9c0,0.4,0.1,0.7,0.3,0.8s0.4,0.3,0.8,0.3c0.1,0,0.2,0,0.4,0
				s0.2,0,0.4,0v1.3c-0.2,0-0.3,0.1-0.5,0.1s-0.3,0-0.5,0c-0.7,0-1.3-0.2-1.7-0.6c-0.4-0.4-0.6-1-0.6-1.8V447.6z"/>
			<path d="M176.1,451.3c0,0.4-0.1,0.8-0.3,1.1s-0.4,0.6-0.7,0.9s-0.6,0.4-1,0.6c-0.4,0.1-0.8,0.2-1.3,0.2c-0.6,0-1.1-0.1-1.6-0.3
				c-0.4-0.2-0.8-0.4-1.1-0.8s-0.5-0.8-0.6-1.2c-0.1-0.5-0.2-1-0.2-1.6s0.1-1.1,0.2-1.6c0.1-0.5,0.4-0.9,0.7-1.2
				c0.3-0.3,0.7-0.6,1.1-0.8s0.9-0.3,1.5-0.3s1.1,0.1,1.5,0.3s0.8,0.4,1,0.8c0.3,0.3,0.5,0.7,0.6,1.2c0.1,0.5,0.2,1,0.2,1.6v0.2
				h-5.3c0,0.8,0.2,1.4,0.5,1.8s0.8,0.6,1.4,0.6c0.5,0,0.9-0.1,1.3-0.4s0.5-0.6,0.6-1.1H176.1z M174.7,449.3c0-0.6-0.2-1-0.5-1.4
				s-0.7-0.6-1.3-0.6c-0.6,0-1,0.2-1.3,0.5c-0.3,0.3-0.5,0.8-0.6,1.5H174.7z"/>
			<path d="M178.2,446.3h1.5v1.2h0c0.2-0.4,0.5-0.7,0.8-1s0.8-0.4,1.3-0.4c0.6,0,1,0.1,1.4,0.4s0.6,0.6,0.7,1h0
				c0.2-0.4,0.5-0.8,0.9-1c0.4-0.2,0.8-0.4,1.4-0.4c0.8,0,1.4,0.2,1.8,0.7c0.4,0.5,0.6,1.1,0.6,2v4.9h-1.5v-4.5
				c0-0.6-0.1-1.1-0.3-1.4s-0.5-0.4-1-0.4c-0.5,0-0.9,0.2-1.2,0.5s-0.5,0.8-0.5,1.5v4.4h-1.5v-4.5c0-0.6-0.1-1.1-0.3-1.4
				s-0.5-0.5-1-0.5c-0.6,0-1,0.2-1.3,0.5s-0.5,0.9-0.5,1.5v4.3h-1.5V446.3z"/>
			<path d="M197.5,451.3c0,0.4-0.1,0.8-0.3,1.1s-0.4,0.6-0.7,0.9s-0.6,0.4-1,0.6c-0.4,0.1-0.8,0.2-1.3,0.2c-0.6,0-1.1-0.1-1.6-0.3
				c-0.4-0.2-0.8-0.4-1.1-0.8s-0.5-0.8-0.6-1.2c-0.1-0.5-0.2-1-0.2-1.6s0.1-1.1,0.2-1.6c0.1-0.5,0.4-0.9,0.7-1.2
				c0.3-0.3,0.7-0.6,1.1-0.8s0.9-0.3,1.5-0.3s1.1,0.1,1.5,0.3s0.8,0.4,1,0.8c0.3,0.3,0.5,0.7,0.6,1.2c0.1,0.5,0.2,1,0.2,1.6v0.2
				h-5.3c0,0.8,0.2,1.4,0.5,1.8s0.8,0.6,1.4,0.6c0.5,0,0.9-0.1,1.3-0.4s0.5-0.6,0.6-1.1H197.5z M196,449.3c0-0.6-0.2-1-0.5-1.4
				s-0.7-0.6-1.3-0.6c-0.6,0-1,0.2-1.3,0.5c-0.3,0.3-0.5,0.8-0.6,1.5H196z"/>
			<path d="M199.6,446.3h1.5v1.2h0c0.3-0.4,0.6-0.7,0.9-1s0.9-0.3,1.5-0.3c0.9,0,1.5,0.2,1.9,0.7c0.4,0.5,0.6,1.1,0.6,2v4.9h-1.5
				v-4.5c0-0.6-0.1-1.1-0.3-1.4s-0.6-0.5-1.1-0.5c-0.6,0-1.1,0.2-1.4,0.6s-0.5,0.9-0.5,1.5v4.3h-1.5V446.3z"/>
			<path d="M208.4,447.6h-1v-1.2h1v-1.9h1.5v1.9h1.8v1.2h-1.8v3.9c0,0.4,0.1,0.7,0.3,0.8s0.4,0.3,0.8,0.3c0.1,0,0.2,0,0.4,0
				s0.2,0,0.4,0v1.3c-0.2,0-0.3,0.1-0.5,0.1s-0.3,0-0.5,0c-0.7,0-1.3-0.2-1.7-0.6c-0.4-0.4-0.6-1-0.6-1.8V447.6z"/>
		</g>
		<g class="st11">
			<path d="M101.9,470.8L101.9,470.8c-0.3,0.4-0.6,0.6-1,0.9s-1,0.3-1.6,0.3c-0.4,0-0.7-0.1-1-0.2c-0.3-0.1-0.5-0.2-0.7-0.4
				c-0.2-0.2-0.3-0.4-0.4-0.6c-0.1-0.2-0.1-0.5-0.1-0.8c0-0.5,0.1-1,0.4-1.3c0.2-0.3,0.5-0.5,0.9-0.7s0.8-0.3,1.2-0.3
				s0.9-0.1,1.2-0.2c0.3,0,0.5-0.1,0.7-0.1s0.3-0.1,0.4-0.1c0.1-0.1,0.1-0.1,0.2-0.2c0-0.1,0-0.2,0-0.3c0-0.4-0.1-0.7-0.4-1
				s-0.6-0.4-1.2-0.4c-0.5,0-0.9,0.1-1.2,0.3s-0.4,0.6-0.5,1.1h-1.4c0.1-0.8,0.4-1.4,0.8-1.9c0.5-0.5,1.2-0.7,2.3-0.7
				c1,0,1.8,0.2,2.3,0.7c0.5,0.5,0.7,1.2,0.7,2.3v4.6h-1.5V470.8z M102,468.2c-0.4,0.1-0.8,0.2-1.2,0.2c-0.4,0.1-0.8,0.1-1.1,0.2
				s-0.6,0.2-0.8,0.4s-0.3,0.4-0.3,0.7c0,0.3,0.1,0.6,0.4,0.8s0.6,0.3,1,0.3c0.3,0,0.6,0,0.9-0.1c0.3-0.1,0.5-0.2,0.7-0.4
				s0.3-0.4,0.5-0.6c0.1-0.2,0.2-0.5,0.2-0.8V468.2z"/>
			<path d="M105.7,464.3h1.5v4.5c0,0.6,0.1,1.1,0.3,1.4c0.2,0.3,0.6,0.5,1.1,0.5c0.6,0,1-0.2,1.4-0.6s0.5-0.9,0.5-1.5v-4.3h1.5v7.5
				h-1.5v-1.2h0c-0.2,0.4-0.5,0.7-0.9,1s-0.8,0.4-1.4,0.4c-0.9,0-1.5-0.2-1.8-0.7s-0.5-1.1-0.5-2V464.3z"/>
			<path d="M121.4,466.3l-3.4-4.8h1.9l2.6,3.7l2.6-3.7h1.9l-3.5,4.9l4,5.5h-1.9l-3.1-4.3l-3.1,4.3h-1.8L121.4,466.3z"/>
			<path d="M131.6,466.3l-3.4-4.8h1.9l2.6,3.7l2.6-3.7h1.9l-3.5,4.9l4,5.5h-1.9l-3.1-4.3l-3.1,4.3h-1.8L131.6,466.3z"/>
			<path d="M139,461.5h1.6v10.4H139V461.5z"/>
		</g>
		<g class="st11">
			<path d="M146.3,465.7c0,0.2-0.1,0.4-0.2,0.6c-0.1,0.2-0.2,0.4-0.4,0.5c-0.2,0.1-0.4,0.2-0.6,0.3c-0.2,0.1-0.5,0.1-0.8,0.1
				c-0.4,0-0.7-0.1-0.9-0.2c-0.3-0.1-0.5-0.3-0.6-0.5c-0.2-0.2-0.3-0.4-0.4-0.7c-0.1-0.3-0.1-0.6-0.1-0.9c0-0.3,0-0.6,0.1-0.9
				c0.1-0.3,0.2-0.5,0.4-0.7c0.2-0.2,0.4-0.4,0.6-0.5c0.3-0.1,0.6-0.2,0.9-0.2s0.6,0.1,0.9,0.2s0.4,0.3,0.6,0.4
				c0.2,0.2,0.3,0.4,0.3,0.7s0.1,0.6,0.1,0.9v0.1h-3.1c0,0.5,0.1,0.8,0.3,1.1s0.5,0.4,0.8,0.4c0.3,0,0.6-0.1,0.7-0.2
				c0.2-0.1,0.3-0.4,0.3-0.6H146.3z M145.5,464.5c0-0.3-0.1-0.6-0.3-0.8s-0.4-0.3-0.8-0.3c-0.3,0-0.6,0.1-0.8,0.3
				c-0.2,0.2-0.3,0.5-0.4,0.9H145.5z"/>
		</g>
		<g class="st11">
			<path d="M153.1,469.4c0,0.6,0.2,0.9,0.6,1.1s0.7,0.3,1.2,0.3c0.4,0,0.8-0.1,1-0.3s0.4-0.4,0.4-0.8c0-0.3-0.1-0.5-0.3-0.7
				s-0.5-0.3-0.8-0.4c-0.3-0.1-0.7-0.2-1.1-0.2c-0.4-0.1-0.7-0.2-1.1-0.3c-0.3-0.1-0.6-0.4-0.8-0.6c-0.2-0.3-0.3-0.7-0.3-1.2
				c0-0.3,0.1-0.6,0.2-0.9c0.1-0.3,0.3-0.5,0.5-0.7s0.5-0.4,0.9-0.5c0.3-0.1,0.8-0.2,1.2-0.2c0.9,0,1.6,0.2,2.1,0.6s0.8,1.1,0.8,1.9
				h-1.5c0-0.5-0.2-0.8-0.4-1.1c-0.3-0.2-0.6-0.3-1.1-0.3c-0.2,0-0.4,0-0.6,0.1s-0.3,0.1-0.4,0.2c-0.1,0.1-0.2,0.2-0.2,0.3
				s-0.1,0.2-0.1,0.4c0,0.3,0.1,0.5,0.3,0.6s0.5,0.2,0.8,0.3c0.3,0.1,0.7,0.2,1.1,0.3c0.4,0.1,0.7,0.2,1.1,0.3
				c0.3,0.2,0.6,0.4,0.8,0.7c0.2,0.3,0.3,0.7,0.3,1.2c0,0.7-0.2,1.2-0.7,1.6c-0.5,0.4-1.2,0.6-2.2,0.6c-1,0-1.8-0.2-2.3-0.6
				s-0.9-1.1-0.9-2H153.1z"/>
			<path d="M160.5,463c-0.3,0-0.5-0.1-0.7-0.3s-0.3-0.4-0.3-0.7c0-0.3,0.1-0.5,0.3-0.7c0.2-0.2,0.4-0.3,0.7-0.3
				c0.3,0,0.5,0.1,0.7,0.3s0.3,0.4,0.3,0.7c0,0.3-0.1,0.5-0.3,0.7S160.8,463,160.5,463z M159.8,464.3h1.5v7.5h-1.5V464.3z"/>
			<path d="M170,469.3c0,0.4-0.1,0.8-0.3,1.1s-0.4,0.6-0.7,0.9s-0.6,0.4-1,0.6c-0.4,0.1-0.8,0.2-1.3,0.2c-0.6,0-1.1-0.1-1.6-0.3
				c-0.4-0.2-0.8-0.4-1.1-0.8s-0.5-0.8-0.6-1.2c-0.1-0.5-0.2-1-0.2-1.6s0.1-1.1,0.2-1.6c0.1-0.5,0.4-0.9,0.7-1.2
				c0.3-0.3,0.7-0.6,1.1-0.8s0.9-0.3,1.5-0.3s1.1,0.1,1.5,0.3s0.8,0.4,1,0.8c0.3,0.3,0.5,0.7,0.6,1.2c0.1,0.5,0.2,1,0.2,1.6v0.2
				h-5.3c0,0.8,0.2,1.4,0.5,1.8s0.8,0.6,1.4,0.6c0.5,0,0.9-0.1,1.3-0.4s0.5-0.6,0.6-1.1H170z M165.9,461.5l1.4,2h-1.2l-2.1-2H165.9z
				 M168.5,467.3c0-0.6-0.2-1-0.5-1.4s-0.7-0.6-1.3-0.6c-0.6,0-1,0.2-1.3,0.5c-0.3,0.3-0.5,0.8-0.6,1.5H168.5z"/>
			<path d="M178.5,469.1c0,0.9-0.4,1.7-0.9,2.2s-1.3,0.7-2.3,0.7c-0.6,0-1.1-0.1-1.6-0.3c-0.4-0.2-0.8-0.4-1.1-0.8s-0.5-0.8-0.7-1.2
				c-0.1-0.5-0.2-1-0.2-1.6s0.1-1.1,0.2-1.6c0.2-0.5,0.4-0.9,0.7-1.2c0.3-0.3,0.7-0.6,1.1-0.8s0.9-0.3,1.5-0.3c1,0,1.8,0.3,2.3,0.8
				c0.6,0.5,0.9,1.2,0.9,2.2H177c0-0.5-0.2-1-0.5-1.3c-0.3-0.3-0.7-0.4-1.2-0.4c-0.6,0-1.1,0.2-1.5,0.7c-0.3,0.4-0.5,1.1-0.5,2
				c0,0.9,0.2,1.6,0.5,2s0.8,0.7,1.5,0.7c0.5,0,1-0.1,1.3-0.4c0.3-0.3,0.5-0.7,0.5-1.2H178.5z"/>
			<path d="M180.6,461.5h1.5v10.4h-1.5V461.5z"/>
			<path d="M190.8,469.3c0,0.4-0.1,0.8-0.3,1.1s-0.4,0.6-0.7,0.9s-0.6,0.4-1,0.6c-0.4,0.1-0.8,0.2-1.3,0.2c-0.6,0-1.1-0.1-1.6-0.3
				c-0.4-0.2-0.8-0.4-1.1-0.8s-0.5-0.8-0.6-1.2c-0.1-0.5-0.2-1-0.2-1.6s0.1-1.1,0.2-1.6c0.1-0.5,0.4-0.9,0.7-1.2
				c0.3-0.3,0.7-0.6,1.1-0.8s0.9-0.3,1.5-0.3s1.1,0.1,1.5,0.3s0.8,0.4,1,0.8c0.3,0.3,0.5,0.7,0.6,1.2c0.1,0.5,0.2,1,0.2,1.6v0.2
				h-5.3c0,0.8,0.2,1.4,0.5,1.8s0.8,0.6,1.4,0.6c0.5,0,0.9-0.1,1.3-0.4s0.5-0.6,0.6-1.1H190.8z M189.3,467.3c0-0.6-0.2-1-0.5-1.4
				s-0.7-0.6-1.3-0.6c-0.6,0-1,0.2-1.3,0.5c-0.3,0.3-0.5,0.8-0.6,1.5H189.3z"/>
		</g>
	</g>
	<g id="XMLID_102_">
		<rect id="XMLID_146_" x="114" y="496.6" class="st10" width="47" height="10.3"/>
		<g class="st11">
			<path d="M114.9,503.1h1.7v-5.2l-1.6,1l-0.5-0.8l2.4-1.6h0.9v6.5h1.4v0.9h-4.2V503.1z"/>
			<path d="M123.3,500.4h4v0.9h-4V500.4z"/>
			<path d="M132,501.7c0,0.3,0.1,0.5,0.2,0.7c0.1,0.2,0.2,0.3,0.4,0.5c0.1,0.1,0.3,0.2,0.5,0.2c0.2,0.1,0.4,0.1,0.6,0.1
				c0.4,0,0.8-0.1,1.1-0.4s0.4-0.6,0.4-1.1c0-0.5-0.1-0.8-0.4-1.1s-0.7-0.4-1.2-0.4c-0.3,0-0.6,0-0.9,0.1c-0.3,0.1-0.6,0.2-0.9,0.4
				l-0.2,0l0.9-4.1h3.7v0.9h-2.9l-0.4,2c0.2-0.1,0.3-0.1,0.5-0.1c0.2,0,0.4-0.1,0.5-0.1c0.4,0,0.7,0.1,1,0.2s0.6,0.3,0.8,0.5
				c0.2,0.2,0.4,0.5,0.5,0.7s0.2,0.6,0.2,1s-0.1,0.7-0.2,1s-0.3,0.6-0.5,0.8c-0.2,0.2-0.5,0.4-0.8,0.5c-0.3,0.1-0.7,0.2-1.1,0.2
				c-0.4,0-0.7,0-1-0.1c-0.3-0.1-0.6-0.2-0.8-0.4c-0.2-0.2-0.4-0.4-0.5-0.7s-0.2-0.7-0.2-1.1H132z"/>
		</g>
	</g>
	<g id="XMLID_98_">
		<rect id="XMLID_180_" x="114" y="518.1" class="st10" width="43.4" height="10.3"/>
		<g class="st11">
			<path d="M118.4,520.3c0-0.5-0.2-0.8-0.4-1.1s-0.5-0.4-1-0.4c-0.2,0-0.4,0-0.6,0.1s-0.4,0.2-0.5,0.5c-0.1,0.2-0.3,0.5-0.3,0.9
				c-0.1,0.4-0.1,0.9-0.1,1.5c0.1-0.3,0.4-0.6,0.7-0.7c0.3-0.2,0.7-0.3,1.2-0.3c0.3,0,0.6,0,0.9,0.1c0.3,0.1,0.5,0.2,0.7,0.4
				c0.2,0.2,0.4,0.4,0.5,0.7s0.2,0.6,0.2,1c0,0.4-0.1,0.7-0.2,1s-0.3,0.6-0.5,0.8c-0.2,0.2-0.5,0.4-0.8,0.5c-0.3,0.1-0.7,0.2-1,0.2
				c-0.4,0-0.8-0.1-1.1-0.2s-0.6-0.4-0.8-0.7s-0.4-0.7-0.5-1.2c-0.1-0.5-0.2-1-0.2-1.7c0-1.3,0.2-2.3,0.7-2.9s1.1-1,2-1
				c0.7,0,1.3,0.2,1.7,0.6s0.7,1,0.7,1.7H118.4z M117.1,524.7c0.2,0,0.4,0,0.6-0.1c0.2-0.1,0.3-0.2,0.4-0.3s0.2-0.3,0.3-0.5
				s0.1-0.4,0.1-0.6c0-0.4-0.1-0.8-0.4-1s-0.6-0.4-1-0.4c-0.4,0-0.7,0.1-1,0.4s-0.4,0.6-0.4,1c0,0.2,0,0.4,0.1,0.6s0.2,0.3,0.3,0.5
				s0.3,0.2,0.4,0.3C116.6,524.7,116.8,524.7,117.1,524.7z"/>
			<path d="M123.3,521.8h4v0.9h-4V521.8z"/>
			<path d="M131.6,524.6h1.7v-5.2l-1.6,1l-0.5-0.8l2.4-1.6h0.9v6.5h1.4v0.9h-4.2V524.6z"/>
			<path d="M139.4,525.6c-0.4,0-0.7-0.1-1-0.2s-0.6-0.4-0.8-0.7s-0.4-0.7-0.6-1.2c-0.1-0.5-0.2-1.1-0.2-1.7s0.1-1.3,0.2-1.7
				c0.1-0.5,0.3-0.9,0.6-1.2s0.5-0.5,0.8-0.7s0.7-0.2,1-0.2c0.4,0,0.7,0.1,1,0.2s0.6,0.4,0.8,0.7s0.4,0.7,0.6,1.2
				c0.1,0.5,0.2,1.1,0.2,1.7s-0.1,1.3-0.2,1.7c-0.1,0.5-0.3,0.9-0.6,1.2s-0.5,0.5-0.8,0.7S139.8,525.6,139.4,525.6z M139.4,524.7
				c0.2,0,0.4,0,0.6-0.1c0.2-0.1,0.3-0.2,0.5-0.5c0.1-0.2,0.2-0.5,0.3-0.9s0.1-0.8,0.1-1.4s0-1-0.1-1.4c-0.1-0.4-0.2-0.7-0.3-0.9
				c-0.1-0.2-0.3-0.4-0.5-0.5s-0.4-0.1-0.6-0.1c-0.2,0-0.4,0-0.6,0.1s-0.3,0.2-0.5,0.5c-0.1,0.2-0.2,0.5-0.3,0.9
				c-0.1,0.4-0.1,0.8-0.1,1.4s0,1,0.1,1.4s0.2,0.7,0.3,0.9c0.1,0.2,0.3,0.4,0.5,0.5C139,524.6,139.2,524.7,139.4,524.7z"/>
		</g>
	</g>
	<g id="XMLID_53_">
		<rect id="XMLID_183_" x="183" y="496.6" class="st10" width="53.4" height="10.3"/>
		<g class="st11">
			<path d="M183.9,503.1h1.7v-5.2l-1.6,1l-0.5-0.8l2.4-1.6h0.9v6.5h1.4v0.9h-4.2V503.1z"/>
			<path d="M189.7,503.1h1.7v-5.2l-1.6,1l-0.5-0.8l2.4-1.6h0.9v6.5h1.4v0.9h-4.2V503.1z"/>
			<path d="M198.1,500.4h4v0.9h-4V500.4z"/>
			<path d="M206.1,503.1c0.6-0.5,1.1-1,1.5-1.4s0.8-0.8,1.1-1.1c0.3-0.3,0.6-0.7,0.7-1s0.3-0.6,0.3-0.9c0-0.4-0.1-0.7-0.3-0.9
				c-0.2-0.2-0.5-0.3-0.9-0.3c-0.4,0-0.7,0.1-1,0.4s-0.4,0.6-0.4,1.1H206c0-0.4,0.1-0.7,0.2-1s0.3-0.5,0.5-0.8
				c0.2-0.2,0.5-0.4,0.8-0.5s0.6-0.2,1-0.2c0.4,0,0.7,0.1,1,0.2c0.3,0.1,0.5,0.2,0.7,0.4c0.2,0.2,0.3,0.4,0.4,0.7s0.1,0.5,0.1,0.8
				c0,0.4-0.1,0.8-0.3,1.1c-0.2,0.3-0.4,0.7-0.7,1c-0.3,0.3-0.7,0.7-1.1,1.1c-0.4,0.4-0.8,0.8-1.2,1.2h3.4v0.9h-4.8V503.1z"/>
			<path d="M214.2,504.1c-0.4,0-0.7-0.1-1-0.2s-0.6-0.4-0.8-0.7s-0.4-0.7-0.6-1.2c-0.1-0.5-0.2-1.1-0.2-1.7s0.1-1.3,0.2-1.7
				c0.1-0.5,0.3-0.9,0.6-1.2s0.5-0.5,0.8-0.7s0.7-0.2,1-0.2c0.4,0,0.7,0.1,1,0.2s0.6,0.4,0.8,0.7s0.4,0.7,0.6,1.2
				c0.1,0.5,0.2,1.1,0.2,1.7s-0.1,1.3-0.2,1.7c-0.1,0.5-0.3,0.9-0.6,1.2s-0.5,0.5-0.8,0.7S214.6,504.1,214.2,504.1z M214.2,503.2
				c0.2,0,0.4,0,0.6-0.1c0.2-0.1,0.3-0.2,0.5-0.5c0.1-0.2,0.2-0.5,0.3-0.9s0.1-0.8,0.1-1.4s0-1-0.1-1.4c-0.1-0.4-0.2-0.7-0.3-0.9
				c-0.1-0.2-0.3-0.4-0.5-0.5s-0.4-0.1-0.6-0.1c-0.2,0-0.4,0-0.6,0.1s-0.3,0.2-0.5,0.5c-0.1,0.2-0.2,0.5-0.3,0.9
				c-0.1,0.4-0.1,0.8-0.1,1.4s0,1,0.1,1.4s0.2,0.7,0.3,0.9c0.1,0.2,0.3,0.4,0.5,0.5C213.9,503.2,214,503.2,214.2,503.2z"/>
		</g>
	</g>
	<g id="XMLID_37_">
		<rect id="XMLID_138_" x="183" y="518.1" class="st10" width="53.4" height="10.3"/>
		<g class="st11">
			<path d="M183.5,524.6c0.6-0.5,1.1-1,1.5-1.4s0.8-0.8,1.1-1.1c0.3-0.3,0.6-0.7,0.7-1s0.3-0.6,0.3-0.9c0-0.4-0.1-0.7-0.3-0.9
				c-0.2-0.2-0.5-0.3-0.9-0.3c-0.4,0-0.7,0.1-1,0.4s-0.4,0.6-0.4,1.1h-1.1c0-0.4,0.1-0.7,0.2-1s0.3-0.5,0.5-0.8
				c0.2-0.2,0.5-0.4,0.8-0.5s0.6-0.2,1-0.2c0.4,0,0.7,0.1,1,0.2c0.3,0.1,0.5,0.2,0.7,0.4c0.2,0.2,0.3,0.4,0.4,0.7s0.1,0.5,0.1,0.8
				c0,0.4-0.1,0.8-0.3,1.1c-0.2,0.3-0.4,0.7-0.7,1c-0.3,0.3-0.7,0.7-1.1,1.1c-0.4,0.4-0.8,0.8-1.2,1.2h3.4v0.9h-4.8V524.6z"/>
			<path d="M189.7,524.6h1.7v-5.2l-1.6,1l-0.5-0.8l2.4-1.6h0.9v6.5h1.4v0.9h-4.2V524.6z"/>
			<path d="M202.9,523.7c0,0.3-0.1,0.5-0.2,0.8s-0.3,0.4-0.5,0.6s-0.4,0.3-0.7,0.4c-0.3,0.1-0.6,0.1-0.9,0.1c-0.4,0-0.8-0.1-1.1-0.2
				c-0.3-0.1-0.6-0.3-0.8-0.6s-0.4-0.5-0.5-0.9c-0.1-0.3-0.1-0.7-0.1-1.1s0.1-0.8,0.2-1.1c0.1-0.3,0.3-0.6,0.5-0.9
				c0.2-0.2,0.5-0.4,0.8-0.6s0.7-0.2,1.1-0.2s0.8,0.1,1.1,0.2s0.5,0.3,0.7,0.5c0.2,0.2,0.3,0.5,0.4,0.9c0.1,0.3,0.1,0.7,0.1,1.2v0.2
				h-3.8c0,0.6,0.1,1,0.4,1.3s0.6,0.4,1,0.4c0.4,0,0.7-0.1,0.9-0.3s0.4-0.4,0.4-0.8H202.9z M201.9,522.3c0-0.4-0.1-0.7-0.3-1
				s-0.5-0.4-0.9-0.4c-0.4,0-0.7,0.1-1,0.3c-0.2,0.2-0.4,0.6-0.4,1.1H201.9z"/>
			<path d="M204.5,521h-0.7v-0.9h0.7v-1.4h1.1v1.4h1.2v0.9h-1.2v2.8c0,0.3,0.1,0.5,0.2,0.6s0.3,0.2,0.6,0.2c0.1,0,0.2,0,0.3,0
				s0.2,0,0.3,0v0.9c-0.1,0-0.2,0-0.3,0.1s-0.2,0-0.4,0c-0.5,0-0.9-0.1-1.2-0.4c-0.3-0.3-0.4-0.7-0.4-1.3V521z"/>
			<path d="M210.4,522.4h2.1v-2.1h0.9v2.1h2.1v0.9h-2.1v2.2h-0.9v-2.2h-2.1V522.4z"/>
		</g>
	</g>
	<circle class="st4" cx="170.5" cy="522.4" r="6.3"/>
	<circle class="st1" cx="102.5" cy="501.8" r="6.3"/>
	<circle class="st2" cx="102.5" cy="522.4" r="6.3"/>
	<circle class="st3" cx="170.5" cy="501.8" r="6.3"/>
</g>
</svg>
