<svg id="Calque_1" data-name="Calque 1" xmlns="http://www.w3.org/2000/svg" viewBox="0 0 769 801"><defs><style>.cls-1{fill:#ede6d8;}.cls-1,.cls-10,.cls-7,.cls-8,.cls-9{stroke:#fff;stroke-miterlimit:10;}.cls-2,.cls-9{fill:#f6b0bf;}.cls-3,.cls-7{fill:#f28ea4;}.cls-4{fill:#ef6d89;}.cls-10,.cls-5{fill:#e61e49;}.cls-6{fill:#fff;}.cls-8{fill:none;}</style></defs><title>cartesTOURFRANCE-departs-arriveesXXI</title><rect class="cls-1" x="0.94" y="0.5" width="767.34" height="800"/><polygon id="Var" class="cls-2" points="609.33 622.49 624.69 643.82 612.34 654.68 613.36 661.21 598.65 669.24 588.73 670.54 580.67 669.71 573.28 673.39 567.14 666.98 570.39 658.87 566.63 654.36 571.27 649.56 566.63 640.84 570.58 629.14 581.73 631.82 609.33 622.49"/><polygon id="Bouches-du-Rhône" class="cls-3" points="566.63 640.84 571.27 649.56 566.63 654.36 570.39 658.87 567.14 666.98 552.73 663.02 550.54 655.15 536.37 655.6 532.65 651.37 527.21 650.62 529.78 655.51 523.99 657.32 513.75 653.33 516.69 649.27 500.56 648.15 509.82 632.89 516.24 632.33 518.23 621.43 526.95 616.58 526.95 619.09 538.65 628.07 558.32 633.59 570.57 629.14 570.58 629.14 566.63 640.84"/><polygon id="Drôme" class="cls-4" points="570.58 568.2 561.86 570.97 560.26 577.75 562.66 579.73 560.22 582.55 553.69 580.74 552.73 588.66 564.49 595.06 563.73 601.91 557.4 605.09 550.44 599.56 541.5 598.77 534.77 593.68 535.86 588.93 532.83 586.03 527.32 589.94 530.11 596.16 526.17 598.22 520.44 592.93 519.04 582.49 522.27 574.23 527.21 554.06 522.59 537.46 522.92 528.75 525.27 530.68 531.02 527.64 540.73 534.38 538.97 543.44 549.91 546.87 553.76 543.81 553.81 561.65 570.58 568.2"/><polygon id="Vaucluse" class="cls-3" points="570.57 629.14 558.32 633.59 538.65 628.07 526.95 619.09 526.95 616.58 526.95 613.76 520.49 607.22 520.53 602.25 514.66 593.68 514.65 593.61 520.44 592.93 526.17 598.22 530.11 596.16 527.32 589.94 532.83 586.03 535.86 588.93 534.77 593.68 541.5 598.77 550.44 599.56 557.4 605.09 559.4 621.72 568.86 628.73 570.57 629.14"/><polygon id="Haute-Marne" class="cls-2" points="564.74 361.44 556.66 370.34 556.66 378.45 545.11 378.99 545.02 382.61 539.14 384.41 535.23 378.91 526.27 378.17 527 370.09 515.51 357.55 515.2 356 514.48 352.32 521.02 350.05 519.62 336.56 515.84 335.19 511.9 329.6 511.9 324.64 515.72 324.72 520.41 321.43 521.13 315.9 524.79 315.07 526.35 319.28 545.51 331.49 545.02 335.62 558.29 345.37 554.97 352.59 564.74 361.44"/><polygon id="Marne" class="cls-3" points="464.32 319.81 461.32 318.93 461.83 304.82 470.5 294.48 472.75 285.53 468.91 275.65 485.14 271.41 518.98 279.86 522.07 278.4 527.45 293.01 521.62 306.52 524.79 315.07 521.13 315.9 520.41 321.43 515.72 324.72 511.9 324.64 500.59 324.38 496.23 313.9 492.9 313.63 474.61 322.83 464.32 319.81"/><polygon id="Ardèche" class="cls-2" points="522.59 537.46 527.21 554.06 522.27 574.23 519.04 582.49 520.44 592.93 514.65 593.61 500.56 595.28 490.57 593.66 486.8 586.2 486 584.61 482.99 575.93 481 567.2 489.9 558.09 495.16 558.14 506.94 540.51 508.21 535.15 520.3 526.6 522.92 528.75 522.59 537.46"/><polygon id="Gard" class="cls-3" points="526.95 613.76 526.95 616.58 518.23 621.43 516.24 632.33 509.82 632.89 500.56 648.15 492.85 648.19 490.58 643.63 496.43 638.8 494.12 630.27 480.31 623.03 478.4 616.26 474.83 615.84 468.63 623.7 458.17 619.17 463.87 615.59 461.31 611.07 454.47 608.89 458.06 603.05 464.78 607.63 471.56 605.09 476.5 605.73 482.24 606.37 484.86 602.43 485.13 592.35 482 588.95 486.8 586.2 490.57 593.66 500.56 595.28 514.65 593.61 514.66 593.68 520.53 602.25 520.49 607.22 526.95 613.76"/><polygon id="Aube" class="cls-2" points="519.62 336.56 521.02 350.05 514.48 352.32 515.2 356 515.12 356.02 507.82 359.83 498.05 363.08 495.08 363.05 480.63 362.89 467.17 347.47 467.89 341.55 462.26 335.58 458.36 335.38 458.11 334.25 459.29 323.69 464.32 319.81 474.61 322.83 492.9 313.63 496.23 313.9 500.59 324.38 511.9 324.64 511.9 329.6 515.84 335.19 519.62 336.56"/><polygon id="Loire" class="cls-3" points="521.02 519.6 520.3 526.6 508.21 535.15 495.44 524.85 488.19 528.95 483.05 527.24 485.63 520.38 483.74 513.15 478.06 509.36 473.13 500.14 475.81 493.36 471.49 489.22 477.81 488.33 477.52 476.69 475.99 472.79 476.64 470.39 481.26 469.97 486.89 475.72 504.1 471.46 506.32 476.15 504.11 478.05 499.72 478.05 498.04 483.07 500.83 493.33 504.11 496.81 502.35 506.93 521.02 519.6"/><polygon id="Haute-Loire" class="cls-2" points="508.21 535.15 506.94 540.51 495.16 558.14 489.9 558.09 481 567.2 476.51 561.35 462.74 562.9 458.36 551.38 451.74 533.98 446.39 532.55 444.74 529.67 444.44 529.27 445.66 528.39 463.27 524.25 469.88 528.75 482.48 528.75 483.05 527.24 488.19 528.95 495.44 524.85 508.21 535.15"/><polygon id="Yonne" class="cls-2" points="495.07 363.68 498.59 374.4 487.84 398.2 488.92 400.72 485.13 402.9 466.7 391.26 456 392.74 439.93 386.86 435.2 374.55 438.71 374.89 442.69 372.41 441.19 366.93 447.32 361.07 438.71 346.68 443.81 342.43 442.08 340.45 446.98 335.38 458.11 334.25 458.36 335.38 462.26 335.58 467.89 341.55 467.17 347.47 480.63 362.89 495.08 363.05 495.07 363.68"/><polygon id="Hérault" class="cls-4" points="494.12 630.27 496.43 638.8 490.58 643.63 486.51 643.3 450.05 665.87 435.63 656.91 432.62 660.85 429.17 663.02 423.72 659.79 420.19 655.21 421.29 650.28 425.99 648.85 427.29 644.83 423.91 641.68 426.73 635.86 429.8 638.02 439.16 634.8 444.73 632.89 444.49 624.23 451.2 626.15 458.17 619.17 468.63 623.7 474.83 615.84 478.4 616.26 480.31 623.03 494.12 630.27"/><polygon id="Nièvre" class="cls-2" points="488.92 400.72 494.47 413.6 486.74 415.66 488.95 436.08 476.51 440.85 473.68 439.1 469.88 440.54 463.51 444.66 449.96 443.67 443.62 438.99 443.82 436.18 444.74 423.71 436.92 403.01 438.3 397.57 436.3 390.7 436.29 390.7 435.54 388.11 439.93 386.86 456 392.74 466.7 391.26 485.13 402.9 488.92 400.72"/><polygon id="Lozère" class="cls-2" points="486 584.61 486.8 586.2 482 588.95 485.13 592.35 484.86 602.43 482.24 606.37 476.5 605.73 471.56 605.09 464.78 607.63 458.06 603.05 452.38 600.01 447.9 585.23 440.65 573.02 447.03 556.18 451.58 557.42 458.36 551.38 462.74 562.9 476.51 561.35 481 567.2 482.99 575.93 486 584.61"/><polygon id="Puy-de-Dôme" class="cls-2" points="483.74 513.15 485.63 520.38 483.05 527.24 482.48 528.75 469.88 528.75 463.27 524.25 445.66 528.39 444.44 529.27 441.91 531.13 433.39 524.92 428.44 526.24 425.76 522.2 419.73 521.31 419.77 515.23 418.49 510.59 419.59 503.78 414.67 497.21 424.59 488.54 421.8 478.05 425.76 480.68 435.25 471.01 438.62 471.04 437.61 474.39 446.98 482 456.3 483.02 460.1 481.74 471.49 489.22 475.81 493.36 473.13 500.14 478.06 509.36 483.74 513.15"/><polygon id="Allier" class="cls-2" points="485.14 456.06 485.02 466.07 481.26 469.97 476.64 470.39 475.99 472.79 477.52 476.69 477.81 488.33 471.49 489.22 460.1 481.74 456.3 483.02 446.98 482 437.61 474.39 438.62 471.04 435.25 471.01 425.76 480.68 421.8 478.05 419.26 468.39 412.11 465.03 409.36 459.33 412.34 453.69 416.87 452.87 421.63 453.69 424.67 451.06 422.3 445.63 429.39 439.33 430.92 442.6 438.4 435.69 443.44 436.15 443.82 436.18 443.62 438.99 449.96 443.67 463.51 444.66 469.88 440.54 474.2 452.18 485.14 456.06"/><polygon id="Seine-et-Marne" class="cls-2" points="464.32 319.81 459.29 323.69 458.11 334.25 446.98 335.38 442.08 340.45 443.81 342.43 438.71 346.68 433.65 350.9 419.62 352.32 417.67 350.54 421.02 344.45 417.06 341.05 417.07 339.79 417.1 336.63 422.03 333.45 423.06 314.39 423.46 306.92 424.06 295.81 424.32 291.04 440.55 290.06 444.82 288.35 449.27 294.97 461.83 304.82 461.32 318.93 464.32 319.81"/><polygon id="Aveyron" class="cls-3" points="461.31 611.07 463.87 615.59 458.17 619.17 451.2 626.15 444.49 624.23 444.73 632.89 439.16 634.8 435.08 630.17 425.94 629.89 418.81 613.28 402.42 602.33 393.3 603.82 390.42 591.92 389.3 583.79 401.25 577.22 403.43 574.3 405.89 574.64 410.89 571.6 418.3 572.58 423.36 559.03 430.23 554.74 435.14 558.18 437.27 564.39 440.65 573.02 447.9 585.23 452.38 600.01 458.06 603.05 454.47 608.89 461.31 611.07"/><polygon id="Cantal" class="cls-3" points="451.74 533.98 458.36 551.38 451.58 557.42 447.03 556.18 440.65 573.02 437.27 564.39 435.14 558.18 430.23 554.74 423.36 559.03 418.3 572.58 410.89 571.6 405.89 574.64 403.43 574.3 399.87 551.99 404.17 545.09 405.58 535.89 412.69 523.48 416.83 527.02 420.35 525.5 419.73 521.31 425.76 522.2 428.44 526.24 433.39 524.92 441.91 531.13 444.44 529.27 444.74 529.67 446.39 532.55 451.74 533.98"/><polygon id="Bas-Rhin" class="cls-3" points="642.01 334.35 644.84 312.02 650.55 307.94 661.2 290.93 648.8 285.81 635.84 286.54 632.54 294.57 623.33 294.03 611.78 288.89 607.76 296.53 623.45 304.76 622.75 312.88 617.43 321.35 614.84 320.49 614.84 324.72 616 332.97 618.87 334.75 636.21 345.48 642.01 334.35"/><polygon id="Alpes-Maritimes" class="cls-2" points="651.46 611.22 656.31 609.72 655.08 596.78 638.2 600.6 619.04 587.36 613.17 593.62 611.11 601.55 622.58 614.3 611.78 617.61 609.33 622.49 610.22 623.72 624.69 643.82 633.08 638.22 633.34 631.42 638.39 631.04 650.93 622.39 650.94 622.38 651.46 611.22"/><polygon id="Haut-Rhin" class="cls-3" points="615.82 380.97 620.1 387.39 622.58 391.13 631.23 390.98 635.43 387.73 637.91 380.07 637.91 380.07 633.59 373.24 638.54 355.55 636.21 345.48 618.87 334.75 606.94 367.68 615.02 372.38 615.82 380.97"/><polygon id="Moselle" class="cls-2" points="572.79 260.39 563.92 262.83 567.31 286.62 564.69 289.37 574.08 298.03 578.71 298.53 583.64 306.49 614.84 320.49 617.43 321.35 622.75 312.88 623.45 304.76 607.76 296.53 611.78 288.89 623.33 294.03 632.54 294.57 635.84 286.54 628.85 279.86 623.21 279.67 620.11 282.48 612.68 282.63 606.38 277.79 602.28 277.84 601.31 280.79 597.59 281.2 589.91 265.88 581.98 262.63 576.08 260.2 572.79 260.39"/><polygon id="Savoie" class="cls-5" points="598.26 489.64 594.96 492.81 590.29 503.38 586.47 504.08 581.37 499.27 578.4 500.53 570.58 496.46 566.63 485.12 565.28 502.92 559.27 509.32 570.13 521.32 573.25 517.03 585.11 523.59 582.16 532.35 587.37 538.14 587.05 540.15 598.92 540.17 605.01 539.56 616.41 538.43 626.32 530.84 629.04 520.14 610.22 495.53 607.01 499.24 598.26 489.64"/><polygon id="Hautes-Alpes" class="cls-5" points="574.73 589.75 583.96 581.28 590.84 586.49 594.42 581.58 607.1 582.08 622.31 567.9 626.46 564.05 622.58 555.28 611.67 552.61 605.01 539.56 598.92 540.17 587.05 540.15 586.15 545.77 592.24 550.2 593.95 555.89 570.58 568.2 568.43 568.88 561.86 570.97 560.26 577.75 562.66 579.73 560.22 582.55 553.69 580.74 552.73 588.66 564.49 595.06 563.73 601.91 574.87 599.03 574.73 589.75"/><polygon id="Alpes-de-Haute-Provence" class="cls-3" points="611.78 617.61 622.58 614.3 611.11 601.55 613.17 593.62 619.04 587.36 617.83 579.45 622.74 574.64 622.58 568.2 622.31 567.9 607.1 582.08 594.42 581.58 590.84 586.49 583.96 581.28 574.73 589.75 574.87 599.03 563.73 601.91 557.4 605.09 559.4 621.72 568.86 628.73 570.57 629.14 570.58 629.14 581.73 631.82 605.19 623.89 609.33 622.49 611.78 617.61"/><polygon id="Territoire_de_Belfort" data-name="Territoire de Belfort" class="cls-2" points="619.49 387.8 620.1 387.39 615.82 380.97 615.02 372.38 606.94 367.68 603.17 369.97 602.28 382.99 614.84 388.79 619.49 387.8"/><polygon id="Haute-Savoie" class="cls-5" points="609.32 470.25 611.76 467.65 607.68 457.56 591.24 461.48 588.54 459.62 584.38 465.24 586.98 469.19 579.72 474.63 572.61 474.56 572.65 476.32 567.18 477.95 566.63 485.11 566.63 485.12 570.58 496.46 578.4 500.53 581.37 499.27 586.47 504.08 590.29 503.38 594.96 492.81 598.26 489.64 607.01 499.24 610.22 495.53 611.96 493.5 619.45 490.49 619.58 488.61 619.93 483.48 609.32 470.25"/><polygon id="Vosges" class="cls-3" points="576.83 356.5 581.17 360.91 606.94 367.68 618.87 334.75 616 332.97 614.84 324.72 602.74 329.64 576.36 330.67 573.69 333.52 567.75 333.82 558.81 325.82 545.51 331.49 545.02 335.62 558.29 345.37 554.97 352.59 564.74 361.44 571.58 356.24 576.83 356.5"/><polygon id="Doubs" class="cls-3" points="561.41 418.94 571.45 420.77 571.7 428.48 578.76 430.71 581.55 436.27 576.15 439.53 578.4 448.33 592.32 434.19 591.99 423.69 600.11 419.83 617.83 396.13 614.84 388.79 602.28 382.99 596.57 388.12 588.54 386.76 559.24 402.52 564.32 411.29 561.41 418.94"/><polygon id="Meurthe-et-Moselle" class="cls-3" points="583.64 306.49 578.71 298.53 574.08 298.03 564.69 289.37 567.31 286.62 563.92 262.83 558.5 258.89 557.04 257.84 543.88 260.2 546.63 267.35 552.45 266.11 556.86 274.09 561.82 297.3 558.81 325.82 567.75 333.82 573.69 333.52 576.36 330.67 602.74 329.64 614.84 324.72 614.84 320.49 583.64 306.49"/><polygon id="Haute-Saône" class="cls-2" points="545.02 392.73 550.37 399.92 553.83 404.58 559.24 402.52 588.54 386.76 596.57 388.12 602.28 382.99 603.17 369.97 606.94 367.68 581.17 360.91 576.83 356.5 571.58 356.24 564.74 361.44 556.66 370.34 556.66 378.45 545.11 378.99 545.02 382.61 549.42 386.92 545.02 392.73"/><polygon id="Isère" class="cls-5" points="593.95 555.89 592.24 550.2 586.15 545.77 587.05 540.15 587.37 538.14 582.16 532.35 585.11 523.59 573.25 517.03 570.13 521.32 559.27 509.32 545.85 493.47 541.5 500.1 534.77 498.74 537.67 503.67 532.85 509.79 522.81 512.48 525.64 517.37 521.02 519.6 520.3 526.6 522.92 528.75 525.27 530.68 531.02 527.64 540.73 534.38 538.97 543.44 549.91 546.87 553.76 543.81 553.81 561.65 568.01 567.2 570.58 568.2 593.95 555.89"/><polygon id="Ain" class="cls-3" points="566.63 485.12 566.63 485.11 567.18 477.95 572.65 476.32 572.61 474.56 572.53 470.4 579.1 468.49 581.89 459.92 577.19 457.93 568 467.87 561.66 467.82 561.68 465.19 558.19 463.41 550.68 468.39 540.87 456.74 527.45 452.87 520.93 473.39 518.49 489.2 534.77 498.74 541.5 500.1 545.85 493.47 559.27 509.32 565.28 502.92 566.63 485.12"/><polygon id="Jura" class="cls-3" points="550.68 468.39 558.19 463.41 561.68 465.19 561.66 467.82 568 467.87 577.19 457.93 578.4 448.33 576.15 439.53 581.55 436.27 578.76 430.71 571.7 428.48 571.45 420.77 561.41 418.94 564.32 411.29 559.24 402.52 553.83 404.58 550.37 399.92 548.77 410.56 541.26 419.25 541.5 421.89 541.84 425.6 549.05 430.5 543.52 432.83 547.83 445.63 545.02 449.94 548.85 454.36 540.87 456.74 550.68 468.39"/><polygon id="Meuse" class="cls-2" points="561.82 297.3 556.86 274.09 552.45 266.11 546.63 267.35 543.88 260.2 538.65 256.36 535.62 259.34 530.17 256.91 527.04 262.56 529.55 266.36 527.36 275.91 522.07 278.4 527.45 293.01 521.62 306.52 524.79 315.07 526.35 319.28 545.51 331.49 558.81 325.82 561.82 297.3"/><polygon id="Côte-d_Or" data-name="Côte-d&apos;Or" class="cls-2" points="529.45 423.57 541.5 421.89 541.26 419.25 548.77 410.56 550.37 399.92 545.02 392.73 549.42 386.92 545.02 382.61 539.14 384.41 535.23 378.91 526.27 378.17 527 370.09 515.51 357.55 515.2 356 515.12 356.02 507.82 359.83 498.05 363.08 495.08 363.05 495.07 363.68 498.59 374.4 487.84 398.2 488.92 400.72 494.47 413.6 515.57 428.46 529.45 423.57"/><polygon id="Saône-et-Loire" class="cls-3" points="516.75 467.01 520.93 473.39 527.45 452.87 540.87 456.74 548.85 454.36 545.02 449.94 547.83 445.63 543.52 432.83 549.05 430.5 541.84 425.6 541.5 421.89 529.45 423.57 515.57 428.46 494.47 413.6 486.74 415.66 488.95 436.08 476.51 440.85 473.68 439.1 469.88 440.54 474.2 452.18 485.14 456.06 485.02 466.07 481.26 469.97 486.89 475.72 504.1 471.46 504.27 467.32 516.75 467.01"/><polygon id="Ardennes" class="cls-2" points="529.55 266.36 527.04 262.56 530.17 256.91 535.62 259.34 538.65 256.36 536.75 250.9 518.83 243.74 518.46 220.93 514.23 220.93 509.97 230.74 499.88 235.03 492.65 232.55 492.81 246.96 485.14 271.41 518.98 279.86 522.07 278.4 527.36 275.91 529.55 266.36"/><polygon id="Rhône" class="cls-2" points="522.81 512.48 532.85 509.79 537.67 503.67 534.77 498.74 518.49 489.2 520.93 473.39 516.75 467.01 504.27 467.32 504.1 471.46 506.32 476.15 504.11 478.05 499.72 478.05 498.04 483.07 500.83 493.33 504.11 496.81 502.35 506.93 521.02 519.6 525.64 517.37 522.81 512.48"/><polygon id="Aisne" class="cls-2" points="492.81 246.96 492.65 232.55 488.2 232.51 448.91 230.81 446.27 251.63 446.24 252.16 445 273.67 439.86 276.74 441.8 283.87 444.82 288.35 449.27 294.97 461.83 304.82 470.5 294.48 472.75 285.53 468.91 275.65 485.14 271.41 492.81 246.96"/><polygon id="Nord" class="cls-4" points="418.81 190.05 431.27 191.95 433.66 198 444.73 203.41 439.86 206.55 448.61 216.34 440.56 224.05 448.91 230.81 488.2 232.51 487.71 230.96 492.06 227.75 491.71 215.9 483.88 208.62 471.62 209.18 470.3 211.34 468.76 211.32 469.04 203.66 461.41 198.13 457.01 200.06 452.45 198.05 451.45 186.44 447.54 181.57 439.22 183.5 433.93 186.72 431.56 182.1 429.41 179.67 425.05 177.25 426.61 171.13 422.97 162.1 422.97 162.1 404.4 167.09 410.99 180.18 418.81 190.05"/><polygon id="Somme" class="cls-2" points="448.91 230.81 436.65 230.04 382.22 207.08 373.27 226.06 390.71 246.51 394.74 251.23 427.79 257.72 438.53 251.6 445.54 251.63 446.27 251.63 448.91 230.81"/><polygon id="Pas-de-Calais" class="cls-3" points="436.65 230.04 448.91 230.81 440.56 224.05 448.61 216.34 439.86 206.55 444.73 203.41 433.66 198 431.27 191.95 418.81 190.05 410.99 180.18 404.4 167.09 392.25 169.29 382.55 176.64 382.22 207.08 436.65 230.04"/><polygon id="Oise" class="cls-2" points="446.27 251.63 445 273.67 439.86 276.74 441.8 283.87 444.82 288.35 440.55 290.06 424.32 291.04 403.16 282.31 390.22 284.38 388.31 277.8 388.21 269.78 391.27 263.6 390.71 246.51 394.74 251.23 427.79 257.72 438.53 251.6 446.27 251.63"/><polygon id="Cher" class="cls-2" points="436.92 403.01 444.74 423.71 443.82 436.18 443.44 436.15 438.4 435.69 430.92 442.6 429.39 439.33 422.3 445.63 424.67 451.06 421.63 453.69 416.87 452.87 412.34 453.69 409.36 459.33 404.2 459.92 406.49 446.24 402.01 439.61 405.22 430.03 399.97 415.63 393.53 416.41 388.51 413.71 392.88 409.09 396.48 404.67 404.48 402.85 409.31 391.26 403.53 386.48 409.81 381.17 428.01 392.5 436.29 390.7 436.3 390.7 438.3 397.57 436.92 403.01"/><polygon id="Creuse" class="cls-2" points="421.8 478.05 424.59 488.54 414.67 497.21 419.59 503.78 409.81 507.56 405.22 503.93 392.21 505.61 392.88 500.99 387.05 497.04 379.33 496.35 376.29 491.07 377.07 482.04 370.01 472.63 372.67 465.73 370.93 461.48 385.87 461.05 387.19 457.56 404.2 459.92 409.36 459.33 412.11 465.03 419.26 468.39 421.8 478.05"/><polygon id="Val-d_Oise" data-name="Val-d&apos;Oise" class="cls-6" points="424.32 291.04 424.06 295.81 412.46 299.22 407.98 300.54 383.44 289.67 388.31 277.8 390.22 284.38 403.16 282.31 424.32 291.04"/><polygon id="Seine-Saint-Denis" class="cls-6" points="424.06 295.81 423.46 306.92 422.6 306.87 417.06 304.69 416.65 304.86 415.61 302.18 412.91 302.8 412.76 302.19 412.46 299.22 424.06 295.81"/><polygon id="Val-de-Marne" class="cls-2" points="423.46 306.92 423.06 314.39 412.89 312.38 412.61 307.81 412.79 307.31 414.26 307.81 417.08 305.94 416.65 304.86 417.06 304.69 422.6 306.87 423.46 306.92"/><polygon id="Essonne" class="cls-3" points="423.06 314.39 422.03 333.45 417.1 336.63 417.07 339.79 416.23 339.78 398.08 340.5 396.78 330.74 396.33 327.42 401.99 320.84 400.95 315.89 408.74 310.35 412.89 312.38 423.06 314.39"/><polygon id="Paris" class="cls-5" points="416.65 304.86 417.08 305.94 414.26 307.81 412.79 307.31 410.77 306.62 409.81 303.5 412.91 302.8 415.61 302.18 416.65 304.86"/><polygon id="Hauts-de-Seine" class="cls-2" points="412.76 302.19 412.91 302.8 409.81 303.5 410.77 306.62 412.79 307.31 412.61 307.81 412.89 312.38 408.74 310.35 405.98 304.8 407.98 300.54 412.46 299.22 412.76 302.19"/><polygon id="Loir-et-Cher" class="cls-2" points="409.81 381.17 403.53 386.48 409.31 391.26 404.48 402.85 396.48 404.67 392.88 409.09 386.06 405.49 369.48 410.04 360.03 402.9 357.71 385.04 350.13 378.8 336.74 376.36 348.15 364.6 347.15 354.95 351.48 348.74 367.42 361.07 377.7 359.56 379.89 373.7 386.62 377.05 391.31 381.5 407.82 379.93 409.81 381.17"/><polygon id="Yelines" class="cls-2" points="405.98 304.8 408.74 310.35 400.95 315.89 401.99 320.84 396.33 327.42 396.78 330.74 395.77 330.87 391.27 328.99 389.89 324.72 382.22 315.94 383.04 305.12 378.43 298.84 378.13 298.67 379.39 296.54 377.22 291.52 383.44 289.67 407.98 300.54 405.98 304.8"/><polygon id="Indre" class="cls-3" points="402.01 439.61 406.49 446.24 404.2 459.92 387.19 457.56 385.87 461.05 370.93 461.48 362.21 461.73 362.66 458.44 349.21 446.52 349.58 439.17 353.91 436.82 357.66 420.84 365.04 421.54 370.93 415 369.48 410.04 386.06 405.49 392.88 409.09 388.51 413.71 393.53 416.41 399.97 415.63 405.22 430.03 402.01 439.61"/><polygon id="Eure-et-Loire" class="cls-3" points="396.78 330.74 398.08 340.5 397.42 347.92 392.63 354.33 387.44 355.69 382.75 354.56 377.7 359.56 367.42 361.07 351.48 348.74 348.52 346.45 346.17 337.43 354.98 332.24 354.63 324.15 350.04 320.18 349.13 315.94 371.39 310.07 378.13 298.67 378.43 298.84 383.04 305.12 382.22 315.94 389.89 324.72 391.27 328.99 395.77 330.87 396.78 330.74"/><polygon id="Haute-Vienne" class="cls-2" points="392.88 500.99 392.21 505.61 392.01 507 364.19 520.12 357.1 518.62 353.63 511.18 346.46 509.77 343.38 512.37 336.12 504.91 336.74 500.19 344.56 495.26 344.24 490.48 350.04 488.04 349.31 483.98 345.77 476.69 344.4 472.09 348.43 467.01 362.21 461.73 370.93 461.48 372.67 465.73 370.01 472.63 377.07 482.04 376.29 491.07 379.33 496.35 387.05 497.04 392.88 500.99"/><polygon id="Seine-Maritime" class="cls-2" points="390.71 246.51 391.27 263.6 388.21 269.78 373.91 266.43 369.75 272.84 357.3 278.1 354.98 271.85 337.97 263.85 328.88 266.36 319.21 261.51 325.67 247.56 362.36 234.94 373.27 226.06 390.71 246.51"/><polygon id="Eure" class="cls-6" points="388.21 269.78 388.31 277.8 383.44 289.67 377.22 291.52 379.39 296.54 378.13 298.67 371.39 310.07 349.13 315.94 345.96 313.77 347.18 310.35 340.14 301.92 334.01 301.65 332.28 299.43 332.03 297.05 328.88 266.36 337.97 263.85 354.98 271.85 357.3 278.1 369.75 272.84 373.91 266.43 388.21 269.78"/><polygon id="Dordogne" class="cls-2" points="371.38 548.77 371.93 554.87 355.54 574.87 350.33 572.17 342.99 574.49 335.29 569.66 324.35 571.37 317.85 562.82 319.94 558.03 317.18 556.23 314.39 559.57 307.03 556.74 309.77 542.67 304.3 540.15 308.37 533.98 313.3 533.98 318.93 528.6 318.62 520.12 329.61 513.19 336.12 504.91 343.38 512.37 346.46 509.77 353.63 511.18 357.1 518.62 364.19 520.12 365.84 526.67 362.21 531.13 371.38 548.77"/><polygon id="Indre-et-Loire" class="cls-2" points="369.48 410.04 370.93 415 365.04 421.54 357.66 420.84 353.91 436.82 349.58 439.17 340.85 423.46 323.99 425.08 324.25 418.28 314.03 409.64 319.85 396.55 320.48 384.41 328.91 384.41 336.74 376.36 350.13 378.8 357.71 385.04 360.03 402.9 369.48 410.04"/><polygon id="Vienne" class="cls-6" points="362.66 458.44 362.21 461.73 348.43 467.01 344.4 472.09 345.77 476.69 334.72 480.27 331.47 476.69 329.24 477.57 329.47 480.68 314.03 478.48 318.04 477.02 318.8 474.85 314.03 471.57 316.48 466.73 315.08 462.2 310.15 462.65 311.09 429.79 306.33 416.59 314.03 409.64 324.25 418.28 323.99 425.08 340.85 423.46 349.58 439.17 349.21 446.52 362.66 458.44"/><polygon id="Lot-et-Garonne" class="cls-6" points="355.54 574.87 354.42 577.74 350.04 577.92 353.9 589.34 349.06 590.17 345.63 588.66 344.2 593.17 346.6 595.82 345.02 604.15 335.08 610.62 331.82 607.33 325.26 607.9 323.48 610.97 306.8 611.42 308.65 603.32 298.75 602.25 297.46 597.15 302.04 595.28 305.81 587.84 313.49 570.07 310.15 567.66 310.95 565.49 317.85 562.82 324.35 571.37 335.29 569.66 342.99 574.49 350.33 572.17 355.54 574.87"/><polygon id="Orne" class="cls-2" points="354.63 324.15 354.98 332.24 346.17 337.43 348.52 346.45 336.75 341.97 330.87 337.3 328.88 328.06 322.19 327.16 316.23 332.58 312.42 331.98 305.81 320.68 293.53 323.42 282.11 327.49 276.21 322.25 280.49 321.35 283.54 311.95 279.89 307.89 297.58 300.85 309.4 304.25 321.12 296.88 332.03 297.05 332.28 299.43 334.01 301.65 340.14 301.92 347.18 310.35 345.96 313.77 349.13 315.94 350.04 320.18 354.63 324.15"/><polygon id="Sarthe" class="cls-2" points="351.48 348.74 347.15 354.95 348.15 364.6 336.74 376.36 328.91 384.41 320.48 384.41 295.71 371.37 296.48 363.21 307.52 343.4 307.75 335.83 312.42 331.98 316.23 332.58 322.19 327.16 328.88 328.06 330.87 337.3 336.75 341.97 348.52 346.45 351.48 348.74"/><polygon id="Charente" class="cls-2" points="349.31 483.98 350.04 488.04 344.24 490.48 344.56 495.26 336.74 500.19 336.12 504.91 329.61 513.19 318.62 520.12 318.93 528.6 313.3 533.98 308.37 533.98 293.81 523.71 295.71 513.71 289.32 506.31 288.52 498.62 301.43 497.58 305.09 485.54 307.7 480.78 314.03 478.48 329.47 480.68 329.24 477.57 331.47 476.69 334.72 480.27 345.77 476.69 349.31 483.98"/><polygon id="Calvados" class="cls-2" points="328.88 266.36 332.03 297.05 321.12 296.88 309.4 304.25 297.58 300.85 279.89 307.89 271.68 305.68 267.55 300.38 279.41 287.14 269.23 273.45 269.97 268 275.47 266.65 279.53 268.67 298.53 271.39 305.95 275.63 328.88 266.36"/><polygon id="Maine-et-Loire" class="cls-3" points="320.48 384.41 319.85 396.55 314.03 409.64 306.33 416.59 286.82 415.33 283.73 420.35 271.46 417.75 262.01 415.75 257.7 395.77 269.83 394.1 269.83 386.86 259.12 368.6 285.79 372.68 295.71 371.37 320.48 384.41"/><polygon id="Gironde" class="cls-3" points="319.94 558.03 317.85 562.82 310.95 565.49 310.15 567.66 313.49 570.07 305.81 587.84 302.04 595.28 297.46 597.15 292.97 598.98 286.7 597.58 285.25 591.85 273.78 580.62 259.47 583.06 259.42 578.5 255.78 575.92 247.02 579.49 247.25 577.25 251.13 572.94 258.88 572.94 259.39 569.35 252.47 560.93 247.02 567.7 255.15 511.09 257.52 510.18 258.74 516.03 269.83 523.5 274.65 540.17 276.14 537.7 273.93 526 287.39 529 288.21 536 304.3 540.15 309.77 542.67 307.03 556.74 314.39 559.57 317.18 556.23 319.94 558.03"/><polygon id="Deux-Sèvres" class="cls-2" points="318.8 474.85 318.04 477.02 314.03 478.48 307.7 480.78 305.09 485.54 301.42 484.29 300.81 481.63 278.57 471.18 276.14 463.9 285.79 458.9 281.37 437.07 271.46 417.75 283.73 420.35 286.82 415.33 306.33 416.59 311.09 429.79 310.15 462.65 315.08 462.2 316.48 466.73 314.03 471.57 318.8 474.85"/><polygon id="Mayenne" class="cls-6" points="305.81 320.68 312.42 331.98 307.75 335.83 307.52 343.4 296.48 363.21 295.71 371.37 285.79 372.68 259.12 368.6 264.35 356 269.83 354.53 267.55 338.5 269.79 333.94 268.18 321.67 273.54 322.81 276.21 322.25 282.11 327.49 293.53 323.42 305.81 320.68"/><polygon id="Charente-Maritime" class="cls-6" points="308.37 533.98 304.3 540.15 288.21 536 287.39 529 273.93 526 272.34 517.6 252.45 502.22 250.91 489.55 245.9 485.78 246.41 478.12 254.63 488.49 258.57 490.49 261.51 479.55 237.71 465.73 242.7 462.65 255.24 470.31 257.61 463.81 264.34 459.81 276.14 463.9 278.57 471.18 300.81 481.63 301.42 484.29 305.09 485.54 301.43 497.58 288.52 498.62 289.32 506.31 295.71 513.71 293.81 523.71 308.37 533.98"/><polygon id="Tarn-et-Garonne" class="cls-2" points="388.51 607.33 393.3 603.82 390.42 591.92 384.35 593.73 377.87 598.98 368.14 599.65 359.84 596 353.9 589.34 349.06 590.17 345.63 588.66 344.2 593.17 346.6 595.82 345.02 604.15 335.08 610.62 347.32 625.39 347.32 625.39 347.32 625.39 357.41 625.13 359.56 627.75 365.93 624.23 365.86 622.44 365.79 620.65 374.77 620.2 380.94 613.28 380.4 610.61 380.4 610.61 380.06 608.89 388.51 607.33"/><polygon id="Aude" class="cls-4" points="407.73 649 405.53 653.02 396.2 650.31 390.68 651.94 388.51 648.99 386.03 651.9 383.5 655.59 378.72 661.41 391.48 669.61 393.92 685.38 388.52 686.93 386.97 689.09 394.03 695.03 398.08 692.89 402.97 698.83 411.5 694.28 409.81 688.23 430.59 688.41 435.02 683.08 443.36 687.95 443.56 675.34 438.75 672.25 440.53 669.4 444.74 672.52 450.05 665.87 435.63 656.91 432.62 660.85 429.17 663.02 423.72 659.79 420.19 655.21 421.29 650.28 407.73 649"/><polygon id="Pyrénées-Orientales" class="cls-2" points="430.59 688.41 409.81 688.23 411.5 694.28 402.97 698.83 380.94 705.78 384.03 710.69 391.11 713.02 391.28 716.94 397.39 719.62 401.18 715.85 405.78 715.79 417.11 723.44 425.2 723.44 434.24 713.99 441.02 712.43 444.4 715.22 448.48 716.47 448.51 710.66 444.4 706.16 443.36 687.95 435.02 683.08 430.59 688.41"/><polygon id="Tarn" class="cls-4" points="374.77 620.2 396.3 646.07 396.2 650.31 405.53 653.02 407.73 649 421.29 650.28 425.99 648.85 427.29 644.83 423.91 641.68 426.73 635.86 429.8 638.02 439.16 634.8 435.08 630.17 425.94 629.89 418.81 613.28 402.42 602.33 393.3 603.82 388.51 607.33 380.06 608.89 380.4 610.61 380.94 613.28 374.77 620.2"/><polygon id="Ariège" class="cls-5" points="398.08 692.89 394.03 695.03 386.97 689.09 388.52 686.93 393.92 685.38 391.48 669.61 378.72 661.41 370.79 659.34 364.29 657.5 362.27 659.65 365.81 663.08 360.81 671.13 354.66 668.14 347.53 671.02 348.49 676.98 340.88 682.28 340.88 688.97 350.58 692.88 354.25 699.44 362.21 699.44 367.34 703.33 378.72 702.11 380.94 705.78 402.97 698.83 398.08 692.89"/><polygon id="Haute-Garonne" class="cls-5" points="348.49 676.98 347.53 671.02 354.66 668.14 360.81 671.13 365.81 663.08 362.27 659.65 364.29 657.5 370.79 659.34 378.72 661.41 383.5 655.59 386.03 651.9 388.51 648.99 390.68 651.94 396.2 650.31 396.3 646.07 374.77 620.2 365.79 620.65 365.93 624.23 359.56 627.75 357.41 625.13 347.32 625.39 358.11 638.42 352.5 642.75 347.86 653.4 343.28 651.07 337.37 650.54 331.18 656.83 323.34 668.64 330.78 680.19 326.77 685.31 321.89 683.08 322.77 694.95 319.94 695.63 331.68 696.74 332.23 685.98 340.88 688.97 340.88 682.28 348.49 676.98"/><polygon id="Gers" class="cls-2" points="305.09 617.62 302.23 612.96 291.25 616.58 294.9 622.11 291.51 637.25 297.25 638.08 302.8 636.97 307.73 642.54 310.63 650.7 331.18 656.83 337.37 650.54 343.28 651.07 347.86 653.4 352.5 642.75 358.11 638.42 347.32 625.39 342.19 619.2 335.08 610.62 331.82 607.33 325.26 607.9 323.48 610.97 306.8 611.42 306.79 617.17 305.09 617.62"/><polygon id="Hautes-Pyrénées" class="cls-5" points="321.89 683.08 326.77 685.31 330.78 680.19 323.34 668.64 331.18 656.83 310.63 650.7 307.73 642.54 302.8 636.97 297.25 638.08 303.19 653.05 288.38 671.99 285.82 684.72 292.78 689.45 298.8 695.79 307.85 692.79 313.75 697.11 319.94 695.63 322.77 694.95 321.89 683.08"/><polygon id="Landes" class="cls-2" points="291.51 637.25 294.9 622.11 291.25 616.58 302.23 612.96 305.09 617.62 306.79 617.17 306.8 611.42 308.65 603.32 298.75 602.25 297.46 597.15 292.97 598.98 286.7 597.58 285.25 591.85 273.78 580.62 259.47 583.06 259.42 578.5 255.78 575.92 247.02 579.49 234.8 632.18 231.49 637.76 239.06 640.86 291.51 637.25"/><polygon id="Pyrénées-Atlantiques" class="cls-5" points="216.15 647.36 216.15 651.26 235.2 657.5 234.56 664.13 231.77 665.66 237.71 672.12 239.84 667.21 258.23 677.05 265.49 677.12 265.91 681.7 273.04 687.95 285.82 684.72 288.38 671.99 303.19 653.05 297.25 638.08 291.51 637.25 239.06 640.86 231.49 637.76 225.47 645.45 225.47 645.45 216.15 647.36"/><polygon id="Vendée" class="cls-4" points="281.37 437.07 285.79 458.9 276.14 463.9 264.34 459.81 257.61 463.81 228.69 448.85 216.19 427.72 216.31 422.47 223.58 413.73 235.94 424.53 245.16 424.44 242.87 416.98 246.32 415.4 247.87 421.93 256.98 413.67 262.01 415.75 271.46 417.75 281.37 437.07"/><polygon id="Manche" class="cls-3" points="279.89 307.89 283.54 311.95 280.49 321.35 276.21 322.25 273.54 322.81 268.18 321.67 263.48 320.68 256.3 325.27 250.84 321.51 248.94 314.55 255.26 312.38 247.25 302.28 250.14 296.63 247.68 277.34 239.63 262.83 239.62 248.93 235.02 245.32 235.91 243.42 248.66 249.59 253.16 247.44 264.32 247.44 266.28 253.27 262.08 256.44 269.97 268 269.23 273.45 279.41 287.14 267.55 300.38 271.68 305.68 279.89 307.89"/><polygon id="Loire-Atlantique" class="cls-3" points="269.83 386.86 269.83 394.1 257.7 395.77 262.01 415.75 256.98 413.67 247.87 421.93 246.32 415.4 242.87 416.98 245.16 424.44 235.94 424.53 223.58 413.73 218.31 409.63 211.57 408.36 214.15 405.49 214.15 399.45 199.3 396.94 204.03 386.76 222.08 381.7 223.65 374.89 240.5 372.07 249.8 364.42 259.12 368.6 269.83 386.86"/><polygon id="Ille-et-Vilaine" class="cls-4" points="267.55 338.5 269.83 354.53 264.35 356 259.12 368.6 249.8 364.42 240.5 372.07 223.65 374.89 220.7 367.69 225.45 361.86 221.71 352.32 214.61 352.32 217.85 344.31 221.46 335.38 231.29 334.1 233.57 320.17 230.46 315.94 229.53 310.64 231.65 308.27 236.9 308.53 238.18 314.46 248.94 314.55 250.84 321.51 256.3 325.27 263.48 320.68 268.18 321.67 269.79 333.94 267.55 338.5"/><polygon id="Côtes-d_Armor" data-name="Côtes-d&apos;Armor" class="cls-3" points="230.46 315.94 233.57 320.17 231.29 334.1 221.46 335.38 217.85 344.31 213.58 343.98 208.17 340.5 202.98 345.59 183.17 336.81 176.99 340.5 163.87 335.38 161 308.27 161.73 303.99 163.14 295.83 186.01 294.54 194.61 312.13 199.18 315.94 215.58 308.96 229.53 310.64 230.46 315.94"/><polygon id="Morbihan" class="cls-4" points="221.71 352.32 225.45 361.86 220.7 367.69 223.65 374.89 222.08 381.7 204.03 386.76 190.05 383.46 176.36 376.37 161.07 363.1 162.16 358.8 167.61 356.85 168.72 352.55 157.56 348.29 154.93 339.22 163.87 335.38 176.99 340.5 183.17 336.81 202.98 345.59 208.17 340.5 213.58 343.98 217.85 344.31 214.61 352.32 221.71 352.32"/><polygon id="Finistère" class="cls-2" points="168.72 352.55 167.61 356.85 162.16 358.8 161.07 363.1 146.44 360.77 135.11 354.75 133.99 358.45 125.65 358 125.93 354.67 120.31 343.69 112.42 341.88 112.47 339 129.78 338.28 130.64 333.82 116.33 326.56 120.03 324.64 133.84 326.92 124.67 321.38 110.86 322.34 113.82 308.15 139.72 300.71 150.01 304.53 152.2 302.13 161.73 303.99 161 308.27 163.87 335.38 154.93 339.22 157.56 348.29 168.72 352.55"/><polygon class="cls-2" points="419.73 521.31 420.35 525.5 416.83 527.02 412.69 523.48 405.58 535.89 404.17 545.09 399.87 551.99 386.53 555.28 382.27 549.08 376.73 546.54 371.38 548.77 362.21 531.13 365.84 526.67 364.19 520.12 392.01 507 392.21 505.61 405.22 503.93 409.81 507.56 419.59 503.78 418.49 510.59 419.77 515.23 419.73 521.31"/><polygon class="cls-2" points="399.87 551.99 403.43 574.3 401.25 577.22 389.3 583.79 390.42 591.92 384.35 593.73 377.87 598.98 368.14 599.65 359.84 596 353.9 589.34 350.04 577.92 354.42 577.74 355.54 574.87 371.93 554.87 371.38 548.77 376.73 546.54 382.27 549.08 386.53 555.28 399.87 551.99"/><polygon id="Loiret" class="cls-2" points="438.71 346.68 447.32 361.07 441.19 366.93 442.69 372.41 438.71 374.89 435.2 374.55 439.93 386.86 435.54 388.11 436.29 390.7 428.01 392.5 409.81 381.17 407.82 379.93 391.31 381.5 386.62 377.05 379.89 373.7 377.7 359.56 382.75 354.56 387.44 355.69 392.63 354.33 397.42 347.92 398.08 340.5 416.23 339.78 417.07 339.79 417.06 341.05 421.02 344.45 417.67 350.54 419.62 352.32 433.65 350.9 438.71 346.68"/><polygon id="Royaume-Uni" class="cls-7" points="208.78 6.52 198.88 8.42 168.87 10.35 155.63 23.6 140.08 35.31 143.81 37.24 162.6 32.64 164.91 57.33 160.39 73.51 123.66 83.24 111.2 92.36 113.11 103.38 122.15 111.78 145.07 105.57 151.23 118.76 168.32 115.2 172.15 125.14 192.98 130.72 200.59 123.17 226.24 111.31 204.15 130.72 199.63 143.44 175.18 140.66 150.42 141.32 135.37 158.42 110.85 186.48 82.69 202.69 104.21 212.7 123.5 193.27 143.39 194.13 167.91 208.94 180.69 185.5 207.14 185.5 214.54 186.67 233.72 182.58 266.73 174.63 284.96 177.95 328.93 182.18 357.39 170.94 376.48 156.44 379.55 140.93 353.31 142.32 336.71 136.43 357.75 128.97 360.04 119.11 370.15 113.66 385.86 97.45 388.09 85.82 393.03 63.09 378.02 45.61 358.83 42.52 346.74 40.13 339.77 52.6 329.63 44.8 325.07 44.61 339.91 27.63 334.87 14.96 324.67 1.5 208.98 1.5 208.78 6.52"/><polygon id="Irlande" class="cls-8" points="0.5 77.02 18.38 70.28 42.2 67.37 53.36 63.45 71.94 67.9 90.74 23.95 91.64 8.23 88.27 5.22 85.22 0.5 0.5 0.5 0.5 77.02"/><polygon id="Espagne" class="cls-9" points="441.02 712.43 434.24 715.02 425.2 725.5 417.11 725.5 405.78 716.82 401.18 716.36 397.39 719.88 391.28 717.07 391.25 713.29 384.03 710.73 372.26 714.73 367.29 707.96 367.34 704.37 362.21 701.5 354.25 701.5 350.58 693.91 340.88 689.49 332.23 686.24 331.82 696.93 320.09 695.73 313.89 697.26 308 692.81 298.95 695.83 292.92 689.47 285.96 684.73 273.18 688.73 273.18 689.5 273.17 689.5 272.53 688.16 266.03 682.09 265.6 677.31 265.6 677.31 262.9 677.19 262.68 677.14 258.3 677.07 239.84 667.22 237.71 672.12 231.77 665.66 234.56 664.14 234.38 657.5 214.5 651.26 214.5 647.36 202.32 651.02 185.84 647.78 171.51 639.68 158.81 647.2 140.4 635.99 122.89 632.3 106.43 637.26 62.99 629.89 47.41 621.54 22.65 617.04 -0.5 616.66 -0.5 801.5 368.33 801.5 391.25 793.18 450.61 751.5 446.84 730.68 454.2 728.1 448.48 716.53 444.4 715.25 441.02 712.43"/><polygon id="Allemagne" class="cls-9" points="606.53 20.55 606.53 20.55 604.2 55.23 603.26 56.48 600.77 59.79 600.5 59.78 600.49 59.8 590.91 59.18 588.08 69.91 599.29 70.48 599.66 72.14 602.61 85.19 589.2 96.42 593.63 104.88 577.19 111.78 577.19 111.78 577.19 111.78 568.39 107.85 560.56 112.37 575.78 138.98 574.3 142.74 572.79 146.56 566.78 161.82 567.35 173.86 567.35 173.86 564.52 180.9 574.56 191.72 574.56 191.72 574.29 192.42 572.9 196.04 578.58 199.69 580.63 207.08 570.61 220.18 568.29 227.7 574.62 235.42 587.65 240.29 589 247.2 581.07 258.38 582.11 262.62 590.05 265.88 597.29 281.2 601.31 280.79 602.28 277.84 606.38 277.79 612.68 282.63 620.11 282.48 623.21 279.67 628.85 279.86 635.84 286.54 648.87 285.82 661.2 290.93 650.55 307.94 644.84 312.02 642.01 334.35 636.18 345.48 638.54 355.55 633.59 373.24 637.91 380.07 635.43 387.73 638.05 383.54 655.5 382.76 666.06 377.66 676.97 380.16 677.91 377.92 678.04 377.59 683.85 375.33 676.4 373.54 674.36 371.6 680.24 366.22 686.29 365.09 691.85 370.01 698.13 373.02 705.61 371.53 715.99 372.68 730.86 377.23 732 373.58 746.5 385.99 746.5 388.34 746.5 391.85 761.04 381.83 762.25 373.32 767.66 373.19 767.5 373.19 767.5 1.5 604.54 1.5 595.56 12.77 595.78 12.59 606.53 20.55"/><polygon id="Italie" class="cls-9" points="767.5 422.05 752.88 435.43 751.07 453.56 717.55 449.66 695.38 472.35 682.42 464.31 681.56 450.47 666.67 464.23 670.18 469.35 657.09 487.27 646.25 483.64 634.62 489.74 623.75 491.15 621.94 490.63 619.72 488.63 619.59 490.5 612.1 493.5 610.36 495.53 629.18 520.14 629.18 520.14 629.18 520.14 626.47 530.84 616.56 538.43 605.16 539.56 611.81 552.61 622.72 555.28 626.6 564.05 626.6 564.05 622.45 567.9 622.72 568.2 622.89 574.64 618.98 578.47 617.98 579.45 619.18 587.36 638.35 600.6 655.22 596.78 656.45 609.72 656.45 609.72 651.6 611.22 651.09 622.38 657.78 624.44 676.3 617.43 691.85 592.5 704.41 580.22 731.61 586.39 766.96 601.83 767.5 603.34 767.5 422.05"/><polygon id="Autriche" class="cls-8" points="762.63 373.32 761.54 381.83 747.5 391.85 747.5 388.34 747.5 385.99 732.5 373.58 730.74 377.23 715.89 372.68 724.5 379.4 728.78 382.61 730.57 387.96 724.92 397.94 738.41 399.99 741.87 412.59 750.62 421.71 760.89 414.5 768.29 414.5 768.5 414.5 768.5 373.19 768.38 373.19 762.63 373.32"/><polygon id="Liechtenstein" class="cls-8" points="741.88 412.59 738.41 399.99 724.93 397.94 727.43 409.62 741.88 412.59"/><polygon id="Pays-Bas" class="cls-7" points="491.69 143.68 504.52 137.27 513.8 140.15 525.15 137.27 532.15 149.34 540.87 148.06 540.87 148.06 540.87 148.06 557.28 156.09 551.97 181.82 564.52 180.9 564.52 180.9 564.52 180.9 564.52 180.9 567.35 173.86 567.35 173.86 566.78 161.82 572.79 146.56 574.3 142.74 575.78 138.98 560.56 112.37 568.39 107.85 568.39 107.85 577.19 111.78 577.19 111.78 593.63 104.88 589.2 96.42 602.61 85.19 599.66 72.14 599.29 70.48 588.08 69.91 590.91 59.18 590.91 59.17 600.5 59.78 600.77 59.79 603.26 56.48 604.2 55.23 606.53 20.55 606.53 20.55 595.78 12.24 595.56 12.07 595.1 11.72 591.98 9.31 582.27 10.04 561.13 13.52 540.23 21.98 535.25 34.59 518.78 47.29 515.81 42.52 510.04 41.49 501.84 83.24 487.91 103.32 472.47 120.17 459.43 133.26 463.47 140.68 479.98 144.55 491.69 143.68"/><polygon id="Belgique" class="cls-10" points="425.19 177.25 429.56 179.67 431.71 182.1 434.08 186.72 439.36 183.5 447.68 181.57 451.6 186.44 452.59 198.03 457.15 200.03 461.41 198.13 469.18 203.66 468.76 211.32 470.3 211.34 471.62 209.18 483.88 208.62 491.71 215.9 492.06 227.75 487.71 230.96 488.2 232.51 492.65 232.55 499.88 235.03 509.97 231.52 514.23 222.5 518.46 222.5 518.83 244.53 536.89 251.55 538.8 256.68 544.02 260.37 557.19 257.92 561.11 255.58 560.64 252.92 554.26 236.1 565.49 217.19 570.61 220.18 580.63 207.08 578.58 199.69 572.89 196.04 574.29 192.42 574.56 191.72 564.52 180.9 564.52 180.9 551.97 181.82 551.97 181.82 557.28 156.09 540.87 148.06 540.87 148.06 532.15 149.34 525.15 137.27 513.8 140.15 504.52 137.27 491.69 143.68 479.98 144.55 463.47 140.68 449.11 144.3 417.5 160.09 417.5 163.17 422.22 162.1 426.37 171.13 425.19 177.25"/><polygon id="Luxembourg" class="cls-7" points="589 247.2 587.65 240.29 574.62 235.42 568.29 227.7 570.61 220.18 565.49 217.19 554.26 236.09 560.64 252.9 561.11 255.56 557.19 257.87 563.88 262.79 572.76 260.39 576.22 260.2 582.11 262.62 581.07 258.38 589 247.2"/><polygon id="Suisse" class="cls-7" points="760.89 415.5 750.62 422.21 741.88 412.98 727.43 409.82 724.93 398.07 730.59 388.03 728.8 382.64 724.55 379.42 715.99 372.68 705.61 371.54 698.13 373.02 691.85 370.01 686.29 365.09 680.24 366.22 674.36 371.6 676.4 373.53 683.85 375.32 678.04 377.59 677.91 377.9 676.97 380.13 666.06 377.66 655.5 382.76 638.05 384.32 635.08 389.5 634.69 389.5 631.37 392.01 622.72 391.57 620.24 387.74 619.63 387.95 614.25 388.87 616.5 396.12 616.5 396.13 616.5 396.13 617.24 396.13 617.61 396.13 601.05 418.01 599.74 419.83 591.24 424.84 592.3 436.5 592.29 436.5 592.29 436.5 578.45 449.49 577.29 458.27 582.07 459.73 579.25 468.39 572.68 470.35 572.76 474.54 579.86 474.61 587.12 469.18 584.52 465.25 584.53 465.24 584.52 465.24 588.68 459.62 591.38 461.48 607.82 457.55 611.9 467.65 611.9 467.65 611.9 467.65 609.47 470.25 620.08 483.48 619.84 487.67 619.72 488.63 621.94 490.63 623.75 491.15 634.62 489.74 646.25 483.64 657.09 487.27 657.1 487.27 670.18 469.35 666.68 464.23 681.58 450.47 682.47 464.31 695.47 472.35 717.71 449.66 751.44 453.56 752.88 435.43 767.5 422.05 767.5 415.5 768.29 415.5 760.89 415.5"/><polygon id="France" class="cls-9" points="732.87 653.34 725.62 653.57 723.15 658.97 708.88 664.52 703.73 677.41 701.95 679.81 707.84 683.58 708.07 685.32 702.35 686.61 703.83 693.85 710.36 695.86 710.79 699.82 706.37 704.37 706.97 708.3 713.43 708.88 715.05 713 710.63 718.85 722.2 720.69 715.59 727.9 721.68 732.75 731.26 735.67 734.02 738.85 739.55 740.36 744.73 724.85 745.91 713.47 745.24 707.02 745.15 700.54 750.47 693.15 750.57 680.89 748.44 676.7 747.88 663.56 743.54 658.93 743.16 650.81 744.53 647.1 741.78 636.35 739.79 632.82 735.61 636.09 737.5 649.24 736.12 655.12 732.87 653.34"/><polygon id="Andorre" class="cls-9" points="372.26 714.71 384.03 710.69 378.72 702.11 367.34 703.33 367.29 707.95 372.26 714.71"/><polygon id="Monaco" class="cls-9" points="633.22 638.22 633.22 638.22 642.16 638.48 638.54 631.04 633.49 631.42 633.22 638.22"/><rect class="cls-6" x="0.5" y="411.53" width="169.71" height="159.94"/><path d="M18.66,429.46h3.79a5.1,5.1,0,0,1,2,.38A4.25,4.25,0,0,1,26,430.9a4.59,4.59,0,0,1,1,1.64,6.13,6.13,0,0,1,.35,2.1,6.2,6.2,0,0,1-.35,2.12,4.59,4.59,0,0,1-1,1.64,4.35,4.35,0,0,1-1.53,1.05,5.1,5.1,0,0,1-2,.37H18.66Zm3.79,9a3,3,0,0,0,1.29-.27,2.75,2.75,0,0,0,1-.78,3.65,3.65,0,0,0,.66-1.2,4.84,4.84,0,0,0,.24-1.57,4.71,4.71,0,0,0-.24-1.55,3.65,3.65,0,0,0-.66-1.2,3,3,0,0,0-1-.79,3,3,0,0,0-1.3-.28H20.29v7.64Z"/><path d="M35.76,437.26a3.3,3.3,0,0,1-.28,1.09,2.6,2.6,0,0,1-.66.85,3.18,3.18,0,0,1-1,.56,4.05,4.05,0,0,1-1.31.2,4,4,0,0,1-1.59-.28,2.82,2.82,0,0,1-1.09-.79,3.31,3.31,0,0,1-.64-1.22,6.07,6.07,0,0,1-.2-1.59,5.25,5.25,0,0,1,.22-1.58,3.29,3.29,0,0,1,.65-1.23,3.07,3.07,0,0,1,1.1-.8,3.94,3.94,0,0,1,1.53-.28,3.81,3.81,0,0,1,1.51.27,2.61,2.61,0,0,1,1,.77,3.22,3.22,0,0,1,.58,1.22,6.69,6.69,0,0,1,.18,1.62v.24H30.49a2.94,2.94,0,0,0,.54,1.84,1.73,1.73,0,0,0,1.39.61,2,2,0,0,0,1.28-.39,1.58,1.58,0,0,0,.57-1.11Zm-1.47-1.93a2.25,2.25,0,0,0-.49-1.41,1.6,1.6,0,0,0-1.32-.55,1.89,1.89,0,0,0-1.35.48,2.36,2.36,0,0,0-.61,1.48Zm-1-5.87H35.1l-2.08,2H31.85Z"/><path d="M37.88,432.33h1.49v1.16h0a3,3,0,0,1,.92-.94,2.74,2.74,0,0,1,1.49-.36,3,3,0,0,1,1.39.3,2.79,2.79,0,0,1,1,.8,3.76,3.76,0,0,1,.6,1.22,6.12,6.12,0,0,1,0,3.14,3.91,3.91,0,0,1-.63,1.24,2.66,2.66,0,0,1-1,.79,3.12,3.12,0,0,1-1.36.28,2.65,2.65,0,0,1-1.46-.36,3,3,0,0,1-.94-1h0v3.93H37.88Zm3.51,6.49a1.84,1.84,0,0,0,1.52-.71,3.18,3.18,0,0,0,.56-2,3.29,3.29,0,0,0-.54-2,1.82,1.82,0,0,0-1.55-.72,1.7,1.7,0,0,0-1.54.73,3.65,3.65,0,0,0-.48,2,3.51,3.51,0,0,0,.49,2A1.74,1.74,0,0,0,41.39,438.82Z"/><path d="M51.29,438.77h0a2.79,2.79,0,0,1-1,.86,3.45,3.45,0,0,1-1.58.33,3,3,0,0,1-1-.16,2,2,0,0,1-.73-.42,1.71,1.71,0,0,1-.44-.63,2,2,0,0,1-.15-.77,2,2,0,0,1,.36-1.27,2.31,2.31,0,0,1,.92-.67,4.58,4.58,0,0,1,1.21-.33l1.24-.2.67-.12a1.61,1.61,0,0,0,.38-.14.42.42,0,0,0,.18-.22,1.32,1.32,0,0,0,0-.32,1.27,1.27,0,0,0-.39-1,1.64,1.64,0,0,0-1.15-.37,1.85,1.85,0,0,0-1.17.33,1.48,1.48,0,0,0-.49,1.07H46.65a2.92,2.92,0,0,1,.84-1.9,3.18,3.18,0,0,1,2.27-.69,2.63,2.63,0,0,1,3,3v4.63H51.29Zm0-2.6a10.61,10.61,0,0,1-1.2.24,11.09,11.09,0,0,0-1.14.21,2.26,2.26,0,0,0-.84.39.85.85,0,0,0-.33.73.92.92,0,0,0,.37.78,1.49,1.49,0,0,0,1,.3,2.75,2.75,0,0,0,.88-.14,2.36,2.36,0,0,0,.69-.4,1.91,1.91,0,0,0,.45-.63,2,2,0,0,0,.16-.82Z"/><path d="M55.07,432.33h1.5v1.16h0a2.85,2.85,0,0,1,.86-.95,2.1,2.1,0,0,1,1.23-.35h.22l.21,0v1.56a1.77,1.77,0,0,0-.29-.07,2.07,2.07,0,0,0-.35,0,1.88,1.88,0,0,0-1.39.53,2.06,2.06,0,0,0-.52,1.5v4.1h-1.5Z"/><path d="M60.73,433.57h-1v-1.24h1V430.4h1.49v1.93H64v1.24H62.22v3.93a1.1,1.1,0,0,0,.27.83,1.13,1.13,0,0,0,.8.26l.35,0,.38-.05v1.33l-.46.07a3,3,0,0,1-.54,0,2.38,2.38,0,0,1-1.68-.56,2.35,2.35,0,0,1-.61-1.82Z"/><path d="M66.57,437.38a1.4,1.4,0,0,0,.56,1.14,2.25,2.25,0,0,0,1.23.31,1.8,1.8,0,0,0,1-.25.87.87,0,0,0,.36-.76.74.74,0,0,0-.32-.66,2.7,2.7,0,0,0-.82-.35l-1.06-.24a5.23,5.23,0,0,1-1.06-.33,2.23,2.23,0,0,1-.82-.64,1.79,1.79,0,0,1-.32-1.15,2.17,2.17,0,0,1,.17-.89,1.88,1.88,0,0,1,.53-.72,2.41,2.41,0,0,1,.87-.47,3.8,3.8,0,0,1,1.23-.18,3.19,3.19,0,0,1,2.13.65,2.48,2.48,0,0,1,.82,1.89H69.66a1.45,1.45,0,0,0-.44-1.06,1.58,1.58,0,0,0-1.06-.33,2.22,2.22,0,0,0-.62.08,1.11,1.11,0,0,0-.4.23.84.84,0,0,0-.21.33,1.24,1.24,0,0,0-.06.37.69.69,0,0,0,.33.62,3,3,0,0,0,.81.34c.32.09.67.17,1.06.25a4.8,4.8,0,0,1,1.05.35,2.14,2.14,0,0,1,.81.65,1.88,1.88,0,0,1,.33,1.16,2,2,0,0,1-.73,1.63,3.35,3.35,0,0,1-2.19.61,3.85,3.85,0,0,1-2.32-.62,2.46,2.46,0,0,1-.9-2Z"/><path d="M83.7,437.26a3.08,3.08,0,0,1-.28,1.09,2.6,2.6,0,0,1-.66.85,3.18,3.18,0,0,1-1,.56,4.05,4.05,0,0,1-1.31.2,4,4,0,0,1-1.59-.28,2.82,2.82,0,0,1-1.09-.79,3.31,3.31,0,0,1-.64-1.22,6.07,6.07,0,0,1-.2-1.59,5.25,5.25,0,0,1,.22-1.58,3.29,3.29,0,0,1,.65-1.23,3.07,3.07,0,0,1,1.1-.8,3.94,3.94,0,0,1,1.53-.28,3.81,3.81,0,0,1,1.51.27,2.61,2.61,0,0,1,1,.77,3.22,3.22,0,0,1,.58,1.22,6.69,6.69,0,0,1,.18,1.62v.24H78.43a2.94,2.94,0,0,0,.54,1.84,1.73,1.73,0,0,0,1.39.61,2,2,0,0,0,1.27-.39,1.55,1.55,0,0,0,.58-1.11Zm-1.47-1.93a2.25,2.25,0,0,0-.49-1.41,1.6,1.6,0,0,0-1.32-.55,1.85,1.85,0,0,0-1.34.48,2.31,2.31,0,0,0-.62,1.48Z"/><path d="M85.86,433.57h-1v-1.24h1V430.4h1.49v1.93H89.1v1.24H87.35v3.93a.94.94,0,0,0,1.07,1.09l.35,0,.38-.05v1.33l-.46.07a3,3,0,0,1-.54,0,2.43,2.43,0,0,1-1.69-.56,2.39,2.39,0,0,1-.6-1.82Z"/><path d="M99.28,438.77h0a2.79,2.79,0,0,1-1,.86,3.49,3.49,0,0,1-1.59.33,3,3,0,0,1-1-.16,2,2,0,0,1-.73-.42,1.6,1.6,0,0,1-.44-.63,2,2,0,0,1-.15-.77,2,2,0,0,1,.36-1.27,2.31,2.31,0,0,1,.92-.67,4.58,4.58,0,0,1,1.21-.33l1.23-.2.67-.12a1.55,1.55,0,0,0,.39-.14.36.36,0,0,0,.17-.22.93.93,0,0,0,0-.32,1.27,1.27,0,0,0-.39-1,1.64,1.64,0,0,0-1.15-.37,1.85,1.85,0,0,0-1.17.33,1.48,1.48,0,0,0-.49,1.07H94.64a2.92,2.92,0,0,1,.84-1.9,3.16,3.16,0,0,1,2.27-.69,2.63,2.63,0,0,1,3,3v4.63H99.28Zm0-2.6a10.61,10.61,0,0,1-1.2.24,11.09,11.09,0,0,0-1.14.21,2.39,2.39,0,0,0-.85.39.84.84,0,0,0-.32.73.92.92,0,0,0,.37.78,1.49,1.49,0,0,0,1,.3,2.65,2.65,0,0,0,.87-.14,2.12,2.12,0,0,0,.69-.4,1.8,1.8,0,0,0,.46-.63,2,2,0,0,0,.16-.82Z"/><path d="M103.06,432.33h1.5v1.16h0a2.85,2.85,0,0,1,.86-.95,2.1,2.1,0,0,1,1.23-.35h.21l.22,0v1.56a1.77,1.77,0,0,0-.29-.07,2.07,2.07,0,0,0-.35,0,1.88,1.88,0,0,0-1.39.53,2.06,2.06,0,0,0-.52,1.5v4.1h-1.5Z"/><path d="M108.67,432.33h1.5v1.16h0a2.85,2.85,0,0,1,.86-.95,2.1,2.1,0,0,1,1.23-.35h.22l.21,0v1.56a1.77,1.77,0,0,0-.29-.07,2.07,2.07,0,0,0-.35,0,1.88,1.88,0,0,0-1.39.53,2.1,2.1,0,0,0-.52,1.5v4.1h-1.5Z"/><path d="M115,431a.92.92,0,0,1-1-.95,1,1,0,0,1,.25-.7.94.94,0,0,1,.7-.27.94.94,0,0,1,1,1,.91.91,0,0,1-.28.67A.94.94,0,0,1,115,431Zm-.74,1.31h1.49v7.49h-1.49Z"/><path d="M117.23,432.33h1.6l2,5.78,2-5.78h1.57l-2.87,7.49H120.1Z"/><path d="M132.2,437.26a2.88,2.88,0,0,1-.28,1.09,2.6,2.6,0,0,1-.66.85,3.13,3.13,0,0,1-1,.56,4.07,4.07,0,0,1-1.32.2,4,4,0,0,1-1.58-.28,2.82,2.82,0,0,1-1.09-.79,3.31,3.31,0,0,1-.64-1.22,6.07,6.07,0,0,1-.2-1.59,5.25,5.25,0,0,1,.22-1.58,3.29,3.29,0,0,1,.65-1.23,3,3,0,0,1,1.1-.8,3.94,3.94,0,0,1,1.53-.28,3.72,3.72,0,0,1,1.5.27,2.57,2.57,0,0,1,1,.77,3.22,3.22,0,0,1,.58,1.22,6.69,6.69,0,0,1,.18,1.62v.24h-5.28a2.94,2.94,0,0,0,.54,1.84,1.73,1.73,0,0,0,1.39.61,2,2,0,0,0,1.27-.39,1.55,1.55,0,0,0,.58-1.11Zm-1.47-1.93a2.18,2.18,0,0,0-.48-1.41,1.6,1.6,0,0,0-1.32-.55,1.89,1.89,0,0,0-1.35.48,2.36,2.36,0,0,0-.61,1.48Zm-1-5.87h1.83l-2.08,2h-1.18Z"/><path d="M140.64,437.26a3.08,3.08,0,0,1-.28,1.09,2.6,2.6,0,0,1-.66.85,3.13,3.13,0,0,1-1,.56,4.16,4.16,0,0,1-1.32.2,4,4,0,0,1-1.58-.28,2.85,2.85,0,0,1-1.1-.79,3.15,3.15,0,0,1-.63-1.22,5.67,5.67,0,0,1-.2-1.59,5.59,5.59,0,0,1,.21-1.58,3.17,3.17,0,0,1,.66-1.23,3,3,0,0,1,1.09-.8,4,4,0,0,1,1.54-.28,3.79,3.79,0,0,1,1.5.27,2.61,2.61,0,0,1,1,.77,3.08,3.08,0,0,1,.58,1.22,6.69,6.69,0,0,1,.18,1.62v.24h-5.27a2.88,2.88,0,0,0,.53,1.84,1.75,1.75,0,0,0,1.39.61,2,2,0,0,0,1.28-.39,1.59,1.59,0,0,0,.58-1.11Zm-1.47-1.93a2.3,2.3,0,0,0-.48-1.41,1.62,1.62,0,0,0-1.32-.55,1.87,1.87,0,0,0-1.35.48,2.36,2.36,0,0,0-.62,1.48Z"/><path d="M143.7,437.38a1.38,1.38,0,0,0,.56,1.14,2.2,2.2,0,0,0,1.23.31,1.78,1.78,0,0,0,1-.25.85.85,0,0,0,.37-.76.75.75,0,0,0-.33-.66,2.7,2.7,0,0,0-.82-.35l-1.05-.24a5,5,0,0,1-1.06-.33,2.15,2.15,0,0,1-.82-.64,1.79,1.79,0,0,1-.33-1.15,2.35,2.35,0,0,1,.17-.89,1.88,1.88,0,0,1,.53-.72,2.5,2.5,0,0,1,.87-.47,3.8,3.8,0,0,1,1.23-.18,3.22,3.22,0,0,1,2.14.65,2.44,2.44,0,0,1,.81,1.89h-1.45a1.41,1.41,0,0,0-.44-1.06,1.58,1.58,0,0,0-1.06-.33,2.1,2.1,0,0,0-.61.08,1,1,0,0,0-.4.23,1,1,0,0,0-.22.33,1.24,1.24,0,0,0-.06.37.69.69,0,0,0,.33.62,3,3,0,0,0,.81.34c.33.09.68.17,1.06.25a5.07,5.07,0,0,1,1.06.35,2.22,2.22,0,0,1,.81.65,1.88,1.88,0,0,1,.32,1.16,2,2,0,0,1-.73,1.63,3.35,3.35,0,0,1-2.19.61,3.8,3.8,0,0,1-2.31-.62,2.44,2.44,0,0,1-.91-2Z"/><path d="M18.59,450.33h1.5v1.16h0a2.85,2.85,0,0,1,.92-.94,2.72,2.72,0,0,1,1.49-.36,3,3,0,0,1,1.39.3,2.85,2.85,0,0,1,1,.8,3.58,3.58,0,0,1,.61,1.22,6,6,0,0,1,.2,1.56,5.2,5.2,0,0,1-.22,1.58,3.7,3.7,0,0,1-.62,1.24,2.75,2.75,0,0,1-1,.79,3.13,3.13,0,0,1-1.37.28,2.7,2.7,0,0,1-1.46-.36,2.82,2.82,0,0,1-.93-1h0v3.93h-1.5Zm3.51,6.49a1.84,1.84,0,0,0,1.53-.71,3.24,3.24,0,0,0,.56-2,3.29,3.29,0,0,0-.54-2,1.84,1.84,0,0,0-1.56-.72,1.69,1.69,0,0,0-1.53.73,4.41,4.41,0,0,0,0,4A1.75,1.75,0,0,0,22.1,456.82Z"/><path d="M32,456.77h0a2.91,2.91,0,0,1-1,.86,3.42,3.42,0,0,1-1.58.33,3,3,0,0,1-1-.16,2.14,2.14,0,0,1-.74-.42,1.84,1.84,0,0,1-.44-.63A2,2,0,0,1,27,456a2,2,0,0,1,.36-1.27,2.35,2.35,0,0,1,.91-.67,4.66,4.66,0,0,1,1.22-.33l1.23-.2.67-.12a1.55,1.55,0,0,0,.39-.14A.4.4,0,0,0,32,453a1,1,0,0,0,0-.32,1.3,1.3,0,0,0-.38-1,1.66,1.66,0,0,0-1.16-.37,1.84,1.84,0,0,0-1.16.33,1.48,1.48,0,0,0-.49,1.07H27.37a2.92,2.92,0,0,1,.84-1.9,3.16,3.16,0,0,1,2.27-.69,3.1,3.1,0,0,1,2.29.75,3.1,3.1,0,0,1,.73,2.25v4.63H32Zm0-2.6a11.58,11.58,0,0,1-1.2.24,11.09,11.09,0,0,0-1.14.21,2.31,2.31,0,0,0-.85.39.85.85,0,0,0-.33.73.93.93,0,0,0,.38.78,1.45,1.45,0,0,0,1,.3,2.69,2.69,0,0,0,.87-.14,2.23,2.23,0,0,0,.69-.4,1.8,1.8,0,0,0,.46-.63,2.14,2.14,0,0,0,.16-.82Z"/><path d="M35.79,450.33h1.5v1.16h0a2.87,2.87,0,0,1,.87-.95,2.1,2.1,0,0,1,1.23-.35h.21l.22,0v1.56l-.3-.07a2,2,0,0,0-.35,0,1.85,1.85,0,0,0-1.38.53,2.06,2.06,0,0,0-.52,1.5v4.1h-1.5Z"/><path d="M50.71,456.62h0a3.17,3.17,0,0,1-.92,1,2.64,2.64,0,0,1-1.5.37,3.33,3.33,0,0,1-1.38-.28,2.77,2.77,0,0,1-1-.81,3.71,3.71,0,0,1-.6-1.23,5.74,5.74,0,0,1-.2-1.54,5.67,5.67,0,0,1,.21-1.59,3.55,3.55,0,0,1,.61-1.23,2.92,2.92,0,0,1,1-.8,3.09,3.09,0,0,1,1.36-.29,2.71,2.71,0,0,1,1.47.36,3.09,3.09,0,0,1,.93.94h0v-4h1.5v10.36h-1.5Zm-2,.2a1.71,1.71,0,0,0,1.53-.72,3.58,3.58,0,0,0,.49-2,3.46,3.46,0,0,0-.5-2,1.72,1.72,0,0,0-1.53-.72,1.82,1.82,0,0,0-1.53.72,4,4,0,0,0,0,4A1.82,1.82,0,0,0,48.71,456.82Z"/><path d="M60.93,455.26a2.88,2.88,0,0,1-.28,1.09,2.6,2.6,0,0,1-.66.85,3.13,3.13,0,0,1-1,.56,4.16,4.16,0,0,1-1.32.2,4,4,0,0,1-1.58-.28,2.82,2.82,0,0,1-1.09-.79,3.17,3.17,0,0,1-.64-1.22,6.07,6.07,0,0,1-.2-1.59,5.59,5.59,0,0,1,.21-1.58,3.46,3.46,0,0,1,.66-1.23,3,3,0,0,1,1.09-.8,4,4,0,0,1,1.54-.28,3.72,3.72,0,0,1,1.5.27,2.47,2.47,0,0,1,1,.77,3.23,3.23,0,0,1,.59,1.22,6.69,6.69,0,0,1,.18,1.62v.24H55.67a2.94,2.94,0,0,0,.54,1.84,1.72,1.72,0,0,0,1.39.61,2,2,0,0,0,1.27-.39,1.55,1.55,0,0,0,.58-1.11Zm-1.47-1.93a2.24,2.24,0,0,0-.48-1.41,1.6,1.6,0,0,0-1.32-.55,1.89,1.89,0,0,0-1.35.48,2.3,2.3,0,0,0-.61,1.48Zm-1-5.87h1.83l-2.08,2H57Z"/><path d="M63.05,450.33h1.5v1.16h0a2.85,2.85,0,0,1,.92-.94,2.72,2.72,0,0,1,1.49-.36,3,3,0,0,1,1.39.3,2.76,2.76,0,0,1,1,.8,3.58,3.58,0,0,1,.61,1.22,6,6,0,0,1,.2,1.56,5.2,5.2,0,0,1-.22,1.58,3.7,3.7,0,0,1-.62,1.24,2.75,2.75,0,0,1-1,.79A3.12,3.12,0,0,1,67,458a2.71,2.71,0,0,1-1.47-.36,2.82,2.82,0,0,1-.93-1h0v3.93h-1.5Zm3.52,6.49a1.84,1.84,0,0,0,1.52-.71,3.24,3.24,0,0,0,.56-2,3.29,3.29,0,0,0-.54-2,1.84,1.84,0,0,0-1.56-.72,1.69,1.69,0,0,0-1.53.73,3.65,3.65,0,0,0-.48,2,3.6,3.6,0,0,0,.48,2A1.76,1.76,0,0,0,66.57,456.82Z"/><path d="M76.46,456.77h0a2.75,2.75,0,0,1-1,.86,3.42,3.42,0,0,1-1.58.33,3,3,0,0,1-1-.16,2.14,2.14,0,0,1-.74-.42,1.84,1.84,0,0,1-.44-.63,2.23,2.23,0,0,1-.14-.77,2,2,0,0,1,.36-1.27,2.31,2.31,0,0,1,.92-.67,4.48,4.48,0,0,1,1.21-.33l1.23-.2.67-.12a1.55,1.55,0,0,0,.39-.14.36.36,0,0,0,.17-.22,1,1,0,0,0,0-.32,1.3,1.3,0,0,0-.38-1,1.64,1.64,0,0,0-1.15-.37,1.85,1.85,0,0,0-1.17.33,1.48,1.48,0,0,0-.49,1.07H71.83a2.92,2.92,0,0,1,.84-1.9,3.16,3.16,0,0,1,2.27-.69,3.1,3.1,0,0,1,2.29.75,3.06,3.06,0,0,1,.73,2.25v4.63h-1.5Zm0-2.6a11.07,11.07,0,0,1-1.2.24,11.09,11.09,0,0,0-1.14.21,2.31,2.31,0,0,0-.85.39.85.85,0,0,0-.33.73.93.93,0,0,0,.38.78,1.45,1.45,0,0,0,1,.3,2.65,2.65,0,0,0,.87-.14,2.12,2.12,0,0,0,.69-.4,1.8,1.8,0,0,0,.46-.63,2.14,2.14,0,0,0,.16-.82Z"/><path d="M80.25,450.33h1.5v1.16h0a2.75,2.75,0,0,1,.86-.95,2.1,2.1,0,0,1,1.23-.35h.21l.22,0v1.56a1.67,1.67,0,0,0-.3-.07,2,2,0,0,0-.34,0,1.86,1.86,0,0,0-1.39.53,2.06,2.06,0,0,0-.52,1.5v4.1h-1.5Z"/><path d="M85.9,451.57h-1v-1.24h1V448.4h1.5v1.93h1.75v1.24H87.4v3.93a.94.94,0,0,0,1.07,1.09l.35,0,.38-.05v1.33l-.47.07a2.86,2.86,0,0,1-.53,0,2.43,2.43,0,0,1-1.69-.56,2.39,2.39,0,0,1-.61-1.82Z"/><path d="M97.13,455.26a3.08,3.08,0,0,1-.28,1.09,2.6,2.6,0,0,1-.66.85,3.24,3.24,0,0,1-1,.56,4.16,4.16,0,0,1-1.32.2,4,4,0,0,1-1.58-.28,2.85,2.85,0,0,1-1.1-.79,3.15,3.15,0,0,1-.63-1.22,5.67,5.67,0,0,1-.21-1.59,5.58,5.58,0,0,1,.22-1.58,3.17,3.17,0,0,1,.66-1.23,2.94,2.94,0,0,1,1.09-.8,4,4,0,0,1,1.53-.28,3.81,3.81,0,0,1,1.51.27,2.61,2.61,0,0,1,1,.77,3.08,3.08,0,0,1,.58,1.22,6.69,6.69,0,0,1,.18,1.62v.24H91.87a2.88,2.88,0,0,0,.53,1.84,1.75,1.75,0,0,0,1.39.61,2,2,0,0,0,1.28-.39,1.59,1.59,0,0,0,.58-1.11Zm-1.47-1.93a2.3,2.3,0,0,0-.48-1.41,1.63,1.63,0,0,0-1.33-.55,1.86,1.86,0,0,0-1.34.48,2.31,2.31,0,0,0-.62,1.48Z"/><path d="M99.25,450.33h1.5v1.18h0a2.93,2.93,0,0,1,.84-1,2.29,2.29,0,0,1,1.35-.36,2.35,2.35,0,0,1,1.38.36,2.06,2.06,0,0,1,.75,1h0a2.72,2.72,0,0,1,.92-1,2.56,2.56,0,0,1,1.4-.36,2.14,2.14,0,0,1,1.79.7,3.13,3.13,0,0,1,.57,2v4.9h-1.49v-4.49a2.41,2.41,0,0,0-.32-1.41,1.14,1.14,0,0,0-1-.44,1.63,1.63,0,0,0-1.23.48,2,2,0,0,0-.48,1.47v4.39h-1.5v-4.49a2.73,2.73,0,0,0-.28-1.39,1.07,1.07,0,0,0-1-.46,1.55,1.55,0,0,0-1.28.55,2.29,2.29,0,0,0-.45,1.51v4.28h-1.5Z"/><path d="M118.48,455.26a2.88,2.88,0,0,1-.28,1.09,2.6,2.6,0,0,1-.66.85,3.13,3.13,0,0,1-1,.56,4.07,4.07,0,0,1-1.32.2,4,4,0,0,1-1.58-.28,2.82,2.82,0,0,1-1.09-.79,3.31,3.31,0,0,1-.64-1.22,6.07,6.07,0,0,1-.2-1.59,5.25,5.25,0,0,1,.22-1.58,3.29,3.29,0,0,1,.65-1.23,3.07,3.07,0,0,1,1.1-.8,3.94,3.94,0,0,1,1.53-.28,3.72,3.72,0,0,1,1.5.27,2.57,2.57,0,0,1,1,.77,3.22,3.22,0,0,1,.58,1.22,6.69,6.69,0,0,1,.18,1.62v.24h-5.28a2.94,2.94,0,0,0,.54,1.84,1.73,1.73,0,0,0,1.39.61,2,2,0,0,0,1.27-.39,1.55,1.55,0,0,0,.58-1.11ZM117,453.33a2.18,2.18,0,0,0-.48-1.41,1.6,1.6,0,0,0-1.32-.55,1.89,1.89,0,0,0-1.35.48,2.36,2.36,0,0,0-.61,1.48Z"/><path d="M120.6,450.33h1.5v1.18h0a2.82,2.82,0,0,1,.94-1,2.93,2.93,0,0,1,1.51-.35,2.25,2.25,0,0,1,1.9.72,3.19,3.19,0,0,1,.55,2v4.9h-1.5v-4.49a2.42,2.42,0,0,0-.33-1.39,1.26,1.26,0,0,0-1.12-.46,1.92,1.92,0,0,0-1.45.55,2.1,2.1,0,0,0-.53,1.51v4.28h-1.5Z"/><path d="M129.45,451.57h-1v-1.24h1V448.4H131v1.93h1.75v1.24H131v3.93a1.15,1.15,0,0,0,.26.83,1.13,1.13,0,0,0,.8.26l.36,0,.37-.05v1.33l-.46.07a2.93,2.93,0,0,1-.53,0,2.41,2.41,0,0,1-1.69-.56,2.35,2.35,0,0,1-.61-1.82Z"/><path d="M23,474.77h0a2.79,2.79,0,0,1-1,.86,3.49,3.49,0,0,1-1.59.33,3,3,0,0,1-1-.16,2,2,0,0,1-.73-.42,1.6,1.6,0,0,1-.44-.63A2,2,0,0,1,18,474a2,2,0,0,1,.36-1.27,2.31,2.31,0,0,1,.92-.67,4.58,4.58,0,0,1,1.21-.33l1.23-.2.67-.12a1.55,1.55,0,0,0,.39-.14.36.36,0,0,0,.17-.22.93.93,0,0,0,.05-.32,1.27,1.27,0,0,0-.39-1,1.64,1.64,0,0,0-1.15-.37,1.85,1.85,0,0,0-1.17.33,1.48,1.48,0,0,0-.49,1.07H18.31a2.92,2.92,0,0,1,.84-1.9,3.16,3.16,0,0,1,2.27-.69,3.08,3.08,0,0,1,2.29.75,3.06,3.06,0,0,1,.73,2.25v4.63H23Zm0-2.6a10.61,10.61,0,0,1-1.2.24,11.09,11.09,0,0,0-1.14.21,2.39,2.39,0,0,0-.85.39.84.84,0,0,0-.32.73.92.92,0,0,0,.37.78,1.49,1.49,0,0,0,1,.3,2.65,2.65,0,0,0,.87-.14,2.12,2.12,0,0,0,.69-.4,1.8,1.8,0,0,0,.46-.63,2,2,0,0,0,.16-.82Z"/><path d="M26.73,468.33h1.5v4.5a2.47,2.47,0,0,0,.31,1.38,1.18,1.18,0,0,0,1.08.46,1.75,1.75,0,0,0,1.38-.55,2.13,2.13,0,0,0,.5-1.5v-4.29H33v7.49H31.5v-1.2h0a3.07,3.07,0,0,1-.91,1,2.62,2.62,0,0,1-1.45.36,2.19,2.19,0,0,1-1.84-.71,3.24,3.24,0,0,1-.55-2Z"/><path d="M42.42,470.31,39,465.46h1.88l2.57,3.74L46,465.46h1.89l-3.48,4.87,4,5.49H46.54l-3.11-4.34-3.07,4.34H38.52Z"/><path d="M52.61,470.31l-3.42-4.85h1.88l2.57,3.74,2.58-3.74h1.89l-3.49,4.87,4,5.49H56.72l-3.11-4.34-3.06,4.34H48.7Z"/><path d="M60,465.46h1.62v10.36H60Z"/><path d="M67.31,469.67a1.67,1.67,0,0,1-.16.63,1.45,1.45,0,0,1-.39.5,1.71,1.71,0,0,1-.58.32,2.26,2.26,0,0,1-.77.12,2.33,2.33,0,0,1-.92-.16,1.67,1.67,0,0,1-.64-.46,1.89,1.89,0,0,1-.37-.72,3.31,3.31,0,0,1-.12-.92,2.92,2.92,0,0,1,.13-.92,1.91,1.91,0,0,1,.38-.72,1.75,1.75,0,0,1,.64-.46,2.21,2.21,0,0,1,.89-.17,2.1,2.1,0,0,1,.88.16,1.49,1.49,0,0,1,.6.45,1.87,1.87,0,0,1,.33.71,3.42,3.42,0,0,1,.11.94v.14H64.24a1.66,1.66,0,0,0,.32,1.07,1,1,0,0,0,.81.36,1.23,1.23,0,0,0,.74-.22,1,1,0,0,0,.34-.65Zm-.85-1.13a1.32,1.32,0,0,0-.29-.82.94.94,0,0,0-.77-.32,1.07,1.07,0,0,0-.78.28,1.32,1.32,0,0,0-.36.86Z"/><path d="M74.14,473.38a1.43,1.43,0,0,0,.56,1.14,2.25,2.25,0,0,0,1.23.31,1.8,1.8,0,0,0,1-.25.87.87,0,0,0,.36-.76.74.74,0,0,0-.32-.66,2.7,2.7,0,0,0-.82-.35l-1.06-.24a5.23,5.23,0,0,1-1.06-.33,2.23,2.23,0,0,1-.82-.64,1.85,1.85,0,0,1-.32-1.15,2.17,2.17,0,0,1,.17-.89,1.88,1.88,0,0,1,.53-.72,2.41,2.41,0,0,1,.87-.47,3.8,3.8,0,0,1,1.23-.18,3.24,3.24,0,0,1,2.14.65,2.51,2.51,0,0,1,.81,1.89H77.23a1.45,1.45,0,0,0-.44-1.06,1.58,1.58,0,0,0-1.06-.33,2.22,2.22,0,0,0-.62.08,1.11,1.11,0,0,0-.4.23,1,1,0,0,0-.21.33,1.24,1.24,0,0,0-.06.37.69.69,0,0,0,.33.62,3,3,0,0,0,.81.34c.32.09.67.17,1.06.25a4.8,4.8,0,0,1,1,.35,2.07,2.07,0,0,1,.81.65,1.88,1.88,0,0,1,.33,1.16,2,2,0,0,1-.73,1.63,3.35,3.35,0,0,1-2.19.61,3.85,3.85,0,0,1-2.32-.62,2.46,2.46,0,0,1-.9-2Z"/><path d="M81.54,467a.88.88,0,0,1-.69-.28.9.9,0,0,1-.27-.67,1,1,0,0,1,.26-.7.94.94,0,0,1,.7-.27.94.94,0,0,1,1,1,.88.88,0,0,1-.28.67A.9.9,0,0,1,81.54,467Zm-.75,1.31h1.5v7.49h-1.5Z"/><path d="M91,473.26a2.88,2.88,0,0,1-.28,1.09,2.6,2.6,0,0,1-.66.85,3.13,3.13,0,0,1-1,.56,4.07,4.07,0,0,1-1.32.2,4,4,0,0,1-1.58-.28,2.82,2.82,0,0,1-1.09-.79,3.31,3.31,0,0,1-.64-1.22,6.07,6.07,0,0,1-.2-1.59,5.25,5.25,0,0,1,.22-1.58,3.29,3.29,0,0,1,.65-1.23,3,3,0,0,1,1.1-.8,3.94,3.94,0,0,1,1.53-.28,3.72,3.72,0,0,1,1.5.27,2.57,2.57,0,0,1,1,.77,3.22,3.22,0,0,1,.58,1.22,6.69,6.69,0,0,1,.18,1.62v.24H85.75a2.94,2.94,0,0,0,.54,1.84,1.73,1.73,0,0,0,1.39.61,2,2,0,0,0,1.27-.39,1.55,1.55,0,0,0,.58-1.11Zm-4.13-7.8,1.43,2H87.14l-2.08-2Zm2.66,5.87a2.18,2.18,0,0,0-.48-1.41,1.6,1.6,0,0,0-1.32-.55,1.89,1.89,0,0,0-1.35.48,2.3,2.3,0,0,0-.61,1.48Z"/><path d="M99.46,473.07a2.89,2.89,0,0,1-.91,2.15,3.45,3.45,0,0,1-2.33.74,4,4,0,0,1-1.57-.28,2.85,2.85,0,0,1-1.1-.79,3.32,3.32,0,0,1-.66-1.23,5.53,5.53,0,0,1-.22-1.58,5.24,5.24,0,0,1,.23-1.58,3.64,3.64,0,0,1,.67-1.23,3.07,3.07,0,0,1,1.1-.8,4,4,0,0,1,1.53-.28,3.43,3.43,0,0,1,2.34.76,2.92,2.92,0,0,1,.92,2.17H98a1.85,1.85,0,0,0-.55-1.25,1.73,1.73,0,0,0-1.24-.45,1.77,1.77,0,0,0-1.48.66,3.14,3.14,0,0,0-.52,2,3.28,3.28,0,0,0,.51,2,1.79,1.79,0,0,0,1.49.66,1.81,1.81,0,0,0,1.26-.42,1.83,1.83,0,0,0,.53-1.24Z"/><path d="M101.55,465.46h1.5v10.36h-1.5Z"/><path d="M111.77,473.26a2.88,2.88,0,0,1-.28,1.09,2.47,2.47,0,0,1-.66.85,3.13,3.13,0,0,1-1,.56,4.07,4.07,0,0,1-1.32.2,4,4,0,0,1-1.58-.28,2.82,2.82,0,0,1-1.09-.79,3.31,3.31,0,0,1-.64-1.22,6.07,6.07,0,0,1-.2-1.59,5.59,5.59,0,0,1,.21-1.58,3.46,3.46,0,0,1,.66-1.23,3.12,3.12,0,0,1,1.09-.8,4,4,0,0,1,1.54-.28,3.72,3.72,0,0,1,1.5.27,2.57,2.57,0,0,1,1,.77,3.22,3.22,0,0,1,.58,1.22,6.69,6.69,0,0,1,.18,1.62v.24h-5.28a2.94,2.94,0,0,0,.54,1.84,1.73,1.73,0,0,0,1.39.61,2,2,0,0,0,1.27-.39,1.55,1.55,0,0,0,.58-1.11Zm-1.47-1.93a2.18,2.18,0,0,0-.48-1.41,1.6,1.6,0,0,0-1.32-.55,1.89,1.89,0,0,0-1.35.48,2.36,2.36,0,0,0-.61,1.48Z"/><path d="M35.91,507.12h1.65V502L36,503l-.49-.78,2.35-1.57h.87v6.49h1.44V508H35.91Z"/><path d="M44.25,504.38h4v.88h-4Z"/><path d="M53,505.74a2.3,2.3,0,0,0,.18.71,1.42,1.42,0,0,0,.36.46,1.23,1.23,0,0,0,.48.25,2,2,0,0,0,.55.08,1.37,1.37,0,0,0,1.47-1.5,1.53,1.53,0,0,0-.4-1.11,1.58,1.58,0,0,0-1.19-.42,3.54,3.54,0,0,0-1.79.52l-.23,0,.87-4.07H57v.93H54.11l-.45,2a3.12,3.12,0,0,1,.51-.14,2.46,2.46,0,0,1,.53-.06,3,3,0,0,1,1,.17,2.14,2.14,0,0,1,.79.46,2.06,2.06,0,0,1,.5.75,2.79,2.79,0,0,1,.17,1,2.71,2.71,0,0,1-.18,1,2.17,2.17,0,0,1-.53.76,2.22,2.22,0,0,1-.82.48,3.25,3.25,0,0,1-1.07.16,3.8,3.8,0,0,1-1-.13,2.07,2.07,0,0,1-1.36-1.18,3.08,3.08,0,0,1-.23-1.08Z"/><path d="M39.37,524.32a1.86,1.86,0,0,0-.41-1.06,1.24,1.24,0,0,0-1-.38,1.7,1.7,0,0,0-.64.13,1.32,1.32,0,0,0-.51.47,3,3,0,0,0-.34.92,7.58,7.58,0,0,0-.12,1.49,1.57,1.57,0,0,1,.69-.75,2.3,2.3,0,0,1,1.15-.26,2.63,2.63,0,0,1,.89.14,2.19,2.19,0,0,1,.72.43,2,2,0,0,1,.5.71,2.52,2.52,0,0,1,.18,1,2.91,2.91,0,0,1-.17,1,2.12,2.12,0,0,1-.51.76,2.16,2.16,0,0,1-.79.49,3.06,3.06,0,0,1-1,.17,2.82,2.82,0,0,1-1.11-.21,2,2,0,0,1-.83-.66,3.37,3.37,0,0,1-.53-1.16,7,7,0,0,1-.18-1.69,5.05,5.05,0,0,1,.68-2.92,2.31,2.31,0,0,1,2-1,2.42,2.42,0,0,1,1.72.61,2.47,2.47,0,0,1,.69,1.73Zm-1.32,4.37a1.27,1.27,0,0,0,.56-.11,1.07,1.07,0,0,0,.44-.31,1.47,1.47,0,0,0,.28-.47,1.78,1.78,0,0,0,.1-.59,1.48,1.48,0,0,0-.38-1,1.35,1.35,0,0,0-1-.41,1.33,1.33,0,0,0-1,.39,1.42,1.42,0,0,0-.39,1,1.64,1.64,0,0,0,.1.6,1.47,1.47,0,0,0,.29.48,1.28,1.28,0,0,0,.44.32A1.44,1.44,0,0,0,38.05,528.69Z"/><path d="M44.25,525.83h4v.88h-4Z"/><path d="M52.65,528.57H54.3V523.4l-1.61,1-.49-.79,2.35-1.56h.87v6.49h1.44v.91H52.65Z"/><path d="M60.44,529.58a2.53,2.53,0,0,1-1-.21,2.31,2.31,0,0,1-.83-.68,3.41,3.41,0,0,1-.56-1.18,7.58,7.58,0,0,1,0-3.46,3.5,3.5,0,0,1,.56-1.18,2.28,2.28,0,0,1,.83-.67,2.5,2.5,0,0,1,2.05,0,2.13,2.13,0,0,1,.83.67,3.51,3.51,0,0,1,.57,1.18,7.58,7.58,0,0,1,0,3.46,3.42,3.42,0,0,1-.57,1.18,2.16,2.16,0,0,1-.83.68A2.52,2.52,0,0,1,60.44,529.58Zm0-.91a1.24,1.24,0,0,0,.56-.13,1.12,1.12,0,0,0,.47-.45,2.74,2.74,0,0,0,.33-.9,7.66,7.66,0,0,0,0-2.81,2.68,2.68,0,0,0-.33-.89A1.18,1.18,0,0,0,61,523a1.29,1.29,0,0,0-1.13,0,1.26,1.26,0,0,0-.48.47,2.93,2.93,0,0,0-.32.89,8.29,8.29,0,0,0,0,2.81,3,3,0,0,0,.32.9,1.2,1.2,0,0,0,.48.45A1.25,1.25,0,0,0,60.44,528.67Z"/><path d="M104.91,507.12h1.65V502L105,503l-.49-.78,2.35-1.57h.87v6.49h1.44V508h-4.21Z"/><path d="M110.71,507.12h1.65V502l-1.6,1-.5-.78,2.36-1.57h.87v6.49h1.44V508h-4.22Z"/><path d="M119.06,504.38h4v.88h-4Z"/><path d="M127.06,507.14q.82-.83,1.5-1.44c.44-.41.82-.79,1.14-1.13a5.14,5.14,0,0,0,.72-1,1.87,1.87,0,0,0,.26-.93,1.26,1.26,0,0,0-.31-.88,1.15,1.15,0,0,0-.9-.34,1.29,1.29,0,0,0-1,.37,1.66,1.66,0,0,0-.42,1.12H127a3,3,0,0,1,.21-1,2.36,2.36,0,0,1,.51-.76,2.14,2.14,0,0,1,.76-.48,2.68,2.68,0,0,1,1-.17,3.22,3.22,0,0,1,1,.15,2,2,0,0,1,.73.43,1.82,1.82,0,0,1,.44.68,2.57,2.57,0,0,1,.14.85,2.3,2.3,0,0,1-.28,1.12,5.43,5.43,0,0,1-.74,1c-.31.34-.66.7-1.06,1.07s-.82.78-1.25,1.23h3.37V508h-4.78Z"/><path d="M135.24,508.13a2.48,2.48,0,0,1-1-.21,2.2,2.2,0,0,1-.83-.67,3.32,3.32,0,0,1-.56-1.18,6.25,6.25,0,0,1-.21-1.73,6.15,6.15,0,0,1,.21-1.73,3.16,3.16,0,0,1,.56-1.18,2.23,2.23,0,0,1,.83-.68,2.48,2.48,0,0,1,1-.21,2.45,2.45,0,0,1,1,.21,2.26,2.26,0,0,1,.84.68,3.32,3.32,0,0,1,.56,1.18,6.15,6.15,0,0,1,.21,1.73,6.25,6.25,0,0,1-.21,1.73,3.5,3.5,0,0,1-.56,1.18,2.23,2.23,0,0,1-.84.67A2.45,2.45,0,0,1,135.24,508.13Zm0-.9a1.35,1.35,0,0,0,.56-.13,1.23,1.23,0,0,0,.48-.46,2.77,2.77,0,0,0,.33-.89,7,7,0,0,0,.12-1.41,6.85,6.85,0,0,0-.12-1.41,2.68,2.68,0,0,0-.33-.89,1.23,1.23,0,0,0-.48-.46,1.21,1.21,0,0,0-.56-.13,1.28,1.28,0,0,0-.57.13,1.21,1.21,0,0,0-.47.46,2.68,2.68,0,0,0-.33.89,6.85,6.85,0,0,0-.12,1.41,7,7,0,0,0,.12,1.41,2.77,2.77,0,0,0,.33.89,1.21,1.21,0,0,0,.47.46A1.44,1.44,0,0,0,135.24,507.23Z"/><path d="M104.51,528.59q.83-.83,1.5-1.44c.45-.42.83-.79,1.14-1.13a5.87,5.87,0,0,0,.72-1,1.88,1.88,0,0,0,.26-.94,1.25,1.25,0,0,0-.31-.88,1.19,1.19,0,0,0-.9-.34,1.31,1.31,0,0,0-1,.38,1.66,1.66,0,0,0-.42,1.12h-1.12a3,3,0,0,1,.21-1,2.42,2.42,0,0,1,.51-.76,2.14,2.14,0,0,1,.76-.48,2.67,2.67,0,0,1,1-.18,3.2,3.2,0,0,1,1,.16,2,2,0,0,1,.73.43,1.67,1.67,0,0,1,.44.67,2.61,2.61,0,0,1,.14.85,2.27,2.27,0,0,1-.28,1.12,4.87,4.87,0,0,1-.74,1c-.31.35-.66.71-1.06,1.08s-.82.78-1.25,1.23h3.37v.91h-4.78Z"/><path d="M110.71,528.57h1.65V523.4l-1.6,1-.5-.79,2.36-1.56h.87v6.49h1.44v.91h-4.22Z"/><path d="M123.93,527.65a2.24,2.24,0,0,1-.2.78,1.76,1.76,0,0,1-.47.61,2.28,2.28,0,0,1-.72.4,3,3,0,0,1-.94.14,2.78,2.78,0,0,1-1.13-.2,2.11,2.11,0,0,1-.78-.56,2.16,2.16,0,0,1-.45-.88,4,4,0,0,1-.15-1.13,3.67,3.67,0,0,1,.16-1.13,2.39,2.39,0,0,1,.46-.88,2.07,2.07,0,0,1,.79-.56,2.62,2.62,0,0,1,1.09-.2,2.71,2.71,0,0,1,1.08.19,1.81,1.81,0,0,1,.73.55,2.27,2.27,0,0,1,.41.87,4.55,4.55,0,0,1,.13,1.15V527h-3.77a2.1,2.1,0,0,0,.38,1.32,1.25,1.25,0,0,0,1,.43,1.47,1.47,0,0,0,.91-.27,1.14,1.14,0,0,0,.41-.8Zm-1.05-1.37a1.63,1.63,0,0,0-.34-1,1.18,1.18,0,0,0-1-.39,1.33,1.33,0,0,0-1,.34,1.65,1.65,0,0,0-.44,1.06Z"/><path d="M125.47,525h-.74v-.89h.74v-1.37h1.07v1.37h1.25V525h-1.25v2.8a.83.83,0,0,0,.19.6.81.81,0,0,0,.57.19l.26,0,.27,0v.94l-.34.06-.38,0a1.69,1.69,0,0,1-1.2-.4,1.67,1.67,0,0,1-.44-1.3Z"/><path d="M131.41,526.37h2.15v-2.14h.86v2.14h2.15v.86h-2.15v2.16h-.86v-2.16h-2.15Z"/><circle class="cls-5" cx="91.46" cy="526.43" r="6.35"/><circle class="cls-2" cx="23.46" cy="505.76" r="6.35"/><circle class="cls-3" cx="23.46" cy="526.43" r="6.35"/><circle class="cls-4" cx="91.46" cy="505.76" r="6.35"/></svg>