<?xml version="1.0" encoding="utf-8"?>
<!-- Generator: Adobe Illustrator 19.0.0, SVG Export Plug-In . SVG Version: 6.00 Build 0)  -->
<svg version="1.1" id="Calque_1" xmlns="http://www.w3.org/2000/svg" xmlns:xlink="http://www.w3.org/1999/xlink" x="0px" y="0px"
	 viewBox="0 0 769.3 801.5" style="enable-background:new 0 0 769.3 801.5;" xml:space="preserve">
<style type="text/css">
	.st0{fill:#E2967F;stroke:#F4D7CB;stroke-linecap:round;stroke-linejoin:round;stroke-miterlimit:10;}
	.st1{fill:#FFFFFF;stroke:#F4D7CB;stroke-miterlimit:10;}
	.st2{fill:#EBB7A5;stroke:#F4D7CB;stroke-linecap:round;stroke-linejoin:round;stroke-miterlimit:10;}
	.st3{fill:#C32121;stroke:#F4D7CB;stroke-linecap:round;stroke-linejoin:round;stroke-miterlimit:10;}
	.st4{fill:#EBB7A5;stroke:#F4D7CB;stroke-width:0.5;stroke-linecap:round;stroke-linejoin:round;stroke-miterlimit:10;}
	.st5{fill:#EBB7A5;}
	.st6{fill:#E2967F;}
	.st7{fill:#D9745E;}
	.st8{fill:#C32121;}
	.st9{fill:#FFFFFF;}
	.st10{fill:none;stroke:#F4D7CB;stroke-miterlimit:10;}
</style>
<g id="XMLID_3184_">
	<polygon id="Royaume-Uni_2_" class="st0" points="208.6,5.8 198.7,8.1 168.7,10.2 155.4,23.6 139.9,35.3 143.6,37.3 162.4,32.7
		164.7,57.4 160.2,73.6 123.4,83.3 111,92.4 112.9,103.5 121.9,111.9 144.9,105.7 151,118.8 168.1,115.3 171.9,125.2 192.8,130.8
		200.4,123.3 226,111.4 203.9,130.8 199.4,143.5 175,140.7 150.2,141.4 135.2,158.5 110.6,186.6 82.5,202.8 104,212.8 123.3,193.3
		143.2,194.2 167.7,208.2 180.5,184 206.9,184 214.3,186 233.5,182.3 266.5,174.5 284.7,177.9 328.7,182.2 357.2,171 376.3,156.5
		379.3,141 353.1,142.4 336.5,136.5 357.5,129.1 359.8,119.2 369.9,113.7 385.6,97.5 387.9,85.9 392.8,63.2 377.8,45.7 358.6,42.6
		346.5,40.2 339.6,52.7 329.4,44.9 324.9,44.7 339.7,27.7 334.7,14.3 324.5,0 208.8,0 	"/>
	<polygon id="Irlande_2_" class="st1" points="0.8,77.1 18.4,70.4 42.1,67.5 53.2,63.5 71.8,68 90.5,24 91.4,8.3 88.1,5 85,0 0.8,0
			"/>
	<polygon id="Espagne_2_" class="st2" points="440.8,712.5 434,714.1 425,723.5 416.9,723.5 405.6,715.9 401,715.9 397.2,719.7
		391.1,717 391,713.3 383.8,710.8 372.1,714.8 367.1,708 367.1,703.4 362,699.5 354,699.5 350.4,693 340.7,689.1 332,686.1
		331.6,696.9 319.9,695.7 313.7,697.3 307.8,692.9 298.7,695.9 292.7,689.6 285.8,684.8 273,688 273,688 273,688 272.3,687.5
		265.8,681.8 265.4,677.2 265.4,677.2 262.7,677.2 262.5,677.2 258.1,677.1 239.6,667.3 237.5,672.2 231.6,665.7 234.3,664.2
		235,657.6 215.9,651.3 215.9,647.4 202.9,651.1 186,647.9 171.5,639.8 158.7,647.3 140.2,636.1 122.7,632.4 106.2,637.3 62.8,630
		47.2,621.6 23.5,617.1 0.5,616.7 0.5,800.5 368.1,800.5 391,792.2 450.4,751.1 446.6,730.5 454,728 448.3,716.6 444.2,715.3 	"/>
	<polygon id="Allemagne_2_" class="st2" points="606.3,20.6 606.3,20.6 604,55.3 603,56.6 600.6,59.9 600.3,59.9 600.3,59.9
		590.7,59.3 587.9,70 599.1,70.6 599.5,72.2 602.4,85.3 589,96.5 593.4,105 577,111.9 577,111.9 577,111.9 568.2,107.9 560.3,112.5
		575.6,139.1 574.1,142.8 572.6,146.6 566.6,161.9 567.1,173.9 567.1,173.9 564.3,181 574.3,191.8 574.3,191.8 574.1,192.5
		572.7,196.1 578.4,199.8 580.4,207.2 570.4,220.3 568.1,227.8 574.4,235.5 587.4,240.4 588.8,247.3 580.9,258.5 581.9,262.7
		589.8,266 597.1,281.3 601.1,280.9 602.1,277.9 606.2,277.9 612.5,282.7 619.9,282.6 623,279.8 628.6,279.9 635.6,286.6
		648.7,285.9 661,291 650.3,308 644.6,312.1 641.8,334.4 636,345.6 638.3,355.6 633.4,373.3 637.7,380.2 635.2,387.8 637.8,383.6
		655.3,382.8 665.8,377.7 676.8,380.2 677.7,378 677.8,377.7 683.6,375.4 676.2,373.6 674.1,371.7 680,366.3 686.1,365.2
		691.6,370.1 697.9,373.1 705.4,371.6 715.8,372.8 730.6,377.3 732.5,373.7 747.8,386.1 747.8,388.4 747.8,391.9 761.6,381.9
		762.4,373.4 768.4,373.3 768.8,373.3 768.8,0 604.3,0 595.4,12.1 595.6,12.3 	"/>
	<polygon id="Italie_2_" class="st2" points="768.8,422.1 753.4,435.5 751.2,453.6 717.5,449.7 695.3,472.4 682.3,464.4
		681.4,450.5 666.5,464.3 670,469.4 656.9,487.4 646,483.7 634.4,489.8 623.5,491.2 621.7,490.7 619.5,488.7 619.4,490.6
		611.9,493.6 610.1,495.6 629,520.2 629,520.2 629,520.2 626.3,530.9 616.3,538.5 604.9,539.6 611.6,552.7 622.5,555.4 626.4,564.1
		626.4,564.1 622.2,568 622.5,568.3 622.7,574.7 618.8,578.6 617.8,579.5 619,587.4 638.1,600.7 655,596.9 656.2,609.8 656.2,609.8
		651.4,611.3 650.9,622.5 657.6,624.5 676.1,617.5 691.6,592.6 704.2,580.3 731.4,586.5 767.5,601.9 768.8,603.4 	"/>
	<polygon id="Autriche_2_" class="st1" points="762.4,373.4 761.6,381.9 747.8,391.9 747.8,388.4 747.8,386.1 732.5,373.7
		730.6,377.3 715.7,372.8 724.3,379.5 728.6,382.7 730.4,388 724.7,398 738.2,400.1 741.7,412.7 750.4,421.5 760.7,414 768.1,414
		768.8,414 768.8,373.3 768.4,373.3 	"/>
	<polygon id="Liechtenstein_2_" class="st1" points="741.7,412.7 738.2,400.1 724.7,398 727.2,409.7 	"/>
	<polygon id="Pays-Bas_2_" class="st0" points="491.5,143.8 504.3,137.3 513.6,140.2 524.9,137.3 531.9,149.4 540.7,148.1
		540.7,148.1 540.7,148.1 557.1,156.2 551.8,181.9 564.3,181 564.3,181 564.3,181 564.3,181 567.1,173.9 567.1,173.9 566.6,161.9
		572.6,146.6 574.1,142.8 575.6,139.1 560.3,112.5 568.2,107.9 568.2,107.9 577,111.9 577,111.9 593.4,105 589,96.5 602.4,85.3
		599.5,72.2 599.1,70.6 587.9,70 590.7,59.3 590.7,59.3 600.3,59.9 600.6,59.9 603,56.6 604,55.3 606.3,20.6 606.3,20.6 595.6,12.3
		595.4,12.2 594.9,11.8 591.8,9.4 582.1,10.1 560.9,13.6 540,22.1 535,34.7 518.6,47.4 515.6,42.6 509.8,41.6 501.6,83.3
		487.7,103.4 472.3,120.2 459.2,133.3 463.3,140.8 479.8,144.6 	"/>
	<polygon id="Belgique_2_" class="st3" points="425,177.3 429.3,179.7 431.5,182.2 433.9,186.8 439.2,183.6 447.5,181.7
		451.4,186.5 452.4,198.1 456.9,200.1 461.2,198.2 469,203.7 468.5,211.4 470.1,211.4 471.4,209.3 483.7,208.7 491.5,216
		491.8,227.8 487.5,231 488,232.6 492.4,232.6 499.7,235.1 509.8,230.8 514,221 518.2,221 518.6,243.8 536.7,251.2 538.6,256.6
		543.8,260.4 557,258 560.9,255.6 560.4,253 554,236.2 565.3,217.3 570.4,220.3 580.4,207.2 578.4,199.8 572.7,196.1 574.1,192.5
		574.3,191.8 564.3,181 564.3,181 551.8,181.9 551.8,181.9 557.1,156.2 540.7,148.1 540.7,148.1 531.9,149.4 524.9,137.3
		513.6,140.2 504.3,137.3 491.5,143.8 479.8,144.6 463.3,140.8 449.7,144.4 418.8,160.2 418.8,163.3 422.8,162.2 426.5,171.2 	"/>
	<polygon id="Luxembourg_2_" class="st0" points="588.8,247.3 587.4,240.4 574.4,235.5 568.1,227.8 570.4,220.3 565.3,217.3
		554,236.2 560.4,253 560.9,255.6 557,258 563.7,262.9 572.6,260.5 576,260.3 581.9,262.7 580.9,258.5 	"/>
	<polygon id="Suisse_2_" class="st2" points="760.7,414 750.4,421.5 741.7,412.7 727.2,409.7 724.7,398.1 730.4,388.1 728.6,382.7
		724.3,379.5 715.8,372.8 705.4,371.6 697.9,373.1 691.6,370.1 686.1,365.2 680,366.3 674.1,371.7 676.2,373.6 683.6,375.4
		677.8,377.7 677.7,378 676.8,380.2 665.8,377.7 655.3,382.8 637.8,383.6 634.9,388 634.5,388 631.2,391.3 622.5,391.3 620,387.6
		619.4,387.9 614.8,388.9 617.8,396.2 617.8,396.2 617.8,396.2 617.8,396.2 617.8,396.2 601,418.1 599.6,419.9 591.1,423.8
		592.1,434.3 592.1,434.3 592.1,434.3 578.2,448.4 577.1,457.8 581.9,459.5 579,468.3 572.5,470.4 572.5,474.6 579.6,474.7
		586.9,469.3 584.3,465.3 584.3,465.3 584.3,465.3 588.5,459.7 591.2,461.6 607.6,457.6 611.7,467.7 611.7,467.7 611.7,467.7
		609.3,470.3 619.9,483.6 619.6,487.8 619.5,488.7 621.7,490.7 623.5,491.2 634.4,489.8 646,483.7 656.9,487.4 656.9,487.4
		670,469.4 666.5,464.3 681.4,450.5 682.3,464.4 695.3,472.4 717.5,449.7 751.2,453.6 753.4,435.5 768.8,422.1 768.8,414 768.1,414
			"/>
	<polygon id="Corse" class="st2" points="732.7,653.4 725.4,653.6 722.9,659.1 708.7,664.6 703.5,677.5 701.7,679.9 707.6,683.7
		707.9,685.4 702.1,686.7 703.6,693.9 710.2,695.9 710.6,699.9 706.2,704.5 706.8,708.4 713.2,709 714.8,713.1 710.4,718.9
		722,720.8 715.4,728 721.5,732.8 731,735.7 733.8,738.9 739.3,740.4 744.5,724.9 745.7,713.6 745,707.1 744.9,700.6 750.3,693.2
		750.4,681 748.2,676.8 747.7,663.6 743.3,659 742.9,650.9 744.3,647.2 741.6,636.4 739.6,632.9 735.4,636.2 737.3,649.3
		735.9,655.2 	"/>
	<polygon id="Andorre_2_" class="st2" points="372.1,714.8 383.8,710.8 378.5,702.2 367.1,703.4 367.1,708 	"/>
	<polygon id="Monaco_2_" class="st4" points="633,638.3 633,638.3 641.9,638.6 638.3,631.1 633.3,631.5 	"/>
</g>
<g id="XMLID_478_">
	<g id="XMLID_3497_">
		<polygon id="Var_2_" class="st5" points="609.1,622.6 624.5,643.9 612.1,654.8 613.1,661.3 598.4,669.3 588.5,670.6 580.5,669.8
			573.1,673.5 566.9,667.1 570.2,659 566.4,654.4 571.1,649.6 566.4,640.9 570.4,629.2 581.5,631.9 		"/>
		<polygon id="Bouches-du-Rhône_1_" class="st6" points="566.4,640.9 571.1,649.6 566.4,654.4 570.2,659 566.9,667.1 552.5,663.1
			550.3,655.2 536.2,655.7 532.4,651.5 527,650.7 529.6,655.6 523.8,657.4 513.5,653.4 516.5,649.4 500.3,648.2 509.6,633
			516,632.4 518,621.5 526.7,616.7 526.7,619.2 538.4,628.1 558.1,633.7 570.4,629.2 570.4,629.2 		"/>
		<polygon id="Drôme_2_" class="st6" points="570.4,568.3 561.7,571.1 560,577.8 562.5,579.8 560,582.6 553.5,580.8 552.5,588.7
			564.3,595.1 563.5,602 557.2,605.2 550.2,599.6 541.3,598.9 534.6,593.8 535.6,589 532.6,586.1 527.1,590 529.9,596.2 526,598.3
			520.2,593 518.8,582.6 522.1,574.3 527,554.1 522.4,537.5 522.7,528.8 525.1,530.8 530.8,527.7 540.5,534.5 538.8,543.5
			549.7,547 553.5,543.9 553.6,561.7 		"/>
		<polygon id="Vaucluse_2_" class="st6" points="570.4,629.2 558.1,633.7 538.4,628.1 526.7,619.2 526.7,616.7 526.7,613.8
			520.3,607.3 520.3,602.3 514.5,593.8 514.4,593.7 520.2,593 526,598.3 529.9,596.2 527.1,590 532.6,586.1 535.6,589 534.6,593.8
			541.3,598.9 550.2,599.6 557.2,605.2 559.2,621.8 568.6,628.8 		"/>
		<polygon id="Haute-Marne_2_" class="st5" points="564.5,361.5 556.4,370.4 556.4,378.5 544.9,379.1 544.8,382.7 538.9,384.5
			535,379 526.1,378.3 526.8,370.2 515.3,357.6 515,356.1 514.3,352.4 520.8,350.1 519.4,336.6 515.6,335.3 511.7,329.7
			511.7,324.7 515.5,324.8 520.2,321.5 520.9,316 524.6,315.2 526.1,319.4 545.3,331.6 544.8,335.7 558.1,345.5 554.8,352.7 		"/>
		<polygon id="Marne_2_" class="st6" points="464.1,319.9 461.1,319 461.6,304.9 470.3,294.6 472.5,285.6 468.7,275.7 484.9,271.5
			518.8,279.9 521.9,278.5 527.2,293.1 521.4,306.6 524.6,315.2 520.9,316 520.2,321.5 515.5,324.8 511.7,324.7 500.4,324.5
			496,314 492.7,313.7 474.4,322.9 		"/>
		<polygon id="Ardèche_2_" class="st5" points="522.4,537.5 527,554.1 522.1,574.3 518.8,582.6 520.2,593 514.4,593.7 500.3,595.4
			490.4,593.7 486.6,586.3 485.8,584.7 482.8,576 480.8,567.3 489.7,558.2 494.9,558.2 506.7,540.6 508,535.2 520.1,526.7
			522.7,528.8 		"/>
		<polygon id="Gard_2_" class="st5" points="526.7,613.8 526.7,616.7 518,621.5 516,632.4 509.6,633 500.3,648.2 492.6,648.3
			490.4,643.7 496.2,638.9 493.9,630.3 480.1,623.1 478.2,616.3 474.6,615.9 468.4,623.8 458,619.3 463.7,615.7 461.1,611.1
			454.3,609 457.8,603.1 464.6,607.7 471.3,605.2 476.3,605.8 482,606.5 484.7,602.5 484.9,592.4 481.8,589 486.6,586.3
			490.4,593.7 500.3,595.4 514.4,593.7 514.5,593.8 520.3,602.3 520.3,607.3 		"/>
		<polygon id="Aube_2_" class="st5" points="519.4,336.6 520.8,350.1 514.3,352.4 515,356.1 514.9,356.1 507.6,359.9 497.8,363.2
			494.9,363.1 480.4,363 467,347.6 467.7,341.6 462.1,335.7 458.1,335.5 457.9,334.3 459.1,323.8 464.1,319.9 474.4,322.9
			492.7,313.7 496,314 500.4,324.5 511.7,324.7 511.7,329.7 515.6,335.3 		"/>
		<polygon id="Loire_2_" class="st6" points="520.8,519.7 520.1,526.7 508,535.2 495.2,524.9 488,529 482.8,527.3 485.4,520.5
			483.5,513.2 477.8,509.4 472.9,500.2 475.6,493.4 471.3,489.3 477.6,488.4 477.3,476.8 475.8,472.9 476.4,470.5 481.1,470.1
			486.7,475.8 503.9,471.5 506.1,476.2 503.9,478.1 499.5,478.1 497.8,483.2 500.6,493.4 503.9,496.9 502.1,507 		"/>
		<polygon id="Haute-Loire_2_" class="st5" points="508,535.2 506.7,540.6 494.9,558.2 489.7,558.2 480.8,567.3 476.3,561.4
			462.5,563 458.1,551.5 451.5,534.1 446.2,532.6 444.5,529.8 444.2,529.4 445.4,528.5 463.1,524.3 469.7,528.8 482.3,528.8
			482.8,527.3 488,529 495.2,524.9 		"/>
		<polygon id="Yonne_2_" class="st5" points="494.9,363.8 498.4,374.5 487.6,398.3 488.7,400.8 484.9,403 466.5,391.3 455.8,392.8
			439.7,386.9 435,374.6 438.5,375 442.5,372.5 441,367 447.1,361.2 438.5,346.8 443.6,342.5 441.9,340.5 446.8,335.5 457.9,334.3
			458.1,335.5 462.1,335.7 467.7,341.6 467,347.6 480.4,363 494.9,363.1 		"/>
		<polygon id="Hérault_2_" class="st7" points="493.9,630.3 496.2,638.9 490.4,643.7 486.3,643.4 449.8,666 435.4,657 432.4,660.9
			429,663.1 423.5,659.9 420,655.3 421.1,650.4 425.8,648.9 427.1,644.9 423.7,641.8 426.5,635.9 429.6,638.1 438.9,634.9
			444.5,633 444.3,624.3 451,626.2 458,619.3 468.4,623.8 474.6,615.9 478.2,616.3 480.1,623.1 		"/>
		<polygon id="Nièvre_2_" class="st5" points="488.7,400.8 494.3,413.7 486.5,415.7 488.7,436.2 476.3,440.9 473.5,439.2
			469.7,440.6 463.3,444.7 449.7,443.8 443.4,439.1 443.6,436.3 444.5,423.8 436.7,403.1 438.1,397.6 436.1,390.8 436.1,390.8
			435.3,388.2 439.7,386.9 455.8,392.8 466.5,391.3 484.9,403 		"/>
		<polygon id="Lozère_2_" class="st5" points="485.8,584.7 486.6,586.3 481.8,589 484.9,592.4 484.7,602.5 482,606.5 476.3,605.8
			471.3,605.2 464.6,607.7 457.8,603.1 452.2,600.1 447.7,585.3 440.4,573.1 446.8,556.3 451.4,557.5 458.1,551.5 462.5,563
			476.3,561.4 480.8,567.3 482.8,576 		"/>
		<polygon id="Puy-de-Dôme_2_" class="st5" points="483.5,513.2 485.4,520.5 482.8,527.3 482.3,528.8 469.7,528.8 463.1,524.3
			445.4,528.5 444.2,529.4 441.7,531.2 433.2,525 428.2,526.3 425.5,522.3 419.5,521.4 419.6,515.3 418.3,510.7 419.4,503.9
			414.5,497.3 424.4,488.6 421.6,478.1 425.5,480.8 435,471.1 438.4,471.1 437.4,474.5 446.8,482.1 456.1,483.1 459.9,481.8
			471.3,489.3 475.6,493.4 472.9,500.2 477.8,509.4 		"/>
		<polygon id="Allier_2_" class="st5" points="484.9,456.1 484.8,466.2 481.1,470.1 476.4,470.5 475.8,472.9 477.3,476.8
			477.6,488.4 471.3,489.3 459.9,481.8 456.1,483.1 446.8,482.1 437.4,474.5 438.4,471.1 435,471.1 425.5,480.8 421.6,478.1
			419,468.5 411.9,465.1 409.1,459.4 412.1,453.8 416.7,453 421.4,453.8 424.5,451.1 422.1,445.7 429.2,439.4 430.7,442.7
			438.2,435.8 443.2,436.2 443.6,436.3 443.4,439.1 449.7,443.8 463.3,444.7 469.7,440.6 474,452.3 		"/>
		<polygon id="Seine-et-Marne_2_" class="st5" points="464.1,319.9 459.1,323.8 457.9,334.3 446.8,335.5 441.9,340.5 443.6,342.5
			438.5,346.8 433.4,351 419.4,352.4 417.5,350.6 420.8,344.5 416.8,341.1 416.9,339.9 416.9,336.7 421.8,333.5 422.8,314.5
			423.2,307 423.9,295.9 424.1,291.1 440.3,290.1 444.6,288.4 449.1,295 461.6,304.9 461.1,319 		"/>
		<polygon id="Aveyron_2_" class="st5" points="461.1,611.1 463.7,615.7 458,619.3 451,626.2 444.3,624.3 444.5,633 438.9,634.9
			434.9,630.3 425.7,630 418.6,613.4 402.2,602.4 393.1,603.9 390.2,592 389.1,583.9 401,577.3 403.2,574.4 405.7,574.7
			410.7,571.7 418.1,572.7 423.1,559.1 430,554.8 434.9,558.3 437.1,564.5 440.4,573.1 447.7,585.3 452.2,600.1 457.8,603.1
			454.3,609 		"/>
		<polygon id="Cantal_2_" class="st5" points="451.5,534.1 458.1,551.5 451.4,557.5 446.8,556.3 440.4,573.1 437.1,564.5
			434.9,558.3 430,554.8 423.1,559.1 418.1,572.7 410.7,571.7 405.7,574.7 403.2,574.4 399.7,552.1 404,545.2 405.4,536
			412.5,523.6 416.6,527.1 420.1,525.6 419.5,521.4 425.5,522.3 428.2,526.3 433.2,525 441.7,531.2 444.2,529.4 444.5,529.8
			446.2,532.6 		"/>
		<polygon id="Bas-Rhin_2_" class="st6" points="641.8,334.4 644.6,312.1 650.3,308 661,291 648.6,285.9 635.6,286.6 632.3,294.7
			623.1,294.1 611.6,289 607.5,296.6 623.2,304.8 622.5,313 617.2,321.4 614.6,320.6 614.6,324.8 615.8,333.1 618.7,334.8
			636,345.6 		"/>
		<polygon id="Alpes-Maritimes_2_" class="st5" points="651.2,611.3 656.1,609.8 654.9,596.9 638,600.7 618.8,587.4 613,593.7
			610.9,601.6 622.4,614.4 611.6,617.7 609.1,622.6 610,623.8 624.5,643.9 632.9,638.3 633.1,631.5 638.2,631.1 650.7,622.5
			650.7,622.5 		"/>
		<polygon id="Haut-Rhin_2_" class="st6" points="615.6,381.1 619.9,387.5 622.4,391.2 631,391.1 635.2,387.8 637.7,380.2
			637.7,380.2 633.4,373.3 638.3,355.6 636,345.6 618.7,334.8 606.7,367.8 614.8,372.5 		"/>
		<polygon id="Moselle_2_" class="st5" points="572.6,260.5 563.7,262.9 567.1,286.7 564.5,289.5 573.9,298.1 578.5,298.6
			583.4,306.6 614.6,320.6 617.2,321.4 622.5,313 623.2,304.8 607.5,296.6 611.6,289 623.1,294.1 632.3,294.7 635.6,286.6
			628.6,279.9 623,279.8 619.9,282.6 612.5,282.7 606.2,277.9 602.1,277.9 601.1,280.9 597.4,281.3 589.7,266 581.8,262.7
			575.9,260.3 		"/>
		<polygon id="Savoie_2_" class="st8" points="598,489.7 594.7,492.9 590.1,503.5 586.3,504.2 581.2,499.4 578.2,500.6 570.4,496.5
			566.4,485.2 565.1,503 559.1,509.4 569.9,521.4 573,517.1 584.9,523.7 581.9,532.4 587.2,538.2 586.8,540.2 598.7,540.3
			604.8,539.6 616.2,538.5 626.1,530.9 628.8,520.2 610,495.6 606.8,499.3 		"/>
		<polygon id="Hautes-Alpes_1_" class="st8" points="574.5,589.8 583.7,581.4 590.6,586.6 594.2,581.7 606.9,582.2 622.1,568
			626.2,564.1 622.4,555.4 611.5,552.7 604.8,539.6 598.7,540.3 586.8,540.2 585.9,545.9 592,550.3 593.7,556 570.4,568.3
			568.2,569 561.7,571.1 560,577.8 562.5,579.8 560,582.6 553.5,580.8 552.5,588.7 564.3,595.1 563.5,602 574.7,599.1 		"/>
		<polygon id="Alpes-de-Haute-Provence_2_" class="st5" points="611.6,617.7 622.4,614.4 610.9,601.6 613,593.7 618.8,587.4
			617.6,579.5 622.5,574.7 622.4,568.3 622.1,568 606.9,582.2 594.2,581.7 590.6,586.6 583.7,581.4 574.5,589.8 574.7,599.1
			563.5,602 557.2,605.2 559.2,621.8 568.6,628.8 570.4,629.2 570.4,629.2 581.5,631.9 605,624 609.1,622.6 		"/>
		<polygon id="Territoire_de_Belfort_2_" class="st5" points="619.3,387.9 619.9,387.5 615.6,381.1 614.8,372.5 606.7,367.8
			603,370 602.1,383.1 614.6,388.9 		"/>
		<polygon id="Haute-Savoie_2_" class="st5" points="609.1,470.3 611.5,467.7 607.5,457.6 591,461.6 588.3,459.7 584.2,465.3
			586.8,469.3 579.5,474.7 572.4,474.6 572.4,476.4 567,478 566.4,485.2 566.4,485.2 570.4,496.5 578.2,500.6 581.2,499.4
			586.3,504.2 590.1,503.5 594.7,492.9 598,489.7 606.8,499.3 610,495.6 611.7,493.6 619.2,490.6 619.4,488.7 619.7,483.6 		"/>
		<polygon id="Vosges_2_" class="st6" points="576.6,356.6 581,361 606.7,367.8 618.7,334.8 615.8,333.1 614.6,324.8 602.5,329.7
			576.1,330.8 573.5,333.6 567.5,333.9 558.6,325.9 545.3,331.6 544.8,335.7 558.1,345.5 554.8,352.7 564.5,361.5 571.4,356.3 		"/>
		<polygon id="Doubs_2_" class="st6" points="561.2,419 571.2,420.9 571.5,428.6 578.5,430.8 581.3,436.4 575.9,439.6 578.2,448.4
			592.1,434.3 591.8,423.8 599.9,419.9 617.6,396.2 614.6,388.9 602.1,383.1 596.4,388.2 588.3,386.8 559,402.6 564.1,411.4 		"/>
		<polygon id="Meurthe-et-Moselle_2_" class="st5" points="583.4,306.6 578.5,298.6 573.9,298.1 564.5,289.5 567.1,286.7
			563.7,262.9 558.3,259 556.8,257.9 543.7,260.3 546.4,267.4 552.2,266.2 556.6,274.2 561.6,297.4 558.6,325.9 567.5,333.9
			573.5,333.6 576.1,330.8 602.5,329.7 614.6,324.8 614.6,320.6 		"/>
		<polygon id="Haute-Saône_2_" class="st5" points="544.8,392.8 550.2,400 553.6,404.7 559,402.6 588.3,386.8 596.4,388.2
			602.1,383.1 603,370 606.7,367.8 581,361 576.6,356.6 571.4,356.3 564.5,361.5 556.4,370.4 556.4,378.5 544.9,379.1 544.8,382.7
			549.2,387 		"/>
		<polygon id="Isère_2_" class="st8" points="593.7,556 592,550.3 585.9,545.9 586.8,540.2 587.2,538.2 581.9,532.4 584.9,523.7
			573,517.1 569.9,521.4 559.1,509.4 545.6,493.6 541.3,500.2 534.6,498.8 537.5,503.7 532.6,509.9 522.6,512.6 525.4,517.5
			520.8,519.7 520.1,526.7 522.7,528.8 525.1,530.8 530.8,527.7 540.5,534.5 538.8,543.5 549.7,547 553.5,543.9 553.6,561.7
			567.8,567.3 570.4,568.3 		"/>
		<polygon id="Ain_2_" class="st6" points="566.4,485.2 566.4,485.2 567,478 572.4,476.4 572.4,474.6 572.3,470.5 578.9,468.6
			581.7,460 577,458 567.8,468 561.4,467.9 561.5,465.3 558,463.5 550.5,468.5 540.7,456.8 527.2,453 520.7,473.5 518.3,489.3
			534.6,498.8 541.3,500.2 545.6,493.6 559.1,509.4 565.1,503 		"/>
		<polygon id="Jura_2_" class="st5" points="550.5,468.5 558,463.5 561.5,465.3 561.4,467.9 567.8,468 577,458 578.2,448.4
			575.9,439.6 581.3,436.4 578.5,430.8 571.5,428.6 571.2,420.9 561.2,419 564.1,411.4 559,402.6 553.6,404.7 550.2,400
			548.6,410.6 541,419.3 541.3,422 541.6,425.7 548.8,430.6 543.3,432.9 547.6,445.7 544.8,450 548.6,454.4 540.7,456.8 		"/>
		<polygon id="Meuse_2_" class="st5" points="561.6,297.4 556.6,274.2 552.2,266.2 546.4,267.4 543.7,260.3 538.4,256.4
			535.4,259.4 530,257 526.8,262.6 529.3,266.4 527.1,276 521.9,278.5 527.2,293.1 521.4,306.6 524.6,315.2 526.1,319.4
			545.3,331.6 558.6,325.9 		"/>
		<polygon id="Côte-d_x27_Or_2_" class="st5" points="529.2,423.7 541.3,422 541,419.3 548.6,410.6 550.2,400 544.8,392.8
			549.2,387 544.8,382.7 538.9,384.5 535,379 526.1,378.3 526.8,370.2 515.3,357.6 515,356.1 514.9,356.1 507.6,359.9 497.8,363.2
			494.9,363.1 494.9,363.8 498.4,374.5 487.6,398.3 488.7,400.8 494.3,413.7 515.4,428.5 		"/>
		<polygon id="Saône-et-Loire_2_" class="st6" points="516.5,467.1 520.7,473.5 527.2,453 540.7,456.8 548.6,454.4 544.8,450
			547.6,445.7 543.3,432.9 548.8,430.6 541.6,425.7 541.3,422 529.2,423.7 515.4,428.5 494.3,413.7 486.5,415.7 488.7,436.2
			476.3,440.9 473.5,439.2 469.7,440.6 474,452.3 484.9,456.1 484.8,466.2 481.1,470.1 486.7,475.8 503.9,471.5 504.1,467.4 		"/>
		<polygon id="Ardennes_2_" class="st5" points="529.3,266.4 526.8,262.6 530,257 535.4,259.4 538.4,256.4 536.5,251 518.6,243.8
			518.2,221 514,221 509.8,230.8 499.7,235.1 492.4,232.6 492.6,247 484.9,271.5 518.8,279.9 521.9,278.5 527.1,276 		"/>
		<polygon id="Rhône_2_" class="st5" points="522.6,512.6 532.6,509.9 537.5,503.7 534.6,498.8 518.3,489.3 520.7,473.5
			516.5,467.1 504.1,467.4 503.9,471.5 506.1,476.2 503.9,478.1 499.5,478.1 497.8,483.2 500.6,493.4 503.9,496.9 502.1,507
			520.8,519.7 525.4,517.5 		"/>
		<polygon id="Aisne_2_" class="st5" points="492.6,247 492.4,232.6 488,232.6 448.7,230.9 446.1,251.7 446,252.2 444.8,273.7
			439.6,276.8 441.6,284 444.6,288.4 449.1,295 461.6,304.9 470.3,294.6 472.5,285.6 468.7,275.7 484.9,271.5 		"/>
		<polygon id="Nord_2_" class="st7" points="418.6,190.1 431.1,192 433.4,198.1 444.5,203.5 439.6,206.6 448.4,216.4 440.3,224.1
			448.7,230.9 488,232.6 487.5,231 491.8,227.8 491.5,216 483.7,208.7 471.4,209.3 470.1,211.4 468.5,211.4 468.8,203.7
			461.2,198.2 456.8,200.1 452.2,198.1 451.2,186.5 447.3,181.7 439,183.6 433.7,186.8 431.3,182.2 429.2,179.7 424.8,177.3
			426.4,171.2 422.8,162.2 422.8,162.2 404.2,167.2 410.8,180.3 		"/>
		<polygon id="Somme_2_" class="st5" points="448.7,230.9 436.4,230.1 382,207.2 373.1,226.1 390.5,246.6 394.5,251.3 427.6,257.8
			438.3,251.7 445.3,251.7 446.1,251.7 		"/>
		<polygon id="Pas-de-Calais_2_" class="st6" points="436.4,230.1 448.7,230.9 440.3,224.1 448.4,216.4 439.6,206.6 444.5,203.5
			433.4,198.1 431.1,192 418.6,190.1 410.8,180.3 404.2,167.2 392,169.4 382.3,176.7 382,207.2 		"/>
		<polygon id="Oise_2_" class="st5" points="446.1,251.7 444.8,273.7 439.6,276.8 441.6,284 444.6,288.4 440.3,290.1 424.1,291.1
			402.9,282.4 390,284.5 388.1,277.9 388,269.9 391.1,263.7 390.5,246.6 394.5,251.3 427.6,257.8 438.3,251.7 		"/>
		<polygon id="Cher_2_" class="st5" points="436.7,403.1 444.5,423.8 443.6,436.3 443.2,436.2 438.2,435.8 430.7,442.7 429.2,439.4
			422.1,445.7 424.5,451.1 421.4,453.8 416.7,453 412.1,453.8 409.1,459.4 404,460 406.3,446.3 401.8,439.7 405,430.1 399.8,415.7
			393.3,416.5 388.3,413.8 392.7,409.2 396.3,404.8 404.3,402.9 409.1,391.3 403.3,386.6 409.6,381.2 427.8,392.6 436.1,390.8
			436.1,390.8 438.1,397.6 		"/>
		<polygon id="Creuse_2_" class="st5" points="421.6,478.1 424.4,488.6 414.5,497.3 419.4,503.9 409.6,507.6 405,504 392,505.7
			392.7,501.1 386.8,497.1 379.1,496.4 376.1,491.2 376.9,482.1 369.8,472.7 372.5,465.8 370.7,461.6 385.7,461.1 387,457.6
			404,460 409.1,459.4 411.9,465.1 419,468.5 		"/>
		<polygon id="Val-d_x27_Oise_2_" class="st9" points="424.1,291.1 423.9,295.9 412.2,299.3 407.8,300.6 383.2,289.8 388.1,277.9
			390,284.5 402.9,282.4 		"/>
		<polygon id="Seine-Saint-Denis_2_" class="st9" points="423.9,295.9 423.2,307 422.4,306.9 416.8,304.8 416.4,304.9 415.4,302.3
			412.7,302.9 412.6,302.3 412.2,299.3 		"/>
		<polygon id="Val-de-Marne_2_" class="st5" points="423.2,307 422.8,314.5 412.7,312.5 412.4,307.9 412.6,307.4 414,307.9
			416.9,306 416.4,304.9 416.8,304.8 422.4,306.9 		"/>
		<polygon id="Essonne_2_" class="st6" points="422.8,314.5 421.8,333.5 416.9,336.7 416.9,339.9 416,339.9 397.9,340.6
			396.6,330.8 396.1,327.5 401.8,320.9 400.7,316 408.5,310.4 412.7,312.5 		"/>
		<polygon id="Paris_7_" class="st6" points="416.4,304.9 416.9,306 414,307.9 412.6,307.4 410.6,306.7 409.6,303.6 412.7,302.9
			415.4,302.3 		"/>
		<polygon id="Hauts-de-Seine_1_" class="st5" points="412.6,302.3 412.7,302.9 409.6,303.6 410.6,306.7 412.6,307.4 412.4,307.9
			412.7,312.5 408.5,310.4 405.8,304.9 407.8,300.6 412.2,299.3 		"/>
		<polygon id="Loir-et-Cher_2_" class="st5" points="409.6,381.2 403.3,386.6 409.1,391.3 404.3,402.9 396.3,404.8 392.7,409.2
			385.8,405.6 369.3,410.1 359.8,403 357.5,385.1 349.9,378.9 336.5,376.4 347.9,364.7 346.9,355 351.3,348.8 367.2,361.2
			377.5,359.6 379.7,373.8 386.4,377.1 391.1,381.6 407.6,380 		"/>
		<polygon id="Yelines" class="st5" points="405.8,304.9 408.5,310.4 400.7,316 401.8,320.9 396.1,327.5 396.6,330.8 395.6,331
			391.1,329.1 389.7,324.8 382,316 382.8,305.2 378.2,298.9 377.9,298.8 379.2,296.6 377,291.6 383.2,289.8 407.8,300.6 		"/>
		<polygon id="Indre_2_" class="st6" points="401.8,439.7 406.3,446.3 404,460 387,457.6 385.7,461.1 370.7,461.6 362,461.8
			362.4,458.5 349,446.6 349.4,439.2 353.7,436.9 357.4,420.9 364.8,421.6 370.7,415.1 369.3,410.1 385.8,405.6 392.7,409.2
			388.3,413.8 393.3,416.5 399.8,415.7 405,430.1 		"/>
		<polygon id="Eure-et-Loir" class="st5" points="396.6,330.8 397.9,340.6 397.2,348 392.4,354.4 387.2,355.8 382.5,354.6
			377.5,359.6 367.2,361.2 351.3,348.8 348.3,346.5 346,337.5 354.8,332.3 354.4,324.2 349.8,320.3 348.9,316 371.2,310.2
			377.9,298.8 378.2,298.9 382.8,305.2 382,316 389.7,324.8 391.1,329.1 395.6,331 		"/>
		<polygon id="Haute-Vienne_2_" class="st5" points="392.7,501.1 392,505.7 391.8,507.1 364,520.2 356.9,518.7 353.4,511.3
			346.2,509.9 343.2,512.5 335.9,505 336.5,500.3 344.3,495.3 344,490.6 349.8,488.1 349.1,484.1 345.6,476.8 344.2,472.2
			348.2,467.1 362,461.8 370.7,461.6 372.5,465.8 369.8,472.7 376.9,482.1 376.1,491.2 379.1,496.4 386.8,497.1 		"/>
		<polygon id="Seine-Maritime_2_" class="st5" points="390.5,246.6 391.1,263.7 388,269.9 373.7,266.5 369.5,272.9 357.1,278.2
			354.8,271.9 337.8,263.9 328.7,266.4 319,261.6 325.5,247.6 362.2,235 373.1,226.1 		"/>
		<polygon id="Eure_2_" class="st9" points="388,269.9 388.1,277.9 383.2,289.8 377,291.6 379.2,296.6 377.9,298.8 371.2,310.2
			348.9,316 345.7,313.9 347,310.4 339.9,302 333.8,301.7 332.1,299.5 331.8,297.1 328.7,266.4 337.8,263.9 354.8,271.9
			357.1,278.2 369.5,272.9 373.7,266.5 		"/>
		<polygon id="Dordogne_2_" class="st5" points="371.2,548.9 371.7,555 355.3,575 350.1,572.3 342.8,574.6 335.1,569.7 324.1,571.5
			317.6,562.9 319.7,558.1 317,556.3 314.2,559.6 306.8,556.8 309.6,542.8 304.1,540.2 308.2,534.1 313.1,534.1 318.7,528.7
			318.4,520.2 329.4,513.3 335.9,505 343.2,512.5 346.2,509.9 353.4,511.3 356.9,518.7 364,520.2 365.6,526.8 362,531.2 		"/>
		<polygon id="Indre-et-Loire_2_" class="st5" points="369.3,410.1 370.7,415.1 364.8,421.6 357.4,420.9 353.7,436.9 349.4,439.2
			340.6,423.5 323.8,425.2 324,418.4 313.8,409.7 319.6,396.6 320.3,384.5 328.7,384.5 336.5,376.4 349.9,378.9 357.5,385.1
			359.8,403 		"/>
		<polygon id="Vienne_2_" class="st9" points="362.4,458.5 362,461.8 348.2,467.1 344.2,472.2 345.6,476.8 334.5,480.3 331.3,476.8
			329,477.7 329.3,480.8 313.8,478.6 317.8,477.1 318.6,474.9 313.8,471.7 316.3,466.8 314.9,462.3 309.9,462.7 310.9,429.9
			306.1,416.7 313.8,409.7 324,418.4 323.8,425.2 340.6,423.5 349.4,439.2 349,446.6 		"/>
		<polygon id="Lot-et-Garonne_2_" class="st9" points="355.3,575 354.2,577.8 349.8,578 353.7,589.4 348.9,590.3 345.4,588.7
			344,593.3 346.4,595.9 344.8,604.2 334.9,610.7 331.6,607.4 325,608 323.3,611.1 306.6,611.5 308.4,603.4 298.5,602.3
			297.3,597.2 301.8,595.4 305.6,587.9 313.3,570.1 309.9,567.7 310.7,565.6 317.6,562.9 324.1,571.5 335.1,569.7 342.8,574.6
			350.1,572.3 		"/>
		<polygon id="Orne_2_" class="st5" points="354.4,324.2 354.8,332.3 346,337.5 348.3,346.5 336.5,342.1 330.7,337.4 328.7,328.1
			322,327.2 316,332.7 312.2,332.1 305.6,320.8 293.3,323.5 281.9,327.6 276,322.3 280.3,321.4 283.3,312 279.7,308 297.4,300.9
			309.2,304.3 320.9,297 331.8,297.1 332.1,299.5 333.8,301.7 339.9,302 347,310.4 345.7,313.9 348.9,316 349.8,320.3 		"/>
		<polygon id="Sarthe_2_" class="st5" points="351.3,348.8 346.9,355 347.9,364.7 336.5,376.4 328.7,384.5 320.3,384.5 295.5,371.4
			296.3,363.3 307.3,343.5 307.5,335.9 312.2,332.1 316,332.7 322,327.2 328.7,328.1 330.7,337.4 336.5,342.1 348.3,346.5 		"/>
		<polygon id="Charente_2_" class="st5" points="349.1,484.1 349.8,488.1 344,490.6 344.3,495.3 336.5,500.3 335.9,505 329.4,513.3
			318.4,520.2 318.7,528.7 313.1,534.1 308.2,534.1 293.6,523.8 295.5,513.8 289.1,506.4 288.3,498.7 301.2,497.7 304.9,485.6
			307.5,480.9 313.8,478.6 329.3,480.8 329,477.7 331.3,476.8 334.5,480.3 345.6,476.8 		"/>
		<polygon id="Calvados_2_" class="st5" points="328.7,266.4 331.8,297.1 320.9,297 309.2,304.3 297.4,300.9 279.7,308 271.5,305.8
			267.3,300.5 279.2,287.2 269,273.5 269.8,268.1 275.3,266.7 279.3,268.7 298.3,271.5 305.7,275.7 		"/>
		<polygon id="Maine-et-Loire_2_" class="st5" points="320.3,384.5 319.6,396.6 313.8,409.7 306.1,416.7 286.6,415.4 283.5,420.4
			271.2,417.8 261.8,415.8 257.5,395.9 269.6,394.2 269.6,386.9 258.9,368.7 285.6,372.8 295.5,371.4 		"/>
		<polygon id="Gironde_2_" class="st5" points="319.7,558.1 317.6,562.9 310.7,565.6 309.9,567.7 313.3,570.1 305.6,587.9
			301.8,595.4 297.3,597.2 292.8,599.1 286.5,597.7 285,591.9 273.6,580.7 259.3,583.1 259.2,578.6 255.6,576 246.8,579.6
			247,577.3 250.9,573 258.7,573 259.2,569.4 252.3,561 246.8,567.8 254.9,511.2 257.3,510.3 258.5,516.1 269.6,523.6 274.4,540.3
			275.9,537.8 273.7,526.1 287.2,529.1 288,536.1 304.1,540.2 309.6,542.8 306.8,556.8 314.2,559.6 317,556.3 		"/>
		<polygon id="Deux-Sèvres_2_" class="st5" points="318.6,474.9 317.8,477.1 313.8,478.6 307.5,480.9 304.9,485.6 301.2,484.4
			300.6,481.7 278.4,471.3 275.9,464 285.6,459 281.2,437.2 271.2,417.8 283.5,420.4 286.6,415.4 306.1,416.7 310.9,429.9
			309.9,462.7 314.9,462.3 316.3,466.8 313.8,471.7 		"/>
		<polygon id="Mayenne_2_" class="st9" points="305.6,320.8 312.2,332.1 307.5,335.9 307.3,343.5 296.3,363.3 295.5,371.4
			285.6,372.8 258.9,368.7 264.1,356.1 269.6,354.6 267.3,338.6 269.6,334 268,321.8 273.3,322.9 276,322.3 281.9,327.6
			293.3,323.5 		"/>
		<polygon id="Charente-Maritime_2_" class="st9" points="308.2,534.1 304.1,540.2 288,536.1 287.2,529.1 273.7,526.1 272.1,517.7
			252.2,502.3 250.7,489.6 245.7,485.9 246.2,478.2 254.4,488.6 258.4,490.6 261.3,479.6 237.5,465.8 242.5,462.7 255,470.4
			257.4,463.9 264.1,459.9 275.9,464 278.4,471.3 300.6,481.7 301.2,484.4 304.9,485.6 301.2,497.7 288.3,498.7 289.1,506.4
			295.5,513.8 293.6,523.8 		"/>
		<polygon id="Tarn-et-Garonne_2_" class="st5" points="388.3,607.4 393.1,603.9 390.2,592 384.1,593.8 377.7,599.1 367.9,599.7
			359.6,596.1 353.7,589.4 348.9,590.3 345.4,588.7 344,593.3 346.4,595.9 344.8,604.2 334.9,610.7 347.1,625.5 347.1,625.5
			347.1,625.5 357.2,625.2 359.4,627.8 365.7,624.3 365.6,622.5 365.6,620.7 374.6,620.3 380.7,613.4 380.2,610.7 380.2,610.7
			379.9,609 		"/>
		<polygon id="Aude_2_" class="st6" points="407.5,649.1 405.3,653.1 396,650.4 390.5,652 388.3,649.1 385.8,652 383.3,655.7
			378.5,661.5 391.3,669.7 393.7,685.5 388.3,687 386.8,689.2 393.8,695.1 397.9,693 402.8,698.9 411.3,694.4 409.6,688.3
			430.4,688.5 434.8,683.2 443.1,688 443.3,675.4 438.5,672.3 440.3,669.5 444.5,672.6 449.8,666 435.4,657 432.4,660.9 429,663.1
			423.5,659.9 420,655.3 421.1,650.4 		"/>
		<polygon id="Pyrénées-Orientales_2_" class="st5" points="430.4,688.5 409.6,688.3 411.3,694.4 402.8,698.9 380.7,705.9
			383.8,710.8 390.9,713.1 391.1,717 397.2,719.7 401,715.9 405.6,715.9 416.9,723.5 425,723.5 434,714.1 440.8,712.5 444.2,715.3
			448.3,716.6 448.3,710.7 444.2,706.2 443.1,688 434.8,683.2 		"/>
		<polygon id="Tarn_2_" class="st7" points="374.6,620.3 396.1,646.2 396,650.4 405.3,653.1 407.5,649.1 421.1,650.4 425.8,648.9
			427.1,644.9 423.7,641.8 426.5,635.9 429.6,638.1 438.9,634.9 434.9,630.3 425.7,630 418.6,613.4 402.2,602.4 393.1,603.9
			388.3,607.4 379.9,609 380.2,610.7 380.7,613.4 		"/>
		<polygon id="Ariège_2_" class="st8" points="397.9,693 393.8,695.1 386.8,689.2 388.3,687 393.7,685.5 391.3,669.7 378.5,661.5
			370.6,659.4 364.1,657.6 362.1,659.7 365.6,663.2 360.6,671.2 354.5,668.2 347.3,671.1 348.3,677.1 340.7,682.4 340.7,689.1
			350.4,693 354,699.5 362,699.5 367.1,703.4 378.5,702.2 380.7,705.9 402.8,698.9 		"/>
		<polygon id="Haute-Garonne_2_" class="st7" points="348.3,677.1 347.3,671.1 354.5,668.2 360.6,671.2 365.6,663.2 362.1,659.7
			364.1,657.6 370.6,659.4 378.5,661.5 383.3,655.7 385.8,652 388.3,649.1 390.5,652 396,650.4 396.1,646.2 374.6,620.3
			365.6,620.7 365.7,624.3 359.4,627.8 357.2,625.2 347.1,625.5 357.9,638.5 352.3,642.8 347.6,653.5 343.1,651.2 337.2,650.6
			331,656.9 323.1,668.7 330.6,680.3 326.6,685.4 321.7,683.2 322.6,695 319.7,695.7 331.5,696.8 332,686.1 340.7,689.1
			340.7,682.4 		"/>
		<polygon id="Gers_2_" class="st5" points="304.9,617.7 302,613 291,616.7 294.7,622.2 291.3,637.3 297,638.2 302.6,637.1
			307.5,642.6 310.4,650.8 331,656.9 337.2,650.6 343.1,651.2 347.6,653.5 352.3,642.8 357.9,638.5 347.1,625.5 342,619.3
			334.9,610.7 331.6,607.4 325,608 323.3,611.1 306.6,611.5 306.6,617.3 		"/>
		<polygon id="Hautes-Pyrénées_2_" class="st8" points="321.7,683.2 326.6,685.4 330.6,680.3 323.1,668.7 331,656.9 310.4,650.8
			307.5,642.6 302.6,637.1 297,638.2 303,653.1 288.2,672.1 285.6,684.8 292.6,689.5 298.6,695.9 307.6,692.9 313.5,697.2
			319.7,695.7 322.6,695 		"/>
		<polygon id="Landes_2_" class="st5" points="291.3,637.3 294.7,622.2 291,616.7 302,613 304.9,617.7 306.6,617.3 306.6,611.5
			308.4,603.4 298.5,602.3 297.3,597.2 292.8,599.1 286.5,597.7 285,591.9 273.6,580.7 259.3,583.1 259.2,578.6 255.6,576
			246.8,579.6 234.6,632.3 231.3,637.8 238.8,640.9 		"/>
		<polygon id="Pyrénées-Atlantiques_2_" class="st8" points="215.9,647.4 215.9,651.3 235,657.6 234.3,664.2 231.6,665.7
			237.5,672.2 239.6,667.3 258,677.1 265.3,677.2 265.7,681.8 272.8,688 285.6,684.8 288.2,672.1 303,653.1 297,638.2 291.3,637.3
			238.8,640.9 231.3,637.8 225.3,645.5 225.3,645.5 		"/>
		<polygon id="Vendée_2_" class="st6" points="281.2,437.2 285.6,459 275.9,464 264.1,459.9 257.4,463.9 228.5,448.9 216,427.8
			216.1,422.6 223.4,413.8 235.7,424.6 244.9,424.5 242.7,417.1 246.1,415.5 247.7,422 256.8,413.8 261.8,415.8 271.2,417.8 		"/>
		<polygon id="Manche_2_" class="st5" points="279.7,308 283.3,312 280.3,321.4 276,322.3 273.3,322.9 268,321.8 263.3,320.8
			256.1,325.4 250.6,321.6 248.7,314.6 255,312.5 247,302.4 249.9,296.7 247.5,277.4 239.4,262.9 239.4,249 234.8,245.4
			235.7,243.5 248.4,249.7 252.9,247.5 264.1,247.5 266.1,253.4 261.9,256.5 269.8,268.1 269,273.5 279.2,287.2 267.3,300.5
			271.5,305.8 		"/>
		<polygon id="Loire-Atlantique_2_" class="st5" points="269.6,386.9 269.6,394.2 257.5,395.9 261.8,415.8 256.8,413.8 247.7,422
			246.1,415.5 242.7,417.1 244.9,424.5 235.7,424.6 223.4,413.8 218.1,409.7 211.4,408.4 213.9,405.6 213.9,399.5 199.1,397
			203.8,386.8 221.9,381.8 223.4,375 240.3,372.1 249.6,364.5 258.9,368.7 		"/>
		<polygon id="Ille-et-Vilaine_2_" class="st6" points="267.3,338.6 269.6,354.6 264.1,356.1 258.9,368.7 249.6,364.5 240.3,372.1
			223.4,375 220.5,367.8 225.2,361.9 221.5,352.4 214.4,352.4 217.6,344.4 221.2,335.5 231.1,334.2 233.4,320.3 230.2,316
			229.3,310.7 231.4,308.4 236.7,308.6 238,314.5 248.7,314.6 250.6,321.6 256.1,325.4 263.3,320.8 268,321.8 269.6,334 		"/>
		<polygon id="Côtes-d_x27_Armor_2_" class="st6" points="230.2,316 233.4,320.3 231.1,334.2 221.2,335.5 217.6,344.4 213.4,344.1
			208,340.6 202.8,345.7 183,336.9 176.8,340.6 163.7,335.5 160.8,308.4 161.5,304.1 162.9,295.9 185.8,294.6 194.4,312.2 199,316
			215.4,309 229.3,310.7 		"/>
		<polygon id="Morbihan_2_" class="st6" points="221.5,352.4 225.2,361.9 220.5,367.8 223.4,375 221.9,381.8 203.8,386.8
			189.8,383.5 176.2,376.5 160.9,363.2 162,358.9 167.4,356.9 168.5,352.6 157.3,348.4 154.7,339.3 163.7,335.5 176.8,340.6
			183,336.9 202.8,345.7 208,340.6 213.4,344.1 217.6,344.4 214.4,352.4 		"/>
		<polygon id="Finistère_2_" class="st5" points="168.5,352.6 167.4,356.9 162,358.9 160.9,363.2 146.2,360.8 134.9,354.8
			133.8,358.5 125.4,358.1 125.7,354.8 120.1,343.8 112.2,342 112.3,339.1 129.6,338.4 130.4,333.9 116.1,326.6 119.8,324.7
			133.6,327 124.5,321.5 110.6,322.4 113.6,308.2 139.5,300.8 149.8,304.6 152,302.2 161.5,304.1 160.8,308.4 163.7,335.5
			154.7,339.3 157.3,348.4 		"/>
		<polygon id="XMLID_3516_" class="st5" points="419.5,521.4 420.1,525.6 416.6,527.1 412.5,523.6 405.4,536 404,545.2 399.7,552.1
			386.3,555.4 382.1,549.2 376.5,546.6 371.2,548.9 362,531.2 365.6,526.8 364,520.2 391.8,507.1 392,505.7 405,504 409.6,507.6
			419.4,503.9 418.3,510.7 419.6,515.3 		"/>
		<polygon id="XMLID_3515_" class="st5" points="399.7,552.1 403.2,574.4 401,577.3 389.1,583.9 390.2,592 384.1,593.8 377.7,599.1
			367.9,599.7 359.6,596.1 353.7,589.4 349.8,578 354.2,577.8 355.3,575 371.7,555 371.2,548.9 376.5,546.6 382.1,549.2
			386.3,555.4 		"/>
		<polygon id="Loiret_2_" class="st5" points="438.5,346.8 447.1,361.2 441,367 442.5,372.5 438.5,375 435,374.6 439.7,386.9
			435.3,388.2 436.1,390.8 427.8,392.6 409.6,381.2 407.6,380 391.1,381.6 386.4,377.1 379.7,373.8 377.5,359.6 382.5,354.6
			387.2,355.8 392.4,354.4 397.2,348 397.9,340.6 416,339.9 416.9,339.9 416.8,341.1 420.8,344.5 417.5,350.6 419.4,352.4
			433.4,351 		"/>
	</g>
	<polygon id="FRANCE_4_" class="st10" points="656.2,609.8 656.2,609.8 655,596.9 638.1,600.7 619,587.4 617.8,579.5 618.8,578.6
		622.7,574.7 622.5,568.3 622.2,568 626.4,564.1 626.4,564.1 622.5,555.4 611.6,552.7 604.9,539.6 604.9,539.6 616.3,538.5
		626.3,530.9 629,520.2 629,520.2 610.1,495.6 610.1,495.6 611.9,493.6 619.4,490.6 619.5,488.7 619.6,487.8 619.9,483.6
		609.3,470.3 609.3,470.3 611.7,467.7 611.7,467.7 607.6,457.6 591.2,461.6 588.5,459.7 584.3,465.3 584.3,465.3 586.9,469.3
		579.6,474.7 572.5,474.6 572.5,470.4 579,468.3 581.9,459.5 577.1,457.8 578.2,448.4 592.1,434.3 592.1,434.3 591.1,423.8
		591.1,423.8 599.6,419.9 601,418.1 617.8,396.2 617.8,396.2 617.8,396.2 614.8,388.9 619.4,387.9 620,387.6 622.5,391.3
		631.2,391.3 635.2,387.8 637.7,380.2 633.4,373.3 638.3,355.6 636,345.6 641.8,334.4 644.6,312.1 650.3,308 661,291 648.6,285.9
		635.6,286.6 628.6,279.9 623,279.8 619.9,282.6 612.5,282.7 606.2,277.9 602.1,277.9 601.1,280.9 597.1,281.3 589.8,266
		581.9,262.7 576,260.3 572.6,260.5 563.7,262.9 557,258 543.8,260.4 538.6,256.6 536.7,251.2 518.6,243.8 518.2,221 514,221
		509.8,230.8 499.7,235.1 492.4,232.6 488,232.6 487.5,231 491.8,227.8 491.5,216 483.7,208.7 471.4,209.3 470.1,211.4 468.5,211.4
		469,203.7 461.2,198.2 456.9,200.1 452.4,198.1 451.4,186.5 447.5,181.7 439.2,183.6 433.9,186.8 431.5,182.2 429.3,179.7
		425,177.3 426.5,171.2 422.8,162.2 404.3,167.2 392.2,169.4 382.5,176.7 382.2,207.2 373.2,226.1 362.3,235 325.6,247.6
		319.1,261.6 328.8,266.4 305.9,275.7 298.5,271.5 279.3,268.7 275.3,266.7 269.8,268.1 261.9,256.5 266.1,253.4 264.1,247.5
		252.9,247.5 248.4,249.7 235.7,243.5 234.8,245.4 239.4,249 239.4,262.9 247.5,277.4 249.9,296.7 247.2,302.4 255.2,312.5
		248.9,314.6 238.1,314.5 236.8,308.6 231.6,308.4 229.5,310.7 215.5,309 199.1,316 194.5,312.2 185.9,294.6 163.1,295.9
		161.7,304.1 152.1,302.2 149.9,304.6 139.6,300.8 113.8,308.2 110.8,322.4 124.6,321.5 133.8,327 120,324.7 116.3,326.6
		130.6,333.9 129.7,338.4 112.4,339.1 112.4,342 120.2,343.8 125.9,354.8 125.6,358.1 133.9,358.5 135,354.8 146.4,360.8 161,363.2
		175.8,376.2 190,383.5 204,386.8 199.1,397 213.9,399.5 213.9,405.6 211.4,408.4 218.1,409.7 223.4,413.8 216.1,422.6 216,427.8
		228.5,448.9 257.5,463.9 255.1,470.4 242.6,462.7 237.6,465.8 261.4,479.6 258.5,490.6 254.6,488.6 246.3,478.2 245.8,485.9
		250.8,489.6 252.4,502.3 272.3,517.7 273.9,526.1 276.1,537.8 274.6,540.3 269.8,523.6 258.7,516.1 257.5,510.3 255.1,511.2
		254,519.5 247,567.8 252.4,561 259.2,569.4 258.7,573 250.9,573 247,577.3 247,581.1 234.7,633 231.4,638.2 225.3,645.5
		215.9,647.4 215.9,651.3 235,657.6 234.3,664.2 231.6,665.7 237.5,672.2 239.6,667.3 258.1,677.1 262.5,677.2 262.7,677.2
		265.4,677.2 265.4,677.2 265.4,677.2 265.8,681.8 272.3,687.5 273,688 273,688 285.7,684.8 292.7,689.5 298.7,695.9 307.8,692.9
		313.7,697.3 319.9,695.7 331.6,696.9 332,686.1 340.7,689.1 350.4,693 354,699.5 362,699.5 367.1,703.4 378.5,702.2 384.1,711.1
		391,713.3 391.1,717 397.2,719.7 401,715.9 405.6,715.9 416.9,723.5 425,723.5 434,714.1 440.8,712.5 444.2,715.3 448.3,716.6
		448.3,710.7 444.2,706.6 443.2,688.2 443.5,675.5 438.7,672.4 440.5,669.5 444.7,672.6 450,666 486.4,643.4 490.5,643.7
		492.8,648.3 500.5,648.2 516.6,649.4 513.7,653.4 523.9,657.4 529.7,655.6 527.1,650.7 532.6,651.5 536.3,655.7 550.5,655.2
		552.7,663.1 567.1,667.1 573.2,673.5 580.6,669.8 588.7,670.6 598.6,669.3 613.3,661.3 612.3,654.8 624.6,643.9 633,638.3
		633.3,631.5 638.3,631.1 650.9,622.5 650.9,622.5 651.4,611.3 	"/>
</g>
</svg>
