<?xml version="1.0" encoding="utf-8"?>
<!-- Generator: Adobe Illustrator 19.1.0, SVG Export Plug-In . SVG Version: 6.00 Build 0)  -->
<svg version="1.1" id="Calque_1" xmlns="http://www.w3.org/2000/svg" xmlns:xlink="http://www.w3.org/1999/xlink" x="0px" y="0px"
	 viewBox="79 -4 769 801" style="enable-background:new 79 -4 769 801;" xml:space="preserve">
<style type="text/css">
	.st0{fill:#EDE6D8;stroke:#FFFFFF;stroke-miterlimit:10;}
	.st1{fill:#CCEDEE;}
	.st2{fill:#40BCC1;}
	.st3{fill:#FFFFFF;}
	.st4{fill:#7FD2D5;}
	.st5{fill:#A6E0E2;}
	.st6{fill:#0AA9AF;}
	.st7{fill:#00A5AC;}
	.st8{fill:none;stroke:#FFFFFF;stroke-miterlimit:10;}
	.st9{fill:none;}
	.st10{enable-background:new    ;}
	.st11{fill:#FFFFFF;stroke:#EDE6D8;stroke-miterlimit:10;}
</style>
<g>
	<g id="XMLID_32_">
		<g id="XMLID_35_">
			<rect id="XMLID_36_" x="79.9" y="-3.5" class="st0" width="767.3" height="800"/>
		</g>
	</g>
	<g>
		<polygon id="Var_4_" class="st1" points="687.6,619.5 702.9,640.8 690.6,651.7 691.6,658.2 676.9,666.2 667,667.5 658.9,666.7 
			651.5,670.4 645.4,664 648.6,655.9 644.9,651.4 649.5,646.6 644.9,637.8 648.8,626.1 660,628.8 		"/>
		<polygon id="Bouches-du-Rhône_3_" class="st2" points="644.9,637.8 649.5,646.6 644.9,651.4 648.6,655.9 645.4,664 631,660 
			628.8,652.1 614.6,652.6 610.9,648.4 605.5,647.6 608,652.5 602.2,654.3 592,650.3 594.9,646.3 578.8,645.1 588.1,629.9 
			594.5,629.3 596.5,618.4 605.2,613.6 605.2,616.1 616.9,625.1 636.6,630.6 648.8,626.1 648.8,626.1 		"/>
		<polygon id="Dôme_1_" class="st3" points="648.8,565.2 640.1,568 638.5,574.8 640.9,576.7 638.5,579.6 631.9,577.7 631,585.7 
			642.7,592.1 642,598.9 635.7,602.1 628.7,596.6 619.8,595.8 613,590.7 614.1,585.9 611.1,583 605.6,586.9 608.4,593.2 
			604.4,595.2 598.7,589.9 597.3,579.5 600.5,571.2 605.5,551.1 600.8,534.5 601.2,525.8 603.5,527.7 609.3,524.6 619,531.4 
			617.2,540.4 628.2,543.9 632,540.8 632.1,558.6 		"/>
		<polygon id="Vaucluse_4_" class="st1" points="648.8,626.1 636.6,630.6 616.9,625.1 605.2,616.1 605.2,613.6 605.2,610.8 
			598.7,604.2 598.8,599.3 592.9,590.7 592.9,590.6 598.7,589.9 604.4,595.2 608.4,593.2 605.6,586.9 611.1,583 614.1,585.9 
			613,590.7 619.8,595.8 628.7,596.6 635.7,602.1 637.7,618.7 647.1,625.7 		"/>
		<polygon id="Haute-Marne_4_" class="st3" points="643,358.4 634.9,367.3 634.9,375.4 623.4,376 623.3,379.6 617.4,381.4 
			613.5,375.9 604.5,375.2 605.3,367.1 593.8,354.6 593.5,353 592.7,349.3 599.3,347 597.9,333.6 594.1,332.2 590.2,326.6 
			590.2,321.6 594,321.7 598.7,318.4 599.4,312.9 603,312.1 604.6,316.3 623.8,328.5 623.3,332.6 636.5,342.4 633.2,349.6 		"/>
		<polygon id="Marne_4_" class="st4" points="542.6,316.8 539.6,315.9 540.1,301.8 548.8,291.5 551,282.5 547.2,272.7 563.4,268.4 
			597.2,276.9 600.3,275.4 605.7,290 599.9,303.5 603,312.1 599.4,312.9 598.7,318.4 594,321.7 590.2,321.6 578.8,321.4 
			574.5,310.9 571.2,310.6 552.9,319.8 		"/>
		<polygon id="Ardèche_4_" class="st3" points="600.8,534.5 605.5,551.1 600.5,571.2 597.3,579.5 598.7,589.9 592.9,590.6 
			578.8,592.3 568.8,590.7 565.1,583.2 564.3,581.6 561.2,572.9 559.3,564.2 568.2,555.1 573.4,555.1 585.2,537.5 586.5,532.2 
			598.6,523.6 601.2,525.8 		"/>
		<polygon id="Gard_4_" class="st2" points="605.2,610.8 605.2,613.6 596.5,618.4 594.5,629.3 588.1,629.9 578.8,645.1 571.1,645.2 
			568.8,640.6 574.7,635.8 572.4,627.3 558.6,620 556.7,613.3 553.1,612.8 546.9,620.7 536.4,616.2 542.1,612.6 539.6,608.1 
			532.7,605.9 536.3,600.1 543,604.6 549.8,602.1 554.7,602.7 560.5,603.4 563.1,599.4 563.4,589.4 560.3,586 565.1,583.2 
			568.8,590.7 578.8,592.3 592.9,590.6 592.9,590.7 598.8,599.3 598.7,604.2 		"/>
		<polygon id="Aube_4_" class="st2" points="597.9,333.6 599.3,347 592.7,349.3 593.5,353 593.4,353 586.1,356.8 576.3,360.1 
			573.3,360 558.9,359.9 545.4,344.5 546.1,338.5 540.5,332.6 536.6,332.4 536.4,331.3 537.5,320.7 542.6,316.8 552.9,319.8 
			571.2,310.6 574.5,310.9 578.8,321.4 590.2,321.6 590.2,326.6 594.1,332.2 		"/>
		<polygon id="Loire_4_" class="st2" points="599.3,516.6 598.6,523.6 586.5,532.2 573.7,521.8 566.4,526 561.3,524.2 563.9,517.4 
			562,510.2 556.3,506.4 551.4,497.1 554.1,490.4 549.7,486.2 556.1,485.3 555.8,473.7 554.2,469.8 554.9,467.4 559.5,467 
			565.1,472.7 582.3,468.5 584.6,473.1 582.4,475.1 578,475.1 576.3,480.1 579.1,490.3 582.4,493.8 580.6,503.9 		"/>
		<polygon id="Haute-Loire_4_" class="st1" points="586.5,532.2 585.2,537.5 573.4,555.1 568.2,555.1 559.3,564.2 554.8,558.4 
			541,559.9 536.6,548.4 530,531 524.6,529.6 523,526.7 522.7,526.3 523.9,525.4 541.5,521.2 548.1,525.8 560.7,525.8 561.3,524.2 
			566.4,526 573.7,521.8 		"/>
		<polygon id="Yonne_4_" class="st3" points="573.3,360.7 576.8,371.4 566.1,395.2 567.2,397.7 563.4,399.9 545,388.3 534.3,389.7 
			518.2,383.9 513.5,371.6 517,371.9 520.9,369.4 519.4,363.9 525.6,358.1 517,343.7 522.1,339.4 520.3,337.4 525.2,332.4 
			536.4,331.3 536.6,332.4 540.5,332.6 546.1,338.5 545.4,344.5 558.9,359.9 573.3,360 		"/>
		<polygon id="Hérault_4_" class="st4" points="572.4,627.3 574.7,635.8 568.8,640.6 564.8,640.3 528.3,662.9 513.9,653.9 
			510.9,657.8 507.4,660 502,656.8 498.4,652.2 499.5,647.3 504.2,645.8 505.5,641.8 502.2,638.7 505,632.9 508,635 517.4,631.8 
			523,629.9 522.7,621.2 529.5,623.1 536.4,616.2 546.9,620.7 553.1,612.8 556.7,613.3 558.6,620 		"/>
		<polygon id="Nièvre_4_" class="st1" points="567.2,397.7 572.7,410.6 565,412.7 567.2,433.1 554.8,437.8 551.9,436.1 
			548.1,437.5 541.8,441.7 528.2,440.7 521.9,436 522.1,433.2 523,420.7 515.2,400 516.5,394.6 514.6,387.7 514.5,387.7 
			513.8,385.1 518.2,383.9 534.3,389.7 545,388.3 563.4,399.9 		"/>
		<polygon id="Lozère_4_" class="st5" points="564.3,581.6 565.1,583.2 560.3,586 563.4,589.4 563.1,599.4 560.5,603.4 
			554.7,602.7 549.8,602.1 543,604.6 536.3,600.1 530.6,597 526.2,582.2 518.9,570 525.3,553.2 529.8,554.4 536.6,548.4 541,559.9 
			554.8,558.4 559.3,564.2 561.2,572.9 		"/>
		<polygon id="Puy-de-Dôme_4_" class="st1" points="562,510.2 563.9,517.4 561.3,524.2 560.7,525.8 548.1,525.8 541.5,521.2 
			523.9,525.4 522.7,526.3 520.2,528.1 511.6,521.9 506.7,523.2 504,519.2 498,518.3 498,512.2 496.7,507.6 497.8,500.8 
			492.9,494.2 502.8,485.5 500.1,475.1 504,477.7 513.5,468 516.9,468 515.9,471.4 525.2,479 534.6,480 538.4,478.7 549.7,486.2 
			554.1,490.4 551.4,497.1 556.3,506.4 		"/>
		<polygon id="Allier_4_" class="st1" points="563.4,453.1 563.3,463.1 559.5,467 554.9,467.4 554.2,469.8 555.8,473.7 556.1,485.3 
			549.7,486.2 538.4,478.7 534.6,480 525.2,479 515.9,471.4 516.9,468 513.5,468 504,477.7 500.1,475.1 497.5,465.4 490.4,462 
			487.6,456.3 490.6,450.7 495.1,449.9 499.9,450.7 502.9,448.1 500.6,442.6 507.6,436.3 509.2,439.6 516.7,432.7 521.7,433.2 
			522.1,433.2 521.9,436 528.2,440.7 541.8,441.7 548.1,437.5 552.5,449.2 		"/>
		<polygon id="Seine-et-Marne_4_" class="st3" points="542.6,316.8 537.5,320.7 536.4,331.3 525.2,332.4 520.3,337.4 522.1,339.4 
			517,343.7 511.9,347.9 497.9,349.3 495.9,347.5 499.3,341.4 495.3,338 495.3,336.8 495.4,333.6 500.3,330.5 501.3,311.4 
			501.7,303.9 502.3,292.8 502.6,288 518.8,287.1 523.1,285.4 527.5,292 540.1,301.8 539.6,315.9 		"/>
		<polygon id="Aveyron_4_" class="st1" points="539.6,608.1 542.1,612.6 536.4,616.2 529.5,623.1 522.7,621.2 523,629.9 
			517.4,631.8 513.3,627.2 504.2,626.9 497.1,610.3 480.7,599.3 471.6,600.8 468.7,588.9 467.6,580.8 479.5,574.2 481.7,571.3 
			484.1,571.6 489.1,568.6 496.6,569.6 501.6,556 508.5,551.7 513.4,555.2 515.5,561.4 518.9,570 526.2,582.2 530.6,597 
			536.3,600.1 532.7,605.9 		"/>
		<polygon id="Cantal_4_" class="st1" points="530,531 536.6,548.4 529.8,554.4 525.3,553.2 518.9,570 515.5,561.4 513.4,555.2 
			508.5,551.7 501.6,556 496.6,569.6 489.1,568.6 484.1,571.6 481.7,571.3 478.1,549 482.4,542.1 483.8,532.9 490.9,520.5 
			495.1,524 498.6,522.5 498,518.3 504,519.2 506.7,523.2 511.6,521.9 520.2,528.1 522.7,526.3 523,526.7 524.6,529.6 		"/>
		<polygon id="Bas-Rhin_4_" class="st6" points="720.3,331.4 723.1,309 728.8,304.9 739.5,287.9 727.1,282.8 714.1,283.5 
			710.8,291.6 701.6,291 690,285.9 686,293.5 701.7,301.8 701,309.9 695.7,318.3 693.1,317.5 693.1,321.7 694.3,330 697.1,331.7 
			714.5,342.5 		"/>
		<polygon id="Alpes-Maritimes_4_" class="st2" points="729.7,608.2 734.6,606.7 733.3,593.8 716.5,597.6 697.3,584.4 691.4,590.6 
			689.4,598.6 700.8,611.3 690,614.6 687.6,619.5 688.5,620.7 702.9,640.8 711.3,635.2 711.6,628.4 716.6,628 729.2,619.4 
			729.2,619.4 		"/>
		<polygon id="Haut-Rhin_4_" class="st4" points="694.1,378 698.3,384.4 700.8,388.1 709.5,388 713.7,384.7 716.2,377.1 
			716.2,377.1 711.8,370.2 716.8,352.6 714.5,342.5 697.1,331.7 685.2,364.7 693.3,369.4 		"/>
		<polygon id="Moselle_4_" class="st6" points="651,257.4 642.2,259.8 645.6,283.6 642.9,286.4 652.3,295 657,295.5 661.9,303.5 
			693.1,317.5 695.7,318.3 701,309.9 701.7,301.8 686,293.5 690,285.9 701.6,291 710.8,291.6 714.1,283.5 707.1,276.9 701.5,276.7 
			698.4,279.5 690.9,279.6 684.6,274.8 680.5,274.8 679.6,277.8 675.8,278.2 668.2,262.9 660.2,259.6 654.3,257.2 		"/>
		<polygon id="Savoie_4_" class="st1" points="676.5,486.6 673.2,489.8 668.5,500.4 664.7,501.1 659.6,496.3 656.7,497.5 
			648.8,493.5 644.9,482.1 643.5,499.9 637.5,506.3 648.4,518.3 651.5,514 663.4,520.6 660.4,529.4 665.6,535.1 665.3,537.2 
			677.2,537.2 683.3,536.6 694.7,535.4 704.6,527.8 707.3,517.1 688.5,492.5 685.3,496.2 		"/>
		<polygon id="Hautes-Alpes_3_" class="st4" points="653,586.8 662.2,578.3 669.1,583.5 672.7,578.6 685.4,579.1 700.6,564.9 
			704.7,561.1 700.8,552.3 689.9,549.6 683.3,536.6 677.2,537.2 665.3,537.2 664.4,542.8 670.5,547.2 672.2,552.9 648.8,565.2 
			646.7,565.9 640.1,568 638.5,574.8 640.9,576.7 638.5,579.6 631.9,577.7 631,585.7 642.7,592.1 642,598.9 653.1,596 		"/>
		<polygon id="Alpes-de-Haute-Provence_4_" class="st1" points="690,614.6 700.8,611.3 689.4,598.6 691.4,590.6 697.3,584.4 
			696.1,576.4 701,571.6 700.8,565.2 700.6,564.9 685.4,579.1 672.7,578.6 669.1,583.5 662.2,578.3 653,586.8 653.1,596 642,598.9 
			635.7,602.1 637.7,618.7 647.1,625.7 648.8,626.1 648.8,626.1 660,628.8 683.4,620.9 687.6,619.5 		"/>
		<polygon id="Territoire_de_Belfort_4_" class="st6" points="697.7,384.8 698.3,384.4 694.1,378 693.3,369.4 685.2,364.7 
			681.4,367 680.5,380 693.1,385.8 		"/>
		<polygon id="Haute-Savoie_4_" class="st5" points="687.6,467.3 690,464.6 685.9,454.6 669.5,458.5 666.8,456.6 662.6,462.2 
			665.2,466.2 658,471.6 650.9,471.6 650.9,473.3 645.4,475 644.9,482.1 644.9,482.1 648.8,493.5 656.7,497.5 659.6,496.3 
			664.7,501.1 668.5,500.4 673.2,489.8 676.5,486.6 685.3,496.2 688.5,492.5 690.2,490.5 697.7,487.5 697.8,485.6 698.2,480.5 		"/>
		<polygon id="Vosges_4_" class="st5" points="655.1,353.5 659.4,357.9 685.2,364.7 697.1,331.7 694.3,330 693.1,321.7 681,326.6 
			654.6,327.7 651.9,330.5 646,330.8 637.1,322.8 623.8,328.5 623.3,332.6 636.5,342.4 633.2,349.6 643,358.4 649.8,353.2 		"/>
		<polygon id="Doubs_4_" class="st4" points="639.7,415.9 649.7,417.8 650,425.5 657,427.7 659.8,433.3 654.4,436.5 656.7,445.3 
			670.6,431.2 670.2,420.7 678.4,416.8 696.1,393.1 693.1,385.8 680.5,380 674.8,385.1 666.8,383.8 637.5,399.5 642.6,408.3 		"/>
		<polygon id="Meurthe-et-Moselle_4_" class="st4" points="661.9,303.5 657,295.5 652.3,295 642.9,286.4 645.6,283.6 642.2,259.8 
			636.8,255.9 635.3,254.8 622.1,257.2 624.9,264.3 630.7,263.1 635.1,271.1 640.1,294.3 637.1,322.8 646,330.8 651.9,330.5 
			654.6,327.7 681,326.6 693.1,321.7 693.1,317.5 		"/>
		<polygon id="Haute-Saône_4_" class="st3" points="623.3,389.7 628.6,396.9 632.1,401.6 637.5,399.5 666.8,383.8 674.8,385.1 
			680.5,380 681.4,367 685.2,364.7 659.4,357.9 655.1,353.5 649.8,353.2 643,358.4 634.9,367.3 634.9,375.4 623.4,376 623.3,379.6 
			627.7,383.9 		"/>
		<polygon id="Isère_4_" class="st5" points="672.2,552.9 670.5,547.2 664.4,542.8 665.3,537.2 665.6,535.1 660.4,529.4 
			663.4,520.6 651.5,514 648.4,518.3 637.5,506.3 624.1,490.5 619.8,497.1 613,495.7 615.9,500.7 611.1,506.8 601.1,509.5 
			603.9,514.4 599.3,516.6 598.6,523.6 601.2,525.8 603.5,527.7 609.3,524.6 619,531.4 617.2,540.4 628.2,543.9 632,540.8 
			632.1,558.6 646.3,564.2 648.8,565.2 		"/>
		<polygon id="Ain_4_" class="st1" points="644.9,482.1 644.9,482.1 645.4,475 650.9,473.3 650.9,471.6 650.8,467.4 657.4,465.5 
			660.1,456.9 655.4,454.9 646.3,464.9 639.9,464.8 639.9,462.2 636.4,460.4 628.9,465.4 619.1,453.7 605.7,449.9 599.2,470.4 
			596.7,486.2 613,495.7 619.8,497.1 624.1,490.5 637.5,506.3 643.5,499.9 		"/>
		<polygon id="Jura_4_" class="st3" points="628.9,465.4 636.4,460.4 639.9,462.2 639.9,464.8 646.3,464.9 655.4,454.9 656.7,445.3 
			654.4,436.5 659.8,433.3 657,427.7 650,425.5 649.7,417.8 639.7,415.9 642.6,408.3 637.5,399.5 632.1,401.6 628.6,396.9 
			627,407.6 619.5,416.3 619.8,418.9 620.1,422.6 627.3,427.5 621.8,429.8 626.1,442.6 623.3,446.9 627.1,451.4 619.1,453.7 		"/>
		<polygon id="Meuse_4_" class="st3" points="640.1,294.3 635.1,271.1 630.7,263.1 624.9,264.3 622.1,257.2 616.9,253.4 
			613.9,256.3 608.4,253.9 605.3,259.6 607.8,263.4 605.6,272.9 600.3,275.4 605.7,290 599.9,303.5 603,312.1 604.6,316.3 
			623.8,328.5 637.1,322.8 		"/>
		<polygon id="Côte-d_x27_Or_4_" class="st5" points="607.7,420.6 619.8,418.9 619.5,416.3 627,407.6 628.6,396.9 623.3,389.7 
			627.7,383.9 623.3,379.6 617.4,381.4 613.5,375.9 604.5,375.2 605.3,367.1 593.8,354.6 593.5,353 593.4,353 586.1,356.8 
			576.3,360.1 573.3,360 573.3,360.7 576.8,371.4 566.1,395.2 567.2,397.7 572.7,410.6 593.8,425.5 		"/>
		<polygon id="Saône-et-Loire_4_" class="st3" points="595,464 599.2,470.4 605.7,449.9 619.1,453.7 627.1,451.4 623.3,446.9 
			626.1,442.6 621.8,429.8 627.3,427.5 620.1,422.6 619.8,418.9 607.7,420.6 593.8,425.5 572.7,410.6 565,412.7 567.2,433.1 
			554.8,437.8 551.9,436.1 548.1,437.5 552.5,449.2 563.4,453.1 563.3,463.1 559.5,467 565.1,472.7 582.3,468.5 582.5,464.3 		"/>
		<polygon id="Ardennes_4_" class="st2" points="607.8,263.4 605.3,259.6 608.4,253.9 613.9,256.3 616.9,253.4 615,247.9 
			597.1,240.7 596.7,217.9 592.5,217.9 588.2,227.7 578.1,232 570.9,229.6 571.1,244 563.4,268.4 597.2,276.9 600.3,275.4 
			605.6,272.9 		"/>
		<polygon id="Rhône_4_" class="st1" points="601.1,509.5 611.1,506.8 615.9,500.7 613,495.7 596.7,486.2 599.2,470.4 595,464 
			582.5,464.3 582.3,468.5 584.6,473.1 582.4,475.1 578,475.1 576.3,480.1 579.1,490.3 582.4,493.8 580.6,503.9 599.3,516.6 
			603.9,514.4 		"/>
		<polygon id="Aisne_4_" class="st3" points="571.1,244 570.9,229.6 566.5,229.5 527.2,227.8 524.5,248.6 524.5,249.2 523.3,270.7 
			518.1,273.7 520,280.9 523.1,285.4 527.5,292 540.1,301.8 548.8,291.5 551,282.5 547.2,272.7 563.4,268.4 		"/>
		<polygon id="Nord_4_" class="st4" points="497.1,187.1 509.5,189 511.9,195 523,200.4 518.1,203.5 526.9,213.3 518.8,221.1 
			527.2,227.8 566.5,229.5 566,228 570.3,224.7 570,212.9 562.1,205.6 549.9,206.2 548.6,208.3 547,208.3 547.3,200.7 539.7,195.1 
			535.3,197.1 530.7,195 529.7,183.4 525.8,178.6 517.5,180.5 512.2,183.7 509.8,179.1 507.7,176.7 503.3,174.3 504.9,168.1 
			501.2,159.1 501.2,159.1 482.7,164.1 489.2,177.2 		"/>
		<polygon id="Somme_4_" class="st5" points="527.2,227.8 514.9,227 460.5,204.1 451.5,223.1 469,243.5 473,248.2 506,254.7 
			516.8,248.6 523.8,248.6 524.5,248.6 		"/>
		<polygon id="Pas-de-Calais_4_" class="st1" points="514.9,227 527.2,227.8 518.8,221.1 526.9,213.3 518.1,203.5 523,200.4 
			511.9,195 509.5,189 497.1,187.1 489.2,177.2 482.7,164.1 470.5,166.3 460.8,173.6 460.5,204.1 		"/>
		<polygon id="Oise_4_" class="st3" points="524.5,248.6 523.3,270.7 518.1,273.7 520,280.9 523.1,285.4 518.8,287.1 502.6,288 
			481.4,279.3 468.5,281.4 466.6,274.8 466.5,266.8 469.5,260.6 469,243.5 473,248.2 506,254.7 516.8,248.6 		"/>
		<polygon id="Cher_4_" class="st3" points="515.2,400 523,420.7 522.1,433.2 521.7,433.2 516.7,432.7 509.2,439.6 507.6,436.3 
			500.6,442.6 502.9,448.1 499.9,450.7 495.1,449.9 490.6,450.7 487.6,456.3 482.5,456.9 484.7,443.2 480.3,436.6 483.5,427 
			478.2,412.6 471.8,413.4 466.8,410.7 471.1,406.1 474.7,401.7 482.7,399.9 487.6,388.3 481.8,383.5 488.1,378.2 506.3,389.5 
			514.5,387.7 514.6,387.7 516.5,394.6 		"/>
		<polygon id="Creuse_4_" class="st3" points="500.1,475.1 502.8,485.5 492.9,494.2 497.8,500.8 488.1,504.6 483.5,500.9 
			470.5,502.6 471.1,498 465.3,494 457.6,493.4 454.5,488.1 455.3,479 448.3,469.6 450.9,462.7 449.2,458.5 464.1,458.1 
			465.4,454.6 482.5,456.9 487.6,456.3 490.4,462 497.5,465.4 		"/>
		<polygon id="Val-d_x27_Oise_4_" class="st3" points="502.6,288 502.3,292.8 490.7,296.2 486.2,297.5 461.7,286.7 466.6,274.8 
			468.5,281.4 481.4,279.3 		"/>
		<polygon id="Seine-Saint-Denis_4_" class="st3" points="502.3,292.8 501.7,303.9 500.9,303.9 495.3,301.7 494.9,301.9 
			493.9,299.2 491.2,299.8 491,299.2 490.7,296.2 		"/>
		<polygon id="Val-de-Marne_4_" class="st3" points="501.7,303.9 501.3,311.4 491.1,309.4 490.9,304.8 491,304.3 492.5,304.8 
			495.3,302.9 494.9,301.9 495.3,301.7 500.9,303.9 		"/>
		<polygon id="XMLID_38_" class="st3" points="501.3,311.4 500.3,330.5 495.4,333.6 495.3,336.8 494.5,336.8 476.3,337.5 475,327.7 
			474.6,324.4 480.2,317.8 479.2,312.9 487,307.4 491.1,309.4 		"/>
		<polygon id="Paris_9_" class="st7" points="494.9,301.9 495.3,302.9 492.5,304.8 491,304.3 489,303.6 488.1,300.5 491.2,299.8 
			493.9,299.2 		"/>
		<polygon id="Hauts-de-Seine_3_" class="st3" points="491,299.2 491.2,299.8 488.1,300.5 489,303.6 491,304.3 490.9,304.8 
			491.1,309.4 487,307.4 484.2,301.8 486.2,297.5 490.7,296.2 		"/>
		<polygon id="Loir-et-Cher_4_" class="st1" points="488.1,378.2 481.8,383.5 487.6,388.3 482.7,399.9 474.7,401.7 471.1,406.1 
			464.3,402.5 447.7,407 438.3,399.9 436,382 428.4,375.8 415,373.4 426.4,361.6 425.4,352 429.7,345.7 445.7,358.1 456,356.6 
			458.1,370.7 464.9,374 469.6,378.5 486.1,376.9 		"/>
		<polygon id="Yvelines_3_" class="st4" points="484.2,301.8 487,307.4 479.2,312.9 480.2,317.8 474.6,324.4 475,327.7 474,327.9 
			469.5,326 468.1,321.7 460.5,312.9 461.3,302.1 456.7,295.8 456.4,295.7 457.6,293.5 455.5,288.5 461.7,286.7 486.2,297.5 		"/>
		<polygon id="Indre_4_" class="st3" points="480.3,436.6 484.7,443.2 482.5,456.9 465.4,454.6 464.1,458.1 449.2,458.5 
			440.5,458.7 440.9,455.4 427.5,443.5 427.8,436.2 432.2,433.8 435.9,417.8 443.3,418.5 449.2,412 447.7,407 464.3,402.5 
			471.1,406.1 466.8,410.7 471.8,413.4 478.2,412.6 483.5,427 		"/>
		<polygon id="Eure-et-Loire_2_" class="st3" points="475,327.7 476.3,337.5 475.7,344.9 470.9,351.3 465.7,352.7 461,351.6 
			456,356.6 445.7,358.1 429.7,345.7 426.8,343.5 424.4,334.4 433.2,329.2 432.9,321.1 428.3,317.2 427.4,312.9 449.6,307.1 
			456.4,295.7 456.7,295.8 461.3,302.1 460.5,312.9 468.1,321.7 469.5,326 474,327.9 		"/>
		<polygon id="Haute-Vienne_4_" class="st4" points="471.1,498 470.5,502.6 470.3,504 442.4,517.1 435.4,515.6 431.9,508.2 
			424.7,506.8 421.6,509.4 414.4,501.9 415,497.2 422.8,492.3 422.5,487.5 428.3,485 427.6,481 424,473.7 422.7,469.1 426.7,464 
			440.5,458.7 449.2,458.5 450.9,462.7 448.3,469.6 455.3,479 454.5,488.1 457.6,493.4 465.3,494 		"/>
		<polygon id="Seine-Maritime_4_" class="st4" points="469,243.5 469.5,260.6 466.5,266.8 452.2,263.4 448,269.8 435.6,275.1 
			433.2,268.8 416.2,260.8 407.1,263.4 397.5,258.5 403.9,244.6 440.6,231.9 451.5,223.1 		"/>
		<polygon id="Eure_4_" class="st1" points="466.5,266.8 466.6,274.8 461.7,286.7 455.5,288.5 457.6,293.5 456.4,295.7 449.6,307.1 
			427.4,312.9 424.2,310.8 425.4,307.4 418.4,298.9 412.3,298.7 410.5,296.4 410.3,294 407.1,263.4 416.2,260.8 433.2,268.8 
			435.6,275.1 448,269.8 452.2,263.4 		"/>
		<polygon id="Dordogne_4_" class="st3" points="449.6,545.8 450.2,551.9 433.8,571.9 428.6,569.2 421.2,571.5 413.5,566.7 
			402.6,568.4 396.1,559.8 398.2,555 395.4,553.2 392.6,556.6 385.3,553.7 388,539.7 382.6,537.2 386.6,531 391.6,531 397.2,525.6 
			396.9,517.1 407.9,510.2 414.4,501.9 421.6,509.4 424.7,506.8 431.9,508.2 435.4,515.6 442.4,517.1 444.1,523.7 440.5,528.1 		"/>
		<polygon id="Indre-et-Loire_4_" class="st5" points="447.7,407 449.2,412 443.3,418.5 435.9,417.8 432.2,433.8 427.8,436.2 
			419.1,420.5 402.2,422.1 402.5,415.3 392.3,406.6 398.1,393.6 398.7,381.4 407.2,381.4 415,373.4 428.4,375.8 436,382 
			438.3,399.9 		"/>
		<polygon id="Vienne_4_" class="st1" points="440.9,455.4 440.5,458.7 426.7,464 422.7,469.1 424,473.7 413,477.3 409.7,473.7 
			407.5,474.6 407.7,477.7 392.3,475.5 396.3,474 397.1,471.8 392.3,468.6 394.7,463.7 393.3,459.2 388.4,459.6 389.3,426.8 
			384.6,413.6 392.3,406.6 402.5,415.3 402.2,422.1 419.1,420.5 427.8,436.2 427.5,443.5 		"/>
		<polygon id="Lot-et-Garonne_4_" class="st3" points="433.8,571.9 432.7,574.7 428.3,574.9 432.2,586.3 427.3,587.2 423.9,585.7 
			422.4,590.2 424.9,592.8 423.3,601.1 413.3,607.6 410.1,604.3 403.5,604.9 401.7,608 385.1,608.4 386.9,600.3 377,599.3 
			375.7,594.1 380.3,592.3 384.1,584.8 391.7,567.1 388.4,564.7 389.2,562.5 396.1,559.8 402.6,568.4 413.5,566.7 421.2,571.5 
			428.6,569.2 		"/>
		<polygon id="Orne_4_" class="st1" points="432.9,321.1 433.2,329.2 424.4,334.4 426.8,343.5 415,339 409.1,334.3 407.1,325.1 
			400.4,324.2 394.5,329.6 390.7,329 384.1,317.7 371.8,320.4 360.4,324.5 354.5,319.3 358.7,318.3 361.8,308.9 358.1,304.9 
			375.8,297.8 387.7,301.2 399.4,293.9 410.3,294 410.5,296.4 412.3,298.7 418.4,298.9 425.4,307.4 424.2,310.8 427.4,312.9 
			428.3,317.2 		"/>
		<polygon id="Sarthe_4_" class="st5" points="429.7,345.7 425.4,352 426.4,361.6 415,373.4 407.2,381.4 398.7,381.4 374,368.4 
			374.7,360.2 385.8,340.4 386,332.8 390.7,329 394.5,329.6 400.4,324.2 407.1,325.1 409.1,334.3 415,339 426.8,343.5 		"/>
		<polygon id="Charente_4_" class="st3" points="427.6,481 428.3,485 422.5,487.5 422.8,492.3 415,497.2 414.4,501.9 407.9,510.2 
			396.9,517.1 397.2,525.6 391.6,531 386.6,531 372.1,520.7 374,510.7 367.6,503.3 366.8,495.6 379.7,494.6 383.3,482.5 386,477.8 
			392.3,475.5 407.7,477.7 407.5,474.6 409.7,473.7 413,477.3 424,473.7 		"/>
		<polygon id="Calvados_4_" class="st4" points="407.1,263.4 410.3,294 399.4,293.9 387.7,301.2 375.8,297.8 358.1,304.9 
			349.9,302.7 345.8,297.4 357.7,284.1 347.5,270.5 348.2,265 353.7,263.6 357.8,265.7 376.8,268.4 384.2,272.6 		"/>
		<polygon id="Maine-et-Loire_4_" class="st2" points="398.7,381.4 398.1,393.6 392.3,406.6 384.6,413.6 365.1,412.3 362,417.3 
			349.7,414.8 340.3,412.8 336,392.8 348.1,391.1 348.1,383.9 337.4,365.6 364,369.7 374,368.4 		"/>
		<polygon id="Gironde_4_" class="st2" points="398.2,555 396.1,559.8 389.2,562.5 388.4,564.7 391.7,567.1 384.1,584.8 
			380.3,592.3 375.7,594.1 371.2,596 365,594.6 363.5,588.9 352,577.6 337.7,580.1 337.7,575.5 334,572.9 325.3,576.5 325.5,574.3 
			329.4,569.9 337.1,569.9 337.6,566.4 330.7,557.9 325.3,564.7 333.4,508.1 335.8,507.2 337,513 348.1,520.5 352.9,537.2 
			354.4,534.7 352.2,523 365.6,526 366.5,533 382.6,537.2 388,539.7 385.3,553.7 392.6,556.6 395.4,553.2 		"/>
		<polygon id="Deux-Sèvres_4_" class="st3" points="397.1,471.8 396.3,474 392.3,475.5 386,477.8 383.3,482.5 379.7,481.3 
			379.1,478.6 356.8,468.2 354.4,460.9 364,455.9 359.6,434.1 349.7,414.8 362,417.3 365.1,412.3 384.6,413.6 389.3,426.8 
			388.4,459.6 393.3,459.2 394.7,463.7 392.3,468.6 		"/>
		<polygon id="Mayenne_4_" class="st3" points="384.1,317.7 390.7,329 386,332.8 385.8,340.4 374.7,360.2 374,368.4 364,369.7 
			337.4,365.6 342.6,353 348.1,351.5 345.8,335.5 348,330.9 346.4,318.7 351.8,319.8 354.5,319.3 360.4,324.5 371.8,320.4 		"/>
		<polygon id="Charente-Maritime_4_" class="st4" points="386.6,531 382.6,537.2 366.5,533 365.6,526 352.2,523 350.6,514.6 
			330.7,499.2 329.2,486.5 324.2,482.8 324.7,475.1 332.9,485.5 336.8,487.5 339.8,476.5 316,462.7 321,459.6 333.5,467.3 
			335.9,460.8 342.6,456.8 354.4,460.9 356.8,468.2 379.1,478.6 379.7,481.3 383.3,482.5 379.7,494.6 366.8,495.6 367.6,503.3 
			374,510.7 372.1,520.7 		"/>
		<polygon id="Tarn-et-Garonne_4_" class="st3" points="466.8,604.3 471.6,600.8 468.7,588.9 462.6,590.7 456.1,596 446.4,596.7 
			438.1,593 432.2,586.3 427.3,587.2 423.9,585.7 422.4,590.2 424.9,592.8 423.3,601.1 413.3,607.6 425.6,622.4 425.6,622.4 
			425.6,622.4 435.7,622.1 437.8,624.8 444.2,621.2 444.1,619.4 444,617.7 453,617.2 459.2,610.3 458.7,607.6 458.7,607.6 
			458.3,605.9 		"/>
		<polygon id="Aude_4_" class="st5" points="486,646 483.8,650 474.5,647.3 468.9,648.9 466.8,646 464.3,648.9 461.8,652.6 
			457,658.4 469.7,666.6 472.2,682.4 466.8,683.9 465.2,686.1 472.3,692 476.3,689.9 481.2,695.8 489.8,691.3 488.1,685.2 
			508.8,685.4 513.3,680.1 521.6,685 521.8,672.3 517,669.2 518.8,666.4 523,669.5 528.3,662.9 513.9,653.9 510.9,657.8 507.4,660 
			502,656.8 498.4,652.2 499.5,647.3 		"/>
		<polygon id="Pyrénées-Orientales_4_" class="st4" points="508.8,685.4 488.1,685.2 489.8,691.3 481.2,695.8 459.2,702.8 
			462.3,707.7 469.4,710 469.5,713.9 475.6,716.6 479.4,712.8 484,712.8 495.4,720.4 503.5,720.4 512.5,711 519.3,709.4 
			522.7,712.2 526.7,713.5 526.8,707.7 522.7,703.2 521.6,685 513.3,680.1 		"/>
		<polygon id="Tarn_4_" class="st1" points="453,617.2 474.6,643.1 474.5,647.3 483.8,650 486,646 499.5,647.3 504.2,645.8 
			505.5,641.8 502.2,638.7 505,632.9 508,635 517.4,631.8 513.3,627.2 504.2,626.9 497.1,610.3 480.7,599.3 471.6,600.8 
			466.8,604.3 458.3,605.9 458.7,607.6 459.2,610.3 		"/>
		<polygon id="Ariège_4_" class="st1" points="476.3,689.9 472.3,692 465.2,686.1 466.8,683.9 472.2,682.4 469.7,666.6 457,658.4 
			449,656.3 442.5,654.5 440.5,656.7 444.1,660.1 439.1,668.1 432.9,665.1 425.8,668 426.7,674 419.1,679.3 419.1,686 428.8,689.9 
			432.5,696.4 440.5,696.4 445.6,700.3 457,699.1 459.2,702.8 481.2,695.8 		"/>
		<polygon id="Haute-Garonne_4_" class="st6" points="426.7,674 425.8,668 432.9,665.1 439.1,668.1 444.1,660.1 440.5,656.7 
			442.5,654.5 449,656.3 457,658.4 461.8,652.6 464.3,648.9 466.8,646 468.9,648.9 474.5,647.3 474.6,643.1 453,617.2 444,617.7 
			444.2,621.2 437.8,624.8 435.7,622.1 425.6,622.4 436.4,635.4 430.8,639.8 426.1,650.4 421.5,648.1 415.6,647.5 409.4,653.8 
			401.6,665.6 409,677.2 405,682.3 400.1,680.1 401,692 398.2,692.6 409.9,693.7 410.5,683 419.1,686 419.1,679.3 		"/>
		<polygon id="Gers_4_" class="st5" points="383.3,614.6 380.5,610 369.5,613.6 373.2,619.1 369.8,634.3 375.5,635.1 381.1,634 
			386,639.5 388.9,647.7 409.4,653.8 415.6,647.5 421.5,648.1 426.1,650.4 430.8,639.8 436.4,635.4 425.6,622.4 420.4,616.2 
			413.3,607.6 410.1,604.3 403.5,604.9 401.7,608 385.1,608.4 385,614.2 		"/>
		<polygon id="Hautes-Pyrénées_4_" class="st1" points="400.1,680.1 405,682.3 409,677.2 401.6,665.6 409.4,653.8 388.9,647.7 
			386,639.5 381.1,634 375.5,635.1 381.4,650 366.6,669 364.1,681.7 371,686.5 377.1,692.8 386.1,689.8 392,694.1 398.2,692.6 
			401,692 		"/>
		<polygon id="Landes_4_" class="st3" points="369.8,634.3 373.2,619.1 369.5,613.6 380.5,610 383.3,614.6 385,614.2 385.1,608.4 
			386.9,600.3 377,599.3 375.7,594.1 371.2,596 365,594.6 363.5,588.9 352,577.6 337.7,580.1 337.7,575.5 334,572.9 325.3,576.5 
			313.1,629.2 309.7,634.8 317.3,637.9 		"/>
		<polygon id="Pyrénées-Atlantiques_4_" class="st2" points="294.4,644.4 294.4,648.3 313.5,654.5 312.8,661.1 310,662.7 
			316,669.1 318.1,664.2 336.5,674 343.7,674.1 344.2,678.7 351.3,685 364.1,681.7 366.6,669 381.4,650 375.5,635.1 369.8,634.3 
			317.3,637.9 309.7,634.8 303.7,642.5 303.7,642.5 		"/>
		<polygon id="Vendée_4_" class="st1" points="359.6,434.1 364,455.9 354.4,460.9 342.6,456.8 335.9,460.8 306.9,445.9 
			294.4,424.7 294.6,419.5 301.8,410.7 314.2,421.5 323.4,421.4 321.1,414 324.6,412.4 326.1,418.9 335.2,410.7 340.3,412.8 
			349.7,414.8 		"/>
		<polygon id="Manche_4_" class="st5" points="358.1,304.9 361.8,308.9 358.7,318.3 354.5,319.3 351.8,319.8 346.4,318.7 
			341.7,317.7 334.6,322.3 329.1,318.5 327.2,311.6 333.5,309.4 325.5,299.3 328.4,293.6 325.9,274.3 317.9,259.8 317.9,245.9 
			313.3,242.3 314.2,240.4 326.9,246.6 331.4,244.4 342.6,244.4 344.5,250.3 340.3,253.4 348.2,265 347.5,270.5 357.7,284.1 
			345.8,297.4 349.9,302.7 		"/>
		<polygon id="Loire-Atlantique_4_" class="st1" points="348.1,383.9 348.1,391.1 336,392.8 340.3,412.8 335.2,410.7 326.1,418.9 
			324.6,412.4 321.1,414 323.4,421.4 314.2,421.5 301.8,410.7 296.6,406.6 289.8,405.4 292.4,402.5 292.4,396.5 277.6,393.9 
			282.3,383.8 300.3,378.7 301.9,371.9 318.8,369.1 328.1,361.4 337.4,365.6 		"/>
		<polygon id="Ille-et-Vilaine_4_" class="st5" points="345.8,335.5 348.1,351.5 342.6,353 337.4,365.6 328.1,361.4 318.8,369.1 
			301.9,371.9 299,364.7 303.7,358.9 300,349.3 292.9,349.3 296.1,341.3 299.7,332.4 309.5,331.1 311.8,317.2 308.7,312.9 
			307.8,307.6 309.9,305.3 315.2,305.5 316.4,311.5 327.2,311.6 329.1,318.5 334.6,322.3 341.7,317.7 346.4,318.7 348,330.9 		"/>
		<polygon id="Côtes-d_x27_Armor_4_" class="st1" points="308.7,312.9 311.8,317.2 309.5,331.1 299.7,332.4 296.1,341.3 291.8,341 
			286.4,337.5 281.2,342.6 261.4,333.8 255.2,337.5 242.1,332.4 239.3,305.3 240,301 241.4,292.8 264.3,291.5 272.9,309.1 
			277.4,312.9 293.8,306 307.8,307.6 		"/>
		<polygon id="Morbihan_4_" class="st5" points="300,349.3 303.7,358.9 299,364.7 301.9,371.9 300.3,378.7 282.3,383.8 268.3,380.5 
			254.6,373.4 239.3,360.1 240.4,355.8 245.9,353.9 247,349.6 235.8,345.3 233.2,336.2 242.1,332.4 255.2,337.5 261.4,333.8 
			281.2,342.6 286.4,337.5 291.8,341 296.1,341.3 292.9,349.3 		"/>
		<polygon id="Finistère_4_" class="st4" points="247,349.6 245.9,353.9 240.4,355.8 239.3,360.1 224.7,357.8 213.4,351.8 
			212.2,355.5 203.9,355 204.2,351.7 198.6,340.7 190.7,338.9 190.7,336 208,335.3 208.9,330.8 194.6,323.6 198.3,321.6 
			212.1,323.9 202.9,318.4 189.1,319.3 192.1,305.2 218,297.7 228.3,301.5 230.5,299.1 240,301 239.3,305.3 242.1,332.4 
			233.2,336.2 235.8,345.3 		"/>
		<polygon id="Corrèze_3_" class="st1" points="498,518.3 498.6,522.5 495.1,524 490.9,520.5 483.8,532.9 482.4,542.1 478.1,549 
			464.8,552.3 460.5,546.1 455,543.5 449.6,545.8 440.5,528.1 444.1,523.7 442.4,517.1 470.3,504 470.5,502.6 483.5,500.9 
			488.1,504.6 497.8,500.8 496.7,507.6 498,512.2 		"/>
		<polygon id="Lot_3_" class="st1" points="478.1,549 481.7,571.3 479.5,574.2 467.6,580.8 468.7,588.9 462.6,590.7 456.1,596 
			446.4,596.7 438.1,593 432.2,586.3 428.3,574.9 432.7,574.7 433.8,571.9 450.2,551.9 449.6,545.8 455,543.5 460.5,546.1 
			464.8,552.3 		"/>
		<polygon id="Loiret_4_" class="st5" points="517,343.7 525.6,358.1 519.4,363.9 520.9,369.4 517,371.9 513.5,371.6 518.2,383.9 
			513.8,385.1 514.5,387.7 506.3,389.5 488.1,378.2 486.1,376.9 469.6,378.5 464.9,374 458.1,370.7 456,356.6 461,351.6 
			465.7,352.7 470.9,351.3 475.7,344.9 476.3,337.5 494.5,336.8 495.3,336.8 495.3,338 499.3,341.4 495.9,347.5 497.9,349.3 
			511.9,347.9 		"/>
	</g>
	<g>
		<polygon id="France_26_" class="st8" points="734.7,606.7 734.7,606.7 733.5,593.8 716.6,597.6 697.4,584.4 696.2,576.4 
			697.2,575.5 701.1,571.6 701,565.2 700.7,564.9 704.9,561.1 704.9,561 701,552.3 690.1,549.6 683.4,536.6 683.4,536.6 
			694.8,535.4 704.7,527.8 707.4,517.1 707.4,517.1 688.6,492.5 688.6,492.5 690.4,490.5 697.8,487.5 698,485.6 698.1,484.7 
			698.3,480.5 687.7,467.3 687.7,467.3 690.2,464.6 690.2,464.6 686.1,454.6 669.6,458.5 666.9,456.6 662.8,462.2 662.8,462.2 
			665.4,466.2 658.1,471.6 651,471.5 650.9,467.3 657.5,465.2 660.3,456.4 655.5,454.7 656.7,445.3 670.5,431.2 670.5,431.2 
			669.5,420.7 669.5,420.7 678.1,416.8 679.5,415 696.4,393.1 696.5,393.1 696.5,393.1 693.4,385.8 697.9,384.9 698.5,384.5 
			701,388.2 709.6,388.2 713.7,384.7 716.2,377.1 711.8,370.2 716.8,352.6 714.4,342.5 720.3,331.4 723.1,309 728.8,304.9 
			739.5,287.9 727.1,282.8 714.1,283.5 707.1,276.9 701.5,276.7 698.4,279.5 690.9,279.6 684.6,274.8 680.5,274.8 679.6,277.8 
			675.5,278.2 668.3,262.9 660.4,259.6 654.5,257.2 651,257.4 642.1,259.8 635.4,254.9 622.3,257.3 617.1,253.5 615.1,248.2 
			597.1,240.5 596.7,217.5 592.5,217.5 588.2,227.5 578.1,231.9 570.9,229.5 566.5,229.5 566,227.9 570.3,224.7 570,212.9 
			562.1,205.6 549.9,206.2 548.6,208.3 547,208.3 547.4,200.7 539.7,195.1 535.4,197 530.8,195 529.8,183.4 525.9,178.6 
			517.6,180.5 512.3,183.7 510,179.1 507.8,176.7 503.4,174.3 505,168.1 501.2,159.1 482.8,164.1 470.7,166.3 460.9,173.6 
			460.6,204.1 451.7,223.1 440.8,231.9 404.1,244.6 397.6,258.5 407.3,263.4 384.4,272.6 376.9,268.4 357.8,265.7 353.7,263.6 
			348.2,265 340.3,253.4 344.5,250.3 342.6,244.5 331.4,244.5 326.9,246.6 314.2,240.4 313.3,242.3 317.9,245.9 317.9,259.8 
			325.9,274.3 328.4,293.6 325.7,299.3 333.7,309.4 327.3,311.6 316.6,311.5 315.3,305.5 310,305.3 307.9,307.6 294,306 
			277.6,312.9 273,309.1 264.4,291.5 241.5,292.8 240.1,301 230.6,299.1 228.4,301.5 218.1,297.7 192.2,305.2 189.3,319.3 
			203.1,318.4 212.2,323.9 198.4,321.6 194.7,323.6 209,330.8 208.2,335.3 190.9,336 190.8,338.9 198.7,340.7 204.3,351.7 204,355 
			212.4,355.5 213.5,351.8 224.8,357.8 239.5,360.1 254.3,373.1 268.4,380.5 282.4,383.8 277.6,393.9 292.5,396.5 292.5,402.5 
			289.9,405.4 296.6,406.6 301.8,410.7 294.6,419.5 294.4,424.7 307,445.9 336,460.8 333.6,467.3 321.1,459.6 316.1,462.7 
			339.9,476.5 337,487.5 333,485.5 324.8,475.1 324.3,482.8 329.3,486.5 330.8,499.2 350.7,514.6 352.3,523 354.5,534.7 353,537.2 
			348.2,520.5 337.1,513 335.9,507.2 333.5,508.1 332.5,516.4 325.4,564.7 330.9,557.9 337.6,566.1 337.1,569.5 329.4,569.5 
			325.5,574 325.4,577.9 313.2,629.9 309.9,635.1 303.8,642.4 294.5,644.4 294.5,648.3 313.5,654.5 312.8,661.1 310,662.7 
			316,669.1 318.1,664.2 336.6,674 340.9,674.1 341.1,674.1 343.9,674.1 343.9,674.1 343.9,674.1 344.3,678.7 350.8,684.4 
			351.4,685 351.4,685 364.2,681.7 371.2,686.5 377.2,692.8 386.2,689.8 392.1,694.2 398.3,692.6 410.1,693.8 410.5,683 419.1,686 
			428.8,689.9 432.5,696.5 440.5,696.5 445.6,700.4 457,699.1 462.5,708 469.5,710.2 469.5,713.9 475.6,716.6 479.4,712.8 
			484,712.8 495.4,720.5 503.5,720.5 512.5,711 519.3,709.4 522.7,712.2 526.7,713.5 526.8,707.7 522.7,703.5 521.7,685.1 
			521.9,672.4 517.1,669.3 518.9,666.4 523.1,669.5 528.4,662.9 564.9,640.3 569,640.6 571.2,645.2 579,645.1 595.1,646.3 
			592.1,650.3 602.4,654.3 608.2,652.5 605.6,647.6 611,648.4 614.8,652.6 628.9,652.1 631.1,660 645.5,664 651.7,670.4 
			659.1,666.7 667.1,667.5 677,666.2 691.8,658.2 690.7,651.7 703.1,640.8 711.5,635.2 711.7,628.4 716.8,628 729.3,619.4 
			729.3,619.4 729.9,608.2 		"/>
		<g id="XMLID_24_">
			<polygon id="Royaume-Uni_2_" class="st8" points="287,2.5 277.1,4.9 247.1,7.1 233.9,20.5 218.3,32.2 222.1,34.2 240.9,29.6 
				243.2,54.3 238.6,70.5 201.9,80.2 189.5,89.4 191.4,100.4 200.4,108.8 223.3,102.6 229.5,115.8 246.6,112.2 250.4,122.1 
				271.2,127.7 278.8,120.2 304.5,108.3 282.4,127.7 277.9,140.4 253.4,137.7 228.7,138.3 213.6,155.4 189.1,183.5 160.9,199.7 
				182.5,209.7 201.8,190.3 221.6,191.1 246.2,204.9 258.9,180.5 285.4,180.5 292.8,182.7 312,179.1 345,171.4 363.2,174.8 
				407.2,179.1 435.6,167.9 454.7,153.4 457.8,137.9 431.6,139.3 415,133.4 436,126 438.3,116.1 448.4,110.7 464.1,94.5 466.3,82.8 
				471.3,60.1 456.3,42.6 437.1,39.5 425,37.1 418,49.6 407.9,41.8 403.3,41.6 418.2,24.6 413.1,11 402.9,-3.5 287.2,-3.5 			"/>
			<polygon id="Irlande_2_" class="st8" points="79.5,74 97,67.3 120.6,64.4 131.7,60.5 150.2,64.9 169,20.9 169.9,5.2 166.5,1.7 
				163.5,-3.5 79.5,-3.5 			"/>
			<polygon id="Espagne_2_" class="st8" points="519.3,709.4 512.5,711 503.5,720.5 495.4,720.5 484,712.8 479.4,712.9 475.6,716.6 
				469.5,713.9 469.5,710.2 462.3,707.7 450.5,711.7 445.5,705 445.6,700.4 440.5,696.5 432.5,696.5 428.8,689.9 419.1,686 
				410.5,683 410.1,693.8 398.3,692.7 392.1,694.2 386.2,689.8 377.2,692.8 371.2,686.5 364.2,681.7 351.4,684.7 351.4,684.5 
				351.4,684.5 350.8,684.2 344.3,678.6 343.9,674.1 343.9,674.1 341.2,674.1 340.9,674.1 336.6,674 318.1,664.2 316,669.1 
				310,662.7 312.8,661.1 313.5,654.5 294.5,648.3 294.5,644.4 281.4,648 264.5,644.8 250,636.7 237.2,644.2 218.7,633 201.2,629.3 
				184.7,634.3 141.3,626.9 125.7,618.5 101.8,614 79.5,613.7 79.5,796.5 446.6,796.5 469.5,789.2 528.9,748 525.1,727.4 532.5,725 
				526.7,713.5 522.7,712.2 			"/>
			<polygon id="Allemagne_2_" class="st8" points="684.8,17.5 684.8,17.5 682.4,52.2 681.5,53.5 679,56.8 678.8,56.8 678.7,56.8 
				669.2,56.2 666.3,66.9 677.5,67.5 677.9,69.1 680.9,82.2 667.5,93.4 671.9,101.9 655.4,108.8 655.4,108.8 655.4,108.8 
				646.6,104.9 638.8,109.4 654,136 652.6,139.7 651,143.6 645,158.8 645.6,170.9 645.6,170.9 642.8,177.9 652.8,188.7 652.8,188.7 
				652.5,189.4 651.2,193 656.8,196.7 658.9,204.1 648.9,217.2 646.5,224.7 652.9,232.4 665.9,237.3 667.3,244.2 659.3,255.4 
				660.4,259.6 668.3,262.9 675.5,278.2 679.6,277.8 680.5,274.8 684.6,274.8 690.9,279.6 698.4,279.5 701.5,276.7 707.1,276.9 
				714.1,283.5 727.1,282.8 739.5,287.9 728.8,304.9 723.1,309 720.3,331.4 714.4,342.5 716.8,352.6 711.8,370.2 716.2,377.1 
				713.7,384.7 716.3,380.5 733.8,379.8 744.3,374.7 755.2,377.2 756.2,374.9 756.3,374.6 762.1,372.3 754.7,370.5 752.6,368.6 
				758.5,363.2 764.5,362.1 770.1,367 776.4,370 783.9,368.5 794.2,369.7 809.1,374.2 811.1,370.6 826.5,383 826.5,385.3 
				826.5,388.8 840.2,378.8 840.9,370.3 847,370.2 847.5,370.2 847.5,-3.5 682.8,-3.5 673.8,8.8 674,9.1 			"/>
			<polygon id="Italie_2_" class="st8" points="847.5,419 832,432.4 829.8,450.6 796,446.7 773.7,469.3 760.7,461.3 759.8,447.5 
				744.9,461.2 748.4,466.4 735.3,484.3 724.5,480.6 712.9,486.7 702,488.1 700.2,487.6 698,485.6 697.8,487.5 690.4,490.5 
				688.6,492.5 707.4,517.1 707.4,517.1 707.4,517.1 704.7,527.8 694.8,535.4 683.4,536.6 690.1,549.6 701,552.3 704.9,561 
				704.9,561.1 700.7,564.9 701,565.2 701.1,571.6 697.2,575.5 696.2,576.4 697.4,584.4 716.6,597.6 733.5,593.8 734.7,606.7 
				734.7,606.7 729.9,608.2 729.3,619.4 736,621.4 754.6,614.4 770.1,589.5 782.7,577.2 809.9,583.4 846.1,598.8 847.5,600.3 			"/>
			<polygon id="Autriche_2_" class="st8" points="840.9,370.3 840.2,378.8 826.5,388.8 826.5,385.3 826.5,383 811.1,370.6 
				809.2,374.2 794.2,369.7 802.8,376.4 807.1,379.6 808.8,385 803.2,394.9 816.7,397 820.1,409.6 828.9,418.2 839.1,410.5 
				846.5,410.5 847.5,410.5 847.5,370.2 847,370.2 			"/>
			<polygon id="Liechtenstein_2_" class="st8" points="820.1,409.6 816.7,397 803.2,394.9 805.7,406.6 			"/>
			<polygon id="Pays-Bas_2_" class="st8" points="569.9,140.7 582.8,134.3 592.1,137.2 603.4,134.3 610.4,146.3 619.1,145.1 
				619.1,145.1 619.1,145.1 635.5,153.1 630.2,178.8 642.8,177.9 642.8,177.9 642.8,177.9 642.8,177.9 645.6,170.9 645.6,170.9 
				645,158.8 651,143.6 652.6,139.7 654,136 638.8,109.4 646.6,104.9 646.6,104.9 655.4,108.8 655.4,108.8 671.9,101.9 667.5,93.4 
				680.9,82.2 677.9,69.1 677.5,67.5 666.3,66.9 669.2,56.2 669.2,56.2 678.8,56.8 679,56.8 681.5,53.5 682.4,52.2 684.8,17.5 
				684.8,17.5 674,9.2 673.8,9.1 673.4,8.7 670.2,6.3 660.5,7 639.4,10.5 618.5,19 613.5,31.6 597,44.3 594.1,39.5 588.3,38.5 
				580.1,80.2 566.2,100.3 550.7,117.2 537.7,130.3 541.7,137.7 558.2,141.5 			"/>
			<polygon id="Belgique_2_" class="st8" points="503.4,174.3 507.8,176.7 510,179.1 512.3,183.7 517.6,180.5 525.9,178.6 
				529.8,183.4 530.8,195 535.4,197 539.7,195.1 547.4,200.7 547,208.3 548.6,208.3 549.9,206.2 562.1,205.6 570,212.9 570.3,224.7 
				566,228 566.5,229.5 570.9,229.6 578.1,232 588.2,227.5 592.5,217.5 596.7,217.5 597.1,240.5 615.1,248 617.1,253.4 622.3,257.2 
				635.4,254.9 639.4,252.6 638.9,249.9 632.5,233.1 643.7,214.2 648.9,217.2 658.9,204.1 656.8,196.7 651.1,193 652.5,189.4 
				652.8,188.7 642.8,177.9 642.8,177.9 630.2,178.8 630.2,178.8 635.5,153.1 619.1,145.1 619.1,145.1 610.4,146.3 603.4,134.3 
				592.1,137.2 582.8,134.3 569.9,140.7 558.2,141.5 541.7,137.7 528.2,141.3 497.5,157.1 497.5,160.2 501.3,159.1 505.1,168.1 			
				"/>
			<polygon id="Luxembourg_2_" class="st8" points="667.3,244.2 665.9,237.3 652.9,232.4 646.5,224.7 648.9,217.2 643.7,214.2 
				632.5,233.1 638.9,249.9 639.4,252.6 635.4,254.9 642.1,259.8 651,257.4 654.5,257.2 660.4,259.6 659.3,255.4 			"/>
			<polygon id="Suisse_2_" class="st8" points="839.1,410.5 828.9,418.2 820.1,409.5 805.7,406.6 803.2,394.9 808.8,385 
				807.1,379.6 802.8,376.4 794.2,369.7 783.9,368.5 776.4,370 770.1,367 764.5,362.1 758.5,363.2 752.6,368.6 754.7,370.5 
				762.1,372.3 756.3,374.6 756.2,374.9 755.2,377.1 744.3,374.7 733.8,379.8 716.3,380.3 713.3,384.5 712.9,384.5 709.6,388 
				701,388.1 698.5,384.5 697.9,384.8 693.4,385.8 696.5,393.1 696.5,393.1 696.5,393.1 696.4,393.1 696.3,393.1 679.5,415 
				678.1,416.8 669.6,420.8 670.5,431.5 670.5,431.5 670.5,431.5 656.7,445.5 655.5,454.8 660.3,456.5 657.5,465.3 650.9,467.3 
				651,471.5 658.1,471.6 665.4,466.2 662.8,462.2 662.8,462.2 662.8,462.2 666.9,456.6 669.6,458.5 686.1,454.6 690.2,464.6 
				690.2,464.6 690.2,464.6 687.7,467.3 698.3,480.5 698.1,484.7 698,485.6 700.2,487.6 702,488.1 712.9,486.7 724.5,480.6 
				735.3,484.3 735.3,484.3 748.4,466.4 744.9,461.2 759.8,447.5 760.7,461.3 773.7,469.3 796,446.7 829.7,450.6 832,432.4 
				847.5,419 847.5,410.5 846.5,410.5 			"/>
			<polygon id="France_10_" class="st3" points="811.1,650.3 803.9,650.6 801.4,656 787.1,661.5 782,674.4 780.2,676.8 786.1,680.6 
				786.3,682.3 780.6,683.6 782.1,690.8 788.6,692.9 789,696.8 784.6,701.4 785.2,705.3 791.7,705.9 793.3,710 788.9,715.8 
				800.5,717.7 793.8,724.9 799.9,729.7 809.5,732.7 812.3,735.9 817.8,737.4 823,721.9 824.2,710.5 823.5,704 823.4,697.5 
				828.7,690.2 828.8,677.9 826.7,673.7 826.1,660.6 821.8,655.9 821.4,647.8 822.8,644.1 820,633.4 818,629.8 813.9,633.1 
				815.8,646.2 814.4,652.1 			"/>
			<polygon id="Andorre_2_" class="st8" points="450.5,711.7 462.3,707.7 457,699.1 445.6,700.3 445.5,705 			"/>
			<polygon id="Monaco_2_" class="st8" points="711.5,635.2 711.5,635.2 720.4,635.5 716.8,628 711.7,628.4 			"/>
		</g>
	</g>
</g>
<g>
	<g>
		<rect x="79.5" y="407.5" class="st3" width="169.7" height="194.8"/>
		<g id="XMLID_629_">
			<rect id="XMLID_114_" x="96.4" y="424" class="st9" width="177.7" height="110.6"/>
			<g class="st10">
				<path d="M97.7,424h3.8c0.7,0,1.4,0.1,2,0.4c0.6,0.3,1.1,0.6,1.5,1.1c0.4,0.5,0.8,1,1,1.6s0.3,1.3,0.3,2.1c0,0.8-0.1,1.5-0.3,2.1
					c-0.2,0.6-0.6,1.2-1,1.6s-0.9,0.8-1.5,1c-0.6,0.2-1.3,0.4-2,0.4h-3.8V424z M101.5,433c0.5,0,0.9-0.1,1.3-0.3s0.7-0.4,1-0.8
					c0.3-0.3,0.5-0.7,0.7-1.2c0.2-0.5,0.2-1,0.2-1.6c0-0.6-0.1-1.1-0.2-1.6s-0.4-0.9-0.7-1.2s-0.6-0.6-1-0.8s-0.8-0.3-1.3-0.3h-2.2
					v7.6H101.5z"/>
				<path d="M109.2,425.5c-0.3,0-0.5-0.1-0.7-0.3s-0.3-0.4-0.3-0.7c0-0.3,0.1-0.5,0.3-0.7c0.2-0.2,0.4-0.3,0.7-0.3
					c0.3,0,0.5,0.1,0.7,0.3s0.3,0.4,0.3,0.7c0,0.3-0.1,0.5-0.3,0.7S109.5,425.5,109.2,425.5z M108.4,426.8h1.5v7.5h-1.5V426.8z"/>
				<path d="M111.4,426.8h1.6l2,5.8l2-5.8h1.6l-2.9,7.5h-1.5L111.4,426.8z"/>
				<path d="M126.4,431.8c0,0.4-0.1,0.8-0.3,1.1s-0.4,0.6-0.7,0.9s-0.6,0.4-1,0.6c-0.4,0.1-0.8,0.2-1.3,0.2c-0.6,0-1.1-0.1-1.6-0.3
					c-0.4-0.2-0.8-0.4-1.1-0.8s-0.5-0.8-0.6-1.2c-0.1-0.5-0.2-1-0.2-1.6s0.1-1.1,0.2-1.6c0.1-0.5,0.4-0.9,0.7-1.2
					c0.3-0.3,0.7-0.6,1.1-0.8s0.9-0.3,1.5-0.3s1.1,0.1,1.5,0.3s0.8,0.4,1,0.8c0.3,0.3,0.5,0.7,0.6,1.2c0.1,0.5,0.2,1,0.2,1.6v0.2
					h-5.3c0,0.8,0.2,1.4,0.5,1.8s0.8,0.6,1.4,0.6c0.5,0,0.9-0.1,1.3-0.4s0.5-0.6,0.6-1.1H126.4z M124.9,429.8c0-0.6-0.2-1-0.5-1.4
					s-0.7-0.6-1.3-0.6c-0.6,0-1,0.2-1.3,0.5c-0.3,0.3-0.5,0.8-0.6,1.5H124.9z"/>
				<path d="M128.5,426.8h1.5v1.2h0c0.2-0.4,0.5-0.7,0.9-1s0.7-0.3,1.2-0.3c0,0,0.1,0,0.2,0s0.2,0,0.2,0v1.6c-0.1,0-0.2,0-0.3-0.1
					s-0.2,0-0.3,0c-0.6,0-1,0.2-1.4,0.5s-0.5,0.9-0.5,1.5v4.1h-1.5V426.8z"/>
				<path d="M135,431.9c0,0.6,0.2,0.9,0.6,1.1s0.7,0.3,1.2,0.3c0.4,0,0.8-0.1,1-0.3s0.4-0.4,0.4-0.8c0-0.3-0.1-0.5-0.3-0.7
					s-0.5-0.3-0.8-0.4c-0.3-0.1-0.7-0.2-1.1-0.2c-0.4-0.1-0.7-0.2-1.1-0.3c-0.3-0.1-0.6-0.4-0.8-0.6c-0.2-0.3-0.3-0.7-0.3-1.2
					c0-0.3,0.1-0.6,0.2-0.9c0.1-0.3,0.3-0.5,0.5-0.7s0.5-0.4,0.9-0.5c0.3-0.1,0.8-0.2,1.2-0.2c0.9,0,1.6,0.2,2.1,0.6
					s0.8,1.1,0.8,1.9h-1.5c0-0.5-0.2-0.8-0.4-1.1c-0.3-0.2-0.6-0.3-1.1-0.3c-0.2,0-0.4,0-0.6,0.1s-0.3,0.1-0.4,0.2
					c-0.1,0.1-0.2,0.2-0.2,0.3s-0.1,0.2-0.1,0.4c0,0.3,0.1,0.5,0.3,0.6s0.5,0.2,0.8,0.3c0.3,0.1,0.7,0.2,1.1,0.3
					c0.4,0.1,0.7,0.2,1.1,0.3c0.3,0.2,0.6,0.4,0.8,0.7c0.2,0.3,0.3,0.7,0.3,1.2c0,0.7-0.2,1.2-0.7,1.6c-0.5,0.4-1.2,0.6-2.2,0.6
					c-1,0-1.8-0.2-2.3-0.6s-0.9-1.1-0.9-2H135z"/>
				<path d="M142.4,425.5c-0.3,0-0.5-0.1-0.7-0.3s-0.3-0.4-0.3-0.7c0-0.3,0.1-0.5,0.3-0.7c0.2-0.2,0.4-0.3,0.7-0.3
					c0.3,0,0.5,0.1,0.7,0.3s0.3,0.4,0.3,0.7c0,0.3-0.1,0.5-0.3,0.7S142.7,425.5,142.4,425.5z M141.7,426.8h1.5v7.5h-1.5V426.8z"/>
				<path d="M145.6,428.1h-1v-1.2h1v-1.9h1.5v1.9h1.8v1.2h-1.8v3.9c0,0.4,0.1,0.7,0.3,0.8s0.4,0.3,0.8,0.3c0.1,0,0.2,0,0.4,0
					s0.2,0,0.4,0v1.3c-0.2,0-0.3,0.1-0.5,0.1s-0.3,0-0.5,0c-0.7,0-1.3-0.2-1.7-0.6c-0.4-0.4-0.6-1-0.6-1.8V428.1z"/>
				<path d="M156.8,431.8c0,0.4-0.1,0.8-0.3,1.1s-0.4,0.6-0.7,0.9s-0.6,0.4-1,0.6c-0.4,0.1-0.8,0.2-1.3,0.2c-0.6,0-1.1-0.1-1.6-0.3
					c-0.4-0.2-0.8-0.4-1.1-0.8s-0.5-0.8-0.6-1.2c-0.1-0.5-0.2-1-0.2-1.6s0.1-1.1,0.2-1.6c0.1-0.5,0.4-0.9,0.7-1.2
					c0.3-0.3,0.7-0.6,1.1-0.8s0.9-0.3,1.5-0.3s1.1,0.1,1.5,0.3s0.8,0.4,1,0.8c0.3,0.3,0.5,0.7,0.6,1.2c0.1,0.5,0.2,1,0.2,1.6v0.2
					h-5.3c0,0.8,0.2,1.4,0.5,1.8s0.8,0.6,1.4,0.6c0.5,0,0.9-0.1,1.3-0.4s0.5-0.6,0.6-1.1H156.8z M155.4,429.8c0-0.6-0.2-1-0.5-1.4
					s-0.7-0.6-1.3-0.6c-0.6,0-1,0.2-1.3,0.5c-0.3,0.3-0.5,0.8-0.6,1.5H155.4z M154.4,424h1.8l-2.1,2h-1.2L154.4,424z"/>
				<path d="M168.3,433.1L168.3,433.1c-0.3,0.4-0.6,0.7-0.9,1s-0.9,0.4-1.5,0.4c-0.5,0-1-0.1-1.4-0.3c-0.4-0.2-0.7-0.5-1-0.8
					s-0.5-0.8-0.6-1.2c-0.1-0.5-0.2-1-0.2-1.5c0-0.6,0.1-1.1,0.2-1.6c0.1-0.5,0.3-0.9,0.6-1.2c0.3-0.3,0.6-0.6,1-0.8
					s0.9-0.3,1.4-0.3c0.6,0,1.1,0.1,1.5,0.4s0.7,0.6,0.9,0.9h0v-4h1.5v10.4h-1.5V433.1z M166.3,433.3c0.7,0,1.2-0.2,1.5-0.7
					c0.3-0.5,0.5-1.2,0.5-2c0-0.9-0.2-1.5-0.5-2c-0.3-0.5-0.8-0.7-1.5-0.7c-0.6,0-1.2,0.2-1.5,0.7c-0.4,0.5-0.6,1.2-0.6,2
					c0,0.9,0.2,1.5,0.5,2S165.6,433.3,166.3,433.3z"/>
				<path d="M178.5,431.8c0,0.4-0.1,0.8-0.3,1.1s-0.4,0.6-0.7,0.9s-0.6,0.4-1,0.6c-0.4,0.1-0.8,0.2-1.3,0.2c-0.6,0-1.1-0.1-1.6-0.3
					c-0.4-0.2-0.8-0.4-1.1-0.8s-0.5-0.8-0.6-1.2c-0.1-0.5-0.2-1-0.2-1.6s0.1-1.1,0.2-1.6c0.1-0.5,0.4-0.9,0.7-1.2
					c0.3-0.3,0.7-0.6,1.1-0.8s0.9-0.3,1.5-0.3s1.1,0.1,1.5,0.3s0.8,0.4,1,0.8c0.3,0.3,0.5,0.7,0.6,1.2c0.1,0.5,0.2,1,0.2,1.6v0.2
					h-5.3c0,0.8,0.2,1.4,0.5,1.8s0.8,0.6,1.4,0.6c0.5,0,0.9-0.1,1.3-0.4s0.5-0.6,0.6-1.1H178.5z M177,429.8c0-0.6-0.2-1-0.5-1.4
					s-0.7-0.6-1.3-0.6c-0.6,0-1,0.2-1.3,0.5c-0.3,0.3-0.5,0.8-0.6,1.5H177z"/>
				<path d="M181.5,431.9c0,0.6,0.2,0.9,0.6,1.1s0.7,0.3,1.2,0.3c0.4,0,0.8-0.1,1-0.3s0.4-0.4,0.4-0.8c0-0.3-0.1-0.5-0.3-0.7
					s-0.5-0.3-0.8-0.4c-0.3-0.1-0.7-0.2-1.1-0.2c-0.4-0.1-0.7-0.2-1.1-0.3c-0.3-0.1-0.6-0.4-0.8-0.6c-0.2-0.3-0.3-0.7-0.3-1.2
					c0-0.3,0.1-0.6,0.2-0.9c0.1-0.3,0.3-0.5,0.5-0.7s0.5-0.4,0.9-0.5c0.3-0.1,0.8-0.2,1.2-0.2c0.9,0,1.6,0.2,2.1,0.6
					s0.8,1.1,0.8,1.9h-1.5c0-0.5-0.2-0.8-0.4-1.1c-0.3-0.2-0.6-0.3-1.1-0.3c-0.2,0-0.4,0-0.6,0.1s-0.3,0.1-0.4,0.2
					c-0.1,0.1-0.2,0.2-0.2,0.3s-0.1,0.2-0.1,0.4c0,0.3,0.1,0.5,0.3,0.6s0.5,0.2,0.8,0.3c0.3,0.1,0.7,0.2,1.1,0.3
					c0.4,0.1,0.7,0.2,1.1,0.3c0.3,0.2,0.6,0.4,0.8,0.7c0.2,0.3,0.3,0.7,0.3,1.2c0,0.7-0.2,1.2-0.7,1.6c-0.5,0.4-1.2,0.6-2.2,0.6
					c-1,0-1.8-0.2-2.3-0.6s-0.9-1.1-0.9-2H181.5z"/>
			</g>
			<g class="st10">
				<path d="M96.6,443.6h1.6l2,5.8l2-5.8h1.6l-2.9,7.5h-1.5L96.6,443.6z"/>
				<path d="M106,442.3c-0.3,0-0.5-0.1-0.7-0.3s-0.3-0.4-0.3-0.7c0-0.3,0.1-0.5,0.3-0.7c0.2-0.2,0.4-0.3,0.7-0.3
					c0.3,0,0.5,0.1,0.7,0.3s0.3,0.4,0.3,0.7c0,0.3-0.1,0.5-0.3,0.7S106.3,442.3,106,442.3z M105.3,443.6h1.5v7.5h-1.5V443.6z"/>
				<path d="M109.2,440.8h1.5v10.4h-1.5V440.8z"/>
				<path d="M113.1,440.8h1.5v10.4h-1.5V440.8z"/>
				<path d="M123.3,448.6c0,0.4-0.1,0.8-0.3,1.1s-0.4,0.6-0.7,0.9s-0.6,0.4-1,0.6c-0.4,0.1-0.8,0.2-1.3,0.2c-0.6,0-1.1-0.1-1.6-0.3
					c-0.4-0.2-0.8-0.4-1.1-0.8s-0.5-0.8-0.6-1.2c-0.1-0.5-0.2-1-0.2-1.6s0.1-1.1,0.2-1.6c0.1-0.5,0.4-0.9,0.7-1.2
					c0.3-0.3,0.7-0.6,1.1-0.8s0.9-0.3,1.5-0.3s1.1,0.1,1.5,0.3s0.8,0.4,1,0.8c0.3,0.3,0.5,0.7,0.6,1.2c0.1,0.5,0.2,1,0.2,1.6v0.2
					h-5.3c0,0.8,0.2,1.4,0.5,1.8s0.8,0.6,1.4,0.6c0.5,0,0.9-0.1,1.3-0.4s0.5-0.6,0.6-1.1H123.3z M121.8,446.6c0-0.6-0.2-1-0.5-1.4
					s-0.7-0.6-1.3-0.6c-0.6,0-1,0.2-1.3,0.5c-0.3,0.3-0.5,0.8-0.6,1.5H121.8z"/>
				<path d="M125.2,446h3.8v1.4h-3.8V446z"/>
				<path d="M137.4,448.6c0,0.4-0.1,0.8-0.3,1.1s-0.4,0.6-0.7,0.9s-0.6,0.4-1,0.6c-0.4,0.1-0.8,0.2-1.3,0.2c-0.6,0-1.1-0.1-1.6-0.3
					c-0.4-0.2-0.8-0.4-1.1-0.8s-0.5-0.8-0.6-1.2c-0.1-0.5-0.2-1-0.2-1.6s0.1-1.1,0.2-1.6c0.1-0.5,0.4-0.9,0.7-1.2
					c0.3-0.3,0.7-0.6,1.1-0.8s0.9-0.3,1.5-0.3s1.1,0.1,1.5,0.3s0.8,0.4,1,0.8c0.3,0.3,0.5,0.7,0.6,1.2c0.1,0.5,0.2,1,0.2,1.6v0.2
					h-5.3c0,0.8,0.2,1.4,0.5,1.8s0.8,0.6,1.4,0.6c0.5,0,0.9-0.1,1.3-0.4s0.5-0.6,0.6-1.1H137.4z M135.9,446.6c0-0.6-0.2-1-0.5-1.4
					s-0.7-0.6-1.3-0.6c-0.6,0-1,0.2-1.3,0.5c-0.3,0.3-0.5,0.8-0.6,1.5H135.9z M134.9,440.8h1.8l-2.1,2h-1.2L134.9,440.8z"/>
				<path d="M139.6,444.9h-1v-1.2h1v-1.9h1.5v1.9h1.8v1.2h-1.8v3.9c0,0.4,0.1,0.7,0.3,0.8s0.4,0.3,0.8,0.3c0.1,0,0.2,0,0.4,0
					s0.2,0,0.4,0v1.3c-0.2,0-0.3,0.1-0.5,0.1s-0.3,0-0.5,0c-0.7,0-1.3-0.2-1.7-0.6c-0.4-0.4-0.6-1-0.6-1.8V444.9z"/>
				<path d="M148.8,450.1L148.8,450.1c-0.3,0.4-0.6,0.6-1,0.9s-1,0.3-1.6,0.3c-0.4,0-0.7-0.1-1-0.2c-0.3-0.1-0.5-0.2-0.7-0.4
					c-0.2-0.2-0.3-0.4-0.4-0.6c-0.1-0.2-0.1-0.5-0.1-0.8c0-0.5,0.1-1,0.4-1.3c0.2-0.3,0.5-0.5,0.9-0.7s0.8-0.3,1.2-0.3
					s0.9-0.1,1.2-0.2c0.3,0,0.5-0.1,0.7-0.1s0.3-0.1,0.4-0.1c0.1-0.1,0.1-0.1,0.2-0.2c0-0.1,0-0.2,0-0.3c0-0.4-0.1-0.7-0.4-1
					s-0.6-0.4-1.2-0.4c-0.5,0-0.9,0.1-1.2,0.3s-0.4,0.6-0.5,1.1h-1.4c0.1-0.8,0.4-1.4,0.8-1.9c0.5-0.5,1.2-0.7,2.3-0.7
					c1,0,1.8,0.2,2.3,0.7c0.5,0.5,0.7,1.2,0.7,2.3v4.6h-1.5V450.1z M148.9,447.5c-0.4,0.1-0.8,0.2-1.2,0.2c-0.4,0.1-0.8,0.1-1.1,0.2
					s-0.6,0.2-0.8,0.4s-0.3,0.4-0.3,0.7c0,0.3,0.1,0.6,0.4,0.8s0.6,0.3,1,0.3c0.3,0,0.6,0,0.9-0.1c0.3-0.1,0.5-0.2,0.7-0.4
					s0.3-0.4,0.5-0.6c0.1-0.2,0.2-0.5,0.2-0.8V447.5z"/>
				<path d="M152.6,443.6h1.5v1.2h0c0.2-0.4,0.5-0.7,0.9-0.9s0.9-0.4,1.5-0.4c0.5,0,1,0.1,1.4,0.3s0.7,0.5,1,0.8
					c0.3,0.3,0.5,0.7,0.6,1.2c0.1,0.5,0.2,1,0.2,1.6c0,0.6-0.1,1.1-0.2,1.6c-0.1,0.5-0.4,0.9-0.6,1.2s-0.6,0.6-1,0.8
					c-0.4,0.2-0.9,0.3-1.4,0.3c-0.6,0-1.1-0.1-1.5-0.4s-0.7-0.6-0.9-1h0v3.9h-1.5V443.6z M156.1,450.1c0.6,0,1.2-0.2,1.5-0.7
					c0.4-0.5,0.6-1.2,0.6-2c0-0.9-0.2-1.5-0.5-2c-0.4-0.5-0.9-0.7-1.6-0.7c-0.7,0-1.2,0.2-1.5,0.7c-0.3,0.5-0.5,1.2-0.5,2
					s0.2,1.5,0.5,2S155.4,450.1,156.1,450.1z"/>
				<path d="M168,448.6c0,0.4-0.1,0.8-0.3,1.1s-0.4,0.6-0.7,0.9s-0.6,0.4-1,0.6c-0.4,0.1-0.8,0.2-1.3,0.2c-0.6,0-1.1-0.1-1.6-0.3
					c-0.4-0.2-0.8-0.4-1.1-0.8s-0.5-0.8-0.6-1.2c-0.1-0.5-0.2-1-0.2-1.6s0.1-1.1,0.2-1.6c0.1-0.5,0.4-0.9,0.7-1.2
					c0.3-0.3,0.7-0.6,1.1-0.8s0.9-0.3,1.5-0.3s1.1,0.1,1.5,0.3s0.8,0.4,1,0.8c0.3,0.3,0.5,0.7,0.6,1.2c0.1,0.5,0.2,1,0.2,1.6v0.2
					h-5.3c0,0.8,0.2,1.4,0.5,1.8s0.8,0.6,1.4,0.6c0.5,0,0.9-0.1,1.3-0.4s0.5-0.6,0.6-1.1H168z M166.5,446.6c0-0.6-0.2-1-0.5-1.4
					s-0.7-0.6-1.3-0.6c-0.6,0-1,0.2-1.3,0.5c-0.3,0.3-0.5,0.8-0.6,1.5H166.5z"/>
				<path d="M171.1,448.7c0,0.6,0.2,0.9,0.6,1.1s0.7,0.3,1.2,0.3c0.4,0,0.8-0.1,1-0.3s0.4-0.4,0.4-0.8c0-0.3-0.1-0.5-0.3-0.7
					s-0.5-0.3-0.8-0.4c-0.3-0.1-0.7-0.2-1.1-0.2c-0.4-0.1-0.7-0.2-1.1-0.3c-0.3-0.1-0.6-0.4-0.8-0.6c-0.2-0.3-0.3-0.7-0.3-1.2
					c0-0.3,0.1-0.6,0.2-0.9c0.1-0.3,0.3-0.5,0.5-0.7s0.5-0.4,0.9-0.5c0.3-0.1,0.8-0.2,1.2-0.2c0.9,0,1.6,0.2,2.1,0.6
					s0.8,1.1,0.8,1.9h-1.5c0-0.5-0.2-0.8-0.4-1.1c-0.3-0.2-0.6-0.3-1.1-0.3c-0.2,0-0.4,0-0.6,0.1s-0.3,0.1-0.4,0.2
					c-0.1,0.1-0.2,0.2-0.2,0.3s-0.1,0.2-0.1,0.4c0,0.3,0.1,0.5,0.3,0.6s0.5,0.2,0.8,0.3c0.3,0.1,0.7,0.2,1.1,0.3
					c0.4,0.1,0.7,0.2,1.1,0.3c0.3,0.2,0.6,0.4,0.8,0.7c0.2,0.3,0.3,0.7,0.3,1.2c0,0.7-0.2,1.2-0.7,1.6c-0.5,0.4-1.2,0.6-2.2,0.6
					c-1,0-1.8-0.2-2.3-0.6s-0.9-1.1-0.9-2H171.1z"/>
			</g>
			<g class="st10">
				<path d="M97.6,460.4h1.5v1.2h0c0.2-0.4,0.5-0.7,0.9-0.9s0.9-0.4,1.5-0.4c0.5,0,1,0.1,1.4,0.3s0.7,0.5,1,0.8
					c0.3,0.3,0.5,0.7,0.6,1.2c0.1,0.5,0.2,1,0.2,1.6c0,0.6-0.1,1.1-0.2,1.6c-0.1,0.5-0.4,0.9-0.6,1.2s-0.6,0.6-1,0.8
					c-0.4,0.2-0.9,0.3-1.4,0.3c-0.6,0-1.1-0.1-1.5-0.4s-0.7-0.6-0.9-1h0v3.9h-1.5V460.4z M101.1,466.9c0.6,0,1.2-0.2,1.5-0.7
					c0.4-0.5,0.6-1.2,0.6-2c0-0.9-0.2-1.5-0.5-2c-0.4-0.5-0.9-0.7-1.6-0.7c-0.7,0-1.2,0.2-1.5,0.7c-0.3,0.5-0.5,1.2-0.5,2
					s0.2,1.5,0.5,2S100.4,466.9,101.1,466.9z"/>
				<path d="M111,466.9L111,466.9c-0.3,0.4-0.6,0.6-1,0.9s-1,0.3-1.6,0.3c-0.4,0-0.7-0.1-1-0.2c-0.3-0.1-0.5-0.2-0.7-0.4
					c-0.2-0.2-0.3-0.4-0.4-0.6c-0.1-0.2-0.1-0.5-0.1-0.8c0-0.5,0.1-1,0.4-1.3c0.2-0.3,0.5-0.5,0.9-0.7s0.8-0.3,1.2-0.3
					s0.9-0.1,1.2-0.2c0.3,0,0.5-0.1,0.7-0.1s0.3-0.1,0.4-0.1c0.1-0.1,0.1-0.1,0.2-0.2c0-0.1,0-0.2,0-0.3c0-0.4-0.1-0.7-0.4-1
					s-0.6-0.4-1.2-0.4c-0.5,0-0.9,0.1-1.2,0.3s-0.4,0.6-0.5,1.1h-1.4c0.1-0.8,0.4-1.4,0.8-1.9c0.5-0.5,1.2-0.7,2.3-0.7
					c1,0,1.8,0.2,2.3,0.7c0.5,0.5,0.7,1.2,0.7,2.3v4.6H111V466.9z M111,464.3c-0.4,0.1-0.8,0.2-1.2,0.2c-0.4,0.1-0.8,0.1-1.1,0.2
					s-0.6,0.2-0.8,0.4s-0.3,0.4-0.3,0.7c0,0.3,0.1,0.6,0.4,0.8s0.6,0.3,1,0.3c0.3,0,0.6,0,0.9-0.1c0.3-0.1,0.5-0.2,0.7-0.4
					s0.3-0.4,0.5-0.6c0.1-0.2,0.2-0.5,0.2-0.8V464.3z"/>
				<path d="M114.8,460.4h1.5v1.2h0c0.2-0.4,0.5-0.7,0.9-1s0.7-0.3,1.2-0.3c0,0,0.1,0,0.2,0s0.2,0,0.2,0v1.6c-0.1,0-0.2,0-0.3-0.1
					s-0.2,0-0.3,0c-0.6,0-1,0.2-1.4,0.5s-0.5,0.9-0.5,1.5v4.1h-1.5V460.4z"/>
				<path d="M129.7,466.7L129.7,466.7c-0.3,0.4-0.6,0.7-0.9,1s-0.9,0.4-1.5,0.4c-0.5,0-1-0.1-1.4-0.3c-0.4-0.2-0.7-0.5-1-0.8
					s-0.5-0.8-0.6-1.2c-0.1-0.5-0.2-1-0.2-1.5c0-0.6,0.1-1.1,0.2-1.6c0.1-0.5,0.3-0.9,0.6-1.2c0.3-0.3,0.6-0.6,1-0.8
					s0.9-0.3,1.4-0.3c0.6,0,1.1,0.1,1.5,0.4s0.7,0.6,0.9,0.9h0v-4h1.5v10.4h-1.5V466.7z M127.7,466.9c0.7,0,1.2-0.2,1.5-0.7
					c0.3-0.5,0.5-1.2,0.5-2c0-0.9-0.2-1.5-0.5-2c-0.3-0.5-0.8-0.7-1.5-0.7c-0.6,0-1.2,0.2-1.5,0.7c-0.4,0.5-0.6,1.2-0.6,2
					c0,0.9,0.2,1.5,0.5,2S127,466.9,127.7,466.9z"/>
				<path d="M139.9,465.4c0,0.4-0.1,0.8-0.3,1.1s-0.4,0.6-0.7,0.9s-0.6,0.4-1,0.6c-0.4,0.1-0.8,0.2-1.3,0.2c-0.6,0-1.1-0.1-1.6-0.3
					c-0.4-0.2-0.8-0.4-1.1-0.8s-0.5-0.8-0.6-1.2c-0.1-0.5-0.2-1-0.2-1.6s0.1-1.1,0.2-1.6c0.1-0.5,0.4-0.9,0.7-1.2
					c0.3-0.3,0.7-0.6,1.1-0.8s0.9-0.3,1.5-0.3s1.1,0.1,1.5,0.3s0.8,0.4,1,0.8c0.3,0.3,0.5,0.7,0.6,1.2c0.1,0.5,0.2,1,0.2,1.6v0.2
					h-5.3c0,0.8,0.2,1.4,0.5,1.8s0.8,0.6,1.4,0.6c0.5,0,0.9-0.1,1.3-0.4s0.5-0.6,0.6-1.1H139.9z M138.5,463.4c0-0.6-0.2-1-0.5-1.4
					s-0.7-0.6-1.3-0.6c-0.6,0-1,0.2-1.3,0.5c-0.3,0.3-0.5,0.8-0.6,1.5H138.5z M137.5,457.6h1.8l-2.1,2H136L137.5,457.6z"/>
				<path d="M142.1,460.4h1.5v1.2h0c0.2-0.4,0.5-0.7,0.9-0.9s0.9-0.4,1.5-0.4c0.5,0,1,0.1,1.4,0.3s0.7,0.5,1,0.8
					c0.3,0.3,0.5,0.7,0.6,1.2c0.1,0.5,0.2,1,0.2,1.6c0,0.6-0.1,1.1-0.2,1.6c-0.1,0.5-0.4,0.9-0.6,1.2s-0.6,0.6-1,0.8
					c-0.4,0.2-0.9,0.3-1.4,0.3c-0.6,0-1.1-0.1-1.5-0.4s-0.7-0.6-0.9-1h0v3.9h-1.5V460.4z M145.6,466.9c0.6,0,1.2-0.2,1.5-0.7
					c0.4-0.5,0.6-1.2,0.6-2c0-0.9-0.2-1.5-0.5-2c-0.4-0.5-0.9-0.7-1.6-0.7c-0.7,0-1.2,0.2-1.5,0.7c-0.3,0.5-0.5,1.2-0.5,2
					s0.2,1.5,0.5,2S144.9,466.9,145.6,466.9z"/>
				<path d="M155.5,466.9L155.5,466.9c-0.3,0.4-0.6,0.6-1,0.9s-1,0.3-1.6,0.3c-0.4,0-0.7-0.1-1-0.2c-0.3-0.1-0.5-0.2-0.7-0.4
					c-0.2-0.2-0.3-0.4-0.4-0.6c-0.1-0.2-0.1-0.5-0.1-0.8c0-0.5,0.1-1,0.4-1.3c0.2-0.3,0.5-0.5,0.9-0.7s0.8-0.3,1.2-0.3
					s0.9-0.1,1.2-0.2c0.3,0,0.5-0.1,0.7-0.1s0.3-0.1,0.4-0.1c0.1-0.1,0.1-0.1,0.2-0.2c0-0.1,0-0.2,0-0.3c0-0.4-0.1-0.7-0.4-1
					s-0.6-0.4-1.2-0.4c-0.5,0-0.9,0.1-1.2,0.3s-0.4,0.6-0.5,1.1h-1.4c0.1-0.8,0.4-1.4,0.8-1.9c0.5-0.5,1.2-0.7,2.3-0.7
					c1,0,1.8,0.2,2.3,0.7c0.5,0.5,0.7,1.2,0.7,2.3v4.6h-1.5V466.9z M155.5,464.3c-0.4,0.1-0.8,0.2-1.2,0.2c-0.4,0.1-0.8,0.1-1.1,0.2
					s-0.6,0.2-0.8,0.4s-0.3,0.4-0.3,0.7c0,0.3,0.1,0.6,0.4,0.8s0.6,0.3,1,0.3c0.3,0,0.6,0,0.9-0.1c0.3-0.1,0.5-0.2,0.7-0.4
					s0.3-0.4,0.5-0.6c0.1-0.2,0.2-0.5,0.2-0.8V464.3z"/>
				<path d="M159.3,460.4h1.5v1.2h0c0.2-0.4,0.5-0.7,0.9-1s0.7-0.3,1.2-0.3c0,0,0.1,0,0.2,0s0.2,0,0.2,0v1.6c-0.1,0-0.2,0-0.3-0.1
					s-0.2,0-0.3,0c-0.6,0-1,0.2-1.4,0.5s-0.5,0.9-0.5,1.5v4.1h-1.5V460.4z"/>
				<path d="M164.9,461.7h-1v-1.2h1v-1.9h1.5v1.9h1.8v1.2h-1.8v3.9c0,0.4,0.1,0.7,0.3,0.8s0.4,0.3,0.8,0.3c0.1,0,0.2,0,0.4,0
					s0.2,0,0.4,0v1.3c-0.2,0-0.3,0.1-0.5,0.1s-0.3,0-0.5,0c-0.7,0-1.3-0.2-1.7-0.6c-0.4-0.4-0.6-1-0.6-1.8V461.7z"/>
				<path d="M176.1,465.4c0,0.4-0.1,0.8-0.3,1.1s-0.4,0.6-0.7,0.9s-0.6,0.4-1,0.6c-0.4,0.1-0.8,0.2-1.3,0.2c-0.6,0-1.1-0.1-1.6-0.3
					c-0.4-0.2-0.8-0.4-1.1-0.8s-0.5-0.8-0.6-1.2c-0.1-0.5-0.2-1-0.2-1.6s0.1-1.1,0.2-1.6c0.1-0.5,0.4-0.9,0.7-1.2
					c0.3-0.3,0.7-0.6,1.1-0.8s0.9-0.3,1.5-0.3s1.1,0.1,1.5,0.3s0.8,0.4,1,0.8c0.3,0.3,0.5,0.7,0.6,1.2c0.1,0.5,0.2,1,0.2,1.6v0.2
					h-5.3c0,0.8,0.2,1.4,0.5,1.8s0.8,0.6,1.4,0.6c0.5,0,0.9-0.1,1.3-0.4s0.5-0.6,0.6-1.1H176.1z M174.7,463.4c0-0.6-0.2-1-0.5-1.4
					s-0.7-0.6-1.3-0.6c-0.6,0-1,0.2-1.3,0.5c-0.3,0.3-0.5,0.8-0.6,1.5H174.7z"/>
				<path d="M178.2,460.4h1.5v1.2h0c0.2-0.4,0.5-0.7,0.8-1s0.8-0.4,1.3-0.4c0.6,0,1,0.1,1.4,0.4s0.6,0.6,0.7,1h0
					c0.2-0.4,0.5-0.8,0.9-1c0.4-0.2,0.8-0.4,1.4-0.4c0.8,0,1.4,0.2,1.8,0.7c0.4,0.5,0.6,1.1,0.6,2v4.9h-1.5v-4.5
					c0-0.6-0.1-1.1-0.3-1.4s-0.5-0.4-1-0.4c-0.5,0-0.9,0.2-1.2,0.5s-0.5,0.8-0.5,1.5v4.4h-1.5v-4.5c0-0.6-0.1-1.1-0.3-1.4
					s-0.5-0.5-1-0.5c-0.6,0-1,0.2-1.3,0.5s-0.5,0.9-0.5,1.5v4.3h-1.5V460.4z"/>
				<path d="M197.5,465.4c0,0.4-0.1,0.8-0.3,1.1s-0.4,0.6-0.7,0.9s-0.6,0.4-1,0.6c-0.4,0.1-0.8,0.2-1.3,0.2c-0.6,0-1.1-0.1-1.6-0.3
					c-0.4-0.2-0.8-0.4-1.1-0.8s-0.5-0.8-0.6-1.2c-0.1-0.5-0.2-1-0.2-1.6s0.1-1.1,0.2-1.6c0.1-0.5,0.4-0.9,0.7-1.2
					c0.3-0.3,0.7-0.6,1.1-0.8s0.9-0.3,1.5-0.3s1.1,0.1,1.5,0.3s0.8,0.4,1,0.8c0.3,0.3,0.5,0.7,0.6,1.2c0.1,0.5,0.2,1,0.2,1.6v0.2
					h-5.3c0,0.8,0.2,1.4,0.5,1.8s0.8,0.6,1.4,0.6c0.5,0,0.9-0.1,1.3-0.4s0.5-0.6,0.6-1.1H197.5z M196,463.4c0-0.6-0.2-1-0.5-1.4
					s-0.7-0.6-1.3-0.6c-0.6,0-1,0.2-1.3,0.5c-0.3,0.3-0.5,0.8-0.6,1.5H196z"/>
				<path d="M199.6,460.4h1.5v1.2h0c0.3-0.4,0.6-0.7,0.9-1s0.9-0.3,1.5-0.3c0.9,0,1.5,0.2,1.9,0.7c0.4,0.5,0.6,1.1,0.6,2v4.9h-1.5
					v-4.5c0-0.6-0.1-1.1-0.3-1.4s-0.6-0.5-1.1-0.5c-0.6,0-1.1,0.2-1.4,0.6s-0.5,0.9-0.5,1.5v4.3h-1.5V460.4z"/>
				<path d="M208.4,461.7h-1v-1.2h1v-1.9h1.5v1.9h1.8v1.2h-1.8v3.9c0,0.4,0.1,0.7,0.3,0.8s0.4,0.3,0.8,0.3c0.1,0,0.2,0,0.4,0
					s0.2,0,0.4,0v1.3c-0.2,0-0.3,0.1-0.5,0.1s-0.3,0-0.5,0c-0.7,0-1.3-0.2-1.7-0.6c-0.4-0.4-0.6-1-0.6-1.8V461.7z"/>
			</g>
			<g class="st10">
				<path d="M97.3,484.5h1.5l3.3,5.9v-5.9h1.1v7.4h-1.5l-3.3-5.9v5.9h-1.1V484.5z"/>
				<path d="M107.4,492c-0.4,0-0.8-0.1-1.1-0.2c-0.3-0.1-0.6-0.3-0.8-0.6s-0.4-0.5-0.5-0.9c-0.1-0.3-0.2-0.7-0.2-1.1
					s0.1-0.8,0.2-1.1c0.1-0.3,0.3-0.6,0.5-0.9c0.2-0.2,0.5-0.4,0.8-0.6s0.7-0.2,1.1-0.2s0.8,0.1,1.1,0.2s0.6,0.3,0.8,0.6
					c0.2,0.2,0.4,0.5,0.5,0.9c0.1,0.3,0.2,0.7,0.2,1.1s-0.1,0.8-0.2,1.1c-0.1,0.3-0.3,0.6-0.5,0.9s-0.5,0.4-0.8,0.6
					C108.1,492,107.8,492,107.4,492z M107.4,491.2c0.5,0,0.9-0.2,1.2-0.5c0.3-0.3,0.4-0.8,0.4-1.4c0-0.6-0.1-1.1-0.4-1.4
					c-0.3-0.4-0.7-0.5-1.2-0.5c-0.5,0-0.9,0.2-1.2,0.5c-0.3,0.3-0.4,0.8-0.4,1.4c0,0.6,0.1,1.1,0.4,1.4
					C106.5,491,106.9,491.2,107.4,491.2z"/>
				<path d="M111.4,486.6h1.1v0.8h0c0.2-0.3,0.4-0.5,0.6-0.7s0.6-0.3,1-0.3c0.4,0,0.7,0.1,1,0.3s0.4,0.4,0.5,0.7h0
					c0.2-0.3,0.4-0.6,0.7-0.7c0.3-0.2,0.6-0.3,1-0.3c0.6,0,1,0.2,1.3,0.5c0.3,0.3,0.4,0.8,0.4,1.5v3.5h-1.1v-3.2
					c0-0.5-0.1-0.8-0.2-1s-0.4-0.3-0.7-0.3c-0.4,0-0.7,0.1-0.9,0.3s-0.3,0.6-0.3,1v3.1h-1.1v-3.2c0-0.4-0.1-0.8-0.2-1
					s-0.4-0.3-0.7-0.3c-0.4,0-0.7,0.1-0.9,0.4s-0.3,0.6-0.3,1.1v3.1h-1.1V486.6z"/>
				<path d="M120.6,484.5h1.1v2.9h0c0.2-0.3,0.4-0.5,0.7-0.7s0.6-0.3,1.1-0.3c0.4,0,0.7,0.1,1,0.2s0.5,0.3,0.7,0.6
					c0.2,0.2,0.3,0.5,0.4,0.9c0.1,0.3,0.1,0.7,0.1,1.1c0,0.4-0.1,0.8-0.2,1.1c-0.1,0.3-0.3,0.6-0.4,0.9s-0.4,0.4-0.7,0.6
					c-0.3,0.1-0.6,0.2-1,0.2c-0.4,0-0.8-0.1-1-0.3s-0.5-0.4-0.7-0.7h0v0.9h-1.1V484.5z M123.2,491.2c0.5,0,0.8-0.2,1.1-0.5
					c0.3-0.3,0.4-0.8,0.4-1.5c0-0.6-0.1-1.1-0.4-1.4c-0.3-0.3-0.6-0.5-1.1-0.5c-0.5,0-0.9,0.2-1.1,0.5c-0.2,0.3-0.3,0.8-0.3,1.4
					s0.1,1.1,0.3,1.4S122.6,491.2,123.2,491.2z"/>
				<path d="M127.1,486.6h1.1v0.8h0c0.2-0.3,0.4-0.5,0.6-0.7s0.5-0.2,0.9-0.2c0,0,0.1,0,0.2,0s0.1,0,0.2,0v1.1c-0.1,0-0.1,0-0.2,0
					s-0.2,0-0.2,0c-0.4,0-0.7,0.1-1,0.4s-0.4,0.6-0.4,1.1v2.9h-1.1V486.6z"/>
				<path d="M135.6,490.1c0,0.3-0.1,0.5-0.2,0.8s-0.3,0.4-0.5,0.6s-0.4,0.3-0.7,0.4c-0.3,0.1-0.6,0.1-0.9,0.1
					c-0.4,0-0.8-0.1-1.1-0.2c-0.3-0.1-0.6-0.3-0.8-0.6s-0.4-0.5-0.5-0.9c-0.1-0.3-0.1-0.7-0.1-1.1s0.1-0.8,0.2-1.1
					c0.1-0.3,0.3-0.6,0.5-0.9c0.2-0.2,0.5-0.4,0.8-0.6s0.7-0.2,1.1-0.2s0.8,0.1,1.1,0.2s0.5,0.3,0.7,0.5c0.2,0.2,0.3,0.5,0.4,0.9
					c0.1,0.3,0.1,0.7,0.1,1.2v0.2h-3.8c0,0.6,0.1,1,0.4,1.3s0.6,0.4,1,0.4c0.4,0,0.7-0.1,0.9-0.3s0.4-0.4,0.4-0.8H135.6z
					 M134.6,488.7c0-0.4-0.1-0.7-0.3-1s-0.5-0.4-0.9-0.4c-0.4,0-0.7,0.1-1,0.3c-0.2,0.2-0.4,0.6-0.4,1.1H134.6z"/>
				<path d="M143.8,491.1L143.8,491.1c-0.2,0.3-0.4,0.5-0.7,0.7s-0.6,0.3-1.1,0.3c-0.4,0-0.7-0.1-1-0.2c-0.3-0.1-0.5-0.3-0.7-0.6
					s-0.3-0.5-0.4-0.9c-0.1-0.3-0.1-0.7-0.1-1.1c0-0.4,0-0.8,0.1-1.1c0.1-0.3,0.2-0.6,0.4-0.9c0.2-0.2,0.4-0.4,0.7-0.6
					s0.6-0.2,1-0.2c0.4,0,0.8,0.1,1,0.3s0.5,0.4,0.7,0.7h0v-2.9h1.1v7.4h-1.1V491.1z M142.4,491.2c0.5,0,0.9-0.2,1.1-0.5
					c0.2-0.3,0.3-0.8,0.3-1.5c0-0.6-0.1-1.1-0.4-1.4c-0.2-0.3-0.6-0.5-1.1-0.5c-0.5,0-0.8,0.2-1.1,0.5c-0.3,0.3-0.4,0.8-0.4,1.5
					c0,0.6,0.1,1.1,0.4,1.4S141.9,491.2,142.4,491.2z"/>
				<path d="M151.1,490.1c0,0.3-0.1,0.5-0.2,0.8s-0.3,0.4-0.5,0.6s-0.4,0.3-0.7,0.4c-0.3,0.1-0.6,0.1-0.9,0.1
					c-0.4,0-0.8-0.1-1.1-0.2c-0.3-0.1-0.6-0.3-0.8-0.6s-0.4-0.5-0.5-0.9c-0.1-0.3-0.1-0.7-0.1-1.1s0.1-0.8,0.2-1.1
					c0.1-0.3,0.3-0.6,0.5-0.9c0.2-0.2,0.5-0.4,0.8-0.6s0.7-0.2,1.1-0.2s0.8,0.1,1.1,0.2s0.5,0.3,0.7,0.5c0.2,0.2,0.3,0.5,0.4,0.9
					c0.1,0.3,0.1,0.7,0.1,1.2v0.2h-3.8c0,0.6,0.1,1,0.4,1.3s0.6,0.4,1,0.4c0.4,0,0.7-0.1,0.9-0.3s0.4-0.4,0.4-0.8H151.1z M150,488.7
					c0-0.4-0.1-0.7-0.3-1s-0.5-0.4-0.9-0.4c-0.4,0-0.7,0.1-1,0.3c-0.2,0.2-0.4,0.6-0.4,1.1H150z"/>
				<path d="M159.3,491.1L159.3,491.1c-0.2,0.3-0.4,0.5-0.7,0.7s-0.6,0.3-1.1,0.3c-0.4,0-0.7-0.1-1-0.2c-0.3-0.1-0.5-0.3-0.7-0.6
					s-0.3-0.5-0.4-0.9c-0.1-0.3-0.1-0.7-0.1-1.1c0-0.4,0-0.8,0.1-1.1c0.1-0.3,0.2-0.6,0.4-0.9c0.2-0.2,0.4-0.4,0.7-0.6
					s0.6-0.2,1-0.2c0.4,0,0.8,0.1,1,0.3s0.5,0.4,0.7,0.7h0v-2.9h1.1v7.4h-1.1V491.1z M157.8,491.2c0.5,0,0.9-0.2,1.1-0.5
					c0.2-0.3,0.3-0.8,0.3-1.5c0-0.6-0.1-1.1-0.4-1.4c-0.2-0.3-0.6-0.5-1.1-0.5c-0.5,0-0.8,0.2-1.1,0.5c-0.3,0.3-0.4,0.8-0.4,1.5
					c0,0.6,0.1,1.1,0.4,1.4S157.3,491.2,157.8,491.2z"/>
				<path d="M166.6,490.1c0,0.3-0.1,0.5-0.2,0.8s-0.3,0.4-0.5,0.6s-0.4,0.3-0.7,0.4c-0.3,0.1-0.6,0.1-0.9,0.1
					c-0.4,0-0.8-0.1-1.1-0.2c-0.3-0.1-0.6-0.3-0.8-0.6s-0.4-0.5-0.5-0.9c-0.1-0.3-0.1-0.7-0.1-1.1s0.1-0.8,0.2-1.1
					c0.1-0.3,0.3-0.6,0.5-0.9c0.2-0.2,0.5-0.4,0.8-0.6s0.7-0.2,1.1-0.2s0.8,0.1,1.1,0.2s0.5,0.3,0.7,0.5c0.2,0.2,0.3,0.5,0.4,0.9
					c0.1,0.3,0.1,0.7,0.1,1.2v0.2h-3.8c0,0.6,0.1,1,0.4,1.3s0.6,0.4,1,0.4c0.4,0,0.7-0.1,0.9-0.3s0.4-0.4,0.4-0.8H166.6z
					 M165.5,488.7c0-0.4-0.1-0.7-0.3-1s-0.5-0.4-0.9-0.4c-0.4,0-0.7,0.1-1,0.3c-0.2,0.2-0.4,0.6-0.4,1.1H165.5z M164.8,484.5h1.3
					l-1.5,1.4h-0.8L164.8,484.5z"/>
				<path d="M168.1,486.6h1.1v0.8h0c0.2-0.3,0.4-0.5,0.7-0.7s0.6-0.3,1.1-0.3c0.4,0,0.7,0.1,1,0.2s0.5,0.3,0.7,0.6
					c0.2,0.2,0.3,0.5,0.4,0.9c0.1,0.3,0.1,0.7,0.1,1.1c0,0.4-0.1,0.8-0.2,1.1c-0.1,0.3-0.3,0.6-0.4,0.9s-0.4,0.4-0.7,0.6
					c-0.3,0.1-0.6,0.2-1,0.2c-0.4,0-0.8-0.1-1-0.3s-0.5-0.4-0.7-0.7h0v2.8h-1.1V486.6z M170.6,491.2c0.5,0,0.8-0.2,1.1-0.5
					c0.3-0.3,0.4-0.8,0.4-1.5c0-0.6-0.1-1.1-0.4-1.4c-0.3-0.3-0.6-0.5-1.1-0.5c-0.5,0-0.9,0.2-1.1,0.5c-0.2,0.3-0.3,0.8-0.3,1.4
					s0.1,1.1,0.3,1.4S170.1,491.2,170.6,491.2z"/>
				<path d="M177.7,491.2L177.7,491.2c-0.2,0.3-0.4,0.5-0.7,0.6s-0.7,0.2-1.1,0.2c-0.3,0-0.5,0-0.7-0.1c-0.2-0.1-0.4-0.2-0.5-0.3
					c-0.1-0.1-0.2-0.3-0.3-0.5c-0.1-0.2-0.1-0.4-0.1-0.5c0-0.4,0.1-0.7,0.3-0.9c0.2-0.2,0.4-0.4,0.7-0.5s0.6-0.2,0.9-0.2
					s0.6-0.1,0.9-0.1c0.2,0,0.4-0.1,0.5-0.1s0.2-0.1,0.3-0.1c0.1,0,0.1-0.1,0.1-0.2c0-0.1,0-0.1,0-0.2c0-0.3-0.1-0.5-0.3-0.7
					s-0.5-0.3-0.8-0.3c-0.4,0-0.6,0.1-0.8,0.2s-0.3,0.4-0.3,0.8h-1c0.1-0.6,0.3-1,0.6-1.4c0.3-0.3,0.9-0.5,1.6-0.5
					c0.7,0,1.3,0.2,1.6,0.5c0.4,0.4,0.5,0.9,0.5,1.6v3.3h-1.1V491.2z M177.7,489.3c-0.3,0.1-0.6,0.1-0.9,0.2c-0.3,0-0.6,0.1-0.8,0.2
					s-0.4,0.2-0.6,0.3s-0.2,0.3-0.2,0.5c0,0.2,0.1,0.4,0.3,0.6s0.4,0.2,0.7,0.2c0.2,0,0.4,0,0.6-0.1c0.2-0.1,0.4-0.2,0.5-0.3
					s0.2-0.3,0.3-0.4c0.1-0.2,0.1-0.4,0.1-0.6V489.3z"/>
				<path d="M180.4,486.6h1.1v0.8h0c0.2-0.3,0.4-0.5,0.6-0.7s0.5-0.2,0.9-0.2c0,0,0.1,0,0.2,0s0.1,0,0.2,0v1.1c-0.1,0-0.1,0-0.2,0
					s-0.2,0-0.2,0c-0.4,0-0.7,0.1-1,0.4s-0.4,0.6-0.4,1.1v2.9h-1.1V486.6z"/>
				<path d="M184.4,487.5h-0.7v-0.9h0.7v-1.4h1.1v1.4h1.2v0.9h-1.2v2.8c0,0.3,0.1,0.5,0.2,0.6s0.3,0.2,0.6,0.2c0.1,0,0.2,0,0.3,0
					s0.2,0,0.3,0v0.9c-0.1,0-0.2,0-0.3,0.1s-0.2,0-0.4,0c-0.5,0-0.9-0.1-1.2-0.4c-0.3-0.3-0.4-0.7-0.4-1.3V487.5z"/>
				<path d="M188.6,490.2c0,0.4,0.2,0.7,0.4,0.8s0.5,0.2,0.9,0.2c0.3,0,0.6-0.1,0.7-0.2s0.3-0.3,0.3-0.5c0-0.2-0.1-0.4-0.2-0.5
					s-0.4-0.2-0.6-0.3c-0.2-0.1-0.5-0.1-0.8-0.2c-0.3-0.1-0.5-0.1-0.8-0.2c-0.2-0.1-0.4-0.3-0.6-0.5c-0.2-0.2-0.2-0.5-0.2-0.8
					c0-0.2,0-0.4,0.1-0.6c0.1-0.2,0.2-0.4,0.4-0.5s0.4-0.3,0.6-0.3c0.2-0.1,0.5-0.1,0.9-0.1c0.7,0,1.2,0.2,1.5,0.5s0.6,0.8,0.6,1.4
					h-1c0-0.3-0.1-0.6-0.3-0.8c-0.2-0.2-0.4-0.2-0.8-0.2c-0.2,0-0.3,0-0.4,0.1s-0.2,0.1-0.3,0.2c-0.1,0.1-0.1,0.1-0.2,0.2
					s0,0.2,0,0.3c0,0.2,0.1,0.3,0.2,0.4s0.4,0.2,0.6,0.2c0.2,0.1,0.5,0.1,0.8,0.2c0.3,0.1,0.5,0.1,0.8,0.2c0.2,0.1,0.4,0.3,0.6,0.5
					c0.2,0.2,0.2,0.5,0.2,0.8c0,0.5-0.2,0.9-0.5,1.2c-0.4,0.3-0.9,0.4-1.6,0.4c-0.7,0-1.3-0.1-1.7-0.4s-0.6-0.8-0.6-1.4H188.6z"/>
			</g>
			<g class="st10">
				<path d="M101.8,502.1c0,0.3-0.1,0.5-0.2,0.8s-0.3,0.4-0.5,0.6s-0.4,0.3-0.7,0.4c-0.3,0.1-0.6,0.1-0.9,0.1
					c-0.4,0-0.8-0.1-1.1-0.2c-0.3-0.1-0.6-0.3-0.8-0.6s-0.4-0.5-0.5-0.9c-0.1-0.3-0.1-0.7-0.1-1.1s0.1-0.8,0.2-1.1
					c0.1-0.3,0.3-0.6,0.5-0.9c0.2-0.2,0.5-0.4,0.8-0.6s0.7-0.2,1.1-0.2s0.8,0.1,1.1,0.2s0.5,0.3,0.7,0.5c0.2,0.2,0.3,0.5,0.4,0.9
					c0.1,0.3,0.1,0.7,0.1,1.2v0.2H98c0,0.6,0.1,1,0.4,1.3s0.6,0.4,1,0.4c0.4,0,0.7-0.1,0.9-0.3s0.4-0.4,0.4-0.8H101.8z M100.7,500.7
					c0-0.4-0.1-0.7-0.3-1s-0.5-0.4-0.9-0.4c-0.4,0-0.7,0.1-1,0.3c-0.2,0.2-0.4,0.6-0.4,1.1H100.7z"/>
				<path d="M103.3,499.5h-0.7v-0.9h0.7v-1.4h1.1v1.4h1.2v0.9h-1.2v2.8c0,0.3,0.1,0.5,0.2,0.6s0.3,0.2,0.6,0.2c0.1,0,0.2,0,0.3,0
					s0.2,0,0.3,0v0.9c-0.1,0-0.2,0-0.3,0.1s-0.2,0-0.4,0c-0.5,0-0.9-0.1-1.2-0.4c-0.3-0.3-0.4-0.7-0.4-1.3V499.5z"/>
				<path d="M113.5,503.1L113.5,503.1c-0.2,0.3-0.4,0.5-0.7,0.7s-0.6,0.3-1.1,0.3c-0.4,0-0.7-0.1-1-0.2c-0.3-0.1-0.5-0.3-0.7-0.6
					s-0.3-0.5-0.4-0.9c-0.1-0.3-0.1-0.7-0.1-1.1c0-0.4,0-0.8,0.1-1.1c0.1-0.3,0.2-0.6,0.4-0.9c0.2-0.2,0.4-0.4,0.7-0.6
					s0.6-0.2,1-0.2c0.4,0,0.8,0.1,1,0.3s0.5,0.4,0.7,0.7h0v-2.9h1.1v7.4h-1.1V503.1z M112,503.2c0.5,0,0.9-0.2,1.1-0.5
					c0.2-0.3,0.3-0.8,0.3-1.5c0-0.6-0.1-1.1-0.4-1.4c-0.2-0.3-0.6-0.5-1.1-0.5c-0.5,0-0.8,0.2-1.1,0.5c-0.3,0.3-0.4,0.8-0.4,1.5
					c0,0.6,0.1,1.1,0.4,1.4S111.5,503.2,112,503.2z"/>
				<path d="M116.6,496.5h1.2l-1.3,2.6h-0.8L116.6,496.5z"/>
				<path d="M122,503.2L122,503.2c-0.2,0.3-0.4,0.5-0.7,0.6s-0.7,0.2-1.1,0.2c-0.3,0-0.5,0-0.7-0.1c-0.2-0.1-0.4-0.2-0.5-0.3
					c-0.1-0.1-0.2-0.3-0.3-0.5c-0.1-0.2-0.1-0.4-0.1-0.5c0-0.4,0.1-0.7,0.3-0.9c0.2-0.2,0.4-0.4,0.7-0.5s0.6-0.2,0.9-0.2
					s0.6-0.1,0.9-0.1c0.2,0,0.4-0.1,0.5-0.1s0.2-0.1,0.3-0.1c0.1,0,0.1-0.1,0.1-0.2c0-0.1,0-0.1,0-0.2c0-0.3-0.1-0.5-0.3-0.7
					s-0.5-0.3-0.8-0.3c-0.4,0-0.6,0.1-0.8,0.2s-0.3,0.4-0.3,0.8h-1c0.1-0.6,0.3-1,0.6-1.4c0.3-0.3,0.9-0.5,1.6-0.5
					c0.7,0,1.3,0.2,1.6,0.5c0.4,0.4,0.5,0.9,0.5,1.6v3.3H122V503.2z M122,501.3c-0.3,0.1-0.6,0.1-0.9,0.2c-0.3,0-0.6,0.1-0.8,0.2
					s-0.4,0.2-0.6,0.3s-0.2,0.3-0.2,0.5c0,0.2,0.1,0.4,0.3,0.6s0.4,0.2,0.7,0.2c0.2,0,0.4,0,0.6-0.1c0.2-0.1,0.4-0.2,0.5-0.3
					s0.2-0.3,0.3-0.4c0.1-0.2,0.1-0.4,0.1-0.6V501.3z"/>
				<path d="M124.7,498.6h1.1v0.8h0c0.2-0.3,0.4-0.5,0.6-0.7s0.5-0.2,0.9-0.2c0,0,0.1,0,0.2,0s0.1,0,0.2,0v1.1c-0.1,0-0.1,0-0.2,0
					s-0.2,0-0.2,0c-0.4,0-0.7,0.1-1,0.4s-0.4,0.6-0.4,1.1v2.9h-1.1V498.6z"/>
				<path d="M128.7,498.6h1.1v0.8h0c0.2-0.3,0.4-0.5,0.6-0.7s0.5-0.2,0.9-0.2c0,0,0.1,0,0.2,0s0.1,0,0.2,0v1.1c-0.1,0-0.1,0-0.2,0
					s-0.2,0-0.2,0c-0.4,0-0.7,0.1-1,0.4s-0.4,0.6-0.4,1.1v2.9h-1.1V498.6z"/>
				<path d="M133.2,497.6c-0.2,0-0.4-0.1-0.5-0.2s-0.2-0.3-0.2-0.5c0-0.2,0.1-0.4,0.2-0.5c0.1-0.1,0.3-0.2,0.5-0.2
					c0.2,0,0.4,0.1,0.5,0.2s0.2,0.3,0.2,0.5c0,0.2-0.1,0.4-0.2,0.5S133.4,497.6,133.2,497.6z M132.7,498.6h1.1v5.4h-1.1V498.6z"/>
				<path d="M134.8,498.6h1.1l1.4,4.1l1.5-4.1h1.1l-2.1,5.4h-1.1L134.8,498.6z"/>
				<path d="M145.5,502.1c0,0.3-0.1,0.5-0.2,0.8s-0.3,0.4-0.5,0.6s-0.4,0.3-0.7,0.4c-0.3,0.1-0.6,0.1-0.9,0.1
					c-0.4,0-0.8-0.1-1.1-0.2c-0.3-0.1-0.6-0.3-0.8-0.6s-0.4-0.5-0.5-0.9c-0.1-0.3-0.1-0.7-0.1-1.1s0.1-0.8,0.2-1.1
					c0.1-0.3,0.3-0.6,0.5-0.9c0.2-0.2,0.5-0.4,0.8-0.6s0.7-0.2,1.1-0.2s0.8,0.1,1.1,0.2s0.5,0.3,0.7,0.5c0.2,0.2,0.3,0.5,0.4,0.9
					c0.1,0.3,0.1,0.7,0.1,1.2v0.2h-3.8c0,0.6,0.1,1,0.4,1.3s0.6,0.4,1,0.4c0.4,0,0.7-0.1,0.9-0.3s0.4-0.4,0.4-0.8H145.5z
					 M144.5,500.7c0-0.4-0.1-0.7-0.3-1s-0.5-0.4-0.9-0.4c-0.4,0-0.7,0.1-1,0.3c-0.2,0.2-0.4,0.6-0.4,1.1H144.5z M143.7,496.5h1.3
					l-1.5,1.4h-0.8L143.7,496.5z"/>
				<path d="M151.5,502.1c0,0.3-0.1,0.5-0.2,0.8s-0.3,0.4-0.5,0.6s-0.4,0.3-0.7,0.4c-0.3,0.1-0.6,0.1-0.9,0.1
					c-0.4,0-0.8-0.1-1.1-0.2c-0.3-0.1-0.6-0.3-0.8-0.6s-0.4-0.5-0.5-0.9c-0.1-0.3-0.1-0.7-0.1-1.1s0.1-0.8,0.2-1.1
					c0.1-0.3,0.3-0.6,0.5-0.9c0.2-0.2,0.5-0.4,0.8-0.6s0.7-0.2,1.1-0.2s0.8,0.1,1.1,0.2s0.5,0.3,0.7,0.5c0.2,0.2,0.3,0.5,0.4,0.9
					c0.1,0.3,0.1,0.7,0.1,1.2v0.2h-3.8c0,0.6,0.1,1,0.4,1.3s0.6,0.4,1,0.4c0.4,0,0.7-0.1,0.9-0.3s0.4-0.4,0.4-0.8H151.5z
					 M150.5,500.7c0-0.4-0.1-0.7-0.3-1s-0.5-0.4-0.9-0.4c-0.4,0-0.7,0.1-1,0.3c-0.2,0.2-0.4,0.6-0.4,1.1H150.5z"/>
				<path d="M153.7,502.2c0,0.4,0.2,0.7,0.4,0.8s0.5,0.2,0.9,0.2c0.3,0,0.6-0.1,0.7-0.2s0.3-0.3,0.3-0.5c0-0.2-0.1-0.4-0.2-0.5
					s-0.4-0.2-0.6-0.3c-0.2-0.1-0.5-0.1-0.8-0.2c-0.3-0.1-0.5-0.1-0.8-0.2c-0.2-0.1-0.4-0.3-0.6-0.5c-0.2-0.2-0.2-0.5-0.2-0.8
					c0-0.2,0-0.4,0.1-0.6c0.1-0.2,0.2-0.4,0.4-0.5s0.4-0.3,0.6-0.3c0.2-0.1,0.5-0.1,0.9-0.1c0.7,0,1.2,0.2,1.5,0.5s0.6,0.8,0.6,1.4
					h-1c0-0.3-0.1-0.6-0.3-0.8c-0.2-0.2-0.4-0.2-0.8-0.2c-0.2,0-0.3,0-0.4,0.1s-0.2,0.1-0.3,0.2c-0.1,0.1-0.1,0.1-0.2,0.2
					s0,0.2,0,0.3c0,0.2,0.1,0.3,0.2,0.4s0.4,0.2,0.6,0.2c0.2,0.1,0.5,0.1,0.8,0.2c0.3,0.1,0.5,0.1,0.8,0.2c0.2,0.1,0.4,0.3,0.6,0.5
					c0.2,0.2,0.2,0.5,0.2,0.8c0,0.5-0.2,0.9-0.5,1.2c-0.4,0.3-0.9,0.4-1.6,0.4c-0.7,0-1.3-0.1-1.7-0.4s-0.6-0.8-0.6-1.4H153.7z"/>
				<path d="M161.4,498.6h1.1v0.8h0c0.2-0.3,0.4-0.5,0.6-0.7s0.5-0.2,0.9-0.2c0,0,0.1,0,0.2,0s0.1,0,0.2,0v1.1c-0.1,0-0.1,0-0.2,0
					s-0.2,0-0.2,0c-0.4,0-0.7,0.1-1,0.4s-0.4,0.6-0.4,1.1v2.9h-1.1V498.6z"/>
				<path d="M168.6,503.2L168.6,503.2c-0.2,0.3-0.4,0.5-0.7,0.6s-0.7,0.2-1.1,0.2c-0.3,0-0.5,0-0.7-0.1c-0.2-0.1-0.4-0.2-0.5-0.3
					c-0.1-0.1-0.2-0.3-0.3-0.5c-0.1-0.2-0.1-0.4-0.1-0.5c0-0.4,0.1-0.7,0.3-0.9c0.2-0.2,0.4-0.4,0.7-0.5s0.6-0.2,0.9-0.2
					s0.6-0.1,0.9-0.1c0.2,0,0.4-0.1,0.5-0.1s0.2-0.1,0.3-0.1c0.1,0,0.1-0.1,0.1-0.2c0-0.1,0-0.1,0-0.2c0-0.3-0.1-0.5-0.3-0.7
					s-0.5-0.3-0.8-0.3c-0.4,0-0.6,0.1-0.8,0.2s-0.3,0.4-0.3,0.8h-1c0.1-0.6,0.3-1,0.6-1.4c0.3-0.3,0.9-0.5,1.6-0.5
					c0.7,0,1.3,0.2,1.6,0.5c0.4,0.4,0.5,0.9,0.5,1.6v3.3h-1.1V503.2z M168.6,501.3c-0.3,0.1-0.6,0.1-0.9,0.2c-0.3,0-0.6,0.1-0.8,0.2
					s-0.4,0.2-0.6,0.3s-0.2,0.3-0.2,0.5c0,0.2,0.1,0.4,0.3,0.6s0.4,0.2,0.7,0.2c0.2,0,0.4,0,0.6-0.1c0.2-0.1,0.4-0.2,0.5-0.3
					s0.2-0.3,0.3-0.4c0.1-0.2,0.1-0.4,0.1-0.6V501.3z"/>
				<path d="M171.3,498.6h1.1v0.8h0c0.2-0.3,0.4-0.5,0.7-0.7s0.6-0.3,1.1-0.3c0.4,0,0.7,0.1,1,0.2s0.5,0.3,0.7,0.6
					c0.2,0.2,0.3,0.5,0.4,0.9c0.1,0.3,0.1,0.7,0.1,1.1c0,0.4-0.1,0.8-0.2,1.1c-0.1,0.3-0.3,0.6-0.4,0.9s-0.4,0.4-0.7,0.6
					c-0.3,0.1-0.6,0.2-1,0.2c-0.4,0-0.8-0.1-1-0.3s-0.5-0.4-0.7-0.7h0v2.8h-1.1V498.6z M173.8,503.2c0.5,0,0.8-0.2,1.1-0.5
					c0.3-0.3,0.4-0.8,0.4-1.5c0-0.6-0.1-1.1-0.4-1.4c-0.3-0.3-0.6-0.5-1.1-0.5c-0.5,0-0.9,0.2-1.1,0.5c-0.2,0.3-0.3,0.8-0.3,1.4
					s0.1,1.1,0.3,1.4S173.3,503.2,173.8,503.2z"/>
				<path d="M177.7,498.6h1.1v0.8h0c0.2-0.3,0.4-0.5,0.7-0.7s0.6-0.3,1.1-0.3c0.4,0,0.7,0.1,1,0.2s0.5,0.3,0.7,0.6
					c0.2,0.2,0.3,0.5,0.4,0.9c0.1,0.3,0.1,0.7,0.1,1.1c0,0.4-0.1,0.8-0.2,1.1c-0.1,0.3-0.3,0.6-0.4,0.9s-0.4,0.4-0.7,0.6
					c-0.3,0.1-0.6,0.2-1,0.2c-0.4,0-0.8-0.1-1-0.3s-0.5-0.4-0.7-0.7h0v2.8h-1.1V498.6z M180.2,503.2c0.5,0,0.8-0.2,1.1-0.5
					c0.3-0.3,0.4-0.8,0.4-1.5c0-0.6-0.1-1.1-0.4-1.4c-0.3-0.3-0.6-0.5-1.1-0.5c-0.5,0-0.9,0.2-1.1,0.5c-0.2,0.3-0.3,0.8-0.3,1.4
					s0.1,1.1,0.3,1.4S179.7,503.2,180.2,503.2z"/>
				<path d="M186.5,504c-0.4,0-0.8-0.1-1.1-0.2c-0.3-0.1-0.6-0.3-0.8-0.6s-0.4-0.5-0.5-0.9c-0.1-0.3-0.2-0.7-0.2-1.1
					s0.1-0.8,0.2-1.1c0.1-0.3,0.3-0.6,0.5-0.9c0.2-0.2,0.5-0.4,0.8-0.6s0.7-0.2,1.1-0.2s0.8,0.1,1.1,0.2s0.6,0.3,0.8,0.6
					c0.2,0.2,0.4,0.5,0.5,0.9c0.1,0.3,0.2,0.7,0.2,1.1s-0.1,0.8-0.2,1.1c-0.1,0.3-0.3,0.6-0.5,0.9s-0.5,0.4-0.8,0.6
					C187.3,504,186.9,504,186.5,504z M186.5,503.2c0.5,0,0.9-0.2,1.2-0.5c0.3-0.3,0.4-0.8,0.4-1.4c0-0.6-0.1-1.1-0.4-1.4
					c-0.3-0.4-0.7-0.5-1.2-0.5c-0.5,0-0.9,0.2-1.2,0.5c-0.3,0.3-0.4,0.8-0.4,1.4c0,0.6,0.1,1.1,0.4,1.4
					C185.7,503,186,503.2,186.5,503.2z"/>
				<path d="M190.6,498.6h1.1v0.8h0c0.2-0.3,0.4-0.5,0.6-0.7s0.5-0.2,0.9-0.2c0,0,0.1,0,0.2,0s0.1,0,0.2,0v1.1c-0.1,0-0.1,0-0.2,0
					s-0.2,0-0.2,0c-0.4,0-0.7,0.1-1,0.4s-0.4,0.6-0.4,1.1v2.9h-1.1V498.6z"/>
				<path d="M194.6,499.5h-0.7v-0.9h0.7v-1.4h1.1v1.4h1.2v0.9h-1.2v2.8c0,0.3,0.1,0.5,0.2,0.6s0.3,0.2,0.6,0.2c0.1,0,0.2,0,0.3,0
					s0.2,0,0.3,0v0.9c-0.1,0-0.2,0-0.3,0.1s-0.2,0-0.4,0c-0.5,0-0.9-0.1-1.2-0.4c-0.3-0.3-0.4-0.7-0.4-1.3V499.5z"/>
				<path d="M202.6,502.1c0,0.3-0.1,0.5-0.2,0.8s-0.3,0.4-0.5,0.6s-0.4,0.3-0.7,0.4c-0.3,0.1-0.6,0.1-0.9,0.1
					c-0.4,0-0.8-0.1-1.1-0.2c-0.3-0.1-0.6-0.3-0.8-0.6s-0.4-0.5-0.5-0.9c-0.1-0.3-0.1-0.7-0.1-1.1s0.1-0.8,0.2-1.1
					c0.1-0.3,0.3-0.6,0.5-0.9c0.2-0.2,0.5-0.4,0.8-0.6s0.7-0.2,1.1-0.2s0.8,0.1,1.1,0.2s0.5,0.3,0.7,0.5c0.2,0.2,0.3,0.5,0.4,0.9
					c0.1,0.3,0.1,0.7,0.1,1.2v0.2h-3.8c0,0.6,0.1,1,0.4,1.3s0.6,0.4,1,0.4c0.4,0,0.7-0.1,0.9-0.3s0.4-0.4,0.4-0.8H202.6z
					 M201.6,500.7c0-0.4-0.1-0.7-0.3-1s-0.5-0.4-0.9-0.4c-0.4,0-0.7,0.1-1,0.3c-0.2,0.2-0.4,0.6-0.4,1.1H201.6z M200.9,496.5h1.3
					l-1.5,1.4h-0.8L200.9,496.5z"/>
				<path d="M210.2,503.2L210.2,503.2c-0.2,0.3-0.4,0.5-0.7,0.6s-0.7,0.2-1.1,0.2c-0.3,0-0.5,0-0.7-0.1c-0.2-0.1-0.4-0.2-0.5-0.3
					c-0.1-0.1-0.2-0.3-0.3-0.5c-0.1-0.2-0.1-0.4-0.1-0.5c0-0.4,0.1-0.7,0.3-0.9c0.2-0.2,0.4-0.4,0.7-0.5s0.6-0.2,0.9-0.2
					s0.6-0.1,0.9-0.1c0.2,0,0.4-0.1,0.5-0.1s0.2-0.1,0.3-0.1c0.1,0,0.1-0.1,0.1-0.2c0-0.1,0-0.1,0-0.2c0-0.3-0.1-0.5-0.3-0.7
					s-0.5-0.3-0.8-0.3c-0.4,0-0.6,0.1-0.8,0.2s-0.3,0.4-0.3,0.8h-1c0.1-0.6,0.3-1,0.6-1.4c0.3-0.3,0.9-0.5,1.6-0.5
					c0.7,0,1.3,0.2,1.6,0.5c0.4,0.4,0.5,0.9,0.5,1.6v3.3h-1.1V503.2z M210.2,501.3c-0.3,0.1-0.6,0.1-0.9,0.2c-0.3,0-0.6,0.1-0.8,0.2
					s-0.4,0.2-0.6,0.3s-0.2,0.3-0.2,0.5c0,0.2,0.1,0.4,0.3,0.6s0.4,0.2,0.7,0.2c0.2,0,0.4,0,0.6-0.1c0.2-0.1,0.4-0.2,0.5-0.3
					s0.2-0.3,0.3-0.4c0.1-0.2,0.1-0.4,0.1-0.6V501.3z"/>
				<path d="M212.9,498.6h1.1v3.2c0,0.4,0.1,0.8,0.2,1c0.1,0.2,0.4,0.3,0.8,0.3c0.4,0,0.7-0.1,1-0.4s0.4-0.6,0.4-1.1v-3.1h1.1v5.4
					h-1.1v-0.9h0c-0.2,0.3-0.4,0.5-0.6,0.7s-0.6,0.3-1,0.3c-0.6,0-1.1-0.2-1.3-0.5s-0.4-0.8-0.4-1.4V498.6z"/>
			</g>
			<g class="st10">
				<path d="M97.2,510.6h1.1v0.8h0c0.2-0.3,0.4-0.5,0.7-0.7s0.6-0.2,1.1-0.2c0.6,0,1.1,0.2,1.4,0.5c0.3,0.3,0.4,0.8,0.4,1.4v3.5
					h-1.1v-3.2c0-0.4-0.1-0.8-0.2-1s-0.4-0.3-0.8-0.3c-0.4,0-0.8,0.1-1,0.4s-0.4,0.6-0.4,1.1v3.1h-1.1V510.6z"/>
				<path d="M105.9,516c-0.4,0-0.8-0.1-1.1-0.2c-0.3-0.1-0.6-0.3-0.8-0.6s-0.4-0.5-0.5-0.9c-0.1-0.3-0.2-0.7-0.2-1.1
					s0.1-0.8,0.2-1.1c0.1-0.3,0.3-0.6,0.5-0.9c0.2-0.2,0.5-0.4,0.8-0.6s0.7-0.2,1.1-0.2s0.8,0.1,1.1,0.2s0.6,0.3,0.8,0.6
					c0.2,0.2,0.4,0.5,0.5,0.9c0.1,0.3,0.2,0.7,0.2,1.1s-0.1,0.8-0.2,1.1c-0.1,0.3-0.3,0.6-0.5,0.9s-0.5,0.4-0.8,0.6
					C106.7,516,106.3,516,105.9,516z M105.9,515.2c0.5,0,0.9-0.2,1.2-0.5c0.3-0.3,0.4-0.8,0.4-1.4c0-0.6-0.1-1.1-0.4-1.4
					c-0.3-0.4-0.7-0.5-1.2-0.5c-0.5,0-0.9,0.2-1.2,0.5c-0.3,0.3-0.4,0.8-0.4,1.4c0,0.6,0.1,1.1,0.4,1.4
					C105,515,105.4,515.2,105.9,515.2z"/>
				<path d="M109.9,510.6h1.1v0.8h0c0.2-0.3,0.4-0.5,0.6-0.7s0.6-0.3,1-0.3c0.4,0,0.7,0.1,1,0.3s0.4,0.4,0.5,0.7h0
					c0.2-0.3,0.4-0.6,0.7-0.7c0.3-0.2,0.6-0.3,1-0.3c0.6,0,1,0.2,1.3,0.5c0.3,0.3,0.4,0.8,0.4,1.5v3.5h-1.1v-3.2
					c0-0.5-0.1-0.8-0.2-1s-0.4-0.3-0.7-0.3c-0.4,0-0.7,0.1-0.9,0.3s-0.3,0.6-0.3,1v3.1h-1.1v-3.2c0-0.4-0.1-0.8-0.2-1
					s-0.4-0.3-0.7-0.3c-0.4,0-0.7,0.1-0.9,0.4s-0.3,0.6-0.3,1.1v3.1h-1.1V510.6z"/>
				<path d="M119.2,508.5h1.1v2.9h0c0.2-0.3,0.4-0.5,0.7-0.7s0.6-0.3,1.1-0.3c0.4,0,0.7,0.1,1,0.2s0.5,0.3,0.7,0.6
					c0.2,0.2,0.3,0.5,0.4,0.9c0.1,0.3,0.1,0.7,0.1,1.1c0,0.4-0.1,0.8-0.2,1.1c-0.1,0.3-0.3,0.6-0.4,0.9s-0.4,0.4-0.7,0.6
					c-0.3,0.1-0.6,0.2-1,0.2c-0.4,0-0.8-0.1-1-0.3s-0.5-0.4-0.7-0.7h0v0.9h-1.1V508.5z M121.7,515.2c0.5,0,0.8-0.2,1.1-0.5
					c0.3-0.3,0.4-0.8,0.4-1.5c0-0.6-0.1-1.1-0.4-1.4c-0.3-0.3-0.6-0.5-1.1-0.5c-0.5,0-0.9,0.2-1.1,0.5c-0.2,0.3-0.3,0.8-0.3,1.4
					s0.1,1.1,0.3,1.4S121.2,515.2,121.7,515.2z"/>
				<path d="M125.6,510.6h1.1v0.8h0c0.2-0.3,0.4-0.5,0.6-0.7s0.5-0.2,0.9-0.2c0,0,0.1,0,0.2,0s0.1,0,0.2,0v1.1c-0.1,0-0.1,0-0.2,0
					s-0.2,0-0.2,0c-0.4,0-0.7,0.1-1,0.4s-0.4,0.6-0.4,1.1v2.9h-1.1V510.6z"/>
				<path d="M134.2,514.1c0,0.3-0.1,0.5-0.2,0.8s-0.3,0.4-0.5,0.6s-0.4,0.3-0.7,0.4c-0.3,0.1-0.6,0.1-0.9,0.1
					c-0.4,0-0.8-0.1-1.1-0.2c-0.3-0.1-0.6-0.3-0.8-0.6s-0.4-0.5-0.5-0.9c-0.1-0.3-0.1-0.7-0.1-1.1s0.1-0.8,0.2-1.1
					c0.1-0.3,0.3-0.6,0.5-0.9c0.2-0.2,0.5-0.4,0.8-0.6s0.7-0.2,1.1-0.2s0.8,0.1,1.1,0.2s0.5,0.3,0.7,0.5c0.2,0.2,0.3,0.5,0.4,0.9
					c0.1,0.3,0.1,0.7,0.1,1.2v0.2h-3.8c0,0.6,0.1,1,0.4,1.3s0.6,0.4,1,0.4c0.4,0,0.7-0.1,0.9-0.3s0.4-0.4,0.4-0.8H134.2z
					 M133.1,512.7c0-0.4-0.1-0.7-0.3-1s-0.5-0.4-0.9-0.4c-0.4,0-0.7,0.1-1,0.3c-0.2,0.2-0.4,0.6-0.4,1.1H133.1z"/>
				<path d="M142.3,515.1L142.3,515.1c-0.2,0.3-0.4,0.5-0.7,0.7s-0.6,0.3-1.1,0.3c-0.4,0-0.7-0.1-1-0.2c-0.3-0.1-0.5-0.3-0.7-0.6
					s-0.3-0.5-0.4-0.9c-0.1-0.3-0.1-0.7-0.1-1.1c0-0.4,0-0.8,0.1-1.1c0.1-0.3,0.2-0.6,0.4-0.9c0.2-0.2,0.4-0.4,0.7-0.6
					s0.6-0.2,1-0.2c0.4,0,0.8,0.1,1,0.3s0.5,0.4,0.7,0.7h0v-2.9h1.1v7.4h-1.1V515.1z M140.9,515.2c0.5,0,0.9-0.2,1.1-0.5
					c0.2-0.3,0.3-0.8,0.3-1.5c0-0.6-0.1-1.1-0.4-1.4c-0.2-0.3-0.6-0.5-1.1-0.5c-0.5,0-0.8,0.2-1.1,0.5c-0.3,0.3-0.4,0.8-0.4,1.5
					c0,0.6,0.1,1.1,0.4,1.4S140.4,515.2,140.9,515.2z"/>
				<path d="M149.6,514.1c0,0.3-0.1,0.5-0.2,0.8s-0.3,0.4-0.5,0.6s-0.4,0.3-0.7,0.4c-0.3,0.1-0.6,0.1-0.9,0.1
					c-0.4,0-0.8-0.1-1.1-0.2c-0.3-0.1-0.6-0.3-0.8-0.6s-0.4-0.5-0.5-0.9c-0.1-0.3-0.1-0.7-0.1-1.1s0.1-0.8,0.2-1.1
					c0.1-0.3,0.3-0.6,0.5-0.9c0.2-0.2,0.5-0.4,0.8-0.6s0.7-0.2,1.1-0.2s0.8,0.1,1.1,0.2s0.5,0.3,0.7,0.5c0.2,0.2,0.3,0.5,0.4,0.9
					c0.1,0.3,0.1,0.7,0.1,1.2v0.2h-3.8c0,0.6,0.1,1,0.4,1.3s0.6,0.4,1,0.4c0.4,0,0.7-0.1,0.9-0.3s0.4-0.4,0.4-0.8H149.6z
					 M148.6,512.7c0-0.4-0.1-0.7-0.3-1s-0.5-0.4-0.9-0.4c-0.4,0-0.7,0.1-1,0.3c-0.2,0.2-0.4,0.6-0.4,1.1H148.6z"/>
				<path d="M153.4,510.6h1.1l1.4,4.1l1.5-4.1h1.1l-2.1,5.4h-1.1L153.4,510.6z"/>
				<path d="M160.1,509.6c-0.2,0-0.4-0.1-0.5-0.2s-0.2-0.3-0.2-0.5c0-0.2,0.1-0.4,0.2-0.5c0.1-0.1,0.3-0.2,0.5-0.2
					c0.2,0,0.4,0.1,0.5,0.2s0.2,0.3,0.2,0.5c0,0.2-0.1,0.4-0.2,0.5S160.3,509.6,160.1,509.6z M159.6,510.6h1.1v5.4h-1.1V510.6z"/>
				<path d="M162.4,508.5h1.1v7.4h-1.1V508.5z"/>
				<path d="M165.2,508.5h1.1v7.4h-1.1V508.5z"/>
				<path d="M172.5,514.1c0,0.3-0.1,0.5-0.2,0.8s-0.3,0.4-0.5,0.6s-0.4,0.3-0.7,0.4c-0.3,0.1-0.6,0.1-0.9,0.1
					c-0.4,0-0.8-0.1-1.1-0.2c-0.3-0.1-0.6-0.3-0.8-0.6s-0.4-0.5-0.5-0.9c-0.1-0.3-0.1-0.7-0.1-1.1s0.1-0.8,0.2-1.1
					c0.1-0.3,0.3-0.6,0.5-0.9c0.2-0.2,0.5-0.4,0.8-0.6s0.7-0.2,1.1-0.2s0.8,0.1,1.1,0.2s0.5,0.3,0.7,0.5c0.2,0.2,0.3,0.5,0.4,0.9
					c0.1,0.3,0.1,0.7,0.1,1.2v0.2h-3.8c0,0.6,0.1,1,0.4,1.3s0.6,0.4,1,0.4c0.4,0,0.7-0.1,0.9-0.3s0.4-0.4,0.4-0.8H172.5z
					 M171.4,512.7c0-0.4-0.1-0.7-0.3-1s-0.5-0.4-0.9-0.4c-0.4,0-0.7,0.1-1,0.3c-0.2,0.2-0.4,0.6-0.4,1.1H171.4z"/>
				<path d="M173.8,512.3h2.7v1h-2.7V512.3z"/>
				<path d="M182.5,514.1c0,0.3-0.1,0.5-0.2,0.8s-0.3,0.4-0.5,0.6s-0.4,0.3-0.7,0.4c-0.3,0.1-0.6,0.1-0.9,0.1
					c-0.4,0-0.8-0.1-1.1-0.2c-0.3-0.1-0.6-0.3-0.8-0.6s-0.4-0.5-0.5-0.9c-0.1-0.3-0.1-0.7-0.1-1.1s0.1-0.8,0.2-1.1
					c0.1-0.3,0.3-0.6,0.5-0.9c0.2-0.2,0.5-0.4,0.8-0.6s0.7-0.2,1.1-0.2s0.8,0.1,1.1,0.2s0.5,0.3,0.7,0.5c0.2,0.2,0.3,0.5,0.4,0.9
					c0.1,0.3,0.1,0.7,0.1,1.2v0.2h-3.8c0,0.6,0.1,1,0.4,1.3s0.6,0.4,1,0.4c0.4,0,0.7-0.1,0.9-0.3s0.4-0.4,0.4-0.8H182.5z
					 M181.5,512.7c0-0.4-0.1-0.7-0.3-1s-0.5-0.4-0.9-0.4c-0.4,0-0.7,0.1-1,0.3c-0.2,0.2-0.4,0.6-0.4,1.1H181.5z M180.8,508.5h1.3
					l-1.5,1.4h-0.8L180.8,508.5z"/>
				<path d="M184.1,511.5h-0.7v-0.9h0.7v-1.4h1.1v1.4h1.2v0.9h-1.2v2.8c0,0.3,0.1,0.5,0.2,0.6s0.3,0.2,0.6,0.2c0.1,0,0.2,0,0.3,0
					s0.2,0,0.3,0v0.9c-0.1,0-0.2,0-0.3,0.1s-0.2,0-0.4,0c-0.5,0-0.9-0.1-1.2-0.4c-0.3-0.3-0.4-0.7-0.4-1.3V511.5z"/>
				<path d="M190.7,515.2L190.7,515.2c-0.2,0.3-0.4,0.5-0.7,0.6s-0.7,0.2-1.1,0.2c-0.3,0-0.5,0-0.7-0.1c-0.2-0.1-0.4-0.2-0.5-0.3
					c-0.1-0.1-0.2-0.3-0.3-0.5c-0.1-0.2-0.1-0.4-0.1-0.5c0-0.4,0.1-0.7,0.3-0.9c0.2-0.2,0.4-0.4,0.7-0.5s0.6-0.2,0.9-0.2
					s0.6-0.1,0.9-0.1c0.2,0,0.4-0.1,0.5-0.1s0.2-0.1,0.3-0.1c0.1,0,0.1-0.1,0.1-0.2c0-0.1,0-0.1,0-0.2c0-0.3-0.1-0.5-0.3-0.7
					s-0.5-0.3-0.8-0.3c-0.4,0-0.6,0.1-0.8,0.2s-0.3,0.4-0.3,0.8h-1c0.1-0.6,0.3-1,0.6-1.4c0.3-0.3,0.9-0.5,1.6-0.5
					c0.7,0,1.3,0.2,1.6,0.5c0.4,0.4,0.5,0.9,0.5,1.6v3.3h-1.1V515.2z M190.7,513.3c-0.3,0.1-0.6,0.1-0.9,0.2c-0.3,0-0.6,0.1-0.8,0.2
					s-0.4,0.2-0.6,0.3s-0.2,0.3-0.2,0.5c0,0.2,0.1,0.4,0.3,0.6s0.4,0.2,0.7,0.2c0.2,0,0.4,0,0.6-0.1c0.2-0.1,0.4-0.2,0.5-0.3
					s0.2-0.3,0.3-0.4c0.1-0.2,0.1-0.4,0.1-0.6V513.3z"/>
				<path d="M193.4,510.6h1.1v0.8h0c0.2-0.3,0.4-0.5,0.7-0.7s0.6-0.3,1.1-0.3c0.4,0,0.7,0.1,1,0.2s0.5,0.3,0.7,0.6
					c0.2,0.2,0.3,0.5,0.4,0.9c0.1,0.3,0.1,0.7,0.1,1.1c0,0.4-0.1,0.8-0.2,1.1c-0.1,0.3-0.3,0.6-0.4,0.9s-0.4,0.4-0.7,0.6
					c-0.3,0.1-0.6,0.2-1,0.2c-0.4,0-0.8-0.1-1-0.3s-0.5-0.4-0.7-0.7h0v2.8h-1.1V510.6z M195.9,515.2c0.5,0,0.8-0.2,1.1-0.5
					c0.3-0.3,0.4-0.8,0.4-1.5c0-0.6-0.1-1.1-0.4-1.4c-0.3-0.3-0.6-0.5-1.1-0.5c-0.5,0-0.9,0.2-1.1,0.5c-0.2,0.3-0.3,0.8-0.3,1.4
					s0.1,1.1,0.3,1.4S195.4,515.2,195.9,515.2z"/>
				<path d="M204.4,514.1c0,0.3-0.1,0.5-0.2,0.8s-0.3,0.4-0.5,0.6s-0.4,0.3-0.7,0.4c-0.3,0.1-0.6,0.1-0.9,0.1
					c-0.4,0-0.8-0.1-1.1-0.2c-0.3-0.1-0.6-0.3-0.8-0.6s-0.4-0.5-0.5-0.9c-0.1-0.3-0.1-0.7-0.1-1.1s0.1-0.8,0.2-1.1
					c0.1-0.3,0.3-0.6,0.5-0.9c0.2-0.2,0.5-0.4,0.8-0.6s0.7-0.2,1.1-0.2s0.8,0.1,1.1,0.2s0.5,0.3,0.7,0.5c0.2,0.2,0.3,0.5,0.4,0.9
					c0.1,0.3,0.1,0.7,0.1,1.2v0.2h-3.8c0,0.6,0.1,1,0.4,1.3s0.6,0.4,1,0.4c0.4,0,0.7-0.1,0.9-0.3s0.4-0.4,0.4-0.8H204.4z
					 M203.3,512.7c0-0.4-0.1-0.7-0.3-1s-0.5-0.4-0.9-0.4c-0.4,0-0.7,0.1-1,0.3c-0.2,0.2-0.4,0.6-0.4,1.1H203.3z"/>
				<path d="M206.6,514.2c0,0.4,0.2,0.7,0.4,0.8s0.5,0.2,0.9,0.2c0.3,0,0.6-0.1,0.7-0.2s0.3-0.3,0.3-0.5c0-0.2-0.1-0.4-0.2-0.5
					s-0.4-0.2-0.6-0.3c-0.2-0.1-0.5-0.1-0.8-0.2c-0.3-0.1-0.5-0.1-0.8-0.2c-0.2-0.1-0.4-0.3-0.6-0.5c-0.2-0.2-0.2-0.5-0.2-0.8
					c0-0.2,0-0.4,0.1-0.6c0.1-0.2,0.2-0.4,0.4-0.5s0.4-0.3,0.6-0.3c0.2-0.1,0.5-0.1,0.9-0.1c0.7,0,1.2,0.2,1.5,0.5s0.6,0.8,0.6,1.4
					h-1c0-0.3-0.1-0.6-0.3-0.8c-0.2-0.2-0.4-0.2-0.8-0.2c-0.2,0-0.3,0-0.4,0.1s-0.2,0.1-0.3,0.2c-0.1,0.1-0.1,0.1-0.2,0.2
					s0,0.2,0,0.3c0,0.2,0.1,0.3,0.2,0.4s0.4,0.2,0.6,0.2c0.2,0.1,0.5,0.1,0.8,0.2c0.3,0.1,0.5,0.1,0.8,0.2c0.2,0.1,0.4,0.3,0.6,0.5
					c0.2,0.2,0.2,0.5,0.2,0.8c0,0.5-0.2,0.9-0.5,1.2c-0.4,0.3-0.9,0.4-1.6,0.4c-0.7,0-1.3-0.1-1.7-0.4s-0.6-0.8-0.6-1.4H206.6z"/>
			</g>
		</g>
		<g id="XMLID_625_">
			<rect id="XMLID_127_" x="114" y="531.5" class="st9" width="26.7" height="10.3"/>
			<g class="st10">
				<path d="M122.1,535.9l4.6-2.4v0.7l-3.9,2v0l3.9,2v0.7l-4.6-2.4V535.9z"/>
			</g>
			<g class="st10">
				<path d="M128.8,536.5c0,0.5,0.2,0.9,0.5,1.2c0.3,0.3,0.7,0.4,1.1,0.4c0.5,0,0.8-0.1,1.1-0.3c0.2-0.2,0.4-0.5,0.4-0.9
					s-0.1-0.7-0.3-1c-0.2-0.2-0.5-0.4-0.9-0.4h-1v-0.9h0.7c0.4,0,0.7-0.1,0.9-0.3s0.3-0.5,0.3-0.8c0-0.3-0.1-0.6-0.3-0.8
					s-0.5-0.3-0.9-0.3c-0.4,0-0.7,0.1-0.9,0.4s-0.4,0.6-0.4,1.1h-1.1c0-0.8,0.3-1.4,0.7-1.8c0.4-0.4,1-0.6,1.8-0.6
					c0.4,0,0.7,0,1,0.1c0.3,0.1,0.5,0.2,0.7,0.4c0.2,0.2,0.3,0.4,0.4,0.6c0.1,0.2,0.2,0.5,0.2,0.8c0,0.4-0.1,0.7-0.2,1
					c-0.2,0.3-0.4,0.5-0.7,0.7c0.4,0.2,0.7,0.4,1,0.7c0.2,0.3,0.3,0.7,0.3,1.2c0,0.3-0.1,0.6-0.2,0.9s-0.3,0.5-0.5,0.7
					c-0.2,0.2-0.5,0.3-0.8,0.4c-0.3,0.1-0.7,0.2-1.1,0.2c-0.5,0-0.8-0.1-1.2-0.2c-0.3-0.1-0.6-0.3-0.8-0.5c-0.2-0.2-0.4-0.5-0.5-0.8
					c-0.1-0.3-0.2-0.6-0.2-1H128.8z"/>
			</g>
		</g>
		<g id="XMLID_621_">
			<rect id="XMLID_128_" x="114" y="550.9" class="st9" width="43.4" height="10.3"/>
			<g class="st10">
				<path d="M121.3,556c0,0.5,0.2,0.9,0.5,1.2c0.3,0.3,0.7,0.4,1.1,0.4c0.5,0,0.8-0.1,1.1-0.3c0.2-0.2,0.4-0.5,0.4-0.9
					s-0.1-0.7-0.3-1c-0.2-0.2-0.5-0.4-0.9-0.4h-1v-0.9h0.7c0.4,0,0.7-0.1,0.9-0.3s0.3-0.5,0.3-0.8c0-0.3-0.1-0.6-0.3-0.8
					s-0.5-0.3-0.9-0.3c-0.4,0-0.7,0.1-0.9,0.4s-0.4,0.6-0.4,1.1h-1.1c0-0.8,0.3-1.4,0.7-1.8c0.4-0.4,1-0.6,1.8-0.6
					c0.4,0,0.7,0,1,0.1c0.3,0.1,0.5,0.2,0.7,0.4c0.2,0.2,0.3,0.4,0.4,0.6c0.1,0.2,0.2,0.5,0.2,0.8c0,0.4-0.1,0.7-0.2,1
					c-0.2,0.3-0.4,0.5-0.7,0.7c0.4,0.2,0.7,0.4,1,0.7c0.2,0.3,0.3,0.7,0.3,1.2c0,0.3-0.1,0.6-0.2,0.9s-0.3,0.5-0.5,0.7
					c-0.2,0.2-0.5,0.3-0.8,0.4c-0.3,0.1-0.7,0.2-1.1,0.2c-0.5,0-0.8-0.1-1.2-0.2c-0.3-0.1-0.6-0.3-0.8-0.5c-0.2-0.2-0.4-0.5-0.5-0.8
					c-0.1-0.3-0.2-0.6-0.2-1H121.3z"/>
				<path d="M129.2,554.7h4v0.9h-4V554.7z"/>
			</g>
			<g class="st10">
				<path d="M137.3,555.4l4.6-2.4v0.7l-3.9,2v0l3.9,2v0.7l-4.6-2.4V555.4z"/>
			</g>
			<g class="st10">
				<path d="M150,553.1c0-0.5-0.2-0.8-0.4-1.1s-0.5-0.4-1-0.4c-0.2,0-0.4,0-0.6,0.1s-0.4,0.2-0.5,0.5c-0.1,0.2-0.3,0.5-0.3,0.9
					c-0.1,0.4-0.1,0.9-0.1,1.5c0.1-0.3,0.4-0.6,0.7-0.7c0.3-0.2,0.7-0.3,1.2-0.3c0.3,0,0.6,0,0.9,0.1c0.3,0.1,0.5,0.2,0.7,0.4
					c0.2,0.2,0.4,0.4,0.5,0.7s0.2,0.6,0.2,1c0,0.4-0.1,0.7-0.2,1s-0.3,0.6-0.5,0.8c-0.2,0.2-0.5,0.4-0.8,0.5c-0.3,0.1-0.7,0.2-1,0.2
					c-0.4,0-0.8-0.1-1.1-0.2s-0.6-0.4-0.8-0.7s-0.4-0.7-0.5-1.2c-0.1-0.5-0.2-1-0.2-1.7c0-1.3,0.2-2.3,0.7-2.9s1.1-1,2-1
					c0.7,0,1.3,0.2,1.7,0.6s0.7,1,0.7,1.7H150z M148.7,557.5c0.2,0,0.4,0,0.6-0.1c0.2-0.1,0.3-0.2,0.4-0.3s0.2-0.3,0.3-0.5
					s0.1-0.4,0.1-0.6c0-0.4-0.1-0.8-0.4-1s-0.6-0.4-1-0.4c-0.4,0-0.7,0.1-1,0.4s-0.4,0.6-0.4,1c0,0.2,0,0.4,0.1,0.6s0.2,0.3,0.3,0.5
					s0.3,0.2,0.4,0.3C148.3,557.5,148.5,557.5,148.7,557.5z"/>
			</g>
		</g>
		<g id="XMLID_616_">
			<rect id="XMLID_136_" x="114" y="574" class="st9" width="53.4" height="10.3"/>
			<g class="st10">
				<path d="M129.3,576.3c0-0.5-0.2-0.8-0.4-1.1s-0.5-0.4-1-0.4c-0.2,0-0.4,0-0.6,0.1s-0.4,0.2-0.5,0.5c-0.1,0.2-0.3,0.5-0.3,0.9
					c-0.1,0.4-0.1,0.9-0.1,1.5c0.1-0.3,0.4-0.6,0.7-0.7c0.3-0.2,0.7-0.3,1.2-0.3c0.3,0,0.6,0,0.9,0.1c0.3,0.1,0.5,0.2,0.7,0.4
					c0.2,0.2,0.4,0.4,0.5,0.7s0.2,0.6,0.2,1c0,0.4-0.1,0.7-0.2,1s-0.3,0.6-0.5,0.8c-0.2,0.2-0.5,0.4-0.8,0.5c-0.3,0.1-0.7,0.2-1,0.2
					c-0.4,0-0.8-0.1-1.1-0.2s-0.6-0.4-0.8-0.7s-0.4-0.7-0.5-1.2c-0.1-0.5-0.2-1-0.2-1.7c0-1.3,0.2-2.3,0.7-2.9s1.1-1,2-1
					c0.7,0,1.3,0.2,1.7,0.6s0.7,1,0.7,1.7H129.3z M128,580.6c0.2,0,0.4,0,0.6-0.1c0.2-0.1,0.3-0.2,0.4-0.3s0.2-0.3,0.3-0.5
					s0.1-0.4,0.1-0.6c0-0.4-0.1-0.8-0.4-1s-0.6-0.4-1-0.4c-0.4,0-0.7,0.1-1,0.4s-0.4,0.6-0.4,1c0,0.2,0,0.4,0.1,0.6s0.2,0.3,0.3,0.5
					s0.3,0.2,0.4,0.3C127.6,580.6,127.8,580.6,128,580.6z"/>
				<path d="M134.2,577.8h4v0.9h-4V577.8z"/>
			</g>
			<g class="st10">
				<path d="M142.3,578.5l4.6-2.4v0.7l-3.9,2v0l3.9,2v0.7l-4.6-2.4V578.5z"/>
			</g>
			<g class="st10">
				<path d="M152.1,579.2c0,0.5,0.2,0.8,0.4,1.1s0.6,0.4,1,0.4c0.2,0,0.4,0,0.6-0.1c0.2-0.1,0.4-0.2,0.5-0.5
					c0.1-0.2,0.3-0.5,0.3-0.9s0.1-0.9,0.1-1.5c-0.1,0.3-0.4,0.6-0.7,0.7c-0.3,0.2-0.7,0.3-1.1,0.3c-0.3,0-0.6,0-0.9-0.1
					s-0.5-0.2-0.7-0.4c-0.2-0.2-0.4-0.4-0.5-0.7s-0.2-0.6-0.2-1c0-0.4,0.1-0.7,0.2-1s0.3-0.6,0.5-0.8c0.2-0.2,0.5-0.4,0.8-0.5
					s0.7-0.2,1-0.2c0.4,0,0.8,0.1,1.1,0.2s0.6,0.4,0.8,0.7s0.4,0.7,0.5,1.2c0.1,0.5,0.2,1,0.2,1.7c0,1.3-0.2,2.3-0.7,2.9
					c-0.5,0.6-1.1,0.9-2,0.9c-0.7,0-1.3-0.2-1.7-0.6c-0.4-0.4-0.7-1-0.7-1.7H152.1z M153.4,577.7c0.4,0,0.8-0.1,1-0.4
					c0.3-0.3,0.4-0.6,0.4-1c0-0.2,0-0.4-0.1-0.6c-0.1-0.2-0.2-0.3-0.3-0.5s-0.3-0.2-0.4-0.3c-0.2-0.1-0.4-0.1-0.6-0.1
					c-0.2,0-0.4,0-0.6,0.1c-0.2,0.1-0.3,0.2-0.4,0.3s-0.2,0.3-0.3,0.5c-0.1,0.2-0.1,0.4-0.1,0.6c0,0.4,0.1,0.8,0.4,1
					S153,577.7,153.4,577.7z"/>
			</g>
		</g>
		<g id="XMLID_576_">
			<rect id="XMLID_142_" x="183" y="531.5" class="st9" width="53.4" height="10.3"/>
			<g class="st10">
				<path d="M192.5,536.6c0,0.5,0.2,0.8,0.4,1.1s0.6,0.4,1,0.4c0.2,0,0.4,0,0.6-0.1c0.2-0.1,0.4-0.2,0.5-0.5
					c0.1-0.2,0.3-0.5,0.3-0.9s0.1-0.9,0.1-1.5c-0.1,0.3-0.4,0.6-0.7,0.7c-0.3,0.2-0.7,0.3-1.1,0.3c-0.3,0-0.6,0-0.9-0.1
					s-0.5-0.2-0.7-0.4c-0.2-0.2-0.4-0.4-0.5-0.7s-0.2-0.6-0.2-1c0-0.4,0.1-0.7,0.2-1s0.3-0.6,0.5-0.8c0.2-0.2,0.5-0.4,0.8-0.5
					s0.7-0.2,1-0.2c0.4,0,0.8,0.1,1.1,0.2s0.6,0.4,0.8,0.7s0.4,0.7,0.5,1.2c0.1,0.5,0.2,1,0.2,1.7c0,1.3-0.2,2.3-0.7,2.9
					c-0.5,0.6-1.1,0.9-2,0.9c-0.7,0-1.3-0.2-1.7-0.6c-0.4-0.4-0.7-1-0.7-1.7H192.5z M193.9,535.2c0.4,0,0.8-0.1,1-0.4
					c0.3-0.3,0.4-0.6,0.4-1c0-0.2,0-0.4-0.1-0.6c-0.1-0.2-0.2-0.3-0.3-0.5s-0.3-0.2-0.4-0.3c-0.2-0.1-0.4-0.1-0.6-0.1
					c-0.2,0-0.4,0-0.6,0.1c-0.2,0.1-0.3,0.2-0.4,0.3s-0.2,0.3-0.3,0.5c-0.1,0.2-0.1,0.4-0.1,0.6c0,0.4,0.1,0.8,0.4,1
					S193.4,535.2,193.9,535.2z"/>
				<path d="M200.3,535.2h4v0.9h-4V535.2z"/>
			</g>
			<g class="st10">
				<path d="M208.4,535.9l4.6-2.4v0.7l-3.9,2v0l3.9,2v0.7l-4.6-2.4V535.9z"/>
			</g>
			<g class="st10">
				<path d="M217.6,537.9h1.7v-5.2l-1.6,1l-0.5-0.8l2.4-1.6h0.9v6.5h1.4v0.9h-4.2V537.9z"/>
				<path d="M223,538c0.6-0.5,1.1-1,1.5-1.4s0.8-0.8,1.1-1.1c0.3-0.3,0.6-0.7,0.7-1s0.3-0.6,0.3-0.9c0-0.4-0.1-0.7-0.3-0.9
					c-0.2-0.2-0.5-0.3-0.9-0.3c-0.4,0-0.7,0.1-1,0.4s-0.4,0.6-0.4,1.1h-1.1c0-0.4,0.1-0.7,0.2-1s0.3-0.5,0.5-0.8
					c0.2-0.2,0.5-0.4,0.8-0.5s0.6-0.2,1-0.2c0.4,0,0.7,0.1,1,0.2c0.3,0.1,0.5,0.2,0.7,0.4c0.2,0.2,0.3,0.4,0.4,0.7s0.1,0.5,0.1,0.8
					c0,0.4-0.1,0.8-0.3,1.1c-0.2,0.3-0.4,0.7-0.7,1c-0.3,0.3-0.7,0.7-1.1,1.1c-0.4,0.4-0.8,0.8-1.2,1.2h3.4v0.9H223V538z"/>
			</g>
		</g>
		<g id="XMLID_430_">
			<rect id="XMLID_145_" x="183" y="550.9" class="st9" width="53.4" height="10.3"/>
			<g class="st10">
				<path d="M193.5,557.4h1.7v-5.2l-1.6,1l-0.5-0.8l2.4-1.6h0.9v6.5h1.4v0.9h-4.2V557.4z"/>
				<path d="M198.9,557.4c0.6-0.5,1.1-1,1.5-1.4s0.8-0.8,1.1-1.1c0.3-0.3,0.6-0.7,0.7-1s0.3-0.6,0.3-0.9c0-0.4-0.1-0.7-0.3-0.9
					c-0.2-0.2-0.5-0.3-0.9-0.3c-0.4,0-0.7,0.1-1,0.4s-0.4,0.6-0.4,1.1h-1.1c0-0.4,0.1-0.7,0.2-1s0.3-0.5,0.5-0.8
					c0.2-0.2,0.5-0.4,0.8-0.5s0.6-0.2,1-0.2c0.4,0,0.7,0.1,1,0.2c0.3,0.1,0.5,0.2,0.7,0.4c0.2,0.2,0.3,0.4,0.4,0.7s0.1,0.5,0.1,0.8
					c0,0.4-0.1,0.8-0.3,1.1c-0.2,0.3-0.4,0.7-0.7,1c-0.3,0.3-0.7,0.7-1.1,1.1c-0.4,0.4-0.8,0.8-1.2,1.2h3.4v0.9h-4.8V557.4z"/>
				<path d="M207.7,554.7h4v0.9h-4V554.7z"/>
				<path d="M215.7,557.4c0.6-0.5,1.1-1,1.5-1.4s0.8-0.8,1.1-1.1c0.3-0.3,0.6-0.7,0.7-1s0.3-0.6,0.3-0.9c0-0.4-0.1-0.7-0.3-0.9
					c-0.2-0.2-0.5-0.3-0.9-0.3c-0.4,0-0.7,0.1-1,0.4s-0.4,0.6-0.4,1.1h-1.1c0-0.4,0.1-0.7,0.2-1s0.3-0.5,0.5-0.8
					c0.2-0.2,0.5-0.4,0.8-0.5s0.6-0.2,1-0.2c0.4,0,0.7,0.1,1,0.2c0.3,0.1,0.5,0.2,0.7,0.4c0.2,0.2,0.3,0.4,0.4,0.7s0.1,0.5,0.1,0.8
					c0,0.4-0.1,0.8-0.3,1.1c-0.2,0.3-0.4,0.7-0.7,1c-0.3,0.3-0.7,0.7-1.1,1.1c-0.4,0.4-0.8,0.8-1.2,1.2h3.4v0.9h-4.8V557.4z"/>
				<path d="M223.9,558.4c-0.4,0-0.7-0.1-1-0.2s-0.6-0.4-0.8-0.7s-0.4-0.7-0.6-1.2c-0.1-0.5-0.2-1.1-0.2-1.7s0.1-1.3,0.2-1.7
					c0.1-0.5,0.3-0.9,0.6-1.2s0.5-0.5,0.8-0.7s0.7-0.2,1-0.2c0.4,0,0.7,0.1,1,0.2s0.6,0.4,0.8,0.7s0.4,0.7,0.6,1.2
					c0.1,0.5,0.2,1.1,0.2,1.7s-0.1,1.3-0.2,1.7c-0.1,0.5-0.3,0.9-0.6,1.2s-0.5,0.5-0.8,0.7S224.2,558.4,223.9,558.4z M223.9,557.5
					c0.2,0,0.4,0,0.6-0.1c0.2-0.1,0.3-0.2,0.5-0.5c0.1-0.2,0.2-0.5,0.3-0.9s0.1-0.8,0.1-1.4s0-1-0.1-1.4c-0.1-0.4-0.2-0.7-0.3-0.9
					c-0.1-0.2-0.3-0.4-0.5-0.5s-0.4-0.1-0.6-0.1c-0.2,0-0.4,0-0.6,0.1s-0.3,0.2-0.5,0.5c-0.1,0.2-0.2,0.5-0.3,0.9
					c-0.1,0.4-0.1,0.8-0.1,1.4s0,1,0.1,1.4s0.2,0.7,0.3,0.9c0.1,0.2,0.3,0.4,0.5,0.5C223.5,557.5,223.7,557.5,223.9,557.5z"/>
			</g>
		</g>
		<circle class="st2" cx="170.5" cy="557.3" r="6.3"/>
		<g id="XMLID_54_">
			<rect id="XMLID_134_" x="183" y="572.9" class="st9" width="53.4" height="10.3"/>
			<g class="st10">
				<path d="M190.6,577.2h2.1v-2.1h0.9v2.1h2.1v0.9h-2.1v2.2h-0.9v-2.2h-2.1V577.2z"/>
				<path d="M206.6,579.5L206.6,579.5c-0.2,0.3-0.4,0.5-0.7,0.7s-0.6,0.3-1.1,0.3c-0.4,0-0.7-0.1-1-0.2c-0.3-0.1-0.5-0.3-0.7-0.6
					s-0.3-0.5-0.4-0.9c-0.1-0.3-0.1-0.7-0.1-1.1c0-0.4,0-0.8,0.1-1.1c0.1-0.3,0.2-0.6,0.4-0.9c0.2-0.2,0.4-0.4,0.7-0.6
					s0.6-0.2,1-0.2c0.4,0,0.8,0.1,1,0.3s0.5,0.4,0.7,0.7h0v-2.9h1.1v7.4h-1.1V579.5z M205.1,579.6c0.5,0,0.9-0.2,1.1-0.5
					c0.2-0.3,0.3-0.8,0.3-1.5c0-0.6-0.1-1.1-0.4-1.4c-0.2-0.3-0.6-0.5-1.1-0.5c-0.5,0-0.8,0.2-1.1,0.5c-0.3,0.3-0.4,0.8-0.4,1.5
					c0,0.6,0.1,1.1,0.4,1.4S204.6,579.6,205.1,579.6z"/>
				<path d="M213.9,578.5c0,0.3-0.1,0.5-0.2,0.8s-0.3,0.4-0.5,0.6s-0.4,0.3-0.7,0.4c-0.3,0.1-0.6,0.1-0.9,0.1
					c-0.4,0-0.8-0.1-1.1-0.2c-0.3-0.1-0.6-0.3-0.8-0.6s-0.4-0.5-0.5-0.9c-0.1-0.3-0.1-0.7-0.1-1.1s0.1-0.8,0.2-1.1
					c0.1-0.3,0.3-0.6,0.5-0.9c0.2-0.2,0.5-0.4,0.8-0.6s0.7-0.2,1.1-0.2s0.8,0.1,1.1,0.2s0.5,0.3,0.7,0.5c0.2,0.2,0.3,0.5,0.4,0.9
					c0.1,0.3,0.1,0.7,0.1,1.2v0.2h-3.8c0,0.6,0.1,1,0.4,1.3s0.6,0.4,1,0.4c0.4,0,0.7-0.1,0.9-0.3s0.4-0.4,0.4-0.8H213.9z
					 M212.8,577.1c0-0.4-0.1-0.7-0.3-1s-0.5-0.4-0.9-0.4c-0.4,0-0.7,0.1-1,0.3c-0.2,0.2-0.4,0.6-0.4,1.1H212.8z"/>
				<path d="M218,579.4c0.6-0.5,1.1-1,1.5-1.4s0.8-0.8,1.1-1.1c0.3-0.3,0.6-0.7,0.7-1s0.3-0.6,0.3-0.9c0-0.4-0.1-0.7-0.3-0.9
					c-0.2-0.2-0.5-0.3-0.9-0.3c-0.4,0-0.7,0.1-1,0.4s-0.4,0.6-0.4,1.1h-1.1c0-0.4,0.1-0.7,0.2-1s0.3-0.5,0.5-0.8
					c0.2-0.2,0.5-0.4,0.8-0.5s0.6-0.2,1-0.2c0.4,0,0.7,0.1,1,0.2c0.3,0.1,0.5,0.2,0.7,0.4c0.2,0.2,0.3,0.4,0.4,0.7s0.1,0.5,0.1,0.8
					c0,0.4-0.1,0.8-0.3,1.1c-0.2,0.3-0.4,0.7-0.7,1c-0.3,0.3-0.7,0.7-1.1,1.1c-0.4,0.4-0.8,0.8-1.2,1.2h3.4v0.9H218V579.4z"/>
				<path d="M226.2,580.4c-0.4,0-0.7-0.1-1-0.2s-0.6-0.4-0.8-0.7s-0.4-0.7-0.6-1.2c-0.1-0.5-0.2-1.1-0.2-1.7s0.1-1.3,0.2-1.7
					c0.1-0.5,0.3-0.9,0.6-1.2s0.5-0.5,0.8-0.7s0.7-0.2,1-0.2c0.4,0,0.7,0.1,1,0.2s0.6,0.4,0.8,0.7s0.4,0.7,0.6,1.2
					c0.1,0.5,0.2,1.1,0.2,1.7s-0.1,1.3-0.2,1.7c-0.1,0.5-0.3,0.9-0.6,1.2s-0.5,0.5-0.8,0.7S226.6,580.4,226.2,580.4z M226.2,579.5
					c0.2,0,0.4,0,0.6-0.1c0.2-0.1,0.3-0.2,0.5-0.5c0.1-0.2,0.2-0.5,0.3-0.9s0.1-0.8,0.1-1.4s0-1-0.1-1.4c-0.1-0.4-0.2-0.7-0.3-0.9
					c-0.1-0.2-0.3-0.4-0.5-0.5s-0.4-0.1-0.6-0.1c-0.2,0-0.4,0-0.6,0.1s-0.3,0.2-0.5,0.5c-0.1,0.2-0.2,0.5-0.3,0.9
					c-0.1,0.4-0.1,0.8-0.1,1.4s0,1,0.1,1.4s0.2,0.7,0.3,0.9c0.1,0.2,0.3,0.4,0.5,0.5C225.8,579.5,226,579.5,226.2,579.5z"/>
			</g>
		</g>
		<circle class="st6" cx="170.5" cy="578.3" r="6.3"/>
		<circle class="st11" cx="102.5" cy="536.6" r="6.3"/>
		<circle class="st1" cx="102.5" cy="557.3" r="6.3"/>
		<circle class="st4" cx="170.5" cy="536.6" r="6.3"/>
		<circle class="st5" cx="102.5" cy="577.9" r="6.3"/>
	</g>
</g>
</svg>
