<?xml version="1.0" encoding="utf-8"?>
<!-- Generator: Adobe Illustrator 19.1.0, SVG Export Plug-In . SVG Version: 6.00 Build 0)  -->
<svg version="1.1" id="Calque_1" xmlns="http://www.w3.org/2000/svg" xmlns:xlink="http://www.w3.org/1999/xlink" x="0px" y="0px"
	 viewBox="79 -4 769 801" style="enable-background:new 79 -4 769 801;" xml:space="preserve">
<style type="text/css">
	.st0{fill:#EDE6D8;stroke:#FFFFFF;stroke-miterlimit:10;}
	.st1{fill:none;stroke:#FFFFFF;stroke-miterlimit:10;}
	.st2{fill:#FFFFFF;}
	.st3{fill:none;}
	.st4{enable-background:new    ;}
	.st5{opacity:0.2;fill:#00A5AC;enable-background:new    ;}
	.st6{fill:#00A5AC;}
	.st7{fill:none;stroke:#00A5AC;stroke-miterlimit:10;}
</style>
<g>
	<g id="XMLID_41_">
		<g id="XMLID_45_">
			<rect id="XMLID_46_" x="79.9" y="-3.5" class="st0" width="767.3" height="800"/>
		</g>
	</g>
	<g>
		<polygon id="France_12_" class="st1" points="734.7,606.7 734.7,606.7 733.5,593.8 716.6,597.6 697.4,584.4 696.2,576.4 
			697.2,575.5 701.1,571.6 701,565.2 700.7,564.9 704.9,561.1 704.9,561 701,552.3 690.1,549.6 683.4,536.6 683.4,536.6 
			694.8,535.4 704.7,527.8 707.4,517.1 707.4,517.1 688.6,492.5 688.6,492.5 690.4,490.5 697.8,487.5 698,485.6 698.1,484.7 
			698.3,480.5 687.7,467.3 687.7,467.3 690.2,464.6 690.2,464.6 686.1,454.6 669.6,458.5 666.9,456.6 662.8,462.2 662.8,462.2 
			665.4,466.2 658.1,471.6 651,471.5 650.9,467.3 657.5,465.2 660.3,456.4 655.5,454.7 656.7,445.3 670.5,431.2 670.5,431.2 
			669.5,420.7 669.5,420.7 678.1,416.8 679.5,415 696.4,393.1 696.5,393.1 696.5,393.1 693.4,385.8 697.9,384.9 698.5,384.5 
			701,388.2 709.6,388.2 713.7,384.7 716.2,377.1 711.8,370.2 716.8,352.6 714.4,342.5 720.3,331.4 723.1,309 728.8,304.9 
			739.5,287.9 727.1,282.8 714.1,283.5 707.1,276.9 701.5,276.7 698.4,279.5 690.9,279.6 684.6,274.8 680.5,274.8 679.6,277.8 
			675.5,278.2 668.3,262.9 660.4,259.6 654.5,257.2 651,257.4 642.1,259.8 635.4,254.9 622.3,257.3 617.1,253.5 615.1,248.2 
			597.1,240.5 596.7,217.5 592.5,217.5 588.2,227.5 578.1,231.9 570.9,229.5 566.5,229.5 566,227.9 570.3,224.7 570,212.9 
			562.1,205.6 549.9,206.2 548.6,208.3 547,208.3 547.4,200.7 539.7,195.1 535.4,197 530.8,195 529.8,183.4 525.9,178.6 
			517.6,180.5 512.3,183.7 510,179.1 507.8,176.7 503.4,174.3 505,168.1 501.2,159.1 482.8,164.1 470.7,166.3 460.9,173.6 
			460.6,204.1 451.7,223.1 440.8,231.9 404.1,244.6 397.6,258.5 407.3,263.4 384.4,272.6 376.9,268.4 357.8,265.7 353.7,263.6 
			348.2,265 340.3,253.4 344.5,250.3 342.6,244.5 331.4,244.5 326.9,246.6 314.2,240.4 313.3,242.3 317.9,245.9 317.9,259.8 
			325.9,274.3 328.4,293.6 325.7,299.3 333.7,309.4 327.3,311.6 316.6,311.5 315.3,305.5 310,305.3 307.9,307.6 294,306 
			277.6,312.9 273,309.1 264.4,291.5 241.5,292.8 240.1,301 230.6,299.1 228.4,301.5 218.1,297.7 192.2,305.2 189.3,319.3 
			203.1,318.4 212.2,323.9 198.4,321.6 194.7,323.6 209,330.8 208.2,335.3 190.9,336 190.8,338.9 198.7,340.7 204.3,351.7 204,355 
			212.4,355.5 213.5,351.8 224.8,357.8 239.5,360.1 254.3,373.1 268.4,380.5 282.4,383.8 277.6,393.9 292.5,396.5 292.5,402.5 
			289.9,405.4 296.6,406.6 301.8,410.7 294.6,419.5 294.4,424.7 307,445.9 336,460.8 333.6,467.3 321.1,459.6 316.1,462.7 
			339.9,476.5 337,487.5 333,485.5 324.8,475.1 324.3,482.8 329.3,486.5 330.8,499.2 350.7,514.6 352.3,523 354.5,534.7 353,537.2 
			348.2,520.5 337.1,513 335.9,507.2 333.5,508.1 332.5,516.4 325.4,564.7 330.9,557.9 337.6,566.1 337.1,569.5 329.4,569.5 
			325.5,574 325.4,577.9 313.2,629.9 309.9,635.1 303.8,642.4 294.5,644.4 294.5,648.3 313.5,654.5 312.8,661.1 310,662.7 
			316,669.1 318.1,664.2 336.6,674 340.9,674.1 341.1,674.1 343.9,674.1 343.9,674.1 343.9,674.1 344.3,678.7 350.8,684.4 
			351.4,685 351.4,685 364.2,681.7 371.2,686.5 377.2,692.8 386.2,689.8 392.1,694.2 398.3,692.6 410.1,693.8 410.5,683 419.1,686 
			428.8,689.9 432.5,696.5 440.5,696.5 445.6,700.4 457,699.1 462.5,708 469.5,710.2 469.5,713.9 475.6,716.6 479.4,712.8 
			484,712.8 495.4,720.5 503.5,720.5 512.5,711 519.3,709.4 522.7,712.2 526.7,713.5 526.8,707.7 522.7,703.5 521.7,685.1 
			521.9,672.4 517.1,669.3 518.9,666.4 523.1,669.5 528.4,662.9 564.9,640.3 569,640.6 571.2,645.2 579,645.1 595.1,646.3 
			592.1,650.3 602.4,654.3 608.2,652.5 605.6,647.6 611,648.4 614.8,652.6 628.9,652.1 631.1,660 645.5,664 651.7,670.4 
			659.1,666.7 667.1,667.5 677,666.2 691.8,658.2 690.7,651.7 703.1,640.8 711.5,635.2 711.7,628.4 716.8,628 729.3,619.4 
			729.3,619.4 729.9,608.2 		"/>
		<g id="XMLID_31_">
			<polygon id="Royaume-Uni_6_" class="st1" points="287,2.5 277.1,4.9 247.1,7.1 233.9,20.5 218.3,32.2 222.1,34.2 240.9,29.6 
				243.2,54.3 238.6,70.5 201.9,80.2 189.5,89.4 191.4,100.4 200.4,108.8 223.3,102.6 229.5,115.8 246.6,112.2 250.4,122.1 
				271.2,127.7 278.8,120.2 304.5,108.3 282.4,127.7 277.9,140.4 253.4,137.7 228.7,138.3 213.6,155.4 189.1,183.5 160.9,199.7 
				182.5,209.7 201.8,190.3 221.6,191.1 246.2,204.9 258.9,180.5 285.4,180.5 292.8,182.7 312,179.1 345,171.4 363.2,174.8 
				407.2,179.1 435.6,167.9 454.7,153.4 457.8,137.9 431.6,139.3 415,133.4 436,126 438.3,116.1 448.4,110.7 464.1,94.5 466.3,82.8 
				471.3,60.1 456.3,42.6 437.1,39.5 425,37.1 418,49.6 407.9,41.8 403.3,41.6 418.2,24.6 413.1,11 402.9,-3.5 287.2,-3.5 			"/>
			<polygon id="Irlande_6_" class="st1" points="79.5,74 97,67.3 120.6,64.4 131.7,60.5 150.2,64.9 169,20.9 169.9,5.2 166.5,1.7 
				163.5,-3.5 79.5,-3.5 			"/>
			<polygon id="Espagne_6_" class="st1" points="519.3,709.4 512.5,711 503.5,720.5 495.4,720.5 484,712.8 479.4,712.9 475.6,716.6 
				469.5,713.9 469.5,710.2 462.3,707.7 450.5,711.7 445.5,705 445.6,700.4 440.5,696.5 432.5,696.5 428.8,689.9 419.1,686 
				410.5,683 410.1,693.8 398.3,692.7 392.1,694.2 386.2,689.8 377.2,692.8 371.2,686.5 364.2,681.7 351.4,684.7 351.4,684.5 
				351.4,684.5 350.8,684.2 344.3,678.6 343.9,674.1 343.9,674.1 341.2,674.1 340.9,674.1 336.6,674 318.1,664.2 316,669.1 
				310,662.7 312.8,661.1 313.5,654.5 294.5,648.3 294.5,644.4 281.4,648 264.5,644.8 250,636.7 237.2,644.2 218.7,633 201.2,629.3 
				184.7,634.3 141.3,626.9 125.7,618.5 101.8,614 79.5,613.7 79.5,796.5 446.6,796.5 469.5,789.2 528.9,748 525.1,727.4 532.5,725 
				526.7,713.5 522.7,712.2 			"/>
			<polygon id="Allemagne_7_" class="st1" points="684.8,17.5 684.8,17.5 682.4,52.2 681.5,53.5 679,56.8 678.8,56.8 678.7,56.8 
				669.2,56.2 666.3,66.9 677.5,67.5 677.9,69.1 680.9,82.2 667.5,93.4 671.9,101.9 655.4,108.8 655.4,108.8 655.4,108.8 
				646.6,104.9 638.8,109.4 654,136 652.6,139.7 651,143.6 645,158.8 645.6,170.9 645.6,170.9 642.8,177.9 652.8,188.7 652.8,188.7 
				652.5,189.4 651.2,193 656.8,196.7 658.9,204.1 648.9,217.2 646.5,224.7 652.9,232.4 665.9,237.3 667.3,244.2 659.3,255.4 
				660.4,259.6 668.3,262.9 675.5,278.2 679.6,277.8 680.5,274.8 684.6,274.8 690.9,279.6 698.4,279.5 701.5,276.7 707.1,276.9 
				714.1,283.5 727.1,282.8 739.5,287.9 728.8,304.9 723.1,309 720.3,331.4 714.4,342.5 716.8,352.6 711.8,370.2 716.2,377.1 
				713.7,384.7 716.3,380.5 733.8,379.8 744.3,374.7 755.2,377.2 756.2,374.9 756.3,374.6 762.1,372.3 754.7,370.5 752.6,368.6 
				758.5,363.2 764.5,362.1 770.1,367 776.4,370 783.9,368.5 794.2,369.7 809.1,374.2 811.1,370.6 826.5,383 826.5,385.3 
				826.5,388.8 840.2,378.8 840.9,370.3 847,370.2 847.5,370.2 847.5,-3.5 682.8,-3.5 673.8,8.8 674,9.1 			"/>
			<polygon id="Italie_6_" class="st1" points="847.5,419 832,432.4 829.8,450.6 796,446.7 773.7,469.3 760.7,461.3 759.8,447.5 
				744.9,461.2 748.4,466.4 735.3,484.3 724.5,480.6 712.9,486.7 702,488.1 700.2,487.6 698,485.6 697.8,487.5 690.4,490.5 
				688.6,492.5 707.4,517.1 707.4,517.1 707.4,517.1 704.7,527.8 694.8,535.4 683.4,536.6 690.1,549.6 701,552.3 704.9,561 
				704.9,561.1 700.7,564.9 701,565.2 701.1,571.6 697.2,575.5 696.2,576.4 697.4,584.4 716.6,597.6 733.5,593.8 734.7,606.7 
				734.7,606.7 729.9,608.2 729.3,619.4 736,621.4 754.6,614.4 770.1,589.5 782.7,577.2 809.9,583.4 846.1,598.8 847.5,600.3 			"/>
			<polygon id="Autriche_6_" class="st1" points="840.9,370.3 840.2,378.8 826.5,388.8 826.5,385.3 826.5,383 811.1,370.6 
				809.2,374.2 794.2,369.7 802.8,376.4 807.1,379.6 808.8,385 803.2,394.9 816.7,397 820.1,409.6 828.9,418.2 839.1,410.5 
				846.5,410.5 847.5,410.5 847.5,370.2 847,370.2 			"/>
			<polygon id="Liechtenstein_6_" class="st1" points="820.1,409.6 816.7,397 803.2,394.9 805.7,406.6 			"/>
			<polygon id="Pays-Bas_7_" class="st1" points="569.9,140.7 582.8,134.3 592.1,137.2 603.4,134.3 610.4,146.3 619.1,145.1 
				619.1,145.1 619.1,145.1 635.5,153.1 630.2,178.8 642.8,177.9 642.8,177.9 642.8,177.9 642.8,177.9 645.6,170.9 645.6,170.9 
				645,158.8 651,143.6 652.6,139.7 654,136 638.8,109.4 646.6,104.9 646.6,104.9 655.4,108.8 655.4,108.8 671.9,101.9 667.5,93.4 
				680.9,82.2 677.9,69.1 677.5,67.5 666.3,66.9 669.2,56.2 669.2,56.2 678.8,56.8 679,56.8 681.5,53.5 682.4,52.2 684.8,17.5 
				684.8,17.5 674,9.2 673.8,9.1 673.4,8.7 670.2,6.3 660.5,7 639.4,10.5 618.5,19 613.5,31.6 597,44.3 594.1,39.5 588.3,38.5 
				580.1,80.2 566.2,100.3 550.7,117.2 537.7,130.3 541.7,137.7 558.2,141.5 			"/>
			<polygon id="Belgique_6_" class="st1" points="503.4,174.3 507.8,176.7 510,179.1 512.3,183.7 517.6,180.5 525.9,178.6 
				529.8,183.4 530.8,195 535.4,197 539.7,195.1 547.4,200.7 547,208.3 548.6,208.3 549.9,206.2 562.1,205.6 570,212.9 570.3,224.7 
				566,228 566.5,229.5 570.9,229.6 578.1,232 588.2,227.5 592.5,217.5 596.7,217.5 597.1,240.5 615.1,248 617.1,253.4 622.3,257.2 
				635.4,254.9 639.4,252.6 638.9,249.9 632.5,233.1 643.7,214.2 648.9,217.2 658.9,204.1 656.8,196.7 651.1,193 652.5,189.4 
				652.8,188.7 642.8,177.9 642.8,177.9 630.2,178.8 630.2,178.8 635.5,153.1 619.1,145.1 619.1,145.1 610.4,146.3 603.4,134.3 
				592.1,137.2 582.8,134.3 569.9,140.7 558.2,141.5 541.7,137.7 528.2,141.3 497.5,157.1 497.5,160.2 501.3,159.1 505.1,168.1 			
				"/>
			<polygon id="Luxembourg_8_" class="st1" points="667.3,244.2 665.9,237.3 652.9,232.4 646.5,224.7 648.9,217.2 643.7,214.2 
				632.5,233.1 638.9,249.9 639.4,252.6 635.4,254.9 642.1,259.8 651,257.4 654.5,257.2 660.4,259.6 659.3,255.4 			"/>
			<polygon id="Suisse_7_" class="st1" points="839.1,410.5 828.9,418.2 820.1,409.5 805.7,406.6 803.2,394.9 808.8,385 
				807.1,379.6 802.8,376.4 794.2,369.7 783.9,368.5 776.4,370 770.1,367 764.5,362.1 758.5,363.2 752.6,368.6 754.7,370.5 
				762.1,372.3 756.3,374.6 756.2,374.9 755.2,377.1 744.3,374.7 733.8,379.8 716.3,380.3 713.3,384.5 712.9,384.5 709.6,388 
				701,388.1 698.5,384.5 697.9,384.8 693.4,385.8 696.5,393.1 696.5,393.1 696.5,393.1 696.4,393.1 696.3,393.1 679.5,415 
				678.1,416.8 669.6,420.8 670.5,431.5 670.5,431.5 670.5,431.5 656.7,445.5 655.5,454.8 660.3,456.5 657.5,465.3 650.9,467.3 
				651,471.5 658.1,471.6 665.4,466.2 662.8,462.2 662.8,462.2 662.8,462.2 666.9,456.6 669.6,458.5 686.1,454.6 690.2,464.6 
				690.2,464.6 690.2,464.6 687.7,467.3 698.3,480.5 698.1,484.7 698,485.6 700.2,487.6 702,488.1 712.9,486.7 724.5,480.6 
				735.3,484.3 735.3,484.3 748.4,466.4 744.9,461.2 759.8,447.5 760.7,461.3 773.7,469.3 796,446.7 829.7,450.6 832,432.4 
				847.5,419 847.5,410.5 846.5,410.5 			"/>
			<polygon id="France_11_" class="st2" points="811.1,650.3 803.9,650.6 801.4,656 787.1,661.5 782,674.4 780.2,676.8 786.1,680.6 
				786.3,682.3 780.6,683.6 782.1,690.8 788.6,692.9 789,696.8 784.6,701.4 785.2,705.3 791.7,705.9 793.3,710 788.9,715.8 
				800.5,717.7 793.8,724.9 799.9,729.7 809.5,732.7 812.3,735.9 817.8,737.4 823,721.9 824.2,710.5 823.5,704 823.4,697.5 
				828.7,690.2 828.8,677.9 826.7,673.7 826.1,660.6 821.8,655.9 821.4,647.8 822.8,644.1 820,633.4 818,629.8 813.9,633.1 
				815.8,646.2 814.4,652.1 			"/>
			<polygon id="Andorre_6_" class="st1" points="450.5,711.7 462.3,707.7 457,699.1 445.6,700.3 445.5,705 			"/>
			<polygon id="Monaco_6_" class="st1" points="711.5,635.2 711.5,635.2 720.4,635.5 716.8,628 711.7,628.4 			"/>
		</g>
	</g>
</g>
<g>
	<rect x="79.5" y="407.5" class="st2" width="189.1" height="191.3"/>
	<g>
		<g id="XMLID_3138_">
			<rect id="XMLID_147_" x="95.4" y="425.5" class="st3" width="177.7" height="77.3"/>
			<g class="st4">
				<path d="M96.7,425.5h2.1l4.6,8.2v-8.2h1.6v10.4h-2l-4.7-8.3v8.3h-1.6V425.5z"/>
				<path d="M110.7,436c-0.6,0-1.1-0.1-1.5-0.3c-0.5-0.2-0.9-0.4-1.2-0.8s-0.6-0.8-0.7-1.2c-0.2-0.5-0.3-1-0.3-1.6s0.1-1.1,0.3-1.6
					c0.2-0.5,0.4-0.9,0.7-1.2c0.3-0.3,0.7-0.6,1.2-0.8s1-0.3,1.5-0.3s1.1,0.1,1.5,0.3s0.9,0.5,1.2,0.8c0.3,0.3,0.6,0.7,0.8,1.2
					c0.2,0.5,0.3,1,0.3,1.6s-0.1,1.1-0.3,1.6c-0.2,0.5-0.4,0.9-0.8,1.2s-0.7,0.6-1.2,0.8C111.8,435.9,111.3,436,110.7,436z
					 M110.7,434.8c0.7,0,1.2-0.2,1.6-0.7c0.4-0.5,0.6-1.2,0.6-2c0-0.8-0.2-1.5-0.6-2c-0.4-0.5-0.9-0.7-1.6-0.7
					c-0.7,0-1.2,0.2-1.6,0.7c-0.4,0.5-0.6,1.2-0.6,2c0,0.8,0.2,1.5,0.6,2C109.5,434.6,110,434.8,110.7,434.8z"/>
				<path d="M116.4,428.3h1.5v1.2h0c0.2-0.4,0.5-0.7,0.8-1s0.8-0.4,1.3-0.4c0.6,0,1,0.1,1.4,0.4s0.6,0.6,0.7,1h0
					c0.2-0.4,0.5-0.8,0.9-1c0.4-0.2,0.8-0.4,1.4-0.4c0.8,0,1.4,0.2,1.8,0.7c0.4,0.5,0.6,1.1,0.6,2v4.9h-1.5v-4.5
					c0-0.6-0.1-1.1-0.3-1.4s-0.5-0.4-1-0.4c-0.5,0-0.9,0.2-1.2,0.5s-0.5,0.8-0.5,1.5v4.4h-1.5v-4.5c0-0.6-0.1-1.1-0.3-1.4
					s-0.5-0.5-1-0.5c-0.6,0-1,0.2-1.3,0.5s-0.5,0.9-0.5,1.5v4.3h-1.5V428.3z"/>
				<path d="M129.3,425.5h1.5v4h0c0.2-0.4,0.5-0.7,0.9-0.9s0.9-0.4,1.5-0.4c0.5,0,1,0.1,1.4,0.3s0.7,0.5,1,0.8
					c0.3,0.3,0.5,0.7,0.6,1.2c0.1,0.5,0.2,1,0.2,1.6c0,0.6-0.1,1.1-0.2,1.6c-0.1,0.5-0.4,0.9-0.6,1.2s-0.6,0.6-1,0.8
					c-0.4,0.2-0.9,0.3-1.4,0.3c-0.6,0-1.1-0.1-1.5-0.4s-0.7-0.6-0.9-1h0v1.2h-1.5V425.5z M132.9,434.8c0.6,0,1.2-0.2,1.5-0.7
					c0.4-0.5,0.6-1.2,0.6-2c0-0.9-0.2-1.5-0.5-2c-0.4-0.5-0.9-0.7-1.6-0.7c-0.7,0-1.2,0.2-1.5,0.7c-0.3,0.5-0.5,1.2-0.5,2
					s0.2,1.5,0.5,2S132.2,434.8,132.9,434.8z"/>
				<path d="M138.4,428.3h1.5v1.2h0c0.2-0.4,0.5-0.7,0.9-1s0.7-0.3,1.2-0.3c0,0,0.1,0,0.2,0s0.2,0,0.2,0v1.6c-0.1,0-0.2,0-0.3-0.1
					s-0.2,0-0.3,0c-0.6,0-1,0.2-1.4,0.5s-0.5,0.9-0.5,1.5v4.1h-1.5V428.3z"/>
				<path d="M150.3,433.3c0,0.4-0.1,0.8-0.3,1.1s-0.4,0.6-0.7,0.9s-0.6,0.4-1,0.6c-0.4,0.1-0.8,0.2-1.3,0.2c-0.6,0-1.1-0.1-1.6-0.3
					c-0.4-0.2-0.8-0.4-1.1-0.8s-0.5-0.8-0.6-1.2c-0.1-0.5-0.2-1-0.2-1.6s0.1-1.1,0.2-1.6c0.1-0.5,0.4-0.9,0.7-1.2
					c0.3-0.3,0.7-0.6,1.1-0.8s0.9-0.3,1.5-0.3s1.1,0.1,1.5,0.3s0.8,0.4,1,0.8c0.3,0.3,0.5,0.7,0.6,1.2c0.1,0.5,0.2,1,0.2,1.6v0.2
					h-5.3c0,0.8,0.2,1.4,0.5,1.8s0.8,0.6,1.4,0.6c0.5,0,0.9-0.1,1.3-0.4s0.5-0.6,0.6-1.1H150.3z M148.9,431.3c0-0.6-0.2-1-0.5-1.4
					s-0.7-0.6-1.3-0.6c-0.6,0-1,0.2-1.3,0.5c-0.3,0.3-0.5,0.8-0.6,1.5H148.9z"/>
				<path d="M161.8,434.6L161.8,434.6c-0.3,0.4-0.6,0.7-0.9,1s-0.9,0.4-1.5,0.4c-0.5,0-1-0.1-1.4-0.3c-0.4-0.2-0.7-0.5-1-0.8
					s-0.5-0.8-0.6-1.2c-0.1-0.5-0.2-1-0.2-1.5c0-0.6,0.1-1.1,0.2-1.6c0.1-0.5,0.3-0.9,0.6-1.2c0.3-0.3,0.6-0.6,1-0.8
					s0.9-0.3,1.4-0.3c0.6,0,1.1,0.1,1.5,0.4s0.7,0.6,0.9,0.9h0v-4h1.5v10.4h-1.5V434.6z M159.8,434.8c0.7,0,1.2-0.2,1.5-0.7
					c0.3-0.5,0.5-1.2,0.5-2c0-0.9-0.2-1.5-0.5-2c-0.3-0.5-0.8-0.7-1.5-0.7c-0.6,0-1.2,0.2-1.5,0.7c-0.4,0.5-0.6,1.2-0.6,2
					c0,0.9,0.2,1.5,0.5,2S159.1,434.8,159.8,434.8z"/>
				<path d="M172,433.3c0,0.4-0.1,0.8-0.3,1.1s-0.4,0.6-0.7,0.9s-0.6,0.4-1,0.6c-0.4,0.1-0.8,0.2-1.3,0.2c-0.6,0-1.1-0.1-1.6-0.3
					c-0.4-0.2-0.8-0.4-1.1-0.8s-0.5-0.8-0.6-1.2c-0.1-0.5-0.2-1-0.2-1.6s0.1-1.1,0.2-1.6c0.1-0.5,0.4-0.9,0.7-1.2
					c0.3-0.3,0.7-0.6,1.1-0.8s0.9-0.3,1.5-0.3s1.1,0.1,1.5,0.3s0.8,0.4,1,0.8c0.3,0.3,0.5,0.7,0.6,1.2c0.1,0.5,0.2,1,0.2,1.6v0.2
					h-5.3c0,0.8,0.2,1.4,0.5,1.8s0.8,0.6,1.4,0.6c0.5,0,0.9-0.1,1.3-0.4s0.5-0.6,0.6-1.1H172z M170.5,431.3c0-0.6-0.2-1-0.5-1.4
					s-0.7-0.6-1.3-0.6c-0.6,0-1,0.2-1.3,0.5c-0.3,0.3-0.5,0.8-0.6,1.5H170.5z"/>
				<path d="M183.4,434.6L183.4,434.6c-0.3,0.4-0.6,0.7-0.9,1s-0.9,0.4-1.5,0.4c-0.5,0-1-0.1-1.4-0.3c-0.4-0.2-0.7-0.5-1-0.8
					s-0.5-0.8-0.6-1.2c-0.1-0.5-0.2-1-0.2-1.5c0-0.6,0.1-1.1,0.2-1.6c0.1-0.5,0.3-0.9,0.6-1.2c0.3-0.3,0.6-0.6,1-0.8
					s0.9-0.3,1.4-0.3c0.6,0,1.1,0.1,1.5,0.4s0.7,0.6,0.9,0.9h0v-4h1.5v10.4h-1.5V434.6z M181.4,434.8c0.7,0,1.2-0.2,1.5-0.7
					c0.3-0.5,0.5-1.2,0.5-2c0-0.9-0.2-1.5-0.5-2c-0.3-0.5-0.8-0.7-1.5-0.7c-0.6,0-1.2,0.2-1.5,0.7c-0.4,0.5-0.6,1.2-0.6,2
					c0,0.9,0.2,1.5,0.5,2S180.7,434.8,181.4,434.8z"/>
				<path d="M193.6,433.3c0,0.4-0.1,0.8-0.3,1.1s-0.4,0.6-0.7,0.9s-0.6,0.4-1,0.6c-0.4,0.1-0.8,0.2-1.3,0.2c-0.6,0-1.1-0.1-1.6-0.3
					c-0.4-0.2-0.8-0.4-1.1-0.8s-0.5-0.8-0.6-1.2c-0.1-0.5-0.2-1-0.2-1.6s0.1-1.1,0.2-1.6c0.1-0.5,0.4-0.9,0.7-1.2
					c0.3-0.3,0.7-0.6,1.1-0.8s0.9-0.3,1.5-0.3s1.1,0.1,1.5,0.3s0.8,0.4,1,0.8c0.3,0.3,0.5,0.7,0.6,1.2c0.1,0.5,0.2,1,0.2,1.6v0.2
					h-5.3c0,0.8,0.2,1.4,0.5,1.8s0.8,0.6,1.4,0.6c0.5,0,0.9-0.1,1.3-0.4s0.5-0.6,0.6-1.1H193.6z M192.2,431.3c0-0.6-0.2-1-0.5-1.4
					s-0.7-0.6-1.3-0.6c-0.6,0-1,0.2-1.3,0.5c-0.3,0.3-0.5,0.8-0.6,1.5H192.2z M191.1,425.5h1.8l-2.1,2h-1.2L191.1,425.5z"/>
				<path d="M195.7,428.3h1.5v1.2h0c0.2-0.4,0.5-0.7,0.9-0.9s0.9-0.4,1.5-0.4c0.5,0,1,0.1,1.4,0.3s0.7,0.5,1,0.8
					c0.3,0.3,0.5,0.7,0.6,1.2c0.1,0.5,0.2,1,0.2,1.6c0,0.6-0.1,1.1-0.2,1.6c-0.1,0.5-0.4,0.9-0.6,1.2s-0.6,0.6-1,0.8
					c-0.4,0.2-0.9,0.3-1.4,0.3c-0.6,0-1.1-0.1-1.5-0.4s-0.7-0.6-0.9-1h0v3.9h-1.5V428.3z M199.3,434.8c0.6,0,1.2-0.2,1.5-0.7
					c0.4-0.5,0.6-1.2,0.6-2c0-0.9-0.2-1.5-0.5-2c-0.4-0.5-0.9-0.7-1.6-0.7c-0.7,0-1.2,0.2-1.5,0.7c-0.3,0.5-0.5,1.2-0.5,2
					s0.2,1.5,0.5,2S198.6,434.8,199.3,434.8z"/>
				<path d="M209.2,434.8L209.2,434.8c-0.3,0.4-0.6,0.6-1,0.9s-1,0.3-1.6,0.3c-0.4,0-0.7-0.1-1-0.2c-0.3-0.1-0.5-0.2-0.7-0.4
					c-0.2-0.2-0.3-0.4-0.4-0.6c-0.1-0.2-0.1-0.5-0.1-0.8c0-0.5,0.1-1,0.4-1.3c0.2-0.3,0.5-0.5,0.9-0.7s0.8-0.3,1.2-0.3
					s0.9-0.1,1.2-0.2c0.3,0,0.5-0.1,0.7-0.1s0.3-0.1,0.4-0.1c0.1-0.1,0.1-0.1,0.2-0.2c0-0.1,0-0.2,0-0.3c0-0.4-0.1-0.7-0.4-1
					s-0.6-0.4-1.2-0.4c-0.5,0-0.9,0.1-1.2,0.3s-0.4,0.6-0.5,1.1h-1.4c0.1-0.8,0.4-1.4,0.8-1.9c0.5-0.5,1.2-0.7,2.3-0.7
					c1,0,1.8,0.2,2.3,0.7c0.5,0.5,0.7,1.2,0.7,2.3v4.6h-1.5V434.8z M209.2,432.2c-0.4,0.1-0.8,0.2-1.2,0.2c-0.4,0.1-0.8,0.1-1.1,0.2
					s-0.6,0.2-0.8,0.4s-0.3,0.4-0.3,0.7c0,0.3,0.1,0.6,0.4,0.8s0.6,0.3,1,0.3c0.3,0,0.6,0,0.9-0.1c0.3-0.1,0.5-0.2,0.7-0.4
					s0.3-0.4,0.5-0.6c0.1-0.2,0.2-0.5,0.2-0.8V432.2z"/>
				<path d="M212.9,428.3h1.5v1.2h0c0.2-0.4,0.5-0.7,0.9-1s0.7-0.3,1.2-0.3c0,0,0.1,0,0.2,0s0.2,0,0.2,0v1.6c-0.1,0-0.2,0-0.3-0.1
					s-0.2,0-0.3,0c-0.6,0-1,0.2-1.4,0.5s-0.5,0.9-0.5,1.5v4.1h-1.5V428.3z"/>
				<path d="M218.6,429.6h-1v-1.2h1v-1.9h1.5v1.9h1.8v1.2h-1.8v3.9c0,0.4,0.1,0.7,0.3,0.8s0.4,0.3,0.8,0.3c0.1,0,0.2,0,0.4,0
					s0.2,0,0.4,0v1.3c-0.2,0-0.3,0.1-0.5,0.1s-0.3,0-0.5,0c-0.7,0-1.3-0.2-1.7-0.6c-0.4-0.4-0.6-1-0.6-1.8V429.6z"/>
				<path d="M224.4,433.4c0,0.6,0.2,0.9,0.6,1.1s0.7,0.3,1.2,0.3c0.4,0,0.8-0.1,1-0.3s0.4-0.4,0.4-0.8c0-0.3-0.1-0.5-0.3-0.7
					s-0.5-0.3-0.8-0.4c-0.3-0.1-0.7-0.2-1.1-0.2c-0.4-0.1-0.7-0.2-1.1-0.3c-0.3-0.1-0.6-0.4-0.8-0.6c-0.2-0.3-0.3-0.7-0.3-1.2
					c0-0.3,0.1-0.6,0.2-0.9c0.1-0.3,0.3-0.5,0.5-0.7s0.5-0.4,0.9-0.5c0.3-0.1,0.8-0.2,1.2-0.2c0.9,0,1.6,0.2,2.1,0.6
					s0.8,1.1,0.8,1.9h-1.5c0-0.5-0.2-0.8-0.4-1.1c-0.3-0.2-0.6-0.3-1.1-0.3c-0.2,0-0.4,0-0.6,0.1s-0.3,0.1-0.4,0.2
					c-0.1,0.1-0.2,0.2-0.2,0.3s-0.1,0.2-0.1,0.4c0,0.3,0.1,0.5,0.3,0.6s0.5,0.2,0.8,0.3c0.3,0.1,0.7,0.2,1.1,0.3
					c0.4,0.1,0.7,0.2,1.1,0.3c0.3,0.2,0.6,0.4,0.8,0.7c0.2,0.3,0.3,0.7,0.3,1.2c0,0.7-0.2,1.2-0.7,1.6c-0.5,0.4-1.2,0.6-2.2,0.6
					c-1,0-1.8-0.2-2.3-0.6s-0.9-1.1-0.9-2H224.4z"/>
			</g>
			<g class="st4">
				<path d="M102.9,450.1c0,0.4-0.1,0.8-0.3,1.1s-0.4,0.6-0.7,0.9s-0.6,0.4-1,0.6c-0.4,0.1-0.8,0.2-1.3,0.2c-0.6,0-1.1-0.1-1.6-0.3
					c-0.4-0.2-0.8-0.4-1.1-0.8s-0.5-0.8-0.6-1.2c-0.1-0.5-0.2-1-0.2-1.6s0.1-1.1,0.2-1.6c0.1-0.5,0.4-0.9,0.7-1.2
					c0.3-0.3,0.7-0.6,1.1-0.8s0.9-0.3,1.5-0.3s1.1,0.1,1.5,0.3s0.8,0.4,1,0.8c0.3,0.3,0.5,0.7,0.6,1.2c0.1,0.5,0.2,1,0.2,1.6v0.2
					h-5.3c0,0.8,0.2,1.4,0.5,1.8s0.8,0.6,1.4,0.6c0.5,0,0.9-0.1,1.3-0.4s0.5-0.6,0.6-1.1H102.9z M101.4,448.1c0-0.6-0.2-1-0.5-1.4
					s-0.7-0.6-1.3-0.6c-0.6,0-1,0.2-1.3,0.5c-0.3,0.3-0.5,0.8-0.6,1.5H101.4z"/>
				<path d="M105.1,446.4h-1v-1.2h1v-1.9h1.5v1.9h1.8v1.2h-1.8v3.9c0,0.4,0.1,0.7,0.3,0.8s0.4,0.3,0.8,0.3c0.1,0,0.2,0,0.4,0
					s0.2,0,0.4,0v1.3c-0.2,0-0.3,0.1-0.5,0.1s-0.3,0-0.5,0c-0.7,0-1.3-0.2-1.7-0.6c-0.4-0.4-0.6-1-0.6-1.8V446.4z"/>
				<path d="M118.5,451.6L118.5,451.6c-0.3,0.4-0.6,0.6-1,0.9s-1,0.3-1.6,0.3c-0.4,0-0.7-0.1-1-0.2c-0.3-0.1-0.5-0.2-0.7-0.4
					c-0.2-0.2-0.3-0.4-0.4-0.6c-0.1-0.2-0.1-0.5-0.1-0.8c0-0.5,0.1-1,0.4-1.3c0.2-0.3,0.5-0.5,0.9-0.7s0.8-0.3,1.2-0.3
					s0.9-0.1,1.2-0.2c0.3,0,0.5-0.1,0.7-0.1s0.3-0.1,0.4-0.1c0.1-0.1,0.1-0.1,0.2-0.2c0-0.1,0-0.2,0-0.3c0-0.4-0.1-0.7-0.4-1
					s-0.6-0.4-1.2-0.4c-0.5,0-0.9,0.1-1.2,0.3s-0.4,0.6-0.5,1.1h-1.4c0.1-0.8,0.4-1.4,0.8-1.9c0.5-0.5,1.2-0.7,2.3-0.7
					c1,0,1.8,0.2,2.3,0.7c0.5,0.5,0.7,1.2,0.7,2.3v4.6h-1.5V451.6z M118.5,449c-0.4,0.1-0.8,0.2-1.2,0.2c-0.4,0.1-0.8,0.1-1.1,0.2
					s-0.6,0.2-0.8,0.4s-0.3,0.4-0.3,0.7c0,0.3,0.1,0.6,0.4,0.8s0.6,0.3,1,0.3c0.3,0,0.6,0,0.9-0.1c0.3-0.1,0.5-0.2,0.7-0.4
					s0.3-0.4,0.5-0.6c0.1-0.2,0.2-0.5,0.2-0.8V449z"/>
				<path d="M122.3,445.1h1.5v1.2h0c0.2-0.4,0.5-0.7,0.9-1s0.7-0.3,1.2-0.3c0,0,0.1,0,0.2,0s0.2,0,0.2,0v1.6c-0.1,0-0.2,0-0.3-0.1
					s-0.2,0-0.3,0c-0.6,0-1,0.2-1.4,0.5s-0.5,0.9-0.5,1.5v4.1h-1.5V445.1z"/>
				<path d="M127.9,445.1h1.5v1.2h0c0.2-0.4,0.5-0.7,0.9-1s0.7-0.3,1.2-0.3c0,0,0.1,0,0.2,0s0.2,0,0.2,0v1.6c-0.1,0-0.2,0-0.3-0.1
					s-0.2,0-0.3,0c-0.6,0-1,0.2-1.4,0.5s-0.5,0.9-0.5,1.5v4.1h-1.5V445.1z"/>
				<path d="M134.2,443.8c-0.3,0-0.5-0.1-0.7-0.3s-0.3-0.4-0.3-0.7c0-0.3,0.1-0.5,0.3-0.7c0.2-0.2,0.4-0.3,0.7-0.3
					c0.3,0,0.5,0.1,0.7,0.3s0.3,0.4,0.3,0.7c0,0.3-0.1,0.5-0.3,0.7S134.5,443.8,134.2,443.8z M133.5,445.1h1.5v7.5h-1.5V445.1z"/>
				<path d="M136.4,445.1h1.6l2,5.8l2-5.8h1.6l-2.9,7.5h-1.5L136.4,445.1z"/>
				<path d="M151.4,450.1c0,0.4-0.1,0.8-0.3,1.1s-0.4,0.6-0.7,0.9s-0.6,0.4-1,0.6c-0.4,0.1-0.8,0.2-1.3,0.2c-0.6,0-1.1-0.1-1.6-0.3
					c-0.4-0.2-0.8-0.4-1.1-0.8s-0.5-0.8-0.6-1.2c-0.1-0.5-0.2-1-0.2-1.6s0.1-1.1,0.2-1.6c0.1-0.5,0.4-0.9,0.7-1.2
					c0.3-0.3,0.7-0.6,1.1-0.8s0.9-0.3,1.5-0.3s1.1,0.1,1.5,0.3s0.8,0.4,1,0.8c0.3,0.3,0.5,0.7,0.6,1.2c0.1,0.5,0.2,1,0.2,1.6v0.2
					h-5.3c0,0.8,0.2,1.4,0.5,1.8s0.8,0.6,1.4,0.6c0.5,0,0.9-0.1,1.3-0.4s0.5-0.6,0.6-1.1H151.4z M149.9,448.1c0-0.6-0.2-1-0.5-1.4
					s-0.7-0.6-1.3-0.6c-0.6,0-1,0.2-1.3,0.5c-0.3,0.3-0.5,0.8-0.6,1.5H149.9z M148.9,442.3h1.8l-2.1,2h-1.2L148.9,442.3z"/>
				<path d="M159.9,450.1c0,0.4-0.1,0.8-0.3,1.1s-0.4,0.6-0.7,0.9s-0.6,0.4-1,0.6c-0.4,0.1-0.8,0.2-1.3,0.2c-0.6,0-1.1-0.1-1.6-0.3
					c-0.4-0.2-0.8-0.4-1.1-0.8s-0.5-0.8-0.6-1.2c-0.1-0.5-0.2-1-0.2-1.6s0.1-1.1,0.2-1.6c0.1-0.5,0.4-0.9,0.7-1.2
					c0.3-0.3,0.7-0.6,1.1-0.8s0.9-0.3,1.5-0.3s1.1,0.1,1.5,0.3s0.8,0.4,1,0.8c0.3,0.3,0.5,0.7,0.6,1.2c0.1,0.5,0.2,1,0.2,1.6v0.2
					h-5.3c0,0.8,0.2,1.4,0.5,1.8s0.8,0.6,1.4,0.6c0.5,0,0.9-0.1,1.3-0.4s0.5-0.6,0.6-1.1H159.9z M158.4,448.1c0-0.6-0.2-1-0.5-1.4
					s-0.7-0.6-1.3-0.6c-0.6,0-1,0.2-1.3,0.5c-0.3,0.3-0.5,0.8-0.6,1.5H158.4z"/>
				<path d="M162.9,450.2c0,0.6,0.2,0.9,0.6,1.1s0.7,0.3,1.2,0.3c0.4,0,0.8-0.1,1-0.3s0.4-0.4,0.4-0.8c0-0.3-0.1-0.5-0.3-0.7
					s-0.5-0.3-0.8-0.4c-0.3-0.1-0.7-0.2-1.1-0.2c-0.4-0.1-0.7-0.2-1.1-0.3c-0.3-0.1-0.6-0.4-0.8-0.6c-0.2-0.3-0.3-0.7-0.3-1.2
					c0-0.3,0.1-0.6,0.2-0.9c0.1-0.3,0.3-0.5,0.5-0.7s0.5-0.4,0.9-0.5c0.3-0.1,0.8-0.2,1.2-0.2c0.9,0,1.6,0.2,2.1,0.6
					s0.8,1.1,0.8,1.9H166c0-0.5-0.2-0.8-0.4-1.1c-0.3-0.2-0.6-0.3-1.1-0.3c-0.2,0-0.4,0-0.6,0.1s-0.3,0.1-0.4,0.2
					c-0.1,0.1-0.2,0.2-0.2,0.3s-0.1,0.2-0.1,0.4c0,0.3,0.1,0.5,0.3,0.6s0.5,0.2,0.8,0.3c0.3,0.1,0.7,0.2,1.1,0.3
					c0.4,0.1,0.7,0.2,1.1,0.3c0.3,0.2,0.6,0.4,0.8,0.7c0.2,0.3,0.3,0.7,0.3,1.2c0,0.7-0.2,1.2-0.7,1.6c-0.5,0.4-1.2,0.6-2.2,0.6
					c-1,0-1.8-0.2-2.3-0.6s-0.9-1.1-0.9-2H162.9z"/>
				<path d="M178.9,451.4L178.9,451.4c-0.3,0.4-0.6,0.7-0.9,1s-0.9,0.4-1.5,0.4c-0.5,0-1-0.1-1.4-0.3c-0.4-0.2-0.7-0.5-1-0.8
					s-0.5-0.8-0.6-1.2c-0.1-0.5-0.2-1-0.2-1.5c0-0.6,0.1-1.1,0.2-1.6c0.1-0.5,0.3-0.9,0.6-1.2c0.3-0.3,0.6-0.6,1-0.8
					s0.9-0.3,1.4-0.3c0.6,0,1.1,0.1,1.5,0.4s0.7,0.6,0.9,0.9h0v-4h1.5v10.4h-1.5V451.4z M176.9,451.6c0.7,0,1.2-0.2,1.5-0.7
					c0.3-0.5,0.5-1.2,0.5-2c0-0.9-0.2-1.5-0.5-2c-0.3-0.5-0.8-0.7-1.5-0.7c-0.6,0-1.2,0.2-1.5,0.7c-0.4,0.5-0.6,1.2-0.6,2
					c0,0.9,0.2,1.5,0.5,2S176.2,451.6,176.9,451.6z"/>
				<path d="M189.1,450.1c0,0.4-0.1,0.8-0.3,1.1s-0.4,0.6-0.7,0.9s-0.6,0.4-1,0.6c-0.4,0.1-0.8,0.2-1.3,0.2c-0.6,0-1.1-0.1-1.6-0.3
					c-0.4-0.2-0.8-0.4-1.1-0.8s-0.5-0.8-0.6-1.2c-0.1-0.5-0.2-1-0.2-1.6s0.1-1.1,0.2-1.6c0.1-0.5,0.4-0.9,0.7-1.2
					c0.3-0.3,0.7-0.6,1.1-0.8s0.9-0.3,1.5-0.3s1.1,0.1,1.5,0.3s0.8,0.4,1,0.8c0.3,0.3,0.5,0.7,0.6,1.2c0.1,0.5,0.2,1,0.2,1.6v0.2
					h-5.3c0,0.8,0.2,1.4,0.5,1.8s0.8,0.6,1.4,0.6c0.5,0,0.9-0.1,1.3-0.4s0.5-0.6,0.6-1.1H189.1z M187.6,448.1c0-0.6-0.2-1-0.5-1.4
					s-0.7-0.6-1.3-0.6c-0.6,0-1,0.2-1.3,0.5c-0.3,0.3-0.5,0.8-0.6,1.5H187.6z"/>
				<path d="M191.2,445.1h1.5v1.2h0c0.2-0.4,0.5-0.7,0.9-0.9s0.9-0.4,1.5-0.4c0.5,0,1,0.1,1.4,0.3s0.7,0.5,1,0.8
					c0.3,0.3,0.5,0.7,0.6,1.2c0.1,0.5,0.2,1,0.2,1.6c0,0.6-0.1,1.1-0.2,1.6c-0.1,0.5-0.4,0.9-0.6,1.2s-0.6,0.6-1,0.8
					c-0.4,0.2-0.9,0.3-1.4,0.3c-0.6,0-1.1-0.1-1.5-0.4s-0.7-0.6-0.9-1h0v3.9h-1.5V445.1z M194.7,451.6c0.6,0,1.2-0.2,1.5-0.7
					c0.4-0.5,0.6-1.2,0.6-2c0-0.9-0.2-1.5-0.5-2c-0.4-0.5-0.9-0.7-1.6-0.7c-0.7,0-1.2,0.2-1.5,0.7c-0.3,0.5-0.5,1.2-0.5,2
					s0.2,1.5,0.5,2S194,451.6,194.7,451.6z"/>
				<path d="M200.3,445.1h1.5v4.5c0,0.6,0.1,1.1,0.3,1.4c0.2,0.3,0.6,0.5,1.1,0.5c0.6,0,1-0.2,1.4-0.6s0.5-0.9,0.5-1.5v-4.3h1.5v7.5
					H205v-1.2h0c-0.2,0.4-0.5,0.7-0.9,1s-0.8,0.4-1.4,0.4c-0.9,0-1.5-0.2-1.8-0.7s-0.5-1.1-0.5-2V445.1z"/>
				<path d="M209.7,443.8c-0.3,0-0.5-0.1-0.7-0.3s-0.3-0.4-0.3-0.7c0-0.3,0.1-0.5,0.3-0.7c0.2-0.2,0.4-0.3,0.7-0.3
					c0.3,0,0.5,0.1,0.7,0.3s0.3,0.4,0.3,0.7c0,0.3-0.1,0.5-0.3,0.7S210,443.8,209.7,443.8z M208.9,445.1h1.5v7.5h-1.5V445.1z"/>
				<path d="M213.8,450.2c0,0.6,0.2,0.9,0.6,1.1s0.7,0.3,1.2,0.3c0.4,0,0.8-0.1,1-0.3s0.4-0.4,0.4-0.8c0-0.3-0.1-0.5-0.3-0.7
					s-0.5-0.3-0.8-0.4c-0.3-0.1-0.7-0.2-1.1-0.2c-0.4-0.1-0.7-0.2-1.1-0.3c-0.3-0.1-0.6-0.4-0.8-0.6c-0.2-0.3-0.3-0.7-0.3-1.2
					c0-0.3,0.1-0.6,0.2-0.9c0.1-0.3,0.3-0.5,0.5-0.7s0.5-0.4,0.9-0.5c0.3-0.1,0.8-0.2,1.2-0.2c0.9,0,1.6,0.2,2.1,0.6
					s0.8,1.1,0.8,1.9h-1.5c0-0.5-0.2-0.8-0.4-1.1c-0.3-0.2-0.6-0.3-1.1-0.3c-0.2,0-0.4,0-0.6,0.1s-0.3,0.1-0.4,0.2
					c-0.1,0.1-0.2,0.2-0.2,0.3s-0.1,0.2-0.1,0.4c0,0.3,0.1,0.5,0.3,0.6s0.5,0.2,0.8,0.3c0.3,0.1,0.7,0.2,1.1,0.3
					c0.4,0.1,0.7,0.2,1.1,0.3c0.3,0.2,0.6,0.4,0.8,0.7c0.2,0.3,0.3,0.7,0.3,1.2c0,0.7-0.2,1.2-0.7,1.6c-0.5,0.4-1.2,0.6-2.2,0.6
					c-1,0-1.8-0.2-2.3-0.6s-0.9-1.1-0.9-2H213.8z"/>
				<path d="M224.7,451.3h2.3v-7.2l-2.2,1.4l-0.7-1.1l3.3-2.2h1.2v9.1h2v1.3h-5.9V451.3z"/>
				<path d="M233.6,449.5c0.1,0.6,0.3,1.1,0.6,1.5s0.8,0.5,1.4,0.5c0.3,0,0.6-0.1,0.9-0.2c0.3-0.1,0.5-0.3,0.7-0.6
					c0.2-0.3,0.4-0.7,0.5-1.3s0.2-1.2,0.2-2.1c-0.2,0.4-0.5,0.8-1,1c-0.4,0.2-1,0.4-1.6,0.4c-0.4,0-0.9-0.1-1.2-0.2s-0.7-0.3-1-0.6
					c-0.3-0.3-0.5-0.6-0.7-1s-0.2-0.9-0.2-1.4c0-0.5,0.1-1,0.2-1.4s0.4-0.8,0.7-1.1c0.3-0.3,0.7-0.5,1.1-0.7s0.9-0.2,1.5-0.2
					c0.6,0,1.1,0.1,1.5,0.3s0.9,0.5,1.2,0.9s0.6,1,0.7,1.6c0.2,0.7,0.3,1.5,0.3,2.4c0,1.8-0.3,3.2-1,4.1c-0.6,0.9-1.6,1.3-2.8,1.3
					c-1,0-1.8-0.3-2.4-0.9c-0.6-0.6-0.9-1.4-1-2.4H233.6z M235.5,447.5c0.6,0,1.1-0.2,1.4-0.5c0.4-0.4,0.5-0.8,0.5-1.4
					c0-0.3,0-0.6-0.1-0.8c-0.1-0.3-0.2-0.5-0.4-0.7s-0.4-0.3-0.6-0.4c-0.2-0.1-0.5-0.2-0.8-0.2c-0.3,0-0.5,0.1-0.8,0.2
					c-0.2,0.1-0.4,0.2-0.6,0.4s-0.3,0.4-0.4,0.7c-0.1,0.3-0.1,0.5-0.1,0.8c0,0.6,0.2,1.1,0.5,1.5S234.9,447.5,235.5,447.5z"/>
				<path d="M243.7,452.8c-0.5,0-1-0.1-1.4-0.3s-0.8-0.5-1.2-0.9s-0.6-1-0.8-1.7c-0.2-0.7-0.3-1.5-0.3-2.4s0.1-1.8,0.3-2.4
					c0.2-0.7,0.5-1.2,0.8-1.7s0.7-0.7,1.2-0.9s0.9-0.3,1.4-0.3c0.5,0,1,0.1,1.4,0.3s0.8,0.5,1.2,0.9s0.6,1,0.8,1.7
					c0.2,0.7,0.3,1.5,0.3,2.4s-0.1,1.8-0.3,2.4c-0.2,0.7-0.5,1.2-0.8,1.7s-0.7,0.7-1.2,0.9S244.2,452.8,243.7,452.8z M243.7,451.5
					c0.3,0,0.5-0.1,0.8-0.2c0.3-0.1,0.5-0.3,0.7-0.6c0.2-0.3,0.3-0.7,0.5-1.2s0.2-1.2,0.2-2s-0.1-1.5-0.2-2
					c-0.1-0.5-0.3-0.9-0.5-1.2c-0.2-0.3-0.4-0.5-0.7-0.6s-0.5-0.2-0.8-0.2c-0.3,0-0.5,0.1-0.8,0.2s-0.5,0.3-0.7,0.6
					c-0.2,0.3-0.3,0.7-0.5,1.2c-0.1,0.5-0.2,1.2-0.2,2s0.1,1.5,0.2,2s0.3,0.9,0.5,1.2c0.2,0.3,0.4,0.5,0.7,0.6
					C243.2,451.4,243.4,451.5,243.7,451.5z"/>
				<path d="M249.7,449.3c0.1,0.7,0.3,1.3,0.7,1.6c0.4,0.4,0.9,0.5,1.6,0.5c0.6,0,1.1-0.2,1.5-0.5c0.3-0.3,0.5-0.7,0.5-1.3
					s-0.2-1-0.5-1.3c-0.3-0.3-0.8-0.5-1.3-0.5h-1.4v-1.2h1c0.5,0,0.9-0.2,1.2-0.5s0.4-0.7,0.4-1.2c0-0.4-0.1-0.8-0.4-1.1
					s-0.7-0.5-1.2-0.5c-0.6,0-1,0.2-1.3,0.5s-0.5,0.9-0.5,1.5h-1.6c0.1-1.1,0.4-1.9,1-2.5c0.6-0.6,1.4-0.8,2.5-0.8
					c0.5,0,1,0.1,1.3,0.2c0.4,0.1,0.7,0.3,1,0.5c0.3,0.2,0.5,0.5,0.6,0.8c0.1,0.3,0.2,0.7,0.2,1.1c0,0.5-0.1,1-0.3,1.3
					c-0.2,0.4-0.5,0.7-1,0.9c0.6,0.2,1,0.6,1.3,1c0.3,0.5,0.5,1,0.5,1.7c0,0.5-0.1,0.9-0.2,1.2s-0.4,0.7-0.7,1
					c-0.3,0.3-0.7,0.5-1.1,0.6c-0.5,0.1-1,0.2-1.6,0.2c-0.6,0-1.2-0.1-1.6-0.2c-0.5-0.2-0.8-0.4-1.1-0.7c-0.3-0.3-0.5-0.7-0.7-1.1
					c-0.2-0.4-0.2-0.9-0.3-1.4H249.7z"/>
			</g>
		</g>
	</g>
	<g>
		<g id="XMLID_3132_">
			<circle id="XMLID_3137_" class="st5" cx="185.9" cy="526.8" r="50"/>
			<circle id="XMLID_3136_" class="st5" cx="185.9" cy="526.8" r="37.5"/>
			<circle id="XMLID_3135_" class="st5" cx="185.9" cy="526.8" r="25"/>
			<circle id="XMLID_3134_" class="st5" cx="185.9" cy="526.8" r="12.5"/>
			<circle id="XMLID_3133_" class="st5" cx="185.9" cy="526.8" r="6.2"/>
		</g>
		<rect id="XMLID_29_" x="101" y="478.7" class="st3" width="25.3" height="11.4"/>
		<g class="st4">
			<path class="st6" d="M106.7,483.1h-1.1v-0.8h1.1v-1.2h0.8v1.2h1.1v0.8h-1.1v1.3h-0.8V483.1z"/>
			<path class="st6" d="M111.1,485.1h0.8v-4.6l-0.8,0.7l-0.4-0.5l1.5-1.6h0.8l0,0l0,0v5.9h0.8v0.8h-2.5V485.1z"/>
			<path class="st6" d="M114.1,481.1c0-1.8,1-2,1.6-2c0.6,0,1.6,0.2,1.6,2v2.8c0,1.8-1.1,2-1.6,2c-0.6,0-1.6-0.2-1.6-2V481.1z
				 M115.8,485.1c0.4,0,0.6-0.2,0.6-0.8v-3.6c0-0.6-0.2-0.8-0.6-0.8c-0.4,0-0.6,0.3-0.6,0.8v3.6
				C115.1,484.9,115.3,485.1,115.8,485.1z"/>
			<path class="st6" d="M118.2,481.1c0-1.8,1-2,1.6-2c0.6,0,1.6,0.2,1.6,2v2.8c0,1.8-1.1,2-1.6,2c-0.6,0-1.6-0.2-1.6-2V481.1z
				 M119.8,485.1c0.4,0,0.6-0.2,0.6-0.8v-3.6c0-0.6-0.2-0.8-0.6-0.8c-0.4,0-0.6,0.3-0.6,0.8v3.6
				C119.2,484.9,119.4,485.1,119.8,485.1z"/>
		</g>
		<rect id="XMLID_28_" x="91.6" y="489.3" class="st3" width="34.7" height="12.2"/>
		<g class="st4">
			<path class="st6" d="M96.8,491.7c0-1.8,1.1-2,1.7-2c1.1,0,1.5,0.6,1.5,1.3c0,0.2,0,0.4-0.1,0.6h-0.8v-0.2c0-0.8-0.2-1-0.6-1
				c-0.4,0-0.7,0.3-0.7,1v1.3c0.2-0.2,0.5-0.4,0.9-0.4c0.6,0,1.3,0.3,1.3,1.6v0.6c0,1.4-0.6,1.9-1.6,1.9c-1.1,0-1.7-0.6-1.7-2V491.7
				z M98.5,495.7c0.4,0,0.6-0.3,0.6-0.9v-1c0-0.6-0.2-0.9-0.6-0.9c-0.3,0-0.5,0.2-0.6,0.4v1.4C97.9,495.4,98.1,495.7,98.5,495.7z"/>
			<path class="st6" d="M100.9,491.6c0-1.8,1-2,1.6-2c0.6,0,1.6,0.2,1.6,2v2.8c0,1.8-1.1,2-1.6,2c-0.6,0-1.6-0.2-1.6-2V491.6z
				 M102.6,495.7c0.4,0,0.6-0.2,0.6-0.8v-3.6c0-0.6-0.2-0.8-0.6-0.8c-0.4,0-0.6,0.3-0.6,0.8v3.6C102,495.4,102.2,495.7,102.6,495.7z
				"/>
			<path class="st6" d="M106.8,492.9h4.4v0.8h-4.4V492.9z"/>
			<path class="st6" d="M117,494.5c0,1.8-1.1,2-1.7,2c-1.1,0-1.5-0.6-1.5-1.3c0-0.2,0-0.4,0.1-0.6h0.8v0.1c0,0.8,0.2,1,0.7,1
				c0.4,0,0.7-0.3,0.7-1v-1.2c-0.2,0.2-0.5,0.4-0.9,0.4c-0.6,0-1.3-0.3-1.3-1.6v-0.6c0-1.4,0.6-1.9,1.6-1.9c1.1,0,1.7,0.5,1.7,2
				V494.5z M115.3,490.4c-0.4,0-0.6,0.3-0.6,0.9v1c0,0.6,0.2,0.9,0.6,0.9c0.3,0,0.5-0.2,0.6-0.4v-1.6
				C116,490.6,115.8,490.4,115.3,490.4z"/>
			<path class="st6" d="M121.1,494.5c0,1.8-1.1,2-1.7,2c-1.1,0-1.5-0.6-1.5-1.3c0-0.2,0-0.4,0.1-0.6h0.8v0.1c0,0.8,0.2,1,0.7,1
				c0.4,0,0.7-0.3,0.7-1v-1.2c-0.2,0.2-0.5,0.4-0.9,0.4c-0.6,0-1.3-0.3-1.3-1.6v-0.6c0-1.4,0.6-1.9,1.6-1.9c1.1,0,1.7,0.5,1.7,2
				V494.5z M119.4,490.4c-0.4,0-0.6,0.3-0.6,0.9v1c0,0.6,0.2,0.9,0.6,0.9c0.3,0,0.5-0.2,0.6-0.4v-1.6
				C120.1,490.6,119.9,490.4,119.4,490.4z"/>
		</g>
		<rect id="XMLID_27_" x="91.6" y="500.9" class="st3" width="34.7" height="8.6"/>
		<g class="st4">
			<path class="st6" d="M96.7,506.3l1.9-4.9h1.2v4.7h0.6v0.8h-0.6v1.2h-0.9v-1.2h-2.2V506.3z M98.9,506v-1l0.1-2.5h-0.1l-1.2,3.5
				H98.9z"/>
			<path class="st6" d="M101,503.2c0-1.8,1-2,1.6-2c0.6,0,1.6,0.2,1.6,2v2.8c0,1.8-1.1,2-1.6,2c-0.6,0-1.6-0.2-1.6-2V503.2z
				 M102.7,507.2c0.4,0,0.6-0.2,0.6-0.8v-3.6c0-0.6-0.2-0.8-0.6-0.8c-0.4,0-0.6,0.3-0.6,0.8v3.6C102.1,507,102.3,507.2,102.7,507.2z
				"/>
			<path class="st6" d="M106.9,504.5h4.4v0.8h-4.4V504.5z"/>
			<path class="st6" d="M114.1,505.8h0.8v0.5c0,0.6,0.2,0.9,0.6,0.9c0.4,0,0.6-0.3,0.6-0.9v-1.3c0-0.7-0.2-0.8-0.6-0.8
				c-0.3,0-0.5,0.2-0.6,0.4h-0.7v-3.4h2.9v0.9h-2v1.6c0.2-0.2,0.6-0.4,0.9-0.4c0.8,0,1.2,0.6,1.2,1.6v1.1c0,1.4-0.8,1.8-1.6,1.8
				c-1,0-1.5-0.6-1.5-1.4C114,506.4,114.1,506.1,114.1,505.8z"/>
			<path class="st6" d="M121.2,506c0,1.8-1.1,2-1.7,2c-1.1,0-1.5-0.6-1.5-1.3c0-0.2,0-0.4,0.1-0.6h0.8v0.1c0,0.8,0.2,1,0.7,1
				c0.4,0,0.7-0.3,0.7-1v-1.2c-0.2,0.2-0.5,0.4-0.9,0.4c-0.6,0-1.3-0.3-1.3-1.6v-0.6c0-1.4,0.6-1.9,1.6-1.9c1.1,0,1.7,0.5,1.7,2V506
				z M119.5,502c-0.4,0-0.6,0.3-0.6,0.9v1c0,0.6,0.2,0.9,0.6,0.9c0.3,0,0.5-0.2,0.6-0.4v-1.6C120.1,502.2,119.9,502,119.5,502z"/>
		</g>
		<rect id="XMLID_26_" x="91.6" y="523" class="st3" width="34.7" height="10.2"/>
		<g class="st4">
			<path class="st6" d="M99.9,529.4h0.8v-4.6l-0.8,0.7l-0.4-0.5l1.5-1.6h0.8l0,0l0,0v5.9h0.8v0.8h-2.5V529.4z"/>
			<path class="st6" d="M104.7,526.7h4.4v0.8h-4.4V526.7z"/>
			<path class="st6" d="M112,529.4h0.8v-4.6l-0.8,0.7l-0.4-0.5l1.5-1.6h0.8l0,0l0,0v5.9h0.8v0.8H112V529.4z"/>
			<path class="st6" d="M118.2,528.2c0,1.8-1.1,2-1.7,2c-1.1,0-1.5-0.6-1.5-1.3c0-0.2,0-0.4,0.1-0.6h0.8v0.1c0,0.8,0.2,1,0.7,1
				c0.4,0,0.7-0.3,0.7-1v-1.2c-0.2,0.2-0.5,0.4-0.9,0.4c-0.6,0-1.3-0.3-1.3-1.6v-0.6c0-1.4,0.6-1.9,1.6-1.9c1.1,0,1.7,0.5,1.7,2
				V528.2z M116.5,524.1c-0.4,0-0.6,0.3-0.6,0.9v1c0,0.6,0.2,0.9,0.6,0.9c0.3,0,0.5-0.2,0.6-0.4v-1.6
				C117.2,524.3,117,524.1,116.5,524.1z"/>
		</g>
		<line id="XMLID_3123_" class="st7" x1="129" y1="483.5" x2="185" y2="483.5"/>
		<line id="XMLID_3122_" class="st7" x1="129" y1="494.5" x2="185" y2="494.5"/>
		<line id="XMLID_3120_" class="st7" x1="129" y1="506.5" x2="185" y2="506.5"/>
		<rect id="XMLID_2_" x="91.6" y="511.9" class="st3" width="34.7" height="8.6"/>
		<g class="st4">
			<path class="st6" d="M96.9,518.4l1.5-2.8c0.5-1,0.7-1.5,0.7-1.8c0-0.5-0.2-0.7-0.6-0.7c-0.5,0-0.7,0.4-0.7,1.1v0.4h-0.8
				c-0.1-0.3-0.1-0.5-0.1-0.8c0-0.7,0.5-1.4,1.5-1.4c1.2,0,1.6,0.6,1.6,1.5c0,0.5-0.2,1-0.7,1.9l-1.3,2.5h1.9v0.8h-3.1V518.4z"/>
			<path class="st6" d="M100.8,514.2c0-1.8,1-2,1.6-2c0.6,0,1.6,0.2,1.6,2v2.8c0,1.8-1.1,2-1.6,2c-0.6,0-1.6-0.2-1.6-2V514.2z
				 M102.5,518.2c0.4,0,0.6-0.2,0.6-0.8v-3.6c0-0.6-0.2-0.8-0.6-0.8c-0.4,0-0.6,0.3-0.6,0.8v3.6C101.9,518,102.1,518.2,102.5,518.2z
				"/>
			<path class="st6" d="M106.7,515.5h4.4v0.8h-4.4V515.5z"/>
			<path class="st6" d="M113.8,516.8h0.8v0.3c0,0.8,0.3,1.1,0.7,1.1c0.4,0,0.6-0.2,0.6-0.8v-0.7c0-0.6-0.2-0.9-0.7-0.9h-0.4v-0.7
				h0.4c0.3,0,0.6-0.2,0.6-0.8v-0.7c0-0.5-0.2-0.7-0.6-0.7c-0.4,0-0.7,0.4-0.7,1.1v0.4h-0.8c-0.1-0.3-0.1-0.5-0.1-0.8
				c0-0.7,0.5-1.4,1.5-1.4c1.1,0,1.6,0.5,1.6,1.5v0.4c0,0.8-0.4,1.2-0.8,1.4v0c0.5,0.2,0.9,0.5,0.9,1.4v0.4c0,1.2-0.8,1.7-1.7,1.7
				c-1,0-1.6-0.5-1.6-1.4C113.7,517.4,113.7,517.1,113.8,516.8z"/>
			<path class="st6" d="M121,517c0,1.8-1.1,2-1.7,2c-1.1,0-1.5-0.6-1.5-1.3c0-0.2,0-0.4,0.1-0.6h0.8v0.1c0,0.8,0.2,1,0.7,1
				c0.4,0,0.7-0.3,0.7-1v-1.2c-0.2,0.2-0.5,0.4-0.9,0.4c-0.6,0-1.3-0.3-1.3-1.6v-0.6c0-1.4,0.6-1.9,1.6-1.9c1.1,0,1.7,0.5,1.7,2V517
				z M119.3,513c-0.4,0-0.6,0.3-0.6,0.9v1c0,0.6,0.2,0.9,0.6,0.9c0.3,0,0.5-0.2,0.6-0.4v-1.6C119.9,513.2,119.7,513,119.3,513z"/>
		</g>
		<line id="XMLID_3110_" class="st7" x1="129" y1="517.5" x2="185" y2="517.5"/>
		<line id="XMLID_3109_" class="st7" x1="129" y1="528.5" x2="185" y2="528.5"/>
	</g>
</g>
<g id="XMLID_565_">
	<g id="XMLID_3678_">
		<polygon id="FRANCE_6_" class="st2" points="734.2,606.9 734.2,606.9 733,593.9 716.1,597.8 697,584.5 695.8,576.6 696.8,575.6 
			700.7,571.8 700.5,565.4 700.2,565.1 704.4,561.2 704.4,561.2 700.5,552.4 689.6,549.8 682.9,536.7 682.9,536.7 694.3,535.6 
			704.3,528 707,517.3 707,517.3 688.1,492.7 688.1,492.7 689.9,490.7 697.4,487.7 697.5,485.8 697.6,484.8 697.9,480.6 
			687.3,467.4 687.3,467.4 689.7,464.8 689.7,464.8 685.6,454.7 669.2,458.6 666.5,456.8 662.3,462.4 662.3,462.4 664.9,466.3 
			657.6,471.8 650.5,471.7 650.5,467.4 657,465.4 659.9,456.6 655.1,454.9 656.2,445.5 670.1,431.4 670.1,431.4 669.1,420.9 
			669.1,420.9 677.6,417 679,415.2 695.8,393.3 695.8,393.3 695.8,393.3 692.8,386 697.4,385 698,384.7 700.5,388.3 709.2,388.4 
			713.2,384.9 715.7,377.2 711.4,370.4 716.3,352.7 714,342.6 719.8,331.5 722.6,309.2 728.3,305.1 739,288.1 726.6,283 
			713.6,283.7 706.6,277 701,276.8 697.9,279.6 690.5,279.8 684.2,275 680.1,275 679.1,278 675.1,278.4 667.8,263.1 659.9,259.8 
			654,257.4 650.6,257.6 641.7,260 635,255 621.8,257.4 616.6,253.7 614.7,248.3 596.6,240.9 596.2,218.1 592,218.1 587.8,227.9 
			577.7,232.2 570.4,229.7 566,229.7 565.5,228.1 569.8,224.9 569.5,213.1 561.7,205.8 549.4,206.4 548.1,208.5 546.5,208.5 
			547,200.8 539.2,195.3 534.9,197.2 530.4,195.2 529.4,183.6 525.5,178.7 517.2,180.7 511.9,183.9 509.5,179.3 507.3,176.8 
			503,174.4 504.5,168.3 500.8,159.3 482.3,164.3 470.2,166.5 460.5,173.8 460.2,204.3 451.2,223.2 440.3,232.1 403.6,244.7 
			397.1,258.7 406.8,263.5 383.9,272.8 376.5,268.6 357.3,265.8 353.3,263.8 347.8,265.2 339.9,253.6 344.1,250.4 342.1,244.6 
			330.9,244.6 326.4,246.8 313.7,240.6 312.8,242.5 317.4,246.1 317.4,260 325.5,274.5 327.9,293.8 325.2,299.5 333.2,309.6 
			326.9,311.7 316.1,311.6 314.8,305.7 309.6,305.4 307.5,307.8 293.5,306.1 277.1,313.1 272.5,309.3 263.9,291.7 241.1,293 
			239.7,301.2 230.1,299.3 227.9,301.7 217.6,297.9 191.8,305.3 188.8,319.5 202.6,318.5 211.8,324.1 198,321.8 194.3,323.7 
			208.6,331 207.7,335.4 190.4,336.2 190.4,339 198.2,340.9 203.9,351.8 203.6,355.2 211.9,355.6 213,351.9 224.4,357.9 239,360.3 
			253.8,373.3 268,380.6 282,383.9 277.1,394.1 291.9,396.6 291.9,402.7 289.4,405.5 296.1,406.8 301.4,410.9 294.1,419.6 
			294,424.9 306.5,446 335.5,461 333.1,467.5 320.6,459.8 315.6,462.9 339.4,476.7 336.5,487.7 332.6,485.7 324.3,475.3 
			323.8,482.9 328.8,486.7 330.4,499.4 350.3,514.8 351.9,523.2 354.1,534.9 352.6,537.3 347.8,520.7 336.7,513.2 335.5,507.3 
			333.1,508.3 332,516.6 325,564.9 330.4,558.1 337.2,566.5 336.7,570.1 328.9,570.1 325,574.4 325,578.1 312.7,630.1 309.4,635.3 
			303.3,642.6 293.9,644.5 293.9,648.4 313,654.7 312.3,661.3 309.6,662.8 315.5,669.3 317.6,664.4 336.1,674.2 340.5,674.3 
			340.7,674.3 343.4,674.3 343.4,674.3 343.4,674.3 343.8,678.9 350.3,684.6 351,685.1 351,685.1 363.7,681.9 370.7,686.6 
			376.7,693 385.8,690 391.7,694.4 397.9,692.8 409.6,694 410,683.1 418.7,686.1 428.4,690 432,696.6 440,696.6 445.1,700.5 
			456.5,699.3 462.1,708.1 469,710.4 469.1,714.1 475.2,716.8 479,713 483.6,713 494.9,720.6 503,720.6 512,711.2 518.8,709.6 
			522.2,712.4 526.3,713.6 526.3,707.8 522.2,703.7 521.2,685.3 521.5,672.6 516.7,669.5 518.5,666.6 522.7,669.7 528,663 
			564.4,640.5 568.5,640.8 570.8,645.4 578.5,645.3 594.6,646.4 591.7,650.5 601.9,654.5 607.7,652.7 605.1,647.8 610.6,648.5 
			614.3,652.8 628.5,652.3 630.7,660.2 645.1,664.1 651.2,670.6 658.6,666.9 666.7,667.7 676.6,666.4 691.3,658.4 690.3,651.8 
			702.6,641 711,635.4 711.3,628.6 716.3,628.2 728.9,619.6 728.9,619.6 729.4,608.4 		"/>
	</g>
	<g id="XMLID_3940_">
		<g id="XMLID_3941_">
			<circle id="Bagnères_de_Luchon_3_" class="st5" cx="396.5" cy="680.5" r="50"/>
			<circle id="Paris_6_" class="st5" cx="490.9" cy="301.5" r="50"/>
			<circle id="Bordeaux_4_" class="st5" cx="354.8" cy="541.8" r="50"/>
			<circle id="Pau_4_" class="st5" cx="356.8" cy="655.4" r="50"/>
			<circle id="Toulouse_4_" class="st5" cx="435.5" cy="638.9" r="37.5"/>
			<circle id="Nantes_3_" class="st5" cx="306.9" cy="396.9" r="37.5"/>
			<circle id="Brest_1_" class="st5" cx="215.7" cy="317.9" r="37.5"/>
			<circle id="Montpellier_4_" class="st5" cx="546.8" cy="635.8" r="37.5"/>
			<circle id="Bayonne_2_" class="st5" cx="311.5" cy="639.5" r="37.5"/>
			<circle id="Marseille_4_" class="st5" cx="622.4" cy="647.4" r="37.5"/>
			<circle id="Briançon_3_" class="st5" cx="677" cy="544.9" r="37.5"/>
			<circle id="Caen_2_" class="st5" cx="364.9" cy="278.8" r="37.5"/>
			<circle id="Perpignan_2_" class="st5" cx="507.8" cy="695.8" r="37.5"/>
			<circle id="Nice_2_" class="st5" cx="723.1" cy="610.6" r="37.5"/>
			<circle id="Grenoble_4_" class="st5" cx="617" cy="515.8" r="37.5"/>
			<circle id="Metz_3_" class="st5" cx="667" cy="289" r="37.5"/>
			<circle id="Rennes" class="st5" cx="319.2" cy="334.2" r="25"/>
			<circle id="Nancy_1_" class="st5" cx="650.8" cy="327.2" r="25"/>
			<circle id="Dijon_1_" class="st5" cx="600.3" cy="399.3" r="25"/>
			<circle id="Lille_2_" class="st5" cx="525.7" cy="189.8" r="25"/>
			<circle id="Lyon_3_" class="st5" cx="595.3" cy="484.3" r="25"/>
			<circle id="Rouen_2_" class="st5" cx="438" cy="265.4" r="25"/>
			<circle id="Besançon_3_" class="st5" cx="657.9" cy="406" r="25"/>
			<circle id="Strasbourg_4_" class="st5" cx="719.4" cy="299.1" r="25"/>
			<circle id="Limoges_1_" class="st5" cx="428.4" cy="476.2" r="12.5"/>
			<circle id="Amiens" class="st5" cx="492" cy="226.1" r="12.5"/>
			<circle id="Clermont-Ferrand" class="st5" cx="525.5" cy="502.4" r="12.5"/>
			<circle id="Orléans" class="st5" cx="479.9" cy="363.7" r="12.5"/>
			<circle id="Poitiers" class="st5" cx="409.4" cy="449.9" r="12.5"/>
			<circle id="Châlons_en_Champagne" class="st5" cx="572.9" cy="295.1" r="12.5"/>
			<circle id="Ajaccio" class="st5" cx="785.6" cy="705.4" r="12.5"/>
		</g>
	</g>
</g>
</svg>
