<svg xmlns="http://www.w3.org/2000/svg" viewBox="0 0 769 801"><defs><style>.cls-1{isolation:isolate;}.cls-2{fill:#ede6d8;}.cls-2,.cls-3{stroke:#fff;}.cls-2,.cls-3,.cls-7{stroke-miterlimit:10;}.cls-3,.cls-7{fill:none;}.cls-4{fill:#fff;}.cls-5,.cls-6{fill:#00a5ac;}.cls-5{opacity:0.2;mix-blend-mode:multiply;}.cls-7{stroke:#00a5ac;}</style></defs><title>cartesTOURFRANCE-departs-arrivees1903</title><g class="cls-1"><g id="Calque_1" data-name="Calque 1"><rect class="cls-2" x="0.94" y="0.5" width="767.34" height="800"/><polygon id="France" class="cls-3" points="655.71 610.72 655.71 610.72 654.48 597.78 637.6 601.6 618.44 588.36 617.23 580.45 618.23 579.47 622.14 575.64 621.98 569.2 621.7 568.9 625.85 565.05 625.85 565.05 621.98 556.28 611.06 553.61 604.41 540.56 604.41 540.56 615.81 539.43 625.72 531.84 628.44 521.14 628.44 521.14 609.61 496.53 609.61 496.53 611.36 494.5 618.84 491.5 618.97 489.63 619.1 488.67 619.33 484.48 608.72 471.25 608.72 471.25 611.15 468.65 611.15 468.65 607.08 458.56 590.63 462.48 587.94 460.62 583.78 466.24 583.78 466.24 586.38 470.17 579.11 475.6 572.01 475.5 571.93 471.28 578.5 469.25 581.32 460.44 576.54 458.69 577.7 449.33 591.54 435.2 591.54 435.2 590.54 424.69 590.54 424.69 599.09 420.83 600.48 419.01 617.36 397.13 617.5 397.13 617.5 397.13 614.38 389.81 618.95 388.86 619.52 388.55 621.99 392.18 630.64 392.23 634.69 388.73 637.16 381.07 632.84 374.24 637.79 356.55 635.44 346.48 641.27 335.35 644.09 313.02 649.8 308.94 660.45 291.93 648.11 286.82 635.09 287.54 628.1 280.86 622.46 280.67 619.36 283.48 611.93 283.63 605.64 278.79 601.54 278.84 600.56 281.79 596.54 282.2 589.31 266.88 581.37 263.62 575.47 261.2 572.02 261.39 563.14 263.79 556.44 258.87 543.28 261.27 538.05 257.49 536.14 252.15 518.09 244.53 517.71 221.5 513.48 221.5 509.22 231.52 499.13 235.92 491.91 233.5 487.45 233.49 486.97 231.95 491.31 228.74 490.96 216.9 483.13 209.61 470.87 210.18 469.55 212.34 468.01 212.32 468.44 204.66 460.67 199.13 456.4 201.03 451.84 199.03 450.85 187.44 446.93 182.57 438.62 184.5 433.33 187.72 430.96 183.1 428.81 180.67 424.44 178.25 426 172.13 422.22 163.1 403.79 168.09 391.65 170.29 381.94 177.64 381.62 208.08 372.66 227.06 361.76 235.94 325.07 248.56 318.61 262.51 328.28 267.36 305.35 276.63 297.93 272.39 278.79 269.67 274.73 267.65 269.22 269 261.34 257.44 265.54 254.3 263.57 248.5 252.41 248.5 247.91 250.62 235.17 244.43 234.28 246.33 238.87 249.94 238.88 263.83 246.94 278.34 249.39 297.63 246.65 303.3 254.66 313.39 248.34 315.56 237.57 315.46 236.3 309.53 231.04 309.27 228.92 311.64 214.97 309.96 198.57 316.94 194.01 313.13 185.41 295.54 162.53 296.83 161.12 304.99 151.6 303.13 149.41 305.53 139.11 301.71 113.22 309.15 110.25 323.34 124.07 322.38 133.24 327.92 119.42 325.64 115.72 327.56 130.03 334.82 129.18 339.28 111.87 340 111.82 342.88 119.71 344.69 125.33 355.67 125.04 359 133.39 359.45 134.51 355.75 145.84 361.77 160.46 364.1 175.28 377.12 189.44 384.46 203.43 387.76 198.61 397.94 213.5 400.45 213.5 406.49 210.88 409.36 217.59 410.63 222.85 414.73 215.57 423.47 215.44 428.72 228 449.85 256.97 464.81 254.61 471.31 242.09 463.65 237.1 466.73 260.9 480.55 257.97 491.49 254.03 489.49 245.81 479.12 245.29 486.78 250.3 490.55 251.85 503.22 271.74 518.6 273.33 527 275.54 538.7 274.05 541.17 269.23 524.5 258.13 517.03 256.92 511.18 254.54 512.09 253.49 520.45 246.42 568.7 251.87 561.93 258.64 570.13 258.13 573.5 250.38 573.5 246.5 578.03 246.42 581.87 234.2 633.88 230.89 639.11 224.77 646.44 215.5 648.36 215.5 652.26 234.5 658.5 233.84 665.13 231.04 666.66 236.97 673.12 239.1 668.21 257.55 678.05 261.93 678.09 262.15 678.09 264.85 678.12 264.85 678.12 264.85 678.12 265.29 682.7 271.78 688.38 272.43 688.95 272.43 688.95 285.21 685.72 292.17 690.45 298.2 696.82 307.25 693.79 313.14 698.21 319.34 696.63 331.08 697.8 331.48 686.98 340.13 689.97 349.83 693.91 353.5 700.5 361.46 700.5 366.6 704.36 377.98 703.12 383.54 711.99 390.51 714.23 390.54 717.94 396.64 720.62 400.44 716.85 405.03 716.82 416.36 724.5 424.45 724.5 433.49 715.02 440.28 713.45 443.66 716.23 447.73 717.47 447.76 711.66 443.72 707.51 442.71 689.13 442.94 676.43 438.14 673.29 439.92 670.42 444.13 673.53 449.45 666.88 485.9 644.3 489.98 644.63 492.24 649.19 499.95 649.15 516.09 650.27 513.15 654.33 523.38 658.32 529.18 656.51 526.61 651.62 532.05 652.37 535.77 656.6 549.94 656.15 552.13 664.02 566.53 667.98 572.68 674.39 580.07 670.71 588.13 671.54 598.05 670.24 612.76 662.21 611.73 655.68 624.09 644.82 632.48 639.22 632.74 632.42 637.79 632.04 650.33 623.39 650.34 623.38 650.86 612.22 655.71 610.72"/><polygon id="Royaume-Uni" class="cls-3" points="208.03 6.52 198.13 8.92 168.13 11.1 154.89 24.47 139.33 36.24 143.07 38.2 161.85 33.62 164.17 58.33 159.65 74.5 122.91 84.24 110.45 93.36 112.36 104.38 121.41 112.78 144.33 106.57 150.49 119.76 167.57 116.2 171.4 126.14 192.24 131.72 199.84 124.17 225.49 112.31 203.41 131.72 198.88 144.44 174.43 141.66 149.67 142.32 134.62 159.42 110.11 187.48 81.94 203.69 103.47 213.7 122.76 194.27 142.64 195.13 167.16 208.94 179.94 184.5 206.39 184.5 213.8 186.67 232.97 183.08 265.99 175.38 284.22 178.83 328.19 183.11 356.65 171.91 375.74 157.43 378.8 141.93 352.57 143.31 335.97 137.42 357 129.97 359.29 120.11 369.4 114.66 385.12 98.45 387.35 86.82 392.28 64.09 377.27 46.61 358.09 43.52 346 41.13 339.03 53.6 328.88 45.8 324.32 45.61 339.17 28.63 334.12 14.96 323.93 0.5 208.23 0.5 208.03 6.52"/><polygon id="Irlande" class="cls-3" points="0.5 78.02 18.01 71.28 41.65 68.37 52.71 64.45 71.25 68.9 90.02 24.95 90.91 9.23 87.53 5.72 84.47 0.5 0.5 0.5 0.5 78.02"/><polygon id="Espagne" class="cls-3" points="440.28 713.43 433.49 715.02 424.45 724.5 416.36 724.5 405.03 716.82 400.44 716.86 396.64 720.63 390.54 717.95 390.51 714.23 383.28 711.69 371.52 715.72 366.54 708.95 366.6 704.36 361.46 700.5 353.5 700.5 349.83 693.91 340.13 689.99 331.48 686.99 331.08 697.8 319.34 696.66 313.14 698.23 307.25 693.8 298.2 696.82 292.18 690.47 285.22 685.72 272.44 688.73 272.43 688.5 272.43 688.5 271.78 688.16 265.29 682.59 264.85 678.06 264.85 678.06 262.15 678.06 261.93 678.08 257.55 678.04 239.09 668.21 236.96 673.12 231.03 666.65 233.81 665.13 234.5 658.5 215.5 652.26 215.5 648.36 202.44 652.02 185.53 648.78 170.98 640.68 158.18 648.2 139.71 636.99 122.17 633.3 105.7 638.26 62.26 630.89 46.67 622.54 22.78 618.04 0.5 617.66 0.5 800.5 367.58 800.5 390.5 793.18 449.86 752 446.1 731.43 453.46 728.97 447.73 717.47 443.66 716.22 440.28 713.43"/><polygon id="Allemagne" class="cls-3" points="605.78 21.55 605.78 21.55 603.45 56.23 602.51 57.48 600.02 60.79 599.76 60.78 599.74 60.8 590.16 60.18 587.34 70.91 598.54 71.48 598.92 73.14 601.87 86.19 588.46 97.42 592.88 105.88 576.45 112.78 576.45 112.78 576.45 112.78 567.65 108.85 559.81 113.37 575.03 139.98 573.55 143.74 572.05 147.56 566.03 162.82 566.6 174.86 566.6 174.86 563.78 181.9 573.82 192.72 573.82 192.72 573.55 193.42 572.15 197.04 577.83 200.69 579.88 208.08 569.87 221.18 567.54 228.7 573.87 236.42 586.9 241.29 588.25 248.2 580.33 259.38 581.37 263.62 589.31 266.88 596.54 282.2 600.56 281.79 601.54 278.84 605.64 278.79 611.93 283.63 619.36 283.48 622.46 280.67 628.1 280.86 635.09 287.54 648.12 286.82 660.45 291.93 649.8 308.94 644.09 313.02 641.27 335.35 635.44 346.48 637.79 356.55 632.84 374.24 637.16 381.07 634.69 388.73 637.3 384.54 654.76 383.76 665.32 378.66 676.22 381.16 677.16 378.92 677.3 378.59 683.1 376.33 675.65 374.54 673.61 372.6 679.49 367.22 685.54 366.09 691.1 371.01 697.38 374.02 704.86 372.53 715.24 373.68 730.12 378.23 732.13 374.58 747.5 386.99 747.5 389.34 747.5 392.85 761.16 382.83 761.94 374.32 768 374.19 768.5 374.19 768.5 0.5 603.79 0.5 594.82 12.77 595.03 13.09 605.78 21.55"/><polygon id="Italie" class="cls-3" points="768.5 423.05 753.01 436.43 750.76 454.56 717.02 450.66 694.75 473.35 681.73 465.31 680.85 451.47 665.94 465.23 669.45 470.35 656.35 488.27 645.51 484.64 633.87 490.74 623 492.15 621.2 491.63 618.97 489.63 618.84 491.5 611.36 494.5 609.61 496.53 628.44 521.14 628.44 521.14 628.44 521.14 625.72 531.84 615.81 539.43 604.41 540.56 611.06 553.61 621.98 556.28 625.85 565.05 625.85 565.05 621.7 568.9 621.98 569.2 622.14 575.64 618.23 579.47 617.23 580.45 618.44 588.36 637.6 601.6 654.48 597.78 655.71 610.72 655.71 610.72 650.86 612.22 650.34 623.38 657.04 625.44 675.55 618.43 691.1 593.5 703.66 581.22 730.87 587.39 767.09 602.83 768.5 604.34 768.5 423.05"/><polygon id="Autriche" class="cls-3" points="761.88 374.32 761.16 382.83 747.5 392.85 747.5 389.34 747.5 386.99 732.13 374.58 730.18 378.23 715.23 373.68 723.8 380.4 728.06 383.61 729.84 388.96 724.18 398.94 737.66 400.99 741.13 413.59 749.87 422.21 760.14 414.5 767.54 414.5 768.5 414.5 768.5 374.19 768.01 374.19 761.88 374.32"/><polygon id="Liechtenstein" class="cls-3" points="741.13 413.59 737.66 400.99 724.18 398.94 726.69 410.62 741.13 413.59"/><polygon id="Pays-Bas" class="cls-3" points="490.95 144.68 503.78 138.27 513.05 141.15 524.4 138.27 531.4 150.34 540.13 149.06 540.13 149.06 540.13 149.06 556.53 157.09 551.23 182.82 563.78 181.9 563.78 181.9 563.78 181.9 563.78 181.9 566.6 174.86 566.6 174.86 566.03 162.82 572.05 147.56 573.55 143.74 575.03 139.98 559.81 113.37 567.65 108.85 567.65 108.85 576.45 112.78 576.45 112.78 592.88 105.88 588.46 97.42 601.87 86.19 598.92 73.14 598.54 71.48 587.34 70.91 590.16 60.18 590.17 60.17 599.76 60.78 600.02 60.79 602.51 57.48 603.45 56.23 605.78 21.55 605.78 21.55 595.03 13.24 594.82 13.07 594.36 12.72 591.24 10.31 581.52 11.04 560.38 14.52 539.48 22.98 534.51 35.59 518.04 48.29 515.06 43.52 509.3 42.49 501.09 84.24 487.17 104.32 471.73 121.17 458.69 134.26 462.72 141.68 479.23 145.55 490.95 144.68"/><polygon id="Belgique" class="cls-3" points="424.45 178.25 428.81 180.67 430.96 183.1 433.33 187.72 438.62 184.5 446.93 182.57 450.85 187.44 451.84 199.03 456.4 201.03 460.67 199.13 468.44 204.66 468.01 212.32 469.55 212.34 470.87 210.18 483.13 209.62 490.96 216.9 491.31 228.75 486.97 231.96 487.45 233.51 491.91 233.55 499.13 236.03 509.22 231.52 513.48 221.5 517.71 221.5 518.09 244.53 536.14 252.05 538.05 257.43 543.28 261.24 556.44 258.86 560.37 256.55 559.9 253.9 553.51 237.09 564.74 218.19 569.87 221.18 579.88 208.08 577.83 200.69 572.15 197.04 573.54 193.42 573.81 192.72 563.78 181.9 563.78 181.9 551.23 182.82 551.23 182.82 556.53 157.09 540.13 149.06 540.13 149.06 531.4 150.34 524.4 138.27 513.05 141.15 503.78 138.27 490.95 144.68 479.23 145.55 462.72 141.68 449.24 145.3 418.5 161.09 418.5 164.17 422.35 163.1 426.06 172.13 424.45 178.25"/><polygon id="Luxembourg" class="cls-3" points="588.25 248.2 586.9 241.29 573.87 236.42 567.54 228.7 569.87 221.18 564.74 218.19 553.51 237.09 559.9 253.9 560.37 256.56 556.44 258.87 563.14 263.79 572.02 261.39 575.47 261.2 581.37 263.62 580.33 259.38 588.25 248.2"/><polygon id="Suisse" class="cls-3" points="760.14 414.5 749.87 422.21 741.13 413.48 726.69 410.57 724.18 398.94 729.84 388.96 728.05 383.61 723.8 380.4 715.24 373.68 704.86 372.53 697.38 374.02 691.1 371.01 685.54 366.09 679.49 367.22 673.61 372.6 675.65 374.53 683.1 376.32 677.3 378.59 677.16 378.9 676.22 381.13 665.32 378.66 654.76 383.76 637.3 384.32 634.34 388.5 633.95 388.5 630.63 392.01 621.98 392.07 619.49 388.49 618.88 388.83 614.38 389.81 617.5 397.12 617.5 397.13 617.5 397.13 617.36 397.13 617.3 397.13 600.52 419.01 599.11 420.83 590.55 424.84 591.55 435.5 591.55 435.5 591.54 435.5 577.71 449.49 576.54 458.77 581.32 460.48 578.5 469.27 571.94 471.29 572.01 475.51 579.11 475.6 586.38 470.18 583.78 466.24 583.78 466.24 583.78 466.24 587.94 460.62 590.63 462.48 607.08 458.55 611.15 468.65 611.15 468.65 611.15 468.65 608.72 471.25 619.33 484.48 619.1 488.67 618.97 489.63 621.2 491.63 623 492.15 633.87 490.74 645.5 484.64 656.35 488.27 656.35 488.27 669.43 470.35 665.93 465.23 680.84 451.47 681.73 465.31 694.72 473.35 716.96 450.66 750.7 454.56 753.01 436.43 768.5 423.05 768.5 414.5 767.54 414.5 760.14 414.5"/><polygon id="France-2" data-name="France" class="cls-4" points="732.13 654.34 724.87 654.57 722.41 659.97 708.14 665.52 702.98 678.41 701.21 680.81 707.09 684.58 707.32 686.32 701.6 687.61 703.09 694.85 709.62 696.86 710.04 700.82 705.62 705.37 706.22 709.3 712.68 709.88 714.3 714 709.88 719.85 721.45 721.69 714.84 728.9 720.94 733.75 730.51 736.67 733.27 739.85 738.81 741.36 743.98 725.85 745.17 714.47 744.49 708.02 744.41 701.54 749.72 694.15 749.83 681.89 747.7 677.7 747.14 664.56 742.8 659.93 742.41 651.81 743.78 648.1 741.03 637.35 739.04 633.82 734.86 637.09 736.75 650.24 735.37 656.12 732.13 654.34"/><polygon id="Andorre" class="cls-3" points="371.52 715.71 383.28 711.69 377.98 703.11 366.6 704.33 366.54 708.95 371.52 715.71"/><polygon id="Monaco" class="cls-3" points="632.48 639.22 632.48 639.22 641.42 639.48 637.79 632.04 632.74 632.42 632.48 639.22"/><rect class="cls-4" x="0.5" y="411.53" width="189.1" height="191.26"/><path d="M17.69,429.46h2.07l4.65,8.21v-8.21H26v10.36h-2l-4.67-8.3v8.3H17.69Z"/><path d="M31.74,440a4,4,0,0,1-1.54-.28,3.23,3.23,0,0,1-1.18-.79,3.68,3.68,0,0,1-.75-1.22,5,5,0,0,1,0-3.18,3.63,3.63,0,0,1,.75-1.23,3.36,3.36,0,0,1,1.18-.79,4.18,4.18,0,0,1,1.54-.28,4.24,4.24,0,0,1,1.55.28,3.36,3.36,0,0,1,1.18.79,3.5,3.5,0,0,1,.76,1.23,5,5,0,0,1,0,3.18,3.55,3.55,0,0,1-.76,1.22,3.23,3.23,0,0,1-1.18.79A4,4,0,0,1,31.74,440Zm0-1.16a2,2,0,0,0,1.64-.74,3.63,3.63,0,0,0,0-4,2.2,2.2,0,0,0-3.27,0,3.63,3.63,0,0,0,0,4A2,2,0,0,0,31.74,438.8Z"/><path d="M37.42,432.33h1.5v1.18h0a2.72,2.72,0,0,1,.84-1,2.24,2.24,0,0,1,1.34-.36,2.35,2.35,0,0,1,1.38.36,2.06,2.06,0,0,1,.75,1h0a2.75,2.75,0,0,1,.93-1,2.53,2.53,0,0,1,1.4-.36,2.14,2.14,0,0,1,1.79.7,3.19,3.19,0,0,1,.56,2v4.9H46.47v-4.49a2.4,2.4,0,0,0-.33-1.41,1.14,1.14,0,0,0-1-.44,1.67,1.67,0,0,0-1.23.48,2,2,0,0,0-.48,1.47v4.39H42v-4.49a2.84,2.84,0,0,0-.28-1.39,1.09,1.09,0,0,0-1-.46,1.57,1.57,0,0,0-1.29.55,2.29,2.29,0,0,0-.45,1.51v4.28h-1.5Z"/><path d="M50.34,429.46h1.5v4h0a3,3,0,0,1,.92-.94,2.72,2.72,0,0,1,1.49-.36,3,3,0,0,1,1.39.3,2.85,2.85,0,0,1,1,.8,3.58,3.58,0,0,1,.61,1.22,6,6,0,0,1,.2,1.56,5.2,5.2,0,0,1-.22,1.58,3.7,3.7,0,0,1-.62,1.24,2.75,2.75,0,0,1-1,.79,3.12,3.12,0,0,1-1.36.28,2.71,2.71,0,0,1-1.47-.36,2.82,2.82,0,0,1-.93-1h0v1.2h-1.5Zm3.52,9.36a1.84,1.84,0,0,0,1.52-.71,3.24,3.24,0,0,0,.56-2,3.29,3.29,0,0,0-.54-2,1.83,1.83,0,0,0-1.56-.72,1.69,1.69,0,0,0-1.53.73,3.65,3.65,0,0,0-.48,2,3.6,3.6,0,0,0,.48,2A1.76,1.76,0,0,0,53.86,438.82Z"/><path d="M59.4,432.33h1.5v1.16h0a2.87,2.87,0,0,1,.87-.95,2.1,2.1,0,0,1,1.23-.35h.21l.22,0v1.56l-.3-.07a2,2,0,0,0-.35,0,1.84,1.84,0,0,0-1.38.53,2.06,2.06,0,0,0-.52,1.5v4.1H59.4Z"/><path d="M71.33,437.26a3.08,3.08,0,0,1-.28,1.09,2.6,2.6,0,0,1-.66.85,3.24,3.24,0,0,1-1,.56,4.16,4.16,0,0,1-1.32.2,4,4,0,0,1-1.59-.28,2.82,2.82,0,0,1-1.09-.79,3.15,3.15,0,0,1-.63-1.22,5.67,5.67,0,0,1-.21-1.59,5.25,5.25,0,0,1,.22-1.58,3.17,3.17,0,0,1,.66-1.23,2.94,2.94,0,0,1,1.09-.8,4,4,0,0,1,1.53-.28,3.81,3.81,0,0,1,1.51.27,2.61,2.61,0,0,1,1,.77,3.08,3.08,0,0,1,.58,1.22,6.69,6.69,0,0,1,.18,1.62v.24H66.06a2.94,2.94,0,0,0,.54,1.84,1.73,1.73,0,0,0,1.39.61,2,2,0,0,0,1.28-.39,1.55,1.55,0,0,0,.57-1.11Zm-1.47-1.93a2.3,2.3,0,0,0-.48-1.41,1.63,1.63,0,0,0-1.33-.55,1.85,1.85,0,0,0-1.34.48,2.31,2.31,0,0,0-.62,1.48Z"/><path d="M82.76,438.62h0a3.05,3.05,0,0,1-.92,1,2.59,2.59,0,0,1-1.49.37,3.27,3.27,0,0,1-1.38-.28,2.68,2.68,0,0,1-1-.81,3.37,3.37,0,0,1-.6-1.23,5.37,5.37,0,0,1-.2-1.54,5.67,5.67,0,0,1,.2-1.59,3.56,3.56,0,0,1,.62-1.23,2.79,2.79,0,0,1,1-.8,3.12,3.12,0,0,1,1.36-.29,2.67,2.67,0,0,1,1.47.36,3.09,3.09,0,0,1,.93.94h0v-4h1.49v10.36H82.76Zm-2,.2a1.71,1.71,0,0,0,1.54-.72,3.66,3.66,0,0,0,.48-2,3.46,3.46,0,0,0-.49-2,1.73,1.73,0,0,0-1.54-.72,1.82,1.82,0,0,0-1.52.72,3.18,3.18,0,0,0-.56,2,3.28,3.28,0,0,0,.54,2A1.84,1.84,0,0,0,80.75,438.82Z"/><path d="M93,437.26a3.08,3.08,0,0,1-.28,1.09,2.6,2.6,0,0,1-.66.85,3.24,3.24,0,0,1-1,.56,4.16,4.16,0,0,1-1.32.2,4,4,0,0,1-1.59-.28,2.82,2.82,0,0,1-1.09-.79,3.31,3.31,0,0,1-.64-1.22,6.07,6.07,0,0,1-.2-1.59,5.58,5.58,0,0,1,.22-1.58,3.29,3.29,0,0,1,.65-1.23,3.07,3.07,0,0,1,1.1-.8,4,4,0,0,1,1.53-.28,3.81,3.81,0,0,1,1.51.27,2.61,2.61,0,0,1,1,.77,3.08,3.08,0,0,1,.58,1.22,6.69,6.69,0,0,1,.18,1.62v.24H87.71a2.94,2.94,0,0,0,.54,1.84,1.73,1.73,0,0,0,1.39.61,2,2,0,0,0,1.28-.39,1.55,1.55,0,0,0,.57-1.11Zm-1.47-1.93a2.3,2.3,0,0,0-.48-1.41,1.63,1.63,0,0,0-1.33-.55,1.85,1.85,0,0,0-1.34.48,2.31,2.31,0,0,0-.62,1.48Z"/><path d="M104.41,438.62h0a3.05,3.05,0,0,1-.92,1A2.61,2.61,0,0,1,102,440a3.27,3.27,0,0,1-1.38-.28,2.77,2.77,0,0,1-1-.81,3.37,3.37,0,0,1-.6-1.23,5.36,5.36,0,0,1-.21-1.54,5.67,5.67,0,0,1,.21-1.59,3.56,3.56,0,0,1,.62-1.23,2.79,2.79,0,0,1,1-.8,3.12,3.12,0,0,1,1.36-.29,2.67,2.67,0,0,1,1.47.36,3.09,3.09,0,0,1,.93.94h0v-4h1.49v10.36h-1.49Zm-2,.2a1.71,1.71,0,0,0,1.54-.72,3.66,3.66,0,0,0,.48-2,3.46,3.46,0,0,0-.49-2,1.73,1.73,0,0,0-1.54-.72,1.82,1.82,0,0,0-1.52.72,3.18,3.18,0,0,0-.56,2,3.28,3.28,0,0,0,.54,2A1.84,1.84,0,0,0,102.4,438.82Z"/><path d="M114.63,437.26a3.08,3.08,0,0,1-.28,1.09,2.6,2.6,0,0,1-.66.85,3.24,3.24,0,0,1-1,.56,4.16,4.16,0,0,1-1.32.2,4,4,0,0,1-1.59-.28,2.82,2.82,0,0,1-1.09-.79,3.31,3.31,0,0,1-.64-1.22,6.07,6.07,0,0,1-.2-1.59,5.25,5.25,0,0,1,.22-1.58,3.29,3.29,0,0,1,.65-1.23,3.07,3.07,0,0,1,1.1-.8,3.94,3.94,0,0,1,1.53-.28,3.81,3.81,0,0,1,1.51.27,2.61,2.61,0,0,1,1,.77,3.22,3.22,0,0,1,.58,1.22,6.69,6.69,0,0,1,.18,1.62v.24h-5.28a2.94,2.94,0,0,0,.54,1.84,1.73,1.73,0,0,0,1.39.61,2,2,0,0,0,1.28-.39,1.58,1.58,0,0,0,.57-1.11Zm-1.47-1.93a2.3,2.3,0,0,0-.48-1.41,1.63,1.63,0,0,0-1.33-.55,1.85,1.85,0,0,0-1.34.48,2.31,2.31,0,0,0-.62,1.48Zm-1-5.87H114l-2.08,2h-1.17Z"/><path d="M116.75,432.33h1.49v1.16h0a3,3,0,0,1,.92-.94,2.74,2.74,0,0,1,1.49-.36,3,3,0,0,1,1.39.3,2.79,2.79,0,0,1,1,.8,3.76,3.76,0,0,1,.6,1.22,5.84,5.84,0,0,1,0,3.14,3.91,3.91,0,0,1-.63,1.24,2.66,2.66,0,0,1-1,.79,3.12,3.12,0,0,1-1.36.28,2.65,2.65,0,0,1-1.46-.36,3,3,0,0,1-.94-1h0v3.93h-1.49Zm3.51,6.49a1.84,1.84,0,0,0,1.52-.71,3.18,3.18,0,0,0,.56-2,3.29,3.29,0,0,0-.54-2,1.82,1.82,0,0,0-1.55-.72,1.7,1.7,0,0,0-1.54.73,3.65,3.65,0,0,0-.48,2,3.51,3.51,0,0,0,.49,2A1.74,1.74,0,0,0,120.26,438.82Z"/><path d="M130.16,438.77h0a2.79,2.79,0,0,1-1,.86,3.45,3.45,0,0,1-1.58.33,3,3,0,0,1-1-.16,2.09,2.09,0,0,1-.73-.42,1.71,1.71,0,0,1-.44-.63,2,2,0,0,1-.15-.77,2,2,0,0,1,.36-1.27,2.31,2.31,0,0,1,.92-.67,4.58,4.58,0,0,1,1.21-.33l1.24-.2.67-.12a1.46,1.46,0,0,0,.38-.14.42.42,0,0,0,.18-.22,1.32,1.32,0,0,0,0-.32,1.27,1.27,0,0,0-.39-1,1.64,1.64,0,0,0-1.15-.37,1.87,1.87,0,0,0-1.17.33,1.44,1.44,0,0,0-.48,1.07h-1.45a3,3,0,0,1,.84-1.9,3.18,3.18,0,0,1,2.27-.69,2.65,2.65,0,0,1,3,3v4.63h-1.5Zm0-2.6a10.89,10.89,0,0,1-1.19.24,10.81,10.81,0,0,0-1.15.21,2.34,2.34,0,0,0-.84.39.85.85,0,0,0-.33.73.92.92,0,0,0,.37.78,1.49,1.49,0,0,0,1,.3,2.75,2.75,0,0,0,.88-.14,2.36,2.36,0,0,0,.69-.4,1.91,1.91,0,0,0,.45-.63,2,2,0,0,0,.16-.82Z"/><path d="M134,432.33h1.49v1.16h0a2.85,2.85,0,0,1,.86-.95,2.1,2.1,0,0,1,1.23-.35h.22l.21,0v1.56a1.77,1.77,0,0,0-.29-.07,2.07,2.07,0,0,0-.35,0,1.88,1.88,0,0,0-1.39.53,2.1,2.1,0,0,0-.52,1.5v4.1H134Z"/><path d="M139.6,433.57h-1v-1.24h1V430.4h1.5v1.93h1.75v1.24H141.1v3.93a1.1,1.1,0,0,0,.26.83,1.13,1.13,0,0,0,.8.26l.35,0,.38-.05v1.33l-.46.07a2.93,2.93,0,0,1-.53,0,2.41,2.41,0,0,1-1.69-.56,2.35,2.35,0,0,1-.61-1.82Z"/><path d="M145.44,437.38a1.43,1.43,0,0,0,.56,1.14,2.25,2.25,0,0,0,1.23.31,1.8,1.8,0,0,0,1-.25.87.87,0,0,0,.37-.76.75.75,0,0,0-.33-.66,2.7,2.7,0,0,0-.82-.35l-1.06-.24a5,5,0,0,1-1.05-.33,2.18,2.18,0,0,1-.83-.64,1.85,1.85,0,0,1-.32-1.15,2.17,2.17,0,0,1,.17-.89,1.88,1.88,0,0,1,.53-.72,2.41,2.41,0,0,1,.87-.47,3.8,3.8,0,0,1,1.23-.18,3.22,3.22,0,0,1,2.14.65,2.48,2.48,0,0,1,.81,1.89h-1.45a1.45,1.45,0,0,0-.44-1.06,1.58,1.58,0,0,0-1.06-.33,2.22,2.22,0,0,0-.62.08,1.11,1.11,0,0,0-.4.23,1.15,1.15,0,0,0-.21.33,1.24,1.24,0,0,0-.06.37.69.69,0,0,0,.33.62,3,3,0,0,0,.81.34c.32.09.68.17,1.06.25a5.07,5.07,0,0,1,1.06.35,2.11,2.11,0,0,1,.8.65,1.88,1.88,0,0,1,.33,1.16,2,2,0,0,1-.73,1.63,3.35,3.35,0,0,1-2.19.61,3.85,3.85,0,0,1-2.32-.62,2.46,2.46,0,0,1-.9-2Z"/><path d="M23.91,454.06a3.08,3.08,0,0,1-.28,1.09A2.6,2.6,0,0,1,23,456a3.24,3.24,0,0,1-1,.56,4.16,4.16,0,0,1-1.32.2,4,4,0,0,1-1.59-.28,2.82,2.82,0,0,1-1.09-.79,3.31,3.31,0,0,1-.64-1.22,6.07,6.07,0,0,1-.2-1.59,5.58,5.58,0,0,1,.22-1.58,3.29,3.29,0,0,1,.65-1.23,3.07,3.07,0,0,1,1.1-.8,3.94,3.94,0,0,1,1.53-.28,3.81,3.81,0,0,1,1.51.27,2.61,2.61,0,0,1,1,.77,3.08,3.08,0,0,1,.58,1.22,6.69,6.69,0,0,1,.18,1.62v.24H18.64a2.94,2.94,0,0,0,.54,1.84,1.73,1.73,0,0,0,1.39.61,2,2,0,0,0,1.28-.39,1.55,1.55,0,0,0,.57-1.11Zm-1.47-1.93a2.3,2.3,0,0,0-.48-1.41,1.63,1.63,0,0,0-1.33-.55,1.85,1.85,0,0,0-1.34.48,2.31,2.31,0,0,0-.62,1.48Z"/><path d="M26.07,450.37H25v-1.24h1.05V447.2h1.49v1.93h1.75v1.24H27.56v3.93a1.1,1.1,0,0,0,.27.83,1.13,1.13,0,0,0,.8.26l.35,0,.38-.05v1.33l-.46.07a3,3,0,0,1-.54,0,2.38,2.38,0,0,1-1.68-.56,2.35,2.35,0,0,1-.61-1.82Z"/><path d="M39.49,455.57h0a2.79,2.79,0,0,1-1,.86,3.46,3.46,0,0,1-1.59.33,3,3,0,0,1-1-.16,2,2,0,0,1-.73-.42,1.6,1.6,0,0,1-.44-.63,2.07,2.07,0,0,1-.15-.77,2,2,0,0,1,.36-1.27,2.43,2.43,0,0,1,.92-.68,5,5,0,0,1,1.21-.32l1.23-.2.67-.12a1.55,1.55,0,0,0,.39-.14.42.42,0,0,0,.18-.22,1.32,1.32,0,0,0,0-.32,1.27,1.27,0,0,0-.39-1,1.64,1.64,0,0,0-1.15-.37,1.85,1.85,0,0,0-1.17.33,1.48,1.48,0,0,0-.49,1.07H34.85a2.92,2.92,0,0,1,.84-1.9A3.18,3.18,0,0,1,38,449a2.63,2.63,0,0,1,3,3v4.63H39.49Zm0-2.61a8.78,8.78,0,0,1-1.2.25,11.09,11.09,0,0,0-1.14.21,2.39,2.39,0,0,0-.85.39.87.87,0,0,0-.32.73.92.92,0,0,0,.37.78,1.49,1.49,0,0,0,1,.3,2.65,2.65,0,0,0,.87-.14,2.12,2.12,0,0,0,.69-.4,1.8,1.8,0,0,0,.46-.63,2,2,0,0,0,.16-.82Z"/><path d="M43.27,449.13h1.5v1.16h0a3,3,0,0,1,.86-1,2.17,2.17,0,0,1,1.23-.34h.22a.86.86,0,0,1,.21,0v1.56a1.77,1.77,0,0,0-.29-.07,2.07,2.07,0,0,0-.35,0,1.88,1.88,0,0,0-1.39.53,2.06,2.06,0,0,0-.52,1.5v4.1h-1.5Z"/><path d="M48.89,449.13h1.49v1.16h0a3,3,0,0,1,.86-1A2.17,2.17,0,0,1,52.5,449h.22a.79.79,0,0,1,.21,0v1.56a1.77,1.77,0,0,0-.29-.07,2,2,0,0,0-.35,0,1.88,1.88,0,0,0-1.39.53,2.1,2.1,0,0,0-.52,1.5v4.1H48.89Z"/><path d="M55.24,447.82a.92.92,0,0,1-1-.95,1,1,0,0,1,.26-.7.9.9,0,0,1,.69-.27,1,1,0,0,1,.69.27,1,1,0,0,1,.28.7.91.91,0,0,1-.28.67A.94.94,0,0,1,55.24,447.82Zm-.74,1.31H56v7.49H54.5Z"/><path d="M57.44,449.13H59l2,5.78,2-5.78h1.57l-2.87,7.49H60.31Z"/><path d="M72.42,454.06a3.09,3.09,0,0,1-.29,1.09,2.47,2.47,0,0,1-.66.85,3,3,0,0,1-1,.56,4.07,4.07,0,0,1-1.32.2,4,4,0,0,1-1.58-.28,2.82,2.82,0,0,1-1.09-.79,3.31,3.31,0,0,1-.64-1.22,6.07,6.07,0,0,1-.2-1.59,5.25,5.25,0,0,1,.22-1.58,3.29,3.29,0,0,1,.65-1.23,3.07,3.07,0,0,1,1.1-.8,3.94,3.94,0,0,1,1.53-.28,3.72,3.72,0,0,1,1.5.27,2.57,2.57,0,0,1,1,.77,3.22,3.22,0,0,1,.58,1.22,6.69,6.69,0,0,1,.18,1.62v.24H67.15a2.94,2.94,0,0,0,.54,1.84,1.73,1.73,0,0,0,1.39.61,2,2,0,0,0,1.27-.39,1.55,1.55,0,0,0,.58-1.11ZM71,452.13a2.25,2.25,0,0,0-.49-1.41,1.6,1.6,0,0,0-1.32-.55,1.89,1.89,0,0,0-1.35.48,2.36,2.36,0,0,0-.61,1.48Zm-1-5.87h1.83l-2.08,2H68.5Z"/><path d="M80.85,454.06a3.08,3.08,0,0,1-.28,1.09,2.6,2.6,0,0,1-.66.85,3.13,3.13,0,0,1-1,.56,4.16,4.16,0,0,1-1.32.2,4,4,0,0,1-1.58-.28,2.85,2.85,0,0,1-1.1-.79,3.15,3.15,0,0,1-.63-1.22,5.67,5.67,0,0,1-.2-1.59,5.59,5.59,0,0,1,.21-1.58,3.31,3.31,0,0,1,.66-1.23,3,3,0,0,1,1.09-.8,4,4,0,0,1,1.54-.28,3.76,3.76,0,0,1,1.5.27,2.54,2.54,0,0,1,1,.77,3.08,3.08,0,0,1,.58,1.22,6.69,6.69,0,0,1,.18,1.62v.24H75.59a2.94,2.94,0,0,0,.53,1.84,1.75,1.75,0,0,0,1.39.61,2,2,0,0,0,1.28-.39,1.55,1.55,0,0,0,.58-1.11Zm-1.47-1.93a2.3,2.3,0,0,0-.48-1.41,1.61,1.61,0,0,0-1.32-.55,1.89,1.89,0,0,0-1.35.48,2.36,2.36,0,0,0-.62,1.48Z"/><path d="M83.91,454.17a1.38,1.38,0,0,0,.56,1.15,2.22,2.22,0,0,0,1.23.31,1.78,1.78,0,0,0,1-.25.85.85,0,0,0,.37-.76.75.75,0,0,0-.33-.66,2.7,2.7,0,0,0-.82-.35l-1-.24a5,5,0,0,1-1.06-.33,2.15,2.15,0,0,1-.82-.64,1.81,1.81,0,0,1-.33-1.15,2.35,2.35,0,0,1,.17-.89,2,2,0,0,1,.53-.72,2.46,2.46,0,0,1,.88-.47,3.69,3.69,0,0,1,1.22-.18,3.22,3.22,0,0,1,2.14.65,2.48,2.48,0,0,1,.82,1.89H87a1.41,1.41,0,0,0-.44-1.06,1.58,1.58,0,0,0-1.06-.33,2.1,2.1,0,0,0-.61.08,1,1,0,0,0-.4.23.84.84,0,0,0-.21.33,1,1,0,0,0-.07.37.69.69,0,0,0,.33.62,3,3,0,0,0,.82.34c.32.09.67.17,1.05.25a4.88,4.88,0,0,1,1.06.35,2.22,2.22,0,0,1,.81.65,1.88,1.88,0,0,1,.33,1.16,2,2,0,0,1-.74,1.63,3.35,3.35,0,0,1-2.19.61,3.8,3.8,0,0,1-2.31-.62,2.45,2.45,0,0,1-.91-2Z"/><path d="M99.87,455.42h0a3.05,3.05,0,0,1-.92,1,2.59,2.59,0,0,1-1.49.37,3.27,3.27,0,0,1-1.38-.28,2.77,2.77,0,0,1-1-.81,3.37,3.37,0,0,1-.6-1.23,5.37,5.37,0,0,1-.2-1.54,6.07,6.07,0,0,1,.2-1.59,3.56,3.56,0,0,1,.62-1.23,2.79,2.79,0,0,1,1-.8,3.12,3.12,0,0,1,1.36-.29,2.67,2.67,0,0,1,1.47.36,3,3,0,0,1,.93.94h0v-4h1.5v10.36h-1.5Zm-2,.2a1.71,1.71,0,0,0,1.53-.72,3.66,3.66,0,0,0,.48-2,3.46,3.46,0,0,0-.49-2,1.73,1.73,0,0,0-1.54-.72,1.82,1.82,0,0,0-1.52.72,3.18,3.18,0,0,0-.56,2,3.28,3.28,0,0,0,.54,2A1.86,1.86,0,0,0,97.87,455.62Z"/><path d="M110.09,454.06a3.08,3.08,0,0,1-.28,1.09,2.6,2.6,0,0,1-.66.85,3.24,3.24,0,0,1-1,.56,4.16,4.16,0,0,1-1.32.2,4,4,0,0,1-1.59-.28,2.82,2.82,0,0,1-1.09-.79,3.15,3.15,0,0,1-.63-1.22,5.67,5.67,0,0,1-.21-1.59,5.25,5.25,0,0,1,.22-1.58,3.17,3.17,0,0,1,.66-1.23,2.94,2.94,0,0,1,1.09-.8,4,4,0,0,1,1.53-.28,3.81,3.81,0,0,1,1.51.27,2.61,2.61,0,0,1,1,.77,3.08,3.08,0,0,1,.58,1.22,6.69,6.69,0,0,1,.18,1.62v.24h-5.28a2.94,2.94,0,0,0,.54,1.84,1.73,1.73,0,0,0,1.39.61,2,2,0,0,0,1.28-.39,1.58,1.58,0,0,0,.57-1.11Zm-1.47-1.93a2.3,2.3,0,0,0-.48-1.41,1.63,1.63,0,0,0-1.33-.55,1.85,1.85,0,0,0-1.34.48,2.31,2.31,0,0,0-.62,1.48Z"/><path d="M112.21,449.13h1.49v1.16h0a3,3,0,0,1,.92-.94,2.74,2.74,0,0,1,1.49-.36,3.07,3.07,0,0,1,1.4.3,2.85,2.85,0,0,1,1,.8,3.57,3.57,0,0,1,.6,1.22,5.84,5.84,0,0,1,0,3.14,3.91,3.91,0,0,1-.63,1.24,2.66,2.66,0,0,1-1,.79,3.12,3.12,0,0,1-1.36.28,2.68,2.68,0,0,1-1.46-.36,3,3,0,0,1-.94-1h0v3.93h-1.49Zm3.51,6.49a1.87,1.87,0,0,0,1.53-.71,3.24,3.24,0,0,0,.56-2,3.29,3.29,0,0,0-.55-2,1.82,1.82,0,0,0-1.55-.72,1.7,1.7,0,0,0-1.54.73,3.65,3.65,0,0,0-.48,2,3.51,3.51,0,0,0,.49,2A1.74,1.74,0,0,0,115.72,455.62Z"/><path d="M121.26,449.13h1.5v4.5a2.47,2.47,0,0,0,.31,1.38,1.18,1.18,0,0,0,1.08.46,1.75,1.75,0,0,0,1.38-.55,2.13,2.13,0,0,0,.51-1.5v-4.29h1.5v7.49H126v-1.2h0a3,3,0,0,1-.91,1,2.58,2.58,0,0,1-1.44.36,2.21,2.21,0,0,1-1.85-.71,3.3,3.3,0,0,1-.55-2Z"/><path d="M130.68,447.82a.9.9,0,0,1-.69-.28.94.94,0,0,1-.26-.67,1,1,0,0,1,.26-.7.9.9,0,0,1,.69-.27,1,1,0,0,1,.69.27,1,1,0,0,1,.28.7.91.91,0,0,1-.28.67A.94.94,0,0,1,130.68,447.82Zm-.74,1.31h1.5v7.49h-1.5Z"/><path d="M134.78,454.17a1.41,1.41,0,0,0,.56,1.15,2.25,2.25,0,0,0,1.23.31,1.82,1.82,0,0,0,1-.25.87.87,0,0,0,.36-.76.75.75,0,0,0-.33-.66,2.75,2.75,0,0,0-.81-.35l-1.06-.24a5,5,0,0,1-1.06-.33,2.15,2.15,0,0,1-.82-.64,1.81,1.81,0,0,1-.33-1.15,2.18,2.18,0,0,1,.18-.89,1.85,1.85,0,0,1,.52-.72,2.55,2.55,0,0,1,.88-.47,3.8,3.8,0,0,1,1.23-.18,3.21,3.21,0,0,1,2.13.65,2.48,2.48,0,0,1,.82,1.89h-1.46a1.45,1.45,0,0,0-.43-1.06,1.6,1.6,0,0,0-1.06-.33,2.17,2.17,0,0,0-.62.08,1,1,0,0,0-.4.23.84.84,0,0,0-.21.33,1,1,0,0,0-.07.37.68.68,0,0,0,.34.62,3,3,0,0,0,.81.34c.32.09.67.17,1.05.25a4.71,4.71,0,0,1,1.06.35,2.22,2.22,0,0,1,.81.65,1.88,1.88,0,0,1,.33,1.16,2,2,0,0,1-.74,1.63,3.35,3.35,0,0,1-2.19.61,3.8,3.8,0,0,1-2.31-.62,2.45,2.45,0,0,1-.91-2Z"/><path d="M145.68,455.34H148V448.1l-2.25,1.44-.69-1.09,3.3-2.19h1.22v9.08h2v1.28h-5.9Z"/><path d="M154.58,453.48a2.59,2.59,0,0,0,.58,1.49,1.75,1.75,0,0,0,1.36.53,2.13,2.13,0,0,0,.88-.18,1.68,1.68,0,0,0,.71-.65,3.56,3.56,0,0,0,.48-1.29,10,10,0,0,0,.18-2.08,2.26,2.26,0,0,1-1,1.05,3.36,3.36,0,0,1-1.61.37,3.67,3.67,0,0,1-1.24-.21,2.9,2.9,0,0,1-1-.6,2.64,2.64,0,0,1-.69-1,3.47,3.47,0,0,1-.25-1.38,3.93,3.93,0,0,1,.24-1.41,2.85,2.85,0,0,1,.7-1.06,3,3,0,0,1,1.1-.69,4,4,0,0,1,1.47-.25,3.86,3.86,0,0,1,1.55.3,2.73,2.73,0,0,1,1.16.93,4.5,4.5,0,0,1,.74,1.62,9.58,9.58,0,0,1,.26,2.37,7.12,7.12,0,0,1-.95,4.09,3.26,3.26,0,0,1-2.83,1.33,3.35,3.35,0,0,1-2.41-.85,3.43,3.43,0,0,1-1-2.43Zm1.9-2a1.86,1.86,0,0,0,1.41-.55,2,2,0,0,0,.53-1.43,2.51,2.51,0,0,0-.14-.84,2.3,2.3,0,0,0-.4-.68,1.71,1.71,0,0,0-.62-.44,2.14,2.14,0,0,0-1.6,0,1.82,1.82,0,0,0-.62.43,2,2,0,0,0-.4.66,2.49,2.49,0,0,0-.14.83,2.08,2.08,0,0,0,.53,1.46A1.9,1.9,0,0,0,156.48,451.47Z"/><path d="M164.71,456.76a3.43,3.43,0,0,1-1.43-.3,3.07,3.07,0,0,1-1.16-.95,4.53,4.53,0,0,1-.79-1.65,10.24,10.24,0,0,1,0-4.84,4.53,4.53,0,0,1,.79-1.65,3.07,3.07,0,0,1,1.16-.95,3.56,3.56,0,0,1,2.86,0,3,3,0,0,1,1.17.95,4.7,4.7,0,0,1,.79,1.65,10.6,10.6,0,0,1,0,4.84,4.7,4.7,0,0,1-.79,1.65,3,3,0,0,1-1.17.95A3.43,3.43,0,0,1,164.71,456.76Zm0-1.27a1.86,1.86,0,0,0,.79-.18,1.64,1.64,0,0,0,.66-.65,3.84,3.84,0,0,0,.46-1.24,9.16,9.16,0,0,0,.18-2,9,9,0,0,0-.18-2,4,4,0,0,0-.46-1.25,1.67,1.67,0,0,0-.66-.64,1.87,1.87,0,0,0-.79-.19,1.84,1.84,0,0,0-.79.19,1.69,1.69,0,0,0-.67.64,4,4,0,0,0-.45,1.25,9.07,9.07,0,0,0-.17,2,9.23,9.23,0,0,0,.17,2,3.85,3.85,0,0,0,.45,1.24,1.66,1.66,0,0,0,.67.65A1.82,1.82,0,0,0,164.71,455.49Z"/><path d="M170.65,453.32a2.49,2.49,0,0,0,.69,1.64,2.3,2.3,0,0,0,1.6.54,2.11,2.11,0,0,0,1.47-.47,1.66,1.66,0,0,0,.52-1.31,1.83,1.83,0,0,0-.49-1.33,1.8,1.8,0,0,0-1.33-.5h-1.39v-1.23h1a1.61,1.61,0,0,0,1.24-.48,1.69,1.69,0,0,0,.43-1.19,1.67,1.67,0,0,0-.42-1.14,1.61,1.61,0,0,0-1.24-.47,1.64,1.64,0,0,0-1.29.53,2.49,2.49,0,0,0-.55,1.51h-1.55a3.44,3.44,0,0,1,1-2.45,3.52,3.52,0,0,1,2.49-.85,4.13,4.13,0,0,1,1.33.2,2.8,2.8,0,0,1,1,.54,2.23,2.23,0,0,1,.61.82,2.48,2.48,0,0,1,.22,1.06,2.58,2.58,0,0,1-.34,1.33,2.85,2.85,0,0,1-1,.93,2.82,2.82,0,0,1,1.34,1,2.94,2.94,0,0,1,.47,1.68,3.17,3.17,0,0,1-.24,1.25,2.54,2.54,0,0,1-.7,1,3.1,3.1,0,0,1-1.14.61,5,5,0,0,1-1.57.22,4.62,4.62,0,0,1-1.63-.25,2.93,2.93,0,0,1-1.12-.7,3,3,0,0,1-.67-1.09,5,5,0,0,1-.27-1.4Z"/><circle class="cls-5" cx="106.92" cy="530.8" r="50"/><circle class="cls-5" cx="106.92" cy="530.8" r="37.5"/><circle class="cls-5" cx="106.92" cy="530.8" r="25"/><circle class="cls-5" cx="106.92" cy="530.8" r="12.5"/><circle class="cls-5" cx="106.92" cy="530.8" r="6.25"/><path class="cls-6" d="M27.72,487.14H26.66v-.77h1.06v-1.22h.78v1.22h1.07v.77H28.5v1.26h-.78Z"/><path class="cls-6" d="M32.05,489.07h.78v-4.55l-.83.73-.44-.51,1.52-1.58h.75v5.9h.77v.76H32.05Z"/><path class="cls-6" d="M35.11,485.07c0-1.76,1-2,1.65-2s1.62.18,1.62,2v2.82c0,1.75-1.05,2-1.62,2s-1.65-.25-1.65-2Zm1.65,4c.39,0,.59-.23.59-.78V484.7c0-.58-.2-.83-.59-.83s-.61.25-.61.83v3.62C36.15,488.87,36.35,489.1,36.76,489.1Z"/><path class="cls-6" d="M39.2,485.07c0-1.76,1-2,1.65-2s1.62.18,1.62,2v2.82c0,1.75-1,2-1.62,2s-1.65-.25-1.65-2Zm1.65,4c.39,0,.59-.23.59-.78V484.7c0-.58-.2-.83-.59-.83s-.61.25-.61.83v3.62C40.24,488.87,40.44,489.1,40.85,489.1Z"/><path class="cls-6" d="M17.84,495.68c0-1.85,1.09-2,1.71-2,1.08,0,1.5.6,1.5,1.27a2.11,2.11,0,0,1-.1.63h-.77v-.2c0-.81-.19-1-.63-1s-.69.28-.69,1v1.28a1.31,1.31,0,0,1,.95-.39c.6,0,1.3.33,1.3,1.65v.65c0,1.42-.61,1.93-1.58,1.93s-1.69-.55-1.69-2Zm1.68,4c.4,0,.58-.29.58-.86v-1c0-.65-.23-.86-.6-.86a.83.83,0,0,0-.64.37v1.44C18.86,499.41,19.06,499.7,19.52,499.7Z"/><path class="cls-6" d="M21.93,495.64c0-1.76,1-2,1.64-2s1.63.18,1.63,2v2.82c0,1.75-1.06,2-1.63,2s-1.64-.25-1.64-2Zm1.64,4c.4,0,.6-.24.6-.79v-3.61c0-.58-.2-.84-.6-.84s-.61.26-.61.84v3.61C23,499.43,23.16,499.67,23.57,499.67Z"/><path class="cls-6" d="M27.81,496.93h4.41v.8H27.81Z"/><path class="cls-6" d="M38,498.45c0,1.85-1.07,2-1.67,2-1.11,0-1.54-.59-1.54-1.27a2.16,2.16,0,0,1,.1-.63h.77v.15c0,.81.21,1,.67,1s.65-.29.65-1v-1.23a1.24,1.24,0,0,1-.93.39c-.61,0-1.33-.33-1.33-1.65v-.65c0-1.42.62-1.93,1.59-1.93s1.69.51,1.69,2Zm-1.68-4.05c-.4,0-.58.29-.58.86v1c0,.64.23.85.59.85a.83.83,0,0,0,.65-.36v-1.56C37,494.61,36.81,494.4,36.35,494.4Z"/><path class="cls-6" d="M42.09,498.45c0,1.85-1.07,2-1.67,2-1.11,0-1.54-.59-1.54-1.27a2.16,2.16,0,0,1,.1-.63h.77v.15c0,.81.2,1,.67,1s.65-.29.65-1v-1.23a1.25,1.25,0,0,1-.94.39c-.6,0-1.32-.33-1.32-1.65v-.65c0-1.42.62-1.93,1.59-1.93s1.69.51,1.69,2Zm-1.68-4.05c-.4,0-.58.29-.58.86v1c0,.64.23.85.59.85a.84.84,0,0,0,.65-.36v-1.56C41.07,494.61,40.86,494.4,40.41,494.4Z"/><path class="cls-6" d="M17.65,510.25l2-4.94h1.2V510h.62v.79H20.8V512h-.94v-1.2H17.65Zm2.21-.26v-1l.1-2.51h-.12L18.68,510Z"/><path class="cls-6" d="M22,507.21c0-1.76,1-2,1.65-2s1.62.17,1.62,2V510c0,1.75-1,2-1.62,2S22,511.79,22,510Zm1.65,4c.39,0,.59-.24.59-.79v-3.62c0-.57-.2-.83-.59-.83s-.61.26-.61.83v3.62C23.08,511,23.28,511.25,23.69,511.25Z"/><path class="cls-6" d="M27.92,508.51h4.41v.79H27.92Z"/><path class="cls-6" d="M35.13,509.83h.79v.55c0,.63.17.89.59.89s.59-.32.59-.89v-1.29c0-.66-.25-.8-.55-.8a.75.75,0,0,0-.64.42h-.74v-3.4H38v.89H36v1.65a1.25,1.25,0,0,1,.93-.4c.83,0,1.2.57,1.2,1.65v1.13c0,1.37-.77,1.81-1.58,1.81A1.36,1.36,0,0,1,35,510.61,3.21,3.21,0,0,1,35.13,509.83Z"/><path class="cls-6" d="M42.17,510c0,1.85-1.07,2-1.67,2-1.11,0-1.54-.6-1.54-1.27a2.06,2.06,0,0,1,.1-.63h.77v.14c0,.81.2,1,.67,1s.65-.29.65-1v-1.22a1.28,1.28,0,0,1-.94.38c-.6,0-1.32-.32-1.32-1.65v-.64c0-1.43.62-1.93,1.59-1.93s1.69.51,1.69,2Zm-1.68-4c-.4,0-.58.29-.58.86v1c0,.64.23.86.59.86a.85.85,0,0,0,.65-.37V506.8C41.15,506.19,40.94,506,40.49,506Z"/><path class="cls-6" d="M20.89,533.36h.78v-4.55l-.83.73L20.4,529l1.52-1.58h.75v5.91h.77v.76H20.89Z"/><path class="cls-6" d="M25.74,530.65h4.41v.79H25.74Z"/><path class="cls-6" d="M33,533.36h.77v-4.55l-.82.73-.44-.51L34,527.45h.76v5.91h.77v.76H33Z"/><path class="cls-6" d="M39.21,532.17c0,1.85-1.07,2-1.68,2-1.1,0-1.54-.59-1.54-1.27a2.2,2.2,0,0,1,.11-.63h.77v.15c0,.8.2,1,.66,1s.65-.29.65-1v-1.23a1.24,1.24,0,0,1-.93.39c-.6,0-1.32-.33-1.32-1.65v-.65c0-1.42.62-1.93,1.58-1.93s1.7.51,1.7,2Zm-1.69-4c-.39,0-.58.29-.58.86v1c0,.65.24.86.6.86a.81.81,0,0,0,.64-.36v-1.56C38.18,528.33,38,528.12,37.52,528.12Z"/><line class="cls-7" x1="50" y1="487.5" x2="106" y2="487.5"/><line class="cls-7" x1="50" y1="498.5" x2="106" y2="498.5"/><line class="cls-7" x1="50" y1="510.5" x2="106" y2="510.5"/><path class="cls-6" d="M17.93,522.38l1.48-2.83a4.17,4.17,0,0,0,.65-1.85c0-.55-.19-.72-.57-.72s-.65.4-.65,1.1v.38h-.78a3.67,3.67,0,0,1-.11-.8,1.4,1.4,0,0,1,1.54-1.41c1.16,0,1.64.56,1.64,1.51a3.75,3.75,0,0,1-.72,1.92l-1.32,2.5H21v.8H17.93Z"/><path class="cls-6" d="M21.82,518.21c0-1.76,1-2,1.65-2s1.62.17,1.62,2V521c0,1.75-1.05,2-1.62,2s-1.65-.25-1.65-2Zm1.65,4c.39,0,.59-.24.59-.79v-3.62c0-.57-.2-.83-.59-.83s-.61.26-.61.83v3.62C22.86,522,23.06,522.25,23.47,522.25Z"/><path class="cls-6" d="M27.7,519.51h4.41v.79H27.7Z"/><path class="cls-6" d="M34.81,520.83h.78v.34c0,.83.3,1.1.69,1.1s.63-.21.63-.77v-.74c0-.56-.18-.88-.7-.88h-.43v-.72h.43c.33,0,.6-.21.6-.76v-.7c0-.49-.2-.72-.57-.72s-.66.4-.66,1.1v.38H34.8a3.43,3.43,0,0,1-.11-.8,1.42,1.42,0,0,1,1.55-1.41c1.13,0,1.6.53,1.6,1.47v.41a1.42,1.42,0,0,1-.82,1.36v0a1.31,1.31,0,0,1,.92,1.42v.44A1.5,1.5,0,0,1,36.28,523c-1,0-1.57-.52-1.57-1.42A3.48,3.48,0,0,1,34.81,520.83Z"/><path class="cls-6" d="M42,521c0,1.85-1.07,2-1.68,2-1.1,0-1.54-.6-1.54-1.27a2.09,2.09,0,0,1,.11-.63h.77v.14c0,.81.2,1,.66,1s.66-.29.66-1v-1.22a1.28,1.28,0,0,1-.94.38c-.6,0-1.32-.32-1.32-1.65v-.64c0-1.43.62-1.93,1.58-1.93s1.7.51,1.7,2Zm-1.68-4c-.4,0-.59.29-.59.86v1c0,.64.24.86.6.86a.85.85,0,0,0,.65-.37V517.8C41,517.19,40.74,517,40.29,517Z"/><line class="cls-7" x1="50" y1="521.5" x2="106" y2="521.5"/><line class="cls-7" x1="50" y1="532.5" x2="106" y2="532.5"/><polygon id="FRANCE-3" data-name="FRANCE" class="cls-4" points="655.24 610.88 655.24 610.88 654.01 597.95 637.13 601.76 617.97 588.53 616.76 580.61 617.76 579.64 621.67 575.81 621.51 569.37 621.24 569.07 625.39 565.22 625.39 565.22 621.51 556.44 610.6 553.77 603.94 540.73 603.94 540.73 615.35 539.59 625.25 532.01 627.97 521.31 627.97 521.3 609.15 496.7 609.15 496.7 610.89 494.67 618.38 491.66 618.51 489.8 618.63 488.84 618.86 484.65 608.25 471.42 608.25 471.42 610.69 468.81 610.69 468.81 606.61 458.72 590.17 462.64 587.47 460.79 583.32 466.41 583.31 466.41 585.91 470.34 578.65 475.76 571.55 475.67 571.47 471.44 578.04 469.42 580.86 460.6 576.08 458.86 577.24 449.5 591.08 435.36 591.08 435.36 590.08 424.85 590.08 424.85 598.62 421 600.02 419.17 616.77 397.3 616.79 397.29 616.79 397.29 613.79 389.97 618.42 389.02 619.03 388.71 621.51 392.34 630.16 392.4 634.22 388.89 636.69 381.24 632.37 374.41 637.32 356.72 634.97 346.65 640.8 335.52 643.62 313.18 649.33 309.11 659.98 292.1 647.65 286.99 634.63 287.7 627.64 281.03 622 280.84 618.89 283.65 611.47 283.8 605.17 278.96 601.07 279.01 600.1 281.95 596.08 282.37 588.84 267.05 580.9 263.79 575.01 261.37 571.55 261.55 562.67 263.96 555.98 259.04 542.81 261.43 537.59 257.65 535.68 252.32 517.62 244.91 517.25 222.1 513.02 222.1 508.76 231.91 498.66 236.19 491.44 233.72 486.99 233.68 486.5 232.13 490.84 228.91 490.5 217.06 482.67 209.78 470.4 210.35 469.09 212.51 467.54 212.49 467.97 204.82 460.2 199.29 455.94 201.19 451.38 199.2 450.38 187.61 446.47 182.74 438.15 184.67 432.87 187.88 430.49 183.27 428.35 180.83 423.97 178.42 425.54 172.29 421.76 163.26 403.33 168.25 391.19 170.46 381.48 177.81 381.15 208.25 372.2 227.23 361.29 236.1 324.61 248.72 318.14 262.68 327.81 267.53 304.89 276.8 297.46 272.56 278.32 269.83 274.26 267.81 268.75 269.16 260.87 257.61 265.07 254.44 263.1 248.6 251.95 248.6 247.44 250.75 234.7 244.59 233.81 246.49 238.41 250.1 238.41 264 246.47 278.5 248.92 297.8 246.19 303.47 254.19 313.56 247.87 315.73 237.11 315.63 235.83 309.7 230.57 309.44 228.46 311.8 214.51 310.13 198.11 317.11 193.54 313.3 184.94 295.71 162.07 297 160.66 305.16 151.13 303.29 148.94 305.7 138.65 301.87 112.75 309.32 109.79 323.51 123.6 322.55 132.77 328.08 118.96 325.8 115.26 327.73 129.57 334.98 128.72 339.44 111.4 340.17 111.35 343.05 119.24 344.86 124.86 355.84 124.58 359.16 132.93 359.62 134.04 355.92 145.37 361.93 160 364.27 174.82 377.29 188.98 384.62 202.97 387.93 198.09 398.1 212.93 400.62 212.93 406.65 210.36 409.52 217.1 410.79 222.37 414.89 215.09 423.63 214.97 428.89 227.54 450.02 256.5 464.98 254.15 471.48 241.62 463.81 236.64 466.9 260.44 480.71 257.5 491.66 253.56 489.66 245.34 479.28 244.83 486.95 249.84 490.71 251.38 503.38 271.27 518.77 272.86 527.17 275.07 538.86 273.58 541.34 268.76 524.66 257.67 517.2 256.45 511.35 254.08 512.26 253.02 520.62 245.95 568.87 251.4 562.09 258.18 570.52 257.67 574.1 249.92 574.1 246.03 578.42 245.95 582.15 233.73 634.1 230.42 639.3 224.25 646.62 214.93 648.52 214.93 652.43 233.99 658.67 233.35 665.3 230.56 666.82 236.5 673.28 238.63 668.37 257.08 678.21 261.46 678.26 261.68 678.26 264.39 678.28 264.39 678.28 264.39 678.28 264.82 682.87 271.31 688.55 271.96 689.12 271.97 689.12 284.75 685.88 291.71 690.62 297.74 696.98 306.78 693.96 312.68 698.38 318.87 696.8 330.61 697.96 331.01 687.15 339.67 690.13 349.36 694.04 353.04 700.6 361 700.6 366.13 704.5 377.51 703.27 383.07 712.14 390.04 714.39 390.07 718.11 396.18 720.78 399.97 717.01 404.56 716.95 415.89 724.6 423.99 724.6 433.03 715.15 439.81 713.6 443.19 716.39 447.27 717.63 447.3 711.83 443.25 707.67 442.25 689.29 442.47 676.6 437.67 673.46 439.45 670.59 443.67 673.7 448.98 667.04 485.44 644.47 489.52 644.79 491.78 649.36 499.49 649.32 515.63 650.44 512.68 654.5 522.92 658.49 528.71 656.68 526.14 651.79 531.58 652.54 535.3 656.77 549.47 656.31 551.66 664.18 566.07 668.14 572.22 674.55 579.6 670.88 587.66 671.71 597.58 670.4 612.29 662.38 611.27 655.85 623.62 644.98 632.01 639.38 632.27 632.59 637.33 632.2 649.87 623.56 649.87 623.55 650.39 612.38 655.24 610.88"/><circle id="Bagnères_de_Luchon" data-name="Bagnères de Luchon" class="cls-5" cx="317.5" cy="684.49" r="50"/><circle id="Paris" class="cls-5" cx="411.85" cy="305.53" r="50"/><circle id="Bordeaux" class="cls-5" cx="275.76" cy="545.82" r="50"/><circle id="Pau" class="cls-5" cx="277.81" cy="659.41" r="50"/><circle id="Toulouse" class="cls-5" cx="356.51" cy="642.91" r="25"/><circle id="Nantes" class="cls-5" cx="227.92" cy="400.91" r="25"/><circle id="Brest" class="cls-5" cx="131.67" cy="325.88" r="25"/><circle id="Montpellier" class="cls-5" cx="467.78" cy="639.77" r="25"/><circle id="Bayonne" class="cls-5" cx="232.52" cy="643.46" r="37.5"/><circle id="Marseille" class="cls-5" cx="543.44" cy="651.43" r="37.5"/><circle id="Briançon" class="cls-5" cx="598.01" cy="548.91" r="37.5"/><circle id="Caen" class="cls-5" cx="285.91" cy="282.82" r="37.5"/><circle id="Perpignan" class="cls-5" cx="428.81" cy="699.77" r="37.5"/><circle id="Nice" class="cls-5" cx="644.07" cy="614.57" r="37.5"/><circle id="Grenoble" class="cls-5" cx="538.04" cy="519.8" r="37.5"/><circle id="Metz" class="cls-5" cx="588.01" cy="292.96" r="37.5"/><circle id="Rennes" class="cls-5" cx="240.16" cy="338.25" r="12.5"/><circle id="Nancy" class="cls-5" cx="571.79" cy="331.25" r="12.5"/><circle id="Dijon" class="cls-5" cx="521.34" cy="403.26" r="12.5"/><circle id="Lille" class="cls-5" cx="446.69" cy="193.76" r="12.5"/><circle id="Lyon" class="cls-5" cx="516.27" cy="488.32" r="12.5"/><circle id="Rouen" class="cls-5" cx="358.98" cy="269.42" r="12.5"/><circle id="Besançon" class="cls-5" cx="578.9" cy="410.01" r="12.5"/><circle id="Strasbourg" class="cls-5" cx="640.44" cy="303.11" r="25"/><circle id="Limoges" class="cls-5" cx="362.37" cy="501.18" r="12.5"/><circle id="Amiens" class="cls-5" cx="413.03" cy="230.12" r="12.5"/><circle id="Clermont-Ferrand" class="cls-5" cx="446.51" cy="506.38" r="6.25"/><circle id="Orléans" class="cls-5" cx="400.85" cy="367.66" r="6.25"/><circle id="Poitiers" class="cls-5" cx="330.39" cy="453.93" r="6.25"/><circle id="Châlons_en_Champagne" data-name="Châlons en Champagne" class="cls-5" cx="493.91" cy="299.13" r="6.25"/><circle id="Ajaccio" class="cls-5" cx="706.57" cy="709.41" r="6.25"/></g></g></svg>