<svg xmlns="http://www.w3.org/2000/svg" viewBox="0 0 769 801"><defs><style>.cls-1{isolation:isolate;}.cls-2{fill:#ede6d8;}.cls-2,.cls-3{stroke:#fff;}.cls-2,.cls-8{stroke-miterlimit:10;}.cls-3,.cls-8{fill:none;}.cls-3,.cls-4{stroke-linecap:round;stroke-linejoin:round;}.cls-4,.cls-5{fill:#fff;}.cls-4{stroke:#f3d6ca;}.cls-6,.cls-7{fill:#00a5ac;}.cls-6{opacity:0.2;mix-blend-mode:multiply;}.cls-8{stroke:#00a5ac;}</style></defs><title>Plan de travail 24</title><g class="cls-1"><g id="Calque_1" data-name="Calque 1"><rect class="cls-2" x="0.5" y="0.5" width="768" height="800"/><path id="France" class="cls-3" d="M747.87,742.77l-26.37-11-14.73.82-40.09,11.24-24.55-18-6.56-4.77L576,731.8l.06,0-.11,0H576l-23.67-17.37-8.66-24.7L462.51,658,460.8,555.47H441.63l-19.29,43.7-45.9,19.07-32.9-11.53v0l-19.81-.2h0l-2.2-7,19.66-14.54-1.56-53.61-35.47-33-55.55,2.57-6,9.78-7-.09,1.29-34.7-34.56-25-19.94,8.72-20.68-9.09L157.26,398l-17.74-22-37.67,8.72L77.91,399.28,67.16,378.4l-9.75-11L37.66,356.46l7.07-27.7L28.22,287.94.54,295.33V800.47h767V751.09ZM375.55,799.18l-1,0h.63l-.09,0,.09,0h.41Z"/><polygon class="cls-4" points="653.69 698.75 644.44 723.45 658.13 710.74 653.69 698.75"/><polygon class="cls-5" points="376.62 617.89 422.34 599.42 441.63 555.97 460.8 555.97 462.5 658.26 543.64 690.19 552.28 714.65 575.94 731.92 635.58 721.17 642.16 725.91 644.34 723.56 644.44 723.46 658.13 710.74 625.51 622.69 673.47 537.16 696.39 550.69 741.76 491.44 732.47 458 706.74 441.48 713.64 423.62 714.28 421.95 668.82 372.94 611.96 377.11 636.01 260.71 561.67 224.38 522.16 230.18 490.46 175.53 439.04 188.59 397.02 175.53 338.9 204.55 285.82 208.48 211.04 190.98 158.63 207.35 28.04 287.87 28.04 288.97 28.39 288.97 44.81 329.28 37.69 356.73 57.43 367.52 67.17 378.47 77.91 399.31 101.85 384.75 139.53 376.02 157.26 398.05 161.76 450.55 182.44 459.64 202.38 450.92 236.94 475.93 235.65 510.63 242.63 510.72 248.61 500.94 304.16 498.37 339.63 531.33 341.19 584.94 321.53 599.49 323.73 606.51 343.9 606.69 376.62 617.89"/><ellipse id="Liège" class="cls-6" cx="606.29" cy="399.65" rx="49.93" ry="49.87"/><ellipse id="Bruxelles" class="cls-6" cx="370.72" cy="349.78" rx="49.93" ry="49.87"/><ellipse id="Charleroi" class="cls-6" cx="375.14" cy="486.93" rx="37.45" ry="37.41"/><ellipse id="Forest" class="cls-6" cx="365.4" cy="362.25" rx="37.45" ry="37.41"/><ellipse id="Jambes" class="cls-6" cx="445.62" cy="467.82" rx="24.97" ry="24.94"/><ellipse id="Namur" class="cls-6" cx="445.62" cy="453.67" rx="24.97" ry="24.94"/><ellipse id="Anvers" class="cls-6" cx="382.04" cy="217.28" rx="24.97" ry="24.94"/><ellipse id="Gand" class="cls-6" cx="237.58" cy="271.97" rx="24.97" ry="24.94"/><ellipse id="Tournai" class="cls-6" cx="182.99" cy="432.57" rx="24.97" ry="24.94"/><ellipse id="Spa-Francorchamps" class="cls-6" cx="650.86" cy="449.53" rx="24.97" ry="24.94"/><ellipse id="Molenbeek-Saint-Jean" class="cls-6" cx="357.08" cy="344.92" rx="12.48" ry="12.47"/><ellipse id="Louvain" class="cls-6" cx="462.16" cy="319.99" rx="12.48" ry="12.47"/><ellipse id="Harelbeke" class="cls-6" cx="158.02" cy="344.92" rx="12.48" ry="12.47"/><ellipse id="Bastogne" class="cls-6" cx="617.28" cy="619.23" rx="4.49" ry="4.49"/><ellipse id="Beauraing" class="cls-6" cx="479.47" cy="562.38" rx="4.49" ry="4.49"/><ellipse id="Beringen" class="cls-6" cx="567.35" cy="292.06" rx="4.49" ry="4.49"/><ellipse id="Hasselt" class="cls-6" cx="584.32" cy="319.99" rx="4.49" ry="4.49"/><ellipse id="Herentals" class="cls-6" cx="428.54" cy="234.2" rx="12.48" ry="12.47"/><ellipse id="Wanze" class="cls-6" cx="531.4" cy="431.7" rx="4.49" ry="4.49"/><ellipse id="Ciney" class="cls-6" cx="483.47" cy="537.44" rx="4.49" ry="4.49"/><ellipse id="Waregem" class="cls-6" cx="170.9" cy="344.92" rx="4.49" ry="4.49"/><ellipse id="Waterloo" class="cls-6" cx="386.6" cy="386.82" rx="4.49" ry="4.49"/><ellipse id="Ypres" class="cls-6" cx="94.01" cy="349.91" rx="4.49" ry="4.49"/><ellipse id="Bornem" class="cls-6" cx="332.68" cy="259.14" rx="4.49" ry="4.49"/><ellipse id="Marche_en_Famenne" data-name="Marche en Famenne" class="cls-6" cx="587.32" cy="519.48" rx="4.49" ry="4.49"/><ellipse id="Mouscron" class="cls-6" cx="157.92" cy="385.82" rx="4.49" ry="4.49"/><ellipse id="Verviers" class="cls-6" cx="644.24" cy="399.78" rx="4.49" ry="4.49"/><ellipse id="Dinant" class="cls-6" cx="466.49" cy="537.44" rx="4.49" ry="4.49"/><ellipse id="Mons" class="cls-6" cx="284.72" cy="465.61" rx="4.49" ry="4.49"/><ellipse id="Mons-2" data-name="Mons" class="cls-6" cx="323.72" cy="473.61" rx="4.49" ry="4.49"/><ellipse id="Visé" class="cls-6" cx="606.29" cy="381.83" rx="4.49" ry="4.49"/><ellipse id="Arlon" class="cls-6" cx="644.24" cy="699.03" rx="4.49" ry="4.49"/><ellipse id="Huy" class="cls-6" cx="523.67" cy="431.94" rx="12.48" ry="12.47"/><ellipse id="aint-Nicolas" class="cls-6" cx="323.78" cy="242.22" rx="12.48" ry="12.47"/><ellipse id="Wo" class="cls-6" cx="382.04" cy="353.58" rx="12.48" ry="12.47"/><ellipse id="Seraing" class="cls-6" cx="596.43" cy="415.63" rx="12.48" ry="12.47"/><polygon class="cls-3" points="748.55 741.88 748.54 742.77 748.54 742.77 748.54 742.77 767.54 751.05 767.54 688.72 743.3 723.54 748.55 741.88"/><polygon id="Allemagne" class="cls-3" points="719.38 619.66 719.08 619.68 767.54 639.61 767.54 42.74 725.72 60.21 686.1 42.43 650.74 62.87 719.74 183.29 716.2 192.35 679 286.3 681.59 340.47 681.6 340.47 668.44 372.62 713.54 421.82 713.54 421.88 713.54 421.92 713.26 423.61 706.55 441.47 732.38 458 741.28 491.44 695.54 550.68 695.54 550.68 695.54 584.73 719.38 619.66"/><polygon id="Pays-Bas" class="cls-3" points="681.6 341.11 679.02 286.62 716.23 192.35 719.8 183.29 650.86 62.87 650.86 62.87 686.34 42.43 725.72 60.21 767.54 42.74 767.54 1.47 336.65 1.47 321.77 22.42 251.84 98.15 192.76 157.38 211.04 190.98 285.82 208.48 338.9 204.55 397.02 175.53 439.04 188.59 490.46 175.53 522.16 230.18 561.67 224.38 636.01 260.71 611.96 377.11 668.82 372.94 668.82 372.94 668.82 372.94 681.6 341.11"/><polygon id="Luxembourg" class="cls-3" points="721.74 731.81 721.83 731.81 748.54 742.77 748.54 741.88 743.28 723.54 767.54 688.67 767.54 639.63 719.22 619.59 719.53 619.47 719.6 619.47 719.63 619.47 695.54 584.73 695.54 550.68 673.04 537.16 625.37 622.69 653.62 698.75 658.09 710.74 644.42 723.45 644.33 723.54 642.15 725.88 666.73 743.7 706.89 732.63 721.73 731.81 721.74 731.81"/><polygon class="cls-4" points="576.05 731.84 576 731.8 575.94 731.81 576.05 731.84"/><polygon class="cls-4" points="375.05 799.13 375.14 799.15 374.51 799.15 375.55 799.18 375.55 799.15 375.14 799.15 375.05 799.13"/><polygon class="cls-4" points="28.27 287.93 28.24 287.93 28.24 287.94 28.27 287.93"/><rect class="cls-5" x="0.5" y="490.5" width="183.17" height="221.38"/><path d="M16.72,508.43h1.73l2.94,8.11,2.95-8.11h1.72L22.13,518.8H20.66Z"/><path d="M28.34,510a.93.93,0,0,1-.69-.27,1,1,0,0,1-.26-.68.93.93,0,0,1,.26-.69.88.88,0,0,1,.69-.28,1,1,0,0,1,.69.27,1,1,0,0,1,.28.7.94.94,0,0,1-.28.68A1,1,0,0,1,28.34,510Zm-.74,1.31h1.5v7.5H27.6Z"/><path d="M31.5,508.43H33V518.8H31.5Z"/><path d="M35.41,508.43H36.9V518.8H35.41Z"/><path d="M45.63,516.23a3.24,3.24,0,0,1-.28,1.09,2.5,2.5,0,0,1-.66.85,3,3,0,0,1-1,.56,3.82,3.82,0,0,1-1.32.2,4.18,4.18,0,0,1-1.58-.27,2.92,2.92,0,0,1-1.09-.79,3.35,3.35,0,0,1-.64-1.23,6,6,0,0,1-.2-1.58,5.32,5.32,0,0,1,.22-1.59,3.45,3.45,0,0,1,.65-1.23,2.93,2.93,0,0,1,1.1-.79,3.77,3.77,0,0,1,1.53-.28,4,4,0,0,1,1.51.26,2.71,2.71,0,0,1,1,.77,3.34,3.34,0,0,1,.58,1.23,6.67,6.67,0,0,1,.18,1.61v.24H40.36a2.92,2.92,0,0,0,.54,1.84,1.7,1.7,0,0,0,1.39.61,2,2,0,0,0,1.27-.38,1.6,1.6,0,0,0,.58-1.12Zm-1.47-1.92a2.25,2.25,0,0,0-.49-1.41,1.6,1.6,0,0,0-1.32-.56,1.85,1.85,0,0,0-1.35.49,2.33,2.33,0,0,0-.61,1.48Z"/><path d="M48.68,516.35a1.4,1.4,0,0,0,.56,1.14,2.25,2.25,0,0,0,1.23.32,1.82,1.82,0,0,0,1-.26.87.87,0,0,0,.36-.76.76.76,0,0,0-.32-.65,2.82,2.82,0,0,0-.82-.36c-.33-.08-.68-.16-1.06-.23a5.06,5.06,0,0,1-1.06-.34,2.23,2.23,0,0,1-.82-.63,1.82,1.82,0,0,1-.33-1.16,2.21,2.21,0,0,1,.18-.89,1.82,1.82,0,0,1,.53-.71,2.59,2.59,0,0,1,.87-.48,4.11,4.11,0,0,1,1.23-.17,3.19,3.19,0,0,1,2.13.64,2.5,2.5,0,0,1,.82,1.89H51.76a1.39,1.39,0,0,0-.43-1.05,1.6,1.6,0,0,0-1.06-.33,1.91,1.91,0,0,0-.62.08.92.92,0,0,0-.4.23A.78.78,0,0,0,49,513a1.13,1.13,0,0,0-.06.36.67.67,0,0,0,.33.62,3,3,0,0,0,.81.34c.32.09.67.17,1.06.25a4.8,4.8,0,0,1,1,.35,2.25,2.25,0,0,1,.81.66,1.84,1.84,0,0,1,.33,1.16,2,2,0,0,1-.73,1.63,3.42,3.42,0,0,1-2.2.6,3.82,3.82,0,0,1-2.31-.61,2.48,2.48,0,0,1-.9-2Z"/><path d="M55.07,513.7h3.79v1.43H55.07Z"/><path d="M67.32,516.23a3,3,0,0,1-.28,1.09,2.5,2.5,0,0,1-.66.85,3,3,0,0,1-1,.56,3.8,3.8,0,0,1-1.31.2,4.2,4.2,0,0,1-1.59-.27,2.92,2.92,0,0,1-1.09-.79,3.35,3.35,0,0,1-.64-1.23,6,6,0,0,1-.2-1.58,5.32,5.32,0,0,1,.22-1.59,3.45,3.45,0,0,1,.65-1.23,2.93,2.93,0,0,1,1.1-.79,3.77,3.77,0,0,1,1.53-.28,4,4,0,0,1,1.51.26,2.71,2.71,0,0,1,1,.77,3.34,3.34,0,0,1,.58,1.23,6.67,6.67,0,0,1,.18,1.61v.24H62.05a2.92,2.92,0,0,0,.54,1.84,1.7,1.7,0,0,0,1.39.61,2,2,0,0,0,1.27-.38,1.6,1.6,0,0,0,.58-1.12Zm-1.47-1.92a2.25,2.25,0,0,0-.49-1.41,1.6,1.6,0,0,0-1.32-.56,1.85,1.85,0,0,0-1.35.49,2.33,2.33,0,0,0-.61,1.48Zm-1-5.88h1.83l-2.08,2H63.41Z"/><path d="M69.48,512.54h-1V511.3h1v-1.92H71v1.92h1.75v1.24H71v3.93a1.15,1.15,0,0,0,.27.84,1.11,1.11,0,0,0,.8.26l.35,0,.38,0v1.32l-.46.08a4.39,4.39,0,0,1-.54,0,2,2,0,0,1-2.29-2.38Z"/><path d="M78.74,517.74h0a2.61,2.61,0,0,1-1,.86,3.45,3.45,0,0,1-1.58.33,3.32,3.32,0,0,1-1-.15,2,2,0,0,1-.73-.43,1.64,1.64,0,0,1-.44-.63,2,2,0,0,1-.15-.77,2,2,0,0,1,.36-1.26A2.31,2.31,0,0,1,75,515a4.58,4.58,0,0,1,1.21-.33c.44-.06.85-.13,1.24-.2s.5-.08.67-.12a1.17,1.17,0,0,0,.38-.14.44.44,0,0,0,.18-.21,1.06,1.06,0,0,0,0-.33,1.24,1.24,0,0,0-.39-.95,1.58,1.58,0,0,0-1.15-.37,1.88,1.88,0,0,0-1.16.32,1.42,1.42,0,0,0-.49,1.08H74.1a3.05,3.05,0,0,1,.84-1.91,3.24,3.24,0,0,1,2.27-.68,2.63,2.63,0,0,1,3,3v4.64h-1.5Zm0-2.6a10.89,10.89,0,0,1-1.19.24,10.71,10.71,0,0,0-1.15.22,2.17,2.17,0,0,0-.84.38.86.86,0,0,0-.33.73,1,1,0,0,0,.37.79,1.54,1.54,0,0,0,1,.29,2.75,2.75,0,0,0,.88-.14,2.15,2.15,0,0,0,.69-.4,1.87,1.87,0,0,0,.45-.62,2,2,0,0,0,.16-.83Z"/><path d="M82.53,511.3H84v1.17h0a2.89,2.89,0,0,1,.92-1,2.83,2.83,0,0,1,1.49-.35,3.13,3.13,0,0,1,1.39.29,2.93,2.93,0,0,1,1,.81,3.57,3.57,0,0,1,.6,1.22,5.43,5.43,0,0,1,.21,1.55,5.66,5.66,0,0,1-.22,1.59,4,4,0,0,1-.63,1.23,2.69,2.69,0,0,1-1,.8,3.27,3.27,0,0,1-1.36.27,2.68,2.68,0,0,1-1.46-.36,3,3,0,0,1-.94-1h0v3.93H82.53ZM86,517.79a1.81,1.81,0,0,0,1.52-.71,3.18,3.18,0,0,0,.56-2,3.28,3.28,0,0,0-.54-2,1.82,1.82,0,0,0-1.55-.72,1.71,1.71,0,0,0-1.54.72,3.67,3.67,0,0,0-.48,2,3.47,3.47,0,0,0,.49,2A1.74,1.74,0,0,0,86,517.79Z"/><path d="M97.9,516.23a3,3,0,0,1-.28,1.09,2.5,2.5,0,0,1-.66.85,3,3,0,0,1-1,.56,3.89,3.89,0,0,1-1.32.2,4.14,4.14,0,0,1-1.58-.27,3,3,0,0,1-1.1-.79,3.19,3.19,0,0,1-.63-1.23,5.6,5.6,0,0,1-.2-1.58,5.67,5.67,0,0,1,.21-1.59,3.32,3.32,0,0,1,.66-1.23,2.89,2.89,0,0,1,1.09-.79,3.85,3.85,0,0,1,1.54-.28,4,4,0,0,1,1.5.26,2.71,2.71,0,0,1,1,.77,3.19,3.19,0,0,1,.58,1.23,6.67,6.67,0,0,1,.18,1.61v.24H92.64a2.86,2.86,0,0,0,.53,1.84,1.72,1.72,0,0,0,1.39.61,2.05,2.05,0,0,0,1.28-.38,1.63,1.63,0,0,0,.58-1.12Zm-1.47-1.92A2.3,2.3,0,0,0,96,512.9a1.62,1.62,0,0,0-1.32-.56,1.84,1.84,0,0,0-1.35.49,2.34,2.34,0,0,0-.62,1.48Z"/><path d="M101,516.35a1.38,1.38,0,0,0,.56,1.14,2.2,2.2,0,0,0,1.23.32,1.78,1.78,0,0,0,1-.26.85.85,0,0,0,.37-.76.74.74,0,0,0-.33-.65,2.7,2.7,0,0,0-.82-.36c-.32-.08-.67-.16-1-.23a5.06,5.06,0,0,1-1.06-.34,2.23,2.23,0,0,1-.82-.63,1.82,1.82,0,0,1-.33-1.16,2.39,2.39,0,0,1,.17-.89,1.92,1.92,0,0,1,.53-.71,2.69,2.69,0,0,1,.87-.48,4.11,4.11,0,0,1,1.23-.17,3.22,3.22,0,0,1,2.14.64,2.46,2.46,0,0,1,.81,1.89H104a1.39,1.39,0,0,0-.44-1.05,1.58,1.58,0,0,0-1.06-.33,1.8,1.8,0,0,0-.61.08.86.86,0,0,0-.4.23.91.91,0,0,0-.22.33,1.13,1.13,0,0,0-.06.36.67.67,0,0,0,.33.62,3,3,0,0,0,.81.34c.33.09.68.17,1.06.25a4.88,4.88,0,0,1,1.06.35,2.25,2.25,0,0,1,.81.66,1.84,1.84,0,0,1,.33,1.16,2,2,0,0,1-.74,1.63,3.4,3.4,0,0,1-2.19.6,3.8,3.8,0,0,1-2.31-.61,2.46,2.46,0,0,1-.91-2Z"/><path d="M111.76,508.43h1.5v4h0a2.89,2.89,0,0,1,.92-1,2.81,2.81,0,0,1,1.49-.35,3.16,3.16,0,0,1,1.39.29,2.81,2.81,0,0,1,1,.81,3.41,3.41,0,0,1,.61,1.22,5.82,5.82,0,0,1,.2,1.55,5.32,5.32,0,0,1-.22,1.59,3.75,3.75,0,0,1-.62,1.23,2.77,2.77,0,0,1-1,.8,3.27,3.27,0,0,1-1.36.27,2.71,2.71,0,0,1-1.47-.36,2.92,2.92,0,0,1-.93-1h0v1.21h-1.5Zm3.52,9.36a1.81,1.81,0,0,0,1.52-.71,3.18,3.18,0,0,0,.56-2,3.28,3.28,0,0,0-.54-2,1.83,1.83,0,0,0-1.56-.72,1.71,1.71,0,0,0-1.53.72,3.67,3.67,0,0,0-.48,2,3.47,3.47,0,0,0,.49,2A1.73,1.73,0,0,0,115.28,517.79Z"/><path d="M127.14,516.23a3,3,0,0,1-.28,1.09,2.5,2.5,0,0,1-.66.85,3,3,0,0,1-1,.56,3.89,3.89,0,0,1-1.32.2,4.2,4.2,0,0,1-1.59-.27,2.92,2.92,0,0,1-1.09-.79,3.35,3.35,0,0,1-.64-1.23,6,6,0,0,1-.2-1.58,5.32,5.32,0,0,1,.22-1.59,3.45,3.45,0,0,1,.65-1.23,2.93,2.93,0,0,1,1.1-.79,3.77,3.77,0,0,1,1.53-.28,4,4,0,0,1,1.51.26,2.71,2.71,0,0,1,1,.77,3.34,3.34,0,0,1,.58,1.23,6.67,6.67,0,0,1,.18,1.61v.24h-5.28a2.92,2.92,0,0,0,.54,1.84,1.7,1.7,0,0,0,1.39.61,2.05,2.05,0,0,0,1.28-.38,1.63,1.63,0,0,0,.57-1.12Zm-1.47-1.92a2.3,2.3,0,0,0-.48-1.41,1.64,1.64,0,0,0-1.33-.56,1.81,1.81,0,0,0-1.34.49,2.28,2.28,0,0,0-.62,1.48Z"/><path d="M129.26,508.43h1.49V518.8h-1.49Z"/><path d="M139.89,511.3v1.19h-1.41a2.32,2.32,0,0,1,.34.64,2.43,2.43,0,0,1,.12.79,2.88,2.88,0,0,1-.2,1.11,2.31,2.31,0,0,1-.57.86,2.74,2.74,0,0,1-.92.56,3.3,3.3,0,0,1-1.21.21,3.17,3.17,0,0,1-1.4-.31,2.41,2.41,0,0,0-.32.32.51.51,0,0,0-.12.32.38.38,0,0,0,.24.36,2.63,2.63,0,0,0,.65.17c.27,0,.58.05.92.06l1.05,0c.36,0,.71.08,1.05.14a3.54,3.54,0,0,1,.92.29,1.75,1.75,0,0,1,.65.55,1.59,1.59,0,0,1,.24.9,2.06,2.06,0,0,1-.17.81,1.68,1.68,0,0,1-.61.7,3.22,3.22,0,0,1-1.16.47,8,8,0,0,1-1.85.18,8.79,8.79,0,0,1-1.68-.14,3.78,3.78,0,0,1-1.08-.36,1.53,1.53,0,0,1-.58-.54,1.32,1.32,0,0,1-.18-.67,1.46,1.46,0,0,1,.25-.87,2.06,2.06,0,0,1,.74-.64A1.53,1.53,0,0,1,133,518a1,1,0,0,1-.22-.66,1.32,1.32,0,0,1,.3-.85,2.22,2.22,0,0,1,.8-.62,2.59,2.59,0,0,1-.59-.86,2.92,2.92,0,0,1-.21-1.13,3.1,3.1,0,0,1,.2-1.12,2.55,2.55,0,0,1,.58-.87,2.58,2.58,0,0,1,.92-.56,3.53,3.53,0,0,1,1.21-.19,4.45,4.45,0,0,1,.53,0,3.86,3.86,0,0,1,.49.1Zm-1.41,8.39a.56.56,0,0,0-.39-.55,3.46,3.46,0,0,0-1-.22,12.24,12.24,0,0,0-1.29-.09,9,9,0,0,1-1.32-.12,2.19,2.19,0,0,0-.49.53,1,1,0,0,0-.11.42.81.81,0,0,0,.52.73,4.52,4.52,0,0,0,1.87.27,4.05,4.05,0,0,0,1.7-.26A.79.79,0,0,0,138.48,519.69ZM136,515.6a1.5,1.5,0,0,0,1.13-.43,2.1,2.1,0,0,0,0-2.52,1.51,1.51,0,0,0-1.13-.44,1.47,1.47,0,0,0-1.12.44,2.18,2.18,0,0,0,0,2.52A1.46,1.46,0,0,0,136,515.6Z"/><path d="M148.08,516.23a3,3,0,0,1-.28,1.09,2.5,2.5,0,0,1-.66.85,3,3,0,0,1-1,.56,3.89,3.89,0,0,1-1.32.2,4.18,4.18,0,0,1-1.58-.27,3,3,0,0,1-1.1-.79,3.34,3.34,0,0,1-.63-1.23,6,6,0,0,1-.2-1.58,5.67,5.67,0,0,1,.21-1.59,3.47,3.47,0,0,1,.66-1.23,2.89,2.89,0,0,1,1.09-.79,3.85,3.85,0,0,1,1.54-.28,3.91,3.91,0,0,1,1.5.26,2.56,2.56,0,0,1,1,.77,3.19,3.19,0,0,1,.58,1.23,6.18,6.18,0,0,1,.19,1.61v.24h-5.28a2.92,2.92,0,0,0,.54,1.84,1.69,1.69,0,0,0,1.39.61,2,2,0,0,0,1.27-.38,1.6,1.6,0,0,0,.58-1.12Zm-1.47-1.92a2.3,2.3,0,0,0-.48-1.41,1.6,1.6,0,0,0-1.32-.56,1.85,1.85,0,0,0-1.35.49,2.28,2.28,0,0,0-.61,1.48Z"/><path d="M151.14,516.35a1.38,1.38,0,0,0,.56,1.14,2.25,2.25,0,0,0,1.23.32,1.76,1.76,0,0,0,1-.26.85.85,0,0,0,.37-.76.74.74,0,0,0-.33-.65,2.75,2.75,0,0,0-.81-.36c-.33-.08-.68-.16-1.06-.23a5.06,5.06,0,0,1-1.06-.34,2.23,2.23,0,0,1-.82-.63,1.82,1.82,0,0,1-.33-1.16,2.21,2.21,0,0,1,.18-.89,1.89,1.89,0,0,1,.52-.71,2.74,2.74,0,0,1,.88-.48,4,4,0,0,1,1.22-.17,3.22,3.22,0,0,1,2.14.64,2.5,2.5,0,0,1,.82,1.89h-1.46a1.42,1.42,0,0,0-.43-1.05,1.63,1.63,0,0,0-1.07-.33,1.84,1.84,0,0,0-.61.08.92.92,0,0,0-.4.23.78.78,0,0,0-.21.33.92.92,0,0,0-.07.36.67.67,0,0,0,.33.62,3.11,3.11,0,0,0,.82.34c.32.09.67.17,1,.25a4.71,4.71,0,0,1,1.06.35,2.25,2.25,0,0,1,.81.66,1.84,1.84,0,0,1,.33,1.16,2,2,0,0,1-.74,1.63,3.4,3.4,0,0,1-2.19.6,3.8,3.8,0,0,1-2.31-.61,2.46,2.46,0,0,1-.91-2Z"/><path d="M22.75,534.39h0a3,3,0,0,1-.92,1,2.63,2.63,0,0,1-1.49.37,3.12,3.12,0,0,1-1.38-.28,2.68,2.68,0,0,1-1-.8,3.53,3.53,0,0,1-.6-1.23,5.43,5.43,0,0,1-.21-1.55,5.67,5.67,0,0,1,.21-1.59,3.56,3.56,0,0,1,.62-1.23,2.9,2.9,0,0,1,1-.8,3.12,3.12,0,0,1,1.36-.28,2.78,2.78,0,0,1,1.47.35,3,3,0,0,1,.93.95h0v-4h1.49V535.6H22.75Zm-2,.2a1.72,1.72,0,0,0,1.54-.72,3.66,3.66,0,0,0,.48-2,3.48,3.48,0,0,0-.49-2,1.73,1.73,0,0,0-1.54-.71,1.84,1.84,0,0,0-1.53.71,4,4,0,0,0,0,4A1.84,1.84,0,0,0,20.74,534.59Z"/><path d="M26.65,528.1h1.5v4.5a2.59,2.59,0,0,0,.3,1.39,1.23,1.23,0,0,0,1.08.46,1.79,1.79,0,0,0,1.39-.56,2.17,2.17,0,0,0,.5-1.5V528.1h1.5v7.5h-1.5v-1.21h0a2.86,2.86,0,0,1-.91,1,2.56,2.56,0,0,1-1.44.36A2.16,2.16,0,0,1,27.2,535a3.19,3.19,0,0,1-.55-2Z"/><path d="M41.9,526.59H38.61v-1.36H46.8v1.36H43.53v9H41.9Z"/><path d="M51.61,535.73a4.18,4.18,0,0,1-1.54-.27,3.45,3.45,0,0,1-1.18-.79,3.73,3.73,0,0,1-.75-1.23,4.67,4.67,0,0,1-.26-1.58,4.73,4.73,0,0,1,.26-1.59,3.63,3.63,0,0,1,.75-1.23,3.31,3.31,0,0,1,1.18-.79,4,4,0,0,1,1.54-.28,4,4,0,0,1,1.55.28,3.23,3.23,0,0,1,1.18.79,3.5,3.5,0,0,1,.76,1.23,4.5,4.5,0,0,1,.27,1.59,4.44,4.44,0,0,1-.27,1.58,3.59,3.59,0,0,1-.76,1.23,3.36,3.36,0,0,1-1.18.79A4.24,4.24,0,0,1,51.61,535.73Zm0-1.16a2,2,0,0,0,1.64-.73,3,3,0,0,0,.59-2,3.08,3.08,0,0,0-.59-2,2.2,2.2,0,0,0-3.27,0,3.13,3.13,0,0,0-.59,2,3.09,3.09,0,0,0,.59,2A2,2,0,0,0,51.61,534.57Z"/><path d="M57.29,528.1h1.5v4.5A2.49,2.49,0,0,0,59.1,534a1.21,1.21,0,0,0,1.08.46,1.76,1.76,0,0,0,1.38-.56,2.13,2.13,0,0,0,.51-1.5V528.1h1.5v7.5h-1.5v-1.21h0a3,3,0,0,1-.91,1,2.6,2.6,0,0,1-1.44.36,2.18,2.18,0,0,1-1.85-.71,3.25,3.25,0,0,1-.55-2Z"/><path d="M66,528.1h1.5v1.17h0a3,3,0,0,1,.87-1,2.1,2.1,0,0,1,1.23-.34h.21a.87.87,0,0,1,.22,0v1.55l-.3-.07a2,2,0,0,0-.35,0A1.81,1.81,0,0,0,68,530a2,2,0,0,0-.52,1.49v4.11H66Z"/><path d="M80.89,534.39h0a2.92,2.92,0,0,1-.91,1,2.64,2.64,0,0,1-1.5.37,3.18,3.18,0,0,1-1.38-.28,2.85,2.85,0,0,1-1-.8,3.92,3.92,0,0,1-.6-1.23,5.82,5.82,0,0,1-.2-1.55,5.67,5.67,0,0,1,.21-1.59,3.55,3.55,0,0,1,.61-1.23,2.94,2.94,0,0,1,1-.8,3.09,3.09,0,0,1,1.36-.28,2.81,2.81,0,0,1,1.47.35,2.89,2.89,0,0,1,.92.95h0v-4h1.5V535.6h-1.5Zm-2,.2a1.71,1.71,0,0,0,1.53-.72,3.58,3.58,0,0,0,.49-2,3.48,3.48,0,0,0-.5-2,1.71,1.71,0,0,0-1.53-.71,1.82,1.82,0,0,0-1.53.71,3.28,3.28,0,0,0-.56,2,3.19,3.19,0,0,0,.55,2A1.82,1.82,0,0,0,78.89,534.59Z"/><path d="M91.11,533a3,3,0,0,1-.28,1.09,2.5,2.5,0,0,1-.66.85,3,3,0,0,1-1,.56,3.89,3.89,0,0,1-1.32.2,4.18,4.18,0,0,1-1.58-.27,3,3,0,0,1-1.1-.79,3.34,3.34,0,0,1-.63-1.23,5.6,5.6,0,0,1-.2-1.58,5.67,5.67,0,0,1,.21-1.59,3.64,3.64,0,0,1,.66-1.23,2.89,2.89,0,0,1,1.09-.79,3.85,3.85,0,0,1,1.54-.28,3.91,3.91,0,0,1,1.5.26,2.56,2.56,0,0,1,1,.77,3.19,3.19,0,0,1,.58,1.23,6.65,6.65,0,0,1,.19,1.61v.24H85.85a3,3,0,0,0,.53,1.84,1.72,1.72,0,0,0,1.4.61,2,2,0,0,0,1.27-.38,1.6,1.6,0,0,0,.58-1.12Zm-1.47-1.93a2.29,2.29,0,0,0-.48-1.4,1.6,1.6,0,0,0-1.32-.56,1.85,1.85,0,0,0-1.35.49,2.27,2.27,0,0,0-.61,1.47Z"/><path d="M97.46,525.23H104v1.36h-5v3.07h4.73V531H99.08v4.6H97.46Z"/><path d="M106.29,528.1h1.49v1.17h0a3,3,0,0,1,.86-1,2.14,2.14,0,0,1,1.23-.34h.22a.7.7,0,0,1,.21,0v1.55a1.77,1.77,0,0,0-.29-.07,2,2,0,0,0-.35,0,1.85,1.85,0,0,0-1.39.54,2.06,2.06,0,0,0-.52,1.49v4.11h-1.49Z"/><path d="M116.25,534.54h0a2.61,2.61,0,0,1-1,.86,3.46,3.46,0,0,1-1.59.33,3.22,3.22,0,0,1-1-.15,1.89,1.89,0,0,1-.73-.43,1.74,1.74,0,0,1-.45-.63,2.19,2.19,0,0,1-.14-.77,2,2,0,0,1,.36-1.26,2.24,2.24,0,0,1,.92-.68,4.48,4.48,0,0,1,1.21-.33c.44-.06.85-.13,1.23-.2s.5-.08.67-.12A1.24,1.24,0,0,0,116,531a.37.37,0,0,0,.17-.21,1.06,1.06,0,0,0,0-.33,1.23,1.23,0,0,0-.38-1,1.59,1.59,0,0,0-1.15-.37,1.91,1.91,0,0,0-1.17.32,1.49,1.49,0,0,0-.49,1.08h-1.44a3,3,0,0,1,.84-1.91,3.21,3.21,0,0,1,2.27-.68,3.09,3.09,0,0,1,2.29.74,3.06,3.06,0,0,1,.73,2.25v4.64h-1.5Zm0-2.6a11.07,11.07,0,0,1-1.2.24,11,11,0,0,0-1.14.22,2.15,2.15,0,0,0-.85.38.86.86,0,0,0-.33.73,1,1,0,0,0,.38.79,1.54,1.54,0,0,0,1,.29,2.65,2.65,0,0,0,.87-.14,2,2,0,0,0,.69-.4,1.76,1.76,0,0,0,.46-.62,2.19,2.19,0,0,0,.16-.83Z"/><path d="M120,528.1h1.5v1.18h0A2.58,2.58,0,0,1,124,528a2.28,2.28,0,0,1,1.9.71,3.29,3.29,0,0,1,.55,2v4.91H125v-4.5a2.38,2.38,0,0,0-.33-1.38,1.28,1.28,0,0,0-1.13-.47,1.92,1.92,0,0,0-1.44.56,2.1,2.1,0,0,0-.53,1.5v4.29H120Z"/><path d="M135.18,532.84a2.89,2.89,0,0,1-.92,2.15,3.4,3.4,0,0,1-2.33.74,4.11,4.11,0,0,1-1.56-.27,2.83,2.83,0,0,1-1.11-.8,3.47,3.47,0,0,1-.66-1.23,5.47,5.47,0,0,1-.21-1.57,5,5,0,0,1,.23-1.59,3.49,3.49,0,0,1,.67-1.23,2.85,2.85,0,0,1,1.1-.79,3.83,3.83,0,0,1,1.53-.28,3.42,3.42,0,0,1,2.33.75,3,3,0,0,1,.93,2.17h-1.49a1.84,1.84,0,0,0-.54-1.25,1.75,1.75,0,0,0-1.25-.44,1.79,1.79,0,0,0-1.48.65,3.15,3.15,0,0,0-.52,2,3.26,3.26,0,0,0,.51,2,1.79,1.79,0,0,0,1.49.66,1.62,1.62,0,0,0,1.79-1.66Z"/><path d="M143.58,533a2.83,2.83,0,0,1-.28,1.09,2.5,2.5,0,0,1-.66.85,3,3,0,0,1-1,.56,3.86,3.86,0,0,1-1.32.2,4.18,4.18,0,0,1-1.58-.27,2.92,2.92,0,0,1-1.09-.79,3.35,3.35,0,0,1-.64-1.23,6,6,0,0,1-.2-1.58,5.32,5.32,0,0,1,.22-1.59,3.45,3.45,0,0,1,.65-1.23,2.85,2.85,0,0,1,1.1-.79,3.77,3.77,0,0,1,1.53-.28,3.91,3.91,0,0,1,1.5.26,2.66,2.66,0,0,1,1,.77,3.34,3.34,0,0,1,.58,1.23,6.67,6.67,0,0,1,.18,1.61v.24h-5.28a2.92,2.92,0,0,0,.54,1.84,1.7,1.7,0,0,0,1.39.61,2,2,0,0,0,1.27-.38,1.6,1.6,0,0,0,.58-1.12Zm-1.47-1.93a2.18,2.18,0,0,0-.48-1.4,1.6,1.6,0,0,0-1.32-.56,1.85,1.85,0,0,0-1.35.49,2.33,2.33,0,0,0-.61,1.47Z"/><path d="M17.69,551.11H20v-7.24l-2.25,1.44-.69-1.09L20.35,542h1.22v9.08h2v1.29h-5.9Z"/><path d="M26.59,549.26a2.49,2.49,0,0,0,.57,1.48,1.71,1.71,0,0,0,1.36.53,2.13,2.13,0,0,0,.88-.18,1.62,1.62,0,0,0,.71-.65,3.76,3.76,0,0,0,.49-1.28,10.81,10.81,0,0,0,.17-2.08,2.24,2.24,0,0,1-1,1,3.21,3.21,0,0,1-1.6.37,3.88,3.88,0,0,1-1.24-.2,3,3,0,0,1-1-.61,2.84,2.84,0,0,1-.69-1A3.52,3.52,0,0,1,25,545.3a3.92,3.92,0,0,1,.24-1.4,3.06,3.06,0,0,1,.7-1.07,3.12,3.12,0,0,1,1.11-.69,4.18,4.18,0,0,1,1.46-.24,3.86,3.86,0,0,1,1.55.29,2.92,2.92,0,0,1,1.17.93,4.5,4.5,0,0,1,.73,1.62,9.61,9.61,0,0,1,.26,2.38,7.06,7.06,0,0,1-1,4.08,3.24,3.24,0,0,1-2.83,1.33,3.35,3.35,0,0,1-2.41-.85,3.4,3.4,0,0,1-1-2.42Zm1.89-2a1.88,1.88,0,0,0,1.41-.54,1.94,1.94,0,0,0,.53-1.44,2.32,2.32,0,0,0-.14-.84,1.94,1.94,0,0,0-.39-.67,1.9,1.9,0,0,0-1.44-.61,2,2,0,0,0-.79.15,1.8,1.8,0,0,0-.61.44,1.7,1.7,0,0,0-.4.66,2.21,2.21,0,0,0-.14.82,2,2,0,0,0,.53,1.46A1.88,1.88,0,0,0,28.48,547.24Z"/><path d="M36.72,552.53a3.44,3.44,0,0,1-1.44-.3,3,3,0,0,1-1.16-.94,5.07,5.07,0,0,1-.79-1.65,10.64,10.64,0,0,1,0-4.85,5.07,5.07,0,0,1,.79-1.65,3,3,0,0,1,1.16-.94,3.44,3.44,0,0,1,1.44-.3,3.49,3.49,0,0,1,1.43.3,3.15,3.15,0,0,1,1.17.94,4.87,4.87,0,0,1,.78,1.65,10.28,10.28,0,0,1,0,4.85,4.87,4.87,0,0,1-.78,1.65,3.15,3.15,0,0,1-1.17.94A3.49,3.49,0,0,1,36.72,552.53Zm0-1.27a1.78,1.78,0,0,0,.78-.18,1.63,1.63,0,0,0,.67-.64,4.26,4.26,0,0,0,.46-1.25,11.56,11.56,0,0,0,0-4,4.19,4.19,0,0,0-.46-1.24,1.66,1.66,0,0,0-.67-.65,1.78,1.78,0,0,0-.78-.18,1.84,1.84,0,0,0-.8.18,1.64,1.64,0,0,0-.66.65,3.7,3.7,0,0,0-.46,1.24,11.56,11.56,0,0,0,0,4,3.76,3.76,0,0,0,.46,1.25,1.61,1.61,0,0,0,.66.64A1.84,1.84,0,0,0,36.72,551.26Z"/><path d="M42.66,549.09a2.38,2.38,0,0,0,.69,1.64,2.25,2.25,0,0,0,1.59.54,2.13,2.13,0,0,0,1.48-.46,1.7,1.7,0,0,0,.51-1.31,1.81,1.81,0,0,0-.49-1.34,1.77,1.77,0,0,0-1.33-.49H43.73v-1.24h1A1.58,1.58,0,0,0,46,546a1.72,1.72,0,0,0,.44-1.19,1.6,1.6,0,0,0-.43-1.14,1.56,1.56,0,0,0-1.23-.48,1.63,1.63,0,0,0-1.3.54,2.52,2.52,0,0,0-.54,1.51H41.35a3.37,3.37,0,0,1,1-2.46,3.53,3.53,0,0,1,2.48-.84,4.21,4.21,0,0,1,1.34.19,3,3,0,0,1,1,.54,2.39,2.39,0,0,1,.61.83,2.59,2.59,0,0,1,.21,1,2.46,2.46,0,0,1-.34,1.33,2.65,2.65,0,0,1-1,.93,2.8,2.8,0,0,1,1.33,1,2.9,2.9,0,0,1,.47,1.69,3.3,3.3,0,0,1-.23,1.24,2.56,2.56,0,0,1-.7,1,3.29,3.29,0,0,1-1.14.62,5.4,5.4,0,0,1-1.58.21,4.69,4.69,0,0,1-1.63-.25,3,3,0,0,1-1.12-.7,3,3,0,0,1-.67-1.09,5,5,0,0,1-.26-1.4Z"/><path d="M53.75,547.28h5.61v1.23H53.75Z"/><path d="M65,551.14c.77-.77,1.47-1.44,2.1-2s1.15-1.1,1.59-1.58a7.61,7.61,0,0,0,1-1.35,2.61,2.61,0,0,0,.36-1.31,1.77,1.77,0,0,0-.43-1.24,1.64,1.64,0,0,0-1.26-.47,1.82,1.82,0,0,0-1.36.52,2.45,2.45,0,0,0-.59,1.57H64.81a4.23,4.23,0,0,1,.3-1.39,3.24,3.24,0,0,1,.71-1,2.92,2.92,0,0,1,1.07-.68,3.93,3.93,0,0,1,1.41-.24,4.55,4.55,0,0,1,1.46.21,3,3,0,0,1,1,.61,2.44,2.44,0,0,1,.6.94,3.5,3.5,0,0,1,.2,1.19,3.4,3.4,0,0,1-.38,1.57,7.27,7.27,0,0,1-1,1.45c-.44.49-.93,1-1.49,1.51s-1.15,1.09-1.75,1.72h4.71v1.28H65Z"/><path d="M76.41,552.53a3.43,3.43,0,0,1-1.43-.3,3,3,0,0,1-1.16-.94,4.7,4.7,0,0,1-.79-1.65,10.28,10.28,0,0,1,0-4.85,4.7,4.7,0,0,1,.79-1.65A3,3,0,0,1,75,542.2a3.56,3.56,0,0,1,2.86,0,3,3,0,0,1,1.17.94,4.88,4.88,0,0,1,.79,1.65,10.28,10.28,0,0,1,0,4.85,4.88,4.88,0,0,1-.79,1.65,3,3,0,0,1-1.17.94A3.43,3.43,0,0,1,76.41,552.53Zm0-1.27a1.86,1.86,0,0,0,.79-.18,1.61,1.61,0,0,0,.66-.64,4,4,0,0,0,.47-1.25,11.56,11.56,0,0,0,0-4,3.92,3.92,0,0,0-.47-1.24,1.64,1.64,0,0,0-.66-.65,1.86,1.86,0,0,0-.79-.18,1.82,1.82,0,0,0-.79.18A1.66,1.66,0,0,0,75,544a3.94,3.94,0,0,0-.45,1.24,11.56,11.56,0,0,0,0,4,4,4,0,0,0,.45,1.25,1.63,1.63,0,0,0,.67.64A1.82,1.82,0,0,0,76.41,551.26Z"/><path d="M81.77,551.11h2.31v-7.24l-2.25,1.44-.69-1.09L84.43,542h1.22v9.08h2v1.29h-5.9Z"/><path d="M90.67,549.26a2.49,2.49,0,0,0,.57,1.48,1.71,1.71,0,0,0,1.36.53,2.13,2.13,0,0,0,.88-.18,1.62,1.62,0,0,0,.71-.65,3.76,3.76,0,0,0,.49-1.28,10.81,10.81,0,0,0,.17-2.08,2.24,2.24,0,0,1-1,1,3.21,3.21,0,0,1-1.6.37,3.88,3.88,0,0,1-1.24-.2,3,3,0,0,1-1-.61,2.84,2.84,0,0,1-.69-1,3.52,3.52,0,0,1-.25-1.39,3.92,3.92,0,0,1,.24-1.4,3.06,3.06,0,0,1,.7-1.07,3.12,3.12,0,0,1,1.11-.69,4.18,4.18,0,0,1,1.46-.24,3.86,3.86,0,0,1,1.55.29,2.92,2.92,0,0,1,1.17.93,4.5,4.5,0,0,1,.73,1.62,9.61,9.61,0,0,1,.26,2.38,7.06,7.06,0,0,1-1,4.08,3.24,3.24,0,0,1-2.83,1.33,3.35,3.35,0,0,1-2.41-.85,3.4,3.4,0,0,1-1-2.42Zm1.89-2A1.88,1.88,0,0,0,94,546.7a1.94,1.94,0,0,0,.53-1.44,2.32,2.32,0,0,0-.14-.84,1.94,1.94,0,0,0-.39-.67,1.9,1.9,0,0,0-1.44-.61,2,2,0,0,0-.79.15,1.8,1.8,0,0,0-.61.44,1.7,1.7,0,0,0-.4.66,2.21,2.21,0,0,0-.14.82,2,2,0,0,0,.53,1.46A1.88,1.88,0,0,0,92.56,547.24Z"/><circle class="cls-6" cx="104.92" cy="638.77" r="50"/><circle class="cls-6" cx="104.92" cy="638.77" r="37.5"/><circle class="cls-6" cx="104.92" cy="638.77" r="25"/><circle class="cls-6" cx="104.92" cy="638.77" r="12.5"/><circle class="cls-6" cx="104.92" cy="638.77" r="6.25"/><path class="cls-7" d="M33.62,595.11H32.56v-.76h1.06v-1.23h.78v1.23h1.07v.76H34.4v1.26h-.78Z"/><path class="cls-7" d="M37.76,597.22l1.47-2.84a4.2,4.2,0,0,0,.66-1.85c0-.54-.2-.72-.58-.72s-.65.4-.65,1.1v.38h-.78a3.67,3.67,0,0,1-.11-.8,1.4,1.4,0,0,1,1.54-1.41c1.17,0,1.64.56,1.64,1.51a3.75,3.75,0,0,1-.72,1.92L38.92,597h1.95v.8H37.76Z"/><path class="cls-7" d="M41.64,593c0-1.75,1-2,1.65-2s1.62.18,1.62,2v2.82c0,1.75-1,2-1.62,2s-1.65-.25-1.65-2Zm1.65,4c.4,0,.6-.24.6-.79v-3.61c0-.58-.2-.84-.6-.84s-.61.26-.61.84v3.61C42.68,596.84,42.88,597.08,43.29,597.08Z"/><path class="cls-7" d="M22.65,607.62h.77v-4.56l-.82.74-.44-.52,1.51-1.57h.76v5.91h.77v.76H22.65Z"/><path class="cls-7" d="M25.89,607.62h.78v-4.56l-.83.74-.44-.52,1.52-1.57h.75v5.91h.77v.76H25.89Z"/><path class="cls-7" d="M30.75,604.91h4.4v.79h-4.4Z"/><path class="cls-7" d="M37.76,607.78,39.23,605a4.24,4.24,0,0,0,.66-1.85c0-.55-.2-.72-.58-.72s-.65.4-.65,1.1v.38h-.78a3.67,3.67,0,0,1-.11-.8,1.4,1.4,0,0,1,1.54-1.41c1.17,0,1.64.56,1.64,1.51a3.75,3.75,0,0,1-.72,1.92l-1.31,2.5h1.95v.8H37.76Z"/><path class="cls-7" d="M41.64,603.61c0-1.76,1-2,1.65-2s1.62.17,1.62,2v2.82c0,1.75-1,2-1.62,2s-1.65-.25-1.65-2Zm1.65,4c.4,0,.6-.24.6-.79v-3.62c0-.57-.2-.83-.6-.83s-.61.26-.61.83v3.62C42.68,607.41,42.88,607.65,43.29,607.65Z"/><path class="cls-7" d="M25.74,617.81h.79v.54c0,.64.18.9.59.9s.59-.32.59-.9v-1.29c0-.66-.24-.79-.55-.79a.72.72,0,0,0-.63.41h-.75v-3.4h2.87v.89h-2v1.65a1.29,1.29,0,0,1,.93-.4c.83,0,1.2.57,1.2,1.65v1.13c0,1.38-.76,1.81-1.58,1.81a1.36,1.36,0,0,1-1.53-1.43A3.13,3.13,0,0,1,25.74,617.81Z"/><path class="cls-7" d="M31.38,616.48h4.4v.79h-4.4Z"/><path class="cls-7" d="M38.59,619.19h.77v-4.55l-.83.73-.44-.51,1.52-1.58h.75v5.91h.77V620H38.59Z"/><path class="cls-7" d="M41.64,615.18c0-1.75,1-2,1.65-2s1.62.18,1.62,2V618c0,1.75-1,2-1.62,2s-1.65-.25-1.65-2Zm1.65,4c.4,0,.6-.24.6-.79v-3.61c0-.58-.2-.84-.6-.84s-.61.26-.61.84v3.61C42.68,619,42.88,619.22,43.29,619.22Z"/><path class="cls-7" d="M42.67,641.33h.78v-4.55l-.83.73-.44-.51,1.52-1.58h.75v5.9h.77v.76H42.67Z"/><line class="cls-8" x1="48.04" y1="595.47" x2="104.04" y2="595.47"/><line class="cls-8" x1="48.04" y1="606.47" x2="104.04" y2="606.47"/><line class="cls-8" x1="48.04" y1="618.47" x2="104.04" y2="618.47"/><path class="cls-7" d="M29,630.36l1.47-2.84a4.2,4.2,0,0,0,.66-1.85c0-.54-.2-.72-.58-.72s-.65.4-.65,1.1v.38h-.78a3.67,3.67,0,0,1-.11-.8,1.4,1.4,0,0,1,1.54-1.41c1.17,0,1.64.56,1.64,1.51a3.75,3.75,0,0,1-.72,1.92l-1.31,2.5h1.95v.8H29Z"/><path class="cls-7" d="M34.69,627.48h4.4v.79h-4.4Z"/><path class="cls-7" d="M41.89,628.81h.79v.54c0,.64.17.9.59.9s.59-.32.59-.9v-1.29c0-.66-.24-.79-.55-.79a.74.74,0,0,0-.64.41h-.74v-3.4H44.8v.89h-2v1.65a1.29,1.29,0,0,1,.93-.4c.83,0,1.2.57,1.2,1.65v1.13c0,1.38-.76,1.81-1.58,1.81a1.36,1.36,0,0,1-1.53-1.43A3.13,3.13,0,0,1,41.89,628.81Z"/><line class="cls-8" x1="48.04" y1="629.47" x2="104.04" y2="629.47"/><line class="cls-8" x1="48.04" y1="640.47" x2="104.04" y2="640.47"/></g></g></svg>