<?xml version="1.0" encoding="utf-8"?>
<!-- Generator: Adobe Illustrator 19.0.0, SVG Export Plug-In . SVG Version: 6.00 Build 0)  -->
<svg version="1.1" id="Calque_1" xmlns="http://www.w3.org/2000/svg" xmlns:xlink="http://www.w3.org/1999/xlink" x="0px" y="0px"
	 viewBox="0 0 769.3 801.5" style="enable-background:new 0 0 769.3 801.5;" xml:space="preserve">
<style type="text/css">
	.st0{fill:#E2E8F2;}
	.st1{fill:#FFFFFF;stroke:#F4D7CB;stroke-linecap:round;stroke-linejoin:round;stroke-miterlimit:10;}
	.st2{fill:#EBB7A5;stroke:#F4D7CB;stroke-linecap:round;stroke-linejoin:round;stroke-miterlimit:10;}
	.st3{opacity:0.2;fill:#3C63AA;}
</style>
<g id="XMLID_910_">
	<rect id="XMLID_1430_" x="0.2" class="st0" width="769.1" height="802"/>
	<path id="France_4_" class="st1" d="M748.9,744.1l-26.5-11l-14.8,0.8l-40.2,11.3l-24.6-18l-6.6-4.8l-59.7,10.7l0.1,0l-0.1,0l0.1,0
		l-23.7-17.4l-8.7-24.8l-81.3-32l-1.7-103H442l-19.3,44l-45.9,19.2l-32.9-11.5v0l-19.9,0.3h0l-2.2-7.3l19.7-14.7l-1.6-53.8
		l-35.5-33.1l-55.6,2.6l-6,9.8l-7-0.1l1.3-34.8l-34.6-25.1l-20,8.7l-20.7-9.1l-4.5-52.6l-17.8-22.1l-37.7,8.7l-24,14.6L67,378.8
		l-9.8-11l-19.8-11l7.1-27.8l-16.8-40.9l-28,7.4V802h769v-49.5L748.9,744.1z M375.8,800.7l-1,0h0.6l-0.1,0l0.1,0L375.8,800.7
		L375.8,800.7z"/>
	<polygon id="XMLID_1171_" class="st1" points="654.3,700 645.1,724.8 658.8,712 	"/>
	<polygon id="XMLID_1166_" class="st2" points="376.9,618.9 422.6,600 442,556 461.2,556 462.9,659 544.1,691.2 552.8,715.8 
		576.5,733.2 636.2,722.5 642.8,727.2 645,724.9 645.1,724.8 658.8,712 626.1,623.8 674.1,538 697.1,551.6 742.5,492.2 733.2,458.7 
		707.4,442.1 714.3,424.2 715,422.5 669.5,373.4 612.5,377.6 636.6,260.9 562.2,224.4 522.6,230.3 490.9,175.5 439.4,188.6 
		397.3,175.5 339.1,204.6 285.9,208.5 211,191 158.6,207.4 27.8,288.1 27.8,289 28.1,289 44.6,329.5 37.5,357.1 57.2,367.9 
		67,378.9 77.7,399.8 101.7,385.2 139.4,376.5 157.2,398.5 161.7,451.2 182.4,460.3 202.4,451.5 237,476.6 235.7,511.4 242.7,511.5 
		248.7,501.7 304.3,499.1 339.8,532.2 341.4,585.9 321.7,600.5 323.9,607.5 344.1,607.7 	"/>
	<circle id="Bruxelles" class="st3" cx="371" cy="350.2" r="50"/>
	<circle id="Charleroi" class="st3" cx="375.4" cy="487.7" r="37.5"/>
	<circle id="Forest" class="st3" cx="365.6" cy="362.7" r="37.5"/>
	<circle id="Jambes" class="st3" cx="446" cy="468.5" r="25"/>
	<circle id="Namur" class="st3" cx="446" cy="454.3" r="25"/>
	<circle id="Anvers" class="st3" cx="382.3" cy="217.3" r="25"/>
	<circle id="Gand" class="st3" cx="237.6" cy="272.2" r="25"/>
	<circle id="Tournai" class="st3" cx="183" cy="433.2" r="25"/>
	<circle id="Molenbeek-Saint-Jean" class="st3" cx="357.3" cy="345.3" r="12.5"/>
	<circle id="Louvain" class="st3" cx="462.5" cy="320.3" r="12.5"/>
	<circle id="Harelbeke" class="st3" cx="158" cy="345.3" r="12.5"/>
	<path id="Bastogne" class="st3" d="M617.9,624.8c-2.5,0-4.5-2-4.5-4.5s2-4.5,4.5-4.5s4.5,2,4.5,4.5S620.3,624.8,617.9,624.8z"/>
	<path id="Beauraing" class="st3" d="M479.9,567.8c-2.5,0-4.5-2-4.5-4.5s2-4.5,4.5-4.5s4.5,2,4.5,4.5S482.3,567.8,479.9,567.8z"/>
	<path id="Beringen" class="st3" d="M567.9,296.8c-2.5,0-4.5-2-4.5-4.5s2-4.5,4.5-4.5s4.5,2,4.5,4.5S570.3,296.8,567.9,296.8z"/>
	<circle id="Herentals" class="st3" cx="428.9" cy="234.3" r="12.5"/>
	<path id="Ciney" class="st3" d="M483.9,542.8c-2.5,0-4.5-2-4.5-4.5s2-4.5,4.5-4.5s4.5,2,4.5,4.5S486.3,542.8,483.9,542.8z"/>
	<path id="Waregem" class="st3" d="M170.9,349.8c-2.5,0-4.5-2-4.5-4.5s2-4.5,4.5-4.5s4.5,2,4.5,4.5S173.3,349.8,170.9,349.8z"/>
	<path id="Waterloo" class="st3" d="M386.9,391.8c-2.5,0-4.5-2-4.5-4.5s2-4.5,4.5-4.5s4.5,2,4.5,4.5S389.3,391.8,386.9,391.8z"/>
	<path id="Ypres" class="st3" d="M93.9,354.8c-2.5,0-4.5-2-4.5-4.5s2-4.5,4.5-4.5s4.5,2,4.5,4.5S96.3,354.8,93.9,354.8z"/>
	<path id="Bornem" class="st3" d="M332.9,263.8c-2.5,0-4.5-2-4.5-4.5s2-4.5,4.5-4.5s4.5,2,4.5,4.5S335.3,263.8,332.9,263.8z"/>
	<path id="Marche_en_Famenne" class="st3" d="M587.9,524.8c-2.5,0-4.5-2-4.5-4.5s2-4.5,4.5-4.5s4.5,2,4.5,4.5
		S590.3,524.8,587.9,524.8z"/>
	<path id="Mouscron" class="st3" d="M157.9,390.8c-2.5,0-4.5-2-4.5-4.5s2-4.5,4.5-4.5s4.5,2,4.5,4.5S160.3,390.8,157.9,390.8z"/>
	<path id="Dinant" class="st3" d="M466.9,542.8c-2.5,0-4.5-2-4.5-4.5s2-4.5,4.5-4.5s4.5,2,4.5,4.5S469.3,542.8,466.9,542.8z"/>
	<path id="Mons" class="st3" d="M299.9,472.8c-2.5,0-4.5-2-4.5-4.5s2-4.5,4.5-4.5s4.5,2,4.5,4.5S302.3,472.8,299.9,472.8z"/>
	<path id="Arlon" class="st3" d="M644.9,704.8c-2.5,0-4.5-2-4.5-4.5s2-4.5,4.5-4.5s4.5,2,4.5,4.5S647.3,704.8,644.9,704.8z"/>
	<circle id="Huy" class="st3" cx="524.1" cy="432.5" r="12.5"/>
	<circle id="Saint-Nicolas" class="st3" cx="323.9" cy="242.3" r="12.5"/>
	<circle id="Woluwé-Saint-Pierre" class="st3" cx="382.3" cy="354" r="12.5"/>
	<polygon id="XMLID_3416_" class="st1" points="749.3,743.2 749.5,744.1 749.8,744.1 749.8,744.1 768.8,752.4 768.8,689.9 
		744.3,724.9 	"/>
	<polygon id="Allemagne_4_" class="st1" points="720.4,620.7 720.2,620.7 768.8,640.7 768.8,42.3 726.7,59.9 686.9,42 651.4,62.5 
		720.5,183.3 716.9,192.3 679.7,286.6 682.3,341 682.3,341 669.4,373.1 714.8,422.4 714.8,422.4 714.8,422.5 714.2,424.2 
		707.4,442.1 733.2,458.7 742.4,492.2 696.8,551.6 696.8,551.6 696.8,585.7 	"/>
	<polygon id="Pays-Bas_4_" class="st1" points="682.3,341.5 679.7,286.8 716.9,192.3 720.5,183.3 651.5,62.5 651.5,62.5 687,42 
		726.7,59.9 768.8,42.3 768.8,1 336.8,1 321.9,22 251.9,97.9 192.7,157.3 211,191 285.9,208.5 339.1,204.6 397.3,175.5 439.4,188.6 
		490.9,175.5 522.6,230.3 562.2,224.4 636.6,260.9 612.5,377.6 669.5,373.4 669.5,373.4 669.5,373.4 	"/>
	<polygon id="Luxembourg_5_" class="st1" points="722.5,733.1 722.6,733.1 749.3,744.1 749.3,743.2 744.3,724.9 768.8,689.9 
		768.8,640.7 720.2,620.9 720.3,621 720.3,621 720.3,621 696.8,585.7 696.8,551.6 674,538 626.1,623.8 654.3,700 658.8,712 
		645.1,724.8 645,724.9 642.8,727.2 667.4,745.1 707.6,734 722.5,733.1 	"/>
	<polygon id="XMLID_3433_" class="st1" points="576.6,733.2 576.5,733.1 576.5,733.1 	"/>
	<polygon id="XMLID_3437_" class="st1" points="375.3,800.6 375.4,800.7 374.7,800.7 375.8,800.7 375.8,800.7 375.4,800.7 	"/>
	<polygon id="XMLID_3438_" class="st1" points="28,288.2 28,288.2 28,288.2 	"/>
	<circle id="Liège" class="st3" cx="606.9" cy="400.2" r="50"/>
	<circle id="Spa-Francorchamps" class="st3" cx="651.5" cy="450.2" r="25"/>
	<path id="Hasselt" class="st3" d="M584.9,324.8c-2.5,0-4.5-2-4.5-4.5s2-4.5,4.5-4.5s4.5,2,4.5,4.5S587.3,324.8,584.9,324.8z"/>
	<path id="Verviers" class="st3" d="M644.9,404.8c-2.5,0-4.5-2-4.5-4.5s2-4.5,4.5-4.5s4.5,2,4.5,4.5S647.3,404.8,644.9,404.8z"/>
	<path id="Visé" class="st3" d="M606.9,386.8c-2.5,0-4.5-2-4.5-4.5s2-4.5,4.5-4.5s4.5,2,4.5,4.5S609.3,386.8,606.9,386.8z"/>
	<circle id="Seraing" class="st3" cx="597" cy="416.2" r="12.5"/>
	<path id="Wanze" class="st3" d="M531.9,436.8c-2.5,0-4.5-2-4.5-4.5s2-4.5,4.5-4.5s4.5,2,4.5,4.5S534.3,436.8,531.9,436.8z"/>
</g>
</svg>
