<?xml version="1.0" encoding="utf-8"?>
<!-- Generator: Adobe Illustrator 19.1.0, SVG Export Plug-In . SVG Version: 6.00 Build 0)  -->
<svg version="1.1" id="Calque_1" xmlns="http://www.w3.org/2000/svg" xmlns:xlink="http://www.w3.org/1999/xlink" x="0px" y="0px"
	 viewBox="79 -4 769 801" style="enable-background:new 79 -4 769 801;" xml:space="preserve">
<style type="text/css">
	.st0{fill:#EDE6D8;stroke:#FFFFFF;stroke-miterlimit:10;}
	.st1{fill:none;stroke:#FFFFFF;stroke-linecap:round;stroke-linejoin:round;stroke-miterlimit:10;}
	.st2{fill:#FFFFFF;stroke:#F3D6CA;stroke-linecap:round;stroke-linejoin:round;stroke-miterlimit:10;}
	.st3{fill:#FFFFFF;}
	.st4{opacity:0.2;fill:#00A5AC;enable-background:new    ;}
	.st5{fill:none;}
	.st6{enable-background:new    ;}
	.st7{fill:#00A5AC;}
	.st8{fill:none;stroke:#00A5AC;stroke-miterlimit:10;}
</style>
<g id="XMLID_910_">
	<rect id="XMLID_1430_" x="79.5" y="-3.5" class="st0" width="768" height="800"/>
	<path id="France_4_" class="st1" d="M826.9,738.8l-26.4-11l-14.7,0.8l-40.1,11.2l-24.5-18l-6.6-4.8L655,727.8h0.1H655h0.1
		l-23.7-17.4l-8.7-24.7L541.5,654l-1.7-102.5h-19.2l-19.3,43.7l-45.9,19.1l-32.9-11.5l0,0l-19.8-0.2l0,0l-2.2-7l19.7-14.5l-1.6-53.6
		l-35.5-33l-55.6,2.6l-6,9.8l-7-0.1l1.3-34.7l-34.6-25l-19.9,8.7l-20.7-9.1l-4.5-52.5l-17.7-22l-37.7,8.7l-23.9,14.5L146,374.5
		l-9.7-11l-19.8-10.9l7.1-27.7l-16.5-40.8l-27.7,7.4v505.1h767v-49.4L826.9,738.8z M454.6,795.2h-1h0.6h-0.1h0.1H454.6L454.6,795.2z
		"/>
	<polygon id="XMLID_1171_" class="st2" points="732.7,694.8 723.4,719.5 737.1,706.7 	"/>
	<polygon id="XMLID_1166_" class="st3" points="455.6,613.9 501.3,595.4 520.6,552 539.8,552 541.5,654.3 622.6,686.2 631.3,710.6 
		654.9,727.9 714.6,717.2 721.2,721.9 723.3,719.6 723.4,719.5 737.1,706.7 704.5,618.7 752.5,533.2 775.4,546.7 820.8,487.4 
		811.5,454 785.7,437.5 792.6,419.6 793.3,417.9 747.8,368.9 691,373.1 715,256.7 640.7,220.4 601.2,226.2 569.5,171.5 518,184.6 
		476,171.5 417.9,200.6 364.8,204.5 290,187 237.6,203.3 107,283.9 107,285 107.4,285 123.8,325.3 116.7,352.7 136.4,363.5 
		146.2,374.5 156.9,395.3 180.8,380.7 218.5,372 236.3,394 240.8,446.6 261.4,455.6 281.4,446.9 315.9,471.9 314.6,506.6 
		321.6,506.7 327.6,496.9 383.2,494.4 418.6,527.3 420.2,580.9 400.5,595.5 402.7,602.5 422.9,602.7 	"/>
	<ellipse id="Liège" class="st4" cx="685.3" cy="395.7" rx="49.9" ry="49.9"/>
	<ellipse id="Bruxelles" class="st4" cx="449.7" cy="345.8" rx="49.9" ry="49.9"/>
	<ellipse id="Charleroi" class="st4" cx="454.1" cy="482.9" rx="37.4" ry="37.4"/>
	<ellipse id="Forest" class="st4" cx="444.4" cy="358.2" rx="37.4" ry="37.4"/>
	<ellipse id="Jambes" class="st4" cx="524.6" cy="463.8" rx="25" ry="24.9"/>
	<ellipse id="Namur" class="st4" cx="524.6" cy="449.7" rx="25" ry="24.9"/>
	<ellipse id="Anvers" class="st4" cx="461" cy="213.3" rx="25" ry="24.9"/>
	<ellipse id="Gand" class="st4" cx="316.6" cy="268" rx="25" ry="24.9"/>
	<ellipse id="Tournai" class="st4" cx="262" cy="428.6" rx="25" ry="24.9"/>
	<ellipse id="Spa-Francorchamps" class="st4" cx="729.9" cy="445.5" rx="25" ry="24.9"/>
	<ellipse id="Molenbeek-Saint-Jean" class="st4" cx="436.1" cy="340.9" rx="12.5" ry="12.5"/>
	<ellipse id="Louvain" class="st4" cx="541.2" cy="316" rx="12.5" ry="12.5"/>
	<ellipse id="Harelbeke" class="st4" cx="237" cy="340.9" rx="12.5" ry="12.5"/>
	<path id="Bastogne" class="st4" d="M696.3,619.7c-2.5,0-4.5-2-4.5-4.5s2-4.5,4.5-4.5s4.5,2,4.5,4.5S698.8,619.7,696.3,619.7z"/>
	<path id="Beauraing" class="st4" d="M558.5,562.9c-2.5,0-4.5-2-4.5-4.5s2-4.5,4.5-4.5s4.5,2,4.5,4.5S560.9,562.9,558.5,562.9z"/>
	<path id="Beringen" class="st4" d="M646.3,292.5c-2.5,0-4.5-2-4.5-4.5s2-4.5,4.5-4.5s4.5,2,4.5,4.5S648.8,292.5,646.3,292.5z"/>
	<path id="Hasselt" class="st4" d="M663.3,320.5c-2.5,0-4.5-2-4.5-4.5s2-4.5,4.5-4.5s4.5,2,4.5,4.5S665.8,320.5,663.3,320.5z"/>
	<ellipse id="Herentals" class="st4" cx="507.5" cy="230.2" rx="12.5" ry="12.5"/>
	<path id="Wanze" class="st4" d="M610.4,432.2c-2.5,0-4.5-2-4.5-4.5s2-4.5,4.5-4.5s4.5,2,4.5,4.5S612.9,432.2,610.4,432.2z"/>
	<path id="Ciney" class="st4" d="M562.5,537.9c-2.5,0-4.5-2-4.5-4.5s2-4.5,4.5-4.5s4.5,2,4.5,4.5S564.9,537.9,562.5,537.9z"/>
	<path id="Waregem" class="st4" d="M249.9,345.4c-2.5,0-4.5-2-4.5-4.5s2-4.5,4.5-4.5s4.5,2,4.5,4.5S252.4,345.4,249.9,345.4z"/>
	<path id="Waterloo" class="st4" d="M465.6,387.3c-2.5,0-4.5-2-4.5-4.5s2-4.5,4.5-4.5s4.5,2,4.5,4.5S468.1,387.3,465.6,387.3z"/>
	<path id="Ypres" class="st4" d="M173,350.4c-2.5,0-4.5-2-4.5-4.5s2-4.5,4.5-4.5s4.5,2,4.5,4.5S175.5,350.4,173,350.4z"/>
	<path id="Bornem" class="st4" d="M411.7,259.6c-2.5,0-4.5-2-4.5-4.5s2-4.5,4.5-4.5s4.5,2,4.5,4.5S414.2,259.6,411.7,259.6z"/>
	<path id="Marche_en_Famenne" class="st4" d="M666.3,520c-2.5,0-4.5-2-4.5-4.5s2-4.5,4.5-4.5s4.5,2,4.5,4.5S668.8,520,666.3,520z"/>
	<path id="Mouscron" class="st4" d="M236.9,386.3c-2.5,0-4.5-2-4.5-4.5s2-4.5,4.5-4.5s4.5,2,4.5,4.5S239.4,386.3,236.9,386.3z"/>
	<path id="Verviers" class="st4" d="M723.2,400.3c-2.5,0-4.5-2-4.5-4.5s2-4.5,4.5-4.5s4.5,2,4.5,4.5S725.7,400.3,723.2,400.3z"/>
	<path id="Dinant" class="st4" d="M545.5,537.9c-2.5,0-4.5-2-4.5-4.5s2-4.5,4.5-4.5s4.5,2,4.5,4.5S548,537.9,545.5,537.9z"/>
	<path id="Mons" class="st4" d="M378.7,468.1c-2.5,0-4.5-2-4.5-4.5s2-4.5,4.5-4.5s4.5,2,4.5,4.5S381.2,468.1,378.7,468.1z"/>
	<path id="Visé" class="st4" d="M685.3,382.3c-2.5,0-4.5-2-4.5-4.5s2-4.5,4.5-4.5s4.5,2,4.5,4.5S687.8,382.3,685.3,382.3z"/>
	<path id="Arlon" class="st4" d="M723.2,699.5c-2.5,0-4.5-2-4.5-4.5s2-4.5,4.5-4.5s4.5,2,4.5,4.5S725.7,699.5,723.2,699.5z"/>
	<ellipse id="Huy" class="st4" cx="602.7" cy="427.9" rx="12.5" ry="12.5"/>
	<ellipse id="aint-Nicolas" class="st4" cx="402.8" cy="238.2" rx="12.5" ry="12.5"/>
	<ellipse id="Wo" class="st4" cx="461" cy="349.6" rx="12.5" ry="12.5"/>
	<ellipse id="Seraing" class="st4" cx="675.4" cy="411.6" rx="12.5" ry="12.5"/>
	<polygon id="XMLID_3416_" class="st1" points="827.5,737.9 827.5,738.8 827.5,738.8 827.5,738.8 846.5,747.1 846.5,684.7 
		822.3,719.5 	"/>
	<polygon id="Allemagne_4_" class="st1" points="798.4,615.7 798.1,615.7 846.5,635.6 846.5,38.7 804.7,56.2 765.1,38.4 729.7,58.9 
		798.7,179.3 795.2,188.3 758,282.3 760.6,336.5 760.6,336.5 747.4,368.6 792.5,417.8 792.5,417.9 792.5,417.9 792.3,419.6 
		785.6,437.5 811.4,454 820.3,487.4 774.5,546.7 774.5,546.7 774.5,580.7 	"/>
	<polygon id="Pays-Bas_4_" class="st1" points="760.6,337.1 758,282.6 795.2,188.3 798.8,179.3 729.9,58.9 729.9,58.9 765.3,38.4 
		804.7,56.2 846.5,38.7 846.5,-2.5 415.7,-2.5 400.8,18.4 330.8,94.2 271.8,153.4 290,187 364.8,204.5 417.9,200.6 476,171.5 
		518,184.6 569.5,171.5 601.2,226.2 640.7,220.4 715,256.7 691,373.1 747.8,368.9 747.8,368.9 747.8,368.9 	"/>
	<polygon id="Luxembourg_5_" class="st1" points="800.7,727.8 800.8,727.8 827.5,738.8 827.5,737.9 822.3,719.5 846.5,684.7 
		846.5,635.6 798.2,615.6 798.5,615.5 798.6,615.5 798.6,615.5 774.5,580.7 774.5,546.7 752,533.2 704.4,618.7 732.6,694.8 
		737.1,706.7 723.4,719.5 723.3,719.5 721.2,721.9 745.7,739.7 785.9,728.6 	"/>
	<polygon id="XMLID_3433_" class="st2" points="655.1,727.8 655,727.8 654.9,727.8 	"/>
	<polygon id="XMLID_3437_" class="st2" points="454.1,795.1 454.1,795.1 453.5,795.1 454.6,795.2 454.6,795.1 	"/>
	<polygon id="XMLID_3438_" class="st2" points="107.3,283.9 107.2,283.9 107.2,283.9 	"/>
</g>
<g>
	<rect x="79.5" y="486.5" class="st3" width="183.2" height="221.4"/>
	<g>
		<g id="XMLID_212_">
			<rect id="XMLID_189_" x="95.4" y="504.4" class="st5" width="150.7" height="47.5"/>
			<g class="st6">
				<path d="M95.7,504.4h1.7l2.9,8.1l3-8.1h1.7l-3.9,10.4h-1.5L95.7,504.4z"/>
				<path d="M107.3,506c-0.3,0-0.5-0.1-0.7-0.3s-0.3-0.4-0.3-0.7c0-0.3,0.1-0.5,0.3-0.7c0.2-0.2,0.4-0.3,0.7-0.3
					c0.3,0,0.5,0.1,0.7,0.3s0.3,0.4,0.3,0.7c0,0.3-0.1,0.5-0.3,0.7S107.6,506,107.3,506z M106.6,507.3h1.5v7.5h-1.5V507.3z"/>
				<path d="M110.5,504.4h1.5v10.4h-1.5V504.4z"/>
				<path d="M114.4,504.4h1.5v10.4h-1.5V504.4z"/>
				<path d="M124.6,512.2c0,0.4-0.1,0.8-0.3,1.1s-0.4,0.6-0.7,0.9s-0.6,0.4-1,0.6c-0.4,0.1-0.8,0.2-1.3,0.2c-0.6,0-1.1-0.1-1.6-0.3
					c-0.4-0.2-0.8-0.4-1.1-0.8s-0.5-0.8-0.6-1.2c-0.1-0.5-0.2-1-0.2-1.6s0.1-1.1,0.2-1.6c0.1-0.5,0.4-0.9,0.7-1.2
					c0.3-0.3,0.7-0.6,1.1-0.8s0.9-0.3,1.5-0.3s1.1,0.1,1.5,0.3s0.8,0.4,1,0.8c0.3,0.3,0.5,0.7,0.6,1.2c0.1,0.5,0.2,1,0.2,1.6v0.2
					h-5.3c0,0.8,0.2,1.4,0.5,1.8s0.8,0.6,1.4,0.6c0.5,0,0.9-0.1,1.3-0.4s0.5-0.6,0.6-1.1H124.6z M123.2,510.3c0-0.6-0.2-1-0.5-1.4
					s-0.7-0.6-1.3-0.6c-0.6,0-1,0.2-1.3,0.5c-0.3,0.3-0.5,0.8-0.6,1.5H123.2z"/>
				<path d="M126.5,509.7h3.8v1.4h-3.8V509.7z"/>
				<path d="M138.7,512.2c0,0.4-0.1,0.8-0.3,1.1s-0.4,0.6-0.7,0.9s-0.6,0.4-1,0.6c-0.4,0.1-0.8,0.2-1.3,0.2c-0.6,0-1.1-0.1-1.6-0.3
					c-0.4-0.2-0.8-0.4-1.1-0.8s-0.5-0.8-0.6-1.2c-0.1-0.5-0.2-1-0.2-1.6s0.1-1.1,0.2-1.6c0.1-0.5,0.4-0.9,0.7-1.2
					c0.3-0.3,0.7-0.6,1.1-0.8s0.9-0.3,1.5-0.3s1.1,0.1,1.5,0.3s0.8,0.4,1,0.8c0.3,0.3,0.5,0.7,0.6,1.2c0.1,0.5,0.2,1,0.2,1.6v0.2
					h-5.3c0,0.8,0.2,1.4,0.5,1.8s0.8,0.6,1.4,0.6c0.5,0,0.9-0.1,1.3-0.4s0.5-0.6,0.6-1.1H138.7z M137.3,510.3c0-0.6-0.2-1-0.5-1.4
					s-0.7-0.6-1.3-0.6c-0.6,0-1,0.2-1.3,0.5c-0.3,0.3-0.5,0.8-0.6,1.5H137.3z M136.2,504.4h1.8l-2.1,2h-1.2L136.2,504.4z"/>
				<path d="M140.9,508.5h-1v-1.2h1v-1.9h1.5v1.9h1.8v1.2h-1.8v3.9c0,0.4,0.1,0.7,0.3,0.8s0.4,0.3,0.8,0.3c0.1,0,0.2,0,0.4,0
					s0.2,0,0.4,0v1.3c-0.2,0-0.3,0.1-0.5,0.1s-0.3,0-0.5,0c-0.7,0-1.3-0.2-1.7-0.6c-0.4-0.4-0.6-1-0.6-1.8V508.5z"/>
				<path d="M150.2,513.7L150.2,513.7c-0.3,0.4-0.6,0.6-1,0.9s-1,0.3-1.6,0.3c-0.4,0-0.7-0.1-1-0.2c-0.3-0.1-0.5-0.2-0.7-0.4
					c-0.2-0.2-0.3-0.4-0.4-0.6c-0.1-0.2-0.1-0.5-0.1-0.8c0-0.5,0.1-1,0.4-1.3c0.2-0.3,0.5-0.5,0.9-0.7s0.8-0.3,1.2-0.3
					s0.9-0.1,1.2-0.2c0.3,0,0.5-0.1,0.7-0.1s0.3-0.1,0.4-0.1c0.1-0.1,0.1-0.1,0.2-0.2c0-0.1,0-0.2,0-0.3c0-0.4-0.1-0.7-0.4-1
					s-0.6-0.4-1.2-0.4c-0.5,0-0.9,0.1-1.2,0.3s-0.4,0.6-0.5,1.1h-1.4c0.1-0.8,0.4-1.4,0.8-1.9c0.5-0.5,1.2-0.7,2.3-0.7
					c1,0,1.8,0.2,2.3,0.7c0.5,0.5,0.7,1.2,0.7,2.3v4.6h-1.5V513.7z M150.2,511.1c-0.4,0.1-0.8,0.2-1.2,0.2c-0.4,0.1-0.8,0.1-1.1,0.2
					s-0.6,0.2-0.8,0.4s-0.3,0.4-0.3,0.7c0,0.3,0.1,0.6,0.4,0.8s0.6,0.3,1,0.3c0.3,0,0.6,0,0.9-0.1c0.3-0.1,0.5-0.2,0.7-0.4
					s0.3-0.4,0.5-0.6c0.1-0.2,0.2-0.5,0.2-0.8V511.1z"/>
				<path d="M153.9,507.3h1.5v1.2h0c0.2-0.4,0.5-0.7,0.9-0.9s0.9-0.4,1.5-0.4c0.5,0,1,0.1,1.4,0.3s0.7,0.5,1,0.8
					c0.3,0.3,0.5,0.7,0.6,1.2c0.1,0.5,0.2,1,0.2,1.6c0,0.6-0.1,1.1-0.2,1.6c-0.1,0.5-0.4,0.9-0.6,1.2s-0.6,0.6-1,0.8
					c-0.4,0.2-0.9,0.3-1.4,0.3c-0.6,0-1.1-0.1-1.5-0.4s-0.7-0.6-0.9-1h0v3.9h-1.5V507.3z M157.5,513.8c0.6,0,1.2-0.2,1.5-0.7
					c0.4-0.5,0.6-1.2,0.6-2c0-0.9-0.2-1.5-0.5-2c-0.4-0.5-0.9-0.7-1.6-0.7c-0.7,0-1.2,0.2-1.5,0.7c-0.3,0.5-0.5,1.2-0.5,2
					s0.2,1.5,0.5,2S156.8,513.8,157.5,513.8z"/>
				<path d="M169.3,512.2c0,0.4-0.1,0.8-0.3,1.1s-0.4,0.6-0.7,0.9s-0.6,0.4-1,0.6c-0.4,0.1-0.8,0.2-1.3,0.2c-0.6,0-1.1-0.1-1.6-0.3
					c-0.4-0.2-0.8-0.4-1.1-0.8s-0.5-0.8-0.6-1.2c-0.1-0.5-0.2-1-0.2-1.6s0.1-1.1,0.2-1.6c0.1-0.5,0.4-0.9,0.7-1.2
					c0.3-0.3,0.7-0.6,1.1-0.8s0.9-0.3,1.5-0.3s1.1,0.1,1.5,0.3s0.8,0.4,1,0.8c0.3,0.3,0.5,0.7,0.6,1.2c0.1,0.5,0.2,1,0.2,1.6v0.2
					H164c0,0.8,0.2,1.4,0.5,1.8s0.8,0.6,1.4,0.6c0.5,0,0.9-0.1,1.3-0.4s0.5-0.6,0.6-1.1H169.3z M167.8,510.3c0-0.6-0.2-1-0.5-1.4
					s-0.7-0.6-1.3-0.6c-0.6,0-1,0.2-1.3,0.5c-0.3,0.3-0.5,0.8-0.6,1.5H167.8z"/>
				<path d="M172.4,512.3c0,0.6,0.2,0.9,0.6,1.1s0.7,0.3,1.2,0.3c0.4,0,0.8-0.1,1-0.3s0.4-0.4,0.4-0.8c0-0.3-0.1-0.5-0.3-0.7
					s-0.5-0.3-0.8-0.4c-0.3-0.1-0.7-0.2-1.1-0.2c-0.4-0.1-0.7-0.2-1.1-0.3c-0.3-0.1-0.6-0.4-0.8-0.6c-0.2-0.3-0.3-0.7-0.3-1.2
					c0-0.3,0.1-0.6,0.2-0.9c0.1-0.3,0.3-0.5,0.5-0.7s0.5-0.4,0.9-0.5c0.3-0.1,0.8-0.2,1.2-0.2c0.9,0,1.6,0.2,2.1,0.6
					s0.8,1.1,0.8,1.9h-1.5c0-0.5-0.2-0.8-0.4-1.1c-0.3-0.2-0.6-0.3-1.1-0.3c-0.2,0-0.4,0-0.6,0.1s-0.3,0.1-0.4,0.2
					c-0.1,0.1-0.2,0.2-0.2,0.3s-0.1,0.2-0.1,0.4c0,0.3,0.1,0.5,0.3,0.6s0.5,0.2,0.8,0.3c0.3,0.1,0.7,0.2,1.1,0.3
					c0.4,0.1,0.7,0.2,1.1,0.3c0.3,0.2,0.6,0.4,0.8,0.7c0.2,0.3,0.3,0.7,0.3,1.2c0,0.7-0.2,1.2-0.7,1.6c-0.5,0.4-1.2,0.6-2.2,0.6
					c-1,0-1.8-0.2-2.3-0.6s-0.9-1.1-0.9-2H172.4z"/>
				<path d="M183.2,504.4h1.5v4h0c0.2-0.4,0.5-0.7,0.9-0.9s0.9-0.4,1.5-0.4c0.5,0,1,0.1,1.4,0.3s0.7,0.5,1,0.8
					c0.3,0.3,0.5,0.7,0.6,1.2c0.1,0.5,0.2,1,0.2,1.6c0,0.6-0.1,1.1-0.2,1.6c-0.1,0.5-0.4,0.9-0.6,1.2s-0.6,0.6-1,0.8
					c-0.4,0.2-0.9,0.3-1.4,0.3c-0.6,0-1.1-0.1-1.5-0.4s-0.7-0.6-0.9-1h0v1.2h-1.5V504.4z M186.7,513.8c0.6,0,1.2-0.2,1.5-0.7
					c0.4-0.5,0.6-1.2,0.6-2c0-0.9-0.2-1.5-0.5-2c-0.4-0.5-0.9-0.7-1.6-0.7c-0.7,0-1.2,0.2-1.5,0.7c-0.3,0.5-0.5,1.2-0.5,2
					s0.2,1.5,0.5,2S186,513.8,186.7,513.8z"/>
				<path d="M198.5,512.2c0,0.4-0.1,0.8-0.3,1.1s-0.4,0.6-0.7,0.9s-0.6,0.4-1,0.6c-0.4,0.1-0.8,0.2-1.3,0.2c-0.6,0-1.1-0.1-1.6-0.3
					c-0.4-0.2-0.8-0.4-1.1-0.8s-0.5-0.8-0.6-1.2c-0.1-0.5-0.2-1-0.2-1.6s0.1-1.1,0.2-1.6c0.1-0.5,0.4-0.9,0.7-1.2
					c0.3-0.3,0.7-0.6,1.1-0.8s0.9-0.3,1.5-0.3s1.1,0.1,1.5,0.3s0.8,0.4,1,0.8c0.3,0.3,0.5,0.7,0.6,1.2c0.1,0.5,0.2,1,0.2,1.6v0.2
					h-5.3c0,0.8,0.2,1.4,0.5,1.8s0.8,0.6,1.4,0.6c0.5,0,0.9-0.1,1.3-0.4s0.5-0.6,0.6-1.1H198.5z M197.1,510.3c0-0.6-0.2-1-0.5-1.4
					s-0.7-0.6-1.3-0.6c-0.6,0-1,0.2-1.3,0.5c-0.3,0.3-0.5,0.8-0.6,1.5H197.1z"/>
				<path d="M200.7,504.4h1.5v10.4h-1.5V504.4z"/>
				<path d="M211.3,507.3v1.2h-1.4c0.2,0.2,0.3,0.4,0.3,0.6c0.1,0.2,0.1,0.5,0.1,0.8c0,0.4-0.1,0.8-0.2,1.1s-0.3,0.6-0.6,0.9
					s-0.6,0.4-0.9,0.6s-0.8,0.2-1.2,0.2c-0.5,0-1-0.1-1.4-0.3c-0.1,0.1-0.2,0.2-0.3,0.3s-0.1,0.2-0.1,0.3c0,0.2,0.1,0.3,0.2,0.4
					s0.4,0.1,0.6,0.2c0.3,0,0.6,0.1,0.9,0.1s0.7,0,1,0.1s0.7,0.1,1,0.1c0.3,0.1,0.6,0.2,0.9,0.3c0.3,0.1,0.5,0.3,0.6,0.6
					c0.2,0.2,0.2,0.5,0.2,0.9c0,0.3-0.1,0.5-0.2,0.8s-0.3,0.5-0.6,0.7s-0.7,0.4-1.2,0.5c-0.5,0.1-1.1,0.2-1.9,0.2
					c-0.7,0-1.2,0-1.7-0.1c-0.5-0.1-0.8-0.2-1.1-0.4s-0.5-0.3-0.6-0.5s-0.2-0.4-0.2-0.7c0-0.3,0.1-0.6,0.2-0.9s0.4-0.5,0.7-0.6
					c-0.2-0.1-0.4-0.2-0.6-0.4s-0.2-0.4-0.2-0.7c0-0.3,0.1-0.6,0.3-0.8s0.5-0.5,0.8-0.6c-0.3-0.2-0.4-0.5-0.6-0.9s-0.2-0.7-0.2-1.1
					c0-0.4,0.1-0.8,0.2-1.1c0.1-0.3,0.3-0.6,0.6-0.9c0.3-0.2,0.6-0.4,0.9-0.6c0.4-0.1,0.8-0.2,1.2-0.2c0.2,0,0.4,0,0.5,0
					s0.3,0.1,0.5,0.1H211.3z M209.9,515.7c0-0.3-0.1-0.4-0.4-0.5c-0.3-0.1-0.6-0.2-1-0.2c-0.4,0-0.8-0.1-1.3-0.1s-0.9-0.1-1.3-0.1
					c-0.3,0.2-0.4,0.4-0.5,0.5c-0.1,0.1-0.1,0.3-0.1,0.4c0,0.3,0.2,0.6,0.5,0.7c0.3,0.2,1,0.3,1.9,0.3c0.8,0,1.4-0.1,1.7-0.3
					C209.7,516.2,209.9,516,209.9,515.7z M207.4,511.6c0.5,0,0.9-0.1,1.1-0.4c0.3-0.3,0.4-0.7,0.4-1.3s-0.1-1-0.4-1.3
					c-0.3-0.3-0.7-0.4-1.1-0.4s-0.8,0.1-1.1,0.4c-0.3,0.3-0.4,0.7-0.4,1.3s0.1,1,0.4,1.3C206.6,511.5,207,511.6,207.4,511.6z"/>
				<path d="M219.5,512.2c0,0.4-0.1,0.8-0.3,1.1s-0.4,0.6-0.7,0.9s-0.6,0.4-1,0.6c-0.4,0.1-0.8,0.2-1.3,0.2c-0.6,0-1.1-0.1-1.6-0.3
					c-0.4-0.2-0.8-0.4-1.1-0.8s-0.5-0.8-0.6-1.2c-0.1-0.5-0.2-1-0.2-1.6s0.1-1.1,0.2-1.6c0.1-0.5,0.4-0.9,0.7-1.2
					c0.3-0.3,0.7-0.6,1.1-0.8s0.9-0.3,1.5-0.3s1.1,0.1,1.5,0.3s0.8,0.4,1,0.8c0.3,0.3,0.5,0.7,0.6,1.2c0.1,0.5,0.2,1,0.2,1.6v0.2
					h-5.3c0,0.8,0.2,1.4,0.5,1.8s0.8,0.6,1.4,0.6c0.5,0,0.9-0.1,1.3-0.4s0.5-0.6,0.6-1.1H219.5z M218,510.3c0-0.6-0.2-1-0.5-1.4
					s-0.7-0.6-1.3-0.6c-0.6,0-1,0.2-1.3,0.5c-0.3,0.3-0.5,0.8-0.6,1.5H218z"/>
				<path d="M222.6,512.3c0,0.6,0.2,0.9,0.6,1.1s0.7,0.3,1.2,0.3c0.4,0,0.8-0.1,1-0.3s0.4-0.4,0.4-0.8c0-0.3-0.1-0.5-0.3-0.7
					s-0.5-0.3-0.8-0.4c-0.3-0.1-0.7-0.2-1.1-0.2c-0.4-0.1-0.7-0.2-1.1-0.3c-0.3-0.1-0.6-0.4-0.8-0.6c-0.2-0.3-0.3-0.7-0.3-1.2
					c0-0.3,0.1-0.6,0.2-0.9c0.1-0.3,0.3-0.5,0.5-0.7s0.5-0.4,0.9-0.5c0.3-0.1,0.8-0.2,1.2-0.2c0.9,0,1.6,0.2,2.1,0.6
					s0.8,1.1,0.8,1.9h-1.5c0-0.5-0.2-0.8-0.4-1.1c-0.3-0.2-0.6-0.3-1.1-0.3c-0.2,0-0.4,0-0.6,0.1s-0.3,0.1-0.4,0.2
					c-0.1,0.1-0.2,0.2-0.2,0.3s-0.1,0.2-0.1,0.4c0,0.3,0.1,0.5,0.3,0.6s0.5,0.2,0.8,0.3c0.3,0.1,0.7,0.2,1.1,0.3
					c0.4,0.1,0.7,0.2,1.1,0.3c0.3,0.2,0.6,0.4,0.8,0.7c0.2,0.3,0.3,0.7,0.3,1.2c0,0.7-0.2,1.2-0.7,1.6c-0.5,0.4-1.2,0.6-2.2,0.6
					c-1,0-1.8-0.2-2.3-0.6s-0.9-1.1-0.9-2H222.6z"/>
			</g>
			<g class="st6">
				<path d="M101.7,530.4L101.7,530.4c-0.3,0.4-0.6,0.7-0.9,1s-0.9,0.4-1.5,0.4c-0.5,0-1-0.1-1.4-0.3c-0.4-0.2-0.7-0.5-1-0.8
					s-0.5-0.8-0.6-1.2c-0.1-0.5-0.2-1-0.2-1.5c0-0.6,0.1-1.1,0.2-1.6c0.1-0.5,0.3-0.9,0.6-1.2c0.3-0.3,0.6-0.6,1-0.8
					s0.9-0.3,1.4-0.3c0.6,0,1.1,0.1,1.5,0.4s0.7,0.6,0.9,0.9h0v-4h1.5v10.4h-1.5V530.4z M99.7,530.6c0.7,0,1.2-0.2,1.5-0.7
					c0.3-0.5,0.5-1.2,0.5-2c0-0.9-0.2-1.5-0.5-2c-0.3-0.5-0.8-0.7-1.5-0.7c-0.6,0-1.2,0.2-1.5,0.7c-0.4,0.5-0.6,1.2-0.6,2
					c0,0.9,0.2,1.5,0.5,2S99.1,530.6,99.7,530.6z"/>
				<path d="M105.6,524.1h1.5v4.5c0,0.6,0.1,1.1,0.3,1.4c0.2,0.3,0.6,0.5,1.1,0.5c0.6,0,1-0.2,1.4-0.6s0.5-0.9,0.5-1.5v-4.3h1.5v7.5
					h-1.5v-1.2h0c-0.2,0.4-0.5,0.7-0.9,1s-0.8,0.4-1.4,0.4c-0.9,0-1.5-0.2-1.8-0.7s-0.5-1.1-0.5-2V524.1z"/>
				<path d="M120.9,522.6h-3.3v-1.4h8.2v1.4h-3.3v9h-1.6V522.6z"/>
				<path d="M130.6,531.7c-0.6,0-1.1-0.1-1.5-0.3c-0.5-0.2-0.9-0.4-1.2-0.8s-0.6-0.8-0.7-1.2c-0.2-0.5-0.3-1-0.3-1.6
					s0.1-1.1,0.3-1.6c0.2-0.5,0.4-0.9,0.7-1.2c0.3-0.3,0.7-0.6,1.2-0.8s1-0.3,1.5-0.3s1.1,0.1,1.5,0.3s0.9,0.5,1.2,0.8
					c0.3,0.3,0.6,0.7,0.8,1.2c0.2,0.5,0.3,1,0.3,1.6s-0.1,1.1-0.3,1.6c-0.2,0.5-0.4,0.9-0.8,1.2s-0.7,0.6-1.2,0.8
					C131.7,531.6,131.2,531.7,130.6,531.7z M130.6,530.6c0.7,0,1.2-0.2,1.6-0.7c0.4-0.5,0.6-1.2,0.6-2c0-0.8-0.2-1.5-0.6-2
					c-0.4-0.5-0.9-0.7-1.6-0.7c-0.7,0-1.2,0.2-1.6,0.7c-0.4,0.5-0.6,1.2-0.6,2c0,0.8,0.2,1.5,0.6,2
					C129.4,530.3,129.9,530.6,130.6,530.6z"/>
				<path d="M136.3,524.1h1.5v4.5c0,0.6,0.1,1.1,0.3,1.4c0.2,0.3,0.6,0.5,1.1,0.5c0.6,0,1-0.2,1.4-0.6s0.5-0.9,0.5-1.5v-4.3h1.5v7.5
					h-1.5v-1.2h0c-0.2,0.4-0.5,0.7-0.9,1s-0.8,0.4-1.4,0.4c-0.9,0-1.5-0.2-1.8-0.7s-0.5-1.1-0.5-2V524.1z"/>
				<path d="M145,524.1h1.5v1.2h0c0.2-0.4,0.5-0.7,0.9-1s0.7-0.3,1.2-0.3c0,0,0.1,0,0.2,0s0.2,0,0.2,0v1.6c-0.1,0-0.2,0-0.3-0.1
					s-0.2,0-0.3,0c-0.6,0-1,0.2-1.4,0.5s-0.5,0.9-0.5,1.5v4.1H145V524.1z"/>
				<path d="M159.9,530.4L159.9,530.4c-0.3,0.4-0.6,0.7-0.9,1s-0.9,0.4-1.5,0.4c-0.5,0-1-0.1-1.4-0.3c-0.4-0.2-0.7-0.5-1-0.8
					s-0.5-0.8-0.6-1.2c-0.1-0.5-0.2-1-0.2-1.5c0-0.6,0.1-1.1,0.2-1.6c0.1-0.5,0.3-0.9,0.6-1.2c0.3-0.3,0.6-0.6,1-0.8
					s0.9-0.3,1.4-0.3c0.6,0,1.1,0.1,1.5,0.4s0.7,0.6,0.9,0.9h0v-4h1.5v10.4h-1.5V530.4z M157.9,530.6c0.7,0,1.2-0.2,1.5-0.7
					c0.3-0.5,0.5-1.2,0.5-2c0-0.9-0.2-1.5-0.5-2c-0.3-0.5-0.8-0.7-1.5-0.7c-0.6,0-1.2,0.2-1.5,0.7c-0.4,0.5-0.6,1.2-0.6,2
					c0,0.9,0.2,1.5,0.5,2S157.2,530.6,157.9,530.6z"/>
				<path d="M170.1,529c0,0.4-0.1,0.8-0.3,1.1s-0.4,0.6-0.7,0.9s-0.6,0.4-1,0.6c-0.4,0.1-0.8,0.2-1.3,0.2c-0.6,0-1.1-0.1-1.6-0.3
					c-0.4-0.2-0.8-0.4-1.1-0.8s-0.5-0.8-0.6-1.2c-0.1-0.5-0.2-1-0.2-1.6s0.1-1.1,0.2-1.6c0.1-0.5,0.4-0.9,0.7-1.2
					c0.3-0.3,0.7-0.6,1.1-0.8s0.9-0.3,1.5-0.3s1.1,0.1,1.5,0.3s0.8,0.4,1,0.8c0.3,0.3,0.5,0.7,0.6,1.2c0.1,0.5,0.2,1,0.2,1.6v0.2
					h-5.3c0,0.8,0.2,1.4,0.5,1.8s0.8,0.6,1.4,0.6c0.5,0,0.9-0.1,1.3-0.4s0.5-0.6,0.6-1.1H170.1z M168.6,527.1c0-0.6-0.2-1-0.5-1.4
					s-0.7-0.6-1.3-0.6c-0.6,0-1,0.2-1.3,0.5c-0.3,0.3-0.5,0.8-0.6,1.5H168.6z"/>
				<path d="M176.5,521.2h6.6v1.4h-5v3.1h4.7v1.3h-4.7v4.6h-1.6V521.2z"/>
				<path d="M185.3,524.1h1.5v1.2h0c0.2-0.4,0.5-0.7,0.9-1s0.7-0.3,1.2-0.3c0,0,0.1,0,0.2,0s0.2,0,0.2,0v1.6c-0.1,0-0.2,0-0.3-0.1
					s-0.2,0-0.3,0c-0.6,0-1,0.2-1.4,0.5s-0.5,0.9-0.5,1.5v4.1h-1.5V524.1z"/>
				<path d="M195.3,530.5L195.3,530.5c-0.3,0.4-0.6,0.6-1,0.9s-1,0.3-1.6,0.3c-0.4,0-0.7-0.1-1-0.2c-0.3-0.1-0.5-0.2-0.7-0.4
					c-0.2-0.2-0.3-0.4-0.4-0.6c-0.1-0.2-0.1-0.5-0.1-0.8c0-0.5,0.1-1,0.4-1.3c0.2-0.3,0.5-0.5,0.9-0.7s0.8-0.3,1.2-0.3
					s0.9-0.1,1.2-0.2c0.3,0,0.5-0.1,0.7-0.1s0.3-0.1,0.4-0.1c0.1-0.1,0.1-0.1,0.2-0.2c0-0.1,0-0.2,0-0.3c0-0.4-0.1-0.7-0.4-1
					s-0.6-0.4-1.2-0.4c-0.5,0-0.9,0.1-1.2,0.3s-0.4,0.6-0.5,1.1h-1.4c0.1-0.8,0.4-1.4,0.8-1.9c0.5-0.5,1.2-0.7,2.3-0.7
					c1,0,1.8,0.2,2.3,0.7c0.5,0.5,0.7,1.2,0.7,2.3v4.6h-1.5V530.5z M195.3,527.9c-0.4,0.1-0.8,0.2-1.2,0.2c-0.4,0.1-0.8,0.1-1.1,0.2
					s-0.6,0.2-0.8,0.4s-0.3,0.4-0.3,0.7c0,0.3,0.1,0.6,0.4,0.8s0.6,0.3,1,0.3c0.3,0,0.6,0,0.9-0.1c0.3-0.1,0.5-0.2,0.7-0.4
					s0.3-0.4,0.5-0.6c0.1-0.2,0.2-0.5,0.2-0.8V527.9z"/>
				<path d="M199,524.1h1.5v1.2h0c0.3-0.4,0.6-0.7,0.9-1s0.9-0.3,1.5-0.3c0.9,0,1.5,0.2,1.9,0.7c0.4,0.5,0.6,1.1,0.6,2v4.9H204v-4.5
					c0-0.6-0.1-1.1-0.3-1.4s-0.6-0.5-1.1-0.5c-0.6,0-1.1,0.2-1.4,0.6s-0.5,0.9-0.5,1.5v4.3H199V524.1z"/>
				<path d="M214.2,528.8c0,0.9-0.4,1.7-0.9,2.2s-1.3,0.7-2.3,0.7c-0.6,0-1.1-0.1-1.6-0.3c-0.4-0.2-0.8-0.4-1.1-0.8
					s-0.5-0.8-0.7-1.2c-0.1-0.5-0.2-1-0.2-1.6s0.1-1.1,0.2-1.6c0.2-0.5,0.4-0.9,0.7-1.2c0.3-0.3,0.7-0.6,1.1-0.8s0.9-0.3,1.5-0.3
					c1,0,1.8,0.3,2.3,0.8c0.6,0.5,0.9,1.2,0.9,2.2h-1.5c0-0.5-0.2-1-0.5-1.3c-0.3-0.3-0.7-0.4-1.2-0.4c-0.6,0-1.1,0.2-1.5,0.7
					c-0.3,0.4-0.5,1.1-0.5,2c0,0.9,0.2,1.6,0.5,2s0.8,0.7,1.5,0.7c0.5,0,1-0.1,1.3-0.4c0.3-0.3,0.5-0.7,0.5-1.2H214.2z"/>
				<path d="M222.6,529c0,0.4-0.1,0.8-0.3,1.1s-0.4,0.6-0.7,0.9s-0.6,0.4-1,0.6c-0.4,0.1-0.8,0.2-1.3,0.2c-0.6,0-1.1-0.1-1.6-0.3
					c-0.4-0.2-0.8-0.4-1.1-0.8s-0.5-0.8-0.6-1.2c-0.1-0.5-0.2-1-0.2-1.6s0.1-1.1,0.2-1.6c0.1-0.5,0.4-0.9,0.7-1.2
					c0.3-0.3,0.7-0.6,1.1-0.8s0.9-0.3,1.5-0.3s1.1,0.1,1.5,0.3s0.8,0.4,1,0.8c0.3,0.3,0.5,0.7,0.6,1.2c0.1,0.5,0.2,1,0.2,1.6v0.2
					h-5.3c0,0.8,0.2,1.4,0.5,1.8s0.8,0.6,1.4,0.6c0.5,0,0.9-0.1,1.3-0.4s0.5-0.6,0.6-1.1H222.6z M221.1,527.1c0-0.6-0.2-1-0.5-1.4
					s-0.7-0.6-1.3-0.6c-0.6,0-1,0.2-1.3,0.5c-0.3,0.3-0.5,0.8-0.6,1.5H221.1z"/>
			</g>
			<g class="st6">
				<path d="M96.7,547.1H99v-7.2l-2.2,1.4l-0.7-1.1l3.3-2.2h1.2v9.1h2v1.3h-5.9V547.1z"/>
				<path d="M105.6,545.3c0.1,0.6,0.3,1.1,0.6,1.5s0.8,0.5,1.4,0.5c0.3,0,0.6-0.1,0.9-0.2c0.3-0.1,0.5-0.3,0.7-0.6
					c0.2-0.3,0.4-0.7,0.5-1.3s0.2-1.2,0.2-2.1c-0.2,0.4-0.5,0.8-1,1c-0.4,0.2-1,0.4-1.6,0.4c-0.4,0-0.9-0.1-1.2-0.2s-0.7-0.3-1-0.6
					c-0.3-0.3-0.5-0.6-0.7-1s-0.2-0.9-0.2-1.4c0-0.5,0.1-1,0.2-1.4s0.4-0.8,0.7-1.1c0.3-0.3,0.7-0.5,1.1-0.7s0.9-0.2,1.5-0.2
					c0.6,0,1.1,0.1,1.5,0.3s0.9,0.5,1.2,0.9s0.6,1,0.7,1.6c0.2,0.7,0.3,1.5,0.3,2.4c0,1.8-0.3,3.2-1,4.1c-0.6,0.9-1.6,1.3-2.8,1.3
					c-1,0-1.8-0.3-2.4-0.9c-0.6-0.6-0.9-1.4-1-2.4H105.6z M107.5,543.2c0.6,0,1.1-0.2,1.4-0.5c0.4-0.4,0.5-0.8,0.5-1.4
					c0-0.3,0-0.6-0.1-0.8c-0.1-0.3-0.2-0.5-0.4-0.7s-0.4-0.3-0.6-0.4c-0.2-0.1-0.5-0.2-0.8-0.2c-0.3,0-0.5,0.1-0.8,0.2
					c-0.2,0.1-0.4,0.2-0.6,0.4s-0.3,0.4-0.4,0.7c-0.1,0.3-0.1,0.5-0.1,0.8c0,0.6,0.2,1.1,0.5,1.5S106.9,543.2,107.5,543.2z"/>
				<path d="M115.7,548.5c-0.5,0-1-0.1-1.4-0.3s-0.8-0.5-1.2-0.9s-0.6-1-0.8-1.7c-0.2-0.7-0.3-1.5-0.3-2.4s0.1-1.8,0.3-2.4
					c0.2-0.7,0.5-1.2,0.8-1.7s0.7-0.7,1.2-0.9s0.9-0.3,1.4-0.3c0.5,0,1,0.1,1.4,0.3s0.8,0.5,1.2,0.9s0.6,1,0.8,1.7
					c0.2,0.7,0.3,1.5,0.3,2.4s-0.1,1.8-0.3,2.4c-0.2,0.7-0.5,1.2-0.8,1.7s-0.7,0.7-1.2,0.9S116.2,548.5,115.7,548.5z M115.7,547.3
					c0.3,0,0.5-0.1,0.8-0.2c0.3-0.1,0.5-0.3,0.7-0.6c0.2-0.3,0.3-0.7,0.5-1.2s0.2-1.2,0.2-2s-0.1-1.5-0.2-2
					c-0.1-0.5-0.3-0.9-0.5-1.2c-0.2-0.3-0.4-0.5-0.7-0.6s-0.5-0.2-0.8-0.2c-0.3,0-0.5,0.1-0.8,0.2s-0.5,0.3-0.7,0.6
					c-0.2,0.3-0.3,0.7-0.5,1.2c-0.1,0.5-0.2,1.2-0.2,2s0.1,1.5,0.2,2s0.3,0.9,0.5,1.2c0.2,0.3,0.4,0.5,0.7,0.6
					C115.2,547.2,115.4,547.3,115.7,547.3z"/>
				<path d="M121.7,545.1c0.1,0.7,0.3,1.3,0.7,1.6c0.4,0.4,0.9,0.5,1.6,0.5c0.6,0,1.1-0.2,1.5-0.5c0.3-0.3,0.5-0.7,0.5-1.3
					s-0.2-1-0.5-1.3c-0.3-0.3-0.8-0.5-1.3-0.5h-1.4v-1.2h1c0.5,0,0.9-0.2,1.2-0.5s0.4-0.7,0.4-1.2c0-0.4-0.1-0.8-0.4-1.1
					s-0.7-0.5-1.2-0.5c-0.6,0-1,0.2-1.3,0.5s-0.5,0.9-0.5,1.5h-1.6c0.1-1.1,0.4-1.9,1-2.5c0.6-0.6,1.4-0.8,2.5-0.8
					c0.5,0,1,0.1,1.3,0.2c0.4,0.1,0.7,0.3,1,0.5c0.3,0.2,0.5,0.5,0.6,0.8c0.1,0.3,0.2,0.7,0.2,1.1c0,0.5-0.1,1-0.3,1.3
					c-0.2,0.4-0.5,0.7-1,0.9c0.6,0.2,1,0.6,1.3,1c0.3,0.5,0.5,1,0.5,1.7c0,0.5-0.1,0.9-0.2,1.2s-0.4,0.7-0.7,1
					c-0.3,0.3-0.7,0.5-1.1,0.6c-0.5,0.1-1,0.2-1.6,0.2c-0.6,0-1.2-0.1-1.6-0.2c-0.5-0.2-0.8-0.4-1.1-0.7c-0.3-0.3-0.5-0.7-0.7-1.1
					c-0.2-0.4-0.2-0.9-0.3-1.4H121.7z"/>
				<path d="M132.8,543.3h5.6v1.2h-5.6V543.3z"/>
				<path d="M144,547.1c0.8-0.8,1.5-1.4,2.1-2s1.2-1.1,1.6-1.6c0.4-0.5,0.8-0.9,1-1.3s0.4-0.9,0.4-1.3c0-0.5-0.1-0.9-0.4-1.2
					c-0.3-0.3-0.7-0.5-1.3-0.5c-0.6,0-1,0.2-1.4,0.5s-0.5,0.9-0.6,1.6h-1.6c0-0.5,0.1-1,0.3-1.4s0.4-0.8,0.7-1.1
					c0.3-0.3,0.7-0.5,1.1-0.7s0.9-0.2,1.4-0.2c0.6,0,1,0.1,1.5,0.2c0.4,0.1,0.8,0.3,1,0.6c0.3,0.3,0.5,0.6,0.6,0.9s0.2,0.8,0.2,1.2
					c0,0.6-0.1,1.1-0.4,1.6c-0.3,0.5-0.6,1-1,1.5c-0.4,0.5-0.9,1-1.5,1.5c-0.6,0.5-1.1,1.1-1.8,1.7h4.7v1.3H144V547.1z"/>
				<path d="M155.4,548.5c-0.5,0-1-0.1-1.4-0.3s-0.8-0.5-1.2-0.9s-0.6-1-0.8-1.7c-0.2-0.7-0.3-1.5-0.3-2.4s0.1-1.8,0.3-2.4
					c0.2-0.7,0.5-1.2,0.8-1.7s0.7-0.7,1.2-0.9s0.9-0.3,1.4-0.3c0.5,0,1,0.1,1.4,0.3s0.8,0.5,1.2,0.9s0.6,1,0.8,1.7
					c0.2,0.7,0.3,1.5,0.3,2.4s-0.1,1.8-0.3,2.4c-0.2,0.7-0.5,1.2-0.8,1.7s-0.7,0.7-1.2,0.9S155.9,548.5,155.4,548.5z M155.4,547.3
					c0.3,0,0.5-0.1,0.8-0.2c0.3-0.1,0.5-0.3,0.7-0.6c0.2-0.3,0.3-0.7,0.5-1.2s0.2-1.2,0.2-2s-0.1-1.5-0.2-2
					c-0.1-0.5-0.3-0.9-0.5-1.2c-0.2-0.3-0.4-0.5-0.7-0.6s-0.5-0.2-0.8-0.2c-0.3,0-0.5,0.1-0.8,0.2s-0.5,0.3-0.7,0.6
					c-0.2,0.3-0.3,0.7-0.5,1.2c-0.1,0.5-0.2,1.2-0.2,2s0.1,1.5,0.2,2s0.3,0.9,0.5,1.2c0.2,0.3,0.4,0.5,0.7,0.6
					C154.9,547.2,155.1,547.3,155.4,547.3z"/>
				<path d="M160.8,547.1h2.3v-7.2l-2.2,1.4l-0.7-1.1l3.3-2.2h1.2v9.1h2v1.3h-5.9V547.1z"/>
				<path d="M173.7,541.2c-0.1-0.6-0.3-1.1-0.6-1.5s-0.8-0.5-1.3-0.5c-0.3,0-0.6,0.1-0.9,0.2s-0.5,0.3-0.7,0.7
					c-0.2,0.3-0.4,0.7-0.5,1.3c-0.1,0.5-0.2,1.2-0.2,2.1c0.2-0.4,0.5-0.8,1-1c0.4-0.2,1-0.4,1.6-0.4c0.4,0,0.9,0.1,1.2,0.2
					c0.4,0.1,0.7,0.3,1,0.6c0.3,0.3,0.5,0.6,0.7,1s0.3,0.9,0.3,1.4c0,0.5-0.1,1-0.2,1.4s-0.4,0.8-0.7,1.1c-0.3,0.3-0.7,0.5-1.1,0.7
					c-0.4,0.2-0.9,0.2-1.5,0.2c-0.6,0-1.1-0.1-1.6-0.3s-0.8-0.5-1.2-0.9s-0.6-1-0.7-1.6c-0.2-0.7-0.3-1.4-0.3-2.4
					c0-1.8,0.3-3.2,1-4.1s1.6-1.3,2.8-1.3c1,0,1.8,0.3,2.4,0.9s0.9,1.4,1,2.4H173.7z M171.9,547.3c0.3,0,0.6-0.1,0.8-0.2
					c0.2-0.1,0.4-0.2,0.6-0.4s0.3-0.4,0.4-0.7s0.1-0.5,0.1-0.8c0-0.6-0.2-1.1-0.5-1.5s-0.8-0.6-1.4-0.6c-0.6,0-1,0.2-1.4,0.5
					s-0.5,0.8-0.5,1.4c0,0.3,0,0.6,0.1,0.8s0.2,0.5,0.4,0.7s0.4,0.3,0.6,0.4C171.3,547.2,171.6,547.3,171.9,547.3z"/>
			</g>
		</g>
	</g>
	<g>
		<g id="XMLID_206_">
			<circle id="XMLID_211_" class="st4" cx="183.9" cy="634.8" r="50"/>
			<circle id="XMLID_210_" class="st4" cx="183.9" cy="634.8" r="37.5"/>
			<circle id="XMLID_209_" class="st4" cx="183.9" cy="634.8" r="25"/>
			<circle id="XMLID_208_" class="st4" cx="183.9" cy="634.8" r="12.5"/>
			<circle id="XMLID_207_" class="st4" cx="183.9" cy="634.8" r="6.2"/>
		</g>
		<rect id="XMLID_205_" x="99" y="586.7" class="st5" width="25.3" height="8.9"/>
		<g class="st6">
			<path class="st7" d="M112.6,591.1h-1.1v-0.8h1.1v-1.2h0.8v1.2h1.1v0.8h-1.1v1.3h-0.8V591.1z"/>
			<path class="st7" d="M116.8,593.2l1.5-2.8c0.5-1,0.7-1.5,0.7-1.8c0-0.5-0.2-0.7-0.6-0.7c-0.5,0-0.7,0.4-0.7,1.1v0.4h-0.8
				c-0.1-0.3-0.1-0.5-0.1-0.8c0-0.7,0.5-1.4,1.5-1.4c1.2,0,1.6,0.6,1.6,1.5c0,0.5-0.2,1-0.7,1.9l-1.3,2.5h1.9v0.8h-3.1V593.2z"/>
			<path class="st7" d="M120.6,589c0-1.8,1-2,1.6-2c0.6,0,1.6,0.2,1.6,2v2.8c0,1.8-1.1,2-1.6,2c-0.6,0-1.6-0.2-1.6-2V589z
				 M122.3,593.1c0.4,0,0.6-0.2,0.6-0.8v-3.6c0-0.6-0.2-0.8-0.6-0.8c-0.4,0-0.6,0.3-0.6,0.8v3.6
				C121.7,592.8,121.9,593.1,122.3,593.1z"/>
		</g>
		<rect id="XMLID_203_" x="89.6" y="597.3" class="st5" width="34.7" height="8.9"/>
		<g class="st6">
			<path class="st7" d="M101.7,603.6h0.8v-4.6l-0.8,0.7l-0.4-0.5l1.5-1.6h0.8l0,0l0,0v5.9h0.8v0.8h-2.5V603.6z"/>
			<path class="st7" d="M104.9,603.6h0.8v-4.6l-0.8,0.7l-0.4-0.5l1.5-1.6h0.8l0,0l0,0v5.9h0.8v0.8h-2.5V603.6z"/>
			<path class="st7" d="M109.7,600.9h4.4v0.8h-4.4V600.9z"/>
			<path class="st7" d="M116.8,603.8l1.5-2.8c0.5-1,0.7-1.5,0.7-1.8c0-0.5-0.2-0.7-0.6-0.7c-0.5,0-0.7,0.4-0.7,1.1v0.4h-0.8
				c-0.1-0.3-0.1-0.5-0.1-0.8c0-0.7,0.5-1.4,1.5-1.4c1.2,0,1.6,0.6,1.6,1.5c0,0.5-0.2,1-0.7,1.9l-1.3,2.5h1.9v0.8h-3.1V603.8z"/>
			<path class="st7" d="M120.6,599.6c0-1.8,1-2,1.6-2c0.6,0,1.6,0.2,1.6,2v2.8c0,1.8-1.1,2-1.6,2c-0.6,0-1.6-0.2-1.6-2V599.6z
				 M122.3,603.6c0.4,0,0.6-0.2,0.6-0.8v-3.6c0-0.6-0.2-0.8-0.6-0.8c-0.4,0-0.6,0.3-0.6,0.8v3.6
				C121.7,603.4,121.9,603.6,122.3,603.6z"/>
		</g>
		<rect id="XMLID_201_" x="89.6" y="608.8" class="st5" width="34.7" height="8.9"/>
		<g class="st6">
			<path class="st7" d="M104.7,613.8h0.8v0.5c0,0.6,0.2,0.9,0.6,0.9c0.4,0,0.6-0.3,0.6-0.9v-1.3c0-0.7-0.2-0.8-0.6-0.8
				c-0.3,0-0.5,0.2-0.6,0.4h-0.7v-3.4h2.9v0.9h-2v1.6c0.2-0.2,0.6-0.4,0.9-0.4c0.8,0,1.2,0.6,1.2,1.6v1.1c0,1.4-0.8,1.8-1.6,1.8
				c-1,0-1.5-0.6-1.5-1.4C104.6,614.3,104.7,614.1,104.7,613.8z"/>
			<path class="st7" d="M110.4,612.5h4.4v0.8h-4.4V612.5z"/>
			<path class="st7" d="M117.6,615.2h0.8v-4.6l-0.8,0.7l-0.4-0.5l1.5-1.6h0.8l0,0l0,0v5.9h0.8v0.8h-2.5V615.2z"/>
			<path class="st7" d="M120.6,611.2c0-1.8,1-2,1.6-2c0.6,0,1.6,0.2,1.6,2v2.8c0,1.8-1.1,2-1.6,2c-0.6,0-1.6-0.2-1.6-2V611.2z
				 M122.3,615.2c0.4,0,0.6-0.2,0.6-0.8v-3.6c0-0.6-0.2-0.8-0.6-0.8c-0.4,0-0.6,0.3-0.6,0.8v3.6C121.7,615,121.9,615.2,122.3,615.2z
				"/>
		</g>
		<rect id="XMLID_199_" x="89.6" y="631" class="st5" width="34.7" height="8.9"/>
		<g class="st6">
			<path class="st7" d="M121.7,637.3h0.8v-4.6l-0.8,0.7l-0.4-0.5l1.5-1.6h0.8l0,0l0,0v5.9h0.8v0.8h-2.5V637.3z"/>
		</g>
		<line id="XMLID_197_" class="st8" x1="127" y1="591.5" x2="183" y2="591.5"/>
		<line id="XMLID_196_" class="st8" x1="127" y1="602.5" x2="183" y2="602.5"/>
		<line id="XMLID_195_" class="st8" x1="127" y1="614.5" x2="183" y2="614.5"/>
		<rect id="XMLID_188_" x="89.6" y="619.8" class="st5" width="34.7" height="8.9"/>
		<g class="st6">
			<path class="st7" d="M108,626.4l1.5-2.8c0.5-1,0.7-1.5,0.7-1.8c0-0.5-0.2-0.7-0.6-0.7c-0.5,0-0.7,0.4-0.7,1.1v0.4h-0.8
				c-0.1-0.3-0.1-0.5-0.1-0.8c0-0.7,0.5-1.4,1.5-1.4c1.2,0,1.6,0.6,1.6,1.5c0,0.5-0.2,1-0.7,1.9l-1.3,2.5h1.9v0.8H108V626.4z"/>
			<path class="st7" d="M113.7,623.5h4.4v0.8h-4.4V623.5z"/>
			<path class="st7" d="M120.9,624.8h0.8v0.5c0,0.6,0.2,0.9,0.6,0.9c0.4,0,0.6-0.3,0.6-0.9v-1.3c0-0.7-0.2-0.8-0.6-0.8
				c-0.3,0-0.5,0.2-0.6,0.4h-0.7v-3.4h2.9v0.9h-2v1.6c0.2-0.2,0.6-0.4,0.9-0.4c0.8,0,1.2,0.6,1.2,1.6v1.1c0,1.4-0.8,1.8-1.6,1.8
				c-1,0-1.5-0.6-1.5-1.4C120.8,625.3,120.8,625.1,120.9,624.8z"/>
		</g>
		<line id="XMLID_175_" class="st8" x1="127" y1="625.5" x2="183" y2="625.5"/>
		<line id="XMLID_173_" class="st8" x1="127" y1="636.5" x2="183" y2="636.5"/>
	</g>
</g>
</svg>
