<?xml version="1.0" encoding="utf-8"?>
<!-- Generator: Adobe Illustrator 19.0.0, SVG Export Plug-In . SVG Version: 6.00 Build 0)  -->
<svg version="1.1" id="Calque_1" xmlns="http://www.w3.org/2000/svg" xmlns:xlink="http://www.w3.org/1999/xlink" x="0px" y="0px"
	 viewBox="0 0 769.3 801.5" style="enable-background:new 0 0 769.3 801.5;" xml:space="preserve">
<style type="text/css">
	.st0{fill:#EBB7A5;stroke:#F4D7CB;stroke-linecap:round;stroke-linejoin:round;stroke-miterlimit:10;}
	.st1{fill:#F4D7CB;stroke:#F4D7CB;stroke-linecap:round;stroke-linejoin:round;stroke-miterlimit:10;}
	.st2{fill:#E2967F;stroke:#F4D7CB;stroke-linecap:round;stroke-linejoin:round;stroke-miterlimit:10;}
	.st3{fill:#FFFFFF;stroke:#F4D7CB;stroke-miterlimit:10;}
	.st4{fill:#C32121;stroke:#F4D7CB;stroke-linecap:round;stroke-linejoin:round;stroke-miterlimit:10;}
	.st5{fill:#D9745E;stroke:#F4D7CB;stroke-linecap:round;stroke-linejoin:round;stroke-miterlimit:10;}
</style>
<g id="XMLID_1050_">
	<polygon id="Royaume-Uni_3_" class="st0" points="207.9,5.8 198,8.1 167.9,10.2 154.7,23.6 139.2,35.3 142.9,37.3 161.7,32.7 
		164,57.4 159.5,73.6 122.7,83.3 110.3,92.4 112.2,103.5 121.2,111.9 144.1,105.7 150.3,118.8 167.4,115.3 171.2,125.2 192.1,130.8 
		199.7,123.3 225.3,111.4 203.2,130.8 198.7,143.5 174.3,140.7 149.5,141.4 134.4,158.5 109.9,186.6 81.8,202.8 103.3,212.8 
		122.6,193.3 142.5,194.2 167,208.2 179.8,184 206.2,184 213.6,186 232.8,182.3 265.8,174.5 284,177.9 328,182.2 356.5,171 
		375.6,156.5 378.6,141 352.4,142.4 335.8,136.5 356.8,129.1 359.1,119.2 369.2,113.7 384.9,97.5 387.2,85.9 392.1,63.2 377.1,45.7 
		357.9,42.6 345.8,40.2 338.9,52.7 328.7,44.9 324.1,44.7 339,27.7 333.9,14.3 323.7,0 208.1,0 	"/>
	<polygon id="Irlande_3_" class="st1" points="0.1,77.1 17.7,70.4 41.4,67.5 52.5,63.5 71.1,68 89.8,24 90.7,8.3 87.3,5 84.3,0 
		0.1,0 	"/>
	<polygon id="Espagne_3_" class="st2" points="440.1,712.5 433.3,714.1 424.3,723.5 416.2,723.5 404.9,715.9 400.3,715.9 
		396.5,719.7 390.4,717 390.3,713.3 383.1,710.8 371.3,714.8 366.4,708 366.4,703.4 361.3,699.5 353.3,699.5 349.7,693 340,689.1 
		331.3,686.1 330.9,696.9 319.2,695.7 313,697.3 307.1,692.9 298,695.9 292,689.6 285,684.8 272.3,688 272.3,688 272.3,688 
		271.6,687.5 265.1,681.8 264.7,677.2 264.7,677.2 262,677.2 261.8,677.2 257.4,677.1 238.9,667.3 236.8,672.2 230.8,665.7 
		233.6,664.2 234.3,657.6 215.2,651.3 215.2,647.4 202.2,651.1 185.3,647.9 170.8,639.8 158,647.3 139.5,636.1 122,632.4 
		105.5,637.3 62.1,630 46.5,621.6 22.8,617.1 -0.2,616.7 -0.2,800.5 367.4,800.5 390.3,792.2 449.7,751.1 445.9,730.5 453.3,728 
		447.6,716.6 443.5,715.3 	"/>
	<polygon id="Allemagne_3_" class="st2" points="605.6,20.6 605.6,20.6 603.3,55.3 602.3,56.6 599.8,59.9 599.6,59.9 599.6,59.9 
		590,59.3 587.2,70 598.4,70.6 598.7,72.2 601.7,85.3 588.3,96.5 592.7,105 576.3,111.9 576.3,111.9 576.3,111.9 567.5,107.9 
		559.6,112.5 574.9,139.1 573.4,142.8 571.9,146.6 565.9,161.9 566.4,173.9 566.4,173.9 563.6,181 573.6,191.8 573.6,191.8 
		573.4,192.5 572,196.1 577.7,199.8 579.7,207.2 569.7,220.3 567.4,227.8 573.7,235.5 586.7,240.4 588.1,247.3 580.1,258.5 
		581.2,262.7 589.1,266 596.4,281.3 600.4,280.9 601.4,277.9 605.5,277.9 611.8,282.7 619.2,282.6 622.3,279.8 627.9,279.9 
		634.9,286.6 647.9,285.9 660.3,291 649.6,308 643.9,312.1 641.1,334.4 635.3,345.6 637.6,355.6 632.7,373.3 637,380.2 634.5,387.8 
		637.1,383.6 654.6,382.8 665.1,377.7 676,380.2 677,378 677.1,377.7 682.9,375.4 675.5,373.6 673.4,371.7 679.3,366.3 685.4,365.2 
		690.9,370.1 697.2,373.1 704.7,371.6 715.1,372.8 729.9,377.3 731.8,373.7 747.1,386.1 747.1,388.4 747.1,391.9 760.9,381.9 
		761.7,373.4 767.7,373.3 768.1,373.3 768.1,0 603.6,0 594.6,12.1 594.9,12.3 	"/>
	<polygon id="Italie_3_" class="st2" points="768.1,422.1 752.7,435.5 750.5,453.6 716.8,449.7 694.6,472.4 681.5,464.4 
		680.7,450.5 665.8,464.3 669.3,469.4 656.2,487.4 645.3,483.7 633.7,489.8 622.8,491.2 621,490.7 618.8,488.7 618.7,490.6 
		611.2,493.6 609.4,495.6 628.3,520.2 628.3,520.2 628.3,520.2 625.5,530.9 615.6,538.5 604.2,539.6 610.9,552.7 621.8,555.4 
		625.7,564.1 625.7,564.1 621.5,568 621.8,568.3 622,574.7 618.1,578.6 617.1,579.5 618.3,587.4 637.4,600.7 654.3,596.9 
		655.5,609.8 655.5,609.8 650.7,611.3 650.2,622.5 656.9,624.5 675.4,617.5 690.9,592.6 703.5,580.3 730.7,586.5 766.8,601.9 
		768.1,603.4 	"/>
	<polygon id="Autriche_3_" class="st3" points="761.7,373.4 760.9,381.9 747.1,391.9 747.1,388.4 747.1,386.1 731.8,373.7 
		729.9,377.3 715,372.8 723.6,379.5 727.9,382.7 729.7,388 724,398 737.5,400.1 741,412.7 749.7,421.5 760,414 767.4,414 768.1,414 
		768.1,373.3 767.7,373.3 	"/>
	<polygon id="Liechtenstein_3_" class="st3" points="741,412.7 737.5,400.1 724,398 726.5,409.7 	"/>
	<polygon id="Pays-Bas_3_" class="st2" points="490.8,143.8 503.6,137.3 512.9,140.2 524.2,137.3 531.2,149.4 539.9,148.1 
		539.9,148.1 539.9,148.1 556.4,156.2 551,181.9 563.6,181 563.6,181 563.6,181 563.6,181 566.4,173.9 566.4,173.9 565.9,161.9 
		571.9,146.6 573.4,142.8 574.9,139.1 559.6,112.5 567.5,107.9 567.5,107.9 576.3,111.9 576.3,111.9 592.7,105 588.3,96.5 
		601.7,85.3 598.7,72.2 598.4,70.6 587.2,70 590,59.3 590,59.3 599.6,59.9 599.8,59.9 602.3,56.6 603.3,55.3 605.6,20.6 605.6,20.6 
		594.9,12.3 594.6,12.2 594.2,11.8 591.1,9.4 581.3,10.1 560.2,13.6 539.3,22.1 534.3,34.7 517.9,47.4 514.9,42.6 509.1,41.6 
		500.9,83.3 487,103.4 471.6,120.2 458.5,133.3 462.5,140.8 479.1,144.6 	"/>
	<polygon id="Belgique_3_" class="st4" points="424.3,177.3 428.6,179.7 430.8,182.2 433.2,186.8 438.4,183.6 446.8,181.7 
		450.7,186.5 451.7,198.1 456.2,200.1 460.5,198.2 468.3,203.7 467.8,211.4 469.4,211.4 470.7,209.3 483,208.7 490.8,216 
		491.1,227.8 486.8,231 487.3,232.6 491.7,232.6 499,235.1 509,230.8 513.3,221 517.5,221 517.9,243.8 536,251.2 537.9,256.6 
		543.1,260.4 556.3,258 560.2,255.6 559.7,253 553.3,236.2 564.6,217.3 569.7,220.3 579.7,207.2 577.7,199.8 572,196.1 573.4,192.5 
		573.6,191.8 563.6,181 563.6,181 551,181.9 551,181.9 556.4,156.2 539.9,148.1 539.9,148.1 531.2,149.4 524.2,137.3 512.9,140.2 
		503.6,137.3 490.8,143.8 479.1,144.6 462.5,140.8 448.9,144.4 418.1,160.2 418.1,163.3 422,162.2 425.8,171.2 	"/>
	<polygon id="Luxembourg_3_" class="st0" points="588.1,247.3 586.7,240.4 573.7,235.5 567.4,227.8 569.7,220.3 564.6,217.3 
		553.3,236.2 559.7,253 560.2,255.6 556.3,258 563,262.9 571.8,260.5 575.3,260.3 581.2,262.7 580.1,258.5 	"/>
	<polygon id="Suisse_3_" class="st5" points="760,414 749.7,421.5 741,412.7 726.5,409.7 724,398.1 729.7,388.1 727.9,382.7 
		723.6,379.5 715.1,372.8 704.7,371.6 697.2,373.1 690.9,370.1 685.4,365.2 679.3,366.3 673.4,371.7 675.5,373.6 682.9,375.4 
		677.1,377.7 677,378 676,380.2 665.1,377.7 654.6,382.8 637.1,383.6 634.2,388 633.8,388 630.5,391.3 621.8,391.3 619.3,387.6 
		618.7,387.9 614.1,388.9 617.1,396.2 617.1,396.2 617.1,396.2 617.1,396.2 617.1,396.2 600.3,418.1 598.9,419.9 590.4,423.8 
		591.4,434.3 591.4,434.3 591.4,434.3 577.5,448.4 576.4,457.8 581.1,459.5 578.3,468.3 571.8,470.4 571.8,474.6 578.9,474.7 
		586.2,469.3 583.6,465.3 583.6,465.3 583.6,465.3 587.8,459.7 590.5,461.6 606.9,457.6 611,467.7 611,467.7 611,467.7 608.5,470.3 
		619.2,483.6 618.9,487.8 618.8,488.7 621,490.7 622.8,491.2 633.7,489.8 645.3,483.7 656.2,487.4 656.2,487.4 669.3,469.4 
		665.8,464.3 680.7,450.5 681.6,464.4 694.5,472.4 716.8,449.7 750.5,453.6 752.7,435.5 768.1,422.1 768.1,414 767.4,414 	"/>
	<polygon id="France_3_" class="st3" points="731.9,653.4 724.7,653.6 722.2,659.1 708,664.6 702.8,677.5 701,679.9 706.9,683.7 
		707.1,685.4 701.4,686.7 702.9,693.9 709.4,695.9 709.9,699.9 705.4,704.5 706,708.4 712.5,709 714.1,713.1 709.7,718.9 
		721.3,720.8 714.7,728 720.8,732.8 730.3,735.7 733.1,738.9 738.6,740.4 743.8,724.9 745,713.6 744.3,707.1 744.2,700.6 
		749.5,693.2 749.6,681 747.5,676.8 747,663.6 742.6,659 742.2,650.9 743.6,647.2 740.9,636.4 738.9,632.9 734.7,636.2 736.6,649.3 
		735.2,655.2 	"/>
	<polygon id="Andorre_3_" class="st1" points="371.3,714.8 383.1,710.8 377.8,702.2 366.4,703.4 366.4,708 	"/>
	<polygon id="Monaco_3_" class="st0" points="632.3,638.3 632.3,638.3 641.2,638.6 637.6,631.1 632.6,631.5 	"/>
</g>
</svg>
