<?xml version="1.0" encoding="utf-8"?>
<!-- Generator: Adobe Illustrator 19.1.0, SVG Export Plug-In . SVG Version: 6.00 Build 0)  -->
<svg version="1.1" id="Calque_1" xmlns="http://www.w3.org/2000/svg" xmlns:xlink="http://www.w3.org/1999/xlink" x="0px" y="0px"
	 viewBox="79 -4 769 801" style="enable-background:new 79 -4 769 801;" xml:space="preserve">
<style type="text/css">
	.st0{fill:#EDE6D8;stroke:#FFFFFF;stroke-miterlimit:10;}
	.st1{fill:none;stroke:#FFFFFF;stroke-miterlimit:10;}
	.st2{fill:#F6B0BF;stroke:#FFFFFF;stroke-linecap:round;stroke-linejoin:round;stroke-miterlimit:10;}
	.st3{fill:#FAD2DB;stroke:#FFFFFF;stroke-linecap:round;stroke-linejoin:round;stroke-miterlimit:10;}
	.st4{fill:#F28EA4;stroke:#FFFFFF;stroke-linecap:round;stroke-linejoin:round;stroke-miterlimit:10;}
	.st5{fill:#E61E49;stroke:#FFFFFF;stroke-linecap:round;stroke-linejoin:round;stroke-miterlimit:10;}
	.st6{fill:#EF6D89;stroke:#FFFFFF;stroke-linecap:round;stroke-linejoin:round;stroke-miterlimit:10;}
	.st7{fill:#FAD2DB;stroke:#FFFFFF;stroke-miterlimit:10;}
	.st8{fill:#FFFFFF;}
	.st9{fill:none;}
	.st10{enable-background:new    ;}
	.st11{fill:#E61E49;}
	.st12{fill:#FAD2DB;}
	.st13{fill:#F6B0BF;}
	.st14{fill:#EB4B6D;}
	.st15{fill:#EF6D89;}
</style>
<g>
	<g id="XMLID_57_">
		<g id="XMLID_58_">
			<rect id="XMLID_59_" x="79.9" y="-3.5" class="st0" width="767.3" height="800"/>
		</g>
	</g>
	<g>
		<polygon id="France_14_" class="st1" points="734.7,606.7 734.7,606.7 733.5,593.8 716.6,597.6 697.4,584.4 696.2,576.4 
			697.2,575.5 701.1,571.6 701,565.2 700.7,564.9 704.9,561.1 704.9,561 701,552.3 690.1,549.6 683.4,536.6 683.4,536.6 
			694.8,535.4 704.7,527.8 707.4,517.1 707.4,517.1 688.6,492.5 688.6,492.5 690.4,490.5 697.8,487.5 698,485.6 698.1,484.7 
			698.3,480.5 687.7,467.3 687.7,467.3 690.2,464.6 690.2,464.6 686.1,454.6 669.6,458.5 666.9,456.6 662.8,462.2 662.8,462.2 
			665.4,466.2 658.1,471.6 651,471.5 650.9,467.3 657.5,465.2 660.3,456.4 655.5,454.7 656.7,445.3 670.5,431.2 670.5,431.2 
			669.5,420.7 669.5,420.7 678.1,416.8 679.5,415 696.4,393.1 696.5,393.1 696.5,393.1 693.4,385.8 697.9,384.9 698.5,384.5 
			701,388.2 709.6,388.2 713.7,384.7 716.2,377.1 711.8,370.2 716.8,352.6 714.4,342.5 720.3,331.4 723.1,309 728.8,304.9 
			739.5,287.9 727.1,282.8 714.1,283.5 707.1,276.9 701.5,276.7 698.4,279.5 690.9,279.6 684.6,274.8 680.5,274.8 679.6,277.8 
			675.5,278.2 668.3,262.9 660.4,259.6 654.5,257.2 651,257.4 642.1,259.8 635.4,254.9 622.3,257.3 617.1,253.5 615.1,248.2 
			597.1,240.5 596.7,217.5 592.5,217.5 588.2,227.5 578.1,231.9 570.9,229.5 566.5,229.5 566,227.9 570.3,224.7 570,212.9 
			562.1,205.6 549.9,206.2 548.6,208.3 547,208.3 547.4,200.7 539.7,195.1 535.4,197 530.8,195 529.8,183.4 525.9,178.6 
			517.6,180.5 512.3,183.7 510,179.1 507.8,176.7 503.4,174.3 505,168.1 501.2,159.1 482.8,164.1 470.7,166.3 460.9,173.6 
			460.6,204.1 451.7,223.1 440.8,231.9 404.1,244.6 397.6,258.5 407.3,263.4 384.4,272.6 376.9,268.4 357.8,265.7 353.7,263.6 
			348.2,265 340.3,253.4 344.5,250.3 342.6,244.5 331.4,244.5 326.9,246.6 314.2,240.4 313.3,242.3 317.9,245.9 317.9,259.8 
			325.9,274.3 328.4,293.6 325.7,299.3 333.7,309.4 327.3,311.6 316.6,311.5 315.3,305.5 310,305.3 307.9,307.6 294,306 
			277.6,312.9 273,309.1 264.4,291.5 241.5,292.8 240.1,301 230.6,299.1 228.4,301.5 218.1,297.7 192.2,305.2 189.3,319.3 
			203.1,318.4 212.2,323.9 198.4,321.6 194.7,323.6 209,330.8 208.2,335.3 190.9,336 190.8,338.9 198.7,340.7 204.3,351.7 204,355 
			212.4,355.5 213.5,351.8 224.8,357.8 239.5,360.1 254.3,373.1 268.4,380.5 282.4,383.8 277.6,393.9 292.5,396.5 292.5,402.5 
			289.9,405.4 296.6,406.6 301.8,410.7 294.6,419.5 294.4,424.7 307,445.9 336,460.8 333.6,467.3 321.1,459.6 316.1,462.7 
			339.9,476.5 337,487.5 333,485.5 324.8,475.1 324.3,482.8 329.3,486.5 330.8,499.2 350.7,514.6 352.3,523 354.5,534.7 353,537.2 
			348.2,520.5 337.1,513 335.9,507.2 333.5,508.1 332.5,516.4 325.4,564.7 330.9,557.9 337.6,566.1 337.1,569.5 329.4,569.5 
			325.5,574 325.4,577.9 313.2,629.9 309.9,635.1 303.8,642.4 294.5,644.4 294.5,648.3 313.5,654.5 312.8,661.1 310,662.7 
			316,669.1 318.1,664.2 336.6,674 340.9,674.1 341.1,674.1 343.9,674.1 343.9,674.1 343.9,674.1 344.3,678.7 350.8,684.4 
			351.4,685 351.4,685 364.2,681.7 371.2,686.5 377.2,692.8 386.2,689.8 392.1,694.2 398.3,692.6 410.1,693.8 410.5,683 419.1,686 
			428.8,689.9 432.5,696.5 440.5,696.5 445.6,700.4 457,699.1 462.5,708 469.5,710.2 469.5,713.9 475.6,716.6 479.4,712.8 
			484,712.8 495.4,720.5 503.5,720.5 512.5,711 519.3,709.4 522.7,712.2 526.7,713.5 526.8,707.7 522.7,703.5 521.7,685.1 
			521.9,672.4 517.1,669.3 518.9,666.4 523.1,669.5 528.4,662.9 564.9,640.3 569,640.6 571.2,645.2 579,645.1 595.1,646.3 
			592.1,650.3 602.4,654.3 608.2,652.5 605.6,647.6 611,648.4 614.8,652.6 628.9,652.1 631.1,660 645.5,664 651.7,670.4 
			659.1,666.7 667.1,667.5 677,666.2 691.8,658.2 690.7,651.7 703.1,640.8 711.5,635.2 711.7,628.4 716.8,628 729.3,619.4 
			729.3,619.4 729.9,608.2 		"/>
		<g id="XMLID_56_">
			<polygon id="Royaume-Uni_7_" class="st2" points="287,2.5 277.1,4.9 247.1,7.1 233.9,20.5 218.3,32.2 222.1,34.2 240.9,29.6 
				243.2,54.3 238.6,70.5 201.9,80.2 189.5,89.4 191.4,100.4 200.4,108.8 223.3,102.6 229.5,115.8 246.6,112.2 250.4,122.1 
				271.2,127.7 278.8,120.2 304.5,108.3 282.4,127.7 277.9,140.4 253.4,137.7 228.7,138.3 213.6,155.4 189.1,183.5 160.9,199.7 
				182.5,209.7 201.8,190.3 221.6,191.1 246.2,204.9 258.9,180.5 285.4,180.5 292.8,182.7 312,179.1 345,171.4 363.2,174.8 
				407.2,179.1 435.6,167.9 454.7,153.4 457.8,137.9 431.6,139.3 415,133.4 436,126 438.3,116.1 448.4,110.7 464.1,94.5 466.3,82.8 
				471.3,60.1 456.3,42.6 437.1,39.5 425,37.1 418,49.6 407.9,41.8 403.3,41.6 418.2,24.6 413.1,11 402.9,-3.5 287.2,-3.5 			"/>
			<polygon id="Irlande_7_" class="st3" points="79.5,74 97,67.3 120.6,64.4 131.7,60.5 150.2,64.9 169,20.9 169.9,5.2 166.5,1.7 
				163.5,-3.5 79.5,-3.5 			"/>
			<polygon id="Espagne_7_" class="st4" points="519.3,709.4 512.5,711 503.5,720.5 495.4,720.5 484,712.8 479.4,712.9 475.6,716.6 
				469.5,713.9 469.5,710.2 462.3,707.7 450.5,711.7 445.5,705 445.6,700.4 440.5,696.5 432.5,696.5 428.8,689.9 419.1,686 
				410.5,683 410.1,693.8 398.3,692.7 392.1,694.2 386.2,689.8 377.2,692.8 371.2,686.5 364.2,681.7 351.4,684.7 351.4,684.5 
				351.4,684.5 350.8,684.2 344.3,678.6 343.9,674.1 343.9,674.1 341.2,674.1 340.9,674.1 336.6,674 318.1,664.2 316,669.1 
				310,662.7 312.8,661.1 313.5,654.5 294.5,648.3 294.5,644.4 281.4,648 264.5,644.8 250,636.7 237.2,644.2 218.7,633 201.2,629.3 
				184.7,634.3 141.3,626.9 125.7,618.5 101.8,614 79.5,613.7 79.5,796.5 446.6,796.5 469.5,789.2 528.9,748 525.1,727.4 532.5,725 
				526.7,713.5 522.7,712.2 			"/>
			<polygon id="Allemagne_8_" class="st4" points="684.8,17.5 684.8,17.5 682.4,52.2 681.5,53.5 679,56.8 678.8,56.8 678.7,56.8 
				669.2,56.2 666.3,66.9 677.5,67.5 677.9,69.1 680.9,82.2 667.5,93.4 671.9,101.9 655.4,108.8 655.4,108.8 655.4,108.8 
				646.6,104.9 638.8,109.4 654,136 652.6,139.7 651,143.6 645,158.8 645.6,170.9 645.6,170.9 642.8,177.9 652.8,188.7 652.8,188.7 
				652.5,189.4 651.2,193 656.8,196.7 658.9,204.1 648.9,217.2 646.5,224.7 652.9,232.4 665.9,237.3 667.3,244.2 659.3,255.4 
				660.4,259.6 668.3,262.9 675.5,278.2 679.6,277.8 680.5,274.8 684.6,274.8 690.9,279.6 698.4,279.5 701.5,276.7 707.1,276.9 
				714.1,283.5 727.1,282.8 739.5,287.9 728.8,304.9 723.1,309 720.3,331.4 714.4,342.5 716.8,352.6 711.8,370.2 716.2,377.1 
				713.7,384.7 716.3,380.5 733.8,379.8 744.3,374.7 755.2,377.2 756.2,374.9 756.3,374.6 762.1,372.3 754.7,370.5 752.6,368.6 
				758.5,363.2 764.5,362.1 770.1,367 776.4,370 783.9,368.5 794.2,369.7 809.1,374.2 811.1,370.6 826.5,383 826.5,385.3 
				826.5,388.8 840.2,378.8 840.9,370.3 847,370.2 847.5,370.2 847.5,-3.5 682.8,-3.5 673.8,8.8 674,9.1 			"/>
			<polygon id="Italie_7_" class="st4" points="847.5,419 832,432.4 829.8,450.6 796,446.7 773.7,469.3 760.7,461.3 759.8,447.5 
				744.9,461.2 748.4,466.4 735.3,484.3 724.5,480.6 712.9,486.7 702,488.1 700.2,487.6 698,485.6 697.8,487.5 690.4,490.5 
				688.6,492.5 707.4,517.1 707.4,517.1 707.4,517.1 704.7,527.8 694.8,535.4 683.4,536.6 690.1,549.6 701,552.3 704.9,561 
				704.9,561.1 700.7,564.9 701,565.2 701.1,571.6 697.2,575.5 696.2,576.4 697.4,584.4 716.6,597.6 733.5,593.8 734.7,606.7 
				734.7,606.7 729.9,608.2 729.3,619.4 736,621.4 754.6,614.4 770.1,589.5 782.7,577.2 809.9,583.4 846.1,598.8 847.5,600.3 			"/>
			<polygon id="Autriche_7_" class="st1" points="840.9,370.3 840.2,378.8 826.5,388.8 826.5,385.3 826.5,383 811.1,370.6 
				809.2,374.2 794.2,369.7 802.8,376.4 807.1,379.6 808.8,385 803.2,394.9 816.7,397 820.1,409.6 828.9,418.2 839.1,410.5 
				846.5,410.5 847.5,410.5 847.5,370.2 847,370.2 			"/>
			<polygon id="Liechtenstein_7_" class="st1" points="820.1,409.6 816.7,397 803.2,394.9 805.7,406.6 			"/>
			<polygon id="Pays-Bas_8_" class="st4" points="569.9,140.7 582.8,134.3 592.1,137.2 603.4,134.3 610.4,146.3 619.1,145.1 
				619.1,145.1 619.1,145.1 635.5,153.1 630.2,178.8 642.8,177.9 642.8,177.9 642.8,177.9 642.8,177.9 645.6,170.9 645.6,170.9 
				645,158.8 651,143.6 652.6,139.7 654,136 638.8,109.4 646.6,104.9 646.6,104.9 655.4,108.8 655.4,108.8 671.9,101.9 667.5,93.4 
				680.9,82.2 677.9,69.1 677.5,67.5 666.3,66.9 669.2,56.2 669.2,56.2 678.8,56.8 679,56.8 681.5,53.5 682.4,52.2 684.8,17.5 
				684.8,17.5 674,9.2 673.8,9.1 673.4,8.7 670.2,6.3 660.5,7 639.4,10.5 618.5,19 613.5,31.6 597,44.3 594.1,39.5 588.3,38.5 
				580.1,80.2 566.2,100.3 550.7,117.2 537.7,130.3 541.7,137.7 558.2,141.5 			"/>
			<polygon id="Belgique_7_" class="st5" points="503.4,174.3 507.8,176.7 510,179.1 512.3,183.7 517.6,180.5 525.9,178.6 
				529.8,183.4 530.8,195 535.4,197 539.7,195.1 547.4,200.7 547,208.3 548.6,208.3 549.9,206.2 562.1,205.6 570,212.9 570.3,224.7 
				566,228 566.5,229.5 570.9,229.6 578.1,232 588.2,227.5 592.5,217.5 596.7,217.5 597.1,240.5 615.1,248 617.1,253.4 622.3,257.2 
				635.4,254.9 639.4,252.6 638.9,249.9 632.5,233.1 643.7,214.2 648.9,217.2 658.9,204.1 656.8,196.7 651.1,193 652.5,189.4 
				652.8,188.7 642.8,177.9 642.8,177.9 630.2,178.8 630.2,178.8 635.5,153.1 619.1,145.1 619.1,145.1 610.4,146.3 603.4,134.3 
				592.1,137.2 582.8,134.3 569.9,140.7 558.2,141.5 541.7,137.7 528.2,141.3 497.5,157.1 497.5,160.2 501.3,159.1 505.1,168.1 			
				"/>
			<polygon id="Luxembourg_9_" class="st2" points="667.3,244.2 665.9,237.3 652.9,232.4 646.5,224.7 648.9,217.2 643.7,214.2 
				632.5,233.1 638.9,249.9 639.4,252.6 635.4,254.9 642.1,259.8 651,257.4 654.5,257.2 660.4,259.6 659.3,255.4 			"/>
			<polygon id="Suisse_8_" class="st6" points="839.1,410.5 828.9,418.2 820.1,409.5 805.7,406.6 803.2,394.9 808.8,385 
				807.1,379.6 802.8,376.4 794.2,369.7 783.9,368.5 776.4,370 770.1,367 764.5,362.1 758.5,363.2 752.6,368.6 754.7,370.5 
				762.1,372.3 756.3,374.6 756.2,374.9 755.2,377.1 744.3,374.7 733.8,379.8 716.3,380.3 713.3,384.5 712.9,384.5 709.6,388 
				701,388.1 698.5,384.5 697.9,384.8 693.4,385.8 696.5,393.1 696.5,393.1 696.5,393.1 696.4,393.1 696.3,393.1 679.5,415 
				678.1,416.8 669.6,420.8 670.5,431.5 670.5,431.5 670.5,431.5 656.7,445.5 655.5,454.8 660.3,456.5 657.5,465.3 650.9,467.3 
				651,471.5 658.1,471.6 665.4,466.2 662.8,462.2 662.8,462.2 662.8,462.2 666.9,456.6 669.6,458.5 686.1,454.6 690.2,464.6 
				690.2,464.6 690.2,464.6 687.7,467.3 698.3,480.5 698.1,484.7 698,485.6 700.2,487.6 702,488.1 712.9,486.7 724.5,480.6 
				735.3,484.3 735.3,484.3 748.4,466.4 744.9,461.2 759.8,447.5 760.7,461.3 773.7,469.3 796,446.7 829.7,450.6 832,432.4 
				847.5,419 847.5,410.5 846.5,410.5 			"/>
			<polygon id="France_13_" class="st1" points="811.1,650.3 803.9,650.6 801.4,656 787.1,661.5 782,674.4 780.2,676.8 786.1,680.6 
				786.3,682.3 780.6,683.6 782.1,690.8 788.6,692.9 789,696.8 784.6,701.4 785.2,705.3 791.7,705.9 793.3,710 788.9,715.8 
				800.5,717.7 793.8,724.9 799.9,729.7 809.5,732.7 812.3,735.9 817.8,737.4 823,721.9 824.2,710.5 823.5,704 823.4,697.5 
				828.7,690.2 828.8,677.9 826.7,673.7 826.1,660.6 821.8,655.9 821.4,647.8 822.8,644.1 820,633.4 818,629.8 813.9,633.1 
				815.8,646.2 814.4,652.1 			"/>
			<polygon id="Andorre_7_" class="st7" points="450.5,711.7 462.3,707.7 457,699.1 445.6,700.3 445.5,705 			"/>
			<polygon id="Monaco_7_" class="st2" points="711.5,635.2 711.5,635.2 720.4,635.5 716.8,628 711.7,628.4 			"/>
		</g>
	</g>
</g>
<g>
	<rect x="79.5" y="407.5" class="st8" width="185.5" height="159.9"/>
	<g id="XMLID_181_">
		<rect id="XMLID_192_" x="96.4" y="425.5" class="st9" width="177.7" height="77.3"/>
		<g class="st10">
			<path d="M97.7,425.5h4.4c0.5,0,0.9,0.1,1.3,0.2s0.7,0.4,1,0.7c0.3,0.3,0.5,0.6,0.6,1s0.2,0.8,0.2,1.3c0,0.5-0.1,0.9-0.2,1.4
				s-0.4,0.8-0.7,1c-0.3,0.3-0.7,0.5-1.1,0.7s-1,0.2-1.6,0.2h-2.4v3.9h-1.6V425.5z M101.9,430.6c0.6,0,1-0.2,1.3-0.5
				s0.4-0.8,0.4-1.3c0-0.3,0-0.5-0.1-0.7c-0.1-0.2-0.2-0.4-0.3-0.6s-0.3-0.3-0.5-0.4c-0.2-0.1-0.4-0.1-0.7-0.1h-2.7v3.8H101.9z"/>
			<path d="M111.6,434.8L111.6,434.8c-0.3,0.4-0.6,0.6-1,0.9s-1,0.3-1.6,0.3c-0.4,0-0.7-0.1-1-0.2c-0.3-0.1-0.5-0.2-0.7-0.4
				c-0.2-0.2-0.3-0.4-0.4-0.6c-0.1-0.2-0.1-0.5-0.1-0.8c0-0.5,0.1-1,0.4-1.3c0.2-0.3,0.5-0.5,0.9-0.7s0.8-0.3,1.2-0.3
				s0.9-0.1,1.2-0.2c0.3,0,0.5-0.1,0.7-0.1s0.3-0.1,0.4-0.1c0.1-0.1,0.1-0.1,0.2-0.2c0-0.1,0-0.2,0-0.3c0-0.4-0.1-0.7-0.4-1
				s-0.6-0.4-1.2-0.4c-0.5,0-0.9,0.1-1.2,0.3s-0.4,0.6-0.5,1.1H107c0.1-0.8,0.4-1.4,0.8-1.9c0.5-0.5,1.2-0.7,2.3-0.7
				c1,0,1.8,0.2,2.3,0.7c0.5,0.5,0.7,1.2,0.7,2.3v4.6h-1.5V434.8z M111.6,432.2c-0.4,0.1-0.8,0.2-1.2,0.2c-0.4,0.1-0.8,0.1-1.1,0.2
				s-0.6,0.2-0.8,0.4s-0.3,0.4-0.3,0.7c0,0.3,0.1,0.6,0.4,0.8s0.6,0.3,1,0.3c0.3,0,0.6,0,0.9-0.1c0.3-0.1,0.5-0.2,0.7-0.4
				s0.3-0.4,0.5-0.6c0.1-0.2,0.2-0.5,0.2-0.8V432.2z"/>
			<path d="M117.4,435.8l-3-7.5h1.6l2.1,5.8l1.9-5.8h1.6l-3.7,10.2h-1.6L117.4,435.8z"/>
			<path d="M124,433.4c0,0.6,0.2,0.9,0.6,1.1s0.7,0.3,1.2,0.3c0.4,0,0.8-0.1,1-0.3s0.4-0.4,0.4-0.8c0-0.3-0.1-0.5-0.3-0.7
				s-0.5-0.3-0.8-0.4c-0.3-0.1-0.7-0.2-1.1-0.2c-0.4-0.1-0.7-0.2-1.1-0.3c-0.3-0.1-0.6-0.4-0.8-0.6c-0.2-0.3-0.3-0.7-0.3-1.2
				c0-0.3,0.1-0.6,0.2-0.9c0.1-0.3,0.3-0.5,0.5-0.7s0.5-0.4,0.9-0.5c0.3-0.1,0.8-0.2,1.2-0.2c0.9,0,1.6,0.2,2.1,0.6s0.8,1.1,0.8,1.9
				h-1.5c0-0.5-0.2-0.8-0.4-1.1c-0.3-0.2-0.6-0.3-1.1-0.3c-0.2,0-0.4,0-0.6,0.1s-0.3,0.1-0.4,0.2c-0.1,0.1-0.2,0.2-0.2,0.3
				s-0.1,0.2-0.1,0.4c0,0.3,0.1,0.5,0.3,0.6s0.5,0.2,0.8,0.3c0.3,0.1,0.7,0.2,1.1,0.3c0.4,0.1,0.7,0.2,1.1,0.3
				c0.3,0.2,0.6,0.4,0.8,0.7c0.2,0.3,0.3,0.7,0.3,1.2c0,0.7-0.2,1.2-0.7,1.6c-0.5,0.4-1.2,0.6-2.2,0.6c-1,0-1.8-0.2-2.3-0.6
				s-0.9-1.1-0.9-2H124z"/>
			<path d="M141.1,433.3c0,0.4-0.1,0.8-0.3,1.1s-0.4,0.6-0.7,0.9s-0.6,0.4-1,0.6c-0.4,0.1-0.8,0.2-1.3,0.2c-0.6,0-1.1-0.1-1.6-0.3
				c-0.4-0.2-0.8-0.4-1.1-0.8s-0.5-0.8-0.6-1.2c-0.1-0.5-0.2-1-0.2-1.6s0.1-1.1,0.2-1.6c0.1-0.5,0.4-0.9,0.7-1.2
				c0.3-0.3,0.7-0.6,1.1-0.8s0.9-0.3,1.5-0.3s1.1,0.1,1.5,0.3s0.8,0.4,1,0.8c0.3,0.3,0.5,0.7,0.6,1.2c0.1,0.5,0.2,1,0.2,1.6v0.2
				h-5.3c0,0.8,0.2,1.4,0.5,1.8s0.8,0.6,1.4,0.6c0.5,0,0.9-0.1,1.3-0.4s0.5-0.6,0.6-1.1H141.1z M139.7,431.3c0-0.6-0.2-1-0.5-1.4
				s-0.7-0.6-1.3-0.6c-0.6,0-1,0.2-1.3,0.5c-0.3,0.3-0.5,0.8-0.6,1.5H139.7z M138.7,425.5h1.8l-2.1,2h-1.2L138.7,425.5z"/>
			<path d="M143.3,429.6h-1v-1.2h1v-1.9h1.5v1.9h1.8v1.2h-1.8v3.9c0,0.4,0.1,0.7,0.3,0.8s0.4,0.3,0.8,0.3c0.1,0,0.2,0,0.4,0
				s0.2,0,0.4,0v1.3c-0.2,0-0.3,0.1-0.5,0.1s-0.3,0-0.5,0c-0.7,0-1.3-0.2-1.7-0.6c-0.4-0.4-0.6-1-0.6-1.8V429.6z"/>
			<path d="M148.2,428.3h1.5v1.2h0c0.2-0.4,0.5-0.7,0.9-1s0.7-0.3,1.2-0.3c0,0,0.1,0,0.2,0s0.2,0,0.2,0v1.6c-0.1,0-0.2,0-0.3-0.1
				s-0.2,0-0.3,0c-0.6,0-1,0.2-1.4,0.5s-0.5,0.9-0.5,1.5v4.1h-1.5V428.3z"/>
			<path d="M158.2,434.8L158.2,434.8c-0.3,0.4-0.6,0.6-1,0.9s-1,0.3-1.6,0.3c-0.4,0-0.7-0.1-1-0.2c-0.3-0.1-0.5-0.2-0.7-0.4
				c-0.2-0.2-0.3-0.4-0.4-0.6c-0.1-0.2-0.1-0.5-0.1-0.8c0-0.5,0.1-1,0.4-1.3c0.2-0.3,0.5-0.5,0.9-0.7s0.8-0.3,1.2-0.3
				s0.9-0.1,1.2-0.2c0.3,0,0.5-0.1,0.7-0.1s0.3-0.1,0.4-0.1c0.1-0.1,0.1-0.1,0.2-0.2c0-0.1,0-0.2,0-0.3c0-0.4-0.1-0.7-0.4-1
				s-0.6-0.4-1.2-0.4c-0.5,0-0.9,0.1-1.2,0.3s-0.4,0.6-0.5,1.1h-1.4c0.1-0.8,0.4-1.4,0.8-1.9c0.5-0.5,1.2-0.7,2.3-0.7
				c1,0,1.8,0.2,2.3,0.7c0.5,0.5,0.7,1.2,0.7,2.3v4.6h-1.5V434.8z M158.2,432.2c-0.4,0.1-0.8,0.2-1.2,0.2c-0.4,0.1-0.8,0.1-1.1,0.2
				s-0.6,0.2-0.8,0.4s-0.3,0.4-0.3,0.7c0,0.3,0.1,0.6,0.4,0.8s0.6,0.3,1,0.3c0.3,0,0.6,0,0.9-0.1c0.3-0.1,0.5-0.2,0.7-0.4
				s0.3-0.4,0.5-0.6c0.1-0.2,0.2-0.5,0.2-0.8V432.2z"/>
			<path d="M162,428.3h1.5v1.2h0c0.3-0.4,0.6-0.7,0.9-1s0.9-0.3,1.5-0.3c0.9,0,1.5,0.2,1.9,0.7c0.4,0.5,0.6,1.1,0.6,2v4.9h-1.5v-4.5
				c0-0.6-0.1-1.1-0.3-1.4s-0.6-0.5-1.1-0.5c-0.6,0-1.1,0.2-1.4,0.6s-0.5,0.9-0.5,1.5v4.3H162V428.3z"/>
			<path d="M177.5,428.3v1.2h-1.4c0.2,0.2,0.3,0.4,0.3,0.6c0.1,0.2,0.1,0.5,0.1,0.8c0,0.4-0.1,0.8-0.2,1.1s-0.3,0.6-0.6,0.9
				s-0.6,0.4-0.9,0.6s-0.8,0.2-1.2,0.2c-0.5,0-1-0.1-1.4-0.3c-0.1,0.1-0.2,0.2-0.3,0.3s-0.1,0.2-0.1,0.3c0,0.2,0.1,0.3,0.2,0.4
				s0.4,0.1,0.6,0.2c0.3,0,0.6,0.1,0.9,0.1s0.7,0,1,0.1s0.7,0.1,1,0.1c0.3,0.1,0.6,0.2,0.9,0.3c0.3,0.1,0.5,0.3,0.6,0.6
				c0.2,0.2,0.2,0.5,0.2,0.9c0,0.3-0.1,0.5-0.2,0.8s-0.3,0.5-0.6,0.7s-0.7,0.4-1.2,0.5c-0.5,0.1-1.1,0.2-1.9,0.2
				c-0.7,0-1.2,0-1.7-0.1c-0.5-0.1-0.8-0.2-1.1-0.4s-0.5-0.3-0.6-0.5s-0.2-0.4-0.2-0.7c0-0.3,0.1-0.6,0.2-0.9s0.4-0.5,0.7-0.6
				c-0.2-0.1-0.4-0.2-0.6-0.4s-0.2-0.4-0.2-0.7c0-0.3,0.1-0.6,0.3-0.8s0.5-0.5,0.8-0.6c-0.3-0.2-0.4-0.5-0.6-0.9s-0.2-0.7-0.2-1.1
				c0-0.4,0.1-0.8,0.2-1.1c0.1-0.3,0.3-0.6,0.6-0.9c0.3-0.2,0.6-0.4,0.9-0.6c0.4-0.1,0.8-0.2,1.2-0.2c0.2,0,0.4,0,0.5,0
				s0.3,0.1,0.5,0.1H177.5z M176.1,436.7c0-0.3-0.1-0.4-0.4-0.5c-0.3-0.1-0.6-0.2-1-0.2c-0.4,0-0.8-0.1-1.3-0.1s-0.9-0.1-1.3-0.1
				c-0.3,0.2-0.4,0.4-0.5,0.5c-0.1,0.1-0.1,0.3-0.1,0.4c0,0.3,0.2,0.6,0.5,0.7c0.3,0.2,1,0.3,1.9,0.3c0.8,0,1.4-0.1,1.7-0.3
				C175.9,437.3,176.1,437,176.1,436.7z M173.6,432.6c0.5,0,0.9-0.1,1.1-0.4c0.3-0.3,0.4-0.7,0.4-1.3s-0.1-1-0.4-1.3
				c-0.3-0.3-0.7-0.4-1.1-0.4s-0.8,0.1-1.1,0.4c-0.3,0.3-0.4,0.7-0.4,1.3s0.1,1,0.4,1.3C172.8,432.5,173.2,432.6,173.6,432.6z"/>
			<path d="M185.7,433.3c0,0.4-0.1,0.8-0.3,1.1s-0.4,0.6-0.7,0.9s-0.6,0.4-1,0.6c-0.4,0.1-0.8,0.2-1.3,0.2c-0.6,0-1.1-0.1-1.6-0.3
				c-0.4-0.2-0.8-0.4-1.1-0.8s-0.5-0.8-0.6-1.2c-0.1-0.5-0.2-1-0.2-1.6s0.1-1.1,0.2-1.6c0.1-0.5,0.4-0.9,0.7-1.2
				c0.3-0.3,0.7-0.6,1.1-0.8s0.9-0.3,1.5-0.3s1.1,0.1,1.5,0.3s0.8,0.4,1,0.8c0.3,0.3,0.5,0.7,0.6,1.2c0.1,0.5,0.2,1,0.2,1.6v0.2
				h-5.3c0,0.8,0.2,1.4,0.5,1.8s0.8,0.6,1.4,0.6c0.5,0,0.9-0.1,1.3-0.4s0.5-0.6,0.6-1.1H185.7z M184.2,431.3c0-0.6-0.2-1-0.5-1.4
				s-0.7-0.6-1.3-0.6c-0.6,0-1,0.2-1.3,0.5c-0.3,0.3-0.5,0.8-0.6,1.5H184.2z"/>
			<path d="M187.8,428.3h1.5v1.2h0c0.2-0.4,0.5-0.7,0.9-1s0.7-0.3,1.2-0.3c0,0,0.1,0,0.2,0s0.2,0,0.2,0v1.6c-0.1,0-0.2,0-0.3-0.1
				s-0.2,0-0.3,0c-0.6,0-1,0.2-1.4,0.5s-0.5,0.9-0.5,1.5v4.1h-1.5V428.3z"/>
			<path d="M194.4,433.4c0,0.6,0.2,0.9,0.6,1.1s0.7,0.3,1.2,0.3c0.4,0,0.8-0.1,1-0.3s0.4-0.4,0.4-0.8c0-0.3-0.1-0.5-0.3-0.7
				s-0.5-0.3-0.8-0.4c-0.3-0.1-0.7-0.2-1.1-0.2c-0.4-0.1-0.7-0.2-1.1-0.3c-0.3-0.1-0.6-0.4-0.8-0.6c-0.2-0.3-0.3-0.7-0.3-1.2
				c0-0.3,0.1-0.6,0.2-0.9c0.1-0.3,0.3-0.5,0.5-0.7s0.5-0.4,0.9-0.5c0.3-0.1,0.8-0.2,1.2-0.2c0.9,0,1.6,0.2,2.1,0.6s0.8,1.1,0.8,1.9
				h-1.5c0-0.5-0.2-0.8-0.4-1.1c-0.3-0.2-0.6-0.3-1.1-0.3c-0.2,0-0.4,0-0.6,0.1s-0.3,0.1-0.4,0.2c-0.1,0.1-0.2,0.2-0.2,0.3
				s-0.1,0.2-0.1,0.4c0,0.3,0.1,0.5,0.3,0.6s0.5,0.2,0.8,0.3c0.3,0.1,0.7,0.2,1.1,0.3c0.4,0.1,0.7,0.2,1.1,0.3
				c0.3,0.2,0.6,0.4,0.8,0.7c0.2,0.3,0.3,0.7,0.3,1.2c0,0.7-0.2,1.2-0.7,1.6c-0.5,0.4-1.2,0.6-2.2,0.6c-1,0-1.8-0.2-2.3-0.6
				s-0.9-1.1-0.9-2H194.4z"/>
			<path d="M204.2,428.3h1.6l2,5.8l2-5.8h1.6l-2.9,7.5h-1.5L204.2,428.3z"/>
			<path d="M213.6,427c-0.3,0-0.5-0.1-0.7-0.3s-0.3-0.4-0.3-0.7c0-0.3,0.1-0.5,0.3-0.7c0.2-0.2,0.4-0.3,0.7-0.3
				c0.3,0,0.5,0.1,0.7,0.3s0.3,0.4,0.3,0.7c0,0.3-0.1,0.5-0.3,0.7S213.9,427,213.6,427z M212.9,428.3h1.5v7.5h-1.5V428.3z"/>
			<path d="M217.7,433.4c0,0.6,0.2,0.9,0.6,1.1s0.7,0.3,1.2,0.3c0.4,0,0.8-0.1,1-0.3s0.4-0.4,0.4-0.8c0-0.3-0.1-0.5-0.3-0.7
				s-0.5-0.3-0.8-0.4c-0.3-0.1-0.7-0.2-1.1-0.2c-0.4-0.1-0.7-0.2-1.1-0.3c-0.3-0.1-0.6-0.4-0.8-0.6c-0.2-0.3-0.3-0.7-0.3-1.2
				c0-0.3,0.1-0.6,0.2-0.9c0.1-0.3,0.3-0.5,0.5-0.7s0.5-0.4,0.9-0.5c0.3-0.1,0.8-0.2,1.2-0.2c0.9,0,1.6,0.2,2.1,0.6s0.8,1.1,0.8,1.9
				h-1.5c0-0.5-0.2-0.8-0.4-1.1c-0.3-0.2-0.6-0.3-1.1-0.3c-0.2,0-0.4,0-0.6,0.1s-0.3,0.1-0.4,0.2c-0.1,0.1-0.2,0.2-0.2,0.3
				s-0.1,0.2-0.1,0.4c0,0.3,0.1,0.5,0.3,0.6s0.5,0.2,0.8,0.3c0.3,0.1,0.7,0.2,1.1,0.3c0.4,0.1,0.7,0.2,1.1,0.3
				c0.3,0.2,0.6,0.4,0.8,0.7c0.2,0.3,0.3,0.7,0.3,1.2c0,0.7-0.2,1.2-0.7,1.6c-0.5,0.4-1.2,0.6-2.2,0.6c-1,0-1.8-0.2-2.3-0.6
				s-0.9-1.1-0.9-2H217.7z"/>
			<path d="M225.1,427c-0.3,0-0.5-0.1-0.7-0.3s-0.3-0.4-0.3-0.7c0-0.3,0.1-0.5,0.3-0.7c0.2-0.2,0.4-0.3,0.7-0.3
				c0.3,0,0.5,0.1,0.7,0.3s0.3,0.4,0.3,0.7c0,0.3-0.1,0.5-0.3,0.7S225.4,427,225.1,427z M224.3,428.3h1.5v7.5h-1.5V428.3z"/>
			<path d="M228.3,429.6h-1v-1.2h1v-1.9h1.5v1.9h1.8v1.2h-1.8v3.9c0,0.4,0.1,0.7,0.3,0.8s0.4,0.3,0.8,0.3c0.1,0,0.2,0,0.4,0
				s0.2,0,0.4,0v1.3c-0.2,0-0.3,0.1-0.5,0.1s-0.3,0-0.5,0c-0.7,0-1.3-0.2-1.7-0.6c-0.4-0.4-0.6-1-0.6-1.8V429.6z"/>
			<path d="M239.5,433.3c0,0.4-0.1,0.8-0.3,1.1s-0.4,0.6-0.7,0.9s-0.6,0.4-1,0.6c-0.4,0.1-0.8,0.2-1.3,0.2c-0.6,0-1.1-0.1-1.6-0.3
				c-0.4-0.2-0.8-0.4-1.1-0.8s-0.5-0.8-0.6-1.2c-0.1-0.5-0.2-1-0.2-1.6s0.1-1.1,0.2-1.6c0.1-0.5,0.4-0.9,0.7-1.2
				c0.3-0.3,0.7-0.6,1.1-0.8s0.9-0.3,1.5-0.3s1.1,0.1,1.5,0.3s0.8,0.4,1,0.8c0.3,0.3,0.5,0.7,0.6,1.2c0.1,0.5,0.2,1,0.2,1.6v0.2
				h-5.3c0,0.8,0.2,1.4,0.5,1.8s0.8,0.6,1.4,0.6c0.5,0,0.9-0.1,1.3-0.4s0.5-0.6,0.6-1.1H239.5z M238,431.3c0-0.6-0.2-1-0.5-1.4
				s-0.7-0.6-1.3-0.6c-0.6,0-1,0.2-1.3,0.5c-0.3,0.3-0.5,0.8-0.6,1.5H238z M237,425.5h1.8l-2.1,2h-1.2L237,425.5z"/>
			<path d="M242.6,433.4c0,0.6,0.2,0.9,0.6,1.1s0.7,0.3,1.2,0.3c0.4,0,0.8-0.1,1-0.3s0.4-0.4,0.4-0.8c0-0.3-0.1-0.5-0.3-0.7
				s-0.5-0.3-0.8-0.4c-0.3-0.1-0.7-0.2-1.1-0.2c-0.4-0.1-0.7-0.2-1.1-0.3c-0.3-0.1-0.6-0.4-0.8-0.6c-0.2-0.3-0.3-0.7-0.3-1.2
				c0-0.3,0.1-0.6,0.2-0.9c0.1-0.3,0.3-0.5,0.5-0.7s0.5-0.4,0.9-0.5c0.3-0.1,0.8-0.2,1.2-0.2c0.9,0,1.6,0.2,2.1,0.6s0.8,1.1,0.8,1.9
				h-1.5c0-0.5-0.2-0.8-0.4-1.1c-0.3-0.2-0.6-0.3-1.1-0.3c-0.2,0-0.4,0-0.6,0.1s-0.3,0.1-0.4,0.2c-0.1,0.1-0.2,0.2-0.2,0.3
				s-0.1,0.2-0.1,0.4c0,0.3,0.1,0.5,0.3,0.6s0.5,0.2,0.8,0.3c0.3,0.1,0.7,0.2,1.1,0.3c0.4,0.1,0.7,0.2,1.1,0.3
				c0.3,0.2,0.6,0.4,0.8,0.7c0.2,0.3,0.3,0.7,0.3,1.2c0,0.7-0.2,1.2-0.7,1.6c-0.5,0.4-1.2,0.6-2.2,0.6c-1,0-1.8-0.2-2.3-0.6
				s-0.9-1.1-0.9-2H242.6z"/>
		</g>
		<g class="st10">
			<path d="M97.6,446.3h1.5v1.2h0c0.2-0.4,0.5-0.7,0.9-0.9s0.9-0.4,1.5-0.4c0.5,0,1,0.1,1.4,0.3s0.7,0.5,1,0.8
				c0.3,0.3,0.5,0.7,0.6,1.2c0.1,0.5,0.2,1,0.2,1.6c0,0.6-0.1,1.1-0.2,1.6c-0.1,0.5-0.4,0.9-0.6,1.2s-0.6,0.6-1,0.8
				c-0.4,0.2-0.9,0.3-1.4,0.3c-0.6,0-1.1-0.1-1.5-0.4s-0.7-0.6-0.9-1h0v3.9h-1.5V446.3z M101.1,452.8c0.6,0,1.2-0.2,1.5-0.7
				c0.4-0.5,0.6-1.2,0.6-2c0-0.9-0.2-1.5-0.5-2c-0.4-0.5-0.9-0.7-1.6-0.7c-0.7,0-1.2,0.2-1.5,0.7c-0.3,0.5-0.5,1.2-0.5,2
				s0.2,1.5,0.5,2S100.4,452.8,101.1,452.8z"/>
			<path d="M111,452.8L111,452.8c-0.3,0.4-0.6,0.6-1,0.9s-1,0.3-1.6,0.3c-0.4,0-0.7-0.1-1-0.2c-0.3-0.1-0.5-0.2-0.7-0.4
				c-0.2-0.2-0.3-0.4-0.4-0.6c-0.1-0.2-0.1-0.5-0.1-0.8c0-0.5,0.1-1,0.4-1.3c0.2-0.3,0.5-0.5,0.9-0.7s0.8-0.3,1.2-0.3
				s0.9-0.1,1.2-0.2c0.3,0,0.5-0.1,0.7-0.1s0.3-0.1,0.4-0.1c0.1-0.1,0.1-0.1,0.2-0.2c0-0.1,0-0.2,0-0.3c0-0.4-0.1-0.7-0.4-1
				s-0.6-0.4-1.2-0.4c-0.5,0-0.9,0.1-1.2,0.3s-0.4,0.6-0.5,1.1h-1.4c0.1-0.8,0.4-1.4,0.8-1.9c0.5-0.5,1.2-0.7,2.3-0.7
				c1,0,1.8,0.2,2.3,0.7c0.5,0.5,0.7,1.2,0.7,2.3v4.6H111V452.8z M111,450.2c-0.4,0.1-0.8,0.2-1.2,0.2c-0.4,0.1-0.8,0.1-1.1,0.2
				s-0.6,0.2-0.8,0.4s-0.3,0.4-0.3,0.7c0,0.3,0.1,0.6,0.4,0.8s0.6,0.3,1,0.3c0.3,0,0.6,0,0.9-0.1c0.3-0.1,0.5-0.2,0.7-0.4
				s0.3-0.4,0.5-0.6c0.1-0.2,0.2-0.5,0.2-0.8V450.2z"/>
			<path d="M114.8,446.3h1.5v1.2h0c0.2-0.4,0.5-0.7,0.9-1s0.7-0.3,1.2-0.3c0,0,0.1,0,0.2,0s0.2,0,0.2,0v1.6c-0.1,0-0.2,0-0.3-0.1
				s-0.2,0-0.3,0c-0.6,0-1,0.2-1.4,0.5s-0.5,0.9-0.5,1.5v4.1h-1.5V446.3z"/>
			<path d="M124.6,443.5h1.5v10.4h-1.5V443.5z"/>
			<path d="M134.8,451.3c0,0.4-0.1,0.8-0.3,1.1s-0.4,0.6-0.7,0.9s-0.6,0.4-1,0.6c-0.4,0.1-0.8,0.2-1.3,0.2c-0.6,0-1.1-0.1-1.6-0.3
				c-0.4-0.2-0.8-0.4-1.1-0.8s-0.5-0.8-0.6-1.2c-0.1-0.5-0.2-1-0.2-1.6s0.1-1.1,0.2-1.6c0.1-0.5,0.4-0.9,0.7-1.2
				c0.3-0.3,0.7-0.6,1.1-0.8s0.9-0.3,1.5-0.3s1.1,0.1,1.5,0.3s0.8,0.4,1,0.8c0.3,0.3,0.5,0.7,0.6,1.2c0.1,0.5,0.2,1,0.2,1.6v0.2
				h-5.3c0,0.8,0.2,1.4,0.5,1.8s0.8,0.6,1.4,0.6c0.5,0,0.9-0.1,1.3-0.4s0.5-0.6,0.6-1.1H134.8z M133.3,449.3c0-0.6-0.2-1-0.5-1.4
				s-0.7-0.6-1.3-0.6c-0.6,0-1,0.2-1.3,0.5c-0.3,0.3-0.5,0.8-0.6,1.5H133.3z"/>
			<path d="M143.5,444.8h-3.3v-1.4h8.2v1.4h-3.3v9h-1.6V444.8z"/>
			<path d="M153.2,454c-0.6,0-1.1-0.1-1.5-0.3c-0.5-0.2-0.9-0.4-1.2-0.8s-0.6-0.8-0.7-1.2c-0.2-0.5-0.3-1-0.3-1.6s0.1-1.1,0.3-1.6
				c0.2-0.5,0.4-0.9,0.7-1.2c0.3-0.3,0.7-0.6,1.2-0.8s1-0.3,1.5-0.3s1.1,0.1,1.5,0.3s0.9,0.5,1.2,0.8c0.3,0.3,0.6,0.7,0.8,1.2
				c0.2,0.5,0.3,1,0.3,1.6s-0.1,1.1-0.3,1.6c-0.2,0.5-0.4,0.9-0.8,1.2s-0.7,0.6-1.2,0.8C154.3,453.9,153.8,454,153.2,454z
				 M153.2,452.8c0.7,0,1.2-0.2,1.6-0.7c0.4-0.5,0.6-1.2,0.6-2c0-0.8-0.2-1.5-0.6-2c-0.4-0.5-0.9-0.7-1.6-0.7
				c-0.7,0-1.2,0.2-1.6,0.7c-0.4,0.5-0.6,1.2-0.6,2c0,0.8,0.2,1.5,0.6,2C152,452.6,152.5,452.8,153.2,452.8z"/>
			<path d="M158.9,446.3h1.5v4.5c0,0.6,0.1,1.1,0.3,1.4c0.2,0.3,0.6,0.5,1.1,0.5c0.6,0,1-0.2,1.4-0.6s0.5-0.9,0.5-1.5v-4.3h1.5v7.5
				h-1.5v-1.2h0c-0.2,0.4-0.5,0.7-0.9,1s-0.8,0.4-1.4,0.4c-0.9,0-1.5-0.2-1.8-0.7s-0.5-1.1-0.5-2V446.3z"/>
			<path d="M167.5,446.3h1.5v1.2h0c0.2-0.4,0.5-0.7,0.9-1s0.7-0.3,1.2-0.3c0,0,0.1,0,0.2,0s0.2,0,0.2,0v1.6c-0.1,0-0.2,0-0.3-0.1
				s-0.2,0-0.3,0c-0.6,0-1,0.2-1.4,0.5s-0.5,0.9-0.5,1.5v4.1h-1.5V446.3z"/>
			<path d="M182.5,452.6L182.5,452.6c-0.3,0.4-0.6,0.7-0.9,1s-0.9,0.4-1.5,0.4c-0.5,0-1-0.1-1.4-0.3c-0.4-0.2-0.7-0.5-1-0.8
				s-0.5-0.8-0.6-1.2c-0.1-0.5-0.2-1-0.2-1.5c0-0.6,0.1-1.1,0.2-1.6c0.1-0.5,0.3-0.9,0.6-1.2c0.3-0.3,0.6-0.6,1-0.8s0.9-0.3,1.4-0.3
				c0.6,0,1.1,0.1,1.5,0.4s0.7,0.6,0.9,0.9h0v-4h1.5v10.4h-1.5V452.6z M180.5,452.8c0.7,0,1.2-0.2,1.5-0.7c0.3-0.5,0.5-1.2,0.5-2
				c0-0.9-0.2-1.5-0.5-2c-0.3-0.5-0.8-0.7-1.5-0.7c-0.6,0-1.2,0.2-1.5,0.7c-0.4,0.5-0.6,1.2-0.6,2c0,0.9,0.2,1.5,0.5,2
				S179.8,452.8,180.5,452.8z"/>
			<path d="M192.7,451.3c0,0.4-0.1,0.8-0.3,1.1s-0.4,0.6-0.7,0.9s-0.6,0.4-1,0.6c-0.4,0.1-0.8,0.2-1.3,0.2c-0.6,0-1.1-0.1-1.6-0.3
				c-0.4-0.2-0.8-0.4-1.1-0.8s-0.5-0.8-0.6-1.2c-0.1-0.5-0.2-1-0.2-1.6s0.1-1.1,0.2-1.6c0.1-0.5,0.4-0.9,0.7-1.2
				c0.3-0.3,0.7-0.6,1.1-0.8s0.9-0.3,1.5-0.3s1.1,0.1,1.5,0.3s0.8,0.4,1,0.8c0.3,0.3,0.5,0.7,0.6,1.2c0.1,0.5,0.2,1,0.2,1.6v0.2
				h-5.3c0,0.8,0.2,1.4,0.5,1.8s0.8,0.6,1.4,0.6c0.5,0,0.9-0.1,1.3-0.4s0.5-0.6,0.6-1.1H192.7z M191.2,449.3c0-0.6-0.2-1-0.5-1.4
				s-0.7-0.6-1.3-0.6c-0.6,0-1,0.2-1.3,0.5c-0.3,0.3-0.5,0.8-0.6,1.5H191.2z"/>
			<path d="M199,443.5h6.6v1.4h-5v3.1h4.7v1.3h-4.7v4.6H199V443.5z"/>
			<path d="M207.9,446.3h1.5v1.2h0c0.2-0.4,0.5-0.7,0.9-1s0.7-0.3,1.2-0.3c0,0,0.1,0,0.2,0s0.2,0,0.2,0v1.6c-0.1,0-0.2,0-0.3-0.1
				s-0.2,0-0.3,0c-0.6,0-1,0.2-1.4,0.5s-0.5,0.9-0.5,1.5v4.1h-1.5V446.3z"/>
			<path d="M217.8,452.8L217.8,452.8c-0.3,0.4-0.6,0.6-1,0.9s-1,0.3-1.6,0.3c-0.4,0-0.7-0.1-1-0.2c-0.3-0.1-0.5-0.2-0.7-0.4
				c-0.2-0.2-0.3-0.4-0.4-0.6c-0.1-0.2-0.1-0.5-0.1-0.8c0-0.5,0.1-1,0.4-1.3c0.2-0.3,0.5-0.5,0.9-0.7s0.8-0.3,1.2-0.3
				s0.9-0.1,1.2-0.2c0.3,0,0.5-0.1,0.7-0.1s0.3-0.1,0.4-0.1c0.1-0.1,0.1-0.1,0.2-0.2c0-0.1,0-0.2,0-0.3c0-0.4-0.1-0.7-0.4-1
				s-0.6-0.4-1.2-0.4c-0.5,0-0.9,0.1-1.2,0.3s-0.4,0.6-0.5,1.1h-1.4c0.1-0.8,0.4-1.4,0.8-1.9c0.5-0.5,1.2-0.7,2.3-0.7
				c1,0,1.8,0.2,2.3,0.7c0.5,0.5,0.7,1.2,0.7,2.3v4.6h-1.5V452.8z M217.8,450.2c-0.4,0.1-0.8,0.2-1.2,0.2c-0.4,0.1-0.8,0.1-1.1,0.2
				s-0.6,0.2-0.8,0.4s-0.3,0.4-0.3,0.7c0,0.3,0.1,0.6,0.4,0.8s0.6,0.3,1,0.3c0.3,0,0.6,0,0.9-0.1c0.3-0.1,0.5-0.2,0.7-0.4
				s0.3-0.4,0.5-0.6c0.1-0.2,0.2-0.5,0.2-0.8V450.2z"/>
			<path d="M221.6,446.3h1.5v1.2h0c0.3-0.4,0.6-0.7,0.9-1s0.9-0.3,1.5-0.3c0.9,0,1.5,0.2,1.9,0.7c0.4,0.5,0.6,1.1,0.6,2v4.9h-1.5
				v-4.5c0-0.6-0.1-1.1-0.3-1.4s-0.6-0.5-1.1-0.5c-0.6,0-1.1,0.2-1.4,0.6s-0.5,0.9-0.5,1.5v4.3h-1.5V446.3z"/>
			<path d="M236.8,451.1c0,0.9-0.4,1.7-0.9,2.2s-1.3,0.7-2.3,0.7c-0.6,0-1.1-0.1-1.6-0.3c-0.4-0.2-0.8-0.4-1.1-0.8s-0.5-0.8-0.7-1.2
				c-0.1-0.5-0.2-1-0.2-1.6s0.1-1.1,0.2-1.6c0.2-0.5,0.4-0.9,0.7-1.2c0.3-0.3,0.7-0.6,1.1-0.8s0.9-0.3,1.5-0.3c1,0,1.8,0.3,2.3,0.8
				c0.6,0.5,0.9,1.2,0.9,2.2h-1.5c0-0.5-0.2-1-0.5-1.3c-0.3-0.3-0.7-0.4-1.2-0.4c-0.6,0-1.1,0.2-1.5,0.7c-0.3,0.4-0.5,1.1-0.5,2
				c0,0.9,0.2,1.6,0.5,2s0.8,0.7,1.5,0.7c0.5,0,1-0.1,1.3-0.4c0.3-0.3,0.5-0.7,0.5-1.2H236.8z"/>
			<path d="M245.2,451.3c0,0.4-0.1,0.8-0.3,1.1s-0.4,0.6-0.7,0.9s-0.6,0.4-1,0.6c-0.4,0.1-0.8,0.2-1.3,0.2c-0.6,0-1.1-0.1-1.6-0.3
				c-0.4-0.2-0.8-0.4-1.1-0.8s-0.5-0.8-0.6-1.2c-0.1-0.5-0.2-1-0.2-1.6s0.1-1.1,0.2-1.6c0.1-0.5,0.4-0.9,0.7-1.2
				c0.3-0.3,0.7-0.6,1.1-0.8s0.9-0.3,1.5-0.3s1.1,0.1,1.5,0.3s0.8,0.4,1,0.8c0.3,0.3,0.5,0.7,0.6,1.2c0.1,0.5,0.2,1,0.2,1.6v0.2
				h-5.3c0,0.8,0.2,1.4,0.5,1.8s0.8,0.6,1.4,0.6c0.5,0,0.9-0.1,1.3-0.4s0.5-0.6,0.6-1.1H245.2z M243.7,449.3c0-0.6-0.2-1-0.5-1.4
				s-0.7-0.6-1.3-0.6c-0.6,0-1,0.2-1.3,0.5c-0.3,0.3-0.5,0.8-0.6,1.5H243.7z"/>
		</g>
		<g class="st10">
			<path d="M97.7,470.5h2.3v-7.2l-2.2,1.4l-0.7-1.1l3.3-2.2h1.2v9.1h2v1.3h-5.9V470.5z"/>
			<path d="M106.6,468.7c0.1,0.6,0.3,1.1,0.6,1.5s0.8,0.5,1.4,0.5c0.3,0,0.6-0.1,0.9-0.2c0.3-0.1,0.5-0.3,0.7-0.6
				c0.2-0.3,0.4-0.7,0.5-1.3s0.2-1.2,0.2-2.1c-0.2,0.4-0.5,0.8-1,1c-0.4,0.2-1,0.4-1.6,0.4c-0.4,0-0.9-0.1-1.2-0.2s-0.7-0.3-1-0.6
				c-0.3-0.3-0.5-0.6-0.7-1s-0.2-0.9-0.2-1.4c0-0.5,0.1-1,0.2-1.4s0.4-0.8,0.7-1.1c0.3-0.3,0.7-0.5,1.1-0.7s0.9-0.2,1.5-0.2
				c0.6,0,1.1,0.1,1.5,0.3s0.9,0.5,1.2,0.9s0.6,1,0.7,1.6c0.2,0.7,0.3,1.5,0.3,2.4c0,1.8-0.3,3.2-1,4.1c-0.6,0.9-1.6,1.3-2.8,1.3
				c-1,0-1.8-0.3-2.4-0.9c-0.6-0.6-0.9-1.4-1-2.4H106.6z M108.5,466.7c0.6,0,1.1-0.2,1.4-0.5c0.4-0.4,0.5-0.8,0.5-1.4
				c0-0.3,0-0.6-0.1-0.8c-0.1-0.3-0.2-0.5-0.4-0.7s-0.4-0.3-0.6-0.4c-0.2-0.1-0.5-0.2-0.8-0.2c-0.3,0-0.5,0.1-0.8,0.2
				c-0.2,0.1-0.4,0.2-0.6,0.4s-0.3,0.4-0.4,0.7c-0.1,0.3-0.1,0.5-0.1,0.8c0,0.6,0.2,1.1,0.5,1.5S107.9,466.7,108.5,466.7z"/>
			<path d="M116.7,472c-0.5,0-1-0.1-1.4-0.3s-0.8-0.5-1.2-0.9s-0.6-1-0.8-1.7c-0.2-0.7-0.3-1.5-0.3-2.4s0.1-1.8,0.3-2.4
				c0.2-0.7,0.5-1.2,0.8-1.7s0.7-0.7,1.2-0.9s0.9-0.3,1.4-0.3c0.5,0,1,0.1,1.4,0.3s0.8,0.5,1.2,0.9s0.6,1,0.8,1.7
				c0.2,0.7,0.3,1.5,0.3,2.4s-0.1,1.8-0.3,2.4c-0.2,0.7-0.5,1.2-0.8,1.7s-0.7,0.7-1.2,0.9S117.2,472,116.7,472z M116.7,470.7
				c0.3,0,0.5-0.1,0.8-0.2c0.3-0.1,0.5-0.3,0.7-0.6c0.2-0.3,0.3-0.7,0.5-1.2s0.2-1.2,0.2-2s-0.1-1.5-0.2-2c-0.1-0.5-0.3-0.9-0.5-1.2
				c-0.2-0.3-0.4-0.5-0.7-0.6s-0.5-0.2-0.8-0.2c-0.3,0-0.5,0.1-0.8,0.2s-0.5,0.3-0.7,0.6c-0.2,0.3-0.3,0.7-0.5,1.2
				c-0.1,0.5-0.2,1.2-0.2,2s0.1,1.5,0.2,2s0.3,0.9,0.5,1.2c0.2,0.3,0.4,0.5,0.7,0.6C116.2,470.6,116.4,470.7,116.7,470.7z"/>
			<path d="M122.7,468.5c0.1,0.7,0.3,1.3,0.7,1.6c0.4,0.4,0.9,0.5,1.6,0.5c0.6,0,1.1-0.2,1.5-0.5c0.3-0.3,0.5-0.7,0.5-1.3
				s-0.2-1-0.5-1.3c-0.3-0.3-0.8-0.5-1.3-0.5h-1.4v-1.2h1c0.5,0,0.9-0.2,1.2-0.5s0.4-0.7,0.4-1.2c0-0.4-0.1-0.8-0.4-1.1
				s-0.7-0.5-1.2-0.5c-0.6,0-1,0.2-1.3,0.5s-0.5,0.9-0.5,1.5h-1.6c0.1-1.1,0.4-1.9,1-2.5c0.6-0.6,1.4-0.8,2.5-0.8
				c0.5,0,1,0.1,1.3,0.2c0.4,0.1,0.7,0.3,1,0.5c0.3,0.2,0.5,0.5,0.6,0.8c0.1,0.3,0.2,0.7,0.2,1.1c0,0.5-0.1,1-0.3,1.3
				c-0.2,0.4-0.5,0.7-1,0.9c0.6,0.2,1,0.6,1.3,1c0.3,0.5,0.5,1,0.5,1.7c0,0.5-0.1,0.9-0.2,1.2s-0.4,0.7-0.7,1
				c-0.3,0.3-0.7,0.5-1.1,0.6c-0.5,0.1-1,0.2-1.6,0.2c-0.6,0-1.2-0.1-1.6-0.2c-0.5-0.2-0.8-0.4-1.1-0.7c-0.3-0.3-0.5-0.7-0.7-1.1
				c-0.2-0.4-0.2-0.9-0.3-1.4H122.7z"/>
			<path d="M133.8,466.7h5.6v1.2h-5.6V466.7z"/>
			<path d="M145,470.6c0.8-0.8,1.5-1.4,2.1-2s1.2-1.1,1.6-1.6c0.4-0.5,0.8-0.9,1-1.3s0.4-0.9,0.4-1.3c0-0.5-0.1-0.9-0.4-1.2
				c-0.3-0.3-0.7-0.5-1.3-0.5c-0.6,0-1,0.2-1.4,0.5s-0.5,0.9-0.6,1.6h-1.6c0-0.5,0.1-1,0.3-1.4s0.4-0.8,0.7-1.1
				c0.3-0.3,0.7-0.5,1.1-0.7s0.9-0.2,1.4-0.2c0.6,0,1,0.1,1.5,0.2c0.4,0.1,0.8,0.3,1,0.6c0.3,0.3,0.5,0.6,0.6,0.9s0.2,0.8,0.2,1.2
				c0,0.6-0.1,1.1-0.4,1.6c-0.3,0.5-0.6,1-1,1.5c-0.4,0.5-0.9,1-1.5,1.5c-0.6,0.5-1.1,1.1-1.8,1.7h4.7v1.3H145V470.6z"/>
			<path d="M156.4,472c-0.5,0-1-0.1-1.4-0.3s-0.8-0.5-1.2-0.9s-0.6-1-0.8-1.7c-0.2-0.7-0.3-1.5-0.3-2.4s0.1-1.8,0.3-2.4
				c0.2-0.7,0.5-1.2,0.8-1.7s0.7-0.7,1.2-0.9s0.9-0.3,1.4-0.3c0.5,0,1,0.1,1.4,0.3s0.8,0.5,1.2,0.9s0.6,1,0.8,1.7
				c0.2,0.7,0.3,1.5,0.3,2.4s-0.1,1.8-0.3,2.4c-0.2,0.7-0.5,1.2-0.8,1.7s-0.7,0.7-1.2,0.9S156.9,472,156.4,472z M156.4,470.7
				c0.3,0,0.5-0.1,0.8-0.2c0.3-0.1,0.5-0.3,0.7-0.6c0.2-0.3,0.3-0.7,0.5-1.2s0.2-1.2,0.2-2s-0.1-1.5-0.2-2c-0.1-0.5-0.3-0.9-0.5-1.2
				c-0.2-0.3-0.4-0.5-0.7-0.6s-0.5-0.2-0.8-0.2c-0.3,0-0.5,0.1-0.8,0.2s-0.5,0.3-0.7,0.6c-0.2,0.3-0.3,0.7-0.5,1.2
				c-0.1,0.5-0.2,1.2-0.2,2s0.1,1.5,0.2,2s0.3,0.9,0.5,1.2c0.2,0.3,0.4,0.5,0.7,0.6C155.9,470.6,156.1,470.7,156.4,470.7z"/>
			<path d="M161.8,470.5h2.3v-7.2l-2.2,1.4l-0.7-1.1l3.3-2.2h1.2v9.1h2v1.3h-5.9V470.5z"/>
			<path d="M174.7,464.6c-0.1-0.6-0.3-1.1-0.6-1.5s-0.8-0.5-1.3-0.5c-0.3,0-0.6,0.1-0.9,0.2s-0.5,0.3-0.7,0.7
				c-0.2,0.3-0.4,0.7-0.5,1.3c-0.1,0.5-0.2,1.2-0.2,2.1c0.2-0.4,0.5-0.8,1-1c0.4-0.2,1-0.4,1.6-0.4c0.4,0,0.9,0.1,1.2,0.2
				c0.4,0.1,0.7,0.3,1,0.6c0.3,0.3,0.5,0.6,0.7,1s0.3,0.9,0.3,1.4c0,0.5-0.1,1-0.2,1.4s-0.4,0.8-0.7,1.1c-0.3,0.3-0.7,0.5-1.1,0.7
				c-0.4,0.2-0.9,0.2-1.5,0.2c-0.6,0-1.1-0.1-1.6-0.3s-0.8-0.5-1.2-0.9s-0.6-1-0.7-1.6c-0.2-0.7-0.3-1.4-0.3-2.4
				c0-1.8,0.3-3.2,1-4.1s1.6-1.3,2.8-1.3c1,0,1.8,0.3,2.4,0.9s0.9,1.4,1,2.4H174.7z M172.9,470.7c0.3,0,0.6-0.1,0.8-0.2
				c0.2-0.1,0.4-0.2,0.6-0.4s0.3-0.4,0.4-0.7s0.1-0.5,0.1-0.8c0-0.6-0.2-1.1-0.5-1.5s-0.8-0.6-1.4-0.6c-0.6,0-1,0.2-1.4,0.5
				s-0.5,0.8-0.5,1.4c0,0.3,0,0.6,0.1,0.8s0.2,0.5,0.4,0.7s0.4,0.3,0.6,0.4C172.3,470.7,172.6,470.7,172.9,470.7z"/>
		</g>
	</g>
	<g id="XMLID_176_">
		<rect id="XMLID_190_" x="114" y="496.6" class="st9" width="50.1" height="10.3"/>
		<g class="st10">
			<path d="M114.9,503.1h1.7v-5.2l-1.6,1l-0.5-0.8l2.4-1.6h0.9v6.5h1.4v0.9h-4.2V503.1z"/>
			<path d="M123.3,500.4h4v0.9h-4V500.4z"/>
			<path d="M131.7,503.1h1.7v-5.2l-1.6,1l-0.5-0.8l2.4-1.6h0.9v6.5h1.4v0.9h-4.2V503.1z"/>
			<path d="M139.4,504.1c-0.4,0-0.7-0.1-1-0.2s-0.6-0.4-0.8-0.7s-0.4-0.7-0.6-1.2c-0.1-0.5-0.2-1.1-0.2-1.7s0.1-1.3,0.2-1.7
				c0.1-0.5,0.3-0.9,0.6-1.2s0.5-0.5,0.8-0.7s0.7-0.2,1-0.2c0.4,0,0.7,0.1,1,0.2s0.6,0.4,0.8,0.7s0.4,0.7,0.6,1.2
				c0.1,0.5,0.2,1.1,0.2,1.7s-0.1,1.3-0.2,1.7c-0.1,0.5-0.3,0.9-0.6,1.2s-0.5,0.5-0.8,0.7S139.8,504.1,139.4,504.1z M139.4,503.2
				c0.2,0,0.4,0,0.6-0.1c0.2-0.1,0.3-0.2,0.5-0.5c0.1-0.2,0.2-0.5,0.3-0.9s0.1-0.8,0.1-1.4s0-1-0.1-1.4c-0.1-0.4-0.2-0.7-0.3-0.9
				c-0.1-0.2-0.3-0.4-0.5-0.5s-0.4-0.1-0.6-0.1c-0.2,0-0.4,0-0.6,0.1s-0.3,0.2-0.5,0.5c-0.1,0.2-0.2,0.5-0.3,0.9
				c-0.1,0.4-0.1,0.8-0.1,1.4s0,1,0.1,1.4s0.2,0.7,0.3,0.9c0.1,0.2,0.3,0.4,0.5,0.5C139.1,503.2,139.2,503.2,139.4,503.2z"/>
		</g>
	</g>
	<g id="XMLID_171_">
		<rect id="XMLID_191_" x="114" y="518.1" class="st9" width="43.4" height="10.3"/>
		<g class="st10">
			<path d="M114.9,524.6h1.7v-5.2l-1.6,1l-0.5-0.8l2.4-1.6h0.9v6.5h1.4v0.9h-4.2V524.6z"/>
			<path d="M120.7,524.6h1.7v-5.2l-1.6,1l-0.5-0.8l2.4-1.6h0.9v6.5h1.4v0.9h-4.2V524.6z"/>
			<path d="M129.1,521.8h4v0.9h-4V521.8z"/>
			<path d="M137.1,524.6c0.6-0.5,1.1-1,1.5-1.4s0.8-0.8,1.1-1.1c0.3-0.3,0.6-0.7,0.7-1s0.3-0.6,0.3-0.9c0-0.4-0.1-0.7-0.3-0.9
				c-0.2-0.2-0.5-0.3-0.9-0.3c-0.4,0-0.7,0.1-1,0.4s-0.4,0.6-0.4,1.1H137c0-0.4,0.1-0.7,0.2-1s0.3-0.5,0.5-0.8
				c0.2-0.2,0.5-0.4,0.8-0.5s0.6-0.2,1-0.2c0.4,0,0.7,0.1,1,0.2c0.3,0.1,0.5,0.2,0.7,0.4c0.2,0.2,0.3,0.4,0.4,0.7s0.1,0.5,0.1,0.8
				c0,0.4-0.1,0.8-0.3,1.1c-0.2,0.3-0.4,0.7-0.7,1c-0.3,0.3-0.7,0.7-1.1,1.1c-0.4,0.4-0.8,0.8-1.2,1.2h3.4v0.9h-4.8V524.6z"/>
			<path d="M145.2,525.6c-0.4,0-0.7-0.1-1-0.2s-0.6-0.4-0.8-0.7s-0.4-0.7-0.6-1.2c-0.1-0.5-0.2-1.1-0.2-1.7s0.1-1.3,0.2-1.7
				c0.1-0.5,0.3-0.9,0.6-1.2s0.5-0.5,0.8-0.7s0.7-0.2,1-0.2c0.4,0,0.7,0.1,1,0.2s0.6,0.4,0.8,0.7s0.4,0.7,0.6,1.2
				c0.1,0.5,0.2,1.1,0.2,1.7s-0.1,1.3-0.2,1.7c-0.1,0.5-0.3,0.9-0.6,1.2s-0.5,0.5-0.8,0.7S145.6,525.6,145.2,525.6z M145.2,524.7
				c0.2,0,0.4,0,0.6-0.1c0.2-0.1,0.3-0.2,0.5-0.5c0.1-0.2,0.2-0.5,0.3-0.9s0.1-0.8,0.1-1.4s0-1-0.1-1.4c-0.1-0.4-0.2-0.7-0.3-0.9
				c-0.1-0.2-0.3-0.4-0.5-0.5s-0.4-0.1-0.6-0.1c-0.2,0-0.4,0-0.6,0.1s-0.3,0.2-0.5,0.5c-0.1,0.2-0.2,0.5-0.3,0.9
				c-0.1,0.4-0.1,0.8-0.1,1.4s0,1,0.1,1.4s0.2,0.7,0.3,0.9c0.1,0.2,0.3,0.4,0.5,0.5C144.9,524.6,145,524.7,145.2,524.7z"/>
		</g>
	</g>
	<g id="XMLID_160_">
		<rect id="XMLID_279_" x="114" y="539.2" class="st9" width="53.4" height="10.3"/>
		<g class="st10">
			<path d="M114.5,545.7c0.6-0.5,1.1-1,1.5-1.4s0.8-0.8,1.1-1.1c0.3-0.3,0.6-0.7,0.7-1s0.3-0.6,0.3-0.9c0-0.4-0.1-0.7-0.3-0.9
				c-0.2-0.2-0.5-0.3-0.9-0.3c-0.4,0-0.7,0.1-1,0.4s-0.4,0.6-0.4,1.1h-1.1c0-0.4,0.1-0.7,0.2-1s0.3-0.5,0.5-0.8
				c0.2-0.2,0.5-0.4,0.8-0.5s0.6-0.2,1-0.2c0.4,0,0.7,0.1,1,0.2c0.3,0.1,0.5,0.2,0.7,0.4c0.2,0.2,0.3,0.4,0.4,0.7s0.1,0.5,0.1,0.8
				c0,0.4-0.1,0.8-0.3,1.1c-0.2,0.3-0.4,0.7-0.7,1c-0.3,0.3-0.7,0.7-1.1,1.1c-0.4,0.4-0.8,0.8-1.2,1.2h3.4v0.9h-4.8V545.7z"/>
			<path d="M120.7,545.7h1.7v-5.2l-1.6,1l-0.5-0.8l2.4-1.6h0.9v6.5h1.4v0.9h-4.2V545.7z"/>
			<path d="M129.1,542.9h4v0.9h-4V542.9z"/>
			<path d="M136.7,543.9l3-4.7h1.3v4.8h1.1v0.9H141v1.7h-1.1v-1.7h-3.2V543.9z M139.9,544v-3.5l-2.2,3.5H139.9z"/>
			<path d="M145.2,546.7c-0.4,0-0.7-0.1-1-0.2s-0.6-0.4-0.8-0.7s-0.4-0.7-0.6-1.2c-0.1-0.5-0.2-1.1-0.2-1.7s0.1-1.3,0.2-1.7
				c0.1-0.5,0.3-0.9,0.6-1.2s0.5-0.5,0.8-0.7s0.7-0.2,1-0.2c0.4,0,0.7,0.1,1,0.2s0.6,0.4,0.8,0.7s0.4,0.7,0.6,1.2
				c0.1,0.5,0.2,1.1,0.2,1.7s-0.1,1.3-0.2,1.7c-0.1,0.5-0.3,0.9-0.6,1.2s-0.5,0.5-0.8,0.7S145.6,546.7,145.2,546.7z M145.2,545.8
				c0.2,0,0.4,0,0.6-0.1c0.2-0.1,0.3-0.2,0.5-0.5c0.1-0.2,0.2-0.5,0.3-0.9s0.1-0.8,0.1-1.4s0-1-0.1-1.4c-0.1-0.4-0.2-0.7-0.3-0.9
				c-0.1-0.2-0.3-0.4-0.5-0.5s-0.4-0.1-0.6-0.1c-0.2,0-0.4,0-0.6,0.1s-0.3,0.2-0.5,0.5c-0.1,0.2-0.2,0.5-0.3,0.9
				c-0.1,0.4-0.1,0.8-0.1,1.4s0,1,0.1,1.4s0.2,0.7,0.3,0.9c0.1,0.2,0.3,0.4,0.5,0.5C144.9,545.7,145,545.8,145.2,545.8z"/>
		</g>
	</g>
	<g id="XMLID_155_">
		<rect id="XMLID_300_" x="183" y="496.6" class="st9" width="53.4" height="10.3"/>
		<g class="st10">
			<path d="M183.2,501.3l3-4.7h1.3v4.8h1.1v0.9h-1.1v1.7h-1.1v-1.7h-3.2V501.3z M186.4,501.4V498l-2.2,3.5H186.4z"/>
			<path d="M189.7,503.1h1.7v-5.2l-1.6,1l-0.5-0.8l2.4-1.6h0.9v6.5h1.4v0.9h-4.2V503.1z"/>
			<path d="M198.1,500.4h4v0.9h-4V500.4z"/>
			<path d="M209.9,498.9c0-0.5-0.2-0.8-0.4-1.1s-0.5-0.4-1-0.4c-0.2,0-0.4,0-0.6,0.1s-0.4,0.2-0.5,0.5c-0.1,0.2-0.3,0.5-0.3,0.9
				c-0.1,0.4-0.1,0.9-0.1,1.5c0.1-0.3,0.4-0.6,0.7-0.7c0.3-0.2,0.7-0.3,1.2-0.3c0.3,0,0.6,0,0.9,0.1c0.3,0.1,0.5,0.2,0.7,0.4
				c0.2,0.2,0.4,0.4,0.5,0.7s0.2,0.6,0.2,1c0,0.4-0.1,0.7-0.2,1s-0.3,0.6-0.5,0.8c-0.2,0.2-0.5,0.4-0.8,0.5c-0.3,0.1-0.7,0.2-1,0.2
				c-0.4,0-0.8-0.1-1.1-0.2s-0.6-0.4-0.8-0.7s-0.4-0.7-0.5-1.2c-0.1-0.5-0.2-1-0.2-1.7c0-1.3,0.2-2.3,0.7-2.9s1.1-1,2-1
				c0.7,0,1.3,0.2,1.7,0.6s0.7,1,0.7,1.7H209.9z M208.6,503.2c0.2,0,0.4,0,0.6-0.1c0.2-0.1,0.3-0.2,0.4-0.3s0.2-0.3,0.3-0.5
				s0.1-0.4,0.1-0.6c0-0.4-0.1-0.8-0.4-1s-0.6-0.4-1-0.4c-0.4,0-0.7,0.1-1,0.4s-0.4,0.6-0.4,1c0,0.2,0,0.4,0.1,0.6s0.2,0.3,0.3,0.5
				s0.3,0.2,0.4,0.3C208.2,503.2,208.4,503.2,208.6,503.2z"/>
			<path d="M214.2,504.1c-0.4,0-0.7-0.1-1-0.2s-0.6-0.4-0.8-0.7s-0.4-0.7-0.6-1.2c-0.1-0.5-0.2-1.1-0.2-1.7s0.1-1.3,0.2-1.7
				c0.1-0.5,0.3-0.9,0.6-1.2s0.5-0.5,0.8-0.7s0.7-0.2,1-0.2c0.4,0,0.7,0.1,1,0.2s0.6,0.4,0.8,0.7s0.4,0.7,0.6,1.2
				c0.1,0.5,0.2,1.1,0.2,1.7s-0.1,1.3-0.2,1.7c-0.1,0.5-0.3,0.9-0.6,1.2s-0.5,0.5-0.8,0.7S214.6,504.1,214.2,504.1z M214.2,503.2
				c0.2,0,0.4,0,0.6-0.1c0.2-0.1,0.3-0.2,0.5-0.5c0.1-0.2,0.2-0.5,0.3-0.9s0.1-0.8,0.1-1.4s0-1-0.1-1.4c-0.1-0.4-0.2-0.7-0.3-0.9
				c-0.1-0.2-0.3-0.4-0.5-0.5s-0.4-0.1-0.6-0.1c-0.2,0-0.4,0-0.6,0.1s-0.3,0.2-0.5,0.5c-0.1,0.2-0.2,0.5-0.3,0.9
				c-0.1,0.4-0.1,0.8-0.1,1.4s0,1,0.1,1.4s0.2,0.7,0.3,0.9c0.1,0.2,0.3,0.4,0.5,0.5C213.9,503.2,214,503.2,214.2,503.2z"/>
		</g>
	</g>
	<g id="XMLID_71_">
		<rect id="XMLID_304_" x="183" y="518.1" class="st9" width="53.4" height="10.3"/>
		<g class="st10">
			<path d="M187.4,520.3c0-0.5-0.2-0.8-0.4-1.1s-0.5-0.4-1-0.4c-0.2,0-0.4,0-0.6,0.1s-0.4,0.2-0.5,0.5c-0.1,0.2-0.3,0.5-0.3,0.9
				c-0.1,0.4-0.1,0.9-0.1,1.5c0.1-0.3,0.4-0.6,0.7-0.7c0.3-0.2,0.7-0.3,1.2-0.3c0.3,0,0.6,0,0.9,0.1c0.3,0.1,0.5,0.2,0.7,0.4
				c0.2,0.2,0.4,0.4,0.5,0.7s0.2,0.6,0.2,1c0,0.4-0.1,0.7-0.2,1s-0.3,0.6-0.5,0.8c-0.2,0.2-0.5,0.4-0.8,0.5c-0.3,0.1-0.7,0.2-1,0.2
				c-0.4,0-0.8-0.1-1.1-0.2s-0.6-0.4-0.8-0.7s-0.4-0.7-0.5-1.2c-0.1-0.5-0.2-1-0.2-1.7c0-1.3,0.2-2.3,0.7-2.9s1.1-1,2-1
				c0.7,0,1.3,0.2,1.7,0.6s0.7,1,0.7,1.7H187.4z M186.1,524.7c0.2,0,0.4,0,0.6-0.1c0.2-0.1,0.3-0.2,0.4-0.3s0.2-0.3,0.3-0.5
				s0.1-0.4,0.1-0.6c0-0.4-0.1-0.8-0.4-1s-0.6-0.4-1-0.4c-0.4,0-0.7,0.1-1,0.4s-0.4,0.6-0.4,1c0,0.2,0,0.4,0.1,0.6s0.2,0.3,0.3,0.5
				s0.3,0.2,0.4,0.3C185.6,524.7,185.8,524.7,186.1,524.7z"/>
			<path d="M189.7,524.6h1.7v-5.2l-1.6,1l-0.5-0.8l2.4-1.6h0.9v6.5h1.4v0.9h-4.2V524.6z"/>
			<path d="M198.1,521.8h4v0.9h-4V521.8z"/>
			<path d="M206.5,524.6h1.7v-5.2l-1.6,1l-0.5-0.8l2.4-1.6h0.9v6.5h1.4v0.9h-4.2V524.6z"/>
			<path d="M214.2,525.6c-0.4,0-0.7-0.1-1-0.2s-0.6-0.4-0.8-0.7s-0.4-0.7-0.6-1.2c-0.1-0.5-0.2-1.1-0.2-1.7s0.1-1.3,0.2-1.7
				c0.1-0.5,0.3-0.9,0.6-1.2s0.5-0.5,0.8-0.7s0.7-0.2,1-0.2c0.4,0,0.7,0.1,1,0.2s0.6,0.4,0.8,0.7s0.4,0.7,0.6,1.2
				c0.1,0.5,0.2,1.1,0.2,1.7s-0.1,1.3-0.2,1.7c-0.1,0.5-0.3,0.9-0.6,1.2s-0.5,0.5-0.8,0.7S214.6,525.6,214.2,525.6z M214.2,524.7
				c0.2,0,0.4,0,0.6-0.1c0.2-0.1,0.3-0.2,0.5-0.5c0.1-0.2,0.2-0.5,0.3-0.9s0.1-0.8,0.1-1.4s0-1-0.1-1.4c-0.1-0.4-0.2-0.7-0.3-0.9
				c-0.1-0.2-0.3-0.4-0.5-0.5s-0.4-0.1-0.6-0.1c-0.2,0-0.4,0-0.6,0.1s-0.3,0.2-0.5,0.5c-0.1,0.2-0.2,0.5-0.3,0.9
				c-0.1,0.4-0.1,0.8-0.1,1.4s0,1,0.1,1.4s0.2,0.7,0.3,0.9c0.1,0.2,0.3,0.4,0.5,0.5C213.9,524.6,214,524.7,214.2,524.7z"/>
			<path d="M220,525.6c-0.4,0-0.7-0.1-1-0.2s-0.6-0.4-0.8-0.7s-0.4-0.7-0.6-1.2c-0.1-0.5-0.2-1.1-0.2-1.7s0.1-1.3,0.2-1.7
				c0.1-0.5,0.3-0.9,0.6-1.2s0.5-0.5,0.8-0.7s0.7-0.2,1-0.2c0.4,0,0.7,0.1,1,0.2s0.6,0.4,0.8,0.7s0.4,0.7,0.6,1.2
				c0.1,0.5,0.2,1.1,0.2,1.7s-0.1,1.3-0.2,1.7c-0.1,0.5-0.3,0.9-0.6,1.2s-0.5,0.5-0.8,0.7S220.4,525.6,220,525.6z M220,524.7
				c0.2,0,0.4,0,0.6-0.1c0.2-0.1,0.3-0.2,0.5-0.5c0.1-0.2,0.2-0.5,0.3-0.9s0.1-0.8,0.1-1.4s0-1-0.1-1.4c-0.1-0.4-0.2-0.7-0.3-0.9
				c-0.1-0.2-0.3-0.4-0.5-0.5s-0.4-0.1-0.6-0.1c-0.2,0-0.4,0-0.6,0.1s-0.3,0.2-0.5,0.5c-0.1,0.2-0.2,0.5-0.3,0.9
				c-0.1,0.4-0.1,0.8-0.1,1.4s0,1,0.1,1.4s0.2,0.7,0.3,0.9c0.1,0.2,0.3,0.4,0.5,0.5C219.7,524.6,219.9,524.7,220,524.7z"/>
		</g>
	</g>
	<circle class="st11" cx="170.5" cy="522.4" r="6.3"/>
	<g id="XMLID_65_">
		<rect id="XMLID_213_" x="183" y="538.1" class="st9" width="53.4" height="10.3"/>
		<g class="st10">
			<path d="M183.3,542.4h2.1v-2.1h0.9v2.1h2.1v0.9h-2.1v2.2h-0.9v-2.2h-2.1V542.4z"/>
			<path d="M199.3,544.6L199.3,544.6c-0.2,0.3-0.4,0.5-0.7,0.7s-0.6,0.3-1.1,0.3c-0.4,0-0.7-0.1-1-0.2c-0.3-0.1-0.5-0.3-0.7-0.6
				s-0.3-0.5-0.4-0.9c-0.1-0.3-0.1-0.7-0.1-1.1c0-0.4,0-0.8,0.1-1.1c0.1-0.3,0.2-0.6,0.4-0.9c0.2-0.2,0.4-0.4,0.7-0.6s0.6-0.2,1-0.2
				c0.4,0,0.8,0.1,1,0.3s0.5,0.4,0.7,0.7h0v-2.9h1.1v7.4h-1.1V544.6z M197.8,544.8c0.5,0,0.9-0.2,1.1-0.5c0.2-0.3,0.3-0.8,0.3-1.5
				c0-0.6-0.1-1.1-0.4-1.4c-0.2-0.3-0.6-0.5-1.1-0.5c-0.5,0-0.8,0.2-1.1,0.5c-0.3,0.3-0.4,0.8-0.4,1.5c0,0.6,0.1,1.1,0.4,1.4
				S197.3,544.8,197.8,544.8z"/>
			<path d="M206.6,543.7c0,0.3-0.1,0.5-0.2,0.8s-0.3,0.4-0.5,0.6s-0.4,0.3-0.7,0.4c-0.3,0.1-0.6,0.1-0.9,0.1c-0.4,0-0.8-0.1-1.1-0.2
				c-0.3-0.1-0.6-0.3-0.8-0.6s-0.4-0.5-0.5-0.9c-0.1-0.3-0.1-0.7-0.1-1.1s0.1-0.8,0.2-1.1c0.1-0.3,0.3-0.6,0.5-0.9
				c0.2-0.2,0.5-0.4,0.8-0.6s0.7-0.2,1.1-0.2s0.8,0.1,1.1,0.2s0.5,0.3,0.7,0.5c0.2,0.2,0.3,0.5,0.4,0.9c0.1,0.3,0.1,0.7,0.1,1.2v0.2
				h-3.8c0,0.6,0.1,1,0.4,1.3s0.6,0.4,1,0.4c0.4,0,0.7-0.1,0.9-0.3s0.4-0.4,0.4-0.8H206.6z M205.5,542.3c0-0.4-0.1-0.7-0.3-1
				s-0.5-0.4-0.9-0.4c-0.4,0-0.7,0.1-1,0.3c-0.2,0.2-0.4,0.6-0.4,1.1H205.5z"/>
			<path d="M211.1,544.6h1.7v-5.2l-1.6,1l-0.5-0.8l2.4-1.6h0.9v6.5h1.4v0.9h-4.2V544.6z"/>
			<path d="M218.9,545.6c-0.4,0-0.7-0.1-1-0.2s-0.6-0.4-0.8-0.7s-0.4-0.7-0.6-1.2c-0.1-0.5-0.2-1.1-0.2-1.7s0.1-1.3,0.2-1.7
				c0.1-0.5,0.3-0.9,0.6-1.2s0.5-0.5,0.8-0.7s0.7-0.2,1-0.2c0.4,0,0.7,0.1,1,0.2s0.6,0.4,0.8,0.7s0.4,0.7,0.6,1.2
				c0.1,0.5,0.2,1.1,0.2,1.7s-0.1,1.3-0.2,1.7c-0.1,0.5-0.3,0.9-0.6,1.2s-0.5,0.5-0.8,0.7S219.3,545.6,218.9,545.6z M218.9,544.7
				c0.2,0,0.4,0,0.6-0.1c0.2-0.1,0.3-0.2,0.5-0.5c0.1-0.2,0.2-0.5,0.3-0.9s0.1-0.8,0.1-1.4s0-1-0.1-1.4c-0.1-0.4-0.2-0.7-0.3-0.9
				c-0.1-0.2-0.3-0.4-0.5-0.5s-0.4-0.1-0.6-0.1c-0.2,0-0.4,0-0.6,0.1s-0.3,0.2-0.5,0.5c-0.1,0.2-0.2,0.5-0.3,0.9
				c-0.1,0.4-0.1,0.8-0.1,1.4s0,1,0.1,1.4s0.2,0.7,0.3,0.9c0.1,0.2,0.3,0.4,0.5,0.5C218.5,544.6,218.7,544.7,218.9,544.7z"/>
			<path d="M224.7,545.6c-0.4,0-0.7-0.1-1-0.2s-0.6-0.4-0.8-0.7s-0.4-0.7-0.6-1.2c-0.1-0.5-0.2-1.1-0.2-1.7s0.1-1.3,0.2-1.7
				c0.1-0.5,0.3-0.9,0.6-1.2s0.5-0.5,0.8-0.7s0.7-0.2,1-0.2c0.4,0,0.7,0.1,1,0.2s0.6,0.4,0.8,0.7s0.4,0.7,0.6,1.2
				c0.1,0.5,0.2,1.1,0.2,1.7s-0.1,1.3-0.2,1.7c-0.1,0.5-0.3,0.9-0.6,1.2s-0.5,0.5-0.8,0.7S225.1,545.6,224.7,545.6z M224.7,544.7
				c0.2,0,0.4,0,0.6-0.1c0.2-0.1,0.3-0.2,0.5-0.5c0.1-0.2,0.2-0.5,0.3-0.9s0.1-0.8,0.1-1.4s0-1-0.1-1.4c-0.1-0.4-0.2-0.7-0.3-0.9
				c-0.1-0.2-0.3-0.4-0.5-0.5s-0.4-0.1-0.6-0.1c-0.2,0-0.4,0-0.6,0.1s-0.3,0.2-0.5,0.5c-0.1,0.2-0.2,0.5-0.3,0.9
				c-0.1,0.4-0.1,0.8-0.1,1.4s0,1,0.1,1.4s0.2,0.7,0.3,0.9c0.1,0.2,0.3,0.4,0.5,0.5C224.3,544.6,224.5,544.7,224.7,544.7z"/>
		</g>
	</g>
	<circle class="st11" cx="170.5" cy="543.4" r="6.3"/>
	<circle class="st12" cx="102.5" cy="501.8" r="6.3"/>
	<circle class="st13" cx="102.5" cy="522.4" r="6.3"/>
	<circle class="st14" cx="170.5" cy="501.8" r="6.3"/>
	<circle class="st15" cx="102.5" cy="543.1" r="6.3"/>
</g>
</svg>
