<?xml version="1.0" encoding="utf-8"?>
<!-- Generator: Adobe Illustrator 19.0.0, SVG Export Plug-In . SVG Version: 6.00 Build 0)  -->
<svg version="1.1" id="Calque_1" xmlns="http://www.w3.org/2000/svg" xmlns:xlink="http://www.w3.org/1999/xlink" x="0px" y="0px"
	 viewBox="9 -150 767.7 800" style="enable-background:new 9 -150 767.7 800;" xml:space="preserve">
<style type="text/css">
	.st0{fill:#E2E8F2;stroke:#E2E8F2;stroke-linecap:round;stroke-linejoin:round;stroke-miterlimit:10;}
	.st1{fill:#FFFFFF;stroke:#F4D7CB;stroke-miterlimit:10;}
	.st2{fill:#EBB7A5;stroke:#F4D7CB;stroke-linecap:round;stroke-linejoin:round;stroke-miterlimit:10;}
	.st3{fill:#F4D7CB;stroke:#F4D7CB;stroke-linecap:round;stroke-linejoin:round;stroke-miterlimit:10;}
	.st4{fill:#E2967F;stroke:#F4D7CB;stroke-linecap:round;stroke-linejoin:round;stroke-miterlimit:10;}
	.st5{fill:#C32121;stroke:#F4D7CB;stroke-linecap:round;stroke-linejoin:round;stroke-miterlimit:10;}
	.st6{fill:#D9745E;stroke:#F4D7CB;stroke-linecap:round;stroke-linejoin:round;stroke-miterlimit:10;}
	.st7{fill:none;}
</style>
<g id="XMLID_179_">
	<g id="XMLID_180_">
		<rect id="XMLID_182_" x="8.7" y="-150" class="st0" width="768" height="800"/>
		<g id="XMLID_181_">
			<polygon id="Royaume-Uni_13_" class="st1" points="217.2,-144 207.3,-141.6 177.3,-139.4 164.1,-126.1 148.5,-114.3 
				152.3,-112.3 171.1,-116.9 173.4,-92.2 168.9,-76 132.1,-66.3 119.7,-57.2 121.6,-46.2 130.6,-37.8 153.5,-44 159.7,-30.8 
				176.8,-34.3 180.6,-24.4 201.4,-18.8 209.1,-26.4 234.7,-38.2 212.6,-18.8 208.1,-6.1 183.6,-8.9 158.9,-8.2 143.8,8.9 
				119.3,36.9 91.2,53.2 112.7,63.2 132,43.7 151.9,44.6 176.4,58.4 189.2,34 215.6,34 223,36.1 242.2,32.5 275.2,24.8 293.4,28.3 
				337.4,32.6 365.9,21.4 384.9,6.9 388,-8.6 361.8,-7.2 345.2,-13.1 366.2,-20.6 368.5,-30.4 378.6,-35.9 394.3,-52.1 396.6,-63.7 
				401.5,-86.5 386.5,-103.9 367.3,-107 355.2,-109.4 348.2,-96.9 338.1,-104.7 333.5,-104.9 348.4,-121.9 343.3,-135.6 333.1,-150 
				217.4,-150 			"/>
			<polygon id="Irlande_13_" class="st1" points="9.7,-72.5 27.2,-79.3 50.9,-82.2 61.9,-86.1 80.5,-81.6 99.2,-125.6 100.1,-141.3 
				96.7,-144.8 93.7,-150 9.7,-150 			"/>
			<polygon id="Espagne_13_" class="st1" points="449.5,562.9 442.7,564.5 433.7,574 425.6,574 414.2,566.3 409.6,566.3 
				405.9,570.1 399.7,567.4 399.7,563.7 392.5,561.2 380.7,565.2 375.8,558.4 375.8,553.8 370.7,550 362.7,550 359,543.4 
				349.3,539.4 340.7,536.4 340.3,547.3 328.6,546.1 322.4,547.7 316.5,543.3 307.4,546.3 301.4,539.9 294.4,535.2 281.6,538.2 
				281.6,538 281.6,538 281,537.6 274.5,532 274.1,527.5 274.1,527.5 271.4,527.5 271.1,527.5 266.8,527.5 248.3,517.7 246.2,522.6 
				240.2,516.1 243,514.6 243.7,508 224.7,501.7 224.7,497.8 211.7,501.5 194.7,498.2 180.2,490.1 167.4,497.7 148.9,486.4 
				131.4,482.8 114.9,487.7 71.5,480.3 55.9,472 32,467.5 8.7,467.1 8.7,651 376.8,651 399.7,642.6 459.1,601.5 455.3,580.9 
				462.7,578.4 456.9,566.9 452.9,565.7 			"/>
			<polygon id="Allemagne_14_" class="st1" points="615,-129 615,-129 612.7,-94.3 611.7,-93.1 609.2,-89.7 609,-89.8 609,-89.7 
				599.4,-90.4 596.5,-79.6 607.8,-79.1 608.1,-77.4 611.1,-64.3 597.7,-53.1 602.1,-44.7 585.7,-37.8 585.7,-37.8 585.7,-37.8 
				576.9,-41.7 569,-37.2 584.2,-10.6 582.8,-6.8 581.3,-3 575.2,12.3 575.8,24.3 575.8,24.3 573,31.4 583,42.2 583,42.2 
				582.8,42.9 581.4,46.5 587,50.2 589.1,57.5 579.1,70.6 576.8,78.2 583.1,85.9 596.1,90.7 597.5,97.7 589.5,108.8 590.6,113.1 
				598.5,116.3 605.8,131.7 609.8,131.2 610.7,128.3 614.8,128.3 621.1,133.1 628.6,132.9 631.7,130.1 637.3,130.3 644.3,137 
				657.3,136.3 669.7,141.4 659,158.4 653.3,162.5 650.5,184.8 644.6,195.9 647,206 642.1,223.7 646.4,230.5 643.9,238.2 646.5,234 
				664,233.2 674.5,228.1 685.4,230.6 686.4,228.4 686.5,228 692.3,225.8 684.9,224 682.8,222.1 688.7,216.7 694.8,215.6 
				700.3,220.5 706.6,223.5 714.1,222 724.4,223.1 739.3,227.7 741.3,224 756.7,236.4 756.7,238.8 756.7,242.3 770.4,232.3 
				771.2,223.8 777.2,223.6 777.7,223.6 777.7,-150 613,-150 604,-137.8 604.2,-137.5 			"/>
			<polygon id="Italie_13_" class="st1" points="777.7,272.5 762.2,285.9 760,304 726.2,300.1 704,322.8 690.9,314.8 690.1,300.9 
				675.1,314.7 678.7,319.8 665.6,337.7 654.7,334.1 643.1,340.2 632.2,341.6 630.4,341.1 628.2,339.1 628.1,341 620.6,344 
				618.8,346 637.7,370.6 637.7,370.6 637.7,370.6 634.9,381.3 625,388.9 613.6,390 620.3,403.1 631.2,405.7 635.1,414.5 
				635.1,414.5 630.9,418.4 631.2,418.7 631.4,425.1 627.4,428.9 626.4,429.9 627.6,437.8 646.8,451.1 663.7,447.2 664.9,460.2 
				664.9,460.2 660.1,461.7 659.5,472.8 666.2,474.9 684.8,467.9 700.3,443 712.9,430.7 740.1,436.8 776.3,452.3 777.7,453.8 			"/>
			<polygon id="Autriche_13_" class="st1" points="771.1,223.8 770.4,232.3 756.7,242.3 756.7,238.8 756.7,236.4 741.3,224 
				739.4,227.7 724.4,223.1 733,229.9 737.3,233.1 739,238.4 733.4,248.4 746.9,250.4 750.3,263 759.1,271.7 769.4,264 776.8,264 
				777.7,264 777.7,223.6 777.2,223.6 			"/>
			<polygon id="Liechtenstein_13_" class="st1" points="750.3,263 746.9,250.4 733.4,248.4 735.9,260.1 			"/>
			<polygon id="Pays-Bas_14_" class="st1" points="500.2,-5.9 513,-12.3 522.3,-9.4 533.6,-12.3 540.6,-0.2 549.3,-1.5 549.3,-1.5 
				549.3,-1.5 565.7,6.6 560.4,32.3 573,31.4 573,31.4 573,31.4 573,31.4 575.8,24.3 575.8,24.3 575.2,12.3 581.3,-3 582.8,-6.8 
				584.2,-10.6 569,-37.2 576.9,-41.7 576.9,-41.7 585.7,-37.8 585.7,-37.8 602.1,-44.7 597.7,-53.1 611.1,-64.3 608.1,-77.4 
				607.8,-79.1 596.5,-79.6 599.4,-90.4 599.4,-90.4 609,-89.8 609.2,-89.7 611.7,-93.1 612.7,-94.3 615,-129 615,-129 
				604.2,-137.3 604,-137.5 603.6,-137.8 600.4,-140.2 590.7,-139.5 569.6,-136 548.7,-127.6 543.7,-115 527.2,-102.3 524.3,-107 
				518.5,-108 510.3,-66.3 496.4,-46.2 480.9,-29.4 467.9,-16.3 471.9,-8.9 488.4,-5 			"/>
			<polygon id="Belgique_13_" class="st1" points="433.7,27.7 438,30.1 440.2,32.6 442.5,37.2 447.8,34 456.1,32 460.1,36.9 
				461.1,48.5 465.6,50.5 469.9,48.6 477.6,54.1 477.2,61.8 478.8,61.8 480.1,59.6 492.3,59.1 500.2,66.4 500.5,78.2 496.2,81.4 
				496.7,83 501.1,83 508.3,85.5 518.4,81 522.7,71 526.9,71 527.3,94 545.4,101.5 547.3,106.9 552.5,110.7 565.7,108.3 569.6,106 
				569.1,103.4 562.7,86.5 574,67.6 579.1,70.6 589.1,57.5 587,50.2 581.4,46.5 582.8,42.9 583,42.2 573,31.4 573,31.4 560.4,32.3 
				560.4,32.3 565.7,6.6 549.3,-1.5 549.3,-1.5 540.6,-0.2 533.6,-12.3 522.3,-9.4 513,-12.3 500.2,-5.9 488.4,-5 471.9,-8.9 
				458.5,-5.2 427.7,10.6 427.7,13.6 431.6,12.6 435.3,21.6 			"/>
			<polygon id="Luxembourg_15_" class="st1" points="597.5,97.7 596.1,90.7 583.1,85.9 576.8,78.2 579.1,70.6 574,67.6 562.7,86.5 
				569.1,103.4 569.6,106 565.7,108.3 572.3,113.2 581.2,110.8 584.7,110.7 590.6,113.1 589.5,108.8 			"/>
			<polygon id="Suisse_14_" class="st1" points="769.4,264 759.1,271.7 750.3,262.9 735.9,260 733.4,248.4 739,238.4 737.3,233.1 
				733,229.9 724.4,223.1 714.1,222 706.6,223.5 700.3,220.5 694.8,215.5 688.7,216.7 682.8,222.1 684.9,224 692.3,225.8 686.5,228 
				686.4,228.4 685.4,230.6 674.5,228.1 664,233.2 646.5,233.8 643.5,238 643.2,238 639.8,241.5 631.2,241.5 628.7,237.9 
				628.1,238.3 623.6,239.3 626.7,246.6 626.7,246.6 626.7,246.6 626.6,246.6 626.5,246.6 609.7,268.5 608.3,270.3 599.8,274.3 
				600.8,285 600.8,285 600.8,285 586.9,298.9 585.8,308.2 590.5,309.9 587.7,318.7 581.1,320.7 581.2,325 588.3,325.1 595.6,319.6 
				593,315.7 593,315.7 593,315.7 597.1,310.1 599.8,311.9 616.3,308 620.4,318.1 620.4,318.1 620.4,318.1 617.9,320.7 628.5,333.9 
				628.3,338.1 628.2,339.1 630.4,341.1 632.2,341.6 643.1,340.2 654.7,334.1 665.6,337.7 665.6,337.7 678.6,319.8 675.1,314.7 
				690,300.9 690.9,314.8 703.9,322.8 726.2,300.1 759.9,304 762.2,285.9 777.7,272.5 777.7,264 776.8,264 			"/>
			<polygon id="France_24_" class="st1" points="741.3,503.8 734.1,504 731.6,509.4 717.3,515 712.2,527.9 710.4,530.3 716.3,534 
				716.5,535.8 710.8,537.1 712.3,544.3 718.8,546.3 719.3,550.3 714.8,554.8 715.4,558.8 721.9,559.3 723.5,563.5 719.1,569.3 
				730.7,571.2 724.1,578.4 730.1,583.2 739.7,586.1 742.5,589.3 748,590.8 753.2,575.3 754.4,563.9 753.7,557.5 753.6,551 
				758.9,543.6 759,531.4 756.9,527.2 756.3,514 752,509.4 751.6,501.3 753,497.6 750.2,486.8 748.3,483.3 744.1,486.5 746,499.7 
				744.6,505.6 			"/>
			<polygon id="Andorre_13_" class="st1" points="380.7,565.2 392.5,561.2 387.2,552.6 375.8,553.8 375.8,558.4 			"/>
			<polygon id="Monaco_13_" class="st1" points="641.7,488.7 641.7,488.7 650.6,488.9 647,481.5 642,481.9 			"/>
		</g>
	</g>
	<polygon id="France_23_" class="st1" points="664.9,460.2 664.9,460.2 663.7,447.2 646.8,451.1 627.6,437.8 626.4,429.9 
		627.4,428.9 631.4,425.1 631.2,418.7 630.9,418.4 635.1,414.5 635.1,414.5 631.2,405.7 620.3,403.1 613.6,390 613.6,390 625,388.9 
		634.9,381.3 637.7,370.6 637.7,370.6 618.8,346 618.8,346 620.6,344 628.1,341 628.2,339.1 628.3,338.1 628.5,333.9 617.9,320.7 
		617.9,320.7 620.4,318.1 620.4,318.1 616.3,308 599.8,311.9 597.1,310.1 593,315.7 593,315.7 595.6,319.6 588.3,325.1 581.2,325 
		581.1,320.7 587.7,318.7 590.5,309.9 585.8,308.1 586.9,298.8 600.8,284.7 600.8,284.7 599.8,274.1 599.8,274.1 608.3,270.3 
		609.7,268.5 626.6,246.6 626.7,246.6 626.7,246.6 623.6,239.3 628.2,238.3 628.7,238 631.2,241.6 639.8,241.7 643.9,238.2 
		646.4,230.5 642.1,223.7 647,206 644.6,195.9 650.5,184.8 653.3,162.5 659,158.4 669.7,141.4 657.3,136.3 644.3,137 637.3,130.3 
		631.7,130.1 628.6,132.9 621.1,133.1 614.8,128.3 610.7,128.3 609.8,131.2 605.8,131.7 598.5,116.3 590.6,113.1 584.7,110.7 
		581.2,110.8 572.3,113.2 565.7,108.3 552.5,110.7 547.3,106.9 545.4,101.6 527.3,94 526.9,71 522.7,71 518.4,81 508.3,85.4 
		501.1,83 496.7,82.9 496.2,81.4 500.5,78.2 500.2,66.4 492.3,59.1 480.1,59.6 478.8,61.8 477.2,61.8 477.6,54.1 469.9,48.6 
		465.6,50.5 461.1,48.5 460.1,36.9 456.1,32 447.8,34 442.5,37.2 440.2,32.6 438,30.1 433.6,27.7 435.2,21.6 431.4,12.6 413,17.5 
		400.9,19.7 391.2,27.1 390.8,57.5 381.9,76.5 371,85.4 334.3,98 327.8,112 337.5,116.8 314.6,126.1 307.1,121.9 288,119.1 
		283.9,117.1 278.4,118.5 270.6,106.9 274.7,103.8 272.8,98 261.6,98 257.1,100.1 244.4,93.9 243.5,95.8 248.1,99.4 248.1,113.3 
		256.1,127.8 258.6,147.1 255.9,152.8 263.9,162.9 257.5,165 246.8,164.9 245.5,159 240.3,158.7 238.1,161.1 224.2,159.4 
		207.8,166.4 203.2,162.6 194.6,145 171.7,146.3 170.3,154.5 160.8,152.6 158.6,155 148.3,151.2 122.4,158.6 119.5,172.8 
		133.3,171.8 142.5,177.4 128.6,175.1 124.9,177 139.2,184.3 138.4,188.7 121.1,189.5 121,192.3 128.9,194.2 134.5,205.1 
		134.3,208.5 142.6,208.9 143.7,205.2 155,211.2 169.7,213.6 184.5,226.6 198.7,233.9 212.6,237.2 207.8,247.4 222.7,249.9 
		222.7,255.9 220.1,258.8 226.8,260.1 232.1,264.2 224.8,272.9 224.7,278.2 237.2,299.3 266.2,314.3 263.8,320.8 251.3,313.1 
		246.3,316.2 270.1,330 267.2,340.9 263.2,339 255,328.6 254.5,336.2 259.5,340 261.1,352.7 280.9,368.1 282.5,376.5 284.8,388.2 
		283.3,390.6 278.4,374 267.3,366.5 266.1,360.6 263.8,361.5 262.7,369.9 255.6,418.2 261.1,411.4 267.9,419.6 267.3,423 259.6,423 
		255.7,427.5 255.6,431.3 243.4,483.3 240.1,488.6 234,495.9 224.7,497.8 224.7,501.7 243.7,508 243,514.6 240.3,516.1 246.2,522.6 
		248.3,517.7 266.8,527.5 271.1,527.5 271.4,527.6 274.1,527.6 274.1,527.6 274.1,527.6 274.5,532.2 281,537.8 281.6,538.4 
		281.6,538.4 294.4,535.2 301.4,539.9 307.4,546.3 316.5,543.2 322.4,547.7 328.6,546.1 340.3,547.3 340.7,536.4 349.3,539.4 
		359,543.4 362.7,550 370.7,550 375.8,553.8 387.2,552.6 392.8,561.4 399.7,563.7 399.7,567.4 405.9,570.1 409.6,566.3 414.2,566.3 
		425.6,574 433.7,574 442.7,564.5 449.5,562.9 452.9,565.7 456.9,566.9 457,561.1 452.9,557 451.9,538.6 452.1,525.9 447.4,522.8 
		449.1,519.9 453.3,523 458.7,516.3 495.1,493.8 499.2,494.1 501.5,498.6 509.2,498.6 525.3,499.7 522.4,503.8 532.6,507.8 
		538.4,506 535.8,501.1 541.3,501.8 545,506.1 559.2,505.6 561.3,513.5 575.7,517.4 581.9,523.8 589.3,520.2 597.3,521 607.3,519.7 
		622,511.7 620.9,505.1 633.3,494.3 641.7,488.7 642,481.9 647,481.5 659.5,472.8 659.5,472.8 660.1,461.7 	"/>
</g>
<g id="XMLID_1050_">
	<polygon id="Royaume-Uni_3_" class="st2" points="216.8,-144.2 206.9,-141.9 176.9,-139.8 163.6,-126.4 148.1,-114.7 151.8,-112.7 
		170.6,-117.3 172.9,-92.6 168.4,-76.4 131.7,-66.7 119.2,-57.6 121.1,-46.6 130.2,-38.2 153.1,-44.4 159.2,-31.2 176.3,-34.7 
		180.1,-24.8 201,-19.2 208.6,-26.8 234.2,-38.6 212.1,-19.2 207.6,-6.5 183.2,-9.3 158.4,-8.6 143.4,8.5 118.9,36.5 90.7,52.8 
		112.2,62.8 131.5,43.3 151.4,44.2 175.9,58.2 188.7,34 215.1,34 222.5,35.9 241.7,32.2 274.7,24.5 293,27.9 336.9,32.2 365.4,21 
		384.5,6.5 387.5,-9 361.3,-7.6 344.7,-13.5 365.7,-21 368,-30.8 378.1,-36.3 393.9,-52.5 396.1,-64.1 401,-86.9 386,-104.3 
		366.8,-107.4 354.7,-109.8 347.8,-97.3 337.6,-105.1 333.1,-105.3 347.9,-122.3 342.9,-135.8 332.7,-150 217,-150 	"/>
	<polygon id="Irlande_3_" class="st3" points="9,-72.9 26.6,-79.7 50.3,-82.6 61.4,-86.5 80,-82 98.8,-126 99.6,-141.7 96.3,-145 
		93.2,-150 9,-150 	"/>
	<polygon id="Espagne_3_" class="st4" points="449,562.5 442.2,564.1 433.2,573.5 425.1,573.5 413.8,565.8 409.2,565.9 405.4,569.7 
		399.3,567 399.3,563.3 392,560.8 380.3,564.8 375.3,558 375.3,553.4 370.2,549.5 362.2,549.5 358.6,542.9 348.9,539 340.2,536 
		339.8,546.9 328.1,545.7 321.9,547.3 316,542.9 306.9,545.9 300.9,539.5 294,534.8 281.2,538 281.2,538 281.2,538 280.5,537.4 
		274,531.8 273.6,527.2 273.6,527.2 270.9,527.2 270.7,527.2 266.3,527.1 247.8,517.3 245.7,522.2 239.8,515.7 242.6,514.2 
		243.2,507.6 224.1,501.3 224.1,497.4 211.1,501.1 194.2,497.8 179.7,489.7 166.9,497.3 148.5,486.1 130.9,482.4 114.4,487.3 
		71,480 55.4,471.6 31.8,467.1 8.7,466.7 8.7,650.5 376.3,650.5 399.2,642.2 458.6,601 454.8,580.5 462.2,578 456.5,566.5 
		452.4,565.3 	"/>
	<polygon id="Allemagne_3_" class="st4" points="614.5,-129.4 614.5,-129.4 612.2,-94.7 611.3,-93.5 608.8,-90.1 608.5,-90.2 
		608.5,-90.1 598.9,-90.8 596.1,-80 607.3,-79.5 607.7,-77.8 610.6,-64.7 597.2,-53.5 601.6,-45.1 585.2,-38.2 585.2,-38.2 
		585.2,-38.2 576.4,-42.1 568.6,-37.6 583.8,-11 582.3,-7.2 580.8,-3.4 574.8,11.9 575.3,23.9 575.3,23.9 572.5,31 582.6,41.8 
		582.6,41.8 582.3,42.5 580.9,46.1 586.6,49.8 588.6,57.1 578.6,70.2 576.3,77.8 582.6,85.5 595.6,90.3 597,97.3 589.1,108.4 
		590.1,112.7 598.1,115.9 605.3,131.3 609.3,130.8 610.3,127.9 614.4,127.9 620.7,132.7 628.1,132.5 631.2,129.7 636.8,129.9 
		643.8,136.6 656.9,135.9 669.2,141 658.5,158 652.8,162.1 650,184.4 644.2,195.5 646.5,205.6 641.6,223.3 645.9,230.1 643.4,237.8 
		646,233.6 663.5,232.8 674.1,227.7 685,230.2 685.9,228 686,227.6 691.8,225.4 684.4,223.6 682.4,221.7 688.2,216.3 694.3,215.2 
		699.8,220.1 706.1,223.1 713.6,221.6 724,222.7 738.9,227.3 740.8,223.6 756,236 756,238.4 756,241.9 769.8,231.9 770.6,223.4 
		776.6,223.3 777,223.2 777,-150 612.5,-150 603.6,-137.9 603.8,-137.7 	"/>
	<polygon id="Italie_3_" class="st4" points="777,272.1 761.6,285.5 759.4,303.6 725.7,299.7 703.5,322.4 690.5,314.4 689.6,300.5 
		674.7,314.3 678.2,319.4 665.1,337.3 654.3,333.7 642.6,339.8 631.7,341.2 629.9,340.7 627.7,338.7 627.6,340.6 620.1,343.6 
		618.4,345.6 637.2,370.2 637.2,370.2 637.2,370.2 634.5,380.9 624.6,388.5 613.2,389.6 619.8,402.7 630.7,405.3 634.6,414.1 
		634.6,414.1 630.4,418 630.7,418.3 630.9,424.7 627,428.5 626,429.5 627.2,437.4 646.3,450.7 663.2,446.8 664.4,459.8 664.4,459.8 
		659.6,461.3 659.1,472.4 665.8,474.5 684.3,467.5 699.8,442.6 712.4,430.3 739.6,436.5 775.7,451.9 777,453.4 	"/>
	<polygon id="Autriche_3_" class="st1" points="770.6,223.4 769.8,231.9 756,241.9 756,238.4 756,236 740.8,223.6 738.9,227.3 
		723.9,222.7 732.5,229.5 736.8,232.7 738.6,238 732.9,248 746.4,250.1 749.9,262.6 758.6,271.5 768.9,264 776.3,264 777,264 
		777,223.2 776.6,223.3 	"/>
	<polygon id="Liechtenstein_3_" class="st1" points="749.9,262.6 746.4,250.1 732.9,248 735.4,259.7 	"/>
	<polygon id="Pays-Bas_3_" class="st4" points="499.7,-6.3 512.5,-12.7 521.8,-9.8 533.1,-12.7 540.1,-0.6 548.9,-1.9 548.9,-1.9 
		548.9,-1.9 565.3,6.2 560,31.9 572.5,31 572.5,31 572.5,31 572.5,31 575.3,23.9 575.3,23.9 574.8,11.9 580.8,-3.4 582.3,-7.2 
		583.8,-11 568.6,-37.6 576.4,-42.1 576.4,-42.1 585.2,-38.2 585.2,-38.2 601.6,-45.1 597.2,-53.5 610.6,-64.7 607.7,-77.8 
		607.3,-79.5 596.1,-80 598.9,-90.8 598.9,-90.8 608.5,-90.2 608.8,-90.1 611.3,-93.5 612.2,-94.7 614.5,-129.4 614.5,-129.4 
		603.8,-137.7 603.6,-137.9 603.1,-138.2 600,-140.6 590.3,-139.9 569.1,-136.4 548.2,-128 543.3,-115.3 526.8,-102.6 523.8,-107.4 
		518,-108.4 509.8,-66.7 495.9,-46.6 480.5,-29.8 467.4,-16.7 471.5,-9.3 488,-5.4 	"/>
	<polygon id="Belgique_3_" class="st5" points="433.2,27.3 437.6,29.7 439.7,32.2 442.1,36.8 447.4,33.6 455.7,31.6 459.6,36.5 
		460.6,48.1 465.1,50.1 469.4,48.2 477.2,53.7 476.8,61.4 478.3,61.4 479.6,59.2 491.9,58.7 499.7,66 500.1,77.8 495.7,81 
		496.2,82.6 500.7,82.6 507.9,85.1 518,80.8 522.2,71 526.5,71 526.8,93.8 544.9,101.2 546.8,106.5 552,110.3 565.2,107.9 
		569.1,105.6 568.6,103 562.3,86.2 573.5,67.3 578.6,70.2 588.6,57.1 586.6,49.8 580.9,46.1 582.3,42.5 582.6,41.8 572.5,31 
		572.5,31 560,31.9 560,31.9 565.3,6.2 548.9,-1.9 548.9,-1.9 540.1,-0.6 533.1,-12.7 521.8,-9.8 512.5,-12.7 499.7,-6.3 488,-5.4 
		471.5,-9.3 457.9,-5.6 427,10.2 427,13.2 431,12.2 434.7,21.2 	"/>
	<polygon id="Luxembourg_3_" class="st2" points="597,97.3 595.6,90.3 582.6,85.5 576.3,77.8 578.6,70.2 573.5,67.3 562.3,86.2 
		568.6,103 569.1,105.6 565.2,107.9 571.9,112.9 580.8,110.4 584.2,110.3 590.1,112.7 589.1,108.4 	"/>
	<polygon id="Suisse_3_" class="st6" points="768.9,264 758.6,271.5 749.9,262.6 735.4,259.7 732.9,248 738.6,238 736.8,232.7 
		732.5,229.5 724,222.7 713.6,221.6 706.1,223.1 699.8,220.1 694.3,215.2 688.2,216.3 682.4,221.7 684.4,223.6 691.8,225.4 
		686,227.6 685.9,228 685,230.2 674.1,227.7 663.5,232.8 646,233.6 643.1,238 642.7,238 639.4,241.3 630.7,241.2 628.2,237.6 
		627.6,237.9 623,238.9 626,246.2 626,246.2 626,246.2 626,246.2 626,246.2 609.2,268.1 607.8,269.9 599.3,273.8 600.3,284.3 
		600.3,284.3 600.3,284.3 586.4,298.4 585.3,307.8 590.1,309.5 587.2,318.3 580.7,320.3 580.8,324.6 587.9,324.7 595.1,319.2 
		592.5,315.3 592.5,315.3 592.5,315.3 596.7,309.7 599.4,311.5 615.8,307.6 619.9,317.7 619.9,317.7 619.9,317.7 617.5,320.3 
		628.1,333.5 627.8,337.7 627.7,338.7 629.9,340.7 631.7,341.2 642.6,339.8 654.2,333.7 665.1,337.3 665.1,337.3 678.2,319.4 
		674.7,314.3 689.6,300.5 690.5,314.4 703.5,322.4 725.7,299.7 759.4,303.6 761.6,285.5 777,272.1 777,264 776.3,264 	"/>
	<polygon id="France_3_" class="st1" points="740.9,503.4 733.6,503.6 731.2,509 716.9,514.6 711.7,527.5 710,529.9 715.8,533.6 
		716.1,535.4 710.3,536.7 711.8,543.9 718.4,545.9 718.8,549.9 714.4,554.4 715,558.4 721.4,558.9 723,563.1 718.6,568.9 
		730.2,570.8 723.6,578 729.7,582.8 739.3,585.7 742,588.9 747.6,590.4 752.7,574.9 753.9,563.5 753.2,557.1 753.2,550.6 
		758.5,543.2 758.6,531 756.4,526.8 755.9,513.6 751.5,509 751.2,500.9 752.5,497.2 749.8,486.4 747.8,482.9 743.6,486.2 
		745.5,499.3 744.1,505.2 	"/>
	<polygon id="Andorre_3_" class="st3" points="380.3,564.8 392,560.8 386.7,552.2 375.3,553.4 375.3,558 	"/>
	<polygon id="Monaco_3_" class="st2" points="641.2,488.3 641.2,488.3 650.2,488.5 646.5,481.1 641.5,481.5 	"/>
</g>
<g id="XMLID_631_">
	<rect id="XMLID_797_" x="32.5" y="359" class="st7" width="193" height="77.3"/>
</g>
</svg>
