<svg id="Calque_1" data-name="Calque 1" xmlns="http://www.w3.org/2000/svg" viewBox="0 0 769 801"><defs><style>.cls-1{fill:#ede6d8;}.cls-1,.cls-2,.cls-4,.cls-5,.cls-6,.cls-7,.cls-8,.cls-9{stroke:#fff;}.cls-1,.cls-2,.cls-9{stroke-miterlimit:10;}.cls-2{fill:none;}.cls-3,.cls-6{fill:#f28ea4;}.cls-14,.cls-4{fill:#f6b0bf;}.cls-4,.cls-5,.cls-6,.cls-7,.cls-8{stroke-linecap:round;stroke-linejoin:round;}.cls-13,.cls-5,.cls-9{fill:#fad2db;}.cls-12,.cls-7{fill:#e61e49;}.cls-15,.cls-8{fill:#ef6d89;}.cls-10{fill:#fff;}.cls-11{fill:#eb4b6d;}</style></defs><title>cartesTOURFRANCE-paysvisites</title><rect class="cls-1" x="0.94" y="0.5" width="767.34" height="800"/><polygon id="France" class="cls-2" points="655.71 610.72 655.71 610.72 654.48 597.78 637.6 601.6 618.44 588.36 617.23 580.45 618.23 579.47 622.14 575.64 621.98 569.2 621.7 568.9 625.85 565.05 625.85 565.05 621.98 556.28 611.06 553.61 604.41 540.56 604.41 540.56 615.81 539.43 625.72 531.84 628.44 521.14 628.44 521.14 609.61 496.53 609.61 496.53 611.36 494.5 618.84 491.5 618.97 489.63 619.1 488.67 619.33 484.48 608.72 471.25 608.72 471.25 611.15 468.65 611.15 468.65 607.08 458.56 590.63 462.48 587.94 460.62 583.78 466.24 583.78 466.24 586.38 470.17 579.11 475.6 572.01 475.5 571.93 471.28 578.5 469.25 581.32 460.44 576.54 458.69 577.7 449.33 591.54 435.2 591.54 435.2 590.54 424.69 590.54 424.69 599.09 420.83 600.48 419.01 617.36 397.13 617.5 397.13 617.5 397.13 614.38 389.81 618.95 388.86 619.52 388.55 621.99 392.18 630.64 392.23 634.69 388.73 637.16 381.07 632.84 374.24 637.79 356.55 635.44 346.48 641.27 335.35 644.09 313.02 649.8 308.94 660.45 291.93 648.11 286.82 635.09 287.54 628.1 280.86 622.46 280.67 619.36 283.48 611.93 283.63 605.64 278.79 601.54 278.84 600.56 281.79 596.54 282.2 589.31 266.88 581.37 263.62 575.47 261.2 572.02 261.39 563.14 263.79 556.44 258.87 543.28 261.27 538.05 257.49 536.14 252.15 518.09 244.53 517.71 221.5 513.48 221.5 509.22 231.52 499.13 235.92 491.91 233.5 487.45 233.49 486.97 231.95 491.31 228.74 490.96 216.9 483.13 209.61 470.87 210.18 469.55 212.34 468.01 212.32 468.44 204.66 460.67 199.13 456.4 201.03 451.84 199.03 450.85 187.44 446.93 182.57 438.62 184.5 433.33 187.72 430.96 183.1 428.81 180.67 424.44 178.25 426 172.13 422.22 163.1 403.79 168.09 391.65 170.29 381.94 177.64 381.62 208.08 372.66 227.06 361.76 235.94 325.07 248.56 318.61 262.51 328.28 267.36 305.35 276.63 297.93 272.39 278.79 269.67 274.73 267.65 269.22 269 261.34 257.44 265.54 254.3 263.57 248.5 252.41 248.5 247.91 250.62 235.17 244.43 234.28 246.33 238.87 249.94 238.88 263.83 246.94 278.34 249.39 297.63 246.65 303.3 254.66 313.39 248.34 315.56 237.57 315.46 236.3 309.53 231.04 309.27 228.92 311.64 214.97 309.96 198.57 316.94 194.01 313.13 185.41 295.54 162.53 296.83 161.12 304.99 151.6 303.13 149.41 305.53 139.11 301.71 113.22 309.15 110.25 323.34 124.07 322.38 133.24 327.92 119.42 325.64 115.72 327.56 130.03 334.82 129.18 339.28 111.87 340 111.82 342.88 119.71 344.69 125.33 355.67 125.04 359 133.39 359.45 134.51 355.75 145.84 361.77 160.46 364.1 175.28 377.12 189.44 384.46 203.43 387.76 198.61 397.94 213.5 400.45 213.5 406.49 210.88 409.36 217.59 410.63 222.85 414.73 215.57 423.47 215.44 428.72 228 449.85 256.97 464.81 254.61 471.31 242.09 463.65 237.1 466.73 260.9 480.55 257.97 491.49 254.03 489.49 245.81 479.12 245.29 486.78 250.3 490.55 251.85 503.22 271.74 518.6 273.33 527 275.54 538.7 274.05 541.17 269.23 524.5 258.13 517.03 256.92 511.18 254.54 512.09 253.49 520.45 246.42 568.7 251.87 561.93 258.64 570.13 258.13 573.5 250.38 573.5 246.5 578.03 246.42 581.87 234.2 633.88 230.89 639.11 224.77 646.44 215.5 648.36 215.5 652.26 234.5 658.5 233.84 665.13 231.04 666.66 236.97 673.12 239.1 668.21 257.55 678.05 261.93 678.09 262.15 678.09 264.85 678.12 264.85 678.12 264.85 678.12 265.29 682.7 271.78 688.38 272.43 688.95 272.43 688.95 285.21 685.72 292.17 690.45 298.2 696.82 307.25 693.79 313.14 698.21 319.34 696.63 331.08 697.8 331.48 686.98 340.13 689.97 349.83 693.91 353.5 700.5 361.46 700.5 366.6 704.36 377.98 703.12 383.54 711.99 390.51 714.23 390.54 717.94 396.64 720.62 400.44 716.85 405.03 716.82 416.36 724.5 424.45 724.5 433.49 715.02 440.28 713.45 443.66 716.23 447.73 717.47 447.76 711.66 443.72 707.51 442.71 689.13 442.94 676.43 438.14 673.29 439.92 670.42 444.13 673.53 449.45 666.88 485.9 644.3 489.98 644.63 492.24 649.19 499.95 649.15 516.09 650.27 513.15 654.33 523.38 658.32 529.18 656.51 526.61 651.62 532.05 652.37 535.77 656.6 549.94 656.15 552.13 664.02 566.53 667.98 572.68 674.39 580.07 670.71 588.13 671.54 598.05 670.24 612.76 662.21 611.73 655.68 624.09 644.82 632.48 639.22 632.74 632.42 637.79 632.04 650.33 623.39 650.34 623.38 650.86 612.22 655.71 610.72"/><polygon id="Luxembourg" class="cls-3" points="588.25 248.2 586.9 241.29 573.87 236.42 567.54 228.7 569.87 221.18 564.74 218.19 553.51 237.09 559.9 253.9 560.37 256.56 556.44 258.87 563.14 263.79 572.02 261.39 575.47 261.2 581.37 263.62 580.33 259.38 588.25 248.2"/><polygon id="Royaume-Uni" class="cls-4" points="208.03 6.52 198.13 8.92 168.13 11.1 154.89 24.47 139.33 36.24 143.07 38.2 161.85 33.62 164.17 58.33 159.65 74.5 122.91 84.24 110.45 93.36 112.36 104.38 121.41 112.78 144.33 106.57 150.49 119.76 167.57 116.2 171.4 126.14 192.24 131.72 199.84 124.17 225.49 112.31 203.41 131.72 198.88 144.44 174.43 141.66 149.67 142.32 134.62 159.42 110.11 187.48 81.94 203.69 103.47 213.7 122.76 194.27 142.64 195.13 167.16 208.94 179.94 184.5 206.39 184.5 213.8 186.67 232.97 183.08 265.99 175.38 284.22 178.83 328.19 183.11 356.65 171.91 375.74 157.43 378.8 141.93 352.57 143.31 335.97 137.42 357 129.97 359.29 120.11 369.4 114.66 385.12 98.45 387.35 86.82 392.28 64.09 377.27 46.61 358.09 43.52 346 41.13 339.03 53.6 328.88 45.8 324.32 45.61 339.17 28.63 334.12 14.96 323.93 0.5 208.23 0.5 208.03 6.52"/><polygon id="Irlande" class="cls-5" points="0.5 78.02 18.01 71.28 41.65 68.37 52.71 64.45 71.25 68.9 90.02 24.95 90.91 9.23 87.53 5.72 84.47 0.5 0.5 0.5 0.5 78.02"/><polygon id="Espagne" class="cls-6" points="440.28 713.43 433.49 715.02 424.45 724.5 416.36 724.5 405.03 716.82 400.44 716.86 396.64 720.63 390.54 717.95 390.51 714.23 383.28 711.69 371.52 715.72 366.54 708.95 366.6 704.36 361.46 700.5 353.5 700.5 349.83 693.91 340.13 689.99 331.48 686.99 331.08 697.8 319.34 696.66 313.14 698.23 307.25 693.8 298.2 696.82 292.18 690.47 285.22 685.72 272.44 688.73 272.43 688.5 272.43 688.5 271.78 688.16 265.29 682.59 264.85 678.06 264.85 678.06 262.15 678.06 261.93 678.08 257.55 678.04 239.09 668.21 236.96 673.12 231.03 666.65 233.81 665.13 234.5 658.5 215.5 652.26 215.5 648.36 202.44 652.02 185.53 648.78 170.98 640.68 158.18 648.2 139.71 636.99 122.17 633.3 105.7 638.26 62.26 630.89 46.67 622.54 22.78 618.04 0.5 617.66 0.5 800.5 367.58 800.5 390.5 793.18 449.86 752 446.1 731.43 453.46 728.97 447.73 717.47 443.66 716.22 440.28 713.43"/><polygon id="Allemagne" class="cls-6" points="605.78 21.55 605.78 21.55 603.45 56.23 602.51 57.48 600.02 60.79 599.76 60.78 599.74 60.8 590.16 60.18 587.34 70.91 598.54 71.48 598.92 73.14 601.87 86.19 588.46 97.42 592.88 105.88 576.45 112.78 576.45 112.78 576.45 112.78 567.65 108.85 559.81 113.37 575.03 139.98 573.55 143.74 572.05 147.56 566.03 162.82 566.6 174.86 566.6 174.86 563.78 181.9 573.82 192.72 573.82 192.72 573.55 193.42 572.15 197.04 577.83 200.69 579.88 208.08 569.87 221.18 567.54 228.7 573.87 236.42 586.9 241.29 588.25 248.2 580.33 259.38 581.37 263.62 589.31 266.88 596.54 282.2 600.56 281.79 601.54 278.84 605.64 278.79 611.93 283.63 619.36 283.48 622.46 280.67 628.1 280.86 635.09 287.54 648.12 286.82 660.45 291.93 649.8 308.94 644.09 313.02 641.27 335.35 635.44 346.48 637.79 356.55 632.84 374.24 637.16 381.07 634.69 388.73 637.3 384.54 654.76 383.76 665.32 378.66 676.22 381.16 677.16 378.92 677.3 378.59 683.1 376.33 675.65 374.54 673.61 372.6 679.49 367.22 685.54 366.09 691.1 371.01 697.38 374.02 704.86 372.53 715.24 373.68 730.12 378.23 732.13 374.58 747.5 386.99 747.5 389.34 747.5 392.85 761.16 382.83 761.94 374.32 768 374.19 768.5 374.19 768.5 0.5 603.79 0.5 594.82 12.77 595.03 13.09 605.78 21.55"/><polygon id="Italie" class="cls-6" points="768.5 423.05 753.01 436.43 750.76 454.56 717.02 450.66 694.75 473.35 681.73 465.31 680.85 451.47 665.94 465.23 669.45 470.35 656.35 488.27 645.51 484.64 633.87 490.74 623 492.15 621.2 491.63 618.97 489.63 618.84 491.5 611.36 494.5 609.61 496.53 628.44 521.14 628.44 521.14 628.44 521.14 625.72 531.84 615.81 539.43 604.41 540.56 611.06 553.61 621.98 556.28 625.85 565.05 625.85 565.05 621.7 568.9 621.98 569.2 622.14 575.64 618.23 579.47 617.23 580.45 618.44 588.36 637.6 601.6 654.48 597.78 655.71 610.72 655.71 610.72 650.86 612.22 650.34 623.38 657.04 625.44 675.55 618.43 691.1 593.5 703.66 581.22 730.87 587.39 767.09 602.83 768.5 604.34 768.5 423.05"/><polygon id="Autriche" class="cls-2" points="761.88 374.32 761.16 382.83 747.5 392.85 747.5 389.34 747.5 386.99 732.13 374.58 730.18 378.23 715.23 373.68 723.8 380.4 728.06 383.61 729.84 388.96 724.18 398.94 737.66 400.99 741.13 413.59 749.87 422.21 760.14 414.5 767.54 414.5 768.5 414.5 768.5 374.19 768.01 374.19 761.88 374.32"/><polygon id="Liechtenstein" class="cls-2" points="741.13 413.59 737.66 400.99 724.18 398.94 726.69 410.62 741.13 413.59"/><polygon id="Pays-Bas" class="cls-6" points="490.95 144.68 503.78 138.27 513.05 141.15 524.4 138.27 531.4 150.34 540.13 149.06 540.13 149.06 540.13 149.06 556.53 157.09 551.23 182.82 563.78 181.9 563.78 181.9 563.78 181.9 563.78 181.9 566.6 174.86 566.6 174.86 566.03 162.82 572.05 147.56 573.55 143.74 575.03 139.98 559.81 113.37 567.65 108.85 567.65 108.85 576.45 112.78 576.45 112.78 592.88 105.88 588.46 97.42 601.87 86.19 598.92 73.14 598.54 71.48 587.34 70.91 590.16 60.18 590.17 60.17 599.76 60.78 600.02 60.79 602.51 57.48 603.45 56.23 605.78 21.55 605.78 21.55 595.03 13.24 594.82 13.07 594.36 12.72 591.24 10.31 581.52 11.04 560.38 14.52 539.48 22.98 534.51 35.59 518.04 48.29 515.06 43.52 509.3 42.49 501.09 84.24 487.17 104.32 471.73 121.17 458.69 134.26 462.72 141.68 479.23 145.55 490.95 144.68"/><polygon id="Belgique" class="cls-7" points="424.45 178.25 428.81 180.67 430.96 183.1 433.33 187.72 438.62 184.5 446.93 182.57 450.85 187.44 451.84 199.03 456.4 201.03 460.67 199.13 468.44 204.66 468.01 212.32 469.55 212.34 470.87 210.18 483.13 209.62 490.96 216.9 491.31 228.75 486.97 231.96 487.45 233.51 491.91 233.55 499.13 236.03 509.22 231.52 513.48 221.5 517.71 221.5 518.09 244.53 536.14 252.05 538.05 257.43 543.28 261.24 556.44 258.86 560.37 256.55 559.9 253.9 553.51 237.09 564.74 218.19 569.87 221.18 579.88 208.08 577.83 200.69 572.15 197.04 573.54 193.42 573.81 192.72 563.78 181.9 563.78 181.9 551.23 182.82 551.23 182.82 556.53 157.09 540.13 149.06 540.13 149.06 531.4 150.34 524.4 138.27 513.05 141.15 503.78 138.27 490.95 144.68 479.23 145.55 462.72 141.68 449.24 145.3 418.5 161.09 418.5 164.17 422.35 163.1 426.06 172.13 424.45 178.25"/><polygon id="Suisse" class="cls-8" points="760.14 414.5 749.87 422.21 741.13 413.48 726.69 410.57 724.18 398.94 729.84 388.96 728.05 383.61 723.8 380.4 715.24 373.68 704.86 372.53 697.38 374.02 691.1 371.01 685.54 366.09 679.49 367.22 673.61 372.6 675.65 374.53 683.1 376.32 677.3 378.59 677.16 378.9 676.22 381.13 665.32 378.66 654.76 383.76 637.3 384.32 634.34 388.5 633.95 388.5 630.63 392.01 621.98 392.07 619.49 388.49 618.88 388.83 614.38 389.81 617.5 397.12 617.5 397.13 617.5 397.13 617.36 397.13 617.3 397.13 600.52 419.01 599.11 420.83 590.55 424.84 591.55 435.5 591.55 435.5 591.54 435.5 577.71 449.49 576.54 458.77 581.32 460.48 578.5 469.27 571.94 471.29 572.01 475.51 579.11 475.6 586.38 470.18 583.78 466.24 583.78 466.24 583.78 466.24 587.94 460.62 590.63 462.48 607.08 458.55 611.15 468.65 611.15 468.65 611.15 468.65 608.72 471.25 619.33 484.48 619.1 488.67 618.97 489.63 621.2 491.63 623 492.15 633.87 490.74 645.5 484.64 656.35 488.27 656.35 488.27 669.43 470.35 665.93 465.23 680.84 451.47 681.73 465.31 694.72 473.35 716.96 450.66 750.7 454.56 753.01 436.43 768.5 423.05 768.5 414.5 767.54 414.5 760.14 414.5"/><polygon id="France-2" data-name="France" class="cls-2" points="732.13 654.34 724.87 654.57 722.41 659.97 708.14 665.52 702.98 678.41 701.21 680.81 707.09 684.58 707.32 686.32 701.6 687.61 703.09 694.85 709.62 696.86 710.04 700.82 705.62 705.37 706.22 709.3 712.68 709.88 714.3 714 709.88 719.85 721.45 721.69 714.84 728.9 720.94 733.75 730.51 736.67 733.27 739.85 738.81 741.36 743.98 725.85 745.17 714.47 744.49 708.02 744.41 701.54 749.72 694.15 749.83 681.89 747.7 677.7 747.14 664.56 742.8 659.93 742.41 651.81 743.78 648.1 741.03 637.35 739.04 633.82 734.86 637.09 736.75 650.24 735.37 656.12 732.13 654.34"/><polygon id="Andorre" class="cls-9" points="371.52 715.71 383.28 711.69 377.98 703.11 366.6 704.33 366.54 708.95 371.52 715.71"/><polygon id="Monaco" class="cls-4" points="632.48 639.22 632.48 639.22 641.42 639.48 637.79 632.04 632.74 632.42 632.48 639.22"/><rect class="cls-10" x="0.5" y="411.53" width="185.5" height="159.94"/><path d="M18.66,429.46h3.79a5.1,5.1,0,0,1,2,.38A4.25,4.25,0,0,1,26,430.9a4.59,4.59,0,0,1,1,1.64,6.13,6.13,0,0,1,.35,2.1,6.2,6.2,0,0,1-.35,2.12,4.59,4.59,0,0,1-1,1.64,4.35,4.35,0,0,1-1.53,1.05,5.1,5.1,0,0,1-2,.37H18.66Zm3.79,9a3,3,0,0,0,1.29-.27,2.75,2.75,0,0,0,1-.78,3.65,3.65,0,0,0,.66-1.2,4.84,4.84,0,0,0,.24-1.57,4.71,4.71,0,0,0-.24-1.55,3.65,3.65,0,0,0-.66-1.2,3,3,0,0,0-1-.79,3,3,0,0,0-1.3-.28H20.29v7.64Z"/><path d="M35.76,437.26a3.08,3.08,0,0,1-.28,1.09,2.6,2.6,0,0,1-.66.85,3.18,3.18,0,0,1-1,.56,4.05,4.05,0,0,1-1.31.2,4,4,0,0,1-1.59-.28,2.82,2.82,0,0,1-1.09-.79,3.31,3.31,0,0,1-.64-1.22,6.07,6.07,0,0,1-.2-1.59,5.25,5.25,0,0,1,.22-1.58,3.29,3.29,0,0,1,.65-1.23,3.07,3.07,0,0,1,1.1-.8,3.94,3.94,0,0,1,1.53-.28,3.81,3.81,0,0,1,1.51.27,2.61,2.61,0,0,1,1,.77,3.22,3.22,0,0,1,.58,1.22,6.69,6.69,0,0,1,.18,1.62v.24H30.49a2.94,2.94,0,0,0,.54,1.84,1.73,1.73,0,0,0,1.39.61,2,2,0,0,0,1.27-.39,1.55,1.55,0,0,0,.58-1.11Zm-1.47-1.93a2.25,2.25,0,0,0-.49-1.41,1.6,1.6,0,0,0-1.32-.55,1.89,1.89,0,0,0-1.35.48,2.36,2.36,0,0,0-.61,1.48Zm-1-5.87H35.1l-2.08,2H31.85Z"/><path d="M37.88,432.33h1.49v1.16h0a3,3,0,0,1,.92-.94,2.74,2.74,0,0,1,1.49-.36,3,3,0,0,1,1.39.3,2.68,2.68,0,0,1,1,.8,3.58,3.58,0,0,1,.61,1.22,6.12,6.12,0,0,1,0,3.14,3.91,3.91,0,0,1-.63,1.24,2.66,2.66,0,0,1-1,.79,3.12,3.12,0,0,1-1.36.28,2.65,2.65,0,0,1-1.46-.36,3,3,0,0,1-.94-1h0v3.93H37.88Zm3.51,6.49a1.84,1.84,0,0,0,1.52-.71,3.18,3.18,0,0,0,.56-2,3.29,3.29,0,0,0-.54-2,1.82,1.82,0,0,0-1.55-.72,1.7,1.7,0,0,0-1.54.73,3.65,3.65,0,0,0-.48,2,3.51,3.51,0,0,0,.49,2A1.74,1.74,0,0,0,41.39,438.82Z"/><path d="M51.29,438.77h0a2.79,2.79,0,0,1-1,.86,3.45,3.45,0,0,1-1.58.33,3,3,0,0,1-1-.16,2,2,0,0,1-.73-.42,1.71,1.71,0,0,1-.44-.63,2,2,0,0,1-.15-.77,2,2,0,0,1,.36-1.27,2.31,2.31,0,0,1,.92-.67,4.58,4.58,0,0,1,1.21-.33l1.24-.2.67-.12a1.61,1.61,0,0,0,.38-.14.42.42,0,0,0,.18-.22,1.32,1.32,0,0,0,0-.32,1.27,1.27,0,0,0-.39-1,1.64,1.64,0,0,0-1.15-.37,1.85,1.85,0,0,0-1.17.33,1.48,1.48,0,0,0-.49,1.07H46.65a2.92,2.92,0,0,1,.84-1.9,3.18,3.18,0,0,1,2.27-.69,2.63,2.63,0,0,1,3,3v4.63H51.29Zm0-2.6a10.61,10.61,0,0,1-1.2.24,11.09,11.09,0,0,0-1.14.21,2.26,2.26,0,0,0-.84.39.85.85,0,0,0-.33.73.92.92,0,0,0,.37.78,1.49,1.49,0,0,0,1,.3,2.75,2.75,0,0,0,.88-.14,2.36,2.36,0,0,0,.69-.4,1.91,1.91,0,0,0,.45-.63,2,2,0,0,0,.16-.82Z"/><path d="M55.07,432.33h1.5v1.16h0a2.85,2.85,0,0,1,.86-.95,2.1,2.1,0,0,1,1.23-.35h.22l.21,0v1.56a1.77,1.77,0,0,0-.29-.07,2.07,2.07,0,0,0-.35,0,1.88,1.88,0,0,0-1.39.53,2.06,2.06,0,0,0-.52,1.5v4.1h-1.5Z"/><path d="M60.73,433.57h-1v-1.24h1V430.4h1.49v1.93H64v1.24H62.22v3.93a1.1,1.1,0,0,0,.27.83,1.13,1.13,0,0,0,.8.26l.35,0,.38-.05v1.33l-.46.07a3,3,0,0,1-.54,0,2.38,2.38,0,0,1-1.68-.56,2.35,2.35,0,0,1-.61-1.82Z"/><path d="M66.57,437.38a1.4,1.4,0,0,0,.56,1.14,2.25,2.25,0,0,0,1.23.31,1.8,1.8,0,0,0,1-.25.87.87,0,0,0,.36-.76.74.74,0,0,0-.32-.66,2.7,2.7,0,0,0-.82-.35l-1.06-.24a5.23,5.23,0,0,1-1.06-.33,2.23,2.23,0,0,1-.82-.64,1.79,1.79,0,0,1-.32-1.15,2.17,2.17,0,0,1,.17-.89,1.88,1.88,0,0,1,.53-.72,2.41,2.41,0,0,1,.87-.47,3.8,3.8,0,0,1,1.23-.18,3.19,3.19,0,0,1,2.13.65,2.48,2.48,0,0,1,.82,1.89H69.66a1.45,1.45,0,0,0-.44-1.06,1.6,1.6,0,0,0-1.06-.33,2.22,2.22,0,0,0-.62.08,1,1,0,0,0-.4.23.84.84,0,0,0-.21.33,1.24,1.24,0,0,0-.06.37.69.69,0,0,0,.33.62,3,3,0,0,0,.81.34c.32.09.67.17,1.06.25a4.8,4.8,0,0,1,1.05.35,2.22,2.22,0,0,1,.81.65,1.88,1.88,0,0,1,.33,1.16,2,2,0,0,1-.73,1.63,3.35,3.35,0,0,1-2.19.61,3.85,3.85,0,0,1-2.32-.62,2.46,2.46,0,0,1-.9-2Z"/><path d="M83.7,437.26a3.08,3.08,0,0,1-.28,1.09,2.6,2.6,0,0,1-.66.85,3.18,3.18,0,0,1-1,.56,4.05,4.05,0,0,1-1.31.2,4,4,0,0,1-1.59-.28,2.82,2.82,0,0,1-1.09-.79,3.31,3.31,0,0,1-.64-1.22,6.07,6.07,0,0,1-.2-1.59,5.25,5.25,0,0,1,.22-1.58,3.29,3.29,0,0,1,.65-1.23,3.07,3.07,0,0,1,1.1-.8,3.94,3.94,0,0,1,1.53-.28,3.81,3.81,0,0,1,1.51.27,2.61,2.61,0,0,1,1,.77,3.22,3.22,0,0,1,.58,1.22,6.69,6.69,0,0,1,.18,1.62v.24H78.43a2.94,2.94,0,0,0,.54,1.84,1.73,1.73,0,0,0,1.39.61,2,2,0,0,0,1.28-.39,1.58,1.58,0,0,0,.57-1.11Zm-1.47-1.93a2.25,2.25,0,0,0-.49-1.41,1.6,1.6,0,0,0-1.32-.55,1.85,1.85,0,0,0-1.34.48,2.31,2.31,0,0,0-.62,1.48Z"/><path d="M85.86,433.57h-1v-1.24h1V430.4h1.49v1.93H89.1v1.24H87.35v3.93a.94.94,0,0,0,1.07,1.09l.35,0,.38-.05v1.33l-.46.07a3,3,0,0,1-.54,0,2.43,2.43,0,0,1-1.69-.56,2.39,2.39,0,0,1-.6-1.82Z"/><path d="M99.28,438.77h0a2.79,2.79,0,0,1-1,.86,3.46,3.46,0,0,1-1.59.33,3,3,0,0,1-1-.16,2,2,0,0,1-.73-.42,1.6,1.6,0,0,1-.44-.63,2,2,0,0,1-.15-.77,2,2,0,0,1,.36-1.27,2.31,2.31,0,0,1,.92-.67,4.58,4.58,0,0,1,1.21-.33l1.23-.2.67-.12a1.55,1.55,0,0,0,.39-.14.36.36,0,0,0,.17-.22.93.93,0,0,0,0-.32,1.27,1.27,0,0,0-.39-1,1.64,1.64,0,0,0-1.15-.37,1.85,1.85,0,0,0-1.17.33,1.48,1.48,0,0,0-.49,1.07H94.64a2.92,2.92,0,0,1,.84-1.9,3.16,3.16,0,0,1,2.27-.69,2.63,2.63,0,0,1,3,3v4.63H99.28Zm0-2.6a10.61,10.61,0,0,1-1.2.24,11.09,11.09,0,0,0-1.14.21,2.31,2.31,0,0,0-.85.39.84.84,0,0,0-.32.73.92.92,0,0,0,.37.78,1.49,1.49,0,0,0,1,.3,2.65,2.65,0,0,0,.87-.14,2.12,2.12,0,0,0,.69-.4,1.8,1.8,0,0,0,.46-.63,2,2,0,0,0,.16-.82Z"/><path d="M103.06,432.33h1.5v1.16h0a2.85,2.85,0,0,1,.86-.95,2.1,2.1,0,0,1,1.23-.35h.21l.22,0v1.56a1.77,1.77,0,0,0-.29-.07,2.07,2.07,0,0,0-.35,0,1.88,1.88,0,0,0-1.39.53,2.06,2.06,0,0,0-.52,1.5v4.1h-1.5Z"/><path d="M108.67,432.33h1.5v1.16h0a2.85,2.85,0,0,1,.86-.95,2.1,2.1,0,0,1,1.23-.35h.22l.21,0v1.56a1.77,1.77,0,0,0-.29-.07,2.07,2.07,0,0,0-.35,0,1.88,1.88,0,0,0-1.39.53,2.1,2.1,0,0,0-.52,1.5v4.1h-1.5Z"/><path d="M115,431a.92.92,0,0,1-1-.95,1,1,0,0,1,.25-.7.94.94,0,0,1,.7-.27.94.94,0,0,1,1,1,.91.91,0,0,1-.28.67A.94.94,0,0,1,115,431Zm-.74,1.31h1.49v7.49h-1.49Z"/><path d="M117.23,432.33h1.6l2,5.78,2-5.78h1.57l-2.87,7.49H120.1Z"/><path d="M132.2,437.26a2.88,2.88,0,0,1-.28,1.09,2.6,2.6,0,0,1-.66.85,3.13,3.13,0,0,1-1,.56,4.07,4.07,0,0,1-1.32.2,4,4,0,0,1-1.58-.28,2.82,2.82,0,0,1-1.09-.79,3.31,3.31,0,0,1-.64-1.22,6.07,6.07,0,0,1-.2-1.59,5.25,5.25,0,0,1,.22-1.58,3.29,3.29,0,0,1,.65-1.23,3,3,0,0,1,1.1-.8,3.94,3.94,0,0,1,1.53-.28,3.72,3.72,0,0,1,1.5.27,2.57,2.57,0,0,1,1,.77,3.22,3.22,0,0,1,.58,1.22,6.69,6.69,0,0,1,.18,1.62v.24h-5.28a2.94,2.94,0,0,0,.54,1.84,1.73,1.73,0,0,0,1.39.61,2,2,0,0,0,1.27-.39,1.55,1.55,0,0,0,.58-1.11Zm-1.47-1.93a2.18,2.18,0,0,0-.48-1.41,1.6,1.6,0,0,0-1.32-.55,1.89,1.89,0,0,0-1.35.48,2.36,2.36,0,0,0-.61,1.48Zm-1-5.87h1.83l-2.08,2h-1.18Z"/><path d="M140.64,437.26a3.08,3.08,0,0,1-.28,1.09,2.6,2.6,0,0,1-.66.85,3.13,3.13,0,0,1-1,.56,4.16,4.16,0,0,1-1.32.2,4,4,0,0,1-1.58-.28,2.85,2.85,0,0,1-1.1-.79,3.15,3.15,0,0,1-.63-1.22,5.67,5.67,0,0,1-.2-1.59,5.59,5.59,0,0,1,.21-1.58,3.17,3.17,0,0,1,.66-1.23,3,3,0,0,1,1.09-.8,4,4,0,0,1,1.54-.28,3.79,3.79,0,0,1,1.5.27,2.61,2.61,0,0,1,1,.77,3.08,3.08,0,0,1,.58,1.22,6.69,6.69,0,0,1,.18,1.62v.24h-5.27a2.88,2.88,0,0,0,.53,1.84,1.75,1.75,0,0,0,1.39.61,2,2,0,0,0,1.28-.39,1.59,1.59,0,0,0,.58-1.11Zm-1.47-1.93a2.3,2.3,0,0,0-.48-1.41,1.62,1.62,0,0,0-1.32-.55,1.87,1.87,0,0,0-1.35.48,2.36,2.36,0,0,0-.62,1.48Z"/><path d="M143.7,437.38a1.38,1.38,0,0,0,.56,1.14,2.2,2.2,0,0,0,1.23.31,1.78,1.78,0,0,0,1-.25.85.85,0,0,0,.37-.76.75.75,0,0,0-.33-.66,2.7,2.7,0,0,0-.82-.35l-1.05-.24a5,5,0,0,1-1.06-.33,2.15,2.15,0,0,1-.82-.64,1.79,1.79,0,0,1-.33-1.15,2.35,2.35,0,0,1,.17-.89,1.88,1.88,0,0,1,.53-.72,2.5,2.5,0,0,1,.87-.47,3.8,3.8,0,0,1,1.23-.18,3.22,3.22,0,0,1,2.14.65,2.44,2.44,0,0,1,.81,1.89h-1.45a1.41,1.41,0,0,0-.44-1.06,1.58,1.58,0,0,0-1.06-.33,2.1,2.1,0,0,0-.61.08,1,1,0,0,0-.4.23,1,1,0,0,0-.22.33,1.24,1.24,0,0,0-.06.37.69.69,0,0,0,.33.62,3,3,0,0,0,.81.34c.33.09.68.17,1.06.25a5.07,5.07,0,0,1,1.06.35,2.22,2.22,0,0,1,.81.65,1.88,1.88,0,0,1,.32,1.16,2,2,0,0,1-.73,1.63,3.35,3.35,0,0,1-2.19.61,3.8,3.8,0,0,1-2.31-.62,2.44,2.44,0,0,1-.91-2Z"/><path d="M23,456.77h0a2.79,2.79,0,0,1-1,.86,3.46,3.46,0,0,1-1.59.33,3,3,0,0,1-1-.16,2,2,0,0,1-.73-.42,1.6,1.6,0,0,1-.44-.63A2,2,0,0,1,18,456a2,2,0,0,1,.36-1.27,2.31,2.31,0,0,1,.92-.67,4.58,4.58,0,0,1,1.21-.33l1.23-.2.67-.12a1.55,1.55,0,0,0,.39-.14.36.36,0,0,0,.17-.22.93.93,0,0,0,.05-.32,1.27,1.27,0,0,0-.39-1,1.64,1.64,0,0,0-1.15-.37,1.85,1.85,0,0,0-1.17.33,1.48,1.48,0,0,0-.49,1.07H18.31a2.92,2.92,0,0,1,.84-1.9,3.16,3.16,0,0,1,2.27-.69,3.08,3.08,0,0,1,2.29.75,3.06,3.06,0,0,1,.73,2.25v4.63H23Zm-2.48-9.31,1.43,2H20.72l-2.07-2ZM23,454.17a10.61,10.61,0,0,1-1.2.24,11.09,11.09,0,0,0-1.14.21,2.31,2.31,0,0,0-.85.39.84.84,0,0,0-.32.73.92.92,0,0,0,.37.78,1.49,1.49,0,0,0,1,.3,2.65,2.65,0,0,0,.87-.14,2.12,2.12,0,0,0,.69-.4,1.8,1.8,0,0,0,.46-.63,2,2,0,0,0,.16-.82Z"/><path d="M30.89,447.46h1.5v10.36h-1.5Z"/><path d="M35.28,447.46h1.65l-1.78,3.66H34Z"/><path d="M44.79,455.26a3.08,3.08,0,0,1-.28,1.09,2.6,2.6,0,0,1-.66.85,3.18,3.18,0,0,1-1,.56,4.05,4.05,0,0,1-1.31.2,4,4,0,0,1-1.59-.28,2.82,2.82,0,0,1-1.09-.79,3.31,3.31,0,0,1-.64-1.22,6.07,6.07,0,0,1-.2-1.59,5.25,5.25,0,0,1,.22-1.58,3.29,3.29,0,0,1,.65-1.23,3.07,3.07,0,0,1,1.1-.8,3.94,3.94,0,0,1,1.53-.28,3.81,3.81,0,0,1,1.51.27,2.61,2.61,0,0,1,1,.77,3.22,3.22,0,0,1,.58,1.22,6.69,6.69,0,0,1,.18,1.62v.24H39.52a2.94,2.94,0,0,0,.54,1.84,1.73,1.73,0,0,0,1.39.61,2,2,0,0,0,1.28-.39,1.58,1.58,0,0,0,.57-1.11Zm-1.47-1.93a2.25,2.25,0,0,0-.49-1.41,1.6,1.6,0,0,0-1.32-.55,1.85,1.85,0,0,0-1.34.48,2.31,2.31,0,0,0-.62,1.48Zm-1-5.87h1.83l-2.08,2H40.88Z"/><path d="M47,451.57H45.9v-1.24H47V448.4h1.49v1.93h1.75v1.24H48.44v3.93a.94.94,0,0,0,1.07,1.09l.35,0,.38-.05v1.33l-.46.07a3,3,0,0,1-.54,0,2.43,2.43,0,0,1-1.69-.56,2.39,2.39,0,0,1-.6-1.82Z"/><path d="M51.85,450.33h1.5v1.16h0a2.85,2.85,0,0,1,.86-.95,2.1,2.1,0,0,1,1.23-.35h.22l.21,0v1.56a1.77,1.77,0,0,0-.29-.07,2.07,2.07,0,0,0-.35,0,1.88,1.88,0,0,0-1.39.53,2.06,2.06,0,0,0-.52,1.5v4.1h-1.5Z"/><path d="M61.82,456.77h0a2.79,2.79,0,0,1-1,.86,3.45,3.45,0,0,1-1.58.33,3,3,0,0,1-1-.16,2,2,0,0,1-.74-.42,1.84,1.84,0,0,1-.44-.63,2,2,0,0,1-.15-.77,1.92,1.92,0,0,1,.37-1.27,2.28,2.28,0,0,1,.91-.67,4.66,4.66,0,0,1,1.22-.33l1.23-.2.67-.12a1.55,1.55,0,0,0,.39-.14.46.46,0,0,0,.17-.22,1,1,0,0,0,0-.32,1.3,1.3,0,0,0-.38-1,1.66,1.66,0,0,0-1.16-.37,1.84,1.84,0,0,0-1.16.33,1.45,1.45,0,0,0-.49,1.07H57.19a3,3,0,0,1,.83-1.9,3.21,3.21,0,0,1,2.28-.69,2.64,2.64,0,0,1,3,3v4.63h-1.5Zm0-2.6a10.89,10.89,0,0,1-1.19.24,10.17,10.17,0,0,0-1.14.21,2.31,2.31,0,0,0-.85.39.85.85,0,0,0-.33.73,1,1,0,0,0,.37.78,1.49,1.49,0,0,0,1,.3,2.71,2.71,0,0,0,.88-.14,2.36,2.36,0,0,0,.69-.4,1.66,1.66,0,0,0,.45-.63,2,2,0,0,0,.16-.82Z"/><path d="M65.61,450.33h1.5v1.18h0a2.85,2.85,0,0,1,1-1,2.88,2.88,0,0,1,1.51-.35,2.23,2.23,0,0,1,1.89.72,3.19,3.19,0,0,1,.55,2v4.9H70.54v-4.49a2.42,2.42,0,0,0-.33-1.39,1.29,1.29,0,0,0-1.13-.46,1.9,1.9,0,0,0-1.44.55,2.06,2.06,0,0,0-.53,1.51v4.28h-1.5Z"/><path d="M81.15,450.33v1.19H79.73a2.35,2.35,0,0,1,.35.64,2.39,2.39,0,0,1,.12.79,2.89,2.89,0,0,1-.21,1.11,2.4,2.4,0,0,1-.57.86,2.86,2.86,0,0,1-.91.56,3.57,3.57,0,0,1-1.21.2,3.13,3.13,0,0,1-1.4-.3,1.92,1.92,0,0,0-.32.32.45.45,0,0,0-.13.32.36.36,0,0,0,.24.35,2,2,0,0,0,.65.17c.28,0,.58.06.92.07s.7,0,1,.05.71.07,1,.13a3.55,3.55,0,0,1,.92.3,1.67,1.67,0,0,1,.65.55,1.55,1.55,0,0,1,.24.89,2,2,0,0,1-.17.82,1.77,1.77,0,0,1-.6.69,3.49,3.49,0,0,1-1.16.48,8.67,8.67,0,0,1-1.86.17,8.77,8.77,0,0,1-1.67-.13,3.46,3.46,0,0,1-1.09-.37,1.45,1.45,0,0,1-.58-.54,1.26,1.26,0,0,1-.17-.67,1.52,1.52,0,0,1,.24-.86,2.28,2.28,0,0,1,.74-.65,1.48,1.48,0,0,1-.56-.41,1.05,1.05,0,0,1-.21-.67,1.32,1.32,0,0,1,.29-.84,2.34,2.34,0,0,1,.8-.63,2.63,2.63,0,0,1-.59-.86,2.88,2.88,0,0,1-.21-1.13,3,3,0,0,1,.2-1.11,2.51,2.51,0,0,1,.58-.87,2.68,2.68,0,0,1,.92-.56,3.57,3.57,0,0,1,1.21-.2,4.56,4.56,0,0,1,.54,0,2.4,2.4,0,0,1,.48.1Zm-1.42,8.39a.55.55,0,0,0-.39-.55,3.82,3.82,0,0,0-1-.23c-.4,0-.83-.07-1.3-.08a12.73,12.73,0,0,1-1.31-.12,1.86,1.86,0,0,0-.49.53.9.9,0,0,0-.12.42.82.82,0,0,0,.53.73,4.71,4.71,0,0,0,1.87.26,4.06,4.06,0,0,0,1.69-.25A.8.8,0,0,0,79.73,458.72Zm-2.45-4.09a1.51,1.51,0,0,0,1.14-.43,2.12,2.12,0,0,0,0-2.53,1.51,1.51,0,0,0-1.14-.43,1.44,1.44,0,0,0-1.11.43,2.16,2.16,0,0,0,0,2.53A1.44,1.44,0,0,0,77.28,454.63Z"/><path d="M89.34,455.26a3.08,3.08,0,0,1-.28,1.09,2.6,2.6,0,0,1-.66.85,3.18,3.18,0,0,1-1,.56,4.05,4.05,0,0,1-1.31.2,4,4,0,0,1-1.59-.28,2.82,2.82,0,0,1-1.09-.79,3.31,3.31,0,0,1-.64-1.22,6.07,6.07,0,0,1-.2-1.59,5.25,5.25,0,0,1,.22-1.58,3.29,3.29,0,0,1,.65-1.23,3.07,3.07,0,0,1,1.1-.8,3.94,3.94,0,0,1,1.53-.28,3.81,3.81,0,0,1,1.51.27,2.61,2.61,0,0,1,1,.77,3.22,3.22,0,0,1,.58,1.22,6.69,6.69,0,0,1,.18,1.62v.24H84.07a2.94,2.94,0,0,0,.54,1.84,1.73,1.73,0,0,0,1.39.61,2,2,0,0,0,1.27-.39,1.55,1.55,0,0,0,.58-1.11Zm-1.47-1.93a2.25,2.25,0,0,0-.49-1.41,1.6,1.6,0,0,0-1.32-.55,1.89,1.89,0,0,0-1.35.48,2.36,2.36,0,0,0-.61,1.48Z"/><path d="M91.46,450.33H93v1.16h0a2.85,2.85,0,0,1,.86-.95,2.1,2.1,0,0,1,1.23-.35h.22l.21,0v1.56a1.77,1.77,0,0,0-.29-.07,2.07,2.07,0,0,0-.35,0,1.88,1.88,0,0,0-1.39.53,2.1,2.1,0,0,0-.52,1.5v4.1H91.46Z"/><path d="M18.69,474.54H21V467.3l-2.25,1.44-.69-1.09,3.29-2.19h1.22v9.08h2v1.28h-5.9Z"/><path d="M27.59,472.68a2.52,2.52,0,0,0,.57,1.49,1.75,1.75,0,0,0,1.36.53,2.13,2.13,0,0,0,.88-.18,1.68,1.68,0,0,0,.71-.65,3.74,3.74,0,0,0,.49-1.29,10.74,10.74,0,0,0,.17-2.08,2.21,2.21,0,0,1-1,1.05,3.32,3.32,0,0,1-1.6.37,3.63,3.63,0,0,1-1.24-.21,2.8,2.8,0,0,1-1-.6,2.88,2.88,0,0,1-.69-1,3.47,3.47,0,0,1-.25-1.38,3.84,3.84,0,0,1,.24-1.4,2.93,2.93,0,0,1,.7-1.07,3,3,0,0,1,1.11-.69,4,4,0,0,1,1.46-.25,3.86,3.86,0,0,1,1.55.3,2.76,2.76,0,0,1,1.17.93,4.5,4.5,0,0,1,.73,1.62,9.58,9.58,0,0,1,.26,2.37,7.12,7.12,0,0,1-1,4.09A3.24,3.24,0,0,1,29.42,476a3.35,3.35,0,0,1-2.41-.85,3.42,3.42,0,0,1-1-2.43Zm1.89-2a1.85,1.85,0,0,0,1.41-.55,1.93,1.93,0,0,0,.53-1.43,2.28,2.28,0,0,0-.14-.84,2.08,2.08,0,0,0-.39-.68,1.75,1.75,0,0,0-.63-.44,1.92,1.92,0,0,0-.81-.16,2,2,0,0,0-.79.15,1.92,1.92,0,0,0-.62.43,2,2,0,0,0-.39.66,2.27,2.27,0,0,0-.15.83A2,2,0,0,0,28,470.1,1.86,1.86,0,0,0,29.48,470.67Z"/><path d="M37.72,476a3.44,3.44,0,0,1-1.44-.3,3.07,3.07,0,0,1-1.16-1,4.88,4.88,0,0,1-.79-1.65,10.6,10.6,0,0,1,0-4.84,5,5,0,0,1,.79-1.65,3.07,3.07,0,0,1,1.16-.95,3.44,3.44,0,0,1,1.44-.3,3.49,3.49,0,0,1,1.43.3,3.18,3.18,0,0,1,1.17.95,4.78,4.78,0,0,1,.78,1.65,10.24,10.24,0,0,1,0,4.84,4.69,4.69,0,0,1-.78,1.65,3.18,3.18,0,0,1-1.17,1A3.49,3.49,0,0,1,37.72,476Zm0-1.27a1.78,1.78,0,0,0,.78-.18,1.66,1.66,0,0,0,.67-.65,4.09,4.09,0,0,0,.46-1.24,9.92,9.92,0,0,0,.17-2,9.74,9.74,0,0,0-.17-2,4.26,4.26,0,0,0-.46-1.25,1.69,1.69,0,0,0-.67-.64,1.79,1.79,0,0,0-.78-.19,1.85,1.85,0,0,0-.8.19,1.76,1.76,0,0,0-.67.64,4,4,0,0,0-.45,1.25,9.74,9.74,0,0,0-.17,2,9.92,9.92,0,0,0,.17,2,3.85,3.85,0,0,0,.45,1.24,1.72,1.72,0,0,0,.67.65A1.84,1.84,0,0,0,37.72,474.69Z"/><path d="M43.66,472.52a2.4,2.4,0,0,0,.69,1.64,2.25,2.25,0,0,0,1.59.54,2.14,2.14,0,0,0,1.48-.47,1.69,1.69,0,0,0,.51-1.31,1.71,1.71,0,0,0-1.82-1.83H44.72v-1.23h1a1.58,1.58,0,0,0,1.24-.48,1.78,1.78,0,0,0,0-2.33,1.59,1.59,0,0,0-1.23-.47,1.66,1.66,0,0,0-1.3.53,2.55,2.55,0,0,0-.54,1.51H42.35a3.36,3.36,0,0,1,1-2.45,3.49,3.49,0,0,1,2.48-.85,4.2,4.2,0,0,1,1.34.2,3,3,0,0,1,1,.54,2.35,2.35,0,0,1,.61.82,2.67,2.67,0,0,1,.21,1.06,2.46,2.46,0,0,1-.34,1.33,2.73,2.73,0,0,1-1,.93,2.8,2.8,0,0,1,1.33,1,2.86,2.86,0,0,1,.47,1.68,3.35,3.35,0,0,1-.23,1.25,2.65,2.65,0,0,1-.7,1,3.27,3.27,0,0,1-1.14.61,5.07,5.07,0,0,1-1.58.22,4.69,4.69,0,0,1-1.63-.25,3,3,0,0,1-1.12-.7,3.12,3.12,0,0,1-.67-1.09,4.71,4.71,0,0,1-.26-1.4Z"/><path d="M54.75,470.71h5.61v1.22H54.75Z"/><path d="M66,474.56q1.16-1.14,2.1-2T69.65,471a7.23,7.23,0,0,0,1-1.34A2.68,2.68,0,0,0,71,468.3a1.76,1.76,0,0,0-.43-1.23,1.61,1.61,0,0,0-1.26-.48,1.82,1.82,0,0,0-1.36.53,2.43,2.43,0,0,0-.59,1.57H65.81a4.23,4.23,0,0,1,.3-1.39,3.4,3.4,0,0,1,.71-1.06,3.21,3.21,0,0,1,1.07-.68,3.93,3.93,0,0,1,1.41-.24,4.27,4.27,0,0,1,1.46.22,2.6,2.6,0,0,1,1,.61,2.29,2.29,0,0,1,.61.94,3.5,3.5,0,0,1,.2,1.19,3.33,3.33,0,0,1-.38,1.56,7.75,7.75,0,0,1-1,1.46,21,21,0,0,1-1.49,1.5c-.56.52-1.15,1.09-1.75,1.72h4.71v1.29H66Z"/><path d="M77.41,476a3.43,3.43,0,0,1-1.43-.3,3.07,3.07,0,0,1-1.16-1,4.53,4.53,0,0,1-.79-1.65,10.24,10.24,0,0,1,0-4.84,4.61,4.61,0,0,1,.79-1.65,3.07,3.07,0,0,1,1.16-.95,3.56,3.56,0,0,1,2.86,0,3,3,0,0,1,1.17.95,4.79,4.79,0,0,1,.79,1.65,10.6,10.6,0,0,1,0,4.84,4.7,4.7,0,0,1-.79,1.65,3,3,0,0,1-1.17,1A3.43,3.43,0,0,1,77.41,476Zm0-1.27a1.86,1.86,0,0,0,.79-.18,1.64,1.64,0,0,0,.66-.65,3.84,3.84,0,0,0,.46-1.24,9.16,9.16,0,0,0,.18-2,9,9,0,0,0-.18-2,4,4,0,0,0-.46-1.25,1.67,1.67,0,0,0-.66-.64,1.87,1.87,0,0,0-.79-.19,1.84,1.84,0,0,0-.79.19,1.63,1.63,0,0,0-.67.64,4,4,0,0,0-.45,1.25,9.07,9.07,0,0,0-.17,2,9.23,9.23,0,0,0,.17,2,3.85,3.85,0,0,0,.45,1.24,1.6,1.6,0,0,0,.67.65A1.82,1.82,0,0,0,77.41,474.69Z"/><path d="M82.77,474.54h2.31V467.3l-2.25,1.44-.69-1.09,3.29-2.19h1.22v9.08h2v1.28h-5.9Z"/><path d="M91.67,472.68a2.52,2.52,0,0,0,.57,1.49,1.75,1.75,0,0,0,1.36.53,2.13,2.13,0,0,0,.88-.18,1.68,1.68,0,0,0,.71-.65,3.74,3.74,0,0,0,.49-1.29,10.74,10.74,0,0,0,.17-2.08,2.21,2.21,0,0,1-1,1.05,3.32,3.32,0,0,1-1.6.37,3.63,3.63,0,0,1-1.24-.21,2.8,2.8,0,0,1-1-.6,2.88,2.88,0,0,1-.69-1,3.47,3.47,0,0,1-.25-1.38,3.84,3.84,0,0,1,.24-1.4,2.93,2.93,0,0,1,.7-1.07,3,3,0,0,1,1.11-.69,4,4,0,0,1,1.46-.25,3.86,3.86,0,0,1,1.55.3,2.76,2.76,0,0,1,1.17.93,4.5,4.5,0,0,1,.73,1.62,9.58,9.58,0,0,1,.26,2.37,7.12,7.12,0,0,1-1,4.09A3.24,3.24,0,0,1,93.5,476a3.35,3.35,0,0,1-2.41-.85,3.42,3.42,0,0,1-1-2.43Zm1.89-2a1.85,1.85,0,0,0,1.41-.55,1.93,1.93,0,0,0,.53-1.43,2.28,2.28,0,0,0-.14-.84,2.08,2.08,0,0,0-.39-.68,1.75,1.75,0,0,0-.63-.44,1.92,1.92,0,0,0-.81-.16,2,2,0,0,0-.79.15,1.92,1.92,0,0,0-.62.43,2,2,0,0,0-.39.66,2.27,2.27,0,0,0-.15.83,2,2,0,0,0,.54,1.46A1.86,1.86,0,0,0,93.56,470.67Z"/><path d="M35.91,507.12h1.65V502L36,503l-.49-.78,2.35-1.57h.87v6.49h1.44V508H35.91Z"/><path d="M44.25,504.38h4v.88h-4Z"/><path d="M52.65,507.12H54.3V502l-1.61,1-.49-.78,2.35-1.57h.87v6.49h1.44V508H52.65Z"/><path d="M60.44,508.13a2.53,2.53,0,0,1-1-.21,2.28,2.28,0,0,1-.83-.67,3.7,3.7,0,0,1-.56-1.18,6.28,6.28,0,0,1-.2-1.73,6.18,6.18,0,0,1,.2-1.73,3.5,3.5,0,0,1,.56-1.18,2.31,2.31,0,0,1,.83-.68,2.61,2.61,0,0,1,2.05,0,2.16,2.16,0,0,1,.83.68,3.33,3.33,0,0,1,.57,1.18,6.58,6.58,0,0,1,.2,1.73,6.69,6.69,0,0,1-.2,1.73,3.51,3.51,0,0,1-.57,1.18,2.13,2.13,0,0,1-.83.67A2.52,2.52,0,0,1,60.44,508.13Zm0-.9a1.39,1.39,0,0,0,.56-.13,1.15,1.15,0,0,0,.47-.46,2.77,2.77,0,0,0,.33-.89,6.26,6.26,0,0,0,.13-1.41,6.15,6.15,0,0,0-.13-1.41,2.68,2.68,0,0,0-.33-.89,1.15,1.15,0,0,0-.47-.46,1.21,1.21,0,0,0-1.61.46,2.93,2.93,0,0,0-.32.89,6.85,6.85,0,0,0-.12,1.41,7,7,0,0,0,.12,1.41,3,3,0,0,0,.32.89,1.23,1.23,0,0,0,.48.46A1.4,1.4,0,0,0,60.44,507.23Z"/><path d="M35.91,528.57h1.65V523.4l-1.61,1-.49-.79,2.35-1.56h.87v6.49h1.44v.91H35.91Z"/><path d="M41.71,528.57h1.65V523.4l-1.6,1-.5-.79,2.36-1.56h.87v6.49h1.44v.91H41.71Z"/><path d="M50.06,525.83h4v.88h-4Z"/><path d="M58.06,528.59q.82-.83,1.5-1.44c.44-.42.82-.79,1.14-1.13a5.87,5.87,0,0,0,.72-1,1.88,1.88,0,0,0,.26-.94,1.29,1.29,0,0,0-.31-.88,1.19,1.19,0,0,0-.9-.34,1.3,1.3,0,0,0-1,.38,1.66,1.66,0,0,0-.42,1.12H58a3,3,0,0,1,.21-1,2.26,2.26,0,0,1,.51-.76,2.14,2.14,0,0,1,.76-.48,2.67,2.67,0,0,1,1-.18,3.25,3.25,0,0,1,1,.16,2,2,0,0,1,.73.43,1.78,1.78,0,0,1,.44.67,2.61,2.61,0,0,1,.14.85,2.27,2.27,0,0,1-.28,1.12,4.87,4.87,0,0,1-.74,1c-.31.35-.66.71-1.06,1.08s-.82.78-1.25,1.23h3.37v.91H58.06Z"/><path d="M66.24,529.58a2.48,2.48,0,0,1-1-.21,2.23,2.23,0,0,1-.83-.68,3.24,3.24,0,0,1-.56-1.18,7.23,7.23,0,0,1,0-3.46,3.32,3.32,0,0,1,.56-1.18,2.2,2.2,0,0,1,.83-.67,2.47,2.47,0,0,1,2,0,2.23,2.23,0,0,1,.84.67,3.5,3.5,0,0,1,.56,1.18,7.23,7.23,0,0,1,0,3.46,3.41,3.41,0,0,1-.56,1.18,2.26,2.26,0,0,1-.84.68A2.48,2.48,0,0,1,66.24,529.58Zm0-.91a1.21,1.21,0,0,0,.56-.13,1.2,1.2,0,0,0,.48-.45,2.74,2.74,0,0,0,.33-.9,8.29,8.29,0,0,0,0-2.81,2.68,2.68,0,0,0-.33-.89,1.26,1.26,0,0,0-.48-.47,1.35,1.35,0,0,0-.56-.13,1.44,1.44,0,0,0-.57.13,1.24,1.24,0,0,0-.47.47,2.68,2.68,0,0,0-.33.89,8.29,8.29,0,0,0,0,2.81,2.74,2.74,0,0,0,.33.9,1.18,1.18,0,0,0,.47.45A1.28,1.28,0,0,0,66.24,528.67Z"/><path d="M35.51,549.69q.83-.83,1.5-1.44c.45-.41.83-.79,1.14-1.13a5.44,5.44,0,0,0,.72-1,1.93,1.93,0,0,0,.26-.94,1.23,1.23,0,0,0-.31-.88,1.15,1.15,0,0,0-.9-.34,1.29,1.29,0,0,0-1,.37,1.68,1.68,0,0,0-.42,1.12H35.41a3,3,0,0,1,.21-1,2.49,2.49,0,0,1,.51-.75,2.31,2.31,0,0,1,.76-.49,2.89,2.89,0,0,1,1-.17,3.22,3.22,0,0,1,1,.15,2,2,0,0,1,.73.44,1.67,1.67,0,0,1,.44.67,2.57,2.57,0,0,1,.14.85,2.3,2.3,0,0,1-.28,1.12,4.77,4.77,0,0,1-.74,1c-.31.35-.66.7-1.06,1.07s-.82.78-1.25,1.23h3.37v.92H35.51Z"/><path d="M41.71,549.67h1.65V544.5l-1.6,1-.5-.78,2.36-1.56h.87v6.48h1.44v.92H41.71Z"/><path d="M50.06,546.94h4v.87h-4Z"/><path d="M57.75,547.89l3-4.7H62V548h1.07v.93H62v1.68H60.93v-1.68H57.75Zm3.18.09v-3.46L58.68,548Z"/><path d="M66.24,550.69a2.34,2.34,0,0,1-1-.22,2.2,2.2,0,0,1-.83-.67,3.32,3.32,0,0,1-.56-1.18,7.23,7.23,0,0,1,0-3.46,3.24,3.24,0,0,1,.56-1.18,2.23,2.23,0,0,1,.83-.68,2.58,2.58,0,0,1,2,0,2.26,2.26,0,0,1,.84.68,3.41,3.41,0,0,1,.56,1.18,7.23,7.23,0,0,1,0,3.46,3.5,3.5,0,0,1-.56,1.18,2.23,2.23,0,0,1-.84.67A2.34,2.34,0,0,1,66.24,550.69Zm0-.91a1.21,1.21,0,0,0,.56-.13,1.23,1.23,0,0,0,.48-.46,2.77,2.77,0,0,0,.33-.89,8.34,8.34,0,0,0,0-2.82,2.77,2.77,0,0,0-.33-.89,1.23,1.23,0,0,0-.48-.46,1.21,1.21,0,0,0-.56-.13,1.28,1.28,0,0,0-.57.13,1.21,1.21,0,0,0-.47.46,2.77,2.77,0,0,0-.33.89,8.34,8.34,0,0,0,0,2.82,2.77,2.77,0,0,0,.33.89,1.21,1.21,0,0,0,.47.46A1.28,1.28,0,0,0,66.24,549.78Z"/><path d="M104.2,505.34l3-4.71h1.26v4.79h1.07v.94h-1.07V508h-1.11v-1.68H104.2Zm3.18.08V502l-2.25,3.45Z"/><path d="M110.71,507.12h1.65V502l-1.6,1-.5-.78,2.36-1.57h.87v6.49h1.44V508h-4.22Z"/><path d="M119.06,504.38h4v.88h-4Z"/><path d="M130.92,502.88a1.8,1.8,0,0,0-.41-1.06,1.21,1.21,0,0,0-1-.38,1.53,1.53,0,0,0-.64.13,1.29,1.29,0,0,0-.51.46,3.12,3.12,0,0,0-.34.92,7.65,7.65,0,0,0-.12,1.49,1.57,1.57,0,0,1,.69-.75,2.41,2.41,0,0,1,1.15-.26,2.8,2.8,0,0,1,.88.14,2.14,2.14,0,0,1,.73.43,2,2,0,0,1,.5.71,2.59,2.59,0,0,1,.18,1,2.66,2.66,0,0,1-.18,1,2,2,0,0,1-.5.76,2.12,2.12,0,0,1-.79.49,2.87,2.87,0,0,1-1,.17,2.82,2.82,0,0,1-1.11-.21,2,2,0,0,1-.83-.66,3.37,3.37,0,0,1-.53-1.16,6.89,6.89,0,0,1-.18-1.69,5,5,0,0,1,.68-2.92,2.3,2.3,0,0,1,2-.95,2.38,2.38,0,0,1,1.72.61,2.47,2.47,0,0,1,.69,1.73Zm-1.32,4.37a1.47,1.47,0,0,0,.56-.11,1.4,1.4,0,0,0,.44-.31,1.58,1.58,0,0,0,.28-.47,1.87,1.87,0,0,0,.1-.59,1.49,1.49,0,0,0-.38-1,1.34,1.34,0,0,0-1-.4,1.37,1.37,0,0,0-1,.39,1.42,1.42,0,0,0-.38,1,1.63,1.63,0,0,0,.1.59,1.52,1.52,0,0,0,.28.48,1.39,1.39,0,0,0,1,.44Z"/><path d="M135.24,508.13a2.48,2.48,0,0,1-1-.21,2.2,2.2,0,0,1-.83-.67,3.32,3.32,0,0,1-.56-1.18,6.25,6.25,0,0,1-.21-1.73,6.15,6.15,0,0,1,.21-1.73,3.16,3.16,0,0,1,.56-1.18,2.23,2.23,0,0,1,.83-.68,2.58,2.58,0,0,1,2,0,2.26,2.26,0,0,1,.84.68,3.32,3.32,0,0,1,.56,1.18,6.15,6.15,0,0,1,.21,1.73,6.25,6.25,0,0,1-.21,1.73,3.5,3.5,0,0,1-.56,1.18,2.23,2.23,0,0,1-.84.67A2.48,2.48,0,0,1,135.24,508.13Zm0-.9a1.35,1.35,0,0,0,.56-.13,1.23,1.23,0,0,0,.48-.46,2.77,2.77,0,0,0,.33-.89,7,7,0,0,0,.12-1.41,6.85,6.85,0,0,0-.12-1.41,2.68,2.68,0,0,0-.33-.89,1.23,1.23,0,0,0-.48-.46,1.21,1.21,0,0,0-.56-.13,1.28,1.28,0,0,0-.57.13,1.21,1.21,0,0,0-.47.46,2.68,2.68,0,0,0-.33.89,6.85,6.85,0,0,0-.12,1.41,7,7,0,0,0,.12,1.41,2.77,2.77,0,0,0,.33.89,1.21,1.21,0,0,0,.47.46A1.44,1.44,0,0,0,135.24,507.23Z"/><path d="M108.37,524.32a1.86,1.86,0,0,0-.41-1.06,1.24,1.24,0,0,0-1-.38,1.7,1.7,0,0,0-.64.13,1.32,1.32,0,0,0-.51.47,3,3,0,0,0-.34.92,7.58,7.58,0,0,0-.12,1.49,1.57,1.57,0,0,1,.69-.75,2.3,2.3,0,0,1,1.15-.26,2.54,2.54,0,0,1,.88.14,2.14,2.14,0,0,1,.73.43,2,2,0,0,1,.5.71,2.52,2.52,0,0,1,.18,1,2.91,2.91,0,0,1-.17,1,2.12,2.12,0,0,1-.51.76,2.25,2.25,0,0,1-.79.49,3.06,3.06,0,0,1-1,.17,2.82,2.82,0,0,1-1.11-.21,2,2,0,0,1-.83-.66,3.19,3.19,0,0,1-.52-1.16,6.45,6.45,0,0,1-.19-1.69,5.05,5.05,0,0,1,.68-2.92,2.31,2.31,0,0,1,2-1,2.42,2.42,0,0,1,1.72.61,2.47,2.47,0,0,1,.69,1.73Zm-1.32,4.37a1.27,1.27,0,0,0,.56-.11,1.07,1.07,0,0,0,.44-.31,1.47,1.47,0,0,0,.28-.47,1.78,1.78,0,0,0,.1-.59,1.48,1.48,0,0,0-.38-1,1.35,1.35,0,0,0-1-.41,1.33,1.33,0,0,0-1,.39,1.42,1.42,0,0,0-.39,1,1.64,1.64,0,0,0,.1.6,1.47,1.47,0,0,0,.29.48,1.28,1.28,0,0,0,.44.32A1.44,1.44,0,0,0,107.05,528.69Z"/><path d="M110.71,528.57h1.65V523.4l-1.6,1-.5-.79,2.36-1.56h.87v6.49h1.44v.91h-4.22Z"/><path d="M119.06,525.83h4v.88h-4Z"/><path d="M127.46,528.57h1.65V523.4l-1.61,1-.49-.79,2.35-1.56h.87v6.49h1.44v.91h-4.21Z"/><path d="M135.24,529.58a2.48,2.48,0,0,1-1-.21,2.23,2.23,0,0,1-.83-.68,3.24,3.24,0,0,1-.56-1.18,7.23,7.23,0,0,1,0-3.46,3.32,3.32,0,0,1,.56-1.18,2.2,2.2,0,0,1,.83-.67,2.47,2.47,0,0,1,2,0,2.23,2.23,0,0,1,.84.67,3.5,3.5,0,0,1,.56,1.18,7.23,7.23,0,0,1,0,3.46,3.41,3.41,0,0,1-.56,1.18,2.26,2.26,0,0,1-.84.68A2.48,2.48,0,0,1,135.24,529.58Zm0-.91a1.21,1.21,0,0,0,.56-.13,1.2,1.2,0,0,0,.48-.45,2.74,2.74,0,0,0,.33-.9,8.29,8.29,0,0,0,0-2.81,2.68,2.68,0,0,0-.33-.89,1.26,1.26,0,0,0-.48-.47,1.35,1.35,0,0,0-.56-.13,1.44,1.44,0,0,0-.57.13,1.24,1.24,0,0,0-.47.47,2.68,2.68,0,0,0-.33.89,8.29,8.29,0,0,0,0,2.81,2.74,2.74,0,0,0,.33.9,1.18,1.18,0,0,0,.47.45A1.28,1.28,0,0,0,135.24,528.67Z"/><path d="M141.05,529.58a2.53,2.53,0,0,1-1-.21,2.31,2.31,0,0,1-.83-.68,3.6,3.6,0,0,1-.56-1.18,7.58,7.58,0,0,1,0-3.46,3.7,3.7,0,0,1,.56-1.18,2.28,2.28,0,0,1,.83-.67,2.5,2.5,0,0,1,2,0,2.13,2.13,0,0,1,.83.67,3.51,3.51,0,0,1,.57,1.18,7.58,7.58,0,0,1,0,3.46,3.42,3.42,0,0,1-.57,1.18,2.16,2.16,0,0,1-.83.68A2.52,2.52,0,0,1,141.05,529.58Zm0-.91a1.24,1.24,0,0,0,.56-.13,1.12,1.12,0,0,0,.47-.45,2.74,2.74,0,0,0,.33-.9,7.66,7.66,0,0,0,0-2.81,2.68,2.68,0,0,0-.33-.89,1.18,1.18,0,0,0-.47-.47,1.29,1.29,0,0,0-1.13,0,1.26,1.26,0,0,0-.48.47,2.93,2.93,0,0,0-.32.89,8.29,8.29,0,0,0,0,2.81,3,3,0,0,0,.32.9,1.2,1.2,0,0,0,.48.45A1.25,1.25,0,0,0,141.05,528.67Z"/><circle class="cls-11" cx="91.46" cy="526.43" r="6.35"/><path d="M104.3,546.37h2.15v-2.14h.86v2.14h2.15v.86h-2.15v2.16h-.86v-2.16H104.3Z"/><path d="M120.25,548.62h0a2.19,2.19,0,0,1-.65.7,2,2,0,0,1-1.07.26,2.32,2.32,0,0,1-1-.2,2,2,0,0,1-.71-.57,2.49,2.49,0,0,1-.43-.88,3.92,3.92,0,0,1-.15-1.11,4,4,0,0,1,.15-1.13,2.51,2.51,0,0,1,.44-.88,2.22,2.22,0,0,1,.72-.57,2.16,2.16,0,0,1,1-.2,1.94,1.94,0,0,1,1,.25,2,2,0,0,1,.66.67h0v-2.88h1.07v7.4h-1.07Zm-1.43.15a1.24,1.24,0,0,0,1.1-.52,2.61,2.61,0,0,0,.34-1.46,2.43,2.43,0,0,0-.35-1.42,1.24,1.24,0,0,0-1.1-.51,1.32,1.32,0,0,0-1.09.51,2.34,2.34,0,0,0-.4,1.45,2.3,2.3,0,0,0,.39,1.43A1.3,1.3,0,0,0,118.82,548.77Z"/><path d="M127.55,547.65a2,2,0,0,1-.2.78,1.76,1.76,0,0,1-.47.61,2.34,2.34,0,0,1-.71.4,3.06,3.06,0,0,1-1,.14,2.78,2.78,0,0,1-1.13-.2,2.11,2.11,0,0,1-.78-.56,2.29,2.29,0,0,1-.45-.88,4,4,0,0,1-.15-1.13,4,4,0,0,1,.16-1.13,2.4,2.4,0,0,1,.47-.88,2.11,2.11,0,0,1,.78-.56,2.62,2.62,0,0,1,1.09-.2,2.71,2.71,0,0,1,1.08.19,1.81,1.81,0,0,1,.73.55,2.13,2.13,0,0,1,.41.87,4.55,4.55,0,0,1,.13,1.15V547h-3.77a2.1,2.1,0,0,0,.39,1.32,1.21,1.21,0,0,0,1,.43,1.45,1.45,0,0,0,.91-.27,1.14,1.14,0,0,0,.41-.8Zm-1-1.37a1.58,1.58,0,0,0-.34-1,1.17,1.17,0,0,0-1-.39,1.33,1.33,0,0,0-1,.34,1.71,1.71,0,0,0-.44,1.06Z"/><path d="M132.1,548.57h1.65V543.4l-1.6,1-.5-.79,2.36-1.56h.87v6.49h1.44v.91H132.1Z"/><path d="M139.89,549.58a2.45,2.45,0,0,1-1-.21,2.16,2.16,0,0,1-.83-.68,3.24,3.24,0,0,1-.56-1.18,7.23,7.23,0,0,1,0-3.46,3.32,3.32,0,0,1,.56-1.18,2.13,2.13,0,0,1,.83-.67,2.45,2.45,0,0,1,1-.22,2.53,2.53,0,0,1,1,.22,2.23,2.23,0,0,1,.84.67,3.5,3.5,0,0,1,.56,1.18,7.58,7.58,0,0,1,0,3.46,3.41,3.41,0,0,1-.56,1.18,2.26,2.26,0,0,1-.84.68A2.52,2.52,0,0,1,139.89,549.58Zm0-.91a1.24,1.24,0,0,0,.56-.13,1.2,1.2,0,0,0,.48-.45,3.29,3.29,0,0,0,.33-.9,8.29,8.29,0,0,0,0-2.81,3.21,3.21,0,0,0-.33-.89,1.26,1.26,0,0,0-.48-.47,1.29,1.29,0,0,0-1.13,0,1.18,1.18,0,0,0-.47.47,2.68,2.68,0,0,0-.33.89,8.29,8.29,0,0,0,0,2.81,2.74,2.74,0,0,0,.33.9,1.12,1.12,0,0,0,.47.45A1.25,1.25,0,0,0,139.89,548.67Z"/><path d="M145.7,549.58a2.53,2.53,0,0,1-1-.21,2.31,2.31,0,0,1-.83-.68,3.41,3.41,0,0,1-.56-1.18,7.58,7.58,0,0,1,0-3.46,3.5,3.5,0,0,1,.56-1.18,2.28,2.28,0,0,1,.83-.67,2.5,2.5,0,0,1,2.05,0,2.13,2.13,0,0,1,.83.67,3.32,3.32,0,0,1,.56,1.18,7.23,7.23,0,0,1,0,3.46,3.24,3.24,0,0,1-.56,1.18,2.16,2.16,0,0,1-.83.68A2.52,2.52,0,0,1,145.7,549.58Zm0-.91a1.24,1.24,0,0,0,.56-.13,1.12,1.12,0,0,0,.47-.45,2.74,2.74,0,0,0,.33-.9,7.66,7.66,0,0,0,0-2.81,2.68,2.68,0,0,0-.33-.89,1.18,1.18,0,0,0-.47-.47,1.29,1.29,0,0,0-1.13,0,1.26,1.26,0,0,0-.48.47,2.93,2.93,0,0,0-.32.89,8.29,8.29,0,0,0,0,2.81,3,3,0,0,0,.32.9,1.2,1.2,0,0,0,.48.45A1.25,1.25,0,0,0,145.7,548.67Z"/><circle class="cls-12" cx="91.46" cy="547.43" r="6.35"/><circle class="cls-13" cx="23.46" cy="505.76" r="6.35"/><circle class="cls-14" cx="23.46" cy="526.43" r="6.35"/><circle class="cls-15" cx="91.46" cy="505.76" r="6.35"/><circle class="cls-3" cx="23.46" cy="547.1" r="6.35"/></svg>