<?xml version="1.0" encoding="utf-8"?>
<!-- Generator: Adobe Illustrator 19.1.0, SVG Export Plug-In . SVG Version: 6.00 Build 0)  -->
<svg version="1.1" id="Calque_1" xmlns="http://www.w3.org/2000/svg" xmlns:xlink="http://www.w3.org/1999/xlink" x="0px" y="0px"
	 viewBox="79 -4 769 801" style="enable-background:new 79 -4 769 801;" xml:space="preserve">
<style type="text/css">
	.st0{fill:#EDE6D8;stroke:#FFFFFF;stroke-miterlimit:10;}
	.st1{fill:#FFFFFF;}
	.st2{fill:none;stroke:#FFFFFF;stroke-miterlimit:10;}
	.st3{fill:none;stroke:#1D1D1B;stroke-width:2;}
	.st4{fill:#FFFFFF;stroke:#1D1D1B;stroke-width:2;stroke-linecap:round;stroke-linejoin:round;}
	.st5{fill:#1D1D1B;}
	.st6{fill:none;stroke:#E61E49;stroke-width:2;}
	.st7{fill:none;stroke:#00A5AC;stroke-width:2;}
	.st8{fill:none;stroke:#1D1D1B;stroke-width:2;stroke-linecap:round;stroke-linejoin:round;}
	.st9{fill:none;stroke:#1D1D1B;stroke-width:2;stroke-dasharray:2.4777,2.4777,2.4777,2.4777;}
	.st10{fill:none;stroke:#1D1D1B;stroke-width:2;stroke-dasharray:4,4,4;}
	.st11{fill:#00A5AC;}
	.st12{fill:none;stroke:#00A5AC;stroke-width:2;stroke-linecap:round;stroke-linejoin:round;}
	.st13{fill:none;stroke:#00A5AC;stroke-linecap:round;stroke-linejoin:round;}
	.st14{fill:#E61E49;}
	.st15{fill:none;stroke:#E61E49;stroke-width:2;stroke-linecap:round;stroke-linejoin:round;}
	.st16{fill:none;stroke:#000000;stroke-width:2;stroke-linecap:round;stroke-linejoin:round;}
	.st17{fill:none;stroke:#000000;stroke-width:2;}
	.st18{fill:none;stroke:#000000;stroke-linecap:round;stroke-linejoin:round;}
	.st19{fill:none;}
	.st20{enable-background:new    ;}
</style>
<g>
	<g id="XMLID_48_">
		<g id="XMLID_49_">
			<rect id="XMLID_50_" x="79.9" y="-3.5" class="st0" width="767.3" height="800"/>
		</g>
	</g>
	<g>
		<polygon id="France_23_" class="st1" points="734.7,606.7 734.7,606.7 733.5,593.8 716.6,597.6 697.4,584.4 696.2,576.5 
			697.2,575.5 701.1,571.7 701,565.2 700.7,564.9 704.9,561.1 704.9,561.1 701,552.3 690.1,549.6 683.4,536.6 683.4,536.6 
			694.8,535.5 704.7,527.9 707.4,517.2 707.4,517.2 688.6,492.6 688.6,492.6 690.4,490.5 697.8,487.5 698,485.7 698.1,484.7 
			698.3,480.5 687.7,467.3 687.7,467.3 690.2,464.7 690.2,464.7 686.1,454.6 669.6,458.5 666.9,456.6 662.8,462.3 662.8,462.3 
			665.4,466.2 658.1,471.6 651,471.5 650.9,467.3 657.5,465.3 660.3,456.5 655.5,454.7 656.7,445.4 670.5,431.2 670.5,431.2 
			669.5,420.7 669.5,420.7 678.1,416.9 679.5,415 696.1,393.2 696,393.2 696,393.2 693.1,385.8 697.8,384.9 698.5,384.6 701,388.2 
			709.6,388.3 713.7,384.8 716.2,377.1 711.8,370.3 716.8,352.6 714.4,342.5 720.3,331.4 723.1,309 728.8,305 739.5,288 
			727.1,282.9 714.1,283.6 707.1,276.9 701.5,276.7 698.4,279.5 690.9,279.7 684.6,274.8 680.5,274.9 679.6,277.8 675.5,278.2 
			668.3,262.9 660.4,259.6 654.5,257.2 651,257.4 642.1,259.8 635.4,254.9 622.3,257.3 617.1,253.5 615.1,248.2 597.1,240.8 
			596.7,218 592.5,218 588.2,227.8 578.1,232.1 570.9,229.6 566.5,229.5 566,228 570.3,224.8 570,212.9 562.1,205.6 549.9,206.2 
			548.6,208.4 547,208.4 547.4,200.7 539.7,195.2 535.4,197.1 530.8,195.1 529.8,183.5 525.9,178.6 517.6,180.5 512.3,183.7 
			510,179.1 507.8,176.7 503.4,174.3 505,168.2 501.2,159.1 482.8,164.1 470.7,166.3 460.9,173.7 460.6,204.1 451.7,223.1 
			440.8,232 404.1,244.6 397.6,258.5 407.3,263.4 384.4,272.7 376.9,268.4 357.8,265.7 353.7,263.7 348.2,265 340.3,253.5 
			344.5,250.6 342.6,245 331.4,245 326.9,246.9 314.2,240.6 313.3,242.4 317.9,246 317.9,259.9 325.9,274.4 328.4,293.7 
			325.7,299.3 333.7,309.4 327.3,311.6 316.6,311.5 315.3,305.6 310,305.3 307.9,307.7 294,306 277.6,313 273,309.2 264.4,291.6 
			241.5,292.9 240.1,301 230.6,299.2 228.4,301.6 218.1,297.7 192.2,305.2 189.3,319.4 203.1,318.4 212.2,323.9 198.4,321.7 
			194.7,323.6 209,330.8 208.2,335.3 190.9,336 190.8,338.9 198.7,340.7 204.3,351.7 204,355 212.4,355.5 213.5,351.8 224.8,357.8 
			239.5,360.1 254.3,373.1 268.4,380.5 282.4,383.8 277.4,394 292,396.5 292,402.5 289.6,405.4 296.5,406.7 301.8,410.8 
			294.5,419.5 294.4,424.7 307,445.9 336,460.8 333.6,467.3 321.1,459.7 316.1,462.8 339.9,476.6 337,487.5 333,485.5 324.8,475.1 
			324.3,482.8 329.3,486.6 330.8,499.2 350.7,514.6 352.3,523 354.5,534.7 353,537.2 348.2,520.5 337.1,513.1 335.9,507.2 
			333.5,508.1 332.5,516.5 325.4,564.7 330.9,558 337.6,566.4 337.1,570 329.4,570 325.5,574.3 325.4,578 313.2,630 309.9,635.2 
			303.5,642.5 294,644.4 294,648.3 313.3,654.5 312.7,661.2 310,662.7 315.9,669.1 318.1,664.2 336.5,674.1 340.9,674.1 341.1,674 
			343.9,674 343.9,674 343.9,674 344.3,678.7 350.8,684.4 351.4,685 351.4,685 364.2,681.7 371.2,686.5 377.2,692.8 386.2,689.8 
			392.1,694.2 398.3,692.7 410.1,693.8 410.5,683 419.1,686 428.8,690.2 432.5,697 440.5,697 445.6,700.6 457,699.3 462.5,708.1 
			469.5,710.3 469.5,714 475.6,716.7 479.4,712.9 484,713.1 495.4,721 503.5,721 512.5,711.3 519.3,709.6 522.7,712.3 526.7,713.5 
			526.8,707.7 522.7,703.5 521.7,685.2 521.9,672.5 517.1,669.3 518.9,666.4 523.1,669.6 528.4,662.9 564.9,640.3 569,640.7 
			571.2,645.2 579,645.2 595.1,646.3 592.1,650.4 602.4,654.3 608.2,652.5 605.6,647.6 611,648.4 614.8,652.6 628.9,652.2 
			631.1,660 645.5,664 651.7,670.4 659.1,666.7 667.1,667.6 677,666.3 691.8,658.2 690.7,651.7 703.1,640.8 711.5,635.2 
			711.7,628.4 716.8,628.1 729.3,619.4 729.3,619.4 729.9,608.2 		"/>
		<g id="XMLID_39_">
			<polygon id="Royaume-Uni_3_" class="st2" points="287,2.5 277.1,4.9 247.1,7.1 233.9,20.5 218.3,32.3 222.1,34.2 240.9,29.6 
				243.2,54.4 238.6,70.5 201.9,80.3 189.5,89.4 191.4,100.4 200.4,108.8 223.3,102.6 229.5,115.8 246.6,112.2 250.4,122.2 
				271.2,127.7 278.8,120.2 304.5,108.3 282.4,127.7 277.9,140.5 253.4,137.7 228.7,138.4 213.6,155.5 189.1,183.5 160.9,199.7 
				182.5,209.7 201.8,190.3 221.6,191.2 246.2,205 258.9,180.5 285.4,180.5 292.8,182.7 312,179.1 345,171.4 363.2,174.9 
				407.2,179.1 435.6,167.9 454.7,153.5 457.8,138 431.6,139.3 415,133.4 436,126 438.3,116.1 448.4,110.7 464.1,94.5 466.3,82.8 
				471.3,60.1 456.3,42.6 437.1,39.5 425,37.2 418,49.6 407.9,41.8 403.3,41.6 418.2,24.7 413.1,11 402.9,-3.5 287.2,-3.5 			"/>
			<polygon id="Irlande_3_" class="st2" points="79.5,74 97,67.3 120.6,64.4 131.7,60.5 150.2,64.9 169,21 169.9,5.3 166.5,1.7 
				163.5,-3.5 79.5,-3.5 			"/>
			<polygon id="Espagne_3_" class="st2" points="519.3,709.5 512.5,711 503.5,720.5 495.4,720.5 484,712.8 479.4,712.9 475.6,716.6 
				469.5,714 469.5,710.3 462.3,707.7 450.5,711.7 445.5,705 445.6,700.4 440.5,696.5 432.5,696.5 428.8,689.9 419.1,686 410.5,683 
				410.1,693.8 398.3,692.7 392.1,694.3 386.2,689.8 377.2,692.8 371.2,686.5 364.2,681.7 351.4,684.7 351.4,684.5 351.4,684.5 
				350.8,684.2 344.3,678.6 343.9,674.1 343.9,674.1 341.2,674.1 340.9,674.1 336.6,674.1 318.1,664.2 316,669.1 310,662.7 
				312.8,661.2 313.5,654.5 294.5,648.3 294.5,644.4 281.4,648 264.5,644.8 250,636.7 237.2,644.2 218.7,633 201.2,629.3 
				184.7,634.3 141.3,626.9 125.7,618.6 101.8,614.1 79.5,613.7 79.5,796.5 446.6,796.5 469.5,789.2 528.9,748 525.1,727.5 
				532.5,725 526.7,713.5 522.7,712.2 			"/>
			<polygon id="Allemagne_3_" class="st2" points="684.8,17.6 684.8,17.6 682.4,52.3 681.5,53.5 679,56.8 678.8,56.8 678.7,56.8 
				669.2,56.2 666.3,66.9 677.5,67.5 677.9,69.2 680.9,82.2 667.5,93.4 671.9,101.9 655.4,108.8 655.4,108.8 655.4,108.8 
				646.6,104.9 638.8,109.4 654,136 652.6,139.8 651,143.6 645,158.8 645.6,170.9 645.6,170.9 642.8,177.9 652.8,188.8 652.8,188.8 
				652.5,189.4 651.2,193.1 656.8,196.7 658.9,204.1 648.9,217.2 646.5,224.7 652.9,232.4 665.9,237.3 667.3,244.2 659.3,255.4 
				660.4,259.6 668.3,262.9 675.5,278.2 679.6,277.8 680.5,274.9 684.6,274.8 690.9,279.7 698.4,279.5 701.5,276.7 707.1,276.9 
				714.1,283.6 727.1,282.9 739.5,288 728.8,305 723.1,309 720.3,331.4 714.4,342.5 716.8,352.6 711.8,370.3 716.2,377.1 
				713.7,384.8 716.3,380.6 733.8,379.8 744.3,374.7 755.2,377.2 756.2,374.9 756.3,374.6 762.1,372.4 754.7,370.6 752.6,368.6 
				758.5,363.2 764.5,362.1 770.1,367 776.4,370 783.9,368.6 794.2,369.7 809.1,374.3 811.1,370.6 826.5,383 826.5,385.4 
				826.5,388.9 840.2,378.9 840.9,370.3 847,370.2 847.5,370.2 847.5,-3.5 682.8,-3.5 673.8,8.8 674,9.1 			"/>
			<polygon id="Italie_3_" class="st2" points="847.5,419.1 832,432.5 829.8,450.6 796,446.7 773.7,469.4 760.7,461.3 759.8,447.5 
				744.9,461.3 748.4,466.4 735.3,484.3 724.5,480.7 712.9,486.8 702,488.2 700.2,487.7 698,485.7 697.8,487.5 690.4,490.5 
				688.6,492.6 707.4,517.2 707.4,517.2 707.4,517.2 704.7,527.9 694.8,535.5 683.4,536.6 690.1,549.6 701,552.3 704.9,561.1 
				704.9,561.1 700.7,564.9 701,565.2 701.1,571.7 697.2,575.5 696.2,576.5 697.4,584.4 716.6,597.6 733.5,593.8 734.7,606.7 
				734.7,606.7 729.9,608.2 729.3,619.4 736,621.5 754.6,614.5 770.1,589.5 782.7,577.2 809.9,583.4 846.1,598.9 847.5,600.4 			"/>
			<polygon id="Autriche_3_" class="st2" points="840.9,370.3 840.2,378.9 826.5,388.9 826.5,385.4 826.5,383 811.1,370.6 
				809.2,374.3 794.2,369.7 802.8,376.4 807.1,379.6 808.8,385 803.2,395 816.7,397 820.1,409.6 828.9,418.2 839.1,410.5 
				846.5,410.5 847.5,410.5 847.5,370.2 847,370.2 			"/>
			<polygon id="Liechtenstein_3_" class="st2" points="820.1,409.6 816.7,397 803.2,395 805.7,406.7 			"/>
			<polygon id="Pays-Bas_3_" class="st2" points="569.9,140.7 582.8,134.3 592.1,137.2 603.4,134.3 610.4,146.4 619.1,145.1 
				619.1,145.1 619.1,145.1 635.5,153.1 630.2,178.8 642.8,177.9 642.8,177.9 642.8,177.9 642.8,177.9 645.6,170.9 645.6,170.9 
				645,158.8 651,143.6 652.6,139.8 654,136 638.8,109.4 646.6,104.9 646.6,104.9 655.4,108.8 655.4,108.8 671.9,101.9 667.5,93.4 
				680.9,82.2 677.9,69.2 677.5,67.5 666.3,66.9 669.2,56.2 669.2,56.2 678.8,56.8 679,56.8 681.5,53.5 682.4,52.3 684.8,17.6 
				684.8,17.6 674,9.3 673.8,9.1 673.4,8.7 670.2,6.3 660.5,7.1 639.4,10.6 618.5,19 613.5,31.6 597,44.3 594.1,39.5 588.3,38.5 
				580.1,80.3 566.2,100.3 550.7,117.2 537.7,130.3 541.7,137.7 558.2,141.6 			"/>
			<polygon id="Belgique_3_" class="st2" points="503.4,174.3 507.8,176.7 510,179.1 512.3,183.7 517.6,180.5 525.9,178.6 
				529.8,183.5 530.8,195.1 535.4,197.1 539.7,195.2 547.4,200.7 547,208.4 548.6,208.4 549.9,206.2 562.1,205.6 570,212.9 
				570.3,224.8 566,228 566.5,229.5 570.9,229.6 578.1,232.1 588.2,227.5 592.5,217.5 596.7,217.5 597.1,240.5 615.1,248.1 
				617.1,253.5 622.3,257.3 635.4,254.9 639.4,252.6 638.9,249.9 632.5,233.1 643.7,214.2 648.9,217.2 658.9,204.1 656.8,196.7 
				651.1,193.1 652.5,189.4 652.8,188.8 642.8,177.9 642.8,177.9 630.2,178.8 630.2,178.8 635.5,153.1 619.1,145.1 619.1,145.1 
				610.4,146.4 603.4,134.3 592.1,137.2 582.8,134.3 569.9,140.7 558.2,141.6 541.7,137.7 528.2,141.3 497.5,157.1 497.5,160.2 
				501.3,159.1 505.1,168.2 			"/>
			<polygon id="Luxembourg_3_" class="st2" points="667.3,244.2 665.9,237.3 652.9,232.4 646.5,224.7 648.9,217.2 643.7,214.2 
				632.5,233.1 638.9,249.9 639.4,252.6 635.4,254.9 642.1,259.8 651,257.4 654.5,257.2 660.4,259.6 659.3,255.4 			"/>
			<polygon id="Suisse_3_" class="st2" points="839.1,410.5 828.9,418.2 820.1,409.5 805.7,406.6 803.2,395 808.8,385 807.1,379.6 
				802.8,376.4 794.2,369.7 783.9,368.6 776.4,370 770.1,367 764.5,362.1 758.5,363.2 752.6,368.6 754.7,370.6 762.1,372.3 
				756.3,374.6 756.2,374.9 755.2,377.2 744.3,374.7 733.8,379.8 716.3,380.3 713.3,384.5 712.9,384.5 709.6,388 701,388.1 
				698.5,384.5 697.9,384.9 693.4,385.8 696.5,393.1 696.5,393.2 696.5,393.2 696.4,393.2 696.3,393.2 679.5,415 678.1,416.9 
				669.6,420.9 670.5,431.5 670.5,431.5 670.5,431.5 656.7,445.5 655.5,454.8 660.3,456.5 657.5,465.3 650.9,467.3 651,471.5 
				658.1,471.6 665.4,466.2 662.8,462.3 662.8,462.3 662.8,462.3 666.9,456.6 669.6,458.5 686.1,454.6 690.2,464.7 690.2,464.7 
				690.2,464.7 687.7,467.3 698.3,480.5 698.1,484.7 698,485.7 700.2,487.7 702,488.2 712.9,486.8 724.5,480.7 735.3,484.3 
				735.3,484.3 748.4,466.4 744.9,461.3 759.8,447.5 760.7,461.3 773.7,469.4 796,446.7 829.7,450.6 832,432.5 847.5,419.1 
				847.5,410.5 846.5,410.5 			"/>
			<polygon id="France_3_" class="st1" points="811.1,650.4 803.9,650.6 801.4,656 787.1,661.5 782,674.4 780.2,676.8 786.1,680.6 
				786.3,682.4 780.6,683.6 782.1,690.9 788.6,692.9 789,696.8 784.6,701.4 785.2,705.3 791.7,705.9 793.3,710 788.9,715.9 
				800.5,717.7 793.8,724.9 799.9,729.8 809.5,732.7 812.3,735.9 817.8,737.4 823,721.9 824.2,710.5 823.5,704 823.4,697.6 
				828.7,690.2 828.8,677.9 826.7,673.7 826.1,660.6 821.8,656 821.4,647.8 822.8,644.1 820,633.4 818,629.8 813.9,633.1 
				815.8,646.3 814.4,652.1 			"/>
			<polygon id="Andorre_3_" class="st2" points="450.5,711.7 462.3,707.7 457,699.1 445.6,700.4 445.5,705 			"/>
			<polygon id="Monaco_3_" class="st2" points="711.5,635.2 711.5,635.2 720.4,635.5 716.8,628.1 711.7,628.4 			"/>
		</g>
	</g>
</g>
<g>
	<g>
		<g id="XMLID_537_">
			<path id="XMLID_277_" class="st3" d="M506.5,216.6c-22,44.7-59.9,48.6-59.9,48.6"/>
			<path id="XMLID_276_" class="st3" d="M407.5,263.9c-22,51.4-70.7,44.8-77.7-7.2"/>
			<path id="XMLID_2079_" class="st3" d="M370.2,286.9c0,0,39.7,46.9,9.5,103.5"/>
			<path id="XMLID_275_" class="st3" d="M314.9,401.7c0,0,25.4,18.6,22.2,57"/>
			<path id="XMLID_274_" class="st3" d="M360.3,551.5c0,0-5.8,52.5-41.9,84.5"/>
			<path id="XMLID_273_" class="st3" d="M365.5,656.9c0,0,17.9-4.5,26.5,18.2"/>
			<g id="XMLID_270_">
				<polygon id="XMLID_2075_" class="st4" points="374.8,664.8 377.6,655.1 380.7,660.8 384.6,649 389,658.2 391.9,654.8 
					394.3,664.8 				"/>
				<polygon id="XMLID_272_" class="st5" points="382.3,655.1 384,657.4 385.3,655.6 386.4,656.7 387.9,655.1 384.6,649 				"/>
				<polygon id="XMLID_271_" class="st5" points="376.6,658.9 378.3,661.3 379.6,658.8 377.6,655.1 				"/>
			</g>
			<path id="XMLID_269_" class="st3" d="M405.1,681.5c0,0,41.2-22,95.1,15.8"/>
			<g id="XMLID_266_">
				<path id="XMLID_1023_" class="st6" d="M397,673.4c-4.5,0-8.1,3.6-8.1,8.1s3.6,8.1,8.1,8.1"/>
				<path id="XMLID_267_" class="st7" d="M397,689.6c4.5,0,8.1-3.6,8.1-8.1s-3.6-8.1-8.1-8.1"/>
			</g>
			<g id="XMLID_262_">
				<polygon id="XMLID_265_" class="st4" points="443.1,680.5 445.9,670.7 449,676.4 452.8,664.6 457.2,673.8 460.1,670.4 
					462.6,680.5 				"/>
				<polygon id="XMLID_264_" class="st5" points="450.5,670.7 452.3,673 453.5,671.2 454.6,672.3 456.2,670.7 452.8,664.6 				"/>
				<polygon id="XMLID_263_" class="st5" points="444.8,674.5 446.5,676.9 447.9,674.4 445.9,670.7 				"/>
			</g>
			<path id="XMLID_261_" class="st3" d="M444.2,640.4c0,0,40.4-23.4,95-3.1"/>
			<path id="XMLID_260_" class="st3" d="M617.5,643.4c0-26.4-23.3-31.3-23.3-31.3"/>
			<path id="XMLID_258_" class="st3" d="M715.5,611.7c0,0-44.9-7.7-84.4,37.8"/>
			<g id="XMLID_257_">
				<path id="XMLID_1027_" class="st6" d="M622.9,641.3c-4.5,0-8.1,3.6-8.1,8.1s3.6,8.1,8.1,8.1"/>
				<path id="XMLID_1026_" class="st7" d="M622.9,657.6c4.5,0,8.1-3.6,8.1-8.1s-3.6-8.1-8.1-8.1"/>
			</g>
			<path id="XMLID_256_" class="st3" d="M666.4,579.5c0,0,21.6,20,57.2,24.1"/>
			<path id="XMLID_255_" class="st3" d="M681.6,538.9c0-14.7-17.5-23.7-29.3-12.8"/>
			<g id="XMLID_251_">
				<polygon id="XMLID_254_" class="st4" points="668.5,529.7 671.3,519.9 674.4,525.6 678.3,513.8 682.7,523 685.6,519.6 
					688,529.7 				"/>
				<polygon id="XMLID_253_" class="st5" points="676,519.9 677.7,522.2 678.9,520.4 680,521.5 681.6,519.9 678.3,513.8 				"/>
				<polygon id="XMLID_252_" class="st5" points="670.2,523.7 671.9,526.1 673.3,523.6 671.3,519.9 				"/>
			</g>
			<path id="XMLID_250_" class="st3" d="M636.9,492.8c0,0-27.5,1.1-51.2,18.8"/>
			<path id="XMLID_249_" class="st3" d="M580.3,486c4.1-3.5,7.7-3.5,10.1-0.8"/>
			<path id="XMLID_248_" class="st3" d="M571.9,507.1c-0.3-2.6-0.2-5.2,0.2-7.6"/>
			<g id="XMLID_247_">
				<path id="XMLID_1075_" class="st6" d="M578.6,519.7c4.5,0,8.1-3.6,8.1-8.1s-3.6-8.1-8.1-8.1"/>
				<path id="XMLID_1074_" class="st7" d="M578.6,503.5c-4.5,0-8.1,3.6-8.1,8.1c0,4.5,3.6,8.1,8.1,8.1"/>
			</g>
			<path id="XMLID_246_" class="st3" d="M625.7,517.3c0,0,42.8,5.5,50.5-30.7"/>
			<path id="XMLID_245_" class="st3" d="M599.8,483.6c0,0,6.1-47.1,51.5-72.1"/>
			<g id="XMLID_1950_">
				<path id="XMLID_1108_" class="st6" d="M595.8,483.1c-4.5,0-8.1,3.6-8.1,8.1s3.6,8.1,8.1,8.1"/>
				<path id="XMLID_1076_" class="st7" d="M595.8,499.3c4.5,0,8.1-3.6,8.1-8.1s-3.6-8.1-8.1-8.1"/>
			</g>
			<path id="XMLID_244_" class="st3" d="M684.2,377.1c0,0,0.8-34.8,31.1-69.5"/>
			<path id="XMLID_243_" class="st3" d="M674.8,286.9c13.2-6.9,37.5-5.1,47.3,6.1"/>
			<path id="XMLID_242_" class="st8" d="M496.5,294.8c-2.9,1.3-5.2,3.9-5.2,8.3"/>
			<path id="XMLID_241_" class="st8" d="M483.4,312.8c0,0,26.8,1.5,26.7-11.6c0-3.1-2.1-5.3-4.8-6.5"/>
			<g id="XMLID_1484_">
				<g>
					<path class="st3" d="M415.8,261.8c0,0,0.4,0.7,1.2,1.6"/>
					<path class="st9" d="M418.9,265c1.8,1.2,4.4,2.3,8.2,2.2"/>
					<path class="st3" d="M428.4,267.1c0.6,0,1.3-0.1,2-0.2"/>
				</g>
			</g>
			<path id="XMLID_1325_" class="st6" d="M438.5,275.1c-4.5,0-8.1-3.7-8.1-8.1c0-4.5,3.7-8.1,8.1-8.1c4.5,0,8.1,3.7,8.1,8.1
				S443,275.1,438.5,275.1z"/>
			<path id="XMLID_239_" class="st7" d="M409.9,264.3c-4.5,0-8.1-3.7-8.1-8.1c0-4.5,3.7-8.1,8.1-8.1c4.5,0,8.1,3.7,8.1,8.1
				C418.1,260.6,414.4,264.3,409.9,264.3z"/>
			<path id="XMLID_238_" class="st10" d="M332.8,256.1c0,0,4.2,20.9,24.5,24.2"/>
			<path id="XMLID_237_" class="st10" d="M314.9,401.7c0,0,25,11.8,53.2-1.2"/>
			<path id="XMLID_1479_" class="st10" d="M342.7,472.6c16.3,14.1,19.3,39,17.6,62.6"/>
			<path id="XMLID_1478_" class="st10" d="M320.2,641c0,0,15.8-0.7,29,16"/>
			<path id="XMLID_1477_" class="st10" d="M444.2,640.4c0,0,46.3,2.6,61.3,48.7"/>
			<path id="XMLID_1476_" class="st10" d="M552.1,630.5c0,0,6.9-18.4,25.8-18.4"/>
			<path id="XMLID_1475_" class="st10" d="M667.5,573.1c0,0,14.8-1.6,12.4-18.5"/>
			<path id="XMLID_1474_" class="st10" d="M640.6,537.3c-7.3,7.5-24.3,0-23-11.8"/>
			<path id="XMLID_1473_" class="st10" d="M670.2,476.2c-8.8-2.9-16.1,0.1-21.6,9"/>
			<path id="XMLID_1472_" class="st10" d="M666.5,407.5c0,0,15.1,1,16.3-14.2"/>
			<path id="XMLID_1471_" class="st10" d="M660.6,294.8c0,0-74.9,59.5-176.9,25.6"/>
			<path id="XMLID_236_" class="st6" d="M329.8,256.7c-4.5,0-8.1-3.7-8.1-8.1c0-4.5,3.7-8.1,8.1-8.1c4.5,0,8.1,3.7,8.1,8.1
				C338,253.1,334.3,256.7,329.8,256.7z"/>
			<path id="XMLID_235_" class="st6" d="M375.5,405.4c-4.5,0-8.1-3.7-8.1-8.1s3.7-8.1,8.1-8.1c4.5,0,8.1,3.7,8.1,8.1
				S380,405.4,375.5,405.4z"/>
			<path id="XMLID_234_" class="st7" d="M307.4,406.6c-4.5,0-8.1-3.7-8.1-8.1c0-4.5,3.7-8.1,8.1-8.1c4.5,0,8.1,3.7,8.1,8.1
				C315.6,402.9,311.9,406.6,307.4,406.6z"/>
			<path id="XMLID_233_" class="st6" d="M337,475c-4.5,0-8.1-3.7-8.1-8.1c0-4.5,3.7-8.1,8.1-8.1c4.5,0,8.1,3.7,8.1,8.1
				C345.2,471.3,341.5,475,337,475z"/>
			<path id="XMLID_1918_" class="st7" d="M360.3,551.5c-4.5,0-8.1-3.7-8.1-8.1c0-4.5,3.7-8.1,8.1-8.1c4.5,0,8.1,3.7,8.1,8.1
				C368.5,547.8,364.8,551.5,360.3,551.5z"/>
			<path id="XMLID_232_" class="st6" d="M312,649.1c-4.5,0-8.1-3.7-8.1-8.1c0-4.5,3.7-8.1,8.1-8.1c4.5,0,8.1,3.7,8.1,8.1
				C320.2,645.5,316.5,649.1,312,649.1z"/>
			<path id="XMLID_1917_" class="st7" d="M357.3,665.1c-4.5,0-8.1-3.7-8.1-8.1c0-4.5,3.7-8.1,8.1-8.1c4.5,0,8.1,3.7,8.1,8.1
				C365.5,661.4,361.8,665.1,357.3,665.1z"/>
			<path id="XMLID_231_" class="st6" d="M508.3,705.4c-4.5,0-8.1-3.7-8.1-8.1c0-4.5,3.7-8.1,8.1-8.1c4.5,0,8.1,3.7,8.1,8.1
				C516.5,701.8,512.8,705.4,508.3,705.4z"/>
			<path id="XMLID_230_" class="st6" d="M547.3,645.4c-4.5,0-8.1-3.7-8.1-8.1c0-4.5,3.7-8.1,8.1-8.1c4.5,0,8.1,3.7,8.1,8.1
				C555.4,641.8,551.8,645.4,547.3,645.4z"/>
			<path id="XMLID_1916_" class="st7" d="M586.1,620.2c-4.5,0-8.1-3.7-8.1-8.1c0-4.5,3.7-8.1,8.1-8.1c4.5,0,8.1,3.7,8.1,8.1
				C594.3,616.6,590.6,620.2,586.1,620.2z"/>
			<path id="XMLID_229_" class="st6" d="M659.1,583.9c-4.5,0-8.1-3.7-8.1-8.1c0-4.5,3.7-8.1,8.1-8.1c4.5,0,8.1,3.7,8.1,8.1
				C667.3,580.3,663.6,583.9,659.1,583.9z"/>
			<path id="XMLID_228_" class="st6" d="M645.9,539.3c-4.5,0-8.1-3.7-8.1-8.1c0-4.5,3.7-8.1,8.1-8.1c4.5,0,8.1,3.7,8.1,8.1
				C654.1,535.7,650.4,539.3,645.9,539.3z"/>
			<path id="XMLID_227_" class="st7" d="M645.1,500.9c-4.5,0-8.1-3.7-8.1-8.1c0-4.5,3.7-8.1,8.1-8.1c4.5,0,8.1,3.7,8.1,8.1
				C653.2,497.3,649.5,500.9,645.1,500.9z"/>
			<path id="XMLID_1907_" class="st7" d="M617.5,525.4c-4.5,0-8.1-3.7-8.1-8.1c0-4.5,3.7-8.1,8.1-8.1s8.1,3.7,8.1,8.1
				C625.7,521.8,622,525.4,617.5,525.4z"/>
			<path id="XMLID_224_" class="st6" d="M677.5,486.7c-4.5,0-8.1-3.7-8.1-8.1c0-4.5,3.7-8.1,8.1-8.1c4.5,0,8.1,3.7,8.1,8.1
				C685.7,483.1,682,486.7,677.5,486.7z"/>
			<path id="XMLID_158_" class="st6" d="M658.4,415.7c-4.5,0-8.1-3.7-8.1-8.1c0-4.5,3.7-8.1,8.1-8.1c4.5,0,8.1,3.7,8.1,8.1
				S662.9,415.7,658.4,415.7z"/>
			<path id="XMLID_156_" class="st7" d="M684.2,393.4c-4.5,0-8.1-3.7-8.1-8.1c0-4.5,3.7-8.1,8.1-8.1c4.5,0,8.1,3.7,8.1,8.1
				C692.4,389.8,688.7,393.4,684.2,393.4z"/>
			<path id="XMLID_153_" class="st6" d="M667.5,298.6c-4.5,0-8.1-3.7-8.1-8.1c0-4.5,3.7-8.1,8.1-8.1c4.5,0,8.1,3.7,8.1,8.1
				C675.7,295,672,298.6,667.5,298.6z"/>
			<path id="XMLID_82_" class="st7" d="M476.4,325c-4.5,0-8.1-3.7-8.1-8.1c0-4.5,3.7-8.1,8.1-8.1c4.5,0,8.1,3.7,8.1,8.1
				S480.9,325,476.4,325z"/>
			<path id="XMLID_1749_" class="st7" d="M365.4,288.5c-4.5,0-8.1-3.7-8.1-8.1c0-4.5,3.7-8.1,8.1-8.1c4.5,0,8.1,3.7,8.1,8.1
				S369.9,288.5,365.4,288.5z"/>
			<path id="XMLID_1411_" class="st3" d="M486.9,172.1c-3.5,10.9-10,36.7,11.6,50.9c23.5,15.4,48-5.5,34.7-24.3"/>
			<path id="XMLID_1674_" class="st7" d="M436,648.6c-4.5,0-8.1-3.7-8.1-8.1c0-4.5,3.7-8.1,8.1-8.1c4.5,0,8.1,3.7,8.1,8.1
				C444.2,644.9,440.5,648.6,436,648.6z"/>
			<g id="XMLID_1385_">
				<path id="XMLID_1113_" class="st6" d="M719.4,292.5c-4.5,0-8.1,3.6-8.1,8.1s3.6,8.1,8.1,8.1"/>
				<path id="XMLID_1111_" class="st7" d="M719.4,308.7c4.5,0,8.1-3.6,8.1-8.1s-3.6-8.1-8.1-8.1"/>
			</g>
			<g id="XMLID_1382_">
				<path id="XMLID_1073_" class="st6" d="M723.6,603.5c-4.5,0-8.1,3.6-8.1,8.1s3.6,8.1,8.1,8.1"/>
				<path id="XMLID_1028_" class="st7" d="M723.6,619.8c4.5,0,8.1-3.6,8.1-8.1s-3.6-8.1-8.1-8.1"/>
			</g>
			<path id="XMLID_1412_" class="st7" d="M677.5,554.5c-4.5,0-8.1-3.7-8.1-8.1c0-4.5,3.7-8.1,8.1-8.1c4.5,0,8.1,3.7,8.1,8.1
				C685.7,550.9,682,554.5,677.5,554.5z"/>
			<path id="XMLID_1380_" class="st10" d="M511.5,201.3c0,0,0-7.5,8.3-8.7"/>
			<path id="XMLID_1388_" class="st7" d="M510.2,217.5c-4.5,0-8.1-3.7-8.1-8.1c0-4.5,3.7-8.1,8.1-8.1c4.5,0,8.1,3.7,8.1,8.1
				C518.3,213.8,514.7,217.5,510.2,217.5z"/>
			<path id="XMLID_76_" class="st6" d="M527.9,200.7c-4.5,0-8.1-3.7-8.1-8.1c0-4.5,3.7-8.1,8.1-8.1c4.5,0,8.1,3.7,8.1,8.1
				C536.1,197.1,532.4,200.7,527.9,200.7z"/>
			<g id="XMLID_68_">
				<polygon id="XMLID_75_" class="st4" points="656.6,507.1 659.4,497.3 662.5,503 666.4,491.2 670.8,500.4 673.7,497 676.1,507.1 
									"/>
				<polygon id="XMLID_74_" class="st5" points="664.1,497.3 665.8,499.6 667.1,497.8 668.2,498.9 669.7,497.3 666.4,491.2 				"/>
				<polygon id="XMLID_73_" class="st5" points="658.4,501.1 660.1,503.5 661.4,501 659.4,497.3 				"/>
			</g>
		</g>
		<g>
			<path class="st11" d="M509.6,131.3c-3.8-1.6-7.3-0.8-10.9-0.1c-3.4,0.7-6.6,1.4-9.8,0.1c-0.3-0.1-0.9-0.1-1.2,0.1
				c-0.3,0.2-0.7,0.5-0.7,0.8v14c0,0.1,0,0.2,0,0.3v10c0,0.6,0.4,1,1,1s1-0.4,1-1V148c2,0.3,2.6,0.5,3.7,0.5c2.1,0,4.3-0.4,6.4-0.9
				c3.4-0.7,6.7-1.4,9.9-0.1c0.3,0.1,0.5,0.1,0.8-0.1c0.3-0.2,0.3-0.5,0.3-0.8v-14.4C510,131.8,510,131.5,509.6,131.3z M508,145.2
				c-3-0.9-6.6-0.2-9.7,0.4c-3.2,0.7-6.3,1.3-9.3,0.3v-12.3c3,0.9,6.6,0.2,9.7-0.4c3.2-0.7,6.3-1.3,9.3-0.3V145.2z"/>
		</g>
		<g>
			<line class="st12" x1="492.9" y1="157.7" x2="495" y2="155.5"/>
			<line class="st12" x1="484" y1="157.7" x2="481.9" y2="155.5"/>
			<g id="XMLID_1389_">
				<circle id="XMLID_1410_" class="st7" cx="488.5" cy="164.8" r="8.1"/>
			</g>
			<polyline class="st13" points="487.5,162 487.5,165.5 490.2,168.8 			"/>
		</g>
		<g>
			<g>
				<path class="st14" d="M512.6,256c-3.8-1.6-7.3-0.8-10.9-0.1c-3.4,0.7-6.6,1.4-9.8,0.1c-0.3-0.1-0.9-0.1-1.2,0.1
					c-0.3,0.2-0.7,0.5-0.7,0.8v14c0,0.1,0,0.2,0,0.3v10c0,0.6,0.4,1,1,1s1-0.4,1-1v-8.5c1,0.3,2.6,0.5,3.7,0.5
					c2.1,0,4.3-0.4,6.4-0.9c3.4-0.7,6.7-1.4,9.9-0.1c0.3,0.1,0.5,0.1,0.7-0.1c0.3-0.2,0.2-0.5,0.2-0.8V257
					C513,256.6,513,256.2,512.6,256z M511,269.9c-3-0.9-6.6-0.2-9.7,0.4c-3.2,0.7-6.3,1.3-9.3,0.3v-12.3c3,0.9,6.6,0.2,9.7-0.4
					c3.2-0.7,6.3-1.3,9.3-0.3V269.9z"/>
			</g>
			<path id="XMLID_66_" class="st15" d="M496.5,304h8.3v-22.2h-26.9V304h8.3v-10.5c0-2.8,2.3-5.2,5.2-5.2c2.8,0,5.2,2.3,5.2,5.2
				L496.5,304z"/>
		</g>
		<g>
			<line class="st16" x1="578.9" y1="484.7" x2="581" y2="482.5"/>
			<line class="st16" x1="570" y1="484.7" x2="567.9" y2="482.5"/>
			<g id="XMLID_51_">
				<circle id="XMLID_169_" class="st17" cx="574.5" cy="491.8" r="8.1"/>
			</g>
			<polyline class="st18" points="573.5,489 573.5,492.5 576.2,495.8 			"/>
			<line class="st16" x1="574" y1="484" x2="574" y2="481"/>
		</g>
	</g>
</g>
<g>
	<g>
		<g>
			<rect x="79.5" y="407.5" class="st1" width="189.1" height="191.3"/>
			<g>
				<g id="XMLID_996_">
					<rect id="XMLID_315_" x="95.4" y="425.5" class="st19" width="177.7" height="77.3"/>
					<g class="st20">
						<path d="M96.7,425.5h4.4c0.5,0,0.9,0.1,1.3,0.2s0.7,0.4,1,0.7c0.3,0.3,0.5,0.6,0.6,1s0.2,0.8,0.2,1.3c0,0.5-0.1,0.9-0.2,1.4
							s-0.4,0.8-0.7,1c-0.3,0.3-0.7,0.5-1.1,0.7s-1,0.2-1.6,0.2h-2.4v3.9h-1.6V425.5z M100.9,430.6c0.6,0,1-0.2,1.3-0.5
							s0.4-0.8,0.4-1.3c0-0.3,0-0.5-0.1-0.7c-0.1-0.2-0.2-0.4-0.3-0.6s-0.3-0.3-0.5-0.4c-0.2-0.1-0.4-0.1-0.7-0.1h-2.7v3.8H100.9z"
							/>
						<path d="M110.6,434.8L110.6,434.8c-0.3,0.4-0.6,0.6-1,0.9s-1,0.3-1.6,0.3c-0.4,0-0.7-0.1-1-0.2c-0.3-0.1-0.5-0.2-0.7-0.4
							c-0.2-0.2-0.3-0.4-0.4-0.6c-0.1-0.2-0.1-0.5-0.1-0.8c0-0.5,0.1-1,0.4-1.3c0.2-0.3,0.5-0.5,0.9-0.7s0.8-0.3,1.2-0.3
							s0.9-0.1,1.2-0.2c0.3,0,0.5-0.1,0.7-0.1s0.3-0.1,0.4-0.1c0.1-0.1,0.1-0.1,0.2-0.2c0-0.1,0-0.2,0-0.3c0-0.4-0.1-0.7-0.4-1
							s-0.6-0.4-1.2-0.4c-0.5,0-0.9,0.1-1.2,0.3s-0.4,0.6-0.5,1.1H106c0.1-0.8,0.4-1.4,0.8-1.9c0.5-0.5,1.2-0.7,2.3-0.7
							c1,0,1.8,0.2,2.3,0.7c0.5,0.5,0.7,1.2,0.7,2.3v4.6h-1.5V434.8z M110.6,432.2c-0.4,0.1-0.8,0.2-1.2,0.2
							c-0.4,0.1-0.8,0.1-1.1,0.2s-0.6,0.2-0.8,0.4s-0.3,0.4-0.3,0.7c0,0.3,0.1,0.6,0.4,0.8s0.6,0.3,1,0.3c0.3,0,0.6,0,0.9-0.1
							c0.3-0.1,0.5-0.2,0.7-0.4s0.3-0.4,0.5-0.6c0.1-0.2,0.2-0.5,0.2-0.8V432.2z"/>
						<path d="M114.4,428.3h1.5v1.2h0c0.2-0.4,0.5-0.7,0.9-1s0.7-0.3,1.2-0.3c0,0,0.1,0,0.2,0s0.2,0,0.2,0v1.6c-0.1,0-0.2,0-0.3-0.1
							s-0.2,0-0.3,0c-0.6,0-1,0.2-1.4,0.5s-0.5,0.9-0.5,1.5v4.1h-1.5V428.3z"/>
						<path d="M126.3,433.1c0,0.9-0.4,1.7-0.9,2.2s-1.3,0.7-2.3,0.7c-0.6,0-1.1-0.1-1.6-0.3c-0.4-0.2-0.8-0.4-1.1-0.8
							s-0.5-0.8-0.7-1.2c-0.1-0.5-0.2-1-0.2-1.6s0.1-1.1,0.2-1.6c0.2-0.5,0.4-0.9,0.7-1.2c0.3-0.3,0.7-0.6,1.1-0.8s0.9-0.3,1.5-0.3
							c1,0,1.8,0.3,2.3,0.8c0.6,0.5,0.9,1.2,0.9,2.2h-1.5c0-0.5-0.2-1-0.5-1.3c-0.3-0.3-0.7-0.4-1.2-0.4c-0.6,0-1.1,0.2-1.5,0.7
							c-0.3,0.4-0.5,1.1-0.5,2c0,0.9,0.2,1.6,0.5,2s0.8,0.7,1.5,0.7c0.5,0,1-0.1,1.3-0.4c0.3-0.3,0.5-0.7,0.5-1.2H126.3z"/>
						<path d="M131.7,436c-0.6,0-1.1-0.1-1.5-0.3c-0.5-0.2-0.9-0.4-1.2-0.8s-0.6-0.8-0.7-1.2c-0.2-0.5-0.3-1-0.3-1.6
							s0.1-1.1,0.3-1.6c0.2-0.5,0.4-0.9,0.7-1.2c0.3-0.3,0.7-0.6,1.2-0.8s1-0.3,1.5-0.3s1.1,0.1,1.5,0.3s0.9,0.5,1.2,0.8
							c0.3,0.3,0.6,0.7,0.8,1.2c0.2,0.5,0.3,1,0.3,1.6s-0.1,1.1-0.3,1.6c-0.2,0.5-0.4,0.9-0.8,1.2s-0.7,0.6-1.2,0.8
							C132.8,435.9,132.3,436,131.7,436z M131.7,434.8c0.7,0,1.2-0.2,1.6-0.7c0.4-0.5,0.6-1.2,0.6-2c0-0.8-0.2-1.5-0.6-2
							c-0.4-0.5-0.9-0.7-1.6-0.7c-0.7,0-1.2,0.2-1.6,0.7c-0.4,0.5-0.6,1.2-0.6,2c0,0.8,0.2,1.5,0.6,2
							C130.5,434.6,131,434.8,131.7,434.8z"/>
						<path d="M137.4,428.3h1.5v4.5c0,0.6,0.1,1.1,0.3,1.4c0.2,0.3,0.6,0.5,1.1,0.5c0.6,0,1-0.2,1.4-0.6s0.5-0.9,0.5-1.5v-4.3h1.5
							v7.5h-1.5v-1.2h0c-0.2,0.4-0.5,0.7-0.9,1s-0.8,0.4-1.4,0.4c-0.9,0-1.5-0.2-1.8-0.7s-0.5-1.1-0.5-2V428.3z"/>
						<path d="M146,428.3h1.5v1.2h0c0.2-0.4,0.5-0.7,0.9-1s0.7-0.3,1.2-0.3c0,0,0.1,0,0.2,0s0.2,0,0.2,0v1.6c-0.1,0-0.2,0-0.3-0.1
							s-0.2,0-0.3,0c-0.6,0-1,0.2-1.4,0.5s-0.5,0.9-0.5,1.5v4.1H146V428.3z"/>
						<path d="M152.6,433.4c0,0.6,0.2,0.9,0.6,1.1s0.7,0.3,1.2,0.3c0.4,0,0.8-0.1,1-0.3s0.4-0.4,0.4-0.8c0-0.3-0.1-0.5-0.3-0.7
							s-0.5-0.3-0.8-0.4c-0.3-0.1-0.7-0.2-1.1-0.2c-0.4-0.1-0.7-0.2-1.1-0.3c-0.3-0.1-0.6-0.4-0.8-0.6c-0.2-0.3-0.3-0.7-0.3-1.2
							c0-0.3,0.1-0.6,0.2-0.9c0.1-0.3,0.3-0.5,0.5-0.7s0.5-0.4,0.9-0.5c0.3-0.1,0.8-0.2,1.2-0.2c0.9,0,1.6,0.2,2.1,0.6
							s0.8,1.1,0.8,1.9h-1.5c0-0.5-0.2-0.8-0.4-1.1c-0.3-0.2-0.6-0.3-1.1-0.3c-0.2,0-0.4,0-0.6,0.1s-0.3,0.1-0.4,0.2
							c-0.1,0.1-0.2,0.2-0.2,0.3s-0.1,0.2-0.1,0.4c0,0.3,0.1,0.5,0.3,0.6s0.5,0.2,0.8,0.3c0.3,0.1,0.7,0.2,1.1,0.3
							c0.4,0.1,0.7,0.2,1.1,0.3c0.3,0.2,0.6,0.4,0.8,0.7c0.2,0.3,0.3,0.7,0.3,1.2c0,0.7-0.2,1.2-0.7,1.6c-0.5,0.4-1.2,0.6-2.2,0.6
							c-1,0-1.8-0.2-2.3-0.6s-0.9-1.1-0.9-2H152.6z"/>
						<path d="M163.4,429.6h-1v-1.2h1v-1.9h1.5v1.9h1.8v1.2h-1.8v3.9c0,0.4,0.1,0.7,0.3,0.8s0.4,0.3,0.8,0.3c0.1,0,0.2,0,0.4,0
							s0.2,0,0.4,0v1.3c-0.2,0-0.3,0.1-0.5,0.1s-0.3,0-0.5,0c-0.7,0-1.3-0.2-1.7-0.6c-0.4-0.4-0.6-1-0.6-1.8V429.6z"/>
						<path d="M170.3,435.8l-3-7.5h1.6l2.1,5.8l1.9-5.8h1.6l-3.7,10.2h-1.6L170.3,435.8z"/>
						<path d="M176,428.3h1.5v1.2h0c0.2-0.4,0.5-0.7,0.9-0.9s0.9-0.4,1.5-0.4c0.5,0,1,0.1,1.4,0.3s0.7,0.5,1,0.8
							c0.3,0.3,0.5,0.7,0.6,1.2c0.1,0.5,0.2,1,0.2,1.6c0,0.6-0.1,1.1-0.2,1.6c-0.1,0.5-0.4,0.9-0.6,1.2s-0.6,0.6-1,0.8
							c-0.4,0.2-0.9,0.3-1.4,0.3c-0.6,0-1.1-0.1-1.5-0.4s-0.7-0.6-0.9-1h0v3.9H176V428.3z M179.6,434.8c0.6,0,1.2-0.2,1.5-0.7
							c0.4-0.5,0.6-1.2,0.6-2c0-0.9-0.2-1.5-0.5-2c-0.4-0.5-0.9-0.7-1.6-0.7c-0.7,0-1.2,0.2-1.5,0.7c-0.3,0.5-0.5,1.2-0.5,2
							s0.2,1.5,0.5,2S178.9,434.8,179.6,434.8z"/>
						<path d="M191.4,433.3c0,0.4-0.1,0.8-0.3,1.1s-0.4,0.6-0.7,0.9s-0.6,0.4-1,0.6c-0.4,0.1-0.8,0.2-1.3,0.2
							c-0.6,0-1.1-0.1-1.6-0.3c-0.4-0.2-0.8-0.4-1.1-0.8s-0.5-0.8-0.6-1.2c-0.1-0.5-0.2-1-0.2-1.6s0.1-1.1,0.2-1.6
							c0.1-0.5,0.4-0.9,0.7-1.2c0.3-0.3,0.7-0.6,1.1-0.8s0.9-0.3,1.5-0.3s1.1,0.1,1.5,0.3s0.8,0.4,1,0.8c0.3,0.3,0.5,0.7,0.6,1.2
							c0.1,0.5,0.2,1,0.2,1.6v0.2h-5.3c0,0.8,0.2,1.4,0.5,1.8s0.8,0.6,1.4,0.6c0.5,0,0.9-0.1,1.3-0.4s0.5-0.6,0.6-1.1H191.4z
							 M189.9,431.3c0-0.6-0.2-1-0.5-1.4s-0.7-0.6-1.3-0.6c-0.6,0-1,0.2-1.3,0.5c-0.3,0.3-0.5,0.8-0.6,1.5H189.9z"/>
					</g>
					<g class="st20">
						<path d="M101.7,451.4L101.7,451.4c-0.3,0.4-0.6,0.7-0.9,1s-0.9,0.4-1.5,0.4c-0.5,0-1-0.1-1.4-0.3c-0.4-0.2-0.7-0.5-1-0.8
							s-0.5-0.8-0.6-1.2c-0.1-0.5-0.2-1-0.2-1.5c0-0.6,0.1-1.1,0.2-1.6c0.1-0.5,0.3-0.9,0.6-1.2c0.3-0.3,0.6-0.6,1-0.8
							s0.9-0.3,1.4-0.3c0.6,0,1.1,0.1,1.5,0.4s0.7,0.6,0.9,0.9h0v-4h1.5v10.4h-1.5V451.4z M99.7,451.6c0.7,0,1.2-0.2,1.5-0.7
							c0.3-0.5,0.5-1.2,0.5-2c0-0.9-0.2-1.5-0.5-2c-0.3-0.5-0.8-0.7-1.5-0.7c-0.6,0-1.2,0.2-1.5,0.7c-0.4,0.5-0.6,1.2-0.6,2
							c0,0.9,0.2,1.5,0.5,2S99.1,451.6,99.7,451.6z"/>
						<path d="M105.6,445.1h1.5v4.5c0,0.6,0.1,1.1,0.3,1.4c0.2,0.3,0.6,0.5,1.1,0.5c0.6,0,1-0.2,1.4-0.6s0.5-0.9,0.5-1.5v-4.3h1.5
							v7.5h-1.5v-1.2h0c-0.2,0.4-0.5,0.7-0.9,1s-0.8,0.4-1.4,0.4c-0.9,0-1.5-0.2-1.8-0.7s-0.5-1.1-0.5-2V445.1z"/>
						<path d="M120.9,443.6h-3.3v-1.4h8.2v1.4h-3.3v9h-1.6V443.6z"/>
						<path d="M130.6,452.8c-0.6,0-1.1-0.1-1.5-0.3c-0.5-0.2-0.9-0.4-1.2-0.8s-0.6-0.8-0.7-1.2c-0.2-0.5-0.3-1-0.3-1.6
							s0.1-1.1,0.3-1.6c0.2-0.5,0.4-0.9,0.7-1.2c0.3-0.3,0.7-0.6,1.2-0.8s1-0.3,1.5-0.3s1.1,0.1,1.5,0.3s0.9,0.5,1.2,0.8
							c0.3,0.3,0.6,0.7,0.8,1.2c0.2,0.5,0.3,1,0.3,1.6s-0.1,1.1-0.3,1.6c-0.2,0.5-0.4,0.9-0.8,1.2s-0.7,0.6-1.2,0.8
							C131.7,452.7,131.2,452.8,130.6,452.8z M130.6,451.6c0.7,0,1.2-0.2,1.6-0.7c0.4-0.5,0.6-1.2,0.6-2c0-0.8-0.2-1.5-0.6-2
							c-0.4-0.5-0.9-0.7-1.6-0.7c-0.7,0-1.2,0.2-1.6,0.7c-0.4,0.5-0.6,1.2-0.6,2c0,0.8,0.2,1.5,0.6,2
							C129.4,451.4,129.9,451.6,130.6,451.6z"/>
						<path d="M136.3,445.1h1.5v4.5c0,0.6,0.1,1.1,0.3,1.4c0.2,0.3,0.6,0.5,1.1,0.5c0.6,0,1-0.2,1.4-0.6s0.5-0.9,0.5-1.5v-4.3h1.5
							v7.5h-1.5v-1.2h0c-0.2,0.4-0.5,0.7-0.9,1s-0.8,0.4-1.4,0.4c-0.9,0-1.5-0.2-1.8-0.7s-0.5-1.1-0.5-2V445.1z"/>
						<path d="M145,445.1h1.5v1.2h0c0.2-0.4,0.5-0.7,0.9-1s0.7-0.3,1.2-0.3c0,0,0.1,0,0.2,0s0.2,0,0.2,0v1.6c-0.1,0-0.2,0-0.3-0.1
							s-0.2,0-0.3,0c-0.6,0-1,0.2-1.4,0.5s-0.5,0.9-0.5,1.5v4.1H145V445.1z"/>
						<path d="M159.9,451.4L159.9,451.4c-0.3,0.4-0.6,0.7-0.9,1s-0.9,0.4-1.5,0.4c-0.5,0-1-0.1-1.4-0.3c-0.4-0.2-0.7-0.5-1-0.8
							s-0.5-0.8-0.6-1.2c-0.1-0.5-0.2-1-0.2-1.5c0-0.6,0.1-1.1,0.2-1.6c0.1-0.5,0.3-0.9,0.6-1.2c0.3-0.3,0.6-0.6,1-0.8
							s0.9-0.3,1.4-0.3c0.6,0,1.1,0.1,1.5,0.4s0.7,0.6,0.9,0.9h0v-4h1.5v10.4h-1.5V451.4z M157.9,451.6c0.7,0,1.2-0.2,1.5-0.7
							c0.3-0.5,0.5-1.2,0.5-2c0-0.9-0.2-1.5-0.5-2c-0.3-0.5-0.8-0.7-1.5-0.7c-0.6,0-1.2,0.2-1.5,0.7c-0.4,0.5-0.6,1.2-0.6,2
							c0,0.9,0.2,1.5,0.5,2S157.2,451.6,157.9,451.6z"/>
						<path d="M170.1,450.1c0,0.4-0.1,0.8-0.3,1.1s-0.4,0.6-0.7,0.9s-0.6,0.4-1,0.6c-0.4,0.1-0.8,0.2-1.3,0.2
							c-0.6,0-1.1-0.1-1.6-0.3c-0.4-0.2-0.8-0.4-1.1-0.8s-0.5-0.8-0.6-1.2c-0.1-0.5-0.2-1-0.2-1.6s0.1-1.1,0.2-1.6
							c0.1-0.5,0.4-0.9,0.7-1.2c0.3-0.3,0.7-0.6,1.1-0.8s0.9-0.3,1.5-0.3s1.1,0.1,1.5,0.3s0.8,0.4,1,0.8c0.3,0.3,0.5,0.7,0.6,1.2
							c0.1,0.5,0.2,1,0.2,1.6v0.2h-5.3c0,0.8,0.2,1.4,0.5,1.8s0.8,0.6,1.4,0.6c0.5,0,0.9-0.1,1.3-0.4s0.5-0.6,0.6-1.1H170.1z
							 M168.6,448.1c0-0.6-0.2-1-0.5-1.4s-0.7-0.6-1.3-0.6c-0.6,0-1,0.2-1.3,0.5c-0.3,0.3-0.5,0.8-0.6,1.5H168.6z"/>
						<path d="M176.5,442.3h6.6v1.4h-5v3.1h4.7v1.3h-4.7v4.6h-1.6V442.3z"/>
						<path d="M185.3,445.1h1.5v1.2h0c0.2-0.4,0.5-0.7,0.9-1s0.7-0.3,1.2-0.3c0,0,0.1,0,0.2,0s0.2,0,0.2,0v1.6c-0.1,0-0.2,0-0.3-0.1
							s-0.2,0-0.3,0c-0.6,0-1,0.2-1.4,0.5s-0.5,0.9-0.5,1.5v4.1h-1.5V445.1z"/>
						<path d="M195.3,451.6L195.3,451.6c-0.3,0.4-0.6,0.6-1,0.9s-1,0.3-1.6,0.3c-0.4,0-0.7-0.1-1-0.2c-0.3-0.1-0.5-0.2-0.7-0.4
							c-0.2-0.2-0.3-0.4-0.4-0.6c-0.1-0.2-0.1-0.5-0.1-0.8c0-0.5,0.1-1,0.4-1.3c0.2-0.3,0.5-0.5,0.9-0.7s0.8-0.3,1.2-0.3
							s0.9-0.1,1.2-0.2c0.3,0,0.5-0.1,0.7-0.1s0.3-0.1,0.4-0.1c0.1-0.1,0.1-0.1,0.2-0.2c0-0.1,0-0.2,0-0.3c0-0.4-0.1-0.7-0.4-1
							s-0.6-0.4-1.2-0.4c-0.5,0-0.9,0.1-1.2,0.3s-0.4,0.6-0.5,1.1h-1.4c0.1-0.8,0.4-1.4,0.8-1.9c0.5-0.5,1.2-0.7,2.3-0.7
							c1,0,1.8,0.2,2.3,0.7c0.5,0.5,0.7,1.2,0.7,2.3v4.6h-1.5V451.6z M195.3,449c-0.4,0.1-0.8,0.2-1.2,0.2c-0.4,0.1-0.8,0.1-1.1,0.2
							s-0.6,0.2-0.8,0.4s-0.3,0.4-0.3,0.7c0,0.3,0.1,0.6,0.4,0.8s0.6,0.3,1,0.3c0.3,0,0.6,0,0.9-0.1c0.3-0.1,0.5-0.2,0.7-0.4
							s0.3-0.4,0.5-0.6c0.1-0.2,0.2-0.5,0.2-0.8V449z"/>
						<path d="M199,445.1h1.5v1.2h0c0.3-0.4,0.6-0.7,0.9-1s0.9-0.3,1.5-0.3c0.9,0,1.5,0.2,1.9,0.7c0.4,0.5,0.6,1.1,0.6,2v4.9H204
							v-4.5c0-0.6-0.1-1.1-0.3-1.4s-0.6-0.5-1.1-0.5c-0.6,0-1.1,0.2-1.4,0.6s-0.5,0.9-0.5,1.5v4.3H199V445.1z"/>
						<path d="M214.2,449.9c0,0.9-0.4,1.7-0.9,2.2s-1.3,0.7-2.3,0.7c-0.6,0-1.1-0.1-1.6-0.3c-0.4-0.2-0.8-0.4-1.1-0.8
							s-0.5-0.8-0.7-1.2c-0.1-0.5-0.2-1-0.2-1.6s0.1-1.1,0.2-1.6c0.2-0.5,0.4-0.9,0.7-1.2c0.3-0.3,0.7-0.6,1.1-0.8s0.9-0.3,1.5-0.3
							c1,0,1.8,0.3,2.3,0.8c0.6,0.5,0.9,1.2,0.9,2.2h-1.5c0-0.5-0.2-1-0.5-1.3c-0.3-0.3-0.7-0.4-1.2-0.4c-0.6,0-1.1,0.2-1.5,0.7
							c-0.3,0.4-0.5,1.1-0.5,2c0,0.9,0.2,1.6,0.5,2s0.8,0.7,1.5,0.7c0.5,0,1-0.1,1.3-0.4c0.3-0.3,0.5-0.7,0.5-1.2H214.2z"/>
						<path d="M222.6,450.1c0,0.4-0.1,0.8-0.3,1.1s-0.4,0.6-0.7,0.9s-0.6,0.4-1,0.6c-0.4,0.1-0.8,0.2-1.3,0.2
							c-0.6,0-1.1-0.1-1.6-0.3c-0.4-0.2-0.8-0.4-1.1-0.8s-0.5-0.8-0.6-1.2c-0.1-0.5-0.2-1-0.2-1.6s0.1-1.1,0.2-1.6
							c0.1-0.5,0.4-0.9,0.7-1.2c0.3-0.3,0.7-0.6,1.1-0.8s0.9-0.3,1.5-0.3s1.1,0.1,1.5,0.3s0.8,0.4,1,0.8c0.3,0.3,0.5,0.7,0.6,1.2
							c0.1,0.5,0.2,1,0.2,1.6v0.2h-5.3c0,0.8,0.2,1.4,0.5,1.8s0.8,0.6,1.4,0.6c0.5,0,0.9-0.1,1.3-0.4s0.5-0.6,0.6-1.1H222.6z
							 M221.1,448.1c0-0.6-0.2-1-0.5-1.4s-0.7-0.6-1.3-0.6c-0.6,0-1,0.2-1.3,0.5c-0.3,0.3-0.5,0.8-0.6,1.5H221.1z"/>
					</g>
					<g class="st20">
						<path d="M96.7,468.1H99v-7.2l-2.2,1.4l-0.7-1.1l3.3-2.2h1.2v9.1h2v1.3h-5.9V468.1z"/>
						<path d="M105.6,466.3c0.1,0.6,0.3,1.1,0.6,1.5s0.8,0.5,1.4,0.5c0.3,0,0.6-0.1,0.9-0.2c0.3-0.1,0.5-0.3,0.7-0.6
							c0.2-0.3,0.4-0.7,0.5-1.3s0.2-1.2,0.2-2.1c-0.2,0.4-0.5,0.8-1,1c-0.4,0.2-1,0.4-1.6,0.4c-0.4,0-0.9-0.1-1.2-0.2
							s-0.7-0.3-1-0.6c-0.3-0.3-0.5-0.6-0.7-1s-0.2-0.9-0.2-1.4c0-0.5,0.1-1,0.2-1.4s0.4-0.8,0.7-1.1c0.3-0.3,0.7-0.5,1.1-0.7
							s0.9-0.2,1.5-0.2c0.6,0,1.1,0.1,1.5,0.3s0.9,0.5,1.2,0.9s0.6,1,0.7,1.6c0.2,0.7,0.3,1.5,0.3,2.4c0,1.8-0.3,3.2-1,4.1
							c-0.6,0.9-1.6,1.3-2.8,1.3c-1,0-1.8-0.3-2.4-0.9c-0.6-0.6-0.9-1.4-1-2.4H105.6z M107.5,464.3c0.6,0,1.1-0.2,1.4-0.5
							c0.4-0.4,0.5-0.8,0.5-1.4c0-0.3,0-0.6-0.1-0.8c-0.1-0.3-0.2-0.5-0.4-0.7s-0.4-0.3-0.6-0.4c-0.2-0.1-0.5-0.2-0.8-0.2
							c-0.3,0-0.5,0.1-0.8,0.2c-0.2,0.1-0.4,0.2-0.6,0.4s-0.3,0.4-0.4,0.7c-0.1,0.3-0.1,0.5-0.1,0.8c0,0.6,0.2,1.1,0.5,1.5
							S106.9,464.3,107.5,464.3z"/>
						<path d="M115.7,469.6c-0.5,0-1-0.1-1.4-0.3s-0.8-0.5-1.2-0.9s-0.6-1-0.8-1.7c-0.2-0.7-0.3-1.5-0.3-2.4s0.1-1.8,0.3-2.4
							c0.2-0.7,0.5-1.2,0.8-1.7s0.7-0.7,1.2-0.9s0.9-0.3,1.4-0.3c0.5,0,1,0.1,1.4,0.3s0.8,0.5,1.2,0.9s0.6,1,0.8,1.7
							c0.2,0.7,0.3,1.5,0.3,2.4s-0.1,1.8-0.3,2.4c-0.2,0.7-0.5,1.2-0.8,1.7s-0.7,0.7-1.2,0.9S116.2,469.6,115.7,469.6z M115.7,468.3
							c0.3,0,0.5-0.1,0.8-0.2c0.3-0.1,0.5-0.3,0.7-0.6c0.2-0.3,0.3-0.7,0.5-1.2s0.2-1.2,0.2-2s-0.1-1.5-0.2-2
							c-0.1-0.5-0.3-0.9-0.5-1.2c-0.2-0.3-0.4-0.5-0.7-0.6s-0.5-0.2-0.8-0.2c-0.3,0-0.5,0.1-0.8,0.2s-0.5,0.3-0.7,0.6
							c-0.2,0.3-0.3,0.7-0.5,1.2c-0.1,0.5-0.2,1.2-0.2,2s0.1,1.5,0.2,2s0.3,0.9,0.5,1.2c0.2,0.3,0.4,0.5,0.7,0.6
							C115.2,468.2,115.4,468.3,115.7,468.3z"/>
						<path d="M121.7,466.1c0.1,0.7,0.3,1.3,0.7,1.6c0.4,0.4,0.9,0.5,1.6,0.5c0.6,0,1.1-0.2,1.5-0.5c0.3-0.3,0.5-0.7,0.5-1.3
							s-0.2-1-0.5-1.3c-0.3-0.3-0.8-0.5-1.3-0.5h-1.4v-1.2h1c0.5,0,0.9-0.2,1.2-0.5s0.4-0.7,0.4-1.2c0-0.4-0.1-0.8-0.4-1.1
							s-0.7-0.5-1.2-0.5c-0.6,0-1,0.2-1.3,0.5s-0.5,0.9-0.5,1.5h-1.6c0.1-1.1,0.4-1.9,1-2.5c0.6-0.6,1.4-0.8,2.5-0.8
							c0.5,0,1,0.1,1.3,0.2c0.4,0.1,0.7,0.3,1,0.5c0.3,0.2,0.5,0.5,0.6,0.8c0.1,0.3,0.2,0.7,0.2,1.1c0,0.5-0.1,1-0.3,1.3
							c-0.2,0.4-0.5,0.7-1,0.9c0.6,0.2,1,0.6,1.3,1c0.3,0.5,0.5,1,0.5,1.7c0,0.5-0.1,0.9-0.2,1.2s-0.4,0.7-0.7,1
							c-0.3,0.3-0.7,0.5-1.1,0.6c-0.5,0.1-1,0.2-1.6,0.2c-0.6,0-1.2-0.1-1.6-0.2c-0.5-0.2-0.8-0.4-1.1-0.7c-0.3-0.3-0.5-0.7-0.7-1.1
							c-0.2-0.4-0.2-0.9-0.3-1.4H121.7z"/>
						<path d="M132.8,464.3h5.6v1.2h-5.6V464.3z"/>
						<path d="M144,468.2c0.8-0.8,1.5-1.4,2.1-2s1.2-1.1,1.6-1.6c0.4-0.5,0.8-0.9,1-1.3s0.4-0.9,0.4-1.3c0-0.5-0.1-0.9-0.4-1.2
							c-0.3-0.3-0.7-0.5-1.3-0.5c-0.6,0-1,0.2-1.4,0.5s-0.5,0.9-0.6,1.6h-1.6c0-0.5,0.1-1,0.3-1.4s0.4-0.8,0.7-1.1
							c0.3-0.3,0.7-0.5,1.1-0.7s0.9-0.2,1.4-0.2c0.6,0,1,0.1,1.5,0.2c0.4,0.1,0.8,0.3,1,0.6c0.3,0.3,0.5,0.6,0.6,0.9
							s0.2,0.8,0.2,1.2c0,0.6-0.1,1.1-0.4,1.6c-0.3,0.5-0.6,1-1,1.5c-0.4,0.5-0.9,1-1.5,1.5c-0.6,0.5-1.1,1.1-1.8,1.7h4.7v1.3H144
							V468.2z"/>
						<path d="M155.4,469.6c-0.5,0-1-0.1-1.4-0.3s-0.8-0.5-1.2-0.9s-0.6-1-0.8-1.7c-0.2-0.7-0.3-1.5-0.3-2.4s0.1-1.8,0.3-2.4
							c0.2-0.7,0.5-1.2,0.8-1.7s0.7-0.7,1.2-0.9s0.9-0.3,1.4-0.3c0.5,0,1,0.1,1.4,0.3s0.8,0.5,1.2,0.9s0.6,1,0.8,1.7
							c0.2,0.7,0.3,1.5,0.3,2.4s-0.1,1.8-0.3,2.4c-0.2,0.7-0.5,1.2-0.8,1.7s-0.7,0.7-1.2,0.9S155.9,469.6,155.4,469.6z M155.4,468.3
							c0.3,0,0.5-0.1,0.8-0.2c0.3-0.1,0.5-0.3,0.7-0.6c0.2-0.3,0.3-0.7,0.5-1.2s0.2-1.2,0.2-2s-0.1-1.5-0.2-2
							c-0.1-0.5-0.3-0.9-0.5-1.2c-0.2-0.3-0.4-0.5-0.7-0.6s-0.5-0.2-0.8-0.2c-0.3,0-0.5,0.1-0.8,0.2s-0.5,0.3-0.7,0.6
							c-0.2,0.3-0.3,0.7-0.5,1.2c-0.1,0.5-0.2,1.2-0.2,2s0.1,1.5,0.2,2s0.3,0.9,0.5,1.2c0.2,0.3,0.4,0.5,0.7,0.6
							C154.9,468.2,155.1,468.3,155.4,468.3z"/>
						<path d="M160.8,468.1h2.3v-7.2l-2.2,1.4l-0.7-1.1l3.3-2.2h1.2v9.1h2v1.3h-5.9V468.1z"/>
						<path d="M173.7,462.2c-0.1-0.6-0.3-1.1-0.6-1.5s-0.8-0.5-1.3-0.5c-0.3,0-0.6,0.1-0.9,0.2s-0.5,0.3-0.7,0.7
							c-0.2,0.3-0.4,0.7-0.5,1.3c-0.1,0.5-0.2,1.2-0.2,2.1c0.2-0.4,0.5-0.8,1-1c0.4-0.2,1-0.4,1.6-0.4c0.4,0,0.9,0.1,1.2,0.2
							c0.4,0.1,0.7,0.3,1,0.6c0.3,0.3,0.5,0.6,0.7,1s0.3,0.9,0.3,1.4c0,0.5-0.1,1-0.2,1.4s-0.4,0.8-0.7,1.1
							c-0.3,0.3-0.7,0.5-1.1,0.7c-0.4,0.2-0.9,0.2-1.5,0.2c-0.6,0-1.1-0.1-1.6-0.3s-0.8-0.5-1.2-0.9s-0.6-1-0.7-1.6
							c-0.2-0.7-0.3-1.4-0.3-2.4c0-1.8,0.3-3.2,1-4.1s1.6-1.3,2.8-1.3c1,0,1.8,0.3,2.4,0.9s0.9,1.4,1,2.4H173.7z M171.9,468.3
							c0.3,0,0.6-0.1,0.8-0.2c0.2-0.1,0.4-0.2,0.6-0.4s0.3-0.4,0.4-0.7s0.1-0.5,0.1-0.8c0-0.6-0.2-1.1-0.5-1.5s-0.8-0.6-1.4-0.6
							c-0.6,0-1,0.2-1.4,0.5s-0.5,0.8-0.5,1.4c0,0.3,0,0.6,0.1,0.8s0.2,0.5,0.4,0.7s0.4,0.3,0.6,0.4
							C171.3,468.3,171.6,468.3,171.9,468.3z"/>
						<path d="M183,471.1c-0.3-0.3-0.5-0.7-0.8-1.1s-0.5-0.9-0.7-1.4c-0.2-0.5-0.3-1-0.5-1.6s-0.2-1.2-0.2-1.9
							c0-0.7,0.1-1.3,0.2-1.9s0.3-1.1,0.5-1.6c0.2-0.5,0.4-1,0.7-1.4c0.3-0.4,0.5-0.8,0.8-1.1h1.2c-0.7,1-1.2,1.9-1.5,2.9
							c-0.3,1-0.4,2-0.4,3.1s0.1,2.1,0.4,3.1c0.3,1,0.8,2,1.5,2.9H183z"/>
						<path d="M186.1,466.1c0.1,0.7,0.3,1.3,0.7,1.6c0.4,0.4,0.9,0.5,1.6,0.5c0.6,0,1.1-0.2,1.5-0.5c0.3-0.3,0.5-0.7,0.5-1.3
							s-0.2-1-0.5-1.3c-0.3-0.3-0.8-0.5-1.3-0.5h-1.4v-1.2h1c0.5,0,0.9-0.2,1.2-0.5s0.4-0.7,0.4-1.2c0-0.4-0.1-0.8-0.4-1.1
							s-0.7-0.5-1.2-0.5c-0.6,0-1,0.2-1.3,0.5s-0.5,0.9-0.5,1.5h-1.6c0.1-1.1,0.4-1.9,1-2.5c0.6-0.6,1.4-0.8,2.5-0.8
							c0.5,0,1,0.1,1.3,0.2c0.4,0.1,0.7,0.3,1,0.5c0.3,0.2,0.5,0.5,0.6,0.8c0.1,0.3,0.2,0.7,0.2,1.1c0,0.5-0.1,1-0.3,1.3
							c-0.2,0.4-0.5,0.7-1,0.9c0.6,0.2,1,0.6,1.3,1c0.3,0.5,0.5,1,0.5,1.7c0,0.5-0.1,0.9-0.2,1.2s-0.4,0.7-0.7,1
							c-0.3,0.3-0.7,0.5-1.1,0.6c-0.5,0.1-1,0.2-1.6,0.2c-0.6,0-1.2-0.1-1.6-0.2c-0.5-0.2-0.8-0.4-1.1-0.7c-0.3-0.3-0.5-0.7-0.7-1.1
							c-0.2-0.4-0.2-0.9-0.3-1.4H186.1z"/>
						<path d="M202.4,460.4h-5.2v-1.3h6.9v1.3l-4.4,9.1h-1.8L202.4,460.4z"/>
						<path d="M208.7,469.6c-0.5,0-1-0.1-1.4-0.3s-0.8-0.5-1.2-0.9s-0.6-1-0.8-1.7c-0.2-0.7-0.3-1.5-0.3-2.4s0.1-1.8,0.3-2.4
							c0.2-0.7,0.5-1.2,0.8-1.7s0.7-0.7,1.2-0.9s0.9-0.3,1.4-0.3c0.5,0,1,0.1,1.4,0.3s0.8,0.5,1.2,0.9s0.6,1,0.8,1.7
							c0.2,0.7,0.3,1.5,0.3,2.4s-0.1,1.8-0.3,2.4c-0.2,0.7-0.5,1.2-0.8,1.7s-0.7,0.7-1.2,0.9S209.3,469.6,208.7,469.6z M208.7,468.3
							c0.3,0,0.5-0.1,0.8-0.2c0.3-0.1,0.5-0.3,0.7-0.6c0.2-0.3,0.3-0.7,0.5-1.2s0.2-1.2,0.2-2s-0.1-1.5-0.2-2
							c-0.1-0.5-0.3-0.9-0.5-1.2c-0.2-0.3-0.4-0.5-0.7-0.6s-0.5-0.2-0.8-0.2c-0.3,0-0.5,0.1-0.8,0.2s-0.5,0.3-0.7,0.6
							c-0.2,0.3-0.3,0.7-0.5,1.2c-0.1,0.5-0.2,1.2-0.2,2s0.1,1.5,0.2,2s0.3,0.9,0.5,1.2c0.2,0.3,0.4,0.5,0.7,0.6
							C208.2,468.2,208.5,468.3,208.7,468.3z"/>
						<path d="M216.9,469.6c-0.5,0-1-0.1-1.4-0.3s-0.8-0.5-1.2-0.9s-0.6-1-0.8-1.7c-0.2-0.7-0.3-1.5-0.3-2.4s0.1-1.8,0.3-2.4
							c0.2-0.7,0.5-1.2,0.8-1.7s0.7-0.7,1.2-0.9s0.9-0.3,1.4-0.3c0.5,0,1,0.1,1.4,0.3s0.8,0.5,1.2,0.9s0.6,1,0.8,1.7
							c0.2,0.7,0.3,1.5,0.3,2.4s-0.1,1.8-0.3,2.4c-0.2,0.7-0.5,1.2-0.8,1.7s-0.7,0.7-1.2,0.9S217.4,469.6,216.9,469.6z M216.9,468.3
							c0.3,0,0.5-0.1,0.8-0.2c0.3-0.1,0.5-0.3,0.7-0.6c0.2-0.3,0.3-0.7,0.5-1.2s0.2-1.2,0.2-2s-0.1-1.5-0.2-2
							c-0.1-0.5-0.3-0.9-0.5-1.2c-0.2-0.3-0.4-0.5-0.7-0.6s-0.5-0.2-0.8-0.2c-0.3,0-0.5,0.1-0.8,0.2s-0.5,0.3-0.7,0.6
							c-0.2,0.3-0.3,0.7-0.5,1.2c-0.1,0.5-0.2,1.2-0.2,2s0.1,1.5,0.2,2s0.3,0.9,0.5,1.2c0.2,0.3,0.4,0.5,0.7,0.6
							C216.3,468.2,216.6,468.3,216.9,468.3z"/>
						<path d="M226.3,459.1h1.5v6.3l3.1-3.4h1.9l-3.3,3.4l3.6,4.1h-1.9l-3.5-4.1v4.1h-1.5V459.1z"/>
						<path d="M234.7,461.9h1.5v1.2h0c0.2-0.4,0.5-0.7,0.8-1s0.8-0.4,1.3-0.4c0.6,0,1,0.1,1.4,0.4s0.6,0.6,0.7,1h0
							c0.2-0.4,0.5-0.8,0.9-1c0.4-0.2,0.8-0.4,1.4-0.4c0.8,0,1.4,0.2,1.8,0.7c0.4,0.5,0.6,1.1,0.6,2v4.9h-1.5v-4.5
							c0-0.6-0.1-1.1-0.3-1.4s-0.5-0.4-1-0.4c-0.5,0-0.9,0.2-1.2,0.5s-0.5,0.8-0.5,1.5v4.4h-1.5v-4.5c0-0.6-0.1-1.1-0.3-1.4
							s-0.5-0.5-1-0.5c-0.6,0-1,0.2-1.3,0.5s-0.5,0.9-0.5,1.5v4.3h-1.5V461.9z"/>
						<path d="M246.5,471.1c0.7-1,1.2-1.9,1.4-2.9c0.3-1,0.4-2,0.4-3.1s-0.1-2.1-0.4-3.1c-0.3-1-0.8-2-1.4-2.9h1.2
							c0.3,0.3,0.5,0.7,0.8,1.1c0.3,0.4,0.5,0.9,0.7,1.4c0.2,0.5,0.3,1,0.5,1.6s0.2,1.2,0.2,1.9c0,0.7-0.1,1.3-0.2,1.9
							c-0.1,0.6-0.3,1.1-0.5,1.6c-0.2,0.5-0.4,1-0.7,1.4s-0.5,0.8-0.8,1.1H246.5z"/>
					</g>
				</g>
			</g>
		</g>
	</g>
	<g>
		<path id="XMLID_1921_" class="st7" d="M120.9,510.2c-4.5,0-8.1-3.7-8.1-8.1c0-4.5,3.7-8.1,8.1-8.1c4.5,0,8.1,3.7,8.1,8.1
			S125.4,510.2,120.9,510.2z"/>
		<g id="XMLID_1929_">
			<rect id="XMLID_321_" x="107.7" y="517.2" class="st19" width="26.5" height="24.9"/>
			<g class="st20">
				<path d="M109.8,517.2h1.9c0.4,0,0.7,0.1,1,0.2s0.6,0.3,0.8,0.5c0.2,0.2,0.4,0.5,0.5,0.8c0.1,0.3,0.2,0.7,0.2,1.1
					c0,0.4-0.1,0.7-0.2,1.1s-0.3,0.6-0.5,0.8c-0.2,0.2-0.5,0.4-0.8,0.5c-0.3,0.1-0.6,0.2-1,0.2h-1.9V517.2z M111.7,521.7
					c0.2,0,0.4,0,0.6-0.1c0.2-0.1,0.4-0.2,0.5-0.4c0.1-0.2,0.2-0.4,0.3-0.6c0.1-0.2,0.1-0.5,0.1-0.8c0-0.3,0-0.5-0.1-0.8
					c-0.1-0.2-0.2-0.4-0.3-0.6c-0.1-0.2-0.3-0.3-0.5-0.4s-0.4-0.1-0.6-0.1h-1.1v3.8H111.7z"/>
				<path d="M118.3,521.1c0,0.2-0.1,0.4-0.1,0.5s-0.2,0.3-0.3,0.4c-0.1,0.1-0.3,0.2-0.5,0.3c-0.2,0.1-0.4,0.1-0.7,0.1
					c-0.3,0-0.6,0-0.8-0.1c-0.2-0.1-0.4-0.2-0.5-0.4c-0.1-0.2-0.3-0.4-0.3-0.6c-0.1-0.2-0.1-0.5-0.1-0.8c0-0.3,0-0.6,0.1-0.8
					c0.1-0.2,0.2-0.4,0.3-0.6c0.1-0.2,0.3-0.3,0.5-0.4c0.2-0.1,0.5-0.1,0.8-0.1s0.5,0,0.8,0.1c0.2,0.1,0.4,0.2,0.5,0.4
					c0.1,0.2,0.2,0.4,0.3,0.6c0.1,0.2,0.1,0.5,0.1,0.8v0.1h-2.6c0,0.4,0.1,0.7,0.3,0.9c0.2,0.2,0.4,0.3,0.7,0.3
					c0.3,0,0.5-0.1,0.6-0.2c0.2-0.1,0.3-0.3,0.3-0.6H118.3z M117.6,520.1c0-0.3-0.1-0.5-0.2-0.7c-0.2-0.2-0.4-0.3-0.7-0.3
					c-0.3,0-0.5,0.1-0.7,0.2s-0.3,0.4-0.3,0.7H117.6z M117.1,517.2h0.9l-1,1h-0.6L117.1,517.2z"/>
				<path d="M119.4,518.6h0.7v0.6h0c0.1-0.2,0.3-0.4,0.5-0.5c0.2-0.1,0.4-0.2,0.7-0.2c0.3,0,0.5,0,0.7,0.1c0.2,0.1,0.4,0.2,0.5,0.4
					c0.1,0.2,0.2,0.4,0.3,0.6s0.1,0.5,0.1,0.8c0,0.3,0,0.6-0.1,0.8s-0.2,0.4-0.3,0.6c-0.1,0.2-0.3,0.3-0.5,0.4s-0.4,0.1-0.7,0.1
					c-0.3,0-0.5-0.1-0.7-0.2s-0.3-0.3-0.5-0.5h0v2h-0.7V518.6z M121.1,521.9c0.3,0,0.6-0.1,0.8-0.4c0.2-0.2,0.3-0.6,0.3-1
					c0-0.4-0.1-0.8-0.3-1c-0.2-0.2-0.4-0.4-0.8-0.4c-0.4,0-0.6,0.1-0.8,0.4c-0.2,0.2-0.2,0.6-0.2,1s0.1,0.8,0.2,1
					C120.5,521.8,120.8,521.9,121.1,521.9z"/>
				<path d="M126.1,521.9L126.1,521.9c-0.1,0.2-0.3,0.3-0.5,0.4c-0.2,0.1-0.5,0.2-0.8,0.2c-0.2,0-0.4,0-0.5-0.1
					c-0.1-0.1-0.3-0.1-0.4-0.2s-0.2-0.2-0.2-0.3c0-0.1-0.1-0.2-0.1-0.4c0-0.3,0.1-0.5,0.2-0.6c0.1-0.1,0.3-0.3,0.5-0.3
					c0.2-0.1,0.4-0.1,0.6-0.2c0.2,0,0.4-0.1,0.6-0.1c0.1,0,0.3,0,0.3-0.1s0.1,0,0.2-0.1c0,0,0.1-0.1,0.1-0.1c0,0,0-0.1,0-0.2
					c0-0.2-0.1-0.4-0.2-0.5c-0.1-0.1-0.3-0.2-0.6-0.2c-0.2,0-0.4,0.1-0.6,0.2c-0.1,0.1-0.2,0.3-0.2,0.5h-0.7c0-0.4,0.2-0.7,0.4-1
					c0.2-0.2,0.6-0.3,1.1-0.3c0.5,0,0.9,0.1,1.1,0.4c0.2,0.2,0.4,0.6,0.4,1.1v2.3h-0.7V521.9z M126.1,520.6
					c-0.2,0.1-0.4,0.1-0.6,0.1c-0.2,0-0.4,0.1-0.6,0.1s-0.3,0.1-0.4,0.2s-0.2,0.2-0.2,0.4c0,0.2,0.1,0.3,0.2,0.4
					c0.1,0.1,0.3,0.1,0.5,0.1c0.2,0,0.3,0,0.4-0.1s0.2-0.1,0.3-0.2c0.1-0.1,0.2-0.2,0.2-0.3c0.1-0.1,0.1-0.3,0.1-0.4V520.6z"/>
				<path d="M128,518.6h0.7v0.6h0c0.1-0.2,0.3-0.4,0.4-0.5c0.2-0.1,0.4-0.2,0.6-0.2c0,0,0.1,0,0.1,0c0,0,0.1,0,0.1,0v0.8
					c0,0-0.1,0-0.1,0s-0.1,0-0.2,0c-0.3,0-0.5,0.1-0.7,0.3s-0.3,0.4-0.3,0.7v2.1H128V518.6z"/>
				<path d="M130.8,519.3h-0.5v-0.6h0.5v-1h0.7v1h0.9v0.6h-0.9v2c0,0.2,0,0.3,0.1,0.4c0.1,0.1,0.2,0.1,0.4,0.1c0.1,0,0.1,0,0.2,0
					c0.1,0,0.1,0,0.2,0v0.7c-0.1,0-0.2,0-0.2,0s-0.2,0-0.3,0c-0.4,0-0.6-0.1-0.8-0.3s-0.3-0.5-0.3-0.9V519.3z"/>
			</g>
		</g>
		<path id="XMLID_1379_" class="st6" d="M177.4,510.2c-4.5,0-8.1-3.7-8.1-8.1c0-4.5,3.7-8.1,8.1-8.1c4.5,0,8.1,3.7,8.1,8.1
			S181.9,510.2,177.4,510.2z"/>
		<g id="XMLID_1912_">
			<rect id="XMLID_364_" x="161.4" y="517.2" class="st19" width="31.9" height="24.9"/>
			<g class="st20">
				<path d="M167.1,517.2h0.8l2,5.2H169l-0.5-1.2h-2.1l-0.5,1.2h-0.9L167.1,517.2z M168.3,520.5l-0.8-2.2l-0.8,2.2H168.3z"/>
				<path d="M170.6,518.6h0.7v0.6h0c0.1-0.2,0.3-0.4,0.4-0.5c0.2-0.1,0.4-0.2,0.6-0.2c0,0,0.1,0,0.1,0c0,0,0.1,0,0.1,0v0.8
					c0,0-0.1,0-0.1,0s-0.1,0-0.2,0c-0.3,0-0.5,0.1-0.7,0.3s-0.3,0.4-0.3,0.7v2.1h-0.7V518.6z"/>
				<path d="M173.4,518.6h0.7v0.6h0c0.1-0.2,0.3-0.4,0.4-0.5c0.2-0.1,0.4-0.2,0.6-0.2c0,0,0.1,0,0.1,0c0,0,0.1,0,0.1,0v0.8
					c0,0-0.1,0-0.1,0s-0.1,0-0.2,0c-0.3,0-0.5,0.1-0.7,0.3s-0.3,0.4-0.3,0.7v2.1h-0.7V518.6z"/>
				<path d="M176.6,518c-0.1,0-0.3,0-0.3-0.1c-0.1-0.1-0.1-0.2-0.1-0.3c0-0.1,0-0.3,0.1-0.3s0.2-0.1,0.3-0.1c0.1,0,0.2,0,0.3,0.1
					s0.1,0.2,0.1,0.3c0,0.1,0,0.2-0.1,0.3C176.9,517.9,176.8,518,176.6,518z M176.2,518.6h0.7v3.7h-0.7V518.6z"/>
				<path d="M177.7,518.6h0.8l1,2.9l1-2.9h0.8l-1.4,3.7h-0.7L177.7,518.6z"/>
				<path d="M185.2,521.1c0,0.2-0.1,0.4-0.1,0.5s-0.2,0.3-0.3,0.4c-0.1,0.1-0.3,0.2-0.5,0.3c-0.2,0.1-0.4,0.1-0.7,0.1
					c-0.3,0-0.6,0-0.8-0.1c-0.2-0.1-0.4-0.2-0.5-0.4c-0.1-0.2-0.3-0.4-0.3-0.6c-0.1-0.2-0.1-0.5-0.1-0.8c0-0.3,0-0.6,0.1-0.8
					c0.1-0.2,0.2-0.4,0.3-0.6c0.1-0.2,0.3-0.3,0.5-0.4c0.2-0.1,0.5-0.1,0.8-0.1s0.5,0,0.8,0.1c0.2,0.1,0.4,0.2,0.5,0.4
					c0.1,0.2,0.2,0.4,0.3,0.6c0.1,0.2,0.1,0.5,0.1,0.8v0.1h-2.6c0,0.4,0.1,0.7,0.3,0.9c0.2,0.2,0.4,0.3,0.7,0.3
					c0.3,0,0.5-0.1,0.6-0.2c0.2-0.1,0.3-0.3,0.3-0.6H185.2z M184.5,520.1c0-0.3-0.1-0.5-0.2-0.7c-0.2-0.2-0.4-0.3-0.7-0.3
					c-0.3,0-0.5,0.1-0.7,0.2s-0.3,0.4-0.3,0.7H184.5z M184,517.2h0.9l-1,1h-0.6L184,517.2z"/>
				<path d="M189.4,521.1c0,0.2-0.1,0.4-0.1,0.5s-0.2,0.3-0.3,0.4c-0.1,0.1-0.3,0.2-0.5,0.3c-0.2,0.1-0.4,0.1-0.7,0.1
					c-0.3,0-0.6,0-0.8-0.1c-0.2-0.1-0.4-0.2-0.5-0.4c-0.1-0.2-0.3-0.4-0.3-0.6c-0.1-0.2-0.1-0.5-0.1-0.8c0-0.3,0-0.6,0.1-0.8
					c0.1-0.2,0.2-0.4,0.3-0.6c0.1-0.2,0.3-0.3,0.5-0.4c0.2-0.1,0.5-0.1,0.8-0.1s0.5,0,0.8,0.1c0.2,0.1,0.4,0.2,0.5,0.4
					c0.1,0.2,0.2,0.4,0.3,0.6c0.1,0.2,0.1,0.5,0.1,0.8v0.1h-2.6c0,0.4,0.1,0.7,0.3,0.9c0.2,0.2,0.4,0.3,0.7,0.3
					c0.3,0,0.5-0.1,0.6-0.2c0.2-0.1,0.3-0.3,0.3-0.6H189.4z M188.7,520.1c0-0.3-0.1-0.5-0.2-0.7c-0.2-0.2-0.4-0.3-0.7-0.3
					c-0.3,0-0.5,0.1-0.7,0.2s-0.3,0.4-0.3,0.7H188.7z"/>
			</g>
		</g>
		<path id="XMLID_92_" class="st10" d="M231.4,510.2c-4.5,0-8.1-3.7-8.1-8.1c0-4.5,3.7-8.1,8.1-8.1c4.5,0,8.1,3.7,8.1,8.1
			S235.9,510.2,231.4,510.2z"/>
		<g id="XMLID_7_">
			<rect id="XMLID_385_" x="215.4" y="517.2" class="st19" width="31.9" height="24.9"/>
			<g class="st20">
				<path d="M217.5,517.9h-1.6v-0.7h4.1v0.7h-1.6v4.5h-0.8V517.9z"/>
				<path d="M220.7,518.6h0.7v0.6h0c0.1-0.2,0.3-0.4,0.4-0.5c0.2-0.1,0.4-0.2,0.6-0.2c0,0,0.1,0,0.1,0c0,0,0.1,0,0.1,0v0.8
					c0,0-0.1,0-0.1,0s-0.1,0-0.2,0c-0.3,0-0.5,0.1-0.7,0.3s-0.3,0.4-0.3,0.7v2.1h-0.7V518.6z"/>
				<path d="M225.7,521.9L225.7,521.9c-0.1,0.2-0.3,0.3-0.5,0.4c-0.2,0.1-0.5,0.2-0.8,0.2c-0.2,0-0.4,0-0.5-0.1
					c-0.1-0.1-0.3-0.1-0.4-0.2s-0.2-0.2-0.2-0.3c0-0.1-0.1-0.2-0.1-0.4c0-0.3,0.1-0.5,0.2-0.6c0.1-0.1,0.3-0.3,0.5-0.3
					c0.2-0.1,0.4-0.1,0.6-0.2c0.2,0,0.4-0.1,0.6-0.1c0.1,0,0.3,0,0.3-0.1s0.1,0,0.2-0.1c0,0,0.1-0.1,0.1-0.1c0,0,0-0.1,0-0.2
					c0-0.2-0.1-0.4-0.2-0.5c-0.1-0.1-0.3-0.2-0.6-0.2c-0.2,0-0.4,0.1-0.6,0.2c-0.1,0.1-0.2,0.3-0.2,0.5h-0.7c0-0.4,0.2-0.7,0.4-1
					c0.2-0.2,0.6-0.3,1.1-0.3c0.5,0,0.9,0.1,1.1,0.4c0.2,0.2,0.4,0.6,0.4,1.1v2.3h-0.7V521.9z M225.7,520.6
					c-0.2,0.1-0.4,0.1-0.6,0.1c-0.2,0-0.4,0.1-0.6,0.1s-0.3,0.1-0.4,0.2s-0.2,0.2-0.2,0.4c0,0.2,0.1,0.3,0.2,0.4
					c0.1,0.1,0.3,0.1,0.5,0.1c0.2,0,0.3,0,0.4-0.1s0.2-0.1,0.3-0.2c0.1-0.1,0.2-0.2,0.2-0.3c0.1-0.1,0.1-0.3,0.1-0.4V520.6z"/>
				<path d="M227.6,518.6h0.7v0.6h0c0.1-0.2,0.3-0.4,0.5-0.5c0.2-0.1,0.4-0.2,0.8-0.2c0.4,0,0.8,0.1,0.9,0.4c0.2,0.2,0.3,0.6,0.3,1
					v2.5H230v-2.2c0-0.3-0.1-0.5-0.2-0.7c-0.1-0.2-0.3-0.2-0.6-0.2c-0.3,0-0.5,0.1-0.7,0.3c-0.2,0.2-0.3,0.4-0.3,0.8v2.1h-0.7V518.6
					z"/>
				<path d="M232.5,521.2c0,0.3,0.1,0.5,0.3,0.6c0.2,0.1,0.4,0.2,0.6,0.2c0.2,0,0.4,0,0.5-0.1c0.1-0.1,0.2-0.2,0.2-0.4
					c0-0.1-0.1-0.3-0.2-0.3c-0.1-0.1-0.2-0.1-0.4-0.2c-0.2,0-0.3-0.1-0.5-0.1c-0.2,0-0.4-0.1-0.5-0.2s-0.3-0.2-0.4-0.3
					c-0.1-0.1-0.2-0.3-0.2-0.6c0-0.2,0-0.3,0.1-0.4c0.1-0.1,0.1-0.3,0.3-0.4c0.1-0.1,0.3-0.2,0.4-0.2c0.2-0.1,0.4-0.1,0.6-0.1
					c0.5,0,0.8,0.1,1.1,0.3c0.3,0.2,0.4,0.5,0.4,0.9H234c0-0.2-0.1-0.4-0.2-0.5c-0.1-0.1-0.3-0.2-0.5-0.2c-0.1,0-0.2,0-0.3,0
					s-0.2,0.1-0.2,0.1c0,0-0.1,0.1-0.1,0.2c0,0.1,0,0.1,0,0.2c0,0.1,0.1,0.2,0.2,0.3c0.1,0.1,0.2,0.1,0.4,0.2c0.2,0,0.3,0.1,0.5,0.1
					c0.2,0,0.4,0.1,0.5,0.2c0.2,0.1,0.3,0.2,0.4,0.3s0.2,0.3,0.2,0.6c0,0.3-0.1,0.6-0.4,0.8c-0.2,0.2-0.6,0.3-1.1,0.3
					c-0.5,0-0.9-0.1-1.2-0.3c-0.3-0.2-0.4-0.5-0.5-1H232.5z"/>
				<path d="M235.9,519.3h-0.5v-0.6h0.5v-0.3c0-0.4,0.1-0.7,0.3-0.9c0.2-0.2,0.5-0.3,0.8-0.3c0.1,0,0.2,0,0.2,0c0.1,0,0.1,0,0.2,0
					v0.6c-0.1,0-0.1,0-0.2,0c-0.1,0-0.1,0-0.2,0c-0.2,0-0.3,0-0.4,0.1c-0.1,0.1-0.1,0.2-0.1,0.4v0.3h0.8v0.6h-0.8v3.1h-0.7V519.3z"
					/>
				<path d="M241.4,521.1c0,0.2-0.1,0.4-0.1,0.5s-0.2,0.3-0.3,0.4c-0.1,0.1-0.3,0.2-0.5,0.3c-0.2,0.1-0.4,0.1-0.7,0.1
					c-0.3,0-0.6,0-0.8-0.1c-0.2-0.1-0.4-0.2-0.5-0.4c-0.1-0.2-0.3-0.4-0.3-0.6c-0.1-0.2-0.1-0.5-0.1-0.8c0-0.3,0-0.6,0.1-0.8
					c0.1-0.2,0.2-0.4,0.3-0.6c0.1-0.2,0.3-0.3,0.5-0.4c0.2-0.1,0.5-0.1,0.8-0.1s0.5,0,0.8,0.1c0.2,0.1,0.4,0.2,0.5,0.4
					c0.1,0.2,0.2,0.4,0.3,0.6c0.1,0.2,0.1,0.5,0.1,0.8v0.1h-2.6c0,0.4,0.1,0.7,0.3,0.9c0.2,0.2,0.4,0.3,0.7,0.3
					c0.3,0,0.5-0.1,0.6-0.2c0.2-0.1,0.3-0.3,0.3-0.6H241.4z M240.6,520.1c0-0.3-0.1-0.5-0.2-0.7c-0.2-0.2-0.4-0.3-0.7-0.3
					c-0.3,0-0.5,0.1-0.7,0.2s-0.3,0.4-0.3,0.7H240.6z"/>
				<path d="M242.4,518.6h0.7v0.6h0c0.1-0.2,0.3-0.4,0.4-0.5c0.2-0.1,0.4-0.2,0.6-0.2c0,0,0.1,0,0.1,0c0,0,0.1,0,0.1,0v0.8
					c0,0-0.1,0-0.1,0s-0.1,0-0.2,0c-0.3,0-0.5,0.1-0.7,0.3s-0.3,0.4-0.3,0.7v2.1h-0.7V518.6z"/>
				<path d="M245.3,519.3h-0.5v-0.6h0.5v-1h0.7v1h0.9v0.6H246v2c0,0.2,0,0.3,0.1,0.4c0.1,0.1,0.2,0.1,0.4,0.1c0.1,0,0.1,0,0.2,0
					c0.1,0,0.1,0,0.2,0v0.7c-0.1,0-0.2,0-0.2,0s-0.2,0-0.3,0c-0.4,0-0.6-0.1-0.8-0.3s-0.3-0.5-0.3-0.9V519.3z"/>
			</g>
		</g>
		<g id="XMLID_283_">
			<rect id="XMLID_388_" x="91.2" y="565.4" class="st19" width="61.4" height="24.9"/>
			<g class="st20">
				<path d="M113.5,569.7c-0.2,0.3-0.5,0.6-0.8,0.7c-0.3,0.2-0.7,0.3-1.2,0.3c-0.4,0-0.7-0.1-1-0.2c-0.3-0.1-0.6-0.3-0.8-0.5
					c-0.2-0.2-0.4-0.5-0.5-0.8c-0.1-0.3-0.2-0.7-0.2-1.1c0-0.4,0.1-0.8,0.2-1.1c0.1-0.3,0.3-0.6,0.5-0.8s0.5-0.4,0.8-0.5
					s0.6-0.2,1-0.2c1,0,1.6,0.4,2.1,1.2l-0.7,0.4c-0.1-0.3-0.3-0.5-0.6-0.6c-0.2-0.1-0.5-0.2-0.8-0.2c-0.2,0-0.5,0-0.7,0.1
					s-0.4,0.2-0.5,0.4c-0.1,0.2-0.2,0.4-0.3,0.6c-0.1,0.2-0.1,0.5-0.1,0.8c0,0.3,0,0.6,0.1,0.8c0.1,0.2,0.2,0.5,0.3,0.6
					c0.1,0.2,0.3,0.3,0.5,0.4c0.2,0.1,0.4,0.1,0.7,0.1c0.3,0,0.5-0.1,0.8-0.2c0.2-0.1,0.4-0.3,0.6-0.5L113.5,569.7z"/>
				<path d="M116.2,570.7c-0.3,0-0.5,0-0.8-0.1s-0.4-0.2-0.6-0.4c-0.2-0.2-0.3-0.4-0.4-0.6c-0.1-0.2-0.1-0.5-0.1-0.8
					c0-0.3,0-0.6,0.1-0.8c0.1-0.2,0.2-0.4,0.4-0.6s0.4-0.3,0.6-0.4c0.2-0.1,0.5-0.1,0.8-0.1s0.5,0,0.8,0.1c0.2,0.1,0.4,0.2,0.6,0.4
					c0.2,0.2,0.3,0.4,0.4,0.6s0.1,0.5,0.1,0.8c0,0.3,0,0.6-0.1,0.8s-0.2,0.4-0.4,0.6c-0.2,0.2-0.4,0.3-0.6,0.4
					C116.8,570.6,116.5,570.7,116.2,570.7z M116.2,570.1c0.4,0,0.6-0.1,0.8-0.4c0.2-0.2,0.3-0.6,0.3-1c0-0.4-0.1-0.8-0.3-1
					c-0.2-0.2-0.5-0.4-0.8-0.4c-0.3,0-0.6,0.1-0.8,0.4c-0.2,0.2-0.3,0.6-0.3,1c0,0.4,0.1,0.7,0.3,1
					C115.6,570,115.9,570.1,116.2,570.1z"/>
				<path d="M119.1,566.9h0.7v0.6h0c0.1-0.2,0.3-0.4,0.5-0.5c0.2-0.1,0.4-0.2,0.8-0.2c0.4,0,0.8,0.1,0.9,0.4c0.2,0.2,0.3,0.6,0.3,1
					v2.5h-0.7v-2.2c0-0.3-0.1-0.5-0.2-0.7c-0.1-0.2-0.3-0.2-0.6-0.2c-0.3,0-0.5,0.1-0.7,0.3c-0.2,0.2-0.3,0.4-0.3,0.8v2.1h-0.7
					V566.9z"/>
				<path d="M123.5,567.5H123v-0.6h0.5v-1h0.7v1h0.9v0.6h-0.9v2c0,0.2,0,0.3,0.1,0.4c0.1,0.1,0.2,0.1,0.4,0.1c0.1,0,0.1,0,0.2,0
					c0.1,0,0.1,0,0.2,0v0.7c-0.1,0-0.2,0-0.2,0s-0.2,0-0.3,0c-0.4,0-0.6-0.1-0.8-0.3s-0.3-0.5-0.3-0.9V567.5z"/>
				<path d="M125.9,566.9h0.7v0.6h0c0.1-0.2,0.3-0.4,0.4-0.5c0.2-0.1,0.4-0.2,0.6-0.2c0,0,0.1,0,0.1,0c0,0,0.1,0,0.1,0v0.8
					c0,0-0.1,0-0.1,0s-0.1,0-0.2,0c-0.3,0-0.5,0.1-0.7,0.3s-0.3,0.4-0.3,0.7v2.1h-0.7V566.9z"/>
				<path d="M131.9,569.3c0,0.2-0.1,0.4-0.1,0.5s-0.2,0.3-0.3,0.4c-0.1,0.1-0.3,0.2-0.5,0.3c-0.2,0.1-0.4,0.1-0.7,0.1
					c-0.3,0-0.6,0-0.8-0.1c-0.2-0.1-0.4-0.2-0.5-0.4c-0.1-0.2-0.3-0.4-0.3-0.6c-0.1-0.2-0.1-0.5-0.1-0.8c0-0.3,0-0.6,0.1-0.8
					c0.1-0.2,0.2-0.4,0.3-0.6c0.1-0.2,0.3-0.3,0.5-0.4c0.2-0.1,0.5-0.1,0.8-0.1s0.5,0,0.8,0.1c0.2,0.1,0.4,0.2,0.5,0.4
					c0.1,0.2,0.2,0.4,0.3,0.6c0.1,0.2,0.1,0.5,0.1,0.8v0.1h-2.6c0,0.4,0.1,0.7,0.3,0.9c0.2,0.2,0.4,0.3,0.7,0.3
					c0.3,0,0.5-0.1,0.6-0.2c0.2-0.1,0.3-0.3,0.3-0.6H131.9z M131.2,568.4c0-0.3-0.1-0.5-0.2-0.7c-0.2-0.2-0.4-0.3-0.7-0.3
					c-0.3,0-0.5,0.1-0.7,0.2s-0.3,0.4-0.3,0.7H131.2z"/>
				<path d="M132.8,568.1h1.9v0.7h-1.9V568.1z"/>
			</g>
			<g class="st20">
				<path d="M105.6,573.8h0.7v5.2h-0.7V573.8z"/>
				<path d="M109.8,578.5L109.8,578.5c-0.1,0.2-0.3,0.3-0.5,0.4c-0.2,0.1-0.5,0.2-0.8,0.2c-0.2,0-0.4,0-0.5-0.1
					c-0.1-0.1-0.3-0.1-0.4-0.2s-0.2-0.2-0.2-0.3c0-0.1-0.1-0.2-0.1-0.4c0-0.3,0.1-0.5,0.2-0.6s0.3-0.3,0.5-0.3s0.4-0.1,0.6-0.2
					c0.2,0,0.4-0.1,0.6-0.1c0.1,0,0.3,0,0.3-0.1c0.1,0,0.1,0,0.2-0.1c0,0,0.1-0.1,0.1-0.1s0-0.1,0-0.2c0-0.2-0.1-0.4-0.2-0.5
					c-0.1-0.1-0.3-0.2-0.6-0.2c-0.2,0-0.4,0.1-0.6,0.2c-0.1,0.1-0.2,0.3-0.2,0.5h-0.7c0-0.4,0.2-0.7,0.4-1c0.2-0.2,0.6-0.3,1.1-0.3
					c0.5,0,0.9,0.1,1.1,0.4c0.2,0.2,0.4,0.6,0.4,1.1v2.3h-0.7V578.5z M109.8,577.2c-0.2,0.1-0.4,0.1-0.6,0.1s-0.4,0.1-0.6,0.1
					s-0.3,0.1-0.4,0.2s-0.2,0.2-0.2,0.4c0,0.2,0.1,0.3,0.2,0.4c0.1,0.1,0.3,0.1,0.5,0.1c0.2,0,0.3,0,0.4-0.1s0.2-0.1,0.3-0.2
					s0.2-0.2,0.2-0.3c0.1-0.1,0.1-0.3,0.1-0.4V577.2z"/>
				<path d="M111.5,576.5h1.9v0.7h-1.9V576.5z"/>
				<path d="M114.5,575.3h0.7v0.6h0c0.1-0.2,0.3-0.4,0.4-0.5s0.4-0.2,0.7-0.2c0.3,0,0.5,0.1,0.7,0.2c0.2,0.1,0.3,0.3,0.4,0.5h0
					c0.1-0.2,0.3-0.4,0.5-0.5c0.2-0.1,0.4-0.2,0.7-0.2c0.4,0,0.7,0.1,0.9,0.3s0.3,0.6,0.3,1v2.5H119v-2.2c0-0.3-0.1-0.6-0.2-0.7
					c-0.1-0.1-0.3-0.2-0.5-0.2c-0.3,0-0.5,0.1-0.6,0.2c-0.2,0.2-0.2,0.4-0.2,0.7v2.2h-0.7v-2.2c0-0.3,0-0.5-0.1-0.7
					s-0.3-0.2-0.5-0.2c-0.3,0-0.5,0.1-0.6,0.3c-0.2,0.2-0.2,0.4-0.2,0.8v2.1h-0.7V575.3z"/>
				<path d="M122.6,579.1c-0.3,0-0.5,0-0.8-0.1c-0.2-0.1-0.4-0.2-0.6-0.4s-0.3-0.4-0.4-0.6c-0.1-0.2-0.1-0.5-0.1-0.8
					c0-0.3,0-0.6,0.1-0.8c0.1-0.2,0.2-0.4,0.4-0.6s0.4-0.3,0.6-0.4c0.2-0.1,0.5-0.1,0.8-0.1s0.5,0,0.8,0.1c0.2,0.1,0.4,0.2,0.6,0.4
					c0.2,0.2,0.3,0.4,0.4,0.6s0.1,0.5,0.1,0.8c0,0.3,0,0.6-0.1,0.8s-0.2,0.4-0.4,0.6c-0.2,0.2-0.4,0.3-0.6,0.4
					C123.1,579,122.9,579.1,122.6,579.1z M122.6,578.5c0.4,0,0.6-0.1,0.8-0.4s0.3-0.6,0.3-1c0-0.4-0.1-0.8-0.3-1s-0.5-0.4-0.8-0.4
					c-0.3,0-0.6,0.1-0.8,0.4c-0.2,0.2-0.3,0.6-0.3,1c0,0.4,0.1,0.7,0.3,1C122,578.4,122.3,578.5,122.6,578.5z"/>
				<path d="M125.4,575.3h0.7v0.6h0c0.1-0.2,0.3-0.4,0.5-0.5c0.2-0.1,0.4-0.2,0.8-0.2c0.4,0,0.8,0.1,0.9,0.4c0.2,0.2,0.3,0.6,0.3,1
					v2.5h-0.7v-2.2c0-0.3-0.1-0.5-0.2-0.7s-0.3-0.2-0.6-0.2c-0.3,0-0.5,0.1-0.7,0.3c-0.2,0.2-0.3,0.4-0.3,0.8v2.1h-0.7V575.3z"/>
				<path d="M129.9,575.9h-0.5v-0.6h0.5v-1h0.7v1h0.9v0.6h-0.9v2c0,0.2,0,0.3,0.1,0.4s0.2,0.1,0.4,0.1c0.1,0,0.1,0,0.2,0
					c0.1,0,0.1,0,0.2,0v0.7c-0.1,0-0.2,0-0.2,0c-0.1,0-0.2,0-0.3,0c-0.4,0-0.6-0.1-0.8-0.3s-0.3-0.5-0.3-0.9V575.9z"/>
				<path d="M132.3,575.3h0.7v0.6h0c0.1-0.2,0.3-0.4,0.4-0.5s0.4-0.2,0.6-0.2c0,0,0.1,0,0.1,0c0,0,0.1,0,0.1,0v0.8c0,0-0.1,0-0.1,0
					c-0.1,0-0.1,0-0.2,0c-0.3,0-0.5,0.1-0.7,0.3s-0.3,0.4-0.3,0.7v2.1h-0.7V575.3z"/>
				<path d="M138.3,577.7c0,0.2-0.1,0.4-0.1,0.5s-0.2,0.3-0.3,0.4c-0.1,0.1-0.3,0.2-0.5,0.3s-0.4,0.1-0.7,0.1c-0.3,0-0.6,0-0.8-0.1
					c-0.2-0.1-0.4-0.2-0.5-0.4c-0.1-0.2-0.3-0.4-0.3-0.6c-0.1-0.2-0.1-0.5-0.1-0.8c0-0.3,0-0.6,0.1-0.8c0.1-0.2,0.2-0.4,0.3-0.6
					c0.1-0.2,0.3-0.3,0.5-0.4c0.2-0.1,0.5-0.1,0.8-0.1s0.5,0,0.8,0.1c0.2,0.1,0.4,0.2,0.5,0.4c0.1,0.2,0.2,0.4,0.3,0.6
					c0.1,0.2,0.1,0.5,0.1,0.8v0.1h-2.6c0,0.4,0.1,0.7,0.3,0.9c0.2,0.2,0.4,0.3,0.7,0.3c0.3,0,0.5-0.1,0.6-0.2
					c0.2-0.1,0.3-0.3,0.3-0.6H138.3z M137.5,576.8c0-0.3-0.1-0.5-0.2-0.7c-0.2-0.2-0.4-0.3-0.7-0.3c-0.3,0-0.5,0.1-0.7,0.2
					c-0.2,0.2-0.3,0.4-0.3,0.7H137.5z"/>
			</g>
		</g>
		<g id="XMLID_1878_">
			<polygon id="XMLID_282_" class="st4" points="168.9,557.9 171.7,548.2 174.8,553.8 178.7,542 183.1,551.3 186,547.8 188.4,557.9 
							"/>
			<polygon id="XMLID_281_" class="st5" points="176.4,548.2 178.1,550.5 179.4,548.6 180.5,549.7 182,548.2 178.7,542 			"/>
			<polygon id="XMLID_1879_" class="st5" points="170.7,551.9 172.4,554.3 173.7,551.8 171.7,548.2 			"/>
		</g>
		<g id="XMLID_278_">
			<rect id="XMLID_193_" x="160" y="565.4" class="st19" width="37.4" height="24.9"/>
			<g class="st20">
				<path d="M162.1,565.4h1.1l1.4,3l1.4-3h1v5.2h-0.8v-4l-1.4,2.8h-0.6l-1.4-2.8v4h-0.8V565.4z"/>
				<path d="M169.9,570.7c-0.3,0-0.5,0-0.8-0.1s-0.4-0.2-0.6-0.4c-0.2-0.2-0.3-0.4-0.4-0.6c-0.1-0.2-0.1-0.5-0.1-0.8
					c0-0.3,0-0.6,0.1-0.8c0.1-0.2,0.2-0.4,0.4-0.6s0.4-0.3,0.6-0.4c0.2-0.1,0.5-0.1,0.8-0.1s0.5,0,0.8,0.1c0.2,0.1,0.4,0.2,0.6,0.4
					c0.2,0.2,0.3,0.4,0.4,0.6s0.1,0.5,0.1,0.8c0,0.3,0,0.6-0.1,0.8s-0.2,0.4-0.4,0.6c-0.2,0.2-0.4,0.3-0.6,0.4
					C170.4,570.6,170.2,570.7,169.9,570.7z M169.9,570.1c0.4,0,0.6-0.1,0.8-0.4c0.2-0.2,0.3-0.6,0.3-1c0-0.4-0.1-0.8-0.3-1
					c-0.2-0.2-0.5-0.4-0.8-0.4c-0.3,0-0.6,0.1-0.8,0.4c-0.2,0.2-0.3,0.6-0.3,1c0,0.4,0.1,0.7,0.3,1
					C169.3,570,169.5,570.1,169.9,570.1z"/>
				<path d="M172.7,566.9h0.7v0.6h0c0.1-0.2,0.3-0.4,0.5-0.5c0.2-0.1,0.4-0.2,0.8-0.2c0.4,0,0.8,0.1,0.9,0.4c0.2,0.2,0.3,0.6,0.3,1
					v2.5h-0.7v-2.2c0-0.3-0.1-0.5-0.2-0.7c-0.1-0.2-0.3-0.2-0.6-0.2c-0.3,0-0.5,0.1-0.7,0.3c-0.2,0.2-0.3,0.4-0.3,0.8v2.1h-0.7
					V566.9z"/>
				<path d="M177.1,567.5h-0.5v-0.6h0.5v-1h0.7v1h0.9v0.6h-0.9v2c0,0.2,0,0.3,0.1,0.4c0.1,0.1,0.2,0.1,0.4,0.1c0.1,0,0.1,0,0.2,0
					c0.1,0,0.1,0,0.2,0v0.7c-0.1,0-0.2,0-0.2,0s-0.2,0-0.3,0c-0.4,0-0.6-0.1-0.8-0.3s-0.3-0.5-0.3-0.9V567.5z"/>
				<path d="M181.8,570.1L181.8,570.1c-0.1,0.2-0.3,0.3-0.5,0.4c-0.2,0.1-0.5,0.2-0.8,0.2c-0.2,0-0.4,0-0.5-0.1
					c-0.1-0.1-0.3-0.1-0.4-0.2s-0.2-0.2-0.2-0.3c0-0.1-0.1-0.2-0.1-0.4c0-0.3,0.1-0.5,0.2-0.6c0.1-0.1,0.3-0.3,0.5-0.3
					c0.2-0.1,0.4-0.1,0.6-0.2c0.2,0,0.4-0.1,0.6-0.1c0.1,0,0.3,0,0.3-0.1s0.1,0,0.2-0.1c0,0,0.1-0.1,0.1-0.1c0,0,0-0.1,0-0.2
					c0-0.2-0.1-0.4-0.2-0.5c-0.1-0.1-0.3-0.2-0.6-0.2c-0.2,0-0.4,0.1-0.6,0.2c-0.1,0.1-0.2,0.3-0.2,0.5h-0.7c0-0.4,0.2-0.7,0.4-1
					c0.2-0.2,0.6-0.3,1.1-0.3c0.5,0,0.9,0.1,1.1,0.4c0.2,0.2,0.4,0.6,0.4,1.1v2.3h-0.7V570.1z M181.8,568.8
					c-0.2,0.1-0.4,0.1-0.6,0.1c-0.2,0-0.4,0.1-0.6,0.1s-0.3,0.1-0.4,0.2s-0.2,0.2-0.2,0.4c0,0.2,0.1,0.3,0.2,0.4
					c0.1,0.1,0.3,0.1,0.5,0.1c0.2,0,0.3,0,0.4-0.1s0.2-0.1,0.3-0.2c0.1-0.1,0.2-0.2,0.2-0.3c0.1-0.1,0.1-0.3,0.1-0.4V568.8z"/>
				<path d="M187,566.9v0.6h-0.7c0.1,0.1,0.1,0.2,0.2,0.3c0,0.1,0.1,0.2,0.1,0.4c0,0.2,0,0.4-0.1,0.6c-0.1,0.2-0.2,0.3-0.3,0.4
					c-0.1,0.1-0.3,0.2-0.5,0.3s-0.4,0.1-0.6,0.1c-0.3,0-0.5-0.1-0.7-0.2c-0.1,0.1-0.1,0.1-0.2,0.2c0,0-0.1,0.1-0.1,0.2
					c0,0.1,0,0.1,0.1,0.2c0.1,0,0.2,0.1,0.3,0.1c0.1,0,0.3,0,0.5,0c0.2,0,0.3,0,0.5,0c0.2,0,0.4,0,0.5,0.1c0.2,0,0.3,0.1,0.5,0.1
					c0.1,0.1,0.2,0.2,0.3,0.3c0.1,0.1,0.1,0.3,0.1,0.4c0,0.1,0,0.3-0.1,0.4c-0.1,0.1-0.2,0.2-0.3,0.3c-0.1,0.1-0.3,0.2-0.6,0.2
					c-0.2,0.1-0.6,0.1-0.9,0.1c-0.3,0-0.6,0-0.8-0.1c-0.2,0-0.4-0.1-0.5-0.2c-0.1-0.1-0.2-0.2-0.3-0.3c-0.1-0.1-0.1-0.2-0.1-0.3
					c0-0.2,0-0.3,0.1-0.4s0.2-0.2,0.4-0.3c-0.1-0.1-0.2-0.1-0.3-0.2c-0.1-0.1-0.1-0.2-0.1-0.3c0-0.2,0-0.3,0.1-0.4s0.2-0.2,0.4-0.3
					c-0.1-0.1-0.2-0.3-0.3-0.4s-0.1-0.4-0.1-0.6c0-0.2,0-0.4,0.1-0.6c0.1-0.2,0.2-0.3,0.3-0.4c0.1-0.1,0.3-0.2,0.5-0.3
					c0.2-0.1,0.4-0.1,0.6-0.1c0.1,0,0.2,0,0.3,0c0.1,0,0.2,0,0.2,0.1H187z M186.3,571.1c0-0.1-0.1-0.2-0.2-0.3
					c-0.1-0.1-0.3-0.1-0.5-0.1s-0.4,0-0.6,0c-0.2,0-0.5,0-0.7-0.1c-0.1,0.1-0.2,0.2-0.2,0.3c0,0.1-0.1,0.1-0.1,0.2
					c0,0.2,0.1,0.3,0.3,0.4c0.2,0.1,0.5,0.1,0.9,0.1c0.4,0,0.7,0,0.8-0.1C186.2,571.3,186.3,571.2,186.3,571.1z M185.1,569
					c0.2,0,0.4-0.1,0.6-0.2c0.1-0.1,0.2-0.4,0.2-0.6c0-0.3-0.1-0.5-0.2-0.6c-0.1-0.1-0.3-0.2-0.6-0.2s-0.4,0.1-0.6,0.2
					c-0.1,0.1-0.2,0.4-0.2,0.6c0,0.3,0.1,0.5,0.2,0.6C184.7,569,184.9,569,185.1,569z"/>
				<path d="M188,566.9h0.7v0.6h0c0.1-0.2,0.3-0.4,0.5-0.5c0.2-0.1,0.4-0.2,0.8-0.2c0.4,0,0.8,0.1,0.9,0.4c0.2,0.2,0.3,0.6,0.3,1
					v2.5h-0.7v-2.2c0-0.3-0.1-0.5-0.2-0.7c-0.1-0.2-0.3-0.2-0.6-0.2c-0.3,0-0.5,0.1-0.7,0.3c-0.2,0.2-0.3,0.4-0.3,0.8v2.1H188V566.9
					z"/>
				<path d="M195.5,569.3c0,0.2-0.1,0.4-0.1,0.5s-0.2,0.3-0.3,0.4c-0.1,0.1-0.3,0.2-0.5,0.3c-0.2,0.1-0.4,0.1-0.7,0.1
					c-0.3,0-0.6,0-0.8-0.1c-0.2-0.1-0.4-0.2-0.5-0.4c-0.1-0.2-0.3-0.4-0.3-0.6c-0.1-0.2-0.1-0.5-0.1-0.8c0-0.3,0-0.6,0.1-0.8
					c0.1-0.2,0.2-0.4,0.3-0.6c0.1-0.2,0.3-0.3,0.5-0.4c0.2-0.1,0.5-0.1,0.8-0.1s0.5,0,0.8,0.1c0.2,0.1,0.4,0.2,0.5,0.4
					c0.1,0.2,0.2,0.4,0.3,0.6c0.1,0.2,0.1,0.5,0.1,0.8v0.1h-2.6c0,0.4,0.1,0.7,0.3,0.9c0.2,0.2,0.4,0.3,0.7,0.3
					c0.3,0,0.5-0.1,0.6-0.2c0.2-0.1,0.3-0.3,0.3-0.6H195.5z M194.8,568.4c0-0.3-0.1-0.5-0.2-0.7c-0.2-0.2-0.4-0.3-0.7-0.3
					c-0.3,0-0.5,0.1-0.7,0.2s-0.3,0.4-0.3,0.7H194.8z"/>
			</g>
		</g>
		<g>
			<line class="st16" x1="125.4" y1="542.7" x2="127.6" y2="540.5"/>
			<line class="st16" x1="116.6" y1="542.7" x2="114.4" y2="540.5"/>
			<g id="XMLID_1116_">
				<circle id="XMLID_1126_" class="st17" cx="121.1" cy="549.8" r="8.1"/>
			</g>
			<polyline class="st18" points="120.5,547 120.5,550.5 123.2,553.8 			"/>
			<line class="st16" x1="121" y1="542" x2="121" y2="539"/>
		</g>
	</g>
</g>
</svg>
