<?xml version="1.0" encoding="utf-8"?>
<!-- Generator: Adobe Illustrator 19.0.0, SVG Export Plug-In . SVG Version: 6.00 Build 0)  -->
<svg version="1.1" id="Calque_1" xmlns="http://www.w3.org/2000/svg" xmlns:xlink="http://www.w3.org/1999/xlink" x="0px" y="0px"
	 viewBox="0 0 770 802" style="enable-background:new 0 0 770 802;" xml:space="preserve">
<style type="text/css">
	.st0{fill:#EBB7A5;stroke:#F4D7CB;stroke-linecap:round;stroke-linejoin:round;stroke-miterlimit:10;}
	.st1{fill:none;stroke:#1D1D1B;stroke-width:5;}
	.st2{fill:#FFFFFF;stroke:#1D1D1B;stroke-width:2;stroke-linecap:round;stroke-linejoin:round;}
	.st3{fill:#1D1D1B;}
	.st4{fill:#C32121;stroke:#1D1D1B;stroke-width:2;}
	.st5{fill:#3C63AA;stroke:#1D1D1B;stroke-width:2;}
	.st6{fill:none;stroke:#FFFFFF;stroke-width:5;}
	.st7{fill:none;stroke:#1D1D1B;stroke-width:5;stroke-dasharray:3.2266,3.2266,3.2266,3.2266;}
	.st8{fill:none;stroke:#1D1D1B;stroke-width:5;stroke-dasharray:3.2266,3.2266,3.2266,3.2266,3.2266,3.2266;}
	.st9{fill:none;stroke:#1D1D1B;stroke-width:5;stroke-linecap:round;stroke-linejoin:round;}
	.st10{fill:#C32121;stroke:#1D1D1B;stroke-width:2;stroke-linecap:round;stroke-linejoin:round;}
	.st11{fill:none;stroke:#1D1D1B;}
	.st12{fill:none;stroke:#1D1D1B;stroke-dasharray:2.5475,2.5475,2.5475,2.5475;}
	.st13{fill:none;stroke:#1D1D1B;stroke-dasharray:2.5475,2.5475,2.5475,2.5475,2.5475,2.5475;}
	.st14{fill:none;stroke:#1D1D1B;stroke-dasharray:4,4,4;}
	.st15{fill:none;stroke:#1D1D1B;stroke-width:2;}
	.st16{fill:#FFFFFF;stroke:#1D1D1B;}
	.st17{stroke:#1D1D1B;}
	.st18{fill:#FFFFFF;}
</style>
<polygon id="FRANCE_8_" class="st0" points="656.7,610.7 656.7,610.7 655.5,597.8 638.6,601.6 619.4,588.4 618.2,580.4 619.2,579.5
	623.1,575.6 623,569.2 622.7,568.9 626.9,565.1 626.9,565 623,556.3 612.1,553.6 605.4,540.6 605.4,540.6 616.8,539.4 626.7,531.8
	629.4,521.1 629.4,521.1 610.6,496.5 610.6,496.5 612.4,494.5 619.8,491.5 620,489.6 620.1,488.7 620.3,484.5 609.7,471.3
	609.7,471.3 612.2,468.6 612.2,468.6 608.1,458.6 591.6,462.5 588.9,460.6 584.8,466.2 584.8,466.2 587.4,470.2 580.1,475.6
	573,475.5 572.9,471.3 579.5,469.2 582.3,460.4 577.5,458.7 578.7,449.3 592.5,435.2 592.5,435.2 591.5,424.7 591.5,424.7
	600.1,420.8 601.5,419 618.4,397.1 618.5,397.1 618.5,397.1 615.4,389.8 619.9,388.9 620.5,388.5 623,392.2 631.6,392.2
	635.7,388.7 638.2,381.1 633.8,374.2 638.8,356.6 636.4,346.5 642.3,335.4 645.1,313 650.8,308.9 661.5,291.9 649.1,286.8
	636.1,287.5 629.1,280.9 623.5,280.7 620.4,283.5 612.9,283.6 606.6,278.8 602.5,278.8 601.6,281.8 597.5,282.2 590.3,266.9
	582.4,263.6 576.5,261.2 573,261.4 564.1,263.8 557.4,258.9 544.3,261.3 539.1,257.5 537.1,252.2 519.1,244.5 518.7,221.5
	514.5,221.5 510.2,231.5 500.1,235.9 492.9,233.5 488.5,233.5 488,231.9 492.3,228.7 492,216.9 484.1,209.6 471.9,210.2
	470.6,212.3 469,212.3 469.4,204.7 461.7,199.1 457.4,201 452.8,199 451.8,187.4 447.9,182.6 439.6,184.5 434.3,187.7 432,183.1
	429.8,180.7 425.4,178.3 427,172.1 423.2,163.1 404.8,168.1 392.7,170.3 382.9,177.6 382.6,208.1 373.7,227.1 362.8,235.9
	326.1,248.6 319.6,262.5 329.3,267.4 306.4,276.6 298.9,272.4 279.8,269.7 275.7,267.6 270.2,269 262.3,257.4 266.5,254.3
	264.6,248.5 253.4,248.5 248.9,250.6 236.2,244.4 235.3,246.3 239.9,249.9 239.9,263.8 247.9,278.3 250.4,297.6 247.7,303.3
	255.7,313.4 249.3,315.6 238.6,315.5 237.3,309.5 232,309.3 229.9,311.6 216,310 199.6,316.9 195,313.1 186.4,295.5 163.5,296.8
	162.1,305 152.6,303.1 150.4,305.5 140.1,301.7 114.2,309.2 111.3,323.3 125.1,322.4 134.2,327.9 120.4,325.6 116.7,327.6
	131,334.8 130.2,339.3 112.9,340 112.8,342.9 120.7,344.7 126.3,355.7 126,359 134.4,359.5 135.5,355.8 146.8,361.8 161.5,364.1
	176.3,377.1 190.4,384.5 204.4,387.8 199.6,397.9 214.5,400.5 214.5,406.5 211.9,409.4 218.6,410.6 223.8,414.7 216.6,423.5
	216.4,428.7 229,449.9 258,464.8 255.6,471.3 243.1,463.6 238.1,466.7 261.9,480.5 259,491.5 255,489.5 246.8,479.1 246.3,486.8
	251.3,490.5 252.8,503.2 272.7,518.6 274.3,527 276.5,538.7 275,541.2 270.2,524.5 259.1,517 257.9,511.2 255.5,512.1 254.5,520.4
	247.4,568.7 252.9,561.9 259.6,570.1 259.1,573.5 251.4,573.5 247.5,578 247.4,581.9 235.2,633.9 231.9,639.1 225.8,646.4
	216.5,648.4 216.5,652.3 235.5,658.5 234.8,665.1 232,666.7 238,673.1 240.1,668.2 258.6,678 262.9,678.1 263.1,678.1 265.9,678.1
	265.9,678.1 265.9,678.1 266.3,682.7 272.8,688.4 273.4,689 273.4,689 286.2,685.7 293.2,690.5 299.2,696.8 308.2,693.8
	314.1,698.2 320.3,696.6 332.1,697.8 332.5,687 341.1,690 350.8,693.9 354.5,700.5 362.5,700.5 367.6,704.4 379,703.1 384.5,712
	391.5,714.2 391.5,717.9 397.6,720.6 401.4,716.8 406,716.8 417.4,724.5 425.5,724.5 434.5,715 441.3,713.4 444.7,716.2
	448.7,717.5 448.8,711.7 444.7,707.5 443.7,689.1 443.9,676.4 439.1,673.3 440.9,670.4 445.1,673.5 450.4,666.9 486.9,644.3
	491,644.6 493.2,649.2 501,649.1 517.1,650.3 514.1,654.3 524.4,658.3 530.2,656.5 527.6,651.6 533,652.4 536.8,656.6 550.9,656.1
	553.1,664 567.5,668 573.7,674.4 581.1,670.7 589.1,671.5 599,670.2 613.8,662.2 612.7,655.7 625.1,644.8 633.5,639.2 633.7,632.4
	638.8,632 651.3,623.4 651.3,623.4 651.9,612.2 "/>
<g id="XMLID_1995_">
	<g id="XMLID_3682_">
		<g id="XMLID_1533_">
			<path id="etape2_3_" class="st1" d="M431.7,213.8c-20.5,45.6-71.7,57.6-71.7,57.6"/>
			<path id="etape3_3_" class="st1" d="M331.4,260.6c-18,65.8-80.1,55.8-80.1-7.6"/>
			<path id="etape4_3_" class="st1" d="M286.9,284.8c0,0,43.9,50.7,10.1,117"/>
			<path id="etape5_3_" class="st1" d="M228.9,402.9c0,0,43.8,12.8,29.6,68.4"/>
			<path id="etape6_3_" class="st1" d="M281.8,547.8c0,0-3.9,66.4-48.3,97.6"/>
			<path id="etape7_3_" class="st1" d="M275.6,661.4c0,0,31.2-8.4,44.5,22.9"/>
			<g id="XMLID_3652_">
				<polygon id="XMLID_3655_" class="st2" points="296.3,669.3 299.1,659.6 302.2,665.3 306.1,653.5 310.5,662.7 313.4,659.3
					315.8,669.3 				"/>
				<polygon id="XMLID_3654_" class="st3" points="303.8,659.6 305.5,661.9 306.8,660.1 307.9,661.2 309.4,659.6 306.1,653.5
					"/>
				<polygon id="XMLID_3653_" class="st3" points="298.1,663.4 299.8,665.8 301.1,663.3 299.1,659.6 				"/>
			</g>
			<path id="etape8_3_" class="st1" d="M320.1,684.3c0,0,50.1-20.3,108.3,17.4"/>
			<g id="Bagnères_de_Luchon" class="hover">
				<path id="XMLID_3650_" class="st4" d="M310.4,686c0,4.5,3.6,8.1,8.1,8.1v-16.2C314,677.9,310.4,681.5,310.4,686z"/>
				<path id="XMLID_3649_" class="st5" d="M318.5,677.9v16.2c4.5,0,8.1-3.6,8.1-8.1C326.6,681.5,323,677.9,318.5,677.9z"/>
			</g>
			<g id="XMLID_3644_">
				<polygon id="XMLID_3647_" class="st2" points="364.6,685 367.4,675.2 370.5,680.9 374.3,669.1 378.7,678.3 381.6,674.9
					384.1,685 				"/>
				<polygon id="XMLID_3646_" class="st3" points="372,675.2 373.8,677.5 375,675.7 376.1,676.8 377.7,675.2 374.3,669.1 				"/>
				<polygon id="XMLID_3645_" class="st3" points="366.3,679 368,681.4 369.4,678.9 367.4,675.2 				"/>
			</g>
			<path id="etape9_3_" class="st1" d="M357.5,644.9c0,0,45.9-20.6,111.3-3.1"/>
			<path id="etape10_3_" class="st1" d="M544.4,653.4c-5.7-33.6-36.8-36.9-36.8-36.9"/>
			<path id="etape11_3_" class="st1" d="M645.1,616.6c0,0-61.1-8.7-100.6,36.9"/>
			<g id="Marseille" class="hover">
				<path id="XMLID_3640_" class="st4" d="M536.3,653.9c0,4.5,3.6,8.1,8.1,8.1v-16.2C540,645.8,536.3,649.5,536.3,653.9z"/>
				<path id="XMLID_3639_" class="st5" d="M544.4,645.8v16.2c4.5,0,8.1-3.6,8.1-8.1C552.6,649.5,548.9,645.8,544.4,645.8z"/>
			</g>
			<path id="etape12_3_" class="st1" d="M580.6,580.3c0,0,12.2,33.9,64.4,36.3"/>
			<path id="etape13_3_" class="st1" d="M599,550.9c13-19-1.2-50.4-31.6-15.2"/>
			<g id="XMLID_3632_">
				<polygon id="XMLID_3635_" class="st2" points="590,534.2 592.8,524.4 595.9,530.1 599.8,518.3 604.2,527.5 607.1,524.1
					609.5,534.2 				"/>
				<polygon id="XMLID_3634_" class="st3" points="597.5,524.4 599.2,526.7 600.4,524.9 601.5,526 603.1,524.4 599.8,518.3 				"/>
				<polygon id="XMLID_3633_" class="st3" points="591.7,528.2 593.4,530.6 594.8,528.1 592.8,524.4 				"/>
			</g>
			<path id="etape15_3_" class="st1" d="M566.6,497.3c0,0-33.2-0.5-66.4,18.8"/>
			<path id="XMLID_3630_" class="st6" d="M500.1,516.1c-20.6-6.5-18.9-35.6,17.1-25.8"/>
			<g id="etape16_3_" class="hover">
				<g id="XMLID_3625_">
					<path id="XMLID_3629_" class="st1" d="M500.1,516.1c-0.7-0.2-1.3-0.4-1.9-0.7"/>
					<path id="XMLID_3628_" class="st7" d="M495.4,514c-3.6-2.1-6.1-5.1-7.5-8.2"/>
					<path id="XMLID_3627_" class="st8" d="M487.4,504.2c-2.7-9.3,5.1-19.4,26.4-14.8"/>
					<path id="XMLID_3626_" class="st1" d="M515.3,489.8c0.6,0.2,1.3,0.3,1.9,0.5"/>
				</g>
			</g>
			<g id="Saint-Etienne" class="hover">
				<path id="XMLID_3622_" class="st4" d="M508.2,516.1c0-4.5-3.6-8.1-8.1-8.1v16.2C504.6,524.2,508.2,520.6,508.2,516.1z"/>
				<path id="XMLID_3621_" class="st5" d="M500.1,524.2V508c-4.5,0-8.1,3.6-8.1,8.1C492,520.6,495.6,524.2,500.1,524.2z"/>
			</g>
			<path id="etape14_3_" class="st1" d="M539,521.8c0,0,55.9,5.1,60-38.7"/>
			<path id="etape17_3_" class="st1" d="M517.3,490.3c0,0,9.3-50.1,62.6-78.3"/>
			<g id="Lyon" class="hover">
				<path id="XMLID_3617_" class="st4" d="M509.2,490.3c0,4.5,3.6,8.1,8.1,8.1v-16.2C512.8,482.2,509.2,485.8,509.2,490.3z"/>
				<path id="XMLID_3616_" class="st5" d="M517.3,482.2v16.2c4.5,0,8.1-3.6,8.1-8.1C525.4,485.8,521.8,482.2,517.3,482.2z"/>
			</g>
			<path id="etape18_3_" class="st1" d="M605.7,389.8c0,0,4.8-53.7,35.7-84.7"/>
			<path id="etape19_3_" class="st1" d="M589,295c-0.5,16.5,25,40.9,52.4,10.1"/>
			<path id="etape20_3_" class="st9" d="M397.5,318.9c0,0,36.2,2.7,34.1-13.1c-1.3-9.4-18.7-10.7-18.7,1.8"/>
			<path id="Paris_2_" class="st10" d="M418,308.5h8.3v-22.2h-26.9v22.2h8.3V298c0-2.8,2.3-5.2,5.2-5.2c2.8,0,5.2,2.3,5.2,5.2
				L418,308.5z"/>
			<g id="XMLID_1607_">
				<g id="XMLID_1621_">
					<path id="XMLID_1629_" class="st11" d="M331.4,260.6c0,0,0.4,0.6,1.3,1.5"/>
					<path id="XMLID_1628_" class="st12" d="M334.5,264c1.7,1.6,4.2,3.5,7.4,5"/>
					<path id="XMLID_1627_" class="st13" d="M343,269.5c3.7,1.5,8.2,2.6,13.7,2.3"/>
					<path id="XMLID_1626_" class="st11" d="M358,271.7c0.6-0.1,1.3-0.1,2-0.2"/>
				</g>
			</g>
			<path id="Rouen" class="st4" d="M360,279.6c-4.5,0-8.1-3.7-8.1-8.1c0-4.5,3.7-8.1,8.1-8.1c4.5,0,8.1,3.7,8.1,8.1
				C368.1,275.9,364.5,279.6,360,279.6z"/>
			<path id="Le_Havre" class="st5" d="M331.4,268.8c-4.5,0-8.1-3.7-8.1-8.1c0-4.5,3.7-8.1,8.1-8.1c4.5,0,8.1,3.7,8.1,8.1
				C339.6,265.1,335.9,268.8,331.4,268.8z"/>
			<path id="XMLID_1604_" class="st14" d="M251.3,253.1c0,0,7.2,36.8,35.6,31.8"/>
			<path id="XMLID_1603_" class="st14" d="M228.9,402.9c0,0,40.2,13.8,68.1-1.1"/>
			<path id="XMLID_1602_" class="st14" d="M258.5,471.3c10.6,6.3,37.4,45.3,23.3,76.5"/>
			<path id="XMLID_1601_" class="st14" d="M233.5,645.5c0,0,28.9-0.7,42.1,16"/>
			<path id="XMLID_1600_" class="st14" d="M357.5,644.9c0,0,58.1,7.1,72.3,56.9"/>
			<path id="XMLID_1599_" class="st14" d="M468.8,641.8c0,0,16-26.9,38.8-25.2"/>
			<path id="XMLID_1598_" class="st14" d="M580.6,580.3c0,0,23.8-2.3,18.4-29.4"/>
			<path id="XMLID_1597_" class="st14" d="M567.4,535.7c-3.8,13.6-28,9.6-28.4-13.9"/>
			<path id="XMLID_1596_" class="st14" d="M599,483.1c-13.1-7-27.1,1.3-32.5,14.2"/>
			<path id="XMLID_1595_" class="st14" d="M579.9,412c0,0,25.4,1,25.8-22.2"/>
			<path id="XMLID_1594_" class="st14" d="M589,295c0,0-87.3,60.9-190.6,26.4"/>
			<path id="Cherbourg" class="st4" d="M251.3,261.2c-4.5,0-8.1-3.7-8.1-8.1c0-4.5,3.7-8.1,8.1-8.1c4.5,0,8.1,3.7,8.1,8.1
				C259.5,257.6,255.8,261.2,251.3,261.2z"/>
			<path id="Angers" class="st4" d="M297,409.9c-4.5,0-8.1-3.7-8.1-8.1s3.7-8.1,8.1-8.1c4.5,0,8.1,3.7,8.1,8.1
				S301.5,409.9,297,409.9z"/>
			<path id="Nantes" class="st5" d="M228.9,411.1c-4.5,0-8.1-3.7-8.1-8.1c0-4.5,3.7-8.1,8.1-8.1c4.5,0,8.1,3.7,8.1,8.1
				C237.1,407.4,233.4,411.1,228.9,411.1z"/>
			<path id="La_Rochelle" class="st4" d="M258.5,479.5c-4.5,0-8.1-3.7-8.1-8.1c0-4.5,3.7-8.1,8.1-8.1c4.5,0,8.1,3.7,8.1,8.1
				C266.7,475.8,263,479.5,258.5,479.5z"/>
			<path id="Bordeaux" class="st5" d="M281.8,556c-4.5,0-8.1-3.7-8.1-8.1c0-4.5,3.7-8.1,8.1-8.1c4.5,0,8.1,3.7,8.1,8.1
				C290,552.3,286.3,556,281.8,556z"/>
			<path id="Bayonne" class="st4" d="M233.5,653.6c-4.5,0-8.1-3.7-8.1-8.1c0-4.5,3.7-8.1,8.1-8.1c4.5,0,8.1,3.7,8.1,8.1
				C241.7,650,238,653.6,233.5,653.6z"/>
			<path id="Pau" class="st5" d="M278.8,669.6c-4.5,0-8.1-3.7-8.1-8.1c0-4.5,3.7-8.1,8.1-8.1c4.5,0,8.1,3.7,8.1,8.1
				C287,665.9,283.3,669.6,278.8,669.6z"/>
			<path id="Perpignan" class="st4" d="M429.8,709.9c-4.5,0-8.1-3.7-8.1-8.1c0-4.5,3.7-8.1,8.1-8.1c4.5,0,8.1,3.7,8.1,8.1
				C438,706.3,434.3,709.9,429.8,709.9z"/>
			<path id="Montpellier" class="st4" d="M468.8,649.9c-4.5,0-8.1-3.7-8.1-8.1c0-4.5,3.7-8.1,8.1-8.1c4.5,0,8.1,3.7,8.1,8.1
				C476.9,646.3,473.3,649.9,468.8,649.9z"/>
			<path id="Nîmes" class="st5" d="M507.6,624.7c-4.5,0-8.1-3.7-8.1-8.1c0-4.5,3.7-8.1,8.1-8.1c4.5,0,8.1,3.7,8.1,8.1
				C515.8,621.1,512.1,624.7,507.6,624.7z"/>
			<path id="Gap" class="st4" d="M580.6,588.4c-4.5,0-8.1-3.7-8.1-8.1c0-4.5,3.7-8.1,8.1-8.1c4.5,0,8.1,3.7,8.1,8.1
				C588.8,584.8,585.1,588.4,580.6,588.4z"/>
			<path id="L_x27_Alpe_d_x27_Huez" class="st4" d="M567.4,543.8c-4.5,0-8.1-3.7-8.1-8.1c0-4.5,3.7-8.1,8.1-8.1
				c4.5,0,8.1,3.7,8.1,8.1C575.6,540.2,571.9,543.8,567.4,543.8z"/>
			<path id="Aix-les-Bains" class="st5" d="M566.6,505.4c-4.5,0-8.1-3.7-8.1-8.1c0-4.5,3.7-8.1,8.1-8.1c4.5,0,8.1,3.7,8.1,8.1
				C574.7,501.8,571,505.4,566.6,505.4z"/>
			<path id="Grenoble" class="st5" d="M539,529.9c-4.5,0-8.1-3.7-8.1-8.1c0-4.5,3.7-8.1,8.1-8.1s8.1,3.7,8.1,8.1
				C547.2,526.3,543.5,529.9,539,529.9z"/>
			<path id="Morzine" class="st4" d="M599,491.2c-4.5,0-8.1-3.7-8.1-8.1c0-4.5,3.7-8.1,8.1-8.1c4.5,0,8.1,3.7,8.1,8.1
				C607.2,487.6,603.5,491.2,599,491.2z"/>
			<path id="Besançon" class="st4" d="M579.9,420.2c-4.5,0-8.1-3.7-8.1-8.1c0-4.5,3.7-8.1,8.1-8.1c4.5,0,8.1,3.7,8.1,8.1
				C588,416.5,584.4,420.2,579.9,420.2z"/>
			<path id="Belfort" class="st5" d="M605.7,397.9c-4.5,0-8.1-3.7-8.1-8.1c0-4.5,3.7-8.1,8.1-8.1c4.5,0,8.1,3.7,8.1,8.1
				C613.9,394.3,610.2,397.9,605.7,397.9z"/>
			<path id="Metz" class="st4" d="M589,303.1c-4.5,0-8.1-3.7-8.1-8.1c0-4.5,3.7-8.1,8.1-8.1c4.5,0,8.1,3.7,8.1,8.1
				C597.2,299.5,593.5,303.1,589,303.1z"/>
			<path id="Versailles" class="st5" d="M397.9,329.5c-4.5,0-8.1-3.7-8.1-8.1c0-4.5,3.7-8.1,8.1-8.1c4.5,0,8.1,3.7,8.1,8.1
				C406,325.8,402.4,329.5,397.9,329.5z"/>
			<path id="Caen" class="st5" d="M286.9,293c-4.5,0-8.1-3.7-8.1-8.1c0-4.5,3.7-8.1,8.1-8.1c4.5,0,8.1,3.7,8.1,8.1
				C295,289.3,291.4,293,286.9,293z"/>
			<path id="etape1_3_" class="st1" d="M411.2,170.1c-3.5,10.9-12.8,43.2,8.8,57.4c23.5,15.4,51.1-11.8,29.4-30.4"/>
			<g id="Dunkerque" class="hover">
				<circle id="XMLID_1572_" class="st5" cx="411.2" cy="169" r="8.1"/>
				<circle id="XMLID_1571_" class="st15" cx="411.2" cy="169" r="8.1"/>
				<path id="XMLID_1570_" class="st16" d="M414.5,172.9l1.9,2.3c0.7-0.6,1.3-1.3,1.8-2.2l-2.6-1.5
					C415.3,172.1,415,172.6,414.5,172.9z"/>
				<path id="XMLID_1569_" class="st17" d="M406.8,171.6l-2.6,1.5c0.5,0.8,1.1,1.6,1.8,2.2l1.9-2.3
					C407.5,172.6,407.1,172.1,406.8,171.6z"/>
				<path id="XMLID_1568_" class="st16" d="M407.9,172.9l-1.9,2.3c0.7,0.6,1.5,1.1,2.4,1.4l1-2.8
					C408.9,173.6,408.4,173.3,407.9,172.9z"/>
				<path id="XMLID_1567_" class="st17" d="M411.2,174.1c-0.6,0-1.2-0.1-1.8-0.3l-1,2.8c0.9,0.3,1.8,0.5,2.8,0.5h0L411.2,174.1
					L411.2,174.1z"/>
				<path id="XMLID_1566_" class="st17" d="M406.1,169c0-0.3,0-0.6,0.1-0.9l-2.9-0.5c-0.1,0.5-0.1,0.9-0.1,1.4c0,0.5,0,0.9,0.1,1.4
					l2.9-0.5C406.1,169.6,406.1,169.3,406.1,169z"/>
				<path id="XMLID_1565_" class="st16" d="M406.2,169.9l-2.9,0.5c0.2,0.9,0.5,1.8,1,2.6l2.6-1.5
					C406.5,171.1,406.3,170.5,406.2,169.9z"/>
				<path id="XMLID_1564_" class="st17" d="M415.6,171.6l2.6,1.5c0.5-0.8,0.8-1.7,1-2.6l-2.9-0.5
					C416.2,170.5,415.9,171.1,415.6,171.6z"/>
				<path id="XMLID_1563_" class="st16" d="M419.2,167.6l-2.9,0.5c0.1,0.3,0.1,0.6,0.1,0.9s0,0.6-0.1,0.9l2.9,0.5
					c0.1-0.5,0.1-0.9,0.1-1.4C419.3,168.5,419.3,168.1,419.2,167.6z"/>
				<path id="XMLID_1562_" class="st16" d="M411.2,174.1v3c1,0,1.9-0.2,2.8-0.5l-1-2.8C412.4,174,411.8,174.1,411.2,174.1z"/>
				<path id="XMLID_1561_" class="st17" d="M413,173.8l1,2.8c0.9-0.3,1.7-0.8,2.4-1.4l-1.9-2.3C414.1,173.3,413.5,173.6,413,173.8z"
					/>
				<path id="XMLID_1560_" class="st17" d="M414.5,165.1l1.9-2.3c-0.7-0.6-1.5-1.1-2.4-1.4l-1,2.8
					C413.5,164.4,414.1,164.7,414.5,165.1z"/>
				<path id="XMLID_1559_" class="st16" d="M415.7,166.5l2.6-1.5c-0.5-0.8-1.1-1.6-1.8-2.2l-1.9,2.3
					C415,165.5,415.3,165.9,415.7,166.5z"/>
				<path id="XMLID_1558_" class="st17" d="M416.3,168.1l2.9-0.5c-0.2-0.9-0.5-1.8-1-2.6l-2.6,1.5
					C415.9,167,416.2,167.5,416.3,168.1z"/>
				<path id="XMLID_1557_" class="st16" d="M413,164.2l1-2.8c-0.9-0.3-1.8-0.5-2.8-0.5v3C411.8,163.9,412.4,164,413,164.2z"/>
				<path id="XMLID_1556_" class="st17" d="M411.2,163.9L411.2,163.9l0-3h0c-1,0-1.9,0.2-2.8,0.5l1,2.8
					C410,164,410.6,163.9,411.2,163.9z"/>
				<path id="XMLID_1555_" class="st16" d="M406.8,166.5l-2.6-1.5c-0.5,0.8-0.8,1.7-1,2.6l2.9,0.5
					C406.3,167.5,406.5,167,406.8,166.5z"/>
				<path id="XMLID_1554_" class="st17" d="M407.9,165.1l-1.9-2.3c-0.7,0.6-1.3,1.3-1.8,2.2l2.6,1.5
					C407.1,165.9,407.5,165.5,407.9,165.1z"/>
				<path id="XMLID_1553_" class="st16" d="M409.5,164.2l-1-2.8c-0.9,0.3-1.7,0.8-2.4,1.4l1.9,2.3
					C408.4,164.7,408.9,164.4,409.5,164.2z"/>
				<polygon id="XMLID_1552_" class="st18" points="410,165.9 410,172.2 414.5,169 				"/>
			</g>
			<path id="Toulouse" class="st5" d="M357.5,653.1c-4.5,0-8.1-3.7-8.1-8.1c0-4.5,3.7-8.1,8.1-8.1c4.5,0,8.1,3.7,8.1,8.1
				C365.7,649.4,362,653.1,357.5,653.1z"/>
			<g id="Strasbourg" class="hover">
				<path id="XMLID_1549_" class="st4" d="M632.8,305.1c0,4.5,3.6,8.1,8.1,8.1V297C636.4,297,632.8,300.6,632.8,305.1z"/>
				<path id="XMLID_1548_" class="st5" d="M640.9,297v16.2c4.5,0,8.1-3.6,8.1-8.1C649,300.6,645.4,297,640.9,297z"/>
			</g>
			<g id="Nice" class="hover">
				<path id="XMLID_1546_" class="st4" d="M637,616.2c0,4.5,3.6,8.1,8.1,8.1V608C640.6,608,637,611.7,637,616.2z"/>
				<path id="XMLID_1545_" class="st5" d="M645.1,608v16.2c4.5,0,8.1-3.6,8.1-8.1C653.2,611.7,649.6,608,645.1,608z"/>
			</g>
			<path id="Briançon" class="st5" d="M599,559c-4.5,0-8.1-3.7-8.1-8.1c0-4.5,3.7-8.1,8.1-8.1c4.5,0,8.1,3.7,8.1,8.1
				C607.2,555.4,603.5,559,599,559z"/>
			<path id="XMLID_1542_" class="st14" d="M431.7,213.8c0,0-1.9-20,17.7-16.7"/>
			<path id="Lille" class="st5" d="M431.7,222c-4.5,0-8.1-3.7-8.1-8.1c0-4.5,3.7-8.1,8.1-8.1c4.5,0,8.1,3.7,8.1,8.1
				C439.8,218.3,436.2,222,431.7,222z"/>
			<path id="Roubaix" class="st4" d="M449.4,205.2c-4.5,0-8.1-3.7-8.1-8.1c0-4.5,3.7-8.1,8.1-8.1c4.5,0,8.1,3.7,8.1,8.1
				C457.6,201.6,453.9,205.2,449.4,205.2z"/>
			<g id="XMLID_1534_">
				<polygon id="XMLID_1539_" class="st2" points="578.1,511.6 580.9,501.8 584,507.5 587.9,495.7 592.3,504.9 595.2,501.5
					597.6,511.6 				"/>
				<polygon id="XMLID_1538_" class="st3" points="585.6,501.8 587.3,504.1 588.6,502.3 589.7,503.4 591.2,501.8 587.9,495.7
					"/>
				<polygon id="XMLID_1535_" class="st3" points="579.9,505.6 581.6,508 582.9,505.5 580.9,501.8 				"/>
			</g>
		</g>
	</g>
</g>
</svg>
