<svg id="Calque_1" data-name="Calque 1" xmlns="http://www.w3.org/2000/svg" viewBox="0 0 769 801.03"><defs><style>.cls-1{fill:#ede6d8;}.cls-1,.cls-3{stroke:#fff;stroke-miterlimit:10;}.cls-2,.cls-6{fill:#fff;}.cls-10,.cls-11,.cls-12,.cls-3,.cls-4,.cls-5,.cls-8,.cls-9{fill:none;}.cls-4{stroke:#00a5ac;}.cls-11,.cls-4,.cls-5,.cls-6,.cls-8,.cls-9{stroke-width:2px;}.cls-5{stroke:#e61e49;}.cls-11,.cls-12,.cls-6{stroke:#1d1d1b;}.cls-10,.cls-11,.cls-6,.cls-8{stroke-linecap:round;stroke-linejoin:round;}.cls-7{fill:#1d1d1b;}.cls-10,.cls-8,.cls-9{stroke:#000;}.cls-12{stroke-dasharray:4 4 4;}.cls-13{fill:#00a5ac;}</style></defs><title>cartesTOURFRANCE-parcourstype1903-39</title><rect class="cls-1" x="0.94" y="0.53" width="767.34" height="800"/><polygon id="France" class="cls-2" points="655.71 610.74 655.71 610.74 654.48 597.81 637.6 601.62 618.44 588.39 617.23 580.47 618.23 579.5 622.14 575.67 621.98 569.23 621.7 568.93 625.85 565.08 625.85 565.08 621.98 556.3 611.06 553.63 604.41 540.59 604.41 540.59 615.81 539.45 625.72 531.87 628.44 521.17 628.44 521.16 609.61 496.56 609.61 496.56 611.36 494.53 618.84 491.52 618.97 489.66 619.1 488.69 619.33 484.51 608.72 471.28 608.72 471.28 611.15 468.67 611.15 468.67 607.08 458.58 590.63 462.5 587.94 460.65 583.78 466.27 583.78 466.27 586.38 470.2 579.11 475.62 572.01 475.53 571.93 471.3 578.5 469.27 581.32 460.46 576.54 458.72 577.7 449.36 591.54 435.22 591.54 435.22 590.54 424.71 590.54 424.71 599.09 420.86 600.48 419.03 617.11 397.16 617 397.15 617 397.15 614.13 389.83 618.82 388.88 619.46 388.57 621.96 392.2 630.62 392.26 634.68 388.75 637.16 381.1 632.84 374.27 637.79 356.58 635.44 346.51 641.27 335.38 644.09 313.04 649.8 308.97 660.45 291.95 648.11 286.85 635.09 287.56 628.1 280.89 622.46 280.7 619.36 283.51 611.93 283.66 605.64 278.82 601.54 278.87 600.56 281.81 596.54 282.23 589.31 266.91 581.37 263.65 575.47 261.23 572.02 261.41 563.14 263.82 556.44 258.9 543.28 261.29 538.05 257.51 536.14 252.18 518.09 244.79 517.71 222 513.48 222 509.22 231.79 499.13 236.07 491.91 233.59 487.45 233.54 486.97 231.99 491.31 228.77 490.96 216.93 483.13 209.64 470.87 210.21 469.55 212.37 468.01 212.35 468.44 204.68 460.67 199.15 456.4 201.05 451.84 199.06 450.85 187.47 446.93 182.6 438.62 184.53 433.33 187.74 430.96 183.13 428.81 180.69 424.44 178.28 426 172.15 422.22 163.12 403.79 168.12 391.65 170.32 381.94 177.67 381.62 208.11 372.66 227.09 361.76 235.96 325.07 248.58 318.61 262.54 328.28 267.39 305.35 276.66 297.93 272.42 278.79 269.69 274.73 267.67 269.22 269.02 261.34 257.47 265.54 254.56 263.57 249 252.41 249 247.91 250.88 235.17 244.58 234.28 246.42 238.87 249.99 238.88 263.88 246.94 278.37 249.39 297.66 246.65 303.33 254.66 313.42 248.34 315.59 237.57 315.49 236.3 309.56 231.04 309.3 228.92 311.66 214.97 309.99 198.57 316.97 194.01 313.15 185.41 295.57 162.53 296.86 161.12 305.02 151.6 303.15 149.41 305.56 139.11 301.73 113.22 309.18 110.25 323.37 124.07 322.41 133.24 327.94 119.42 325.66 115.72 327.59 130.03 334.84 129.18 339.31 111.87 340.02 111.82 342.91 119.71 344.72 125.33 355.7 125.04 359.02 133.39 359.48 134.51 355.78 145.84 361.79 160.46 364.13 175.28 377.15 189.44 384.48 203.43 387.79 198.36 397.96 213 400.48 213 406.51 210.63 409.38 217.47 410.65 222.78 414.75 215.54 423.5 215.43 428.75 228 449.88 256.96 464.84 254.61 471.34 242.09 463.67 237.1 466.76 260.9 480.57 257.97 491.52 254.03 489.52 245.81 479.14 245.29 486.81 250.3 490.57 251.85 503.24 271.74 518.63 273.33 527.03 275.54 538.72 274.05 541.2 269.23 524.52 258.13 517.06 256.92 511.2 254.54 512.12 253.49 520.48 246.42 568.73 251.87 561.95 258.64 570.4 258.13 574 250.38 574 246.5 578.3 246.42 582.02 234.2 633.96 230.89 639.16 224.52 646.48 215 648.38 215 652.29 234.25 658.53 233.71 665.16 230.98 666.68 236.94 673.14 239.08 668.23 257.54 678.07 261.92 678.12 262.15 678.05 264.85 678 264.85 678 264.85 678 265.29 682.66 271.78 688.37 272.43 688.96 272.43 688.97 285.21 685.74 292.17 690.48 298.2 696.84 307.25 693.82 313.14 698.24 319.34 696.66 331.08 697.82 331.48 687.01 340.13 690 349.83 694.17 353.5 701 361.46 701 366.6 704.63 377.98 703.27 383.54 712.07 390.51 714.28 390.54 717.98 396.64 720.65 400.44 716.88 405.03 717.08 416.36 725 424.45 725 433.49 715.28 440.28 713.59 443.66 716.32 447.73 717.53 447.76 711.71 443.72 707.54 442.71 689.15 442.94 676.46 438.14 673.32 439.92 670.45 444.13 673.56 449.45 666.9 485.9 644.33 489.98 644.65 492.24 649.22 499.95 649.17 516.09 650.3 513.15 654.36 523.38 658.35 529.18 656.54 526.61 651.65 532.05 652.4 535.77 656.63 549.94 656.17 552.13 664.04 566.53 668 572.68 674.41 580.07 670.74 588.13 671.57 598.05 670.26 612.76 662.24 611.73 655.71 624.09 644.84 632.48 639.24 632.74 632.45 637.79 632.06 650.33 623.42 650.34 623.41 650.86 612.24 655.71 610.74"/><polygon id="Royaume-Uni" class="cls-3" points="208.03 6.53 198.13 8.94 168.13 11.12 154.89 24.5 139.33 36.27 143.07 38.23 161.85 33.65 164.17 58.35 159.65 74.53 122.91 84.27 110.45 93.39 112.36 104.41 121.41 112.81 144.33 106.59 150.49 119.79 167.57 116.23 171.4 126.17 192.24 131.74 199.84 124.2 225.49 112.34 203.41 131.74 198.88 144.47 174.43 141.69 149.67 142.35 134.62 159.45 110.11 187.51 81.94 203.72 103.47 213.72 122.76 194.29 142.64 195.16 167.16 208.95 179.94 184.5 206.39 184.5 213.8 186.68 232.97 183.1 265.99 175.4 284.22 178.85 328.19 183.14 356.65 171.93 375.74 157.45 378.8 141.95 352.57 143.34 335.97 137.45 357 130 359.29 120.14 369.4 114.68 385.12 98.48 387.35 86.84 392.28 64.11 377.27 46.64 358.09 43.55 346 41.15 339.03 53.63 328.88 45.82 324.32 45.64 339.17 28.65 334.12 14.97 323.93 0.5 208.23 0.5 208.03 6.53"/><polygon id="Irlande" class="cls-3" points="0.5 78.04 18.01 71.3 41.65 68.4 52.71 64.48 71.25 68.92 90.02 24.98 90.91 9.26 87.53 5.73 84.47 0.5 0.5 0.5 0.5 78.04"/><polygon id="Espagne" class="cls-3" points="440.28 713.46 433.49 715.03 424.45 724.5 416.36 724.5 405.03 716.83 400.44 716.88 396.64 720.65 390.54 717.97 390.51 714.25 383.28 711.72 371.52 715.74 366.54 708.98 366.6 704.38 361.46 700.5 353.5 700.5 349.83 693.92 340.13 690 331.48 687.01 331.08 697.83 319.34 696.69 313.14 698.25 307.25 693.82 298.2 696.85 292.18 690.49 285.22 685.75 272.44 688.74 272.43 688.5 272.43 688.5 271.78 688.17 265.29 682.61 264.85 678.09 264.85 678.09 262.15 678.09 261.93 678.1 257.55 678.07 239.09 668.23 236.96 673.14 231.03 666.68 233.81 665.16 234.5 658.53 215.5 652.29 215.5 648.38 202.44 652.05 185.53 648.8 170.98 640.71 158.18 648.22 139.71 637.01 122.17 633.33 105.7 638.29 62.26 630.92 46.67 622.57 22.78 618.07 0.5 617.69 0.5 800.5 367.58 800.5 390.5 793.19 449.86 752.02 446.1 731.46 453.46 729 447.73 717.5 443.66 716.25 440.28 713.46"/><polygon id="Allemagne" class="cls-3" points="605.78 21.57 605.78 21.57 603.45 56.26 602.51 57.5 600.02 60.82 599.76 60.8 599.74 60.82 590.16 60.21 587.34 70.93 598.54 71.5 598.92 73.17 601.87 86.22 588.46 97.44 592.88 105.9 576.45 112.81 576.45 112.81 576.45 112.81 567.65 108.88 559.81 113.4 575.03 140.01 573.55 143.77 572.05 147.58 566.03 162.84 566.6 174.89 566.6 174.89 563.78 181.92 573.82 192.75 573.82 192.75 573.55 193.45 572.15 197.07 577.83 200.72 579.88 208.11 569.87 221.2 567.54 228.73 573.87 236.45 586.9 241.31 588.25 248.22 580.33 259.4 581.37 263.65 589.31 266.91 596.54 282.23 600.56 281.81 601.54 278.87 605.64 278.82 611.93 283.66 619.36 283.51 622.46 280.7 628.1 280.89 635.09 287.56 648.12 286.85 660.45 291.95 649.8 308.97 644.09 313.04 641.27 335.38 635.44 346.51 637.79 356.58 632.84 374.27 637.16 381.1 634.69 388.75 637.3 384.57 654.76 383.78 665.32 378.69 676.22 381.18 677.16 378.94 677.3 378.61 683.1 376.35 675.65 374.56 673.61 372.63 679.49 367.25 685.54 366.12 691.1 371.04 697.38 374.05 704.86 372.56 715.24 373.7 730.12 378.26 732.13 374.6 747.5 387.01 747.5 389.36 747.5 392.87 761.16 382.86 761.94 374.35 768 374.22 768.5 374.21 768.5 0.5 603.79 0.5 594.82 12.79 595.03 13.11 605.78 21.57"/><polygon id="Italie" class="cls-3" points="768.5 423.07 753.01 436.45 750.76 454.59 717.02 450.68 694.75 473.37 681.73 465.34 680.85 451.49 665.94 465.26 669.45 470.38 656.35 488.3 645.51 484.67 633.87 490.76 623 492.17 621.2 491.65 618.97 489.66 618.84 491.52 611.36 494.53 609.61 496.56 628.44 521.16 628.44 521.17 628.44 521.17 625.72 531.87 615.81 539.45 604.41 540.59 611.06 553.63 621.98 556.3 625.85 565.08 625.85 565.08 621.7 568.93 621.98 569.23 622.14 575.67 618.23 579.5 617.23 580.47 618.44 588.39 637.6 601.62 654.48 597.81 655.71 610.74 655.71 610.74 650.86 612.24 650.34 623.41 657.04 625.46 675.55 618.46 691.1 593.52 703.66 581.25 730.87 587.41 767.09 602.85 768.5 604.37 768.5 423.07"/><polygon id="Autriche" class="cls-3" points="761.88 374.35 761.16 382.86 747.5 392.87 747.5 389.36 747.5 387.01 732.13 374.6 730.18 378.26 715.23 373.7 723.8 380.43 728.06 383.64 729.84 388.99 724.18 398.97 737.66 401.01 741.13 413.61 749.87 422.23 760.14 414.5 767.54 414.5 768.5 414.5 768.5 374.21 768.01 374.22 761.88 374.35"/><polygon id="Liechtenstein" class="cls-3" points="741.13 413.61 737.66 401.01 724.18 398.97 726.69 410.65 741.13 413.61"/><polygon id="Pays-Bas" class="cls-3" points="490.95 144.71 503.78 138.29 513.05 141.18 524.4 138.29 531.4 150.37 540.13 149.09 540.13 149.09 540.13 149.09 556.53 157.12 551.23 182.84 563.78 181.92 563.78 181.92 563.78 181.92 563.78 181.92 566.6 174.89 566.6 174.89 566.03 162.84 572.05 147.58 573.55 143.77 575.03 140.01 559.81 113.4 567.65 108.88 567.65 108.88 576.45 112.81 576.45 112.81 592.88 105.9 588.46 97.44 601.87 86.22 598.92 73.17 598.54 71.5 587.34 70.93 590.16 60.21 590.17 60.2 599.76 60.8 600.02 60.82 602.51 57.5 603.45 56.26 605.78 21.57 605.78 21.57 595.03 13.26 594.82 13.1 594.36 12.74 591.24 10.33 581.52 11.07 560.38 14.55 539.48 23.01 534.51 35.62 518.04 48.31 515.06 43.55 509.3 42.52 501.09 84.26 487.17 104.35 471.73 121.19 458.69 134.28 462.72 141.71 479.23 145.57 490.95 144.71"/><polygon id="Belgique" class="cls-3" points="424.45 178.28 428.81 180.69 430.96 183.13 433.33 187.74 438.62 184.53 446.93 182.6 450.85 187.47 451.84 199.06 456.4 201.05 460.67 199.15 468.44 204.68 468.01 212.35 469.55 212.37 470.87 210.21 483.13 209.64 490.96 216.93 491.31 228.77 486.97 231.99 487.45 233.54 491.91 233.58 499.13 236.06 509.22 231.54 513.48 221.5 517.71 221.5 518.09 244.54 536.14 252.07 538.05 257.45 543.28 261.26 556.44 258.88 560.37 256.58 559.9 253.93 553.51 237.12 564.74 218.21 569.87 221.2 579.88 208.11 577.83 200.72 572.15 197.07 573.54 193.45 573.81 192.75 563.78 181.92 563.78 181.92 551.23 182.84 551.23 182.84 556.53 157.12 540.13 149.09 540.13 149.09 531.4 150.37 524.4 138.29 513.05 141.18 503.78 138.29 490.95 144.71 479.23 145.57 462.72 141.71 449.24 145.32 418.5 161.12 418.5 164.2 422.35 163.12 426.06 172.15 424.45 178.28"/><polygon id="Luxembourg" class="cls-3" points="588.25 248.22 586.9 241.31 573.87 236.45 567.54 228.73 569.87 221.2 564.74 218.21 553.51 237.12 559.9 253.93 560.37 256.58 556.44 258.9 563.14 263.82 572.02 261.41 575.47 261.23 581.37 263.65 580.33 259.4 588.25 248.22"/><polygon id="Suisse" class="cls-3" points="760.14 414.5 749.87 422.23 741.13 413.5 726.69 410.59 724.18 398.97 729.84 388.99 728.05 383.63 723.8 380.43 715.24 373.7 704.86 372.56 697.38 374.05 691.1 371.04 685.54 366.12 679.49 367.25 673.61 372.63 675.65 374.56 683.1 376.35 677.3 378.61 677.16 378.93 676.22 381.15 665.32 378.69 654.76 383.78 637.3 384.34 634.34 388.5 633.95 388.5 630.63 392.03 621.98 392.09 619.49 388.51 618.88 388.85 614.38 389.83 617.5 397.15 617.5 397.15 617.5 397.15 617.36 397.16 617.3 397.16 600.52 419.03 599.11 420.86 590.55 424.85 591.55 435.5 591.55 435.5 591.54 435.5 577.71 449.5 576.54 458.79 581.32 460.5 578.5 469.29 571.94 471.31 572.01 475.54 579.11 475.62 586.38 470.2 583.78 466.27 583.78 466.27 583.78 466.26 587.94 460.65 590.63 462.5 607.08 458.58 611.15 468.67 611.15 468.67 611.15 468.67 608.72 471.28 619.33 484.51 619.1 488.69 618.97 489.66 621.2 491.65 623 492.17 633.87 490.76 645.5 484.67 656.35 488.3 656.35 488.3 669.43 470.38 665.93 465.26 680.84 451.49 681.73 465.34 694.72 473.37 716.96 450.68 750.7 454.59 753.01 436.45 768.5 423.07 768.5 414.5 767.54 414.5 760.14 414.5"/><polygon id="France-2" data-name="France" class="cls-2" points="732.13 654.37 724.87 654.59 722.41 660 708.14 665.55 702.98 678.44 701.21 680.83 707.09 684.61 707.32 686.35 701.6 687.64 703.09 694.87 709.62 696.89 710.04 700.85 705.62 705.4 706.22 709.33 712.68 709.9 714.3 714.02 709.88 719.87 721.45 721.72 714.84 728.92 720.94 733.77 730.51 736.69 733.27 739.88 738.81 741.39 743.98 725.88 745.17 714.5 744.49 708.05 744.41 701.57 749.72 694.18 749.83 681.92 747.7 677.73 747.14 664.58 742.8 659.96 742.41 651.83 743.78 648.13 741.03 637.38 739.04 633.85 734.86 637.11 736.75 650.27 735.37 656.14 732.13 654.37"/><polygon id="Andorre" class="cls-3" points="371.52 715.74 383.28 711.72 377.98 703.13 366.6 704.36 366.54 708.98 371.52 715.74"/><polygon id="Monaco" class="cls-3" points="632.48 639.24 632.48 639.25 641.42 639.5 637.79 632.06 632.74 632.45 632.48 639.24"/><rect class="cls-2" x="0.5" y="411.53" width="189.1" height="191.26"/><path d="M17.66,429.46H22.1a3.3,3.3,0,0,1,1.29.24,3,3,0,0,1,1,.66,2.77,2.77,0,0,1,.64,1,3.35,3.35,0,0,1,.23,1.28A3.82,3.82,0,0,1,25,434a2.84,2.84,0,0,1-.66,1.05,2.9,2.9,0,0,1-1.12.66,4.67,4.67,0,0,1-1.57.24h-2.4v3.87H17.66Zm4.23,5.13a1.58,1.58,0,0,0,1.28-.54,2,2,0,0,0,.44-1.34,2.3,2.3,0,0,0-.12-.74,1.77,1.77,0,0,0-.34-.6,1.58,1.58,0,0,0-.53-.4,1.47,1.47,0,0,0-.67-.15H19.29v3.77Z"/><path d="M31.59,438.77h0a2.79,2.79,0,0,1-1,.86A3.45,3.45,0,0,1,29,440a3,3,0,0,1-1-.16,2,2,0,0,1-.74-.42,1.84,1.84,0,0,1-.44-.63,2,2,0,0,1-.15-.77,1.92,1.92,0,0,1,.37-1.27,2.28,2.28,0,0,1,.91-.67,4.66,4.66,0,0,1,1.22-.33l1.23-.2.67-.12a1.55,1.55,0,0,0,.39-.14.46.46,0,0,0,.17-.22,1,1,0,0,0,0-.32,1.3,1.3,0,0,0-.38-1,1.66,1.66,0,0,0-1.16-.37,1.84,1.84,0,0,0-1.16.33,1.45,1.45,0,0,0-.49,1.07H27a3,3,0,0,1,.83-1.9,3.21,3.21,0,0,1,2.28-.69,2.64,2.64,0,0,1,3,3v4.63h-1.5Zm0-2.6a11.58,11.58,0,0,1-1.2.24,10.17,10.17,0,0,0-1.14.21,2.31,2.31,0,0,0-.85.39.85.85,0,0,0-.33.73.92.92,0,0,0,.37.78,1.49,1.49,0,0,0,1,.3,2.71,2.71,0,0,0,.88-.14,2.36,2.36,0,0,0,.69-.4,1.66,1.66,0,0,0,.45-.63,2,2,0,0,0,.17-.82Z"/><path d="M35.38,432.33h1.5v1.16h0a2.85,2.85,0,0,1,.86-.95,2.15,2.15,0,0,1,1.23-.35h.22l.22,0v1.56l-.3-.07a2,2,0,0,0-.35,0,1.88,1.88,0,0,0-1.39.53,2.1,2.1,0,0,0-.51,1.5v4.1h-1.5Z"/><path d="M47.32,437.07a2.86,2.86,0,0,1-.92,2.15,3.43,3.43,0,0,1-2.33.74,4,4,0,0,1-1.56-.28,3,3,0,0,1-1.11-.79,3.45,3.45,0,0,1-.65-1.23,5.66,5.66,0,0,1,0-3.16,3.48,3.48,0,0,1,.67-1.23,3.07,3.07,0,0,1,1.1-.8,4,4,0,0,1,1.53-.28,3.43,3.43,0,0,1,2.34.76,2.92,2.92,0,0,1,.92,2.17H45.84a1.85,1.85,0,0,0-.55-1.25,1.73,1.73,0,0,0-1.24-.45,1.79,1.79,0,0,0-1.49.66,4.09,4.09,0,0,0,0,4,2,2,0,0,0,2.74.24,1.8,1.8,0,0,0,.54-1.24Z"/><path d="M52.69,440a4,4,0,0,1-1.55-.28,3.19,3.19,0,0,1-1.17-.79,3.38,3.38,0,0,1-.75-1.22,5,5,0,0,1,0-3.18,3.35,3.35,0,0,1,1.92-2,4.43,4.43,0,0,1,3.1,0,3.33,3.33,0,0,1,1.93,2,4.82,4.82,0,0,1,0,3.18,3.53,3.53,0,0,1-.75,1.22,3.31,3.31,0,0,1-1.18.79A4.07,4.07,0,0,1,52.69,440Zm0-1.16a2,2,0,0,0,1.64-.74,3.63,3.63,0,0,0,0-4,2.2,2.2,0,0,0-3.27,0,3.58,3.58,0,0,0,0,4A2,2,0,0,0,52.69,438.8Z"/><path d="M58.37,432.33h1.5v4.5a2.57,2.57,0,0,0,.3,1.38,1.21,1.21,0,0,0,1.08.46,1.79,1.79,0,0,0,1.39-.55,2.17,2.17,0,0,0,.5-1.5v-4.29h1.5v7.49h-1.5v-1.2h0a2.86,2.86,0,0,1-.91,1,2.56,2.56,0,0,1-1.44.36,2.21,2.21,0,0,1-1.85-.71,3.3,3.3,0,0,1-.54-2Z"/><path d="M67,432.33h1.5v1.16h0a2.85,2.85,0,0,1,.86-.95,2.1,2.1,0,0,1,1.23-.35h.21l.22,0v1.56a1.67,1.67,0,0,0-.3-.07,2.06,2.06,0,0,0-1.73.5,2.06,2.06,0,0,0-.52,1.5v4.1H67Z"/><path d="M73.59,437.38a1.4,1.4,0,0,0,.56,1.14,2.25,2.25,0,0,0,1.23.31,1.82,1.82,0,0,0,1-.25.87.87,0,0,0,.36-.76.76.76,0,0,0-.32-.66,2.81,2.81,0,0,0-.82-.35l-1.06-.24a5,5,0,0,1-1.06-.33,2.23,2.23,0,0,1-.82-.64,1.79,1.79,0,0,1-.32-1.15,2.17,2.17,0,0,1,.17-.89,1.88,1.88,0,0,1,.53-.72,2.41,2.41,0,0,1,.87-.47,3.8,3.8,0,0,1,1.23-.18,3.21,3.21,0,0,1,2.13.65,2.48,2.48,0,0,1,.82,1.89H76.67a1.41,1.41,0,0,0-.43-1.06,1.6,1.6,0,0,0-1.06-.33,2.22,2.22,0,0,0-.62.08,1,1,0,0,0-.4.23A.84.84,0,0,0,74,434a1.27,1.27,0,0,0-.07.37.7.7,0,0,0,.34.62,3,3,0,0,0,.81.34c.32.09.67.17,1.06.25a4.8,4.8,0,0,1,1,.35,2.22,2.22,0,0,1,.81.65,1.88,1.88,0,0,1,.33,1.16,2,2,0,0,1-.73,1.63,3.35,3.35,0,0,1-2.19.61,3.83,3.83,0,0,1-2.32-.62,2.5,2.5,0,0,1-.91-2Z"/><path d="M84.44,433.57h-1v-1.24h1V430.4h1.5v1.93h1.75v1.24H85.94v3.93a1.15,1.15,0,0,0,.26.83,1.13,1.13,0,0,0,.8.26l.36,0,.37-.05v1.33l-.46.07a2.93,2.93,0,0,1-.53,0,2.41,2.41,0,0,1-1.69-.56,2.35,2.35,0,0,1-.61-1.82Z"/><path d="M91.34,439.82l-3-7.49H90l2.11,5.78L94,432.33h1.57L91.9,442.55H90.3Z"/><path d="M97,432.33h1.5v1.16h0a3,3,0,0,1,.92-.94,2.74,2.74,0,0,1,1.49-.36,3,3,0,0,1,1.39.3,2.79,2.79,0,0,1,1,.8,3.76,3.76,0,0,1,.6,1.22,5.84,5.84,0,0,1,0,3.14,3.91,3.91,0,0,1-.63,1.24,2.66,2.66,0,0,1-1,.79A3.12,3.12,0,0,1,101,440a2.65,2.65,0,0,1-1.46-.36,3,3,0,0,1-.94-1h0v3.93H97Zm3.52,6.49a1.84,1.84,0,0,0,1.52-.71,3.18,3.18,0,0,0,.56-2,3.29,3.29,0,0,0-.54-2,1.83,1.83,0,0,0-1.56-.72,1.69,1.69,0,0,0-1.53.73,3.65,3.65,0,0,0-.48,2,3.51,3.51,0,0,0,.49,2A1.74,1.74,0,0,0,100.56,438.82Z"/><path d="M112.42,437.26a3.08,3.08,0,0,1-.28,1.09,2.6,2.6,0,0,1-.66.85,3.13,3.13,0,0,1-1,.56,4.16,4.16,0,0,1-1.32.2,4,4,0,0,1-1.58-.28,2.85,2.85,0,0,1-1.1-.79,3.15,3.15,0,0,1-.63-1.22,5.67,5.67,0,0,1-.21-1.59,5.58,5.58,0,0,1,.22-1.58,3.17,3.17,0,0,1,.66-1.23,3,3,0,0,1,1.09-.8,4,4,0,0,1,1.53-.28,3.81,3.81,0,0,1,1.51.27,2.61,2.61,0,0,1,1,.77,3.08,3.08,0,0,1,.58,1.22,6.69,6.69,0,0,1,.18,1.62v.24h-5.27a2.88,2.88,0,0,0,.53,1.84,1.75,1.75,0,0,0,1.39.61,2,2,0,0,0,1.28-.39,1.59,1.59,0,0,0,.58-1.11ZM111,435.33a2.3,2.3,0,0,0-.48-1.41,1.63,1.63,0,0,0-1.33-.55,1.86,1.86,0,0,0-1.34.48,2.36,2.36,0,0,0-.62,1.48Z"/><path d="M22.75,455.42h0a3.05,3.05,0,0,1-.92,1,2.64,2.64,0,0,1-1.5.37,3.25,3.25,0,0,1-1.37-.28,2.61,2.61,0,0,1-1-.81,3.55,3.55,0,0,1-.61-1.23,5.74,5.74,0,0,1-.2-1.54,5.67,5.67,0,0,1,.21-1.59,3.56,3.56,0,0,1,.62-1.23,2.79,2.79,0,0,1,1-.8,3.12,3.12,0,0,1,1.36-.29,2.69,2.69,0,0,1,1.47.36,3.09,3.09,0,0,1,.93.94h0v-4h1.49v10.36H22.75Zm-2,.2a1.72,1.72,0,0,0,1.54-.72,3.66,3.66,0,0,0,.48-2,3.46,3.46,0,0,0-.49-2,1.73,1.73,0,0,0-1.54-.72,1.82,1.82,0,0,0-1.52.72,3.18,3.18,0,0,0-.57,2,3.28,3.28,0,0,0,.55,2A1.84,1.84,0,0,0,20.74,455.62Z"/><path d="M26.65,449.13h1.5v4.5a2.57,2.57,0,0,0,.3,1.38,1.21,1.21,0,0,0,1.08.46,1.79,1.79,0,0,0,1.39-.55,2.17,2.17,0,0,0,.5-1.5v-4.29h1.5v7.49h-1.5v-1.2h0a2.86,2.86,0,0,1-.91,1,2.56,2.56,0,0,1-1.44.36,2.19,2.19,0,0,1-1.84-.71,3.24,3.24,0,0,1-.55-2Z"/><path d="M41.9,447.62H38.61v-1.36H46.8v1.36H43.53v9H41.9Z"/><path d="M51.61,456.76a4,4,0,0,1-1.54-.28,3.31,3.31,0,0,1-1.18-.79,3.68,3.68,0,0,1-.75-1.22,5,5,0,0,1,0-3.18,3.63,3.63,0,0,1,.75-1.23,3.45,3.45,0,0,1,1.18-.79,4.18,4.18,0,0,1,1.54-.28,4.24,4.24,0,0,1,1.55.28,3.36,3.36,0,0,1,1.18.79,3.5,3.5,0,0,1,.76,1.23,4.82,4.82,0,0,1,0,3.18,3.55,3.55,0,0,1-.76,1.22,3.23,3.23,0,0,1-1.18.79A4,4,0,0,1,51.61,456.76Zm0-1.16a2,2,0,0,0,1.64-.74,3.63,3.63,0,0,0,0-4,2.2,2.2,0,0,0-3.27,0,3.63,3.63,0,0,0,0,4A2,2,0,0,0,51.61,455.6Z"/><path d="M57.29,449.13h1.5v4.5A2.47,2.47,0,0,0,59.1,455a1.18,1.18,0,0,0,1.08.46,1.75,1.75,0,0,0,1.38-.55,2.13,2.13,0,0,0,.51-1.5v-4.29h1.5v7.49h-1.5v-1.2h0a3,3,0,0,1-.91,1,2.6,2.6,0,0,1-1.44.36,2.21,2.21,0,0,1-1.85-.71,3.3,3.3,0,0,1-.55-2Z"/><path d="M66,449.13h1.5v1.16h0a3,3,0,0,1,.87-1,2.17,2.17,0,0,1,1.23-.34h.21a1,1,0,0,1,.22,0v1.56l-.3-.07a2,2,0,0,0-.35,0A1.84,1.84,0,0,0,68,451a2.06,2.06,0,0,0-.52,1.5v4.1H66Z"/><path d="M80.89,455.42h0a3.17,3.17,0,0,1-.92,1,2.64,2.64,0,0,1-1.5.37,3.33,3.33,0,0,1-1.38-.28,2.77,2.77,0,0,1-1-.81,3.71,3.71,0,0,1-.6-1.23,5.74,5.74,0,0,1-.2-1.54,5.67,5.67,0,0,1,.21-1.59,3.55,3.55,0,0,1,.61-1.23,2.92,2.92,0,0,1,1-.8,3.08,3.08,0,0,1,1.35-.29,2.73,2.73,0,0,1,1.48.36,3.09,3.09,0,0,1,.93.94h0v-4h1.5v10.36h-1.5Zm-2,.2a1.71,1.71,0,0,0,1.53-.72,3.58,3.58,0,0,0,.49-2,3.46,3.46,0,0,0-.5-2,1.72,1.72,0,0,0-1.53-.72,1.82,1.82,0,0,0-1.53.72,4,4,0,0,0,0,4A1.82,1.82,0,0,0,78.89,455.62Z"/><path d="M91.11,454.06a3.08,3.08,0,0,1-.28,1.09,2.6,2.6,0,0,1-.66.85,3.13,3.13,0,0,1-1,.56,4.16,4.16,0,0,1-1.32.2,4,4,0,0,1-1.58-.28,2.85,2.85,0,0,1-1.1-.79,3.15,3.15,0,0,1-.63-1.22,5.67,5.67,0,0,1-.2-1.59,5.59,5.59,0,0,1,.21-1.58,3.46,3.46,0,0,1,.66-1.23,3,3,0,0,1,1.09-.8,4,4,0,0,1,1.54-.28,3.72,3.72,0,0,1,1.5.27,2.47,2.47,0,0,1,1,.77,3.08,3.08,0,0,1,.58,1.22,6.69,6.69,0,0,1,.18,1.62v.24H85.85a2.94,2.94,0,0,0,.53,1.84,1.75,1.75,0,0,0,1.4.61,2,2,0,0,0,1.27-.39,1.55,1.55,0,0,0,.58-1.11Zm-1.47-1.93a2.3,2.3,0,0,0-.48-1.41,1.6,1.6,0,0,0-1.32-.55,1.89,1.89,0,0,0-1.35.48,2.3,2.3,0,0,0-.61,1.48Z"/><path d="M97.46,446.26H104v1.36h-5v3.07h4.73V452H99.08v4.59H97.46Z"/><path d="M106.29,449.13h1.5v1.16h0a3,3,0,0,1,.86-1,2.22,2.22,0,0,1,1.23-.34h.22a.79.79,0,0,1,.21,0v1.56a1.77,1.77,0,0,0-.29-.07,2,2,0,0,0-.35,0,1.88,1.88,0,0,0-1.39.53,2.1,2.1,0,0,0-.51,1.5v4.1h-1.5Z"/><path d="M116.25,455.57h0a2.79,2.79,0,0,1-1,.86,3.46,3.46,0,0,1-1.59.33,3,3,0,0,1-1-.16,2,2,0,0,1-.73-.42,1.74,1.74,0,0,1-.45-.63,2.28,2.28,0,0,1-.14-.77,2,2,0,0,1,.36-1.27,2.43,2.43,0,0,1,.92-.68,4.87,4.87,0,0,1,1.21-.32l1.23-.2.67-.12a1.55,1.55,0,0,0,.39-.14.36.36,0,0,0,.17-.22,1,1,0,0,0,0-.32,1.3,1.3,0,0,0-.38-1,1.64,1.64,0,0,0-1.15-.37,1.85,1.85,0,0,0-1.17.33,1.48,1.48,0,0,0-.49,1.07h-1.44a2.92,2.92,0,0,1,.84-1.9,3.16,3.16,0,0,1,2.27-.69,3.1,3.1,0,0,1,2.29.75,3.06,3.06,0,0,1,.73,2.25v4.63h-1.5Zm0-2.61a9.1,9.1,0,0,1-1.2.25,11.09,11.09,0,0,0-1.14.21,2.31,2.31,0,0,0-.85.39.85.85,0,0,0-.33.73.93.93,0,0,0,.38.78,1.49,1.49,0,0,0,1,.3,2.65,2.65,0,0,0,.87-.14,2.12,2.12,0,0,0,.69-.4,1.8,1.8,0,0,0,.46-.63,2.14,2.14,0,0,0,.16-.82Z"/><path d="M120,449.13h1.5v1.18h0a2.82,2.82,0,0,1,.94-1A2.91,2.91,0,0,1,124,449a2.25,2.25,0,0,1,1.9.72,3.25,3.25,0,0,1,.55,2v4.9H125v-4.49a2.42,2.42,0,0,0-.33-1.39,1.28,1.28,0,0,0-1.13-.46,1.91,1.91,0,0,0-1.44.55,2.1,2.1,0,0,0-.53,1.51v4.28H120Z"/><path d="M135.18,453.87a2.89,2.89,0,0,1-.92,2.15,3.45,3.45,0,0,1-2.33.74,3.92,3.92,0,0,1-1.56-.28,2.81,2.81,0,0,1-1.11-.79,3.47,3.47,0,0,1-.66-1.23,5.54,5.54,0,0,1-.21-1.58,5,5,0,0,1,.23-1.58,3.33,3.33,0,0,1,.67-1.23,3,3,0,0,1,1.1-.8,4,4,0,0,1,1.53-.28,3.42,3.42,0,0,1,2.33.76,3,3,0,0,1,.93,2.17h-1.49a1.84,1.84,0,0,0-.54-1.25,2,2,0,0,0-2.73.21,3.14,3.14,0,0,0-.52,2,3.28,3.28,0,0,0,.51,2,1.79,1.79,0,0,0,1.49.66,1.81,1.81,0,0,0,1.26-.42,1.83,1.83,0,0,0,.53-1.24Z"/><path d="M143.58,454.06a2.88,2.88,0,0,1-.28,1.09,2.6,2.6,0,0,1-.66.85,3.13,3.13,0,0,1-1,.56,4.11,4.11,0,0,1-1.32.2,4,4,0,0,1-1.58-.28,2.82,2.82,0,0,1-1.09-.79,3.31,3.31,0,0,1-.64-1.22,6.07,6.07,0,0,1-.2-1.59,5.25,5.25,0,0,1,.22-1.58,3.29,3.29,0,0,1,.65-1.23,3,3,0,0,1,1.1-.8,3.94,3.94,0,0,1,1.53-.28,3.72,3.72,0,0,1,1.5.27,2.57,2.57,0,0,1,1,.77,3.22,3.22,0,0,1,.58,1.22,6.69,6.69,0,0,1,.18,1.62v.24h-5.28a2.94,2.94,0,0,0,.54,1.84,1.73,1.73,0,0,0,1.39.61,2,2,0,0,0,1.27-.39,1.55,1.55,0,0,0,.58-1.11Zm-1.47-1.93a2.18,2.18,0,0,0-.48-1.41,1.6,1.6,0,0,0-1.32-.55,1.89,1.89,0,0,0-1.35.48,2.36,2.36,0,0,0-.61,1.48Z"/><path d="M17.69,472.14H20V464.9l-2.25,1.44-.69-1.09,3.29-2.19h1.22v9.08h2v1.28h-5.9Z"/><path d="M26.59,470.28a2.52,2.52,0,0,0,.57,1.49,1.75,1.75,0,0,0,1.36.53,2.13,2.13,0,0,0,.88-.18,1.76,1.76,0,0,0,.72-.65,4,4,0,0,0,.48-1.29,10.81,10.81,0,0,0,.17-2.08,2.21,2.21,0,0,1-1,1,3.32,3.32,0,0,1-1.6.37,3.63,3.63,0,0,1-1.24-.21,2.94,2.94,0,0,1-1-.6,2.88,2.88,0,0,1-.69-1,3.47,3.47,0,0,1-.25-1.38,3.93,3.93,0,0,1,.24-1.41A3,3,0,0,1,27,463.17a4,4,0,0,1,1.46-.25,3.86,3.86,0,0,1,1.55.3,2.76,2.76,0,0,1,1.17.93,4.5,4.5,0,0,1,.73,1.62,9.58,9.58,0,0,1,.26,2.37,7.12,7.12,0,0,1-1,4.09,3.24,3.24,0,0,1-2.83,1.33,3.35,3.35,0,0,1-2.41-.85,3.42,3.42,0,0,1-1-2.43Zm1.89-2a1.85,1.85,0,0,0,1.41-.55,1.93,1.93,0,0,0,.53-1.43,2.28,2.28,0,0,0-.14-.84,2.08,2.08,0,0,0-.39-.68,1.75,1.75,0,0,0-.63-.44,1.92,1.92,0,0,0-.81-.16,2,2,0,0,0-.79.15,1.92,1.92,0,0,0-.62.43,2,2,0,0,0-.39.66,2.26,2.26,0,0,0-.14.83A2,2,0,0,0,27,467.7,1.88,1.88,0,0,0,28.48,468.27Z"/><path d="M36.72,473.56a3.44,3.44,0,0,1-1.44-.3,3.07,3.07,0,0,1-1.16-.95,4.88,4.88,0,0,1-.79-1.65,10.6,10.6,0,0,1,0-4.84,4.88,4.88,0,0,1,.79-1.65,3.07,3.07,0,0,1,1.16-.95,3.44,3.44,0,0,1,1.44-.3,3.49,3.49,0,0,1,1.43.3,3.18,3.18,0,0,1,1.17.95,4.69,4.69,0,0,1,.78,1.65,10.24,10.24,0,0,1,0,4.84,4.69,4.69,0,0,1-.78,1.65,3.18,3.18,0,0,1-1.17.95A3.49,3.49,0,0,1,36.72,473.56Zm0-1.27a1.78,1.78,0,0,0,.78-.18,1.66,1.66,0,0,0,.67-.65,4.09,4.09,0,0,0,.46-1.24,9.23,9.23,0,0,0,.17-2,9.07,9.07,0,0,0-.17-2,4.26,4.26,0,0,0-.46-1.25,1.69,1.69,0,0,0-.67-.64,1.66,1.66,0,0,0-.78-.19,1.71,1.71,0,0,0-.8.19,1.67,1.67,0,0,0-.66.64,3.76,3.76,0,0,0-.46,1.25,9.74,9.74,0,0,0-.17,2,9.92,9.92,0,0,0,.17,2,3.62,3.62,0,0,0,.46,1.24,1.64,1.64,0,0,0,.66.65A1.84,1.84,0,0,0,36.72,472.29Z"/><path d="M42.66,470.12a2.4,2.4,0,0,0,.69,1.64,2.25,2.25,0,0,0,1.59.54,2.14,2.14,0,0,0,1.48-.47,1.69,1.69,0,0,0,.51-1.31,1.71,1.71,0,0,0-1.82-1.83H43.72v-1.23h1A1.58,1.58,0,0,0,46,467a1.7,1.7,0,0,0,.44-1.19,1.64,1.64,0,0,0-.43-1.14,1.59,1.59,0,0,0-1.23-.47,1.66,1.66,0,0,0-1.3.53,2.55,2.55,0,0,0-.54,1.51H41.35a3.36,3.36,0,0,1,1-2.45,3.49,3.49,0,0,1,2.48-.85,4.2,4.2,0,0,1,1.34.2,3,3,0,0,1,1,.54,2.35,2.35,0,0,1,.61.82,2.64,2.64,0,0,1,.21,1.06,2.48,2.48,0,0,1-.34,1.33,2.73,2.73,0,0,1-1,.93,2.8,2.8,0,0,1,1.33,1,2.86,2.86,0,0,1,.47,1.68,3.35,3.35,0,0,1-.23,1.25,2.65,2.65,0,0,1-.7,1,3.27,3.27,0,0,1-1.14.61,5,5,0,0,1-1.58.22,4.69,4.69,0,0,1-1.63-.25,2.85,2.85,0,0,1-1.79-1.79,5,5,0,0,1-.26-1.4Z"/><path d="M53.75,468.31h5.61v1.22H53.75Z"/><path d="M65.51,472.14h2.31V464.9l-2.25,1.44-.69-1.09,3.3-2.19h1.21v9.08h2v1.28h-5.9Z"/><path d="M74.41,470.28a2.59,2.59,0,0,0,.58,1.49,1.73,1.73,0,0,0,1.36.53,2.13,2.13,0,0,0,.88-.18,1.74,1.74,0,0,0,.71-.65,4,4,0,0,0,.48-1.29,10,10,0,0,0,.18-2.08,2.31,2.31,0,0,1-1,1,3.36,3.36,0,0,1-1.61.37,3.63,3.63,0,0,1-1.24-.21,2.9,2.9,0,0,1-1-.6,2.78,2.78,0,0,1-.7-1,3.65,3.65,0,0,1-.25-1.38,3.93,3.93,0,0,1,.25-1.41,2.85,2.85,0,0,1,.7-1.06,3,3,0,0,1,1.1-.69,4,4,0,0,1,1.47-.25,3.81,3.81,0,0,1,1.54.3,2.76,2.76,0,0,1,1.17.93,4.5,4.5,0,0,1,.74,1.62,9.62,9.62,0,0,1,.25,2.37,7,7,0,0,1-1,4.09,3.23,3.23,0,0,1-2.83,1.33,3.32,3.32,0,0,1-2.4-.85,3.43,3.43,0,0,1-1-2.43Zm1.89-2a1.88,1.88,0,0,0,1.42-.55,2,2,0,0,0,.53-1.43,2.51,2.51,0,0,0-.14-.84,2.3,2.3,0,0,0-.4-.68,1.71,1.71,0,0,0-.62-.44,2,2,0,0,0-.82-.16,2,2,0,0,0-.79.15,1.88,1.88,0,0,0-.61.43,2,2,0,0,0-.4.66,2.49,2.49,0,0,0-.14.83,2.08,2.08,0,0,0,.53,1.46A1.89,1.89,0,0,0,76.3,468.27Z"/><path d="M82.36,470.12a2.44,2.44,0,0,0,.68,1.64,2.3,2.3,0,0,0,1.6.54,2.15,2.15,0,0,0,1.48-.47,1.69,1.69,0,0,0,.51-1.31,1.83,1.83,0,0,0-.49-1.33,1.8,1.8,0,0,0-1.33-.5H83.42v-1.23h1a1.6,1.6,0,0,0,1.24-.48,1.69,1.69,0,0,0,.43-1.19,1.67,1.67,0,0,0-.42-1.14,1.61,1.61,0,0,0-1.24-.47,1.64,1.64,0,0,0-1.29.53,2.55,2.55,0,0,0-.55,1.51H81a3.44,3.44,0,0,1,1-2.45,3.53,3.53,0,0,1,2.49-.85,4.2,4.2,0,0,1,1.34.2,2.84,2.84,0,0,1,1,.54,2.38,2.38,0,0,1,.62.82,2.64,2.64,0,0,1,.21,1.06,2.58,2.58,0,0,1-.34,1.33,2.82,2.82,0,0,1-1,.93,2.85,2.85,0,0,1,1.33,1,2.94,2.94,0,0,1,.47,1.68,3.17,3.17,0,0,1-.24,1.25,2.62,2.62,0,0,1-.69,1,3.23,3.23,0,0,1-1.15.61,5,5,0,0,1-1.57.22,4.66,4.66,0,0,1-1.63-.25,3,3,0,0,1-1.12-.7,3,3,0,0,1-.67-1.09,5,5,0,0,1-.27-1.4Z"/><path d="M90.67,470.28a2.52,2.52,0,0,0,.57,1.49,1.75,1.75,0,0,0,1.36.53,2.13,2.13,0,0,0,.88-.18,1.76,1.76,0,0,0,.72-.65,4,4,0,0,0,.48-1.29,10.81,10.81,0,0,0,.17-2.08,2.21,2.21,0,0,1-1,1,3.32,3.32,0,0,1-1.6.37,3.63,3.63,0,0,1-1.24-.21,2.94,2.94,0,0,1-1-.6,2.88,2.88,0,0,1-.69-1,3.47,3.47,0,0,1-.25-1.38,3.93,3.93,0,0,1,.24-1.41,3,3,0,0,1,1.81-1.75,4,4,0,0,1,1.46-.25,3.86,3.86,0,0,1,1.55.3,2.76,2.76,0,0,1,1.17.93,4.5,4.5,0,0,1,.73,1.62,9.58,9.58,0,0,1,.26,2.37,7.12,7.12,0,0,1-1,4.09,3.24,3.24,0,0,1-2.83,1.33,3.35,3.35,0,0,1-2.41-.85,3.42,3.42,0,0,1-1-2.43Zm1.89-2a1.85,1.85,0,0,0,1.41-.55,1.93,1.93,0,0,0,.53-1.43,2.28,2.28,0,0,0-.14-.84,2.08,2.08,0,0,0-.39-.68,1.75,1.75,0,0,0-.63-.44,1.92,1.92,0,0,0-.81-.16,2,2,0,0,0-.79.15,1.92,1.92,0,0,0-.62.43,2,2,0,0,0-.39.66,2.26,2.26,0,0,0-.14.83,2,2,0,0,0,.53,1.46A1.88,1.88,0,0,0,92.56,468.27Z"/><path d="M104,475.1a9.35,9.35,0,0,1-.8-1.13,8.55,8.55,0,0,1-.68-1.39,9.44,9.44,0,0,1-.45-1.63,9.2,9.2,0,0,1-.18-1.87,9.3,9.3,0,0,1,.18-1.88,9.58,9.58,0,0,1,.45-1.62,9.82,9.82,0,0,1,.67-1.38,10.41,10.41,0,0,1,.81-1.14h1.19a9.33,9.33,0,0,0-1.46,2.95,11.43,11.43,0,0,0,0,6.14,9.33,9.33,0,0,0,1.46,3Z"/><path d="M105.57,469.64l4.24-6.58h1.77v6.7h1.5v1.31h-1.5v2.35H110v-2.35h-4.45Zm4.45.12v-4.84l-3.14,4.84Z"/><path d="M119.38,470.2a3,3,0,0,0,.25,1,1.94,1.94,0,0,0,.5.65,2,2,0,0,0,.67.35,2.88,2.88,0,0,0,.78.1,1.93,1.93,0,0,0,2.06-2.1,2.13,2.13,0,0,0-.57-1.55,2.21,2.21,0,0,0-1.66-.59,4.63,4.63,0,0,0-1.31.2,4.44,4.44,0,0,0-1.19.53l-.32,0,1.21-5.69H125v1.29h-4.09l-.63,2.77a5.58,5.58,0,0,1,.71-.19,4,4,0,0,1,.75-.08,4.33,4.33,0,0,1,1.43.23,3.27,3.27,0,0,1,1.1.65,2.89,2.89,0,0,1,.7,1,3.84,3.84,0,0,1,.24,1.4,3.74,3.74,0,0,1-.26,1.42,3,3,0,0,1-.73,1.07,3.2,3.2,0,0,1-1.15.67,4.72,4.72,0,0,1-1.5.23,5.16,5.16,0,0,1-1.46-.19,3,3,0,0,1-1.14-.6,3,3,0,0,1-.76-1,4.22,4.22,0,0,1-.32-1.52Z"/><path d="M127.51,470.2a2.82,2.82,0,0,0,.25,1,1.94,1.94,0,0,0,.5.65,2,2,0,0,0,.67.35,2.78,2.78,0,0,0,.78.1,1.93,1.93,0,0,0,2.06-2.1,2.13,2.13,0,0,0-.57-1.55,2.21,2.21,0,0,0-1.66-.59,4.63,4.63,0,0,0-1.31.2,4.31,4.31,0,0,0-1.19.53l-.33,0,1.22-5.69h5.18v1.29H129l-.63,2.77a5.58,5.58,0,0,1,.71-.19,3.81,3.81,0,0,1,.74-.08,4.29,4.29,0,0,1,1.43.23,3.09,3.09,0,0,1,1.1.65,2.92,2.92,0,0,1,.71,1,3.84,3.84,0,0,1,.24,1.4,3.74,3.74,0,0,1-.26,1.42,3,3,0,0,1-.74,1.07,3.16,3.16,0,0,1-1.14.67,4.72,4.72,0,0,1-1.5.23,5.16,5.16,0,0,1-1.46-.19,3,3,0,0,1-1.14-.6,2.9,2.9,0,0,1-.76-1,4,4,0,0,1-.32-1.52Z"/><path d="M137.88,473.56a3.44,3.44,0,0,1-1.44-.3,3.07,3.07,0,0,1-1.16-.95,4.7,4.7,0,0,1-.79-1.65,10.6,10.6,0,0,1,0-4.84,4.7,4.7,0,0,1,.79-1.65,3.07,3.07,0,0,1,1.16-.95,3.44,3.44,0,0,1,1.44-.3,3.49,3.49,0,0,1,1.43.3,3.07,3.07,0,0,1,1.16.95,4.53,4.53,0,0,1,.79,1.65,10.24,10.24,0,0,1,0,4.84,4.53,4.53,0,0,1-.79,1.65,3.07,3.07,0,0,1-1.16.95A3.49,3.49,0,0,1,137.88,473.56Zm0-1.27a1.78,1.78,0,0,0,.78-.18,1.72,1.72,0,0,0,.67-.65,4.09,4.09,0,0,0,.46-1.24,9.92,9.92,0,0,0,.17-2,9.74,9.74,0,0,0-.17-2,4.26,4.26,0,0,0-.46-1.25,1.76,1.76,0,0,0-.67-.64,1.66,1.66,0,0,0-.78-.19,1.71,1.71,0,0,0-.8.19,1.76,1.76,0,0,0-.67.64,4,4,0,0,0-.45,1.25,9.74,9.74,0,0,0-.17,2,9.92,9.92,0,0,0,.17,2,3.85,3.85,0,0,0,.45,1.24,1.72,1.72,0,0,0,.67.65A1.84,1.84,0,0,0,137.88,472.29Z"/><path d="M147.29,463.06h1.5v6.26l3.09-3.39h2l-3.28,3.4,3.64,4.09h-1.94l-3.46-4.07v4.07h-1.5Z"/><path d="M155.66,465.93h1.49v1.18h0a2.93,2.93,0,0,1,.84-1,2.29,2.29,0,0,1,1.35-.36,2.35,2.35,0,0,1,1.38.36,2.06,2.06,0,0,1,.75,1h0a2.72,2.72,0,0,1,.92-1,2.56,2.56,0,0,1,1.4-.36,2.14,2.14,0,0,1,1.79.7,3.13,3.13,0,0,1,.56,2v4.9H164.7v-4.49a2.49,2.49,0,0,0-.32-1.41,1.15,1.15,0,0,0-1-.44,1.63,1.63,0,0,0-1.23.48,2,2,0,0,0-.48,1.47v4.39h-1.5v-4.49a2.73,2.73,0,0,0-.28-1.39,1.07,1.07,0,0,0-1-.46,1.58,1.58,0,0,0-1.28.54,2.34,2.34,0,0,0-.46,1.52v4.28h-1.49Z"/><path d="M167.47,475.1a9.52,9.52,0,0,0,1.45-3,11.43,11.43,0,0,0,0-6.14,9.52,9.52,0,0,0-1.45-2.95h1.19a9.18,9.18,0,0,1,.8,1.14,8,8,0,0,1,.67,1.38,9.58,9.58,0,0,1,.45,1.62,10.43,10.43,0,0,1,0,3.75,9.44,9.44,0,0,1-.45,1.63,8.52,8.52,0,0,1-.66,1.39,9.38,9.38,0,0,1-.81,1.13Z"/><path class="cls-4" d="M59.89,514.17A8.15,8.15,0,1,1,68,506,8.15,8.15,0,0,1,59.89,514.17Z"/><path d="M48.77,521.2h1.9a2.41,2.41,0,0,1,1,.19,2.08,2.08,0,0,1,.77.53,2.28,2.28,0,0,1,.49.81,3,3,0,0,1,.18,1.06,3,3,0,0,1-.18,1.06,2.33,2.33,0,0,1-.49.82,2.18,2.18,0,0,1-.77.52,2.41,2.41,0,0,1-1,.19h-1.9Zm1.9,4.5a1.53,1.53,0,0,0,.64-.14,1.39,1.39,0,0,0,.51-.39,1.64,1.64,0,0,0,.32-.6,2.6,2.6,0,0,0,0-1.56,1.73,1.73,0,0,0-.32-.6,1.39,1.39,0,0,0-.51-.39,1.37,1.37,0,0,0-.64-.14H49.58v3.82Z"/><path d="M57.32,525.1a1.66,1.66,0,0,1-.14.54,1.27,1.27,0,0,1-.33.43,1.62,1.62,0,0,1-.5.28,2.28,2.28,0,0,1-.66.1,2.12,2.12,0,0,1-.8-.14,1.37,1.37,0,0,1-.54-.4,1.55,1.55,0,0,1-.32-.61,2.8,2.8,0,0,1-.1-.79,2.48,2.48,0,0,1,.11-.79,1.61,1.61,0,0,1,.33-.62,1.47,1.47,0,0,1,.54-.4,2,2,0,0,1,.77-.14,1.89,1.89,0,0,1,.75.14,1.22,1.22,0,0,1,.51.38,1.5,1.5,0,0,1,.29.61,3.35,3.35,0,0,1,.09.81v.12H54.68a1.46,1.46,0,0,0,.27.92.87.87,0,0,0,.7.3,1,1,0,0,0,.64-.19.78.78,0,0,0,.28-.55Zm-.74-1a1.14,1.14,0,0,0-.24-.7.79.79,0,0,0-.66-.28.92.92,0,0,0-.67.24,1.13,1.13,0,0,0-.31.74Zm-.5-2.93H57l-1,1h-.59Z"/><path d="M58.38,522.63h.74v.58h0a1.47,1.47,0,0,1,.46-.47,1.37,1.37,0,0,1,.74-.18,1.54,1.54,0,0,1,.7.15,1.5,1.5,0,0,1,.5.4,1.93,1.93,0,0,1,.3.61,3,3,0,0,1,0,1.57,1.9,1.9,0,0,1-.31.62,1.39,1.39,0,0,1-.5.4,1.65,1.65,0,0,1-.68.14,1.26,1.26,0,0,1-.73-.19,1.44,1.44,0,0,1-.47-.48h0v2h-.74Zm1.75,3.25a.93.93,0,0,0,.77-.36,2,2,0,0,0,0-2,.91.91,0,0,0-.77-.36.86.86,0,0,0-.77.36,1.82,1.82,0,0,0-.24,1,1.8,1.8,0,0,0,.24,1A.87.87,0,0,0,60.13,525.88Z"/><path d="M65.08,525.85h0a1.43,1.43,0,0,1-.51.43,1.74,1.74,0,0,1-.79.17,1.69,1.69,0,0,1-.53-.08,1,1,0,0,1-.36-.21.87.87,0,0,1-.22-.32,1.11,1.11,0,0,1,.1-1,1.2,1.2,0,0,1,.46-.34,2.87,2.87,0,0,1,.61-.16l.62-.1.33-.06a.5.5,0,0,0,.19-.07.16.16,0,0,0,.09-.11.69.69,0,0,0-.17-.64.82.82,0,0,0-.58-.18.91.91,0,0,0-.58.16.72.72,0,0,0-.24.54h-.73a1.45,1.45,0,0,1,.42-1,1.6,1.6,0,0,1,1.14-.35,1.56,1.56,0,0,1,1.14.37,1.54,1.54,0,0,1,.37,1.13v2.32h-.75Zm0-1.3a5.31,5.31,0,0,1-.6.12c-.21,0-.4.07-.57.11a1.16,1.16,0,0,0-.42.19.43.43,0,0,0-.17.36.47.47,0,0,0,.19.4.73.73,0,0,0,.48.15,1.56,1.56,0,0,0,.44-.07,1.27,1.27,0,0,0,.34-.2.94.94,0,0,0,.23-.32,1.07,1.07,0,0,0,.08-.41Z"/><path d="M67,522.63h.75v.58h0a1.54,1.54,0,0,1,.43-.48,1.07,1.07,0,0,1,.61-.17H69v.78a.57.57,0,0,0-.15,0l-.17,0a.94.94,0,0,0-.7.27,1.05,1.05,0,0,0-.26.75v2H67Z"/><path d="M69.8,523.25h-.52v-.62h.52v-1h.75v1h.88v.62h-.88v2a.53.53,0,0,0,.13.41.55.55,0,0,0,.4.13h.18l.19,0v.66l-.23,0-.27,0a1.21,1.21,0,0,1-.84-.28,1.17,1.17,0,0,1-.31-.91Z"/><path class="cls-5" d="M126.39,514.17a8.15,8.15,0,1,1,8.14-8.14A8.15,8.15,0,0,1,126.39,514.17Z"/><path d="M116.09,521.2h.75l2,5.18H118l-.48-1.24h-2.13l-.46,1.24h-.86Zm1.19,3.26-.82-2.16-.82,2.16Z"/><path d="M119.64,522.63h.74v.58h0a1.54,1.54,0,0,1,.43-.48,1.1,1.1,0,0,1,.62-.17h.21v.78a.57.57,0,0,0-.15,0l-.17,0a.94.94,0,0,0-.7.27,1.05,1.05,0,0,0-.26.75v2h-.74Z"/><path d="M122.44,522.63h.75v.58h0a1.54,1.54,0,0,1,.43-.48,1.07,1.07,0,0,1,.61-.17h.22v.78a.57.57,0,0,0-.15,0l-.17,0a.93.93,0,0,0-.7.27,1.05,1.05,0,0,0-.26.75v2h-.75Z"/><path d="M125.62,522a.44.44,0,0,1-.34-.14.48.48,0,0,1-.14-.34.54.54,0,0,1,.13-.35.48.48,0,0,1,.35-.14.46.46,0,0,1,.34.14.45.45,0,0,1,.14.35.44.44,0,0,1-.14.34A.46.46,0,0,1,125.62,522Zm-.37.65H126v3.75h-.75Z"/><path d="M126.72,522.63h.8l1,2.89,1-2.89h.78l-1.43,3.75h-.75Z"/><path d="M134.21,525.1a1.66,1.66,0,0,1-.14.54,1.27,1.27,0,0,1-.33.43,1.62,1.62,0,0,1-.5.28,2.28,2.28,0,0,1-.66.1,2.07,2.07,0,0,1-.79-.14,1.4,1.4,0,0,1-.55-.4,1.55,1.55,0,0,1-.32-.61,3,3,0,0,1,0-1.58,1.61,1.61,0,0,1,.33-.62,1.56,1.56,0,0,1,.54-.4,2,2,0,0,1,.77-.14,1.86,1.86,0,0,1,.75.14,1.22,1.22,0,0,1,.51.38,1.5,1.5,0,0,1,.29.61,3.35,3.35,0,0,1,.09.81v.12h-2.63a1.4,1.4,0,0,0,.26.92.88.88,0,0,0,.7.3,1,1,0,0,0,.64-.19.78.78,0,0,0,.29-.55Zm-.74-1a1.14,1.14,0,0,0-.24-.7.79.79,0,0,0-.66-.28.93.93,0,0,0-.67.24,1.18,1.18,0,0,0-.31.74Zm-.5-2.93h.91l-1,1h-.59Z"/><path d="M138.43,525.1a1.66,1.66,0,0,1-.14.54,1.27,1.27,0,0,1-.33.43,1.62,1.62,0,0,1-.5.28,2.3,2.3,0,0,1-.67.1,2.1,2.1,0,0,1-.79-.14,1.37,1.37,0,0,1-.54-.4,1.55,1.55,0,0,1-.32-.61,2.8,2.8,0,0,1-.1-.79,2.48,2.48,0,0,1,.11-.79,1.74,1.74,0,0,1,.32-.62,1.59,1.59,0,0,1,.55-.4,2,2,0,0,1,.77-.14,1.89,1.89,0,0,1,.75.14,1.22,1.22,0,0,1,.51.38,1.65,1.65,0,0,1,.29.61,3.35,3.35,0,0,1,.09.81v.12h-2.64a1.46,1.46,0,0,0,.27.92.87.87,0,0,0,.7.3,1,1,0,0,0,.64-.19.78.78,0,0,0,.28-.55Zm-.74-1a1.14,1.14,0,0,0-.24-.7.79.79,0,0,0-.66-.28.92.92,0,0,0-.67.24,1.13,1.13,0,0,0-.31.74Z"/><path d="M31.52,573.68a2.19,2.19,0,0,1-.82.75,2.59,2.59,0,0,1-1.2.26,2.68,2.68,0,0,1-1-.19,2.21,2.21,0,0,1-.78-.53,2.46,2.46,0,0,1-.49-.85A3.16,3.16,0,0,1,27,572a3.1,3.1,0,0,1,.17-1.08,2.31,2.31,0,0,1,.48-.84,2.19,2.19,0,0,1,.76-.54,2.46,2.46,0,0,1,1-.2,2.14,2.14,0,0,1,2,1.16l-.7.36a1.34,1.34,0,0,0-.55-.62,1.52,1.52,0,0,0-.81-.2,1.42,1.42,0,0,0-.66.14,1.28,1.28,0,0,0-.5.39,1.74,1.74,0,0,0-.32.62,2.86,2.86,0,0,0-.11.8,2.35,2.35,0,0,0,.13.82,1.77,1.77,0,0,0,.34.62,1.54,1.54,0,0,0,1.2.54,1.55,1.55,0,0,0,.78-.19,1.49,1.49,0,0,0,.56-.53Z"/><path d="M34.23,574.69a1.92,1.92,0,0,1-.77-.14,1.6,1.6,0,0,1-.59-.39,1.88,1.88,0,0,1-.37-.61,2.28,2.28,0,0,1-.13-.8,2.22,2.22,0,0,1,.13-.79,1.83,1.83,0,0,1,.37-.62,1.6,1.6,0,0,1,.59-.39A2.22,2.22,0,0,1,35,571a1.6,1.6,0,0,1,.59.39A1.85,1.85,0,0,1,36,572a2.47,2.47,0,0,1,.13.79,2.53,2.53,0,0,1-.13.8,1.91,1.91,0,0,1-.38.61,1.6,1.6,0,0,1-.59.39A1.94,1.94,0,0,1,34.23,574.69Zm0-.58a1,1,0,0,0,.82-.37,1.78,1.78,0,0,0,0-2,1.08,1.08,0,0,0-1.63,0,1.78,1.78,0,0,0,0,2A1,1,0,0,0,34.23,574.11Z"/><path d="M37.07,570.88h.75v.59h0a1.29,1.29,0,0,1,1.23-.66,1.12,1.12,0,0,1,.95.36,1.63,1.63,0,0,1,.28,1v2.45h-.75v-2.24a1.22,1.22,0,0,0-.17-.7.64.64,0,0,0-.56-.23.94.94,0,0,0-.72.28,1,1,0,0,0-.27.75v2.14h-.75Z"/><path d="M41.5,571.5H41v-.62h.53v-1h.74v1h.88v.62h-.88v2a.57.57,0,0,0,.14.42.54.54,0,0,0,.4.13H43l.19,0v.67l-.23,0a1.14,1.14,0,0,1-.27,0,1.17,1.17,0,0,1-.84-.28,1.19,1.19,0,0,1-.3-.91Z"/><path d="M44,570.88h.75v.58h0a1.45,1.45,0,0,1,.43-.48,1.1,1.1,0,0,1,.62-.17h.11l.1,0v.78l-.14,0h-.18a.9.9,0,0,0-.69.27,1,1,0,0,0-.26.74v2H44Z"/><path d="M49.91,573.34a1.44,1.44,0,0,1-.14.55,1.34,1.34,0,0,1-.33.42,1.51,1.51,0,0,1-.5.28,2.27,2.27,0,0,1-1.45,0,1.34,1.34,0,0,1-.54-.39,1.62,1.62,0,0,1-.32-.61,2.87,2.87,0,0,1-.1-.8,2.8,2.8,0,0,1,.1-.79,1.71,1.71,0,0,1,.33-.61,1.48,1.48,0,0,1,.55-.4,2,2,0,0,1,.77-.14,1.9,1.9,0,0,1,.75.13,1.25,1.25,0,0,1,.51.39,1.65,1.65,0,0,1,.29.61,3.35,3.35,0,0,1,.09.81v.12H47.28a1.48,1.48,0,0,0,.27.92.87.87,0,0,0,.7.3,1,1,0,0,0,.63-.19.77.77,0,0,0,.29-.56Zm-.73-1a1.17,1.17,0,0,0-.24-.71.81.81,0,0,0-.66-.27,1,1,0,0,0-.68.24,1.18,1.18,0,0,0-.31.74Z"/><path d="M50.84,572.08h1.9v.71h-1.9Z"/><path d="M53.81,569.44h.74v5.18h-.74Z"/><path d="M57.94,574.1h0a1.43,1.43,0,0,1-.51.43,1.71,1.71,0,0,1-.79.16,1.6,1.6,0,0,1-.52-.07,1.21,1.21,0,0,1-.37-.22.84.84,0,0,1-.22-.31,1,1,0,0,1-.07-.39,1,1,0,0,1,.18-.63,1.13,1.13,0,0,1,.46-.34,2.2,2.2,0,0,1,.6-.16l.62-.1.33-.06a1.11,1.11,0,0,0,.2-.07.21.21,0,0,0,.08-.11.38.38,0,0,0,0-.16.63.63,0,0,0-.2-.48.81.81,0,0,0-.57-.19.94.94,0,0,0-.59.17.72.72,0,0,0-.24.53h-.72a1.47,1.47,0,0,1,.42-1,1.52,1.52,0,0,1,2.64,1.16v2.31h-.74Zm0-1.3a5.31,5.31,0,0,1-.6.12l-.57.1a1.17,1.17,0,0,0-.42.2.41.41,0,0,0-.16.36.46.46,0,0,0,.18.39.73.73,0,0,0,.48.15,1.23,1.23,0,0,0,.44-.07,1,1,0,0,0,.34-.2.87.87,0,0,0,.23-.31,1.07,1.07,0,0,0,.08-.41Z"/><path d="M59.7,572.08h1.89v.71H59.7Z"/><path d="M62.66,570.88h.75v.59h0a1.65,1.65,0,0,1,.42-.48,1.16,1.16,0,0,1,.68-.18,1.18,1.18,0,0,1,.69.18,1,1,0,0,1,.37.51h0a1.34,1.34,0,0,1,.46-.51,1.28,1.28,0,0,1,.7-.18,1,1,0,0,1,.89.35,1.56,1.56,0,0,1,.29,1v2.45h-.75v-2.24a1.22,1.22,0,0,0-.16-.71.57.57,0,0,0-.49-.22.84.84,0,0,0-.62.24,1,1,0,0,0-.24.74v2.19h-.75v-2.24a1.45,1.45,0,0,0-.13-.7.57.57,0,0,0-.51-.23.76.76,0,0,0-.64.28,1.14,1.14,0,0,0-.23.75v2.14h-.75Z"/><path d="M70.76,574.69a1.89,1.89,0,0,1-.77-.14,1.6,1.6,0,0,1-.59-.39,1.91,1.91,0,0,1-.38-.61,2.53,2.53,0,0,1-.13-.8A2.47,2.47,0,0,1,69,572a1.85,1.85,0,0,1,.38-.62A1.6,1.6,0,0,1,70,571a2.07,2.07,0,0,1,.77-.14,2.11,2.11,0,0,1,.77.14,1.6,1.6,0,0,1,.59.39,1.7,1.7,0,0,1,.38.62,2.22,2.22,0,0,1,.13.79,2.28,2.28,0,0,1-.13.8,1.75,1.75,0,0,1-.38.61,1.6,1.6,0,0,1-.59.39A1.92,1.92,0,0,1,70.76,574.69Zm0-.58a1,1,0,0,0,.82-.37,1.83,1.83,0,0,0,0-2,1.09,1.09,0,0,0-1.64,0,1.83,1.83,0,0,0,0,2A1,1,0,0,0,70.76,574.11Z"/><path d="M73.6,570.88h.75v.59h0a1.47,1.47,0,0,1,.47-.49,1.55,1.55,0,0,1,.76-.17,1.13,1.13,0,0,1,1,.36,1.63,1.63,0,0,1,.27,1v2.45h-.75v-2.24a1.23,1.23,0,0,0-.16-.7.66.66,0,0,0-.56-.23.91.91,0,0,0-.72.28,1,1,0,0,0-.27.75v2.14H73.6Z"/><path d="M78,571.5H77.5v-.62H78v-1h.75v1h.88v.62h-.88v2a.57.57,0,0,0,.13.42.55.55,0,0,0,.4.13h.18l.19,0v.67l-.23,0a1.14,1.14,0,0,1-.27,0,1.17,1.17,0,0,1-.84-.28,1.15,1.15,0,0,1-.31-.91Z"/><path d="M80.48,570.88h.74v.58h0a1.35,1.35,0,0,1,.43-.48,1.1,1.1,0,0,1,.62-.17h.1l.11,0v.78l-.15,0h-.17a.94.94,0,0,0-.7.27,1,1,0,0,0-.26.74v2h-.74Z"/><path d="M86.44,573.34a1.44,1.44,0,0,1-.14.55,1.34,1.34,0,0,1-.33.42,1.62,1.62,0,0,1-.5.28,2.27,2.27,0,0,1-1.45,0,1.45,1.45,0,0,1-.55-.39,1.78,1.78,0,0,1-.32-.61,3.3,3.3,0,0,1-.1-.8,2.79,2.79,0,0,1,.11-.79,1.57,1.57,0,0,1,.33-.61A1.48,1.48,0,0,1,84,571a1.94,1.94,0,0,1,.76-.14,1.92,1.92,0,0,1,.76.13,1.39,1.39,0,0,1,.51.39,1.65,1.65,0,0,1,.29.61,3.35,3.35,0,0,1,.09.81v.12H83.81a1.48,1.48,0,0,0,.27.92.86.86,0,0,0,.69.3,1,1,0,0,0,.64-.19.81.81,0,0,0,.29-.56Zm-.73-1a1.11,1.11,0,0,0-.25-.71.81.81,0,0,0-.66-.27.93.93,0,0,0-.67.24,1.18,1.18,0,0,0-.31.74Z"/><polygon class="cls-6" points="117.95 561.91 120.74 552.16 123.83 557.83 127.7 546.05 132.09 555.25 134.99 551.84 137.45 561.91 117.95 561.91"/><polygon class="cls-7" points="125.43 552.16 127.15 554.46 128.39 552.64 129.47 553.73 131.04 552.16 127.7 546.05 125.43 552.16"/><polygon class="cls-7" points="119.66 555.93 121.38 558.35 122.74 555.83 120.74 552.16 119.66 555.93"/><path d="M111.06,569.44h1l1.42,3,1.42-3h1v5.18h-.78v-4l-1.37,2.76h-.64l-1.36-2.76v4h-.78Z"/><path d="M118.88,574.69a1.89,1.89,0,0,1-.77-.14,1.6,1.6,0,0,1-.59-.39,1.91,1.91,0,0,1-.38-.61,2.53,2.53,0,0,1-.13-.8,2.47,2.47,0,0,1,.13-.79,1.85,1.85,0,0,1,.38-.62,1.6,1.6,0,0,1,.59-.39,2.07,2.07,0,0,1,.77-.14,2.11,2.11,0,0,1,.77.14,1.73,1.73,0,0,1,.6.39,1.83,1.83,0,0,1,.37.62,2.22,2.22,0,0,1,.14.79,2.28,2.28,0,0,1-.14.8,1.88,1.88,0,0,1-.37.61,1.73,1.73,0,0,1-.6.39A1.92,1.92,0,0,1,118.88,574.69Zm0-.58a1,1,0,0,0,.82-.37,1.83,1.83,0,0,0,0-2,1.09,1.09,0,0,0-1.64,0,1.83,1.83,0,0,0,0,2A1,1,0,0,0,118.88,574.11Z"/><path d="M121.72,570.88h.75v.59h0A1.41,1.41,0,0,1,123,571a1.49,1.49,0,0,1,.75-.17,1.13,1.13,0,0,1,1,.36,1.63,1.63,0,0,1,.27,1v2.45h-.75v-2.24a1.23,1.23,0,0,0-.16-.7.66.66,0,0,0-.56-.23.91.91,0,0,0-.72.28,1,1,0,0,0-.27.75v2.14h-.75Z"/><path d="M126.14,571.5h-.52v-.62h.52v-1h.75v1h.88v.62h-.88v2a.62.62,0,0,0,.13.42.55.55,0,0,0,.4.13h.18l.19,0v.67l-.23,0a1.14,1.14,0,0,1-.27,0,1.17,1.17,0,0,1-.84-.28,1.15,1.15,0,0,1-.31-.91Z"/><path d="M130.77,574.1h0a1.43,1.43,0,0,1-.51.43,1.74,1.74,0,0,1-.79.16,1.6,1.6,0,0,1-.52-.07,1.21,1.21,0,0,1-.37-.22.84.84,0,0,1-.22-.31,1,1,0,0,1-.07-.39,1,1,0,0,1,.18-.63,1.13,1.13,0,0,1,.46-.34,2.2,2.2,0,0,1,.6-.16l.62-.1.33-.06a1.11,1.11,0,0,0,.2-.07.21.21,0,0,0,.08-.11.39.39,0,0,0,0-.16.62.62,0,0,0-.19-.48.82.82,0,0,0-.58-.19.93.93,0,0,0-.58.17.72.72,0,0,0-.24.53h-.72a1.47,1.47,0,0,1,.42-1,1.52,1.52,0,0,1,2.64,1.16v2.31h-.75Zm0-1.3a5.31,5.31,0,0,1-.6.12l-.57.1a1.17,1.17,0,0,0-.42.2.42.42,0,0,0-.17.36.47.47,0,0,0,.19.39.73.73,0,0,0,.48.15,1.23,1.23,0,0,0,.44-.07,1,1,0,0,0,.34-.2.87.87,0,0,0,.23-.31,1.07,1.07,0,0,0,.08-.41Z"/><path d="M136,570.88v.59h-.71a1.41,1.41,0,0,1,.17.32,1.25,1.25,0,0,1,.06.4,1.42,1.42,0,0,1-.1.55,1.17,1.17,0,0,1-.29.43,1.23,1.23,0,0,1-.46.28,1.77,1.77,0,0,1-1.3-.05l-.16.16a.27.27,0,0,0-.06.16.19.19,0,0,0,.12.18.88.88,0,0,0,.32.08l.46,0,.53,0,.52.07a1.55,1.55,0,0,1,.46.15.8.8,0,0,1,.33.27.79.79,0,0,1,.12.45,1,1,0,0,1-.09.41,1,1,0,0,1-.3.35,2,2,0,0,1-.58.23,4,4,0,0,1-.93.09,3.89,3.89,0,0,1-.83-.07,1.69,1.69,0,0,1-.55-.18.85.85,0,0,1-.29-.27.63.63,0,0,1-.09-.33.79.79,0,0,1,.13-.44,1,1,0,0,1,.37-.32.67.67,0,0,1-.28-.21.52.52,0,0,1-.11-.33.64.64,0,0,1,.15-.42,1.18,1.18,0,0,1,.4-.32,1.19,1.19,0,0,1-.3-.43,1.4,1.4,0,0,1-.1-.56,1.47,1.47,0,0,1,.1-.56,1.17,1.17,0,0,1,.29-.43,1.27,1.27,0,0,1,.46-.28,1.64,1.64,0,0,1,.6-.1l.27,0,.24,0Zm-.71,4.19a.28.28,0,0,0-.2-.27,1.85,1.85,0,0,0-.49-.12l-.65,0a4.62,4.62,0,0,1-.66-.06,1.07,1.07,0,0,0-.24.27.42.42,0,0,0-.06.21.41.41,0,0,0,.26.36,2.31,2.31,0,0,0,.94.13,2.15,2.15,0,0,0,.85-.12A.42.42,0,0,0,135.33,575.07Zm-1.23-2a.74.74,0,0,0,.57-.22,1.05,1.05,0,0,0,0-1.26.84.84,0,0,0-1.13,0,1.09,1.09,0,0,0,0,1.26A.73.73,0,0,0,134.1,573Z"/><path d="M137,570.88h.75v.59h0a1.29,1.29,0,0,1,1.23-.66,1.13,1.13,0,0,1,.95.36,1.63,1.63,0,0,1,.27,1v2.45h-.74v-2.24a1.22,1.22,0,0,0-.17-.7.66.66,0,0,0-.56-.23.91.91,0,0,0-.72.28,1,1,0,0,0-.27.75v2.14H137Z"/><path d="M144.53,573.34a1.44,1.44,0,0,1-.14.55,1.34,1.34,0,0,1-.33.42,1.62,1.62,0,0,1-.5.28,2.27,2.27,0,0,1-1.45,0,1.45,1.45,0,0,1-.55-.39,1.6,1.6,0,0,1-.31-.61,2.86,2.86,0,0,1-.11-.8,2.79,2.79,0,0,1,.11-.79,1.57,1.57,0,0,1,.33-.61,1.48,1.48,0,0,1,.55-.4,1.94,1.94,0,0,1,.76-.14,1.92,1.92,0,0,1,.76.13,1.39,1.39,0,0,1,.51.39,1.65,1.65,0,0,1,.29.61,3.35,3.35,0,0,1,.09.81v.12H141.9a1.48,1.48,0,0,0,.27.92.86.86,0,0,0,.69.3,1,1,0,0,0,.64-.19.81.81,0,0,0,.29-.56Zm-.73-1a1.17,1.17,0,0,0-.24-.71.85.85,0,0,0-.67-.27.93.93,0,0,0-.67.24,1.18,1.18,0,0,0-.31.74Z"/><line class="cls-8" x1="64.39" y1="546.7" x2="66.55" y2="544.53"/><line class="cls-8" x1="55.55" y1="546.7" x2="53.39" y2="544.53"/><circle class="cls-9" cx="60.05" cy="553.8" r="8.12"/><polyline class="cls-10" points="59.5 551 59.5 554.53 62.25 557.77"/><line class="cls-8" x1="60" y1="546" x2="60" y2="543"/><path class="cls-11" d="M131.6,319.29s42.62,7.27,62.23,51.75"/><circle class="cls-4" cx="123.46" cy="317.13" r="8.11"/><polygon class="cls-2" points="122.25 313.98 122.25 320.27 126.75 317.13 122.25 313.98"/><path class="cls-11" d="M208.41,375.9c8.81,6.62,12.5,16.88,13.61,25.31"/><path class="cls-5" d="M200.31,367.79a8.11,8.11,0,1,0,0,16.21"/><path class="cls-4" d="M200.31,384a8.11,8.11,0,0,0,0-16.21"/><path class="cls-11" d="M264.13,479.21s14.09,19.16,14,63.57"/><path class="cls-11" d="M237.22,416.66a24.07,24.07,0,0,0-4.13-4.83"/><path class="cls-11" d="M241.06,435.44a27.45,27.45,0,0,0,.12-7.31"/><path class="cls-5" d="M229.36,396.53a8.11,8.11,0,1,0,0,16.21"/><path class="cls-4" d="M229.36,412.74a8.11,8.11,0,0,0,0-16.21"/><path class="cls-11" d="M238.69,640.32s51-33.49,51-87.45"/><path class="cls-5" d="M282.22,541.69a8.11,8.11,0,1,0,0,16.21"/><path class="cls-4" d="M282.22,557.9a8.11,8.11,0,0,0,0-16.21"/><path class="cls-11" d="M285.09,668.43s1.78,17,25.62,19"/><polygon class="cls-6" points="283.68 684.84 286.47 675.1 289.56 680.77 293.41 669 297.81 678.19 300.7 674.78 303.15 684.84 283.68 684.84"/><polygon class="cls-7" points="291.15 675.1 292.87 677.4 294.1 675.57 295.18 676.67 296.75 675.1 293.41 669 291.15 675.1"/><polygon class="cls-7" points="285.39 678.87 287.1 681.28 288.47 678.76 286.47 675.1 285.39 678.87"/><path class="cls-11" d="M365.94,646.37s45.31,4,57.83,51"/><path class="cls-11" d="M460.82,643.23c-22.1,9.6-28.6,30.64-25.09,54.18"/><path class="cls-5" d="M430,695.06a8.11,8.11,0,1,0,0,16.21"/><path class="cls-4" d="M430,711.27a8.11,8.11,0,0,0,0-16.21"/><path class="cls-11" d="M515.89,618.06c16.45,4.14,23.83,12.58,28.64,29.2"/><path class="cls-11" d="M584.67,661.74s10.34-23.91,35.65-28.19"/><path class="cls-11" d="M593.13,557.9s1.13,44.93,45.62,54.62"/><path class="cls-11" d="M602.5,544.79S600.22,535.73,584,543c-19,8.55-49.57,2.19-52.93-19.65"/><path class="cls-5" d="M599.07,544.36a8.11,8.11,0,1,0,0,16.21"/><path class="cls-4" d="M599.07,560.57a8.11,8.11,0,0,0,0-16.21"/><polygon class="cls-6" points="548.8 552.01 551.6 542.27 554.68 547.94 558.54 536.17 562.93 545.36 565.83 541.95 568.28 552.01 548.8 552.01"/><polygon class="cls-7" points="556.27 542.27 557.99 544.57 559.23 542.75 560.31 543.84 561.88 542.27 558.54 536.17 556.27 542.27"/><polygon class="cls-7" points="550.52 546.04 552.23 548.45 553.6 545.94 551.6 542.27 550.52 546.04"/><path class="cls-11" d="M547.24,527.46c29,9.87,40.93-9.89,26.27-24.24"/><path class="cls-5" d="M539.13,515.29a8.11,8.11,0,1,0,0,16.21"/><path class="cls-4" d="M539.13,531.5a8.11,8.11,0,1,0,0-16.21"/><path class="cls-11" d="M521.24,490.79c33.09-20.65,47.93.54,73.91-12.52"/><polygon class="cls-6" points="537.62 485.27 540.42 475.53 543.5 481.2 547.36 469.43 551.75 478.62 554.65 475.21 557.1 485.27 537.62 485.27"/><polygon class="cls-7" points="545.1 475.53 546.81 477.83 548.05 476.01 549.13 477.1 550.7 475.53 547.36 469.43 545.1 475.53"/><polygon class="cls-7" points="539.34 479.3 541.05 481.71 542.41 479.2 540.42 475.53 539.34 479.3"/><path class="cls-11" d="M569.75,463.94s-1.7-38.79,30.62-66.35"/><path class="cls-11" d="M634.47,312.7s-26.71,21.13-24.68,71.81"/><path class="cls-5" d="M605.74,383.41a8.11,8.11,0,0,0,0,16.22"/><path class="cls-4" d="M605.74,399.63a8.11,8.11,0,0,0,0-16.22"/><path class="cls-11" d="M580.92,296.81s-46.2-.87-69.69-36.84"/><path class="cls-11" d="M416.93,177c30.79,23.25,41.34,57.82,82.69,71.3"/><path class="cls-5" d="M505.93,262a8.11,8.11,0,1,0,0-16.21"/><path class="cls-4" d="M505.93,245.74a8.11,8.11,0,1,0,0,16.21"/><path class="cls-11" d="M339.87,262.52c70.17,5.11,86.64-40.69,86.64-40.69"/><path class="cls-11" d="M251.72,263.09c2.89,49.86,53,62.14,75.25,5.65"/><path class="cls-5" d="M331.76,270.63a8.11,8.11,0,1,0,0-16.22"/><path class="cls-4" d="M331.76,254.41a8.11,8.11,0,0,0,0,16.22"/><path class="cls-11" d="M408.73,297.05a14.19,14.19,0,0,1,4.35,9.94"/><path class="cls-11" d="M295.41,286.68c28.64-9.13,79.1-8.09,103.58,3.69"/><path class="cls-12" d="M245.67,442.76s13.25,2.57,13.25,22.07"/><path class="cls-12" d="M242.09,646.92s19.13-5.24,32,9.81"/><path class="cls-12" d="M318.84,679.27s6.38-24.77,31.34-30.56"/><path class="cls-12" d="M477.09,643.23s20-3.9,24.79-19.56"/><path class="cls-12" d="M552.66,655.4s15.19-.95,20.56,13.57"/><path class="cls-12" d="M628.46,625.42a9.27,9.27,0,0,1,8.47-7.78"/><path class="cls-12" d="M558.28,496.12s-13.56-5.33-32.76-2"/><path class="cls-12" d="M583.55,474.08s5.17,3.27,10.71.5"/><path class="cls-12" d="M634.47,300.72s-14.15-9.39-37.29-3.91"/><path class="cls-12" d="M255.7,262s4,20.75,23.45,24.73"/><circle class="cls-4" cx="258.92" cy="472.97" r="8.13"/><circle class="cls-5" cx="237.54" cy="442.76" r="8.13"/><path class="cls-5" d="M234,655.05a8.14,8.14,0,1,1,8.14-8.13A8.14,8.14,0,0,1,234,655.05Z"/><circle class="cls-4" cx="279.19" cy="662.85" r="8.13"/><circle class="cls-5" cx="318.84" cy="687.41" r="8.13"/><path class="cls-5" d="M469,651.36a8.14,8.14,0,1,1,8.13-8.13A8.15,8.15,0,0,1,469,651.36Z"/><circle class="cls-4" cx="507.75" cy="618.06" r="8.13"/><circle class="cls-5" cx="544.53" cy="655.4" r="8.13"/><circle class="cls-4" cx="581.35" cy="668.97" r="8.13"/><circle class="cls-5" cx="628.46" cy="633.55" r="8.13"/><path class="cls-4" d="M645.06,625.77a8.13,8.13,0,1,1,8.13-8.13A8.14,8.14,0,0,1,645.06,625.77Z"/><circle class="cls-5" cx="566.62" cy="498.92" r="8.13"/><circle class="cls-4" cx="517.39" cy="497.95" r="8.13"/><circle class="cls-5" cx="602.39" cy="474.58" r="8.13"/><path class="cls-4" d="M575.45,478.27a8.14,8.14,0,1,1,8.13-8.13A8.14,8.14,0,0,1,575.45,478.27Z"/><path class="cls-5" d="M640.89,315.07a8.13,8.13,0,1,1,8.14-8.13A8.14,8.14,0,0,1,640.89,315.07Z"/><circle class="cls-4" cx="589.05" cy="296.81" r="8.13"/><circle class="cls-5" cx="411.45" cy="171.01" r="8.13"/><circle class="cls-4" cx="287.28" cy="286.68" r="8.13"/><polygon class="cls-6" points="571.14 527.62 573.94 517.88 577.02 523.55 580.88 511.78 585.27 520.98 588.17 517.57 590.62 527.62 571.14 527.62"/><polygon class="cls-7" points="578.61 517.88 580.33 520.18 581.57 518.36 582.65 519.46 584.22 517.88 580.88 511.78 578.61 517.88"/><polygon class="cls-7" points="572.86 521.65 574.57 524.07 575.93 521.55 573.94 517.88 572.86 521.65"/><circle class="cls-4" cx="431.9" cy="215.76" r="8.13"/><circle class="cls-5" cx="251.72" cy="254.96" r="8.13"/><path class="cls-4" d="M357.81,654.5a8.13,8.13,0,1,1,8.13-8.13A8.14,8.14,0,0,1,357.81,654.5Z"/><path class="cls-5" d="M418.23,310.37h8.28V288.21H399.63v22.16h8.28V299.82a5.16,5.16,0,0,1,10.32,0Z"/><line class="cls-8" x1="248.61" y1="413.53" x2="250.77" y2="411.37"/><line class="cls-8" x1="239.77" y1="413.53" x2="237.61" y2="411.37"/><circle class="cls-9" cx="244.27" cy="420.63" r="8.12"/><polyline class="cls-10" points="243.5 419 243.5 421.37 246.25 425.18"/><line class="cls-8" x1="244" y1="413" x2="244" y2="411"/><path class="cls-13" d="M145.6,283.92c-3.76-1.55-7.34-.79-10.91-.05-3.42.7-6.6,1.37-9.8.05a1.58,1.58,0,0,0-1.19.09c-.28.19-.7.5-.7.84v24.26a1,1,0,0,0,2,0v-8.52a20.37,20.37,0,0,0,3.72.46,32.33,32.33,0,0,0,6.36-.85c3.42-.71,6.72-1.37,9.92-.06a.64.64,0,0,0,.74-.09c.28-.18.26-.5.26-.83V284.85C146,284.44,146,284.08,145.6,283.92Zm-1.6,13.9c-3-.89-6.57-.23-9.7.42s-6.3,1.29-9.3.29V286.24c3,.9,6.57.23,9.7-.41s6.3-1.29,9.3-.29Z"/></svg>