<?xml version="1.0" encoding="utf-8"?>
<!-- Generator: Adobe Illustrator 19.1.0, SVG Export Plug-In . SVG Version: 6.00 Build 0)  -->
<svg version="1.1" id="Calque_1" xmlns="http://www.w3.org/2000/svg" xmlns:xlink="http://www.w3.org/1999/xlink" x="0px" y="0px"
	 viewBox="79 -4 769 801" style="enable-background:new 79 -4 769 801;" xml:space="preserve">
<style type="text/css">
	.st0{fill:#EDE6D8;stroke:#FFFFFF;stroke-miterlimit:10;}
	.st1{fill:#FFFFFF;}
	.st2{fill:none;stroke:#FFFFFF;stroke-miterlimit:10;}
	.st3{fill:none;}
	.st4{enable-background:new    ;}
	.st5{fill:none;stroke:#00A5AC;stroke-width:2;}
	.st6{fill:none;stroke:#E61E49;stroke-width:2;}
	.st7{fill:#FFFFFF;stroke:#1D1D1B;stroke-width:2;stroke-linecap:round;stroke-linejoin:round;}
	.st8{fill:#1D1D1B;}
	.st9{fill:none;stroke:#000000;stroke-width:2;stroke-linecap:round;stroke-linejoin:round;}
	.st10{fill:none;stroke:#000000;stroke-width:2;}
	.st11{fill:none;stroke:#000000;stroke-linecap:round;stroke-linejoin:round;}
	.st12{fill:none;stroke:#1D1D1B;stroke-width:2;stroke-linecap:round;stroke-linejoin:round;}
	.st13{fill:none;stroke:#1D1D1B;stroke-dasharray:4,4,4;}
	.st14{fill:#00A5AC;}
</style>
<g>
	<g id="XMLID_434_">
		<g id="XMLID_435_">
			<rect id="XMLID_436_" x="79.9" y="-3.5" class="st0" width="767.3" height="800"/>
		</g>
	</g>
	<g>
		<polygon id="France_22_" class="st1" points="734.7,606.7 734.7,606.7 733.5,593.8 716.6,597.6 697.4,584.4 696.2,576.5 
			697.2,575.5 701.1,571.7 701,565.2 700.7,564.9 704.9,561.1 704.9,561.1 701,552.3 690.1,549.6 683.4,536.6 683.4,536.6 
			694.8,535.5 704.7,527.9 707.4,517.2 707.4,517.2 688.6,492.6 688.6,492.6 690.4,490.5 697.8,487.5 698,485.7 698.1,484.7 
			698.3,480.5 687.7,467.3 687.7,467.3 690.2,464.7 690.2,464.7 686.1,454.6 669.6,458.5 666.9,456.6 662.8,462.3 662.8,462.3 
			665.4,466.2 658.1,471.6 651,471.5 650.9,467.3 657.5,465.3 660.3,456.5 655.5,454.7 656.7,445.4 670.5,431.2 670.5,431.2 
			669.5,420.7 669.5,420.7 678.1,416.9 679.5,415 696.1,393.2 696,393.2 696,393.2 693.1,385.8 697.8,384.9 698.5,384.6 701,388.2 
			709.6,388.3 713.7,384.8 716.2,377.1 711.8,370.3 716.8,352.6 714.4,342.5 720.3,331.4 723.1,309 728.8,305 739.5,288 
			727.1,282.9 714.1,283.6 707.1,276.9 701.5,276.7 698.4,279.5 690.9,279.7 684.6,274.8 680.5,274.9 679.6,277.8 675.5,278.2 
			668.3,262.9 660.4,259.6 654.5,257.2 651,257.4 642.1,259.8 635.4,254.9 622.3,257.3 617.1,253.5 615.1,248.2 597.1,240.8 
			596.7,218 592.5,218 588.2,227.8 578.1,232.1 570.9,229.6 566.5,229.5 566,228 570.3,224.8 570,212.9 562.1,205.6 549.9,206.2 
			548.6,208.4 547,208.4 547.4,200.7 539.7,195.2 535.4,197.1 530.8,195.1 529.8,183.5 525.9,178.6 517.6,180.5 512.3,183.7 
			510,179.1 507.8,176.7 503.4,174.3 505,168.2 501.2,159.1 482.8,164.1 470.7,166.3 460.9,173.7 460.6,204.1 451.7,223.1 
			440.8,232 404.1,244.6 397.6,258.5 407.3,263.4 384.4,272.7 376.9,268.4 357.8,265.7 353.7,263.7 348.2,265 340.3,253.5 
			344.5,250.6 342.6,245 331.4,245 326.9,246.9 314.2,240.6 313.3,242.4 317.9,246 317.9,259.9 325.9,274.4 328.4,293.7 
			325.7,299.3 333.7,309.4 327.3,311.6 316.6,311.5 315.3,305.6 310,305.3 307.9,307.7 294,306 277.6,313 273,309.2 264.4,291.6 
			241.5,292.9 240.1,301 230.6,299.2 228.4,301.6 218.1,297.7 192.2,305.2 189.3,319.4 203.1,318.4 212.2,323.9 198.4,321.7 
			194.7,323.6 209,330.8 208.2,335.3 190.9,336 190.8,338.9 198.7,340.7 204.3,351.7 204,355 212.4,355.5 213.5,351.8 224.8,357.8 
			239.5,360.1 254.3,373.1 268.4,380.5 282.4,383.8 277.4,394 292,396.5 292,402.5 289.6,405.4 296.5,406.7 301.8,410.8 
			294.5,419.5 294.4,424.7 307,445.9 336,460.8 333.6,467.3 321.1,459.7 316.1,462.8 339.9,476.6 337,487.5 333,485.5 324.8,475.1 
			324.3,482.8 329.3,486.6 330.8,499.2 350.7,514.6 352.3,523 354.5,534.7 353,537.2 348.2,520.5 337.1,513.1 335.9,507.2 
			333.5,508.1 332.5,516.5 325.4,564.7 330.9,558 337.6,566.4 337.1,570 329.4,570 325.5,574.3 325.4,578 313.2,630 309.9,635.2 
			303.5,642.5 294,644.4 294,648.3 313.3,654.5 312.7,661.2 310,662.7 315.9,669.1 318.1,664.2 336.5,674.1 340.9,674.1 341.1,674 
			343.9,674 343.9,674 343.9,674 344.3,678.7 350.8,684.4 351.4,685 351.4,685 364.2,681.7 371.2,686.5 377.2,692.8 386.2,689.8 
			392.1,694.2 398.3,692.7 410.1,693.8 410.5,683 419.1,686 428.8,690.2 432.5,697 440.5,697 445.6,700.6 457,699.3 462.5,708.1 
			469.5,710.3 469.5,714 475.6,716.7 479.4,712.9 484,713.1 495.4,721 503.5,721 512.5,711.3 519.3,709.6 522.7,712.3 526.7,713.5 
			526.8,707.7 522.7,703.5 521.7,685.2 521.9,672.5 517.1,669.3 518.9,666.4 523.1,669.6 528.4,662.9 564.9,640.3 569,640.7 
			571.2,645.2 579,645.2 595.1,646.3 592.1,650.4 602.4,654.3 608.2,652.5 605.6,647.6 611,648.4 614.8,652.6 628.9,652.2 
			631.1,660 645.5,664 651.7,670.4 659.1,666.7 667.1,667.6 677,666.3 691.8,658.2 690.7,651.7 703.1,640.8 711.5,635.2 
			711.7,628.4 716.8,628.1 729.3,619.4 729.3,619.4 729.9,608.2 		"/>
		<g id="XMLID_433_">
			<polygon id="Royaume-Uni_8_" class="st2" points="287,2.5 277.1,4.9 247.1,7.1 233.9,20.5 218.3,32.3 222.1,34.2 240.9,29.6 
				243.2,54.4 238.6,70.5 201.9,80.3 189.5,89.4 191.4,100.4 200.4,108.8 223.3,102.6 229.5,115.8 246.6,112.2 250.4,122.2 
				271.2,127.7 278.8,120.2 304.5,108.3 282.4,127.7 277.9,140.5 253.4,137.7 228.7,138.4 213.6,155.5 189.1,183.5 160.9,199.7 
				182.5,209.7 201.8,190.3 221.6,191.2 246.2,205 258.9,180.5 285.4,180.5 292.8,182.7 312,179.1 345,171.4 363.2,174.9 
				407.2,179.1 435.6,167.9 454.7,153.5 457.8,138 431.6,139.3 415,133.4 436,126 438.3,116.1 448.4,110.7 464.1,94.5 466.3,82.8 
				471.3,60.1 456.3,42.6 437.1,39.5 425,37.2 418,49.6 407.9,41.8 403.3,41.6 418.2,24.7 413.1,11 402.9,-3.5 287.2,-3.5 			"/>
			<polygon id="Irlande_8_" class="st2" points="79.5,74 97,67.3 120.6,64.4 131.7,60.5 150.2,64.9 169,21 169.9,5.3 166.5,1.7 
				163.5,-3.5 79.5,-3.5 			"/>
			<polygon id="Espagne_8_" class="st2" points="519.3,709.5 512.5,711 503.5,720.5 495.4,720.5 484,712.8 479.4,712.9 475.6,716.6 
				469.5,714 469.5,710.3 462.3,707.7 450.5,711.7 445.5,705 445.6,700.4 440.5,696.5 432.5,696.5 428.8,689.9 419.1,686 410.5,683 
				410.1,693.8 398.3,692.7 392.1,694.3 386.2,689.8 377.2,692.8 371.2,686.5 364.2,681.7 351.4,684.7 351.4,684.5 351.4,684.5 
				350.8,684.2 344.3,678.6 343.9,674.1 343.9,674.1 341.2,674.1 340.9,674.1 336.6,674.1 318.1,664.2 316,669.1 310,662.7 
				312.8,661.2 313.5,654.5 294.5,648.3 294.5,644.4 281.4,648 264.5,644.8 250,636.7 237.2,644.2 218.7,633 201.2,629.3 
				184.7,634.3 141.3,626.9 125.7,618.6 101.8,614.1 79.5,613.7 79.5,796.5 446.6,796.5 469.5,789.2 528.9,748 525.1,727.5 
				532.5,725 526.7,713.5 522.7,712.2 			"/>
			<polygon id="Allemagne_9_" class="st2" points="684.8,17.6 684.8,17.6 682.4,52.3 681.5,53.5 679,56.8 678.8,56.8 678.7,56.8 
				669.2,56.2 666.3,66.9 677.5,67.5 677.9,69.2 680.9,82.2 667.5,93.4 671.9,101.9 655.4,108.8 655.4,108.8 655.4,108.8 
				646.6,104.9 638.8,109.4 654,136 652.6,139.8 651,143.6 645,158.8 645.6,170.9 645.6,170.9 642.8,177.9 652.8,188.8 652.8,188.8 
				652.5,189.4 651.2,193.1 656.8,196.7 658.9,204.1 648.9,217.2 646.5,224.7 652.9,232.4 665.9,237.3 667.3,244.2 659.3,255.4 
				660.4,259.6 668.3,262.9 675.5,278.2 679.6,277.8 680.5,274.9 684.6,274.8 690.9,279.7 698.4,279.5 701.5,276.7 707.1,276.9 
				714.1,283.6 727.1,282.9 739.5,288 728.8,305 723.1,309 720.3,331.4 714.4,342.5 716.8,352.6 711.8,370.3 716.2,377.1 
				713.7,384.8 716.3,380.6 733.8,379.8 744.3,374.7 755.2,377.2 756.2,374.9 756.3,374.6 762.1,372.4 754.7,370.6 752.6,368.6 
				758.5,363.2 764.5,362.1 770.1,367 776.4,370 783.9,368.6 794.2,369.7 809.1,374.3 811.1,370.6 826.5,383 826.5,385.4 
				826.5,388.9 840.2,378.9 840.9,370.3 847,370.2 847.5,370.2 847.5,-3.5 682.8,-3.5 673.8,8.8 674,9.1 			"/>
			<polygon id="Italie_8_" class="st2" points="847.5,419.1 832,432.5 829.8,450.6 796,446.7 773.7,469.4 760.7,461.3 759.8,447.5 
				744.9,461.3 748.4,466.4 735.3,484.3 724.5,480.7 712.9,486.8 702,488.2 700.2,487.7 698,485.7 697.8,487.5 690.4,490.5 
				688.6,492.6 707.4,517.2 707.4,517.2 707.4,517.2 704.7,527.9 694.8,535.5 683.4,536.6 690.1,549.6 701,552.3 704.9,561.1 
				704.9,561.1 700.7,564.9 701,565.2 701.1,571.7 697.2,575.5 696.2,576.5 697.4,584.4 716.6,597.6 733.5,593.8 734.7,606.7 
				734.7,606.7 729.9,608.2 729.3,619.4 736,621.5 754.6,614.5 770.1,589.5 782.7,577.2 809.9,583.4 846.1,598.9 847.5,600.4 			"/>
			<polygon id="Autriche_8_" class="st2" points="840.9,370.3 840.2,378.9 826.5,388.9 826.5,385.4 826.5,383 811.1,370.6 
				809.2,374.3 794.2,369.7 802.8,376.4 807.1,379.6 808.8,385 803.2,395 816.7,397 820.1,409.6 828.9,418.2 839.1,410.5 
				846.5,410.5 847.5,410.5 847.5,370.2 847,370.2 			"/>
			<polygon id="Liechtenstein_8_" class="st2" points="820.1,409.6 816.7,397 803.2,395 805.7,406.7 			"/>
			<polygon id="Pays-Bas_9_" class="st2" points="569.9,140.7 582.8,134.3 592.1,137.2 603.4,134.3 610.4,146.4 619.1,145.1 
				619.1,145.1 619.1,145.1 635.5,153.1 630.2,178.8 642.8,177.9 642.8,177.9 642.8,177.9 642.8,177.9 645.6,170.9 645.6,170.9 
				645,158.8 651,143.6 652.6,139.8 654,136 638.8,109.4 646.6,104.9 646.6,104.9 655.4,108.8 655.4,108.8 671.9,101.9 667.5,93.4 
				680.9,82.2 677.9,69.2 677.5,67.5 666.3,66.9 669.2,56.2 669.2,56.2 678.8,56.8 679,56.8 681.5,53.5 682.4,52.3 684.8,17.6 
				684.8,17.6 674,9.3 673.8,9.1 673.4,8.7 670.2,6.3 660.5,7.1 639.4,10.6 618.5,19 613.5,31.6 597,44.3 594.1,39.5 588.3,38.5 
				580.1,80.3 566.2,100.3 550.7,117.2 537.7,130.3 541.7,137.7 558.2,141.6 			"/>
			<polygon id="Belgique_8_" class="st2" points="503.4,174.3 507.8,176.7 510,179.1 512.3,183.7 517.6,180.5 525.9,178.6 
				529.8,183.5 530.8,195.1 535.4,197.1 539.7,195.2 547.4,200.7 547,208.4 548.6,208.4 549.9,206.2 562.1,205.6 570,212.9 
				570.3,224.8 566,228 566.5,229.5 570.9,229.6 578.1,232.1 588.2,227.5 592.5,217.5 596.7,217.5 597.1,240.5 615.1,248.1 
				617.1,253.5 622.3,257.3 635.4,254.9 639.4,252.6 638.9,249.9 632.5,233.1 643.7,214.2 648.9,217.2 658.9,204.1 656.8,196.7 
				651.1,193.1 652.5,189.4 652.8,188.8 642.8,177.9 642.8,177.9 630.2,178.8 630.2,178.8 635.5,153.1 619.1,145.1 619.1,145.1 
				610.4,146.4 603.4,134.3 592.1,137.2 582.8,134.3 569.9,140.7 558.2,141.6 541.7,137.7 528.2,141.3 497.5,157.1 497.5,160.2 
				501.3,159.1 505.1,168.2 			"/>
			<polygon id="Luxembourg_10_" class="st2" points="667.3,244.2 665.9,237.3 652.9,232.4 646.5,224.7 648.9,217.2 643.7,214.2 
				632.5,233.1 638.9,249.9 639.4,252.6 635.4,254.9 642.1,259.8 651,257.4 654.5,257.2 660.4,259.6 659.3,255.4 			"/>
			<polygon id="Suisse_9_" class="st2" points="839.1,410.5 828.9,418.2 820.1,409.5 805.7,406.6 803.2,395 808.8,385 807.1,379.6 
				802.8,376.4 794.2,369.7 783.9,368.6 776.4,370 770.1,367 764.5,362.1 758.5,363.2 752.6,368.6 754.7,370.6 762.1,372.3 
				756.3,374.6 756.2,374.9 755.2,377.2 744.3,374.7 733.8,379.8 716.3,380.3 713.3,384.5 712.9,384.5 709.6,388 701,388.1 
				698.5,384.5 697.9,384.9 693.4,385.8 696.5,393.1 696.5,393.2 696.5,393.2 696.4,393.2 696.3,393.2 679.5,415 678.1,416.9 
				669.6,420.9 670.5,431.5 670.5,431.5 670.5,431.5 656.7,445.5 655.5,454.8 660.3,456.5 657.5,465.3 650.9,467.3 651,471.5 
				658.1,471.6 665.4,466.2 662.8,462.3 662.8,462.3 662.8,462.3 666.9,456.6 669.6,458.5 686.1,454.6 690.2,464.7 690.2,464.7 
				690.2,464.7 687.7,467.3 698.3,480.5 698.1,484.7 698,485.7 700.2,487.7 702,488.2 712.9,486.8 724.5,480.7 735.3,484.3 
				735.3,484.3 748.4,466.4 744.9,461.3 759.8,447.5 760.7,461.3 773.7,469.4 796,446.7 829.7,450.6 832,432.5 847.5,419.1 
				847.5,410.5 846.5,410.5 			"/>
			<polygon id="France_21_" class="st1" points="811.1,650.4 803.9,650.6 801.4,656 787.1,661.5 782,674.4 780.2,676.8 786.1,680.6 
				786.3,682.4 780.6,683.6 782.1,690.9 788.6,692.9 789,696.8 784.6,701.4 785.2,705.3 791.7,705.9 793.3,710 788.9,715.9 
				800.5,717.7 793.8,724.9 799.9,729.8 809.5,732.7 812.3,735.9 817.8,737.4 823,721.9 824.2,710.5 823.5,704 823.4,697.6 
				828.7,690.2 828.8,677.9 826.7,673.7 826.1,660.6 821.8,656 821.4,647.8 822.8,644.1 820,633.4 818,629.8 813.9,633.1 
				815.8,646.3 814.4,652.1 			"/>
			<polygon id="Andorre_8_" class="st2" points="450.5,711.7 462.3,707.7 457,699.1 445.6,700.4 445.5,705 			"/>
			<polygon id="Monaco_8_" class="st2" points="711.5,635.2 711.5,635.2 720.4,635.5 716.8,628.1 711.7,628.4 			"/>
		</g>
	</g>
</g>
<g>
	<g>
		<g>
			<rect x="79.5" y="407.5" class="st1" width="189.1" height="191.3"/>
			<g>
				<g id="XMLID_319_">
					<rect id="XMLID_439_" x="95.4" y="425.5" class="st3" width="177.7" height="77.3"/>
					<g class="st4">
						<path d="M96.7,425.5h4.4c0.5,0,0.9,0.1,1.3,0.2s0.7,0.4,1,0.7c0.3,0.3,0.5,0.6,0.6,1s0.2,0.8,0.2,1.3c0,0.5-0.1,0.9-0.2,1.4
							s-0.4,0.8-0.7,1c-0.3,0.3-0.7,0.5-1.1,0.7s-1,0.2-1.6,0.2h-2.4v3.9h-1.6V425.5z M100.9,430.6c0.6,0,1-0.2,1.3-0.5
							s0.4-0.8,0.4-1.3c0-0.3,0-0.5-0.1-0.7c-0.1-0.2-0.2-0.4-0.3-0.6s-0.3-0.3-0.5-0.4c-0.2-0.1-0.4-0.1-0.7-0.1h-2.7v3.8H100.9z"
							/>
						<path d="M110.6,434.8L110.6,434.8c-0.3,0.4-0.6,0.6-1,0.9s-1,0.3-1.6,0.3c-0.4,0-0.7-0.1-1-0.2c-0.3-0.1-0.5-0.2-0.7-0.4
							c-0.2-0.2-0.3-0.4-0.4-0.6c-0.1-0.2-0.1-0.5-0.1-0.8c0-0.5,0.1-1,0.4-1.3c0.2-0.3,0.5-0.5,0.9-0.7s0.8-0.3,1.2-0.3
							s0.9-0.1,1.2-0.2c0.3,0,0.5-0.1,0.7-0.1s0.3-0.1,0.4-0.1c0.1-0.1,0.1-0.1,0.2-0.2c0-0.1,0-0.2,0-0.3c0-0.4-0.1-0.7-0.4-1
							s-0.6-0.4-1.2-0.4c-0.5,0-0.9,0.1-1.2,0.3s-0.4,0.6-0.5,1.1H106c0.1-0.8,0.4-1.4,0.8-1.9c0.5-0.5,1.2-0.7,2.3-0.7
							c1,0,1.8,0.2,2.3,0.7c0.5,0.5,0.7,1.2,0.7,2.3v4.6h-1.5V434.8z M110.6,432.2c-0.4,0.1-0.8,0.2-1.2,0.2
							c-0.4,0.1-0.8,0.1-1.1,0.2s-0.6,0.2-0.8,0.4s-0.3,0.4-0.3,0.7c0,0.3,0.1,0.6,0.4,0.8s0.6,0.3,1,0.3c0.3,0,0.6,0,0.9-0.1
							c0.3-0.1,0.5-0.2,0.7-0.4s0.3-0.4,0.5-0.6c0.1-0.2,0.2-0.5,0.2-0.8V432.2z"/>
						<path d="M114.4,428.3h1.5v1.2h0c0.2-0.4,0.5-0.7,0.9-1s0.7-0.3,1.2-0.3c0,0,0.1,0,0.2,0s0.2,0,0.2,0v1.6c-0.1,0-0.2,0-0.3-0.1
							s-0.2,0-0.3,0c-0.6,0-1,0.2-1.4,0.5s-0.5,0.9-0.5,1.5v4.1h-1.5V428.3z"/>
						<path d="M126.3,433.1c0,0.9-0.4,1.7-0.9,2.2s-1.3,0.7-2.3,0.7c-0.6,0-1.1-0.1-1.6-0.3c-0.4-0.2-0.8-0.4-1.1-0.8
							s-0.5-0.8-0.7-1.2c-0.1-0.5-0.2-1-0.2-1.6s0.1-1.1,0.2-1.6c0.2-0.5,0.4-0.9,0.7-1.2c0.3-0.3,0.7-0.6,1.1-0.8s0.9-0.3,1.5-0.3
							c1,0,1.8,0.3,2.3,0.8c0.6,0.5,0.9,1.2,0.9,2.2h-1.5c0-0.5-0.2-1-0.5-1.3c-0.3-0.3-0.7-0.4-1.2-0.4c-0.6,0-1.1,0.2-1.5,0.7
							c-0.3,0.4-0.5,1.1-0.5,2c0,0.9,0.2,1.6,0.5,2s0.8,0.7,1.5,0.7c0.5,0,1-0.1,1.3-0.4c0.3-0.3,0.5-0.7,0.5-1.2H126.3z"/>
						<path d="M131.7,436c-0.6,0-1.1-0.1-1.5-0.3c-0.5-0.2-0.9-0.4-1.2-0.8s-0.6-0.8-0.7-1.2c-0.2-0.5-0.3-1-0.3-1.6
							s0.1-1.1,0.3-1.6c0.2-0.5,0.4-0.9,0.7-1.2c0.3-0.3,0.7-0.6,1.2-0.8s1-0.3,1.5-0.3s1.1,0.1,1.5,0.3s0.9,0.5,1.2,0.8
							c0.3,0.3,0.6,0.7,0.8,1.2c0.2,0.5,0.3,1,0.3,1.6s-0.1,1.1-0.3,1.6c-0.2,0.5-0.4,0.9-0.8,1.2s-0.7,0.6-1.2,0.8
							C132.8,435.9,132.3,436,131.7,436z M131.7,434.8c0.7,0,1.2-0.2,1.6-0.7c0.4-0.5,0.6-1.2,0.6-2c0-0.8-0.2-1.5-0.6-2
							c-0.4-0.5-0.9-0.7-1.6-0.7c-0.7,0-1.2,0.2-1.6,0.7c-0.4,0.5-0.6,1.2-0.6,2c0,0.8,0.2,1.5,0.6,2
							C130.5,434.6,131,434.8,131.7,434.8z"/>
						<path d="M137.4,428.3h1.5v4.5c0,0.6,0.1,1.1,0.3,1.4c0.2,0.3,0.6,0.5,1.1,0.5c0.6,0,1-0.2,1.4-0.6s0.5-0.9,0.5-1.5v-4.3h1.5
							v7.5h-1.5v-1.2h0c-0.2,0.4-0.5,0.7-0.9,1s-0.8,0.4-1.4,0.4c-0.9,0-1.5-0.2-1.8-0.7s-0.5-1.1-0.5-2V428.3z"/>
						<path d="M146,428.3h1.5v1.2h0c0.2-0.4,0.5-0.7,0.9-1s0.7-0.3,1.2-0.3c0,0,0.1,0,0.2,0s0.2,0,0.2,0v1.6c-0.1,0-0.2,0-0.3-0.1
							s-0.2,0-0.3,0c-0.6,0-1,0.2-1.4,0.5s-0.5,0.9-0.5,1.5v4.1H146V428.3z"/>
						<path d="M152.6,433.4c0,0.6,0.2,0.9,0.6,1.1s0.7,0.3,1.2,0.3c0.4,0,0.8-0.1,1-0.3s0.4-0.4,0.4-0.8c0-0.3-0.1-0.5-0.3-0.7
							s-0.5-0.3-0.8-0.4c-0.3-0.1-0.7-0.2-1.1-0.2c-0.4-0.1-0.7-0.2-1.1-0.3c-0.3-0.1-0.6-0.4-0.8-0.6c-0.2-0.3-0.3-0.7-0.3-1.2
							c0-0.3,0.1-0.6,0.2-0.9c0.1-0.3,0.3-0.5,0.5-0.7s0.5-0.4,0.9-0.5c0.3-0.1,0.8-0.2,1.2-0.2c0.9,0,1.6,0.2,2.1,0.6
							s0.8,1.1,0.8,1.9h-1.5c0-0.5-0.2-0.8-0.4-1.1c-0.3-0.2-0.6-0.3-1.1-0.3c-0.2,0-0.4,0-0.6,0.1s-0.3,0.1-0.4,0.2
							c-0.1,0.1-0.2,0.2-0.2,0.3s-0.1,0.2-0.1,0.4c0,0.3,0.1,0.5,0.3,0.6s0.5,0.2,0.8,0.3c0.3,0.1,0.7,0.2,1.1,0.3
							c0.4,0.1,0.7,0.2,1.1,0.3c0.3,0.2,0.6,0.4,0.8,0.7c0.2,0.3,0.3,0.7,0.3,1.2c0,0.7-0.2,1.2-0.7,1.6c-0.5,0.4-1.2,0.6-2.2,0.6
							c-1,0-1.8-0.2-2.3-0.6s-0.9-1.1-0.9-2H152.6z"/>
						<path d="M163.4,429.6h-1v-1.2h1v-1.9h1.5v1.9h1.8v1.2h-1.8v3.9c0,0.4,0.1,0.7,0.3,0.8s0.4,0.3,0.8,0.3c0.1,0,0.2,0,0.4,0
							s0.2,0,0.4,0v1.3c-0.2,0-0.3,0.1-0.5,0.1s-0.3,0-0.5,0c-0.7,0-1.3-0.2-1.7-0.6c-0.4-0.4-0.6-1-0.6-1.8V429.6z"/>
						<path d="M170.3,435.8l-3-7.5h1.6l2.1,5.8l1.9-5.8h1.6l-3.7,10.2h-1.6L170.3,435.8z"/>
						<path d="M176,428.3h1.5v1.2h0c0.2-0.4,0.5-0.7,0.9-0.9s0.9-0.4,1.5-0.4c0.5,0,1,0.1,1.4,0.3s0.7,0.5,1,0.8
							c0.3,0.3,0.5,0.7,0.6,1.2c0.1,0.5,0.2,1,0.2,1.6c0,0.6-0.1,1.1-0.2,1.6c-0.1,0.5-0.4,0.9-0.6,1.2s-0.6,0.6-1,0.8
							c-0.4,0.2-0.9,0.3-1.4,0.3c-0.6,0-1.1-0.1-1.5-0.4s-0.7-0.6-0.9-1h0v3.9H176V428.3z M179.6,434.8c0.6,0,1.2-0.2,1.5-0.7
							c0.4-0.5,0.6-1.2,0.6-2c0-0.9-0.2-1.5-0.5-2c-0.4-0.5-0.9-0.7-1.6-0.7c-0.7,0-1.2,0.2-1.5,0.7c-0.3,0.5-0.5,1.2-0.5,2
							s0.2,1.5,0.5,2S178.9,434.8,179.6,434.8z"/>
						<path d="M191.4,433.3c0,0.4-0.1,0.8-0.3,1.1s-0.4,0.6-0.7,0.9s-0.6,0.4-1,0.6c-0.4,0.1-0.8,0.2-1.3,0.2
							c-0.6,0-1.1-0.1-1.6-0.3c-0.4-0.2-0.8-0.4-1.1-0.8s-0.5-0.8-0.6-1.2c-0.1-0.5-0.2-1-0.2-1.6s0.1-1.1,0.2-1.6
							c0.1-0.5,0.4-0.9,0.7-1.2c0.3-0.3,0.7-0.6,1.1-0.8s0.9-0.3,1.5-0.3s1.1,0.1,1.5,0.3s0.8,0.4,1,0.8c0.3,0.3,0.5,0.7,0.6,1.2
							c0.1,0.5,0.2,1,0.2,1.6v0.2h-5.3c0,0.8,0.2,1.4,0.5,1.8s0.8,0.6,1.4,0.6c0.5,0,0.9-0.1,1.3-0.4s0.5-0.6,0.6-1.1H191.4z
							 M189.9,431.3c0-0.6-0.2-1-0.5-1.4s-0.7-0.6-1.3-0.6c-0.6,0-1,0.2-1.3,0.5c-0.3,0.3-0.5,0.8-0.6,1.5H189.9z"/>
					</g>
					<g class="st4">
						<path d="M101.7,451.4L101.7,451.4c-0.3,0.4-0.6,0.7-0.9,1s-0.9,0.4-1.5,0.4c-0.5,0-1-0.1-1.4-0.3c-0.4-0.2-0.7-0.5-1-0.8
							s-0.5-0.8-0.6-1.2c-0.1-0.5-0.2-1-0.2-1.5c0-0.6,0.1-1.1,0.2-1.6c0.1-0.5,0.3-0.9,0.6-1.2c0.3-0.3,0.6-0.6,1-0.8
							s0.9-0.3,1.4-0.3c0.6,0,1.1,0.1,1.5,0.4s0.7,0.6,0.9,0.9h0v-4h1.5v10.4h-1.5V451.4z M99.7,451.6c0.7,0,1.2-0.2,1.5-0.7
							c0.3-0.5,0.5-1.2,0.5-2c0-0.9-0.2-1.5-0.5-2c-0.3-0.5-0.8-0.7-1.5-0.7c-0.6,0-1.2,0.2-1.5,0.7c-0.4,0.5-0.6,1.2-0.6,2
							c0,0.9,0.2,1.5,0.5,2S99.1,451.6,99.7,451.6z"/>
						<path d="M105.6,445.1h1.5v4.5c0,0.6,0.1,1.1,0.3,1.4c0.2,0.3,0.6,0.5,1.1,0.5c0.6,0,1-0.2,1.4-0.6s0.5-0.9,0.5-1.5v-4.3h1.5
							v7.5h-1.5v-1.2h0c-0.2,0.4-0.5,0.7-0.9,1s-0.8,0.4-1.4,0.4c-0.9,0-1.5-0.2-1.8-0.7s-0.5-1.1-0.5-2V445.1z"/>
						<path d="M120.9,443.6h-3.3v-1.4h8.2v1.4h-3.3v9h-1.6V443.6z"/>
						<path d="M130.6,452.8c-0.6,0-1.1-0.1-1.5-0.3c-0.5-0.2-0.9-0.4-1.2-0.8s-0.6-0.8-0.7-1.2c-0.2-0.5-0.3-1-0.3-1.6
							s0.1-1.1,0.3-1.6c0.2-0.5,0.4-0.9,0.7-1.2c0.3-0.3,0.7-0.6,1.2-0.8s1-0.3,1.5-0.3s1.1,0.1,1.5,0.3s0.9,0.5,1.2,0.8
							c0.3,0.3,0.6,0.7,0.8,1.2c0.2,0.5,0.3,1,0.3,1.6s-0.1,1.1-0.3,1.6c-0.2,0.5-0.4,0.9-0.8,1.2s-0.7,0.6-1.2,0.8
							C131.7,452.7,131.2,452.8,130.6,452.8z M130.6,451.6c0.7,0,1.2-0.2,1.6-0.7c0.4-0.5,0.6-1.2,0.6-2c0-0.8-0.2-1.5-0.6-2
							c-0.4-0.5-0.9-0.7-1.6-0.7c-0.7,0-1.2,0.2-1.6,0.7c-0.4,0.5-0.6,1.2-0.6,2c0,0.8,0.2,1.5,0.6,2
							C129.4,451.4,129.9,451.6,130.6,451.6z"/>
						<path d="M136.3,445.1h1.5v4.5c0,0.6,0.1,1.1,0.3,1.4c0.2,0.3,0.6,0.5,1.1,0.5c0.6,0,1-0.2,1.4-0.6s0.5-0.9,0.5-1.5v-4.3h1.5
							v7.5h-1.5v-1.2h0c-0.2,0.4-0.5,0.7-0.9,1s-0.8,0.4-1.4,0.4c-0.9,0-1.5-0.2-1.8-0.7s-0.5-1.1-0.5-2V445.1z"/>
						<path d="M145,445.1h1.5v1.2h0c0.2-0.4,0.5-0.7,0.9-1s0.7-0.3,1.2-0.3c0,0,0.1,0,0.2,0s0.2,0,0.2,0v1.6c-0.1,0-0.2,0-0.3-0.1
							s-0.2,0-0.3,0c-0.6,0-1,0.2-1.4,0.5s-0.5,0.9-0.5,1.5v4.1H145V445.1z"/>
						<path d="M159.9,451.4L159.9,451.4c-0.3,0.4-0.6,0.7-0.9,1s-0.9,0.4-1.5,0.4c-0.5,0-1-0.1-1.4-0.3c-0.4-0.2-0.7-0.5-1-0.8
							s-0.5-0.8-0.6-1.2c-0.1-0.5-0.2-1-0.2-1.5c0-0.6,0.1-1.1,0.2-1.6c0.1-0.5,0.3-0.9,0.6-1.2c0.3-0.3,0.6-0.6,1-0.8
							s0.9-0.3,1.4-0.3c0.6,0,1.1,0.1,1.5,0.4s0.7,0.6,0.9,0.9h0v-4h1.5v10.4h-1.5V451.4z M157.9,451.6c0.7,0,1.2-0.2,1.5-0.7
							c0.3-0.5,0.5-1.2,0.5-2c0-0.9-0.2-1.5-0.5-2c-0.3-0.5-0.8-0.7-1.5-0.7c-0.6,0-1.2,0.2-1.5,0.7c-0.4,0.5-0.6,1.2-0.6,2
							c0,0.9,0.2,1.5,0.5,2S157.2,451.6,157.9,451.6z"/>
						<path d="M170.1,450.1c0,0.4-0.1,0.8-0.3,1.1s-0.4,0.6-0.7,0.9s-0.6,0.4-1,0.6c-0.4,0.1-0.8,0.2-1.3,0.2
							c-0.6,0-1.1-0.1-1.6-0.3c-0.4-0.2-0.8-0.4-1.1-0.8s-0.5-0.8-0.6-1.2c-0.1-0.5-0.2-1-0.2-1.6s0.1-1.1,0.2-1.6
							c0.1-0.5,0.4-0.9,0.7-1.2c0.3-0.3,0.7-0.6,1.1-0.8s0.9-0.3,1.5-0.3s1.1,0.1,1.5,0.3s0.8,0.4,1,0.8c0.3,0.3,0.5,0.7,0.6,1.2
							c0.1,0.5,0.2,1,0.2,1.6v0.2h-5.3c0,0.8,0.2,1.4,0.5,1.8s0.8,0.6,1.4,0.6c0.5,0,0.9-0.1,1.3-0.4s0.5-0.6,0.6-1.1H170.1z
							 M168.6,448.1c0-0.6-0.2-1-0.5-1.4s-0.7-0.6-1.3-0.6c-0.6,0-1,0.2-1.3,0.5c-0.3,0.3-0.5,0.8-0.6,1.5H168.6z"/>
						<path d="M176.5,442.3h6.6v1.4h-5v3.1h4.7v1.3h-4.7v4.6h-1.6V442.3z"/>
						<path d="M185.3,445.1h1.5v1.2h0c0.2-0.4,0.5-0.7,0.9-1s0.7-0.3,1.2-0.3c0,0,0.1,0,0.2,0s0.2,0,0.2,0v1.6c-0.1,0-0.2,0-0.3-0.1
							s-0.2,0-0.3,0c-0.6,0-1,0.2-1.4,0.5s-0.5,0.9-0.5,1.5v4.1h-1.5V445.1z"/>
						<path d="M195.3,451.6L195.3,451.6c-0.3,0.4-0.6,0.6-1,0.9s-1,0.3-1.6,0.3c-0.4,0-0.7-0.1-1-0.2c-0.3-0.1-0.5-0.2-0.7-0.4
							c-0.2-0.2-0.3-0.4-0.4-0.6c-0.1-0.2-0.1-0.5-0.1-0.8c0-0.5,0.1-1,0.4-1.3c0.2-0.3,0.5-0.5,0.9-0.7s0.8-0.3,1.2-0.3
							s0.9-0.1,1.2-0.2c0.3,0,0.5-0.1,0.7-0.1s0.3-0.1,0.4-0.1c0.1-0.1,0.1-0.1,0.2-0.2c0-0.1,0-0.2,0-0.3c0-0.4-0.1-0.7-0.4-1
							s-0.6-0.4-1.2-0.4c-0.5,0-0.9,0.1-1.2,0.3s-0.4,0.6-0.5,1.1h-1.4c0.1-0.8,0.4-1.4,0.8-1.9c0.5-0.5,1.2-0.7,2.3-0.7
							c1,0,1.8,0.2,2.3,0.7c0.5,0.5,0.7,1.2,0.7,2.3v4.6h-1.5V451.6z M195.3,449c-0.4,0.1-0.8,0.2-1.2,0.2c-0.4,0.1-0.8,0.1-1.1,0.2
							s-0.6,0.2-0.8,0.4s-0.3,0.4-0.3,0.7c0,0.3,0.1,0.6,0.4,0.8s0.6,0.3,1,0.3c0.3,0,0.6,0,0.9-0.1c0.3-0.1,0.5-0.2,0.7-0.4
							s0.3-0.4,0.5-0.6c0.1-0.2,0.2-0.5,0.2-0.8V449z"/>
						<path d="M199,445.1h1.5v1.2h0c0.3-0.4,0.6-0.7,0.9-1s0.9-0.3,1.5-0.3c0.9,0,1.5,0.2,1.9,0.7c0.4,0.5,0.6,1.1,0.6,2v4.9H204
							v-4.5c0-0.6-0.1-1.1-0.3-1.4s-0.6-0.5-1.1-0.5c-0.6,0-1.1,0.2-1.4,0.6s-0.5,0.9-0.5,1.5v4.3H199V445.1z"/>
						<path d="M214.2,449.9c0,0.9-0.4,1.7-0.9,2.2s-1.3,0.7-2.3,0.7c-0.6,0-1.1-0.1-1.6-0.3c-0.4-0.2-0.8-0.4-1.1-0.8
							s-0.5-0.8-0.7-1.2c-0.1-0.5-0.2-1-0.2-1.6s0.1-1.1,0.2-1.6c0.2-0.5,0.4-0.9,0.7-1.2c0.3-0.3,0.7-0.6,1.1-0.8s0.9-0.3,1.5-0.3
							c1,0,1.8,0.3,2.3,0.8c0.6,0.5,0.9,1.2,0.9,2.2h-1.5c0-0.5-0.2-1-0.5-1.3c-0.3-0.3-0.7-0.4-1.2-0.4c-0.6,0-1.1,0.2-1.5,0.7
							c-0.3,0.4-0.5,1.1-0.5,2c0,0.9,0.2,1.6,0.5,2s0.8,0.7,1.5,0.7c0.5,0,1-0.1,1.3-0.4c0.3-0.3,0.5-0.7,0.5-1.2H214.2z"/>
						<path d="M222.6,450.1c0,0.4-0.1,0.8-0.3,1.1s-0.4,0.6-0.7,0.9s-0.6,0.4-1,0.6c-0.4,0.1-0.8,0.2-1.3,0.2
							c-0.6,0-1.1-0.1-1.6-0.3c-0.4-0.2-0.8-0.4-1.1-0.8s-0.5-0.8-0.6-1.2c-0.1-0.5-0.2-1-0.2-1.6s0.1-1.1,0.2-1.6
							c0.1-0.5,0.4-0.9,0.7-1.2c0.3-0.3,0.7-0.6,1.1-0.8s0.9-0.3,1.5-0.3s1.1,0.1,1.5,0.3s0.8,0.4,1,0.8c0.3,0.3,0.5,0.7,0.6,1.2
							c0.1,0.5,0.2,1,0.2,1.6v0.2h-5.3c0,0.8,0.2,1.4,0.5,1.8s0.8,0.6,1.4,0.6c0.5,0,0.9-0.1,1.3-0.4s0.5-0.6,0.6-1.1H222.6z
							 M221.1,448.1c0-0.6-0.2-1-0.5-1.4s-0.7-0.6-1.3-0.6c-0.6,0-1,0.2-1.3,0.5c-0.3,0.3-0.5,0.8-0.6,1.5H221.1z"/>
					</g>
					<g class="st4">
						<path d="M96.7,468.1H99v-7.2l-2.2,1.4l-0.7-1.1l3.3-2.2h1.2v9.1h2v1.3h-5.9V468.1z"/>
						<path d="M105.6,466.3c0.1,0.6,0.3,1.1,0.6,1.5s0.8,0.5,1.4,0.5c0.3,0,0.6-0.1,0.9-0.2c0.3-0.1,0.5-0.3,0.7-0.6
							c0.2-0.3,0.4-0.7,0.5-1.3s0.2-1.2,0.2-2.1c-0.2,0.4-0.5,0.8-1,1c-0.4,0.2-1,0.4-1.6,0.4c-0.4,0-0.9-0.1-1.2-0.2
							s-0.7-0.3-1-0.6c-0.3-0.3-0.5-0.6-0.7-1s-0.2-0.9-0.2-1.4c0-0.5,0.1-1,0.2-1.4s0.4-0.8,0.7-1.1c0.3-0.3,0.7-0.5,1.1-0.7
							s0.9-0.2,1.5-0.2c0.6,0,1.1,0.1,1.5,0.3s0.9,0.5,1.2,0.9s0.6,1,0.7,1.6c0.2,0.7,0.3,1.5,0.3,2.4c0,1.8-0.3,3.2-1,4.1
							c-0.6,0.9-1.6,1.3-2.8,1.3c-1,0-1.8-0.3-2.4-0.9c-0.6-0.6-0.9-1.4-1-2.4H105.6z M107.5,464.3c0.6,0,1.1-0.2,1.4-0.5
							c0.4-0.4,0.5-0.8,0.5-1.4c0-0.3,0-0.6-0.1-0.8c-0.1-0.3-0.2-0.5-0.4-0.7s-0.4-0.3-0.6-0.4c-0.2-0.1-0.5-0.2-0.8-0.2
							c-0.3,0-0.5,0.1-0.8,0.2c-0.2,0.1-0.4,0.2-0.6,0.4s-0.3,0.4-0.4,0.7c-0.1,0.3-0.1,0.5-0.1,0.8c0,0.6,0.2,1.1,0.5,1.5
							S106.9,464.3,107.5,464.3z"/>
						<path d="M115.7,469.6c-0.5,0-1-0.1-1.4-0.3s-0.8-0.5-1.2-0.9s-0.6-1-0.8-1.7c-0.2-0.7-0.3-1.5-0.3-2.4s0.1-1.8,0.3-2.4
							c0.2-0.7,0.5-1.2,0.8-1.7s0.7-0.7,1.2-0.9s0.9-0.3,1.4-0.3c0.5,0,1,0.1,1.4,0.3s0.8,0.5,1.2,0.9s0.6,1,0.8,1.7
							c0.2,0.7,0.3,1.5,0.3,2.4s-0.1,1.8-0.3,2.4c-0.2,0.7-0.5,1.2-0.8,1.7s-0.7,0.7-1.2,0.9S116.2,469.6,115.7,469.6z M115.7,468.3
							c0.3,0,0.5-0.1,0.8-0.2c0.3-0.1,0.5-0.3,0.7-0.6c0.2-0.3,0.3-0.7,0.5-1.2s0.2-1.2,0.2-2s-0.1-1.5-0.2-2
							c-0.1-0.5-0.3-0.9-0.5-1.2c-0.2-0.3-0.4-0.5-0.7-0.6s-0.5-0.2-0.8-0.2c-0.3,0-0.5,0.1-0.8,0.2s-0.5,0.3-0.7,0.6
							c-0.2,0.3-0.3,0.7-0.5,1.2c-0.1,0.5-0.2,1.2-0.2,2s0.1,1.5,0.2,2s0.3,0.9,0.5,1.2c0.2,0.3,0.4,0.5,0.7,0.6
							C115.2,468.2,115.4,468.3,115.7,468.3z"/>
						<path d="M121.7,466.1c0.1,0.7,0.3,1.3,0.7,1.6c0.4,0.4,0.9,0.5,1.6,0.5c0.6,0,1.1-0.2,1.5-0.5c0.3-0.3,0.5-0.7,0.5-1.3
							s-0.2-1-0.5-1.3c-0.3-0.3-0.8-0.5-1.3-0.5h-1.4v-1.2h1c0.5,0,0.9-0.2,1.2-0.5s0.4-0.7,0.4-1.2c0-0.4-0.1-0.8-0.4-1.1
							s-0.7-0.5-1.2-0.5c-0.6,0-1,0.2-1.3,0.5s-0.5,0.9-0.5,1.5h-1.6c0.1-1.1,0.4-1.9,1-2.5c0.6-0.6,1.4-0.8,2.5-0.8
							c0.5,0,1,0.1,1.3,0.2c0.4,0.1,0.7,0.3,1,0.5c0.3,0.2,0.5,0.5,0.6,0.8c0.1,0.3,0.2,0.7,0.2,1.1c0,0.5-0.1,1-0.3,1.3
							c-0.2,0.4-0.5,0.7-1,0.9c0.6,0.2,1,0.6,1.3,1c0.3,0.5,0.5,1,0.5,1.7c0,0.5-0.1,0.9-0.2,1.2s-0.4,0.7-0.7,1
							c-0.3,0.3-0.7,0.5-1.1,0.6c-0.5,0.1-1,0.2-1.6,0.2c-0.6,0-1.2-0.1-1.6-0.2c-0.5-0.2-0.8-0.4-1.1-0.7c-0.3-0.3-0.5-0.7-0.7-1.1
							c-0.2-0.4-0.2-0.9-0.3-1.4H121.7z"/>
						<path d="M132.8,464.3h5.6v1.2h-5.6V464.3z"/>
						<path d="M144.5,468.1h2.3v-7.2l-2.2,1.4l-0.7-1.1l3.3-2.2h1.2v9.1h2v1.3h-5.9V468.1z"/>
						<path d="M153.4,466.3c0.1,0.6,0.3,1.1,0.6,1.5s0.8,0.5,1.4,0.5c0.3,0,0.6-0.1,0.9-0.2c0.3-0.1,0.5-0.3,0.7-0.6
							c0.2-0.3,0.4-0.7,0.5-1.3s0.2-1.2,0.2-2.1c-0.2,0.4-0.5,0.8-1,1c-0.4,0.2-1,0.4-1.6,0.4c-0.4,0-0.9-0.1-1.2-0.2
							s-0.7-0.3-1-0.6c-0.3-0.3-0.5-0.6-0.7-1s-0.2-0.9-0.2-1.4c0-0.5,0.1-1,0.2-1.4s0.4-0.8,0.7-1.1c0.3-0.3,0.7-0.5,1.1-0.7
							s0.9-0.2,1.5-0.2c0.6,0,1.1,0.1,1.5,0.3s0.9,0.5,1.2,0.9s0.6,1,0.7,1.6c0.2,0.7,0.3,1.5,0.3,2.4c0,1.8-0.3,3.2-1,4.1
							c-0.6,0.9-1.6,1.3-2.8,1.3c-1,0-1.8-0.3-2.4-0.9c-0.6-0.6-0.9-1.4-1-2.4H153.4z M155.3,464.3c0.6,0,1.1-0.2,1.4-0.5
							c0.4-0.4,0.5-0.8,0.5-1.4c0-0.3,0-0.6-0.1-0.8c-0.1-0.3-0.2-0.5-0.4-0.7s-0.4-0.3-0.6-0.4c-0.2-0.1-0.5-0.2-0.8-0.2
							c-0.3,0-0.5,0.1-0.8,0.2c-0.2,0.1-0.4,0.2-0.6,0.4s-0.3,0.4-0.4,0.7c-0.1,0.3-0.1,0.5-0.1,0.8c0,0.6,0.2,1.1,0.5,1.5
							S154.7,464.3,155.3,464.3z"/>
						<path d="M161.4,466.1c0.1,0.7,0.3,1.3,0.7,1.6c0.4,0.4,0.9,0.5,1.6,0.5c0.6,0,1.1-0.2,1.5-0.5c0.3-0.3,0.5-0.7,0.5-1.3
							s-0.2-1-0.5-1.3c-0.3-0.3-0.8-0.5-1.3-0.5h-1.4v-1.2h1c0.5,0,0.9-0.2,1.2-0.5s0.4-0.7,0.4-1.2c0-0.4-0.1-0.8-0.4-1.1
							s-0.7-0.5-1.2-0.5c-0.6,0-1,0.2-1.3,0.5s-0.5,0.9-0.5,1.5H160c0.1-1.1,0.4-1.9,1-2.5c0.6-0.6,1.4-0.8,2.5-0.8
							c0.5,0,1,0.1,1.3,0.2c0.4,0.1,0.7,0.3,1,0.5c0.3,0.2,0.5,0.5,0.6,0.8c0.1,0.3,0.2,0.7,0.2,1.1c0,0.5-0.1,1-0.3,1.3
							c-0.2,0.4-0.5,0.7-1,0.9c0.6,0.2,1,0.6,1.3,1c0.3,0.5,0.5,1,0.5,1.7c0,0.5-0.1,0.9-0.2,1.2s-0.4,0.7-0.7,1
							c-0.3,0.3-0.7,0.5-1.1,0.6c-0.5,0.1-1,0.2-1.6,0.2c-0.6,0-1.2-0.1-1.6-0.2c-0.5-0.2-0.8-0.4-1.1-0.7c-0.3-0.3-0.5-0.7-0.7-1.1
							c-0.2-0.4-0.2-0.9-0.3-1.4H161.4z"/>
						<path d="M169.7,466.3c0.1,0.6,0.3,1.1,0.6,1.5s0.8,0.5,1.4,0.5c0.3,0,0.6-0.1,0.9-0.2c0.3-0.1,0.5-0.3,0.7-0.6
							c0.2-0.3,0.4-0.7,0.5-1.3s0.2-1.2,0.2-2.1c-0.2,0.4-0.5,0.8-1,1c-0.4,0.2-1,0.4-1.6,0.4c-0.4,0-0.9-0.1-1.2-0.2
							s-0.7-0.3-1-0.6c-0.3-0.3-0.5-0.6-0.7-1s-0.2-0.9-0.2-1.4c0-0.5,0.1-1,0.2-1.4s0.4-0.8,0.7-1.1c0.3-0.3,0.7-0.5,1.1-0.7
							s0.9-0.2,1.5-0.2c0.6,0,1.1,0.1,1.5,0.3s0.9,0.5,1.2,0.9s0.6,1,0.7,1.6c0.2,0.7,0.3,1.5,0.3,2.4c0,1.8-0.3,3.2-1,4.1
							c-0.6,0.9-1.6,1.3-2.8,1.3c-1,0-1.8-0.3-2.4-0.9c-0.6-0.6-0.9-1.4-1-2.4H169.7z M171.6,464.3c0.6,0,1.1-0.2,1.4-0.5
							c0.4-0.4,0.5-0.8,0.5-1.4c0-0.3,0-0.6-0.1-0.8c-0.1-0.3-0.2-0.5-0.4-0.7s-0.4-0.3-0.6-0.4c-0.2-0.1-0.5-0.2-0.8-0.2
							c-0.3,0-0.5,0.1-0.8,0.2c-0.2,0.1-0.4,0.2-0.6,0.4s-0.3,0.4-0.4,0.7c-0.1,0.3-0.1,0.5-0.1,0.8c0,0.6,0.2,1.1,0.5,1.5
							S171,464.3,171.6,464.3z"/>
						<path d="M183,471.1c-0.3-0.3-0.5-0.7-0.8-1.1s-0.5-0.9-0.7-1.4c-0.2-0.5-0.3-1-0.5-1.6s-0.2-1.2-0.2-1.9
							c0-0.7,0.1-1.3,0.2-1.9s0.3-1.1,0.5-1.6c0.2-0.5,0.4-1,0.7-1.4c0.3-0.4,0.5-0.8,0.8-1.1h1.2c-0.7,1-1.2,1.9-1.5,2.9
							c-0.3,1-0.4,2-0.4,3.1s0.1,2.1,0.4,3.1c0.3,1,0.8,2,1.5,2.9H183z"/>
						<path d="M184.6,465.6l4.2-6.6h1.8v6.7h1.5v1.3h-1.5v2.4H189v-2.4h-4.5V465.6z M189,465.8v-4.8l-3.1,4.8H189z"/>
						<path d="M198.4,466.2c0,0.4,0.1,0.7,0.3,1c0.1,0.3,0.3,0.5,0.5,0.6c0.2,0.2,0.4,0.3,0.7,0.3c0.2,0.1,0.5,0.1,0.8,0.1
							c0.6,0,1.1-0.2,1.5-0.5s0.6-0.9,0.6-1.6c0-0.6-0.2-1.2-0.6-1.6s-0.9-0.6-1.7-0.6c-0.4,0-0.9,0.1-1.3,0.2
							c-0.4,0.1-0.8,0.3-1.2,0.5l-0.3,0l1.2-5.7h5.2v1.3h-4.1l-0.6,2.8c0.2-0.1,0.5-0.1,0.7-0.2c0.3-0.1,0.5-0.1,0.7-0.1
							c0.5,0,1,0.1,1.4,0.2s0.8,0.4,1.1,0.7c0.3,0.3,0.5,0.6,0.7,1s0.2,0.9,0.2,1.4s-0.1,1-0.3,1.4s-0.4,0.8-0.7,1.1
							c-0.3,0.3-0.7,0.5-1.1,0.7c-0.4,0.2-0.9,0.2-1.5,0.2c-0.5,0-1-0.1-1.5-0.2c-0.4-0.1-0.8-0.3-1.1-0.6c-0.3-0.3-0.6-0.6-0.8-1
							s-0.3-0.9-0.3-1.5H198.4z"/>
						<path d="M206.5,466.2c0,0.4,0.1,0.7,0.3,1c0.1,0.3,0.3,0.5,0.5,0.6c0.2,0.2,0.4,0.3,0.7,0.3c0.2,0.1,0.5,0.1,0.8,0.1
							c0.6,0,1.1-0.2,1.5-0.5s0.6-0.9,0.6-1.6c0-0.6-0.2-1.2-0.6-1.6s-0.9-0.6-1.7-0.6c-0.4,0-0.9,0.1-1.3,0.2
							c-0.4,0.1-0.8,0.3-1.2,0.5l-0.3,0l1.2-5.7h5.2v1.3H208l-0.6,2.8c0.2-0.1,0.5-0.1,0.7-0.2c0.3-0.1,0.5-0.1,0.7-0.1
							c0.5,0,1,0.1,1.4,0.2s0.8,0.4,1.1,0.7c0.3,0.3,0.5,0.6,0.7,1s0.2,0.9,0.2,1.4s-0.1,1-0.3,1.4s-0.4,0.8-0.7,1.1
							c-0.3,0.3-0.7,0.5-1.1,0.7c-0.4,0.2-0.9,0.2-1.5,0.2c-0.5,0-1-0.1-1.5-0.2c-0.4-0.1-0.8-0.3-1.1-0.6c-0.3-0.3-0.6-0.6-0.8-1
							s-0.3-0.9-0.3-1.5H206.5z"/>
						<path d="M216.9,469.6c-0.5,0-1-0.1-1.4-0.3s-0.8-0.5-1.2-0.9s-0.6-1-0.8-1.7c-0.2-0.7-0.3-1.5-0.3-2.4s0.1-1.8,0.3-2.4
							c0.2-0.7,0.5-1.2,0.8-1.7s0.7-0.7,1.2-0.9s0.9-0.3,1.4-0.3c0.5,0,1,0.1,1.4,0.3s0.8,0.5,1.2,0.9s0.6,1,0.8,1.7
							c0.2,0.7,0.3,1.5,0.3,2.4s-0.1,1.8-0.3,2.4c-0.2,0.7-0.5,1.2-0.8,1.7s-0.7,0.7-1.2,0.9S217.4,469.6,216.9,469.6z M216.9,468.3
							c0.3,0,0.5-0.1,0.8-0.2c0.3-0.1,0.5-0.3,0.7-0.6c0.2-0.3,0.3-0.7,0.5-1.2s0.2-1.2,0.2-2s-0.1-1.5-0.2-2
							c-0.1-0.5-0.3-0.9-0.5-1.2c-0.2-0.3-0.4-0.5-0.7-0.6s-0.5-0.2-0.8-0.2c-0.3,0-0.5,0.1-0.8,0.2s-0.5,0.3-0.7,0.6
							c-0.2,0.3-0.3,0.7-0.5,1.2c-0.1,0.5-0.2,1.2-0.2,2s0.1,1.5,0.2,2s0.3,0.9,0.5,1.2c0.2,0.3,0.4,0.5,0.7,0.6
							C216.3,468.2,216.6,468.3,216.9,468.3z"/>
						<path d="M226.3,459.1h1.5v6.3l3.1-3.4h1.9l-3.3,3.4l3.6,4.1h-1.9l-3.5-4.1v4.1h-1.5V459.1z"/>
						<path d="M234.7,461.9h1.5v1.2h0c0.2-0.4,0.5-0.7,0.8-1s0.8-0.4,1.3-0.4c0.6,0,1,0.1,1.4,0.4s0.6,0.6,0.7,1h0
							c0.2-0.4,0.5-0.8,0.9-1c0.4-0.2,0.8-0.4,1.4-0.4c0.8,0,1.4,0.2,1.8,0.7c0.4,0.5,0.6,1.1,0.6,2v4.9h-1.5v-4.5
							c0-0.6-0.1-1.1-0.3-1.4s-0.5-0.4-1-0.4c-0.5,0-0.9,0.2-1.2,0.5s-0.5,0.8-0.5,1.5v4.4h-1.5v-4.5c0-0.6-0.1-1.1-0.3-1.4
							s-0.5-0.5-1-0.5c-0.6,0-1,0.2-1.3,0.5s-0.5,0.9-0.5,1.5v4.3h-1.5V461.9z"/>
						<path d="M246.5,471.1c0.7-1,1.2-1.9,1.4-2.9c0.3-1,0.4-2,0.4-3.1s-0.1-2.1-0.4-3.1c-0.3-1-0.8-2-1.4-2.9h1.2
							c0.3,0.3,0.5,0.7,0.8,1.1c0.3,0.4,0.5,0.9,0.7,1.4c0.2,0.5,0.3,1,0.5,1.6s0.2,1.2,0.2,1.9c0,0.7-0.1,1.3-0.2,1.9
							c-0.1,0.6-0.3,1.1-0.5,1.6c-0.2,0.5-0.4,1-0.7,1.4s-0.5,0.8-0.8,1.1H246.5z"/>
					</g>
				</g>
			</g>
		</g>
	</g>
	<g>
		<path id="XMLID_318_" class="st5" d="M138.9,510.2c-4.5,0-8.1-3.7-8.1-8.1c0-4.5,3.7-8.1,8.1-8.1c4.5,0,8.1,3.7,8.1,8.1
			S143.4,510.2,138.9,510.2z"/>
		<g id="XMLID_312_">
			<rect id="XMLID_437_" x="125.7" y="517.2" class="st3" width="26.5" height="24.9"/>
			<g class="st4">
				<path d="M127.8,517.2h1.9c0.4,0,0.7,0.1,1,0.2s0.6,0.3,0.8,0.5c0.2,0.2,0.4,0.5,0.5,0.8c0.1,0.3,0.2,0.7,0.2,1.1
					c0,0.4-0.1,0.7-0.2,1.1s-0.3,0.6-0.5,0.8c-0.2,0.2-0.5,0.4-0.8,0.5c-0.3,0.1-0.6,0.2-1,0.2h-1.9V517.2z M129.7,521.7
					c0.2,0,0.4,0,0.6-0.1c0.2-0.1,0.4-0.2,0.5-0.4c0.1-0.2,0.2-0.4,0.3-0.6c0.1-0.2,0.1-0.5,0.1-0.8c0-0.3,0-0.5-0.1-0.8
					c-0.1-0.2-0.2-0.4-0.3-0.6c-0.1-0.2-0.3-0.3-0.5-0.4s-0.4-0.1-0.6-0.1h-1.1v3.8H129.7z"/>
				<path d="M136.3,521.1c0,0.2-0.1,0.4-0.1,0.5s-0.2,0.3-0.3,0.4c-0.1,0.1-0.3,0.2-0.5,0.3c-0.2,0.1-0.4,0.1-0.7,0.1
					c-0.3,0-0.6,0-0.8-0.1c-0.2-0.1-0.4-0.2-0.5-0.4c-0.1-0.2-0.3-0.4-0.3-0.6c-0.1-0.2-0.1-0.5-0.1-0.8c0-0.3,0-0.6,0.1-0.8
					c0.1-0.2,0.2-0.4,0.3-0.6c0.1-0.2,0.3-0.3,0.5-0.4c0.2-0.1,0.5-0.1,0.8-0.1s0.5,0,0.8,0.1c0.2,0.1,0.4,0.2,0.5,0.4
					c0.1,0.2,0.2,0.4,0.3,0.6c0.1,0.2,0.1,0.5,0.1,0.8v0.1h-2.6c0,0.4,0.1,0.7,0.3,0.9c0.2,0.2,0.4,0.3,0.7,0.3
					c0.3,0,0.5-0.1,0.6-0.2c0.2-0.1,0.3-0.3,0.3-0.6H136.3z M135.6,520.1c0-0.3-0.1-0.5-0.2-0.7c-0.2-0.2-0.4-0.3-0.7-0.3
					c-0.3,0-0.5,0.1-0.7,0.2s-0.3,0.4-0.3,0.7H135.6z M135.1,517.2h0.9l-1,1h-0.6L135.1,517.2z"/>
				<path d="M137.4,518.6h0.7v0.6h0c0.1-0.2,0.3-0.4,0.5-0.5c0.2-0.1,0.4-0.2,0.7-0.2c0.3,0,0.5,0,0.7,0.1c0.2,0.1,0.4,0.2,0.5,0.4
					c0.1,0.2,0.2,0.4,0.3,0.6s0.1,0.5,0.1,0.8c0,0.3,0,0.6-0.1,0.8s-0.2,0.4-0.3,0.6c-0.1,0.2-0.3,0.3-0.5,0.4s-0.4,0.1-0.7,0.1
					c-0.3,0-0.5-0.1-0.7-0.2s-0.3-0.3-0.5-0.5h0v2h-0.7V518.6z M139.1,521.9c0.3,0,0.6-0.1,0.8-0.4c0.2-0.2,0.3-0.6,0.3-1
					c0-0.4-0.1-0.8-0.3-1c-0.2-0.2-0.4-0.4-0.8-0.4c-0.4,0-0.6,0.1-0.8,0.4c-0.2,0.2-0.2,0.6-0.2,1s0.1,0.8,0.2,1
					C138.5,521.8,138.8,521.9,139.1,521.9z"/>
				<path d="M144.1,521.9L144.1,521.9c-0.1,0.2-0.3,0.3-0.5,0.4c-0.2,0.1-0.5,0.2-0.8,0.2c-0.2,0-0.4,0-0.5-0.1
					c-0.1-0.1-0.3-0.1-0.4-0.2s-0.2-0.2-0.2-0.3c0-0.1-0.1-0.2-0.1-0.4c0-0.3,0.1-0.5,0.2-0.6c0.1-0.1,0.3-0.3,0.5-0.3
					c0.2-0.1,0.4-0.1,0.6-0.2c0.2,0,0.4-0.1,0.6-0.1c0.1,0,0.3,0,0.3-0.1s0.1,0,0.2-0.1c0,0,0.1-0.1,0.1-0.1c0,0,0-0.1,0-0.2
					c0-0.2-0.1-0.4-0.2-0.5c-0.1-0.1-0.3-0.2-0.6-0.2c-0.2,0-0.4,0.1-0.6,0.2c-0.1,0.1-0.2,0.3-0.2,0.5h-0.7c0-0.4,0.2-0.7,0.4-1
					c0.2-0.2,0.6-0.3,1.1-0.3c0.5,0,0.9,0.1,1.1,0.4c0.2,0.2,0.4,0.6,0.4,1.1v2.3h-0.7V521.9z M144.1,520.6
					c-0.2,0.1-0.4,0.1-0.6,0.1c-0.2,0-0.4,0.1-0.6,0.1s-0.3,0.1-0.4,0.2s-0.2,0.2-0.2,0.4c0,0.2,0.1,0.3,0.2,0.4
					c0.1,0.1,0.3,0.1,0.5,0.1c0.2,0,0.3,0,0.4-0.1s0.2-0.1,0.3-0.2c0.1-0.1,0.2-0.2,0.2-0.3c0.1-0.1,0.1-0.3,0.1-0.4V520.6z"/>
				<path d="M146,518.6h0.7v0.6h0c0.1-0.2,0.3-0.4,0.4-0.5c0.2-0.1,0.4-0.2,0.6-0.2c0,0,0.1,0,0.1,0c0,0,0.1,0,0.1,0v0.8
					c0,0-0.1,0-0.1,0s-0.1,0-0.2,0c-0.3,0-0.5,0.1-0.7,0.3s-0.3,0.4-0.3,0.7v2.1H146V518.6z"/>
				<path d="M148.8,519.3h-0.5v-0.6h0.5v-1h0.7v1h0.9v0.6h-0.9v2c0,0.2,0,0.3,0.1,0.4c0.1,0.1,0.2,0.1,0.4,0.1c0.1,0,0.1,0,0.2,0
					c0.1,0,0.1,0,0.2,0v0.7c-0.1,0-0.2,0-0.2,0s-0.2,0-0.3,0c-0.4,0-0.6-0.1-0.8-0.3s-0.3-0.5-0.3-0.9V519.3z"/>
			</g>
		</g>
		<path id="XMLID_311_" class="st6" d="M205.4,510.2c-4.5,0-8.1-3.7-8.1-8.1c0-4.5,3.7-8.1,8.1-8.1c4.5,0,8.1,3.7,8.1,8.1
			S209.9,510.2,205.4,510.2z"/>
		<g id="XMLID_307_">
			<rect id="XMLID_395_" x="189.4" y="517.2" class="st3" width="31.9" height="24.9"/>
			<g class="st4">
				<path d="M195.1,517.2h0.8l2,5.2H197l-0.5-1.2h-2.1l-0.5,1.2h-0.9L195.1,517.2z M196.3,520.5l-0.8-2.2l-0.8,2.2H196.3z"/>
				<path d="M198.6,518.6h0.7v0.6h0c0.1-0.2,0.3-0.4,0.4-0.5c0.2-0.1,0.4-0.2,0.6-0.2c0,0,0.1,0,0.1,0c0,0,0.1,0,0.1,0v0.8
					c0,0-0.1,0-0.1,0s-0.1,0-0.2,0c-0.3,0-0.5,0.1-0.7,0.3s-0.3,0.4-0.3,0.7v2.1h-0.7V518.6z"/>
				<path d="M201.4,518.6h0.7v0.6h0c0.1-0.2,0.3-0.4,0.4-0.5c0.2-0.1,0.4-0.2,0.6-0.2c0,0,0.1,0,0.1,0c0,0,0.1,0,0.1,0v0.8
					c0,0-0.1,0-0.1,0s-0.1,0-0.2,0c-0.3,0-0.5,0.1-0.7,0.3s-0.3,0.4-0.3,0.7v2.1h-0.7V518.6z"/>
				<path d="M204.6,518c-0.1,0-0.3,0-0.3-0.1c-0.1-0.1-0.1-0.2-0.1-0.3c0-0.1,0-0.3,0.1-0.3s0.2-0.1,0.3-0.1c0.1,0,0.2,0,0.3,0.1
					s0.1,0.2,0.1,0.3c0,0.1,0,0.2-0.1,0.3C204.9,517.9,204.8,518,204.6,518z M204.2,518.6h0.7v3.7h-0.7V518.6z"/>
				<path d="M205.7,518.6h0.8l1,2.9l1-2.9h0.8l-1.4,3.7h-0.7L205.7,518.6z"/>
				<path d="M213.2,521.1c0,0.2-0.1,0.4-0.1,0.5s-0.2,0.3-0.3,0.4c-0.1,0.1-0.3,0.2-0.5,0.3c-0.2,0.1-0.4,0.1-0.7,0.1
					c-0.3,0-0.6,0-0.8-0.1c-0.2-0.1-0.4-0.2-0.5-0.4c-0.1-0.2-0.3-0.4-0.3-0.6c-0.1-0.2-0.1-0.5-0.1-0.8c0-0.3,0-0.6,0.1-0.8
					c0.1-0.2,0.2-0.4,0.3-0.6c0.1-0.2,0.3-0.3,0.5-0.4c0.2-0.1,0.5-0.1,0.8-0.1s0.5,0,0.8,0.1c0.2,0.1,0.4,0.2,0.5,0.4
					c0.1,0.2,0.2,0.4,0.3,0.6c0.1,0.2,0.1,0.5,0.1,0.8v0.1h-2.6c0,0.4,0.1,0.7,0.3,0.9c0.2,0.2,0.4,0.3,0.7,0.3
					c0.3,0,0.5-0.1,0.6-0.2c0.2-0.1,0.3-0.3,0.3-0.6H213.2z M212.5,520.1c0-0.3-0.1-0.5-0.2-0.7c-0.2-0.2-0.4-0.3-0.7-0.3
					c-0.3,0-0.5,0.1-0.7,0.2s-0.3,0.4-0.3,0.7H212.5z M212,517.2h0.9l-1,1h-0.6L212,517.2z"/>
				<path d="M217.4,521.1c0,0.2-0.1,0.4-0.1,0.5s-0.2,0.3-0.3,0.4c-0.1,0.1-0.3,0.2-0.5,0.3c-0.2,0.1-0.4,0.1-0.7,0.1
					c-0.3,0-0.6,0-0.8-0.1c-0.2-0.1-0.4-0.2-0.5-0.4c-0.1-0.2-0.3-0.4-0.3-0.6c-0.1-0.2-0.1-0.5-0.1-0.8c0-0.3,0-0.6,0.1-0.8
					c0.1-0.2,0.2-0.4,0.3-0.6c0.1-0.2,0.3-0.3,0.5-0.4c0.2-0.1,0.5-0.1,0.8-0.1s0.5,0,0.8,0.1c0.2,0.1,0.4,0.2,0.5,0.4
					c0.1,0.2,0.2,0.4,0.3,0.6c0.1,0.2,0.1,0.5,0.1,0.8v0.1h-2.6c0,0.4,0.1,0.7,0.3,0.9c0.2,0.2,0.4,0.3,0.7,0.3
					c0.3,0,0.5-0.1,0.6-0.2c0.2-0.1,0.3-0.3,0.3-0.6H217.4z M216.7,520.1c0-0.3-0.1-0.5-0.2-0.7c-0.2-0.2-0.4-0.3-0.7-0.3
					c-0.3,0-0.5,0.1-0.7,0.2s-0.3,0.4-0.3,0.7H216.7z"/>
			</g>
		</g>
		<g id="XMLID_293_">
			<rect id="XMLID_393_" x="105.5" y="565.4" class="st3" width="61.4" height="24.9"/>
			<g class="st4">
				<path d="M110.5,569.7c-0.2,0.3-0.5,0.6-0.8,0.7c-0.3,0.2-0.7,0.3-1.2,0.3c-0.4,0-0.7-0.1-1-0.2c-0.3-0.1-0.6-0.3-0.8-0.5
					c-0.2-0.2-0.4-0.5-0.5-0.8c-0.1-0.3-0.2-0.7-0.2-1.1c0-0.4,0.1-0.8,0.2-1.1c0.1-0.3,0.3-0.6,0.5-0.8s0.5-0.4,0.8-0.5
					s0.6-0.2,1-0.2c1,0,1.6,0.4,2.1,1.2l-0.7,0.4c-0.1-0.3-0.3-0.5-0.6-0.6c-0.2-0.1-0.5-0.2-0.8-0.2c-0.2,0-0.5,0-0.7,0.1
					s-0.4,0.2-0.5,0.4c-0.1,0.2-0.2,0.4-0.3,0.6c-0.1,0.2-0.1,0.5-0.1,0.8c0,0.3,0,0.6,0.1,0.8c0.1,0.2,0.2,0.5,0.3,0.6
					c0.1,0.2,0.3,0.3,0.5,0.4c0.2,0.1,0.4,0.1,0.7,0.1c0.3,0,0.5-0.1,0.8-0.2c0.2-0.1,0.4-0.3,0.6-0.5L110.5,569.7z"/>
				<path d="M113.2,570.7c-0.3,0-0.5,0-0.8-0.1s-0.4-0.2-0.6-0.4c-0.2-0.2-0.3-0.4-0.4-0.6c-0.1-0.2-0.1-0.5-0.1-0.8
					c0-0.3,0-0.6,0.1-0.8c0.1-0.2,0.2-0.4,0.4-0.6s0.4-0.3,0.6-0.4c0.2-0.1,0.5-0.1,0.8-0.1s0.5,0,0.8,0.1c0.2,0.1,0.4,0.2,0.6,0.4
					c0.2,0.2,0.3,0.4,0.4,0.6s0.1,0.5,0.1,0.8c0,0.3,0,0.6-0.1,0.8s-0.2,0.4-0.4,0.6c-0.2,0.2-0.4,0.3-0.6,0.4
					C113.8,570.6,113.5,570.7,113.2,570.7z M113.2,570.1c0.4,0,0.6-0.1,0.8-0.4c0.2-0.2,0.3-0.6,0.3-1c0-0.4-0.1-0.8-0.3-1
					c-0.2-0.2-0.5-0.4-0.8-0.4c-0.3,0-0.6,0.1-0.8,0.4c-0.2,0.2-0.3,0.6-0.3,1c0,0.4,0.1,0.7,0.3,1
					C112.6,570,112.9,570.1,113.2,570.1z"/>
				<path d="M116.1,566.9h0.7v0.6h0c0.1-0.2,0.3-0.4,0.5-0.5c0.2-0.1,0.4-0.2,0.8-0.2c0.4,0,0.8,0.1,0.9,0.4c0.2,0.2,0.3,0.6,0.3,1
					v2.5h-0.7v-2.2c0-0.3-0.1-0.5-0.2-0.7c-0.1-0.2-0.3-0.2-0.6-0.2c-0.3,0-0.5,0.1-0.7,0.3c-0.2,0.2-0.3,0.4-0.3,0.8v2.1h-0.7
					V566.9z"/>
				<path d="M120.5,567.5H120v-0.6h0.5v-1h0.7v1h0.9v0.6h-0.9v2c0,0.2,0,0.3,0.1,0.4c0.1,0.1,0.2,0.1,0.4,0.1c0.1,0,0.1,0,0.2,0
					c0.1,0,0.1,0,0.2,0v0.7c-0.1,0-0.2,0-0.2,0s-0.2,0-0.3,0c-0.4,0-0.6-0.1-0.8-0.3s-0.3-0.5-0.3-0.9V567.5z"/>
				<path d="M123,566.9h0.7v0.6h0c0.1-0.2,0.3-0.4,0.4-0.5c0.2-0.1,0.4-0.2,0.6-0.2c0,0,0.1,0,0.1,0c0,0,0.1,0,0.1,0v0.8
					c0,0-0.1,0-0.1,0s-0.1,0-0.2,0c-0.3,0-0.5,0.1-0.7,0.3s-0.3,0.4-0.3,0.7v2.1H123V566.9z"/>
				<path d="M128.9,569.3c0,0.2-0.1,0.4-0.1,0.5s-0.2,0.3-0.3,0.4c-0.1,0.1-0.3,0.2-0.5,0.3c-0.2,0.1-0.4,0.1-0.7,0.1
					c-0.3,0-0.6,0-0.8-0.1c-0.2-0.1-0.4-0.2-0.5-0.4c-0.1-0.2-0.3-0.4-0.3-0.6c-0.1-0.2-0.1-0.5-0.1-0.8c0-0.3,0-0.6,0.1-0.8
					c0.1-0.2,0.2-0.4,0.3-0.6c0.1-0.2,0.3-0.3,0.5-0.4c0.2-0.1,0.5-0.1,0.8-0.1s0.5,0,0.8,0.1c0.2,0.1,0.4,0.2,0.5,0.4
					c0.1,0.2,0.2,0.4,0.3,0.6c0.1,0.2,0.1,0.5,0.1,0.8v0.1h-2.6c0,0.4,0.1,0.7,0.3,0.9c0.2,0.2,0.4,0.3,0.7,0.3
					c0.3,0,0.5-0.1,0.6-0.2c0.2-0.1,0.3-0.3,0.3-0.6H128.9z M128.2,568.4c0-0.3-0.1-0.5-0.2-0.7c-0.2-0.2-0.4-0.3-0.7-0.3
					c-0.3,0-0.5,0.1-0.7,0.2s-0.3,0.4-0.3,0.7H128.2z"/>
				<path d="M129.8,568.1h1.9v0.7h-1.9V568.1z"/>
				<path d="M132.8,565.4h0.7v5.2h-0.7V565.4z"/>
				<path d="M136.9,570.1L136.9,570.1c-0.1,0.2-0.3,0.3-0.5,0.4c-0.2,0.1-0.5,0.2-0.8,0.2c-0.2,0-0.4,0-0.5-0.1
					c-0.1-0.1-0.3-0.1-0.4-0.2s-0.2-0.2-0.2-0.3c0-0.1-0.1-0.2-0.1-0.4c0-0.3,0.1-0.5,0.2-0.6c0.1-0.1,0.3-0.3,0.5-0.3
					c0.2-0.1,0.4-0.1,0.6-0.2c0.2,0,0.4-0.1,0.6-0.1c0.1,0,0.3,0,0.3-0.1s0.1,0,0.2-0.1c0,0,0.1-0.1,0.1-0.1c0,0,0-0.1,0-0.2
					c0-0.2-0.1-0.4-0.2-0.5c-0.1-0.1-0.3-0.2-0.6-0.2c-0.2,0-0.4,0.1-0.6,0.2c-0.1,0.1-0.2,0.3-0.2,0.5h-0.7c0-0.4,0.2-0.7,0.4-1
					c0.2-0.2,0.6-0.3,1.1-0.3c0.5,0,0.9,0.1,1.1,0.4c0.2,0.2,0.4,0.6,0.4,1.1v2.3h-0.7V570.1z M136.9,568.8
					c-0.2,0.1-0.4,0.1-0.6,0.1c-0.2,0-0.4,0.1-0.6,0.1s-0.3,0.1-0.4,0.2s-0.2,0.2-0.2,0.4c0,0.2,0.1,0.3,0.2,0.4
					c0.1,0.1,0.3,0.1,0.5,0.1c0.2,0,0.3,0,0.4-0.1s0.2-0.1,0.3-0.2c0.1-0.1,0.2-0.2,0.2-0.3c0.1-0.1,0.1-0.3,0.1-0.4V568.8z"/>
				<path d="M138.7,568.1h1.9v0.7h-1.9V568.1z"/>
				<path d="M141.7,566.9h0.7v0.6h0c0.1-0.2,0.3-0.4,0.4-0.5c0.2-0.1,0.4-0.2,0.7-0.2c0.3,0,0.5,0.1,0.7,0.2
					c0.2,0.1,0.3,0.3,0.4,0.5h0c0.1-0.2,0.3-0.4,0.5-0.5c0.2-0.1,0.4-0.2,0.7-0.2c0.4,0,0.7,0.1,0.9,0.3c0.2,0.2,0.3,0.6,0.3,1v2.5
					h-0.7v-2.2c0-0.3-0.1-0.6-0.2-0.7c-0.1-0.1-0.3-0.2-0.5-0.2c-0.3,0-0.5,0.1-0.6,0.2c-0.2,0.2-0.2,0.4-0.2,0.7v2.2h-0.7v-2.2
					c0-0.3,0-0.5-0.1-0.7c-0.1-0.2-0.3-0.2-0.5-0.2c-0.3,0-0.5,0.1-0.6,0.3c-0.2,0.2-0.2,0.4-0.2,0.8v2.1h-0.7V566.9z"/>
				<path d="M149.8,570.7c-0.3,0-0.5,0-0.8-0.1s-0.4-0.2-0.6-0.4c-0.2-0.2-0.3-0.4-0.4-0.6c-0.1-0.2-0.1-0.5-0.1-0.8
					c0-0.3,0-0.6,0.1-0.8c0.1-0.2,0.2-0.4,0.4-0.6s0.4-0.3,0.6-0.4c0.2-0.1,0.5-0.1,0.8-0.1s0.5,0,0.8,0.1c0.2,0.1,0.4,0.2,0.6,0.4
					c0.2,0.2,0.3,0.4,0.4,0.6s0.1,0.5,0.1,0.8c0,0.3,0,0.6-0.1,0.8s-0.2,0.4-0.4,0.6c-0.2,0.2-0.4,0.3-0.6,0.4
					C150.3,570.6,150,570.7,149.8,570.7z M149.8,570.1c0.4,0,0.6-0.1,0.8-0.4c0.2-0.2,0.3-0.6,0.3-1c0-0.4-0.1-0.8-0.3-1
					c-0.2-0.2-0.5-0.4-0.8-0.4c-0.3,0-0.6,0.1-0.8,0.4c-0.2,0.2-0.3,0.6-0.3,1c0,0.4,0.1,0.7,0.3,1
					C149.1,570,149.4,570.1,149.8,570.1z"/>
				<path d="M152.6,566.9h0.7v0.6h0c0.1-0.2,0.3-0.4,0.5-0.5c0.2-0.1,0.4-0.2,0.8-0.2c0.4,0,0.8,0.1,0.9,0.4c0.2,0.2,0.3,0.6,0.3,1
					v2.5h-0.7v-2.2c0-0.3-0.1-0.5-0.2-0.7c-0.1-0.2-0.3-0.2-0.6-0.2c-0.3,0-0.5,0.1-0.7,0.3c-0.2,0.2-0.3,0.4-0.3,0.8v2.1h-0.7
					V566.9z"/>
				<path d="M157,567.5h-0.5v-0.6h0.5v-1h0.7v1h0.9v0.6h-0.9v2c0,0.2,0,0.3,0.1,0.4c0.1,0.1,0.2,0.1,0.4,0.1c0.1,0,0.1,0,0.2,0
					c0.1,0,0.1,0,0.2,0v0.7c-0.1,0-0.2,0-0.2,0s-0.2,0-0.3,0c-0.4,0-0.6-0.1-0.8-0.3s-0.3-0.5-0.3-0.9V567.5z"/>
				<path d="M159.5,566.9h0.7v0.6h0c0.1-0.2,0.3-0.4,0.4-0.5c0.2-0.1,0.4-0.2,0.6-0.2c0,0,0.1,0,0.1,0c0,0,0.1,0,0.1,0v0.8
					c0,0-0.1,0-0.1,0s-0.1,0-0.2,0c-0.3,0-0.5,0.1-0.7,0.3s-0.3,0.4-0.3,0.7v2.1h-0.7V566.9z"/>
				<path d="M165.4,569.3c0,0.2-0.1,0.4-0.1,0.5s-0.2,0.3-0.3,0.4c-0.1,0.1-0.3,0.2-0.5,0.3c-0.2,0.1-0.4,0.1-0.7,0.1
					c-0.3,0-0.6,0-0.8-0.1c-0.2-0.1-0.4-0.2-0.5-0.4c-0.1-0.2-0.3-0.4-0.3-0.6c-0.1-0.2-0.1-0.5-0.1-0.8c0-0.3,0-0.6,0.1-0.8
					c0.1-0.2,0.2-0.4,0.3-0.6c0.1-0.2,0.3-0.3,0.5-0.4c0.2-0.1,0.5-0.1,0.8-0.1s0.5,0,0.8,0.1c0.2,0.1,0.4,0.2,0.5,0.4
					c0.1,0.2,0.2,0.4,0.3,0.6c0.1,0.2,0.1,0.5,0.1,0.8v0.1h-2.6c0,0.4,0.1,0.7,0.3,0.9c0.2,0.2,0.4,0.3,0.7,0.3
					c0.3,0,0.5-0.1,0.6-0.2c0.2-0.1,0.3-0.3,0.3-0.6H165.4z M164.7,568.4c0-0.3-0.1-0.5-0.2-0.7c-0.2-0.2-0.4-0.3-0.7-0.3
					c-0.3,0-0.5,0.1-0.7,0.2s-0.3,0.4-0.3,0.7H164.7z"/>
			</g>
		</g>
		<g id="XMLID_286_">
			<polygon id="XMLID_292_" class="st7" points="196.9,557.9 199.7,548.2 202.8,553.8 206.7,542 211.1,551.3 214,547.8 216.4,557.9 
							"/>
			<polygon id="XMLID_290_" class="st8" points="204.4,548.2 206.1,550.5 207.4,548.6 208.5,549.7 210,548.2 206.7,542 			"/>
			<polygon id="XMLID_288_" class="st8" points="198.7,551.9 200.4,554.3 201.7,551.8 199.7,548.2 			"/>
		</g>
		<g id="XMLID_164_">
			<rect id="XMLID_322_" x="188" y="565.4" class="st3" width="37.4" height="24.9"/>
			<g class="st4">
				<path d="M190.1,565.4h1.1l1.4,3l1.4-3h1v5.2h-0.8v-4l-1.4,2.8h-0.6l-1.4-2.8v4h-0.8V565.4z"/>
				<path d="M197.9,570.7c-0.3,0-0.5,0-0.8-0.1s-0.4-0.2-0.6-0.4c-0.2-0.2-0.3-0.4-0.4-0.6c-0.1-0.2-0.1-0.5-0.1-0.8
					c0-0.3,0-0.6,0.1-0.8c0.1-0.2,0.2-0.4,0.4-0.6s0.4-0.3,0.6-0.4c0.2-0.1,0.5-0.1,0.8-0.1s0.5,0,0.8,0.1c0.2,0.1,0.4,0.2,0.6,0.4
					c0.2,0.2,0.3,0.4,0.4,0.6s0.1,0.5,0.1,0.8c0,0.3,0,0.6-0.1,0.8s-0.2,0.4-0.4,0.6c-0.2,0.2-0.4,0.3-0.6,0.4
					C198.4,570.6,198.2,570.7,197.9,570.7z M197.9,570.1c0.4,0,0.6-0.1,0.8-0.4c0.2-0.2,0.3-0.6,0.3-1c0-0.4-0.1-0.8-0.3-1
					c-0.2-0.2-0.5-0.4-0.8-0.4c-0.3,0-0.6,0.1-0.8,0.4c-0.2,0.2-0.3,0.6-0.3,1c0,0.4,0.1,0.7,0.3,1
					C197.3,570,197.5,570.1,197.9,570.1z"/>
				<path d="M200.7,566.9h0.7v0.6h0c0.1-0.2,0.3-0.4,0.5-0.5c0.2-0.1,0.4-0.2,0.8-0.2c0.4,0,0.8,0.1,0.9,0.4c0.2,0.2,0.3,0.6,0.3,1
					v2.5h-0.7v-2.2c0-0.3-0.1-0.5-0.2-0.7c-0.1-0.2-0.3-0.2-0.6-0.2c-0.3,0-0.5,0.1-0.7,0.3c-0.2,0.2-0.3,0.4-0.3,0.8v2.1h-0.7
					V566.9z"/>
				<path d="M205.1,567.5h-0.5v-0.6h0.5v-1h0.7v1h0.9v0.6h-0.9v2c0,0.2,0,0.3,0.1,0.4c0.1,0.1,0.2,0.1,0.4,0.1c0.1,0,0.1,0,0.2,0
					c0.1,0,0.1,0,0.2,0v0.7c-0.1,0-0.2,0-0.2,0s-0.2,0-0.3,0c-0.4,0-0.6-0.1-0.8-0.3s-0.3-0.5-0.3-0.9V567.5z"/>
				<path d="M209.8,570.1L209.8,570.1c-0.1,0.2-0.3,0.3-0.5,0.4c-0.2,0.1-0.5,0.2-0.8,0.2c-0.2,0-0.4,0-0.5-0.1
					c-0.1-0.1-0.3-0.1-0.4-0.2s-0.2-0.2-0.2-0.3c0-0.1-0.1-0.2-0.1-0.4c0-0.3,0.1-0.5,0.2-0.6c0.1-0.1,0.3-0.3,0.5-0.3
					c0.2-0.1,0.4-0.1,0.6-0.2c0.2,0,0.4-0.1,0.6-0.1c0.1,0,0.3,0,0.3-0.1s0.1,0,0.2-0.1c0,0,0.1-0.1,0.1-0.1c0,0,0-0.1,0-0.2
					c0-0.2-0.1-0.4-0.2-0.5c-0.1-0.1-0.3-0.2-0.6-0.2c-0.2,0-0.4,0.1-0.6,0.2c-0.1,0.1-0.2,0.3-0.2,0.5h-0.7c0-0.4,0.2-0.7,0.4-1
					c0.2-0.2,0.6-0.3,1.1-0.3c0.5,0,0.9,0.1,1.1,0.4c0.2,0.2,0.4,0.6,0.4,1.1v2.3h-0.7V570.1z M209.8,568.8
					c-0.2,0.1-0.4,0.1-0.6,0.1c-0.2,0-0.4,0.1-0.6,0.1s-0.3,0.1-0.4,0.2s-0.2,0.2-0.2,0.4c0,0.2,0.1,0.3,0.2,0.4
					c0.1,0.1,0.3,0.1,0.5,0.1c0.2,0,0.3,0,0.4-0.1s0.2-0.1,0.3-0.2c0.1-0.1,0.2-0.2,0.2-0.3c0.1-0.1,0.1-0.3,0.1-0.4V568.8z"/>
				<path d="M215,566.9v0.6h-0.7c0.1,0.1,0.1,0.2,0.2,0.3c0,0.1,0.1,0.2,0.1,0.4c0,0.2,0,0.4-0.1,0.6c-0.1,0.2-0.2,0.3-0.3,0.4
					c-0.1,0.1-0.3,0.2-0.5,0.3s-0.4,0.1-0.6,0.1c-0.3,0-0.5-0.1-0.7-0.2c-0.1,0.1-0.1,0.1-0.2,0.2c0,0-0.1,0.1-0.1,0.2
					c0,0.1,0,0.1,0.1,0.2c0.1,0,0.2,0.1,0.3,0.1c0.1,0,0.3,0,0.5,0c0.2,0,0.3,0,0.5,0c0.2,0,0.4,0,0.5,0.1c0.2,0,0.3,0.1,0.5,0.1
					c0.1,0.1,0.2,0.2,0.3,0.3c0.1,0.1,0.1,0.3,0.1,0.4c0,0.1,0,0.3-0.1,0.4c-0.1,0.1-0.2,0.2-0.3,0.3c-0.1,0.1-0.3,0.2-0.6,0.2
					c-0.2,0.1-0.6,0.1-0.9,0.1c-0.3,0-0.6,0-0.8-0.1c-0.2,0-0.4-0.1-0.5-0.2c-0.1-0.1-0.2-0.2-0.3-0.3c-0.1-0.1-0.1-0.2-0.1-0.3
					c0-0.2,0-0.3,0.1-0.4s0.2-0.2,0.4-0.3c-0.1-0.1-0.2-0.1-0.3-0.2c-0.1-0.1-0.1-0.2-0.1-0.3c0-0.2,0-0.3,0.1-0.4s0.2-0.2,0.4-0.3
					c-0.1-0.1-0.2-0.3-0.3-0.4s-0.1-0.4-0.1-0.6c0-0.2,0-0.4,0.1-0.6c0.1-0.2,0.2-0.3,0.3-0.4c0.1-0.1,0.3-0.2,0.5-0.3
					c0.2-0.1,0.4-0.1,0.6-0.1c0.1,0,0.2,0,0.3,0c0.1,0,0.2,0,0.2,0.1H215z M214.3,571.1c0-0.1-0.1-0.2-0.2-0.3
					c-0.1-0.1-0.3-0.1-0.5-0.1s-0.4,0-0.6,0c-0.2,0-0.5,0-0.7-0.1c-0.1,0.1-0.2,0.2-0.2,0.3c0,0.1-0.1,0.1-0.1,0.2
					c0,0.2,0.1,0.3,0.3,0.4c0.2,0.1,0.5,0.1,0.9,0.1c0.4,0,0.7,0,0.8-0.1C214.2,571.3,214.3,571.2,214.3,571.1z M213.1,569
					c0.2,0,0.4-0.1,0.6-0.2c0.1-0.1,0.2-0.4,0.2-0.6c0-0.3-0.1-0.5-0.2-0.6c-0.1-0.1-0.3-0.2-0.6-0.2s-0.4,0.1-0.6,0.2
					c-0.1,0.1-0.2,0.4-0.2,0.6c0,0.3,0.1,0.5,0.2,0.6C212.7,569,212.9,569,213.1,569z"/>
				<path d="M216,566.9h0.7v0.6h0c0.1-0.2,0.3-0.4,0.5-0.5c0.2-0.1,0.4-0.2,0.8-0.2c0.4,0,0.8,0.1,0.9,0.4c0.2,0.2,0.3,0.6,0.3,1
					v2.5h-0.7v-2.2c0-0.3-0.1-0.5-0.2-0.7c-0.1-0.2-0.3-0.2-0.6-0.2c-0.3,0-0.5,0.1-0.7,0.3c-0.2,0.2-0.3,0.4-0.3,0.8v2.1H216V566.9
					z"/>
				<path d="M223.5,569.3c0,0.2-0.1,0.4-0.1,0.5s-0.2,0.3-0.3,0.4c-0.1,0.1-0.3,0.2-0.5,0.3c-0.2,0.1-0.4,0.1-0.7,0.1
					c-0.3,0-0.6,0-0.8-0.1c-0.2-0.1-0.4-0.2-0.5-0.4c-0.1-0.2-0.3-0.4-0.3-0.6c-0.1-0.2-0.1-0.5-0.1-0.8c0-0.3,0-0.6,0.1-0.8
					c0.1-0.2,0.2-0.4,0.3-0.6c0.1-0.2,0.3-0.3,0.5-0.4c0.2-0.1,0.5-0.1,0.8-0.1s0.5,0,0.8,0.1c0.2,0.1,0.4,0.2,0.5,0.4
					c0.1,0.2,0.2,0.4,0.3,0.6c0.1,0.2,0.1,0.5,0.1,0.8v0.1h-2.6c0,0.4,0.1,0.7,0.3,0.9c0.2,0.2,0.4,0.3,0.7,0.3
					c0.3,0,0.5-0.1,0.6-0.2c0.2-0.1,0.3-0.3,0.3-0.6H223.5z M222.8,568.4c0-0.3-0.1-0.5-0.2-0.7c-0.2-0.2-0.4-0.3-0.7-0.3
					c-0.3,0-0.5,0.1-0.7,0.2s-0.3,0.4-0.3,0.7H222.8z"/>
			</g>
		</g>
		<g>
			<line class="st9" x1="143.4" y1="542.7" x2="145.6" y2="540.5"/>
			<line class="st9" x1="134.6" y1="542.7" x2="132.4" y2="540.5"/>
			<g id="XMLID_162_">
				<circle id="XMLID_163_" class="st10" cx="139.1" cy="549.8" r="8.1"/>
			</g>
			<polyline class="st11" points="138.5,547 138.5,550.5 141.2,553.8 			"/>
			<line class="st9" x1="139" y1="542" x2="139" y2="539"/>
		</g>
	</g>
</g>
<g>
	<g id="XMLID_1989_">
		<path id="XMLID_2022_" class="st12" d="M210.6,315.3c0,0,42.6,7.3,62.2,51.8"/>
		<g id="XMLID_1986_">
			<circle id="XMLID_1988_" class="st5" cx="202.5" cy="313.1" r="8.1"/>
			<polygon id="XMLID_1987_" class="st1" points="201.3,310 201.3,316.3 205.7,313.1 			"/>
		</g>
		<path id="XMLID_2030_" class="st12" d="M287.4,371.9c8.8,6.6,12.5,16.9,13.6,25.3"/>
		<g id="XMLID_487_">
			<path id="XMLID_337_" class="st6" d="M279.3,363.8c-4.5,0-8.1,3.6-8.1,8.1s3.6,8.1,8.1,8.1"/>
			<path id="XMLID_336_" class="st5" d="M279.3,380c4.5,0,8.1-3.6,8.1-8.1s-3.6-8.1-8.1-8.1"/>
		</g>
		<path id="XMLID_486_" class="st12" d="M343.1,475.2c0,0,14.1,19.2,14,63.6"/>
		<path id="XMLID_1214_" class="st12" d="M316.2,412.7c-1.1-1.7-2.4-3.3-4.1-4.8"/>
		<path id="XMLID_1213_" class="st12" d="M320.1,431.4c0,0,0.6-3.1,0.1-7.3"/>
		<g id="XMLID_2024_">
			<path id="XMLID_335_" class="st6" d="M308.4,392.5c-4.5,0-8.1,3.6-8.1,8.1s3.6,8.1,8.1,8.1"/>
			<path id="XMLID_334_" class="st5" d="M308.4,408.7c4.5,0,8.1-3.6,8.1-8.1s-3.6-8.1-8.1-8.1"/>
		</g>
		<path id="XMLID_485_" class="st12" d="M317.7,636.3c0,0,51-33.5,51-87.4"/>
		<g id="XMLID_483_">
			<path id="XMLID_339_" class="st6" d="M361.2,537.7c-4.5,0-8.1,3.6-8.1,8.1s3.6,8.1,8.1,8.1"/>
			<path id="XMLID_338_" class="st5" d="M361.2,553.9c4.5,0,8.1-3.6,8.1-8.1s-3.6-8.1-8.1-8.1"/>
		</g>
		<path id="XMLID_482_" class="st12" d="M364.1,664.4c0,0,1.8,17,25.6,19"/>
		<g id="XMLID_479_">
			<polygon id="XMLID_1976_" class="st7" points="362.7,680.8 365.5,671.1 368.6,676.8 372.4,665 376.8,674.2 379.7,670.8 
				382.2,680.8 			"/>
			<polygon id="XMLID_481_" class="st8" points="370.1,671.1 371.9,673.4 373.1,671.6 374.2,672.7 375.8,671.1 372.4,665 			"/>
			<polygon id="XMLID_480_" class="st8" points="364.4,674.9 366.1,677.3 367.5,674.8 365.5,671.1 			"/>
		</g>
		<path id="XMLID_2470_" class="st12" d="M444.9,642.4c0,0,45.3,4,57.8,51"/>
		<path id="XMLID_2557_" class="st12" d="M539.8,639.2c-22.1,9.6-28.6,30.6-25.1,54.2"/>
		<g id="XMLID_2511_">
			<path id="XMLID_341_" class="st6" d="M509,691.1c-4.5,0-8.1,3.6-8.1,8.1s3.6,8.1,8.1,8.1"/>
			<path id="XMLID_340_" class="st5" d="M509,707.3c4.5,0,8.1-3.6,8.1-8.1s-3.6-8.1-8.1-8.1"/>
		</g>
		<path id="XMLID_2565_" class="st12" d="M594.9,614.1c16.5,4.1,23.8,12.6,28.6,29.2"/>
		<path id="XMLID_2581_" class="st12" d="M663.7,657.7c0,0,10.3-23.9,35.6-28.2"/>
		<path id="XMLID_2624_" class="st12" d="M672.1,553.9c0,0,1.1,44.9,45.6,54.6"/>
		<path id="XMLID_477_" class="st12" d="M681.5,540.8c0,0-2.3-9.1-18.6-1.7c-19,8.5-49.6,2.2-52.9-19.6"/>
		<g id="XMLID_2629_">
			<path id="XMLID_331_" class="st6" d="M678.1,540.4c-4.5,0-8.1,3.6-8.1,8.1s3.6,8.1,8.1,8.1"/>
			<path id="XMLID_330_" class="st5" d="M678.1,556.6c4.5,0,8.1-3.6,8.1-8.1s-3.6-8.1-8.1-8.1"/>
		</g>
		<g id="XMLID_473_">
			<polygon id="XMLID_476_" class="st7" points="627.8,548 630.6,538.3 633.7,543.9 637.5,532.2 641.9,541.4 644.8,538 647.3,548 
							"/>
			<polygon id="XMLID_475_" class="st8" points="635.3,538.3 637,540.6 638.2,538.7 639.3,539.8 640.9,538.3 637.5,532.2 			"/>
			<polygon id="XMLID_474_" class="st8" points="629.5,542 631.2,544.5 632.6,541.9 630.6,538.3 			"/>
		</g>
		<path id="XMLID_472_" class="st12" d="M626.2,523.5c29,9.9,40.9-9.9,26.3-24.2"/>
		<g id="XMLID_2623_">
			<path id="XMLID_333_" class="st6" d="M618.1,511.3c-4.5,0-8.1,3.6-8.1,8.1s3.6,8.1,8.1,8.1"/>
			<path id="XMLID_332_" class="st5" d="M618.1,527.5c4.5,0,8.1-3.6,8.1-8.1s-3.6-8.1-8.1-8.1"/>
		</g>
		<path id="XMLID_471_" class="st12" d="M600.2,486.8c33.1-20.7,47.9,0.5,73.9-12.5"/>
		<g id="XMLID_467_">
			<polygon id="XMLID_470_" class="st7" points="616.6,481.3 619.4,471.5 622.5,477.2 626.4,465.4 630.8,474.6 633.7,471.2 
				636.1,481.3 			"/>
			<polygon id="XMLID_469_" class="st8" points="624.1,471.5 625.8,473.8 627.1,472 628.1,473.1 629.7,471.5 626.4,465.4 			"/>
			<polygon id="XMLID_468_" class="st8" points="618.3,475.3 620.1,477.7 621.4,475.2 619.4,471.5 			"/>
		</g>
		<path id="XMLID_466_" class="st12" d="M648.7,459.9c0,0-1.7-38.8,30.6-66.4"/>
		<path id="XMLID_465_" class="st12" d="M713.5,308.7c0,0-26.7,21.1-24.7,71.8"/>
		<g id="XMLID_462_">
			<path id="XMLID_329_" class="st6" d="M684.7,379.4c-4.5,0-8.1,3.6-8.1,8.1s3.6,8.1,8.1,8.1"/>
			<path id="XMLID_328_" class="st5" d="M684.7,395.6c4.5,0,8.1-3.6,8.1-8.1s-3.6-8.1-8.1-8.1"/>
		</g>
		<path id="XMLID_461_" class="st12" d="M659.9,292.8c0,0-46.2-0.9-69.7-36.8"/>
		<path id="XMLID_460_" class="st12" d="M495.9,173c30.8,23.2,41.3,57.8,82.7,71.3"/>
		<g id="XMLID_457_">
			<path id="XMLID_325_" class="st6" d="M584.9,258c4.5,0,8.1-3.6,8.1-8.1s-3.6-8.1-8.1-8.1"/>
			<path id="XMLID_324_" class="st5" d="M584.9,241.7c-4.5,0-8.1,3.6-8.1,8.1c0,4.5,3.6,8.1,8.1,8.1"/>
		</g>
		<path id="XMLID_456_" class="st12" d="M418.9,258.5c70.2,5.1,86.6-40.7,86.6-40.7"/>
		<path id="XMLID_455_" class="st12" d="M330.7,259.1c2.9,49.9,53,62.1,75.2,5.6"/>
		<g id="XMLID_452_">
			<path id="XMLID_327_" class="st6" d="M410.8,266.6c4.5,0,8.1-3.6,8.1-8.1s-3.6-8.1-8.1-8.1"/>
			<path id="XMLID_326_" class="st5" d="M410.8,250.4c-4.5,0-8.1,3.6-8.1,8.1s3.6,8.1,8.1,8.1"/>
		</g>
		<path id="XMLID_451_" class="st12" d="M487.7,293c2.8,2.9,4.4,6.2,4.4,9.9"/>
		<path id="XMLID_1217_" class="st12" d="M374.4,282.7c28.6-9.1,79.1-8.1,103.6,3.7"/>
		<path id="XMLID_450_" class="st13" d="M324.7,438.8c0,0,13.3,2.6,13.3,22.1"/>
		<path id="XMLID_449_" class="st13" d="M321.1,642.9c0,0,19.1-5.2,32,9.8"/>
		<path id="XMLID_448_" class="st13" d="M397.8,675.3c0,0,6.4-24.8,31.3-30.6"/>
		<path id="XMLID_447_" class="st13" d="M556.1,639.2c0,0,20-3.9,24.8-19.6"/>
		<path id="XMLID_294_" class="st13" d="M631.7,651.4c0,0,15.2-0.9,20.6,13.6"/>
		<path id="XMLID_226_" class="st13" d="M707.5,621.4c0,0,0.9-7.1,8.5-7.8"/>
		<path id="XMLID_194_" class="st13" d="M637.3,492.1c0,0-13.6-5.3-32.8-2"/>
		<path id="XMLID_186_" class="st13" d="M662.6,470.1c0,0,5.2,3.3,10.7,0.5"/>
		<path id="XMLID_179_" class="st13" d="M713.5,296.7c0,0-14.1-9.4-37.3-3.9"/>
		<path id="XMLID_165_" class="st13" d="M334.7,258c0,0,4,20.7,23.5,24.7"/>
		<path id="XMLID_1666_" class="st5" d="M337.9,477.1c-4.5,0-8.1-3.6-8.1-8.1s3.6-8.1,8.1-8.1s8.1,3.6,8.1,8.1
			S342.4,477.1,337.9,477.1z"/>
		<path id="XMLID_1617_" class="st6" d="M316.5,446.9c-4.5,0-8.1-3.6-8.1-8.1s3.6-8.1,8.1-8.1s8.1,3.6,8.1,8.1
			S321,446.9,316.5,446.9z"/>
		<path id="XMLID_1616_" class="st6" d="M313,651c-4.5,0-8.1-3.6-8.1-8.1s3.6-8.1,8.1-8.1s8.1,3.6,8.1,8.1S317.4,651,313,651z"/>
		<path id="XMLID_1657_" class="st5" d="M358.2,667c-4.5,0-8.1-3.6-8.1-8.1s3.6-8.1,8.1-8.1s8.1,3.6,8.1,8.1S362.7,667,358.2,667z"
			/>
		<path id="XMLID_1615_" class="st6" d="M397.8,691.5c-4.5,0-8.1-3.6-8.1-8.1s3.6-8.1,8.1-8.1s8.1,3.6,8.1,8.1
			S402.3,691.5,397.8,691.5z"/>
		<path id="XMLID_1614_" class="st6" d="M548,647.4c-4.5,0-8.1-3.6-8.1-8.1s3.6-8.1,8.1-8.1s8.1,3.6,8.1,8.1S552.4,647.4,548,647.4z
			"/>
		<path id="XMLID_1656_" class="st5" d="M586.8,622.2c-4.5,0-8.1-3.6-8.1-8.1s3.6-8.1,8.1-8.1s8.1,3.6,8.1,8.1
			S591.2,622.2,586.8,622.2z"/>
		<path id="XMLID_1613_" class="st6" d="M623.5,659.5c-4.5,0-8.1-3.6-8.1-8.1s3.6-8.1,8.1-8.1s8.1,3.6,8.1,8.1
			S628,659.5,623.5,659.5z"/>
		<path id="XMLID_1655_" class="st5" d="M660.3,673.1c-4.5,0-8.1-3.6-8.1-8.1s3.6-8.1,8.1-8.1s8.1,3.6,8.1,8.1
			S664.8,673.1,660.3,673.1z"/>
		<path id="XMLID_1612_" class="st6" d="M707.5,637.7c-4.5,0-8.1-3.6-8.1-8.1s3.6-8.1,8.1-8.1s8.1,3.6,8.1,8.1
			S711.9,637.7,707.5,637.7z"/>
		<path id="XMLID_1654_" class="st5" d="M724.1,621.8c-4.5,0-8.1-3.6-8.1-8.1s3.6-8.1,8.1-8.1s8.1,3.6,8.1,8.1
			S728.5,621.8,724.1,621.8z"/>
		<path id="XMLID_1611_" class="st6" d="M645.6,503.1c-4.5,0-8.1-3.6-8.1-8.1s3.6-8.1,8.1-8.1s8.1,3.6,8.1,8.1
			S650.1,503.1,645.6,503.1z"/>
		<path id="XMLID_1652_" class="st5" d="M596.4,502.1c-4.5,0-8.1-3.6-8.1-8.1s3.6-8.1,8.1-8.1s8.1,3.6,8.1,8.1
			S600.9,502.1,596.4,502.1z"/>
		<path id="XMLID_1610_" class="st6" d="M681.4,478.7c-4.5,0-8.1-3.6-8.1-8.1s3.6-8.1,8.1-8.1s8.1,3.6,8.1,8.1
			S685.9,478.7,681.4,478.7z"/>
		<path id="XMLID_1649_" class="st5" d="M654.5,474.3c-4.5,0-8.1-3.6-8.1-8.1s3.6-8.1,8.1-8.1s8.1,3.6,8.1,8.1
			S658.9,474.3,654.5,474.3z"/>
		<path id="XMLID_1609_" class="st6" d="M719.9,311.1c-4.5,0-8.1-3.6-8.1-8.1s3.6-8.1,8.1-8.1s8.1,3.6,8.1,8.1
			S724.4,311.1,719.9,311.1z"/>
		<path id="XMLID_1625_" class="st5" d="M668,300.9c-4.5,0-8.1-3.6-8.1-8.1s3.6-8.1,8.1-8.1s8.1,3.6,8.1,8.1S672.5,300.9,668,300.9z
			"/>
		<path id="XMLID_1455_" class="st6" d="M490.5,175.1c-4.5,0-8.1-3.6-8.1-8.1s3.6-8.1,8.1-8.1s8.1,3.6,8.1,8.1
			S494.9,175.1,490.5,175.1z"/>
		<path id="XMLID_1624_" class="st5" d="M366.3,290.8c-4.5,0-8.1-3.6-8.1-8.1s3.6-8.1,8.1-8.1s8.1,3.6,8.1,8.1
			S370.8,290.8,366.3,290.8z"/>
		<g id="XMLID_94_">
			<polygon id="XMLID_149_" class="st7" points="650.1,523.6 652.9,513.9 656,519.5 659.9,507.8 664.3,517 667.2,513.6 669.6,523.6 
							"/>
			<polygon id="XMLID_132_" class="st8" points="657.6,513.9 659.3,516.2 660.6,514.4 661.6,515.5 663.2,513.9 659.9,507.8 			"/>
			<polygon id="XMLID_124_" class="st8" points="651.9,517.6 653.6,520.1 654.9,517.5 652.9,513.9 			"/>
		</g>
		<path id="XMLID_1620_" class="st5" d="M510.9,219.9c-4.5,0-8.1-3.6-8.1-8.1s3.6-8.1,8.1-8.1c4.5,0,8.1,3.6,8.1,8.1
			S515.4,219.9,510.9,219.9z"/>
		<path id="XMLID_1619_" class="st6" d="M330.7,259.1c-4.5,0-8.1-3.6-8.1-8.1s3.6-8.1,8.1-8.1s8.1,3.6,8.1,8.1
			C338.9,255.4,335.2,259.1,330.7,259.1z"/>
		<path id="XMLID_1618_" class="st5" d="M436.8,650.5c-4.5,0-8.1-3.6-8.1-8.1s3.6-8.1,8.1-8.1s8.1,3.6,8.1,8.1
			S441.3,650.5,436.8,650.5z"/>
		<path id="XMLID_1452_" class="st6" d="M497.2,306.4h8.3v-22.2h-26.9v22.2h8.3v-10.5c0-2.8,2.3-5.2,5.2-5.2s5.2,2.3,5.2,5.2
			L497.2,306.4z"/>
		<g>
			<line class="st9" x1="327.6" y1="409.5" x2="329.8" y2="407.4"/>
			<line class="st9" x1="318.8" y1="409.5" x2="316.6" y2="407.4"/>
			<g id="XMLID_1181_">
				<circle id="XMLID_1183_" class="st10" cx="323.3" cy="416.6" r="8.1"/>
			</g>
			<polyline class="st11" points="322.5,415 322.5,417.4 325.2,421.2 			"/>
			<line class="st9" x1="323" y1="409" x2="323" y2="407"/>
		</g>
	</g>
</g>
<g>
	<path class="st14" d="M224.6,279.9c-3.8-1.6-7.3-0.8-10.9-0.1c-3.4,0.7-6.6,1.4-9.8,0.1c-0.3-0.1-0.9-0.1-1.2,0.1
		c-0.3,0.2-0.7,0.5-0.7,0.8v14c0,0.1,0,0.2,0,0.3v10c0,0.6,0.4,1,1,1s1-0.4,1-1v-8.5c2,0.3,2.6,0.5,3.7,0.5c2.1,0,4.3-0.4,6.4-0.9
		c3.4-0.7,6.7-1.4,9.9-0.1c0.3,0.1,0.5,0.1,0.7-0.1c0.3-0.2,0.3-0.5,0.3-0.8v-14.4C225,280.4,225,280.1,224.6,279.9z M223,293.8
		c-3-0.9-6.6-0.2-9.7,0.4c-3.2,0.7-6.3,1.3-9.3,0.3v-12.3c3,0.9,6.6,0.2,9.7-0.4c3.2-0.7,6.3-1.3,9.3-0.3V293.8z"/>
</g>
</svg>
