<?xml version="1.0" encoding="utf-8"?>
<!-- Generator: Adobe Illustrator 19.0.0, SVG Export Plug-In . SVG Version: 6.00 Build 0)  -->
<svg version="1.1" id="Calque_1" xmlns="http://www.w3.org/2000/svg" xmlns:xlink="http://www.w3.org/1999/xlink" x="0px" y="0px"
	 viewBox="0 0 770 802" style="enable-background:new 0 0 770 802;" xml:space="preserve">
<style type="text/css">
	.st0{fill:#EBB7A5;stroke:#F4D7CB;stroke-linecap:round;stroke-linejoin:round;stroke-miterlimit:10;}
	.st1{fill:none;stroke:#1D1D1B;stroke-width:5;stroke-linecap:round;stroke-linejoin:round;}
	.st2{fill:#3C63AA;stroke:#1D1D1B;stroke-width:2;}
	.st3{fill:#FFFFFF;}
	.st4{fill:none;stroke:#FFFFFF;stroke-width:5;}
	.st5{fill:#C32121;stroke:#1D1D1B;stroke-width:2;}
	.st6{fill:none;stroke:#1D1D1B;stroke-width:5;stroke-dasharray:4,4,4;}
	.st7{fill:#FFFFFF;stroke:#1D1D1B;stroke-width:2;stroke-linecap:round;stroke-linejoin:round;}
	.st8{fill:#1D1D1B;}
	.st9{fill:none;stroke:#1D1D1B;stroke-dasharray:4,4,4;}
	.st10{fill:#C32121;stroke:#1D1D1B;stroke-width:2;stroke-linecap:round;stroke-linejoin:round;}
</style>
<polygon id="Suisse_4_" class="st0" points="761.1,414.9 750.9,422.4 742.1,413.6 727.7,410.6 725.2,399 730.8,389 729.1,383.6
	724.8,380.4 716.2,373.7 705.9,372.5 698.4,374 692.1,371 686.5,366.1 680.5,367.2 674.6,372.6 676.7,374.5 684.1,376.3
	678.3,378.6 678.2,378.9 677.2,381.1 666.3,378.7 655.8,383.8 638.3,384.5 635.3,388.9 634.9,388.9 631.6,392.2 623,392.2
	620.5,388.5 619.9,388.9 615.3,389.8 618.3,397.1 618.3,397.1 618.3,397.1 618.2,397.1 618.2,397.1 601.5,419 600.1,420.8
	591.5,424.7 592.5,435.2 592.5,435.2 592.5,435.2 578.7,449.3 577.5,458.7 582.3,460.4 579.5,469.3 572.9,471.3 573,475.5
	580.1,475.6 587.4,470.2 584.8,466.2 584.8,466.2 584.8,466.2 588.9,460.6 591.6,462.5 608.1,458.6 612.2,468.7 612.2,468.7
	612.2,468.7 609.7,471.3 620.3,484.5 620.1,488.7 620,489.6 622.2,491.6 624,492.2 634.9,490.7 646.5,484.6 657.3,488.3
	657.3,488.3 670.4,470.4 666.9,465.2 681.8,451.5 682.7,465.3 695.7,473.3 718,450.7 751.7,454.6 753.9,436.4 769.3,423.1
	769.3,414.9 768.5,414.9 "/>
<g id="XMLID_1236_">
	<polygon id="FRANCE_9_" class="st0" points="656.7,610.7 656.7,610.7 655.5,597.8 638.6,601.6 619.4,588.4 618.2,580.4
		619.2,579.5 623.1,575.6 623,569.2 622.7,568.9 626.9,565.1 626.9,565 623,556.3 612.1,553.6 605.4,540.6 605.4,540.6 616.8,539.4
		626.7,531.8 629.4,521.1 629.4,521.1 610.6,496.5 610.6,496.5 612.4,494.5 619.8,491.5 620,489.6 620.1,488.7 620.3,484.5
		609.7,471.3 609.7,471.3 612.2,468.6 612.2,468.6 608.1,458.6 591.6,462.5 588.9,460.6 584.8,466.2 584.8,466.2 587.4,470.2
		580.1,475.6 573,475.5 572.9,471.3 579.5,469.2 582.3,460.4 577.5,458.7 578.7,449.3 592.5,435.2 592.5,435.2 591.5,424.7
		591.5,424.7 600.1,420.8 601.5,419 618.4,397.1 618.5,397.1 618.5,397.1 615.4,389.8 619.9,388.9 620.5,388.5 623,392.2
		631.6,392.2 635.7,388.7 638.2,381.1 633.8,374.2 638.8,356.6 636.4,346.5 642.3,335.4 645.1,313 650.8,308.9 661.5,291.9
		649.1,286.8 636.1,287.5 629.1,280.9 623.5,280.7 620.4,283.5 612.9,283.6 606.6,278.8 602.5,278.8 601.6,281.8 597.5,282.2
		590.3,266.9 582.4,263.6 576.5,261.2 573,261.4 564.1,263.8 557.4,258.9 544.3,261.3 539.1,257.5 537.1,252.2 519.1,244.5
		518.7,221.5 514.5,221.5 510.2,231.5 500.1,235.9 492.9,233.5 488.5,233.5 488,231.9 492.3,228.7 492,216.9 484.1,209.6
		471.9,210.2 470.6,212.3 469,212.3 469.4,204.7 461.7,199.1 457.4,201 452.8,199 451.8,187.4 447.9,182.6 439.6,184.5 434.3,187.7
		432,183.1 429.8,180.7 425.4,178.3 427,172.1 423.2,163.1 404.8,168.1 392.7,170.3 382.9,177.6 382.6,208.1 373.7,227.1
		362.8,235.9 326.1,248.6 319.6,262.5 329.3,267.4 306.4,276.6 298.9,272.4 279.8,269.7 275.7,267.6 270.2,269 262.3,257.4
		266.5,254.3 264.6,248.5 253.4,248.5 248.9,250.6 236.2,244.4 235.3,246.3 239.9,249.9 239.9,263.8 247.9,278.3 250.4,297.6
		247.7,303.3 255.7,313.4 249.3,315.6 238.6,315.5 237.3,309.5 232,309.3 229.9,311.6 216,310 199.6,316.9 195,313.1 186.4,295.5
		163.5,296.8 162.1,305 152.6,303.1 150.4,305.5 140.1,301.7 114.2,309.2 111.3,323.3 125.1,322.4 134.2,327.9 120.4,325.6
		116.7,327.6 131,334.8 130.2,339.3 112.9,340 112.8,342.9 120.7,344.7 126.3,355.7 126,359 134.4,359.5 135.5,355.8 146.8,361.8
		161.5,364.1 176.3,377.1 190.4,384.5 204.4,387.8 199.6,397.9 214.5,400.5 214.5,406.5 211.9,409.4 218.6,410.6 223.8,414.7
		216.6,423.5 216.4,428.7 229,449.9 258,464.8 255.6,471.3 243.1,463.6 238.1,466.7 261.9,480.5 259,491.5 255,489.5 246.8,479.1
		246.3,486.8 251.3,490.5 252.8,503.2 272.7,518.6 274.3,527 276.5,538.7 275,541.2 270.2,524.5 259.1,517 257.9,511.2 255.5,512.1
		254.5,520.4 247.4,568.7 252.9,561.9 259.6,570.1 259.1,573.5 251.4,573.5 247.5,578 247.4,581.9 235.2,633.9 231.9,639.1
		225.8,646.4 216.5,648.4 216.5,652.3 235.5,658.5 234.8,665.1 232,666.7 238,673.1 240.1,668.2 258.6,678 262.9,678.1 263.1,678.1
		265.9,678.1 265.9,678.1 265.9,678.1 266.3,682.7 272.8,688.4 273.4,689 273.4,689 286.2,685.7 293.2,690.5 299.2,696.8
		308.2,693.8 314.1,698.2 320.3,696.6 332.1,697.8 332.5,687 341.1,690 350.8,693.9 354.5,700.5 362.5,700.5 367.6,704.4 379,703.1
		384.5,712 391.5,714.2 391.5,717.9 397.6,720.6 401.4,716.8 406,716.8 417.4,724.5 425.5,724.5 434.5,715 441.3,713.4 444.7,716.2
		448.7,717.5 448.8,711.7 444.7,707.5 443.7,689.1 443.9,676.4 439.1,673.3 440.9,670.4 445.1,673.5 450.4,666.9 486.9,644.3
		491,644.6 493.2,649.2 501,649.1 517.1,650.3 514.1,654.3 524.4,658.3 530.2,656.5 527.6,651.6 533,652.4 536.8,656.6 550.9,656.1
		553.1,664 567.5,668 573.7,674.4 581.1,670.7 589.1,671.5 599,670.2 613.8,662.2 612.7,655.7 625.1,644.8 633.5,639.2 633.7,632.4
		638.8,632 651.3,623.4 651.3,623.4 651.9,612.2 	"/>
	<g id="XMLID_2034_">
		<g id="XMLID_810_">
			<g id="XMLID_1481_">
				<path id="etape1_2_" class="st1" d="M124.2,315.3c0,0,52,10.1,76.8,60.2"/>
				<g id="Brest" class="hover">
					<circle id="XMLID_1938_" class="st2" cx="124.2" cy="315.3" r="8.1"/>
					<polygon id="XMLID_1931_" class="st3" points="123,312.1 123,318.4 127.5,315.3 					"/>
				</g>
				<path id="XMLID_1922_" class="st4" d="M238.3,440.9c0,0,8.6-22.7-8.2-38.1"/>
				<path id="etape2_2_" class="st1" d="M201.1,375.5c13.9-14,44.4,1.9,29.1,27.3"/>
				<g id="Vannes" class="hover">
					<path id="XMLID_1920_" class="st5" d="M193,374.1c0,4.5,3.6,8.1,8.1,8.1V366C196.6,366,193,369.6,193,374.1z"/>
					<path id="XMLID_1919_" class="st2" d="M201.1,366v16.2c4.5,0,8.1-3.6,8.1-8.1C209.2,369.6,205.6,366,201.1,366z"/>
				</g>
				<path id="etape4_2_" class="st1" d="M259.7,471.1c0,0,25.2,13.1,23.3,76.8"/>
				<path id="etape3_2_" class="st6" d="M238.3,440.9c0,0,8.6-22.7-8.2-38.1"/>
				<g id="Nantes_1_" class="hover">
					<path id="XMLID_1915_" class="st5" d="M222,402.8c0,4.5,3.6,8.1,8.1,8.1v-16.2C225.7,394.7,222,398.3,222,402.8z"/>
					<path id="XMLID_1913_" class="st2" d="M230.1,394.7v16.2c4.5,0,8.1-3.6,8.1-8.1C238.2,398.3,234.6,394.7,230.1,394.7z"/>
				</g>
				<path id="etape5_2_" class="st1" d="M234.7,645.1c0,0,22.6-50.6,48.3-97.1"/>
				<g id="Bordeaux_1_" class="hover">
					<path id="XMLID_1910_" class="st5" d="M274.9,548c0,4.5,3.6,8.1,8.1,8.1v-16.2C278.5,539.9,274.9,543.5,274.9,548z"/>
					<path id="XMLID_1909_" class="st2" d="M283,539.9v16.2c4.5,0,8.1-3.6,8.1-8.1C291.1,543.5,287.5,539.9,283,539.9z"/>
				</g>
				<path id="etape6_2_" class="st1" d="M280,661c0,0,3.9,28.5,39.6,24.6"/>
				<g id="XMLID_1899_">
					<polygon id="XMLID_1906_" class="st7" points="282.9,689.6 285.7,679.9 288.7,685.6 292.6,673.8 297,683 299.9,679.6
						302.3,689.6 					"/>
					<polygon id="XMLID_1901_" class="st8" points="290.3,679.9 292.1,682.2 293.3,680.4 294.4,681.5 295.9,679.9 292.6,673.8
						"/>
					<polygon id="XMLID_1900_" class="st8" points="284.6,683.7 286.3,686.1 287.7,683.6 285.7,679.9 					"/>
				</g>
				<path id="etape7_2_" class="st1" d="M358.6,644.5c0,0,47.5,7.2,72.2,56.8"/>
				<path id="etape8_2_" class="st1" d="M469.7,641.4c-18.4,3.7-42.4,27-38.9,59.9"/>
				<g id="Perpignan_1_" class="hover">
					<path id="XMLID_1896_" class="st5" d="M422.7,701.3c0,4.5,3.6,8.1,8.1,8.1v-16.2C426.3,693.2,422.7,696.9,422.7,701.3z"/>
					<path id="XMLID_1895_" class="st2" d="M430.8,693.2v16.2c4.5,0,8.1-3.6,8.1-8.1C438.9,696.9,435.3,693.2,430.8,693.2z"/>
				</g>
				<path id="etape9_2_" class="st1" d="M508.5,616.2c15.3-2.2,38.5,15.4,36.8,37.3"/>
				<path id="etape10_2_" class="st1" d="M582.1,667.1c0,0,17.3-33.6,47.1-35.4"/>
				<path id="etape11_2_" class="st1" d="M600.1,550.6c0,0-6.5,46.5,45.7,65.2"/>
				<path id="etape12_2_" class="st1" d="M600.1,550.6c0,0-42.8,14.9-60.3-27.6"/>
				<g id="Briançon_1_" class="hover">
					<path id="XMLID_1889_" class="st5" d="M591.7,550.6c0,4.5,3.6,8.1,8.1,8.1v-16.2C595.4,542.5,591.7,546.2,591.7,550.6z"/>
					<path id="XMLID_1888_" class="st2" d="M599.8,542.5v16.2c4.5,0,8.1-3.6,8.1-8.1C608,546.2,604.3,542.5,599.8,542.5z"/>
				</g>
				<g id="XMLID_1883_">
					<polygon id="XMLID_1886_" class="st7" points="554.3,554.4 557.1,544.7 560.2,550.3 564,538.6 568.4,547.8 571.3,544.3
						573.7,554.4 					"/>
					<polygon id="XMLID_1885_" class="st8" points="561.7,544.7 563.5,547 564.7,545.1 565.8,546.2 567.3,544.7 564,538.6 					"/>
					<polygon id="XMLID_1884_" class="st8" points="556,548.4 557.7,550.8 559.1,548.3 557.1,544.7 					"/>
				</g>
				<path id="etape13_2_" class="st1" d="M539.8,523.1c33.2,20.4,68.3-10.1,27.6-26"/>
				<g id="Grenoble_1_" class="hover">
					<path id="XMLID_1881_" class="st5" d="M531.8,521.6c0,4.5,3.6,8.1,8.1,8.1v-16.2C535.4,513.5,531.8,517.1,531.8,521.6z"/>
					<path id="XMLID_1880_" class="st2" d="M539.9,513.5v16.2c4.5,0,8.1-3.6,8.1-8.1C548,517.1,544.4,513.5,539.9,513.5z"/>
				</g>
				<path id="etape14_2_" class="st1" d="M518.2,490.1c33.2-17.8,57.3,3.4,85-17.4"/>
				<g id="XMLID_1753_">
					<polygon id="XMLID_1877_" class="st7" points="538.4,483.4 541.2,473.7 544.3,479.4 548.1,467.6 552.5,476.8 555.4,473.4
						557.9,483.4 					"/>
					<polygon id="XMLID_1876_" class="st8" points="545.9,473.7 547.6,476 548.8,474.2 549.9,475.3 551.5,473.7 548.1,467.6
						"/>
					<polygon id="XMLID_1866_" class="st8" points="540.1,477.5 541.8,479.9 543.2,477.4 541.2,473.7 					"/>
				</g>
				<path id="etape15_2_" class="st1" d="M576.2,468.3c0,0-2-51,30.3-78.6"/>
				<path id="etape16_2_" class="st1" d="M641.7,305.1c0,0-41.1,32.7-35.2,84.6"/>
				<g id="Belfort_1_">
					<path id="XMLID_1646_" class="st5" d="M598.4,389.7c0,4.5,3.6,8.1,8.1,8.1v-16.2C602,381.6,598.4,385.2,598.4,389.7z"/>
					<path id="XMLID_1537_" class="st2" d="M606.5,381.6v16.2c4.5,0,8.1-3.6,8.1-8.1C614.6,385.2,611,381.6,606.5,381.6z"/>
				</g>
				<path id="etape17_2_" class="st1" d="M589.8,295c0,0-55-2-83.1-43"/>
				<path id="etape18_2_" class="st1" d="M412.2,169.2c27,10.1,53.3,81.4,94.5,82.8"/>
				<g id="Charleville_Mézières" class="hover">
					<path id="XMLID_1530_" class="st5" d="M514.8,252c0-4.5-3.6-8.1-8.1-8.1v16.2C511.2,260.1,514.8,256.5,514.8,252z"/>
					<path id="XMLID_1529_" class="st2" d="M506.7,260.1v-16.2c-4.5,0-8.1,3.6-8.1,8.1C498.6,256.5,502.2,260.1,506.7,260.1z"/>
				</g>
				<path id="etape19_2_" class="st1" d="M332.5,260.7c70.2,5.1,100.1-46.8,100.1-46.8"/>
				<path id="etape20_2_" class="st1" d="M252.5,253.1c-5.8,55.4,55.8,85.6,80,7.6"/>
				<g id="Le_Havre_1_">
					<path id="XMLID_1525_" class="st5" d="M340.6,260.7c0-4.5-3.6-8.1-8.1-8.1v16.2C337,268.8,340.6,265.2,340.6,260.7z"/>
					<path id="XMLID_1524_" class="st2" d="M332.5,268.8v-16.2c-4.5,0-8.1,3.6-8.1,8.1C324.4,265.2,328.1,268.8,332.5,268.8z"/>
				</g>
				<path id="etape21" class="st1" d="M288.1,284.8c32.1-4.1,125.8-6.1,125.8,20.3"/>
				<path id="XMLID_1521_" class="st9" d="M238.3,440.9c0,0,21.9,8.1,21.4,30.2"/>
				<path id="XMLID_1520_" class="st9" d="M234.7,645.1c0,0,31.3-5.8,45.2,15.9"/>
				<path id="XMLID_1519_" class="st9" d="M319.6,685.6c0,0,9.5-34.7,39-41"/>
				<path id="XMLID_1518_" class="st9" d="M469.7,641.4c0,0,32.4-5.2,38.8-25.2"/>
				<path id="XMLID_1517_" class="st9" d="M545.3,653.6c0,0,27.1-6.1,36.8,13.6"/>
				<path id="XMLID_1516_" class="st9" d="M629.2,631.7c0,0-5-24.1,16.6-15.9"/>
				<path id="XMLID_1515_" class="st9" d="M567.4,497.1c0,0-13.3-9.2-49.2-7"/>
				<path id="XMLID_1514_" class="st9" d="M576.2,468.3c0,0,18.1,6.8,26.9,4.4"/>
				<path id="XMLID_1513_" class="st9" d="M641.7,305.1c0,0-16-16.2-51.8-10.1"/>
				<path id="XMLID_1512_" class="st9" d="M252.5,253.1c0,0,8.4,33.3,35.6,31.7"/>
				<path id="La_Rochelle_1_" class="st2" d="M259.7,479.3c-4.5,0-8.1-3.6-8.1-8.1s3.6-8.1,8.1-8.1s8.1,3.6,8.1,8.1
					S264.2,479.3,259.7,479.3z"/>
				<path id="Les_Sables_d_x27_Olonne" class="st5" d="M238.3,449.1c-4.5,0-8.1-3.6-8.1-8.1s3.6-8.1,8.1-8.1s8.1,3.6,8.1,8.1
					S242.8,449.1,238.3,449.1z"/>
				<path id="Bayonne_1_" class="st5" d="M234.7,653.2c-4.5,0-8.1-3.6-8.1-8.1s3.6-8.1,8.1-8.1s8.1,3.6,8.1,8.1
					S239.2,653.2,234.7,653.2z"/>
				<path id="Pau_1_" class="st2" d="M280,669.1c-4.5,0-8.1-3.6-8.1-8.1s3.6-8.1,8.1-8.1s8.1,3.6,8.1,8.1S284.5,669.1,280,669.1z"/>
				<path id="Bagnères_de_Luchon_1_" class="st5" d="M319.6,693.7c-4.5,0-8.1-3.6-8.1-8.1s3.6-8.1,8.1-8.1s8.1,3.6,8.1,8.1
					S324.1,693.7,319.6,693.7z"/>
				<path id="Montpellier_1_" class="st5" d="M469.7,649.5c-4.5,0-8.1-3.6-8.1-8.1s3.6-8.1,8.1-8.1s8.1,3.6,8.1,8.1
					S474.2,649.5,469.7,649.5z"/>
				<path id="Nîmes_1_" class="st2" d="M508.5,624.4c-4.5,0-8.1-3.6-8.1-8.1s3.6-8.1,8.1-8.1s8.1,3.6,8.1,8.1
					S513,624.4,508.5,624.4z"/>
				<path id="Marseille_1_" class="st5" d="M545.3,661.7c-4.5,0-8.1-3.6-8.1-8.1s3.6-8.1,8.1-8.1s8.1,3.6,8.1,8.1
					S549.8,661.7,545.3,661.7z"/>
				<path id="Toulon" class="st2" d="M582.1,675.3c-4.5,0-8.1-3.6-8.1-8.1s3.6-8.1,8.1-8.1s8.1,3.6,8.1,8.1S586.6,675.3,582.1,675.3
					z"/>
				<path id="Cannes" class="st5" d="M629.2,639.9c-4.5,0-8.1-3.6-8.1-8.1s3.6-8.1,8.1-8.1s8.1,3.6,8.1,8.1S633.7,639.9,629.2,639.9
					z"/>
				<path id="Nice_1_" class="st2" d="M645.8,623.9c-4.5,0-8.1-3.6-8.1-8.1s3.6-8.1,8.1-8.1s8.1,3.6,8.1,8.1
					S650.3,623.9,645.8,623.9z"/>
				<path id="Aix-les-Bains_1_" class="st5" d="M567.4,505.2c-4.5,0-8.1-3.6-8.1-8.1s3.6-8.1,8.1-8.1s8.1,3.6,8.1,8.1
					S571.9,505.2,567.4,505.2z"/>
				<path id="Lyon_1_" class="st2" d="M518.2,498.3c-4.5,0-8.1-3.6-8.1-8.1s3.6-8.1,8.1-8.1s8.1,3.6,8.1,8.1
					S522.7,498.3,518.2,498.3z"/>
				<path id="Evian" class="st5" d="M603.2,480.9c-4.5,0-8.1-3.6-8.1-8.1s3.6-8.1,8.1-8.1s8.1,3.6,8.1,8.1S607.7,480.9,603.2,480.9z
					"/>
				<path id="Genève" class="st2" d="M576.2,476.4c-4.5,0-8.1-3.6-8.1-8.1s3.6-8.1,8.1-8.1s8.1,3.6,8.1,8.1
					S580.7,476.4,576.2,476.4z"/>
				<path id="Strasbourg_1_" class="st5" d="M641.7,313.2c-4.5,0-8.1-3.6-8.1-8.1s3.6-8.1,8.1-8.1s8.1,3.6,8.1,8.1
					S646.2,313.2,641.7,313.2z"/>
				<path id="Metz_1_" class="st2" d="M589.8,303.1c-4.5,0-8.1-3.6-8.1-8.1s3.6-8.1,8.1-8.1s8.1,3.6,8.1,8.1
					S594.3,303.1,589.8,303.1z"/>
				<path id="Dunkerque_1_" class="st5" d="M412.2,177.3c-4.5,0-8.1-3.6-8.1-8.1s3.6-8.1,8.1-8.1s8.1,3.6,8.1,8.1
					S416.7,177.3,412.2,177.3z"/>
				<path id="Caen_1_" class="st2" d="M288.1,293c-4.5,0-8.1-3.6-8.1-8.1s3.6-8.1,8.1-8.1s8.1,3.6,8.1,8.1S292.5,293,288.1,293z"/>
				<g id="XMLID_1489_">
					<polygon id="XMLID_1492_" class="st7" points="575.2,521.4 578,511.7 581.1,517.3 584.9,505.6 589.3,514.8 592.2,511.4
						594.7,521.4 					"/>
					<polygon id="XMLID_1491_" class="st8" points="582.7,511.7 584.4,514 585.6,512.1 586.7,513.2 588.3,511.7 584.9,505.6
						"/>
					<polygon id="XMLID_1490_" class="st8" points="576.9,515.4 578.6,517.9 580,515.3 578,511.7 					"/>
				</g>
				<path id="Lille_1_" class="st2" d="M432.7,222.1c-4.5,0-8.1-3.6-8.1-8.1s3.6-8.1,8.1-8.1s8.1,3.6,8.1,8.1
					S437.2,222.1,432.7,222.1z"/>
				<path id="Cherbourg_1_" class="st5" d="M252.5,261.3c-4.5,0-8.1-3.6-8.1-8.1s3.6-8.1,8.1-8.1s8.1,3.6,8.1,8.1
					S257,261.3,252.5,261.3z"/>
				<path id="Toulouse_1_" class="st2" d="M358.6,652.7c-4.5,0-8.1-3.6-8.1-8.1s3.6-8.1,8.1-8.1s8.1,3.6,8.1,8.1
					S363.1,652.7,358.6,652.7z"/>
				<path id="Paris_3_" class="st10" d="M419,308.5h8.3v-22.2h-26.9v22.2h8.3V298c0-2.8,2.3-5.2,5.2-5.2c2.8,0,5.2,2.3,5.2,5.2
					L419,308.5z"/>
			</g>
		</g>
	</g>
</g>
</svg>
