<?xml version="1.0" encoding="utf-8"?>
<!-- Generator: Adobe Illustrator 19.1.0, SVG Export Plug-In . SVG Version: 6.00 Build 0)  -->
<svg version="1.1" id="Calque_1" xmlns="http://www.w3.org/2000/svg" xmlns:xlink="http://www.w3.org/1999/xlink" x="0px" y="0px"
	 viewBox="158 -8 769 801" style="enable-background:new 158 -8 769 801;" xml:space="preserve">
<style type="text/css">
	.st0{fill:#EDE6D8;stroke:#FFFFFF;stroke-miterlimit:10;}
	.st1{fill:#FFFFFF;}
	.st2{fill:none;stroke:#FFFFFF;stroke-miterlimit:10;}
	.st3{fill:#FFFFFF;stroke:#EDE6D8;stroke-miterlimit:10;}
	.st4{fill:none;}
	.st5{enable-background:new    ;}
	.st6{fill:none;stroke:#00A5AC;stroke-width:2;}
	.st7{fill:none;stroke:#E61E49;stroke-width:2;}
	.st8{fill:#FFFFFF;stroke:#1D1D1B;stroke-width:2;stroke-linecap:round;stroke-linejoin:round;}
	.st9{fill:#1D1D1B;}
	.st10{fill:none;stroke:#000000;stroke-width:2;stroke-linecap:round;stroke-linejoin:round;}
	.st11{fill:none;stroke:#000000;stroke-width:2;}
	.st12{fill:none;stroke:#000000;stroke-linecap:round;stroke-linejoin:round;}
	.st13{fill:#00A5AC;}
	.st14{fill:none;stroke:#1D1D1B;stroke-width:2;stroke-linecap:round;stroke-linejoin:round;}
	.st15{fill:none;stroke:#1D1D1B;stroke-width:2;}
	.st16{fill:none;stroke:#1D1D1B;stroke-width:2;stroke-dasharray:4,4,4;}
	.st17{fill:none;stroke:#00A5AC;stroke-width:2;stroke-linecap:round;stroke-linejoin:round;}
	.st18{fill:none;stroke:#00A5AC;stroke-linecap:round;stroke-linejoin:round;}
</style>
<g>
	<g id="XMLID_373_">
		<g id="XMLID_374_">
			<rect id="XMLID_375_" x="158.9" y="-7.5" class="st0" width="767.3" height="800"/>
		</g>
	</g>
	<g>
		<polygon id="France_27_" class="st1" points="813.7,602.7 813.7,602.7 812.5,589.8 795.6,593.6 776.4,580.4 775.2,572.5 
			776.2,571.5 780.1,567.7 780,561.2 779.7,560.9 783.9,557.1 783.9,557.1 780,548.3 769.1,545.6 762.4,532.6 762.4,532.6 
			773.8,531.5 783.7,523.9 786.4,513.2 786.4,513.2 767.6,488.6 767.6,488.6 769.4,486.5 776.8,483.5 777,481.7 777.1,480.7 
			777.3,476.5 766.7,463.3 766.7,463.3 769.2,460.7 769.2,460.7 765.1,450.6 748.6,454.5 745.9,452.6 741.8,458.3 741.8,458.3 
			744.4,462.2 737.1,467.6 730,467.5 729.9,463.3 736.5,461.3 739.3,452.5 734.5,450.7 735.7,441.4 749.5,427.2 749.5,427.2 
			748.5,416.7 748.5,416.7 757.1,412.9 758.5,411 775.1,389.2 775,389.2 775,389.2 772.1,381.8 776.8,380.9 777.5,380.6 780,384.2 
			788.6,384.3 792.7,380.8 795.2,373.1 790.8,366.3 795.8,348.6 793.4,338.5 799.3,327.4 802.1,305 807.8,301 818.5,284 
			806.1,278.9 793.1,279.6 786.1,272.9 780.5,272.7 777.4,275.5 769.9,275.7 763.6,270.8 759.5,270.9 758.6,273.8 754.5,274.2 
			747.3,258.9 739.4,255.6 733.5,253.2 730,253.4 721.1,255.8 714.4,250.9 701.3,253.3 696.1,249.5 694.1,244.2 676.1,236.8 
			675.7,214 671.5,214 667.2,223.8 657.1,228.1 649.9,225.6 645.5,225.5 645,224 649.3,220.8 649,208.9 641.1,201.6 628.9,202.2 
			627.6,204.4 626,204.4 626.4,196.7 618.7,191.2 614.4,193.1 609.8,191.1 608.8,179.5 604.9,174.6 596.6,176.5 591.3,179.7 
			589,175.1 586.8,172.7 582.4,170.3 584,164.2 580.2,155.1 561.8,160.1 549.7,162.3 539.9,169.7 539.6,200.1 530.7,219.1 
			519.8,228 483.1,240.6 476.6,254.5 486.3,259.4 463.4,268.7 455.9,264.4 436.8,261.7 432.7,259.7 427.2,261 419.3,249.5 
			423.5,246.6 421.6,241 410.4,241 405.9,242.9 393.2,236.6 392.3,238.4 396.9,242 396.9,255.9 404.9,270.4 407.4,289.7 
			404.7,295.3 412.7,305.4 406.3,307.6 395.6,307.5 394.3,301.6 389,301.3 386.9,303.7 373,302 356.6,309 352,305.2 343.4,287.6 
			320.5,288.9 319.1,297 309.6,295.2 307.4,297.6 297.1,293.7 271.2,301.2 268.3,315.4 282.1,314.4 291.2,319.9 277.4,317.7 
			273.7,319.6 288,326.8 287.2,331.3 269.9,332 269.8,334.9 277.7,336.7 283.3,347.7 283,351 291.4,351.5 292.5,347.8 303.8,353.8 
			318.5,356.1 333.3,369.1 347.4,376.5 361.4,379.8 356.4,390 371,392.5 371,398.5 368.6,401.4 375.5,402.7 380.8,406.8 
			373.5,415.5 373.4,420.7 386,441.9 415,456.8 412.6,463.3 400.1,455.7 395.1,458.8 418.9,472.6 416,483.5 412,481.5 403.8,471.1 
			403.3,478.8 408.3,482.6 409.8,495.2 429.7,510.6 431.3,519 433.5,530.7 432,533.2 427.2,516.5 416.1,509.1 414.9,503.2 
			412.5,504.1 411.5,512.5 404.4,560.7 409.9,554 416.6,562.4 416.1,566 408.4,566 404.5,570.3 404.4,574 392.2,626 388.9,631.2 
			382.5,638.5 373,640.4 373,644.3 392.3,650.5 391.7,657.2 389,658.7 394.9,665.1 397.1,660.2 415.5,670.1 419.9,670.1 420.1,670 
			422.9,670 422.9,670 422.9,670 423.3,674.7 429.8,680.4 430.4,681 430.4,681 443.2,677.7 450.2,682.5 456.2,688.8 465.2,685.8 
			471.1,690.2 477.3,688.7 489.1,689.8 489.5,679 498.1,682 507.8,686.2 511.5,693 519.5,693 524.6,696.6 536,695.3 541.5,704.1 
			548.5,706.3 548.5,710 554.6,712.7 558.4,708.9 563,709.1 574.4,717 582.5,717 591.5,707.3 598.3,705.6 601.7,708.3 605.7,709.5 
			605.8,703.7 601.7,699.5 600.7,681.2 600.9,668.5 596.1,665.3 597.9,662.4 602.1,665.6 607.4,658.9 643.9,636.3 648,636.7 
			650.2,641.2 658,641.2 674.1,642.3 671.1,646.4 681.4,650.3 687.2,648.5 684.6,643.6 690,644.4 693.8,648.6 707.9,648.2 
			710.1,656 724.5,660 730.7,666.4 738.1,662.7 746.1,663.6 756,662.3 770.8,654.2 769.7,647.7 782.1,636.8 790.5,631.2 
			790.7,624.4 795.8,624.1 808.3,615.4 808.3,615.4 808.9,604.2 		"/>
		<g id="XMLID_372_">
			<polygon id="Royaume-Uni_12_" class="st2" points="366,-1.5 356.1,0.9 326.1,3.1 312.9,16.5 297.3,28.3 301.1,30.2 319.9,25.6 
				322.2,50.4 317.6,66.5 280.9,76.3 268.5,85.4 270.4,96.4 279.4,104.8 302.3,98.6 308.5,111.8 325.6,108.2 329.4,118.2 
				350.2,123.7 357.8,116.2 383.5,104.3 361.4,123.7 356.9,136.5 332.4,133.7 307.7,134.4 292.6,151.5 268.1,179.5 239.9,195.7 
				261.5,205.7 280.8,186.3 300.6,187.2 325.2,201 337.9,176.5 364.4,176.5 371.8,178.7 391,175.1 424,167.4 442.2,170.9 
				486.2,175.1 514.6,163.9 533.7,149.5 536.8,134 510.6,135.3 494,129.4 515,122 517.3,112.1 527.4,106.7 543.1,90.5 545.3,78.8 
				550.3,56.1 535.3,38.6 516.1,35.5 504,33.2 497,45.6 486.9,37.8 482.3,37.6 497.2,20.7 492.1,7 481.9,-7.5 366.2,-7.5 			"/>
			<polygon id="Irlande_12_" class="st2" points="158.5,70 176,63.3 199.6,60.4 210.7,56.5 229.2,60.9 248,17 248.9,1.3 245.5,-2.3 
				242.5,-7.5 158.5,-7.5 			"/>
			<polygon id="Espagne_12_" class="st2" points="598.3,705.5 591.5,707 582.5,716.5 574.4,716.5 563,708.8 558.4,708.9 
				554.6,712.6 548.5,710 548.5,706.3 541.3,703.7 529.5,707.7 524.5,701 524.6,696.4 519.5,692.5 511.5,692.5 507.8,685.9 
				498.1,682 489.5,679 489.1,689.8 477.3,688.7 471.1,690.3 465.2,685.8 456.2,688.8 450.2,682.5 443.2,677.7 430.4,680.7 
				430.4,680.5 430.4,680.5 429.8,680.2 423.3,674.6 422.9,670.1 422.9,670.1 420.2,670.1 419.9,670.1 415.6,670.1 397.1,660.2 
				395,665.1 389,658.7 391.8,657.2 392.5,650.5 373.5,644.3 373.5,640.4 360.4,644 343.5,640.8 329,632.7 316.2,640.2 297.7,629 
				280.2,625.3 263.7,630.3 220.3,622.9 204.7,614.6 180.8,610.1 158.5,609.7 158.5,792.5 525.6,792.5 548.5,785.2 607.9,744 
				604.1,723.5 611.5,721 605.7,709.5 601.7,708.2 			"/>
			<polygon id="Allemagne_13_" class="st2" points="763.8,13.6 763.8,13.6 761.4,48.3 760.5,49.5 758,52.8 757.8,52.8 757.7,52.8 
				748.2,52.2 745.3,62.9 756.5,63.5 756.9,65.2 759.9,78.2 746.5,89.4 750.9,97.9 734.4,104.8 734.4,104.8 734.4,104.8 
				725.6,100.9 717.8,105.4 733,132 731.6,135.8 730,139.6 724,154.8 724.6,166.9 724.6,166.9 721.8,173.9 731.8,184.8 731.8,184.8 
				731.5,185.4 730.2,189.1 735.8,192.7 737.9,200.1 727.9,213.2 725.5,220.7 731.9,228.4 744.9,233.3 746.3,240.2 738.3,251.4 
				739.4,255.6 747.3,258.9 754.5,274.2 758.6,273.8 759.5,270.9 763.6,270.8 769.9,275.7 777.4,275.5 780.5,272.7 786.1,272.9 
				793.1,279.6 806.1,278.9 818.5,284 807.8,301 802.1,305 799.3,327.4 793.4,338.5 795.8,348.6 790.8,366.3 795.2,373.1 
				792.7,380.8 795.3,376.6 812.8,375.8 823.3,370.7 834.2,373.2 835.2,370.9 835.3,370.6 841.1,368.4 833.7,366.6 831.6,364.6 
				837.5,359.2 843.5,358.1 849.1,363 855.4,366 862.9,364.6 873.2,365.7 888.1,370.3 890.1,366.6 905.5,379 905.5,381.4 
				905.5,384.9 919.2,374.9 919.9,366.3 926,366.2 926.5,366.2 926.5,-7.5 761.8,-7.5 752.8,4.8 753,5.1 			"/>
			<polygon id="Italie_12_" class="st2" points="926.5,415.1 911,428.5 908.8,446.6 875,442.7 852.7,465.4 839.7,457.3 838.8,443.5 
				823.9,457.3 827.4,462.4 814.3,480.3 803.5,476.7 791.9,482.8 781,484.2 779.2,483.7 777,481.7 776.8,483.5 769.4,486.5 
				767.6,488.6 786.4,513.2 786.4,513.2 786.4,513.2 783.7,523.9 773.8,531.5 762.4,532.6 769.1,545.6 780,548.3 783.9,557.1 
				783.9,557.1 779.7,560.9 780,561.2 780.1,567.7 776.2,571.5 775.2,572.5 776.4,580.4 795.6,593.6 812.5,589.8 813.7,602.7 
				813.7,602.7 808.9,604.2 808.3,615.4 815,617.5 833.6,610.5 849.1,585.5 861.7,573.2 888.9,579.4 925.1,594.9 926.5,596.4 			"/>
			<polygon id="Autriche_12_" class="st2" points="919.9,366.3 919.2,374.9 905.5,384.9 905.5,381.4 905.5,379 890.1,366.6 
				888.2,370.3 873.2,365.7 881.8,372.4 886.1,375.6 887.8,381 882.2,391 895.7,393 899.1,405.6 907.9,414.2 918.1,406.5 
				925.5,406.5 926.5,406.5 926.5,366.2 926,366.2 			"/>
			<polygon id="Liechtenstein_12_" class="st2" points="899.1,405.6 895.7,393 882.2,391 884.7,402.7 			"/>
			<polygon id="Pays-Bas_13_" class="st2" points="648.9,136.7 661.8,130.3 671.1,133.2 682.4,130.3 689.4,142.4 698.1,141.1 
				698.1,141.1 698.1,141.1 714.5,149.1 709.2,174.8 721.8,173.9 721.8,173.9 721.8,173.9 721.8,173.9 724.6,166.9 724.6,166.9 
				724,154.8 730,139.6 731.6,135.8 733,132 717.8,105.4 725.6,100.9 725.6,100.9 734.4,104.8 734.4,104.8 750.9,97.9 746.5,89.4 
				759.9,78.2 756.9,65.2 756.5,63.5 745.3,62.9 748.2,52.2 748.2,52.2 757.8,52.8 758,52.8 760.5,49.5 761.4,48.3 763.8,13.6 
				763.8,13.6 753,5.3 752.8,5.1 752.4,4.7 749.2,2.3 739.5,3.1 718.4,6.6 697.5,15 692.5,27.6 676,40.3 673.1,35.5 667.3,34.5 
				659.1,76.3 645.2,96.3 629.7,113.2 616.7,126.3 620.7,133.7 637.2,137.6 			"/>
			<polygon id="Belgique_12_" class="st3" points="582.4,170.3 586.8,172.7 589,175.1 591.3,179.7 596.6,176.5 604.9,174.6 
				608.8,179.5 609.8,191.1 614.4,193.1 618.7,191.2 626.4,196.7 626,204.4 627.6,204.4 628.9,202.2 641.1,201.6 649,208.9 
				649.3,220.8 645,224 645.5,225.5 649.9,225.6 657.1,228.1 667.2,224 671.5,214.5 675.7,214.5 676.1,237 694.1,244.3 696.1,249.6 
				701.3,253.3 714.4,250.9 718.4,248.6 717.9,245.9 711.5,229.1 722.7,210.2 727.9,213.2 737.9,200.1 735.8,192.7 730.1,189.1 
				731.5,185.4 731.8,184.8 721.8,173.9 721.8,173.9 709.2,174.8 709.2,174.8 714.5,149.1 698.1,141.1 698.1,141.1 689.4,142.4 
				682.4,130.3 671.1,133.2 661.8,130.3 648.9,136.7 637.2,137.6 620.7,133.7 606.7,137.3 575.5,153.1 575.5,156.2 579.8,155.1 
				583.8,164.2 			"/>
			<polygon id="Luxembourg_14_" class="st2" points="746.3,240.2 744.9,233.3 731.9,228.4 725.5,220.7 727.9,213.2 722.7,210.2 
				711.5,229.1 717.9,245.9 718.4,248.6 714.4,250.9 721.1,255.8 730,253.4 733.5,253.2 739.4,255.6 738.3,251.4 			"/>
			<polygon id="Suisse_13_" class="st2" points="918.1,406.5 907.9,414.2 899.1,405.5 884.7,402.6 882.2,391 887.8,381 886.1,375.6 
				881.8,372.4 873.2,365.7 862.9,364.6 855.4,366 849.1,363 843.5,358.1 837.5,359.2 831.6,364.6 833.7,366.6 841.1,368.3 
				835.3,370.6 835.2,370.9 834.2,373.2 823.3,370.7 812.8,375.8 795.3,376.3 792.3,380.5 791.9,380.5 788.6,384 780,384.1 
				777.5,380.5 776.9,380.9 772.4,381.8 775.5,389.1 775.5,389.2 775.5,389.2 775.4,389.2 775.3,389.2 758.5,411 757.1,412.9 
				748.6,416.9 749.5,427.5 749.5,427.5 749.5,427.5 735.7,441.5 734.5,450.8 739.3,452.5 736.5,461.3 729.9,463.3 730,467.5 
				737.1,467.6 744.4,462.2 741.8,458.3 741.8,458.3 741.8,458.3 745.9,452.6 748.6,454.5 765.1,450.6 769.2,460.7 769.2,460.7 
				769.2,460.7 766.7,463.3 777.3,476.5 777.1,480.7 777,481.7 779.2,483.7 781,484.2 791.9,482.8 803.5,476.7 814.3,480.3 
				814.3,480.3 827.4,462.4 823.9,457.3 838.8,443.5 839.7,457.3 852.7,465.4 875,442.7 908.7,446.6 911,428.5 926.5,415.1 
				926.5,406.5 925.5,406.5 			"/>
			<polygon id="France_24_" class="st1" points="890.1,646.4 882.9,646.6 880.4,652 866.1,657.5 861,670.4 859.2,672.8 865.1,676.6 
				865.3,678.4 859.6,679.6 861.1,686.9 867.6,688.9 868,692.8 863.6,697.4 864.2,701.3 870.7,701.9 872.3,706 867.9,711.9 
				879.5,713.7 872.8,720.9 878.9,725.8 888.5,728.7 891.3,731.9 896.8,733.4 902,717.9 903.2,706.5 902.5,700 902.4,693.6 
				907.7,686.2 907.8,673.9 905.7,669.7 905.1,656.6 900.8,652 900.4,643.8 901.8,640.1 899,629.4 897,625.8 892.9,629.1 
				894.8,642.3 893.4,648.1 			"/>
			<polygon id="Andorre_12_" class="st2" points="529.5,707.7 541.3,703.7 536,695.1 524.6,696.4 524.5,701 			"/>
			<polygon id="Monaco_12_" class="st2" points="790.5,631.2 790.5,631.2 799.4,631.5 795.8,624.1 790.7,624.4 			"/>
		</g>
	</g>
</g>
<g>
	<g>
		<g>
			<rect x="158.5" y="403.5" class="st1" width="189.1" height="191.3"/>
			<g>
				<g id="XMLID_381_">
					<rect id="XMLID_309_" x="174.4" y="421.5" class="st4" width="177.7" height="77.3"/>
					<g class="st5">
						<path d="M175.7,421.5h4.4c0.5,0,0.9,0.1,1.3,0.2c0.4,0.1,0.7,0.4,1,0.7c0.3,0.3,0.5,0.6,0.6,1s0.2,0.8,0.2,1.3
							s-0.1,0.9-0.2,1.4s-0.4,0.8-0.7,1c-0.3,0.3-0.7,0.5-1.1,0.7c-0.4,0.2-1,0.2-1.6,0.2h-2.4v3.9h-1.6L175.7,421.5L175.7,421.5z
							 M179.9,426.6c0.6,0,1-0.2,1.3-0.5c0.3-0.3,0.4-0.8,0.4-1.3c0-0.3,0-0.5-0.1-0.7c-0.1-0.2-0.2-0.4-0.3-0.6s-0.3-0.3-0.5-0.4
							c-0.2-0.1-0.4-0.1-0.7-0.1h-2.7v3.8h2.6V426.6z"/>
						<path d="M189.6,430.8L189.6,430.8c-0.3,0.4-0.6,0.6-1,0.9c-0.4,0.3-1,0.3-1.6,0.3c-0.4,0-0.7-0.1-1-0.2s-0.5-0.2-0.7-0.4
							c-0.2-0.2-0.3-0.4-0.4-0.6c-0.1-0.2-0.1-0.5-0.1-0.8c0-0.5,0.1-1,0.4-1.3c0.2-0.3,0.5-0.5,0.9-0.7s0.8-0.3,1.2-0.3
							s0.9-0.1,1.2-0.2c0.3,0,0.5-0.1,0.7-0.1s0.3-0.1,0.4-0.1c0.1-0.1,0.1-0.1,0.2-0.2c0-0.1,0-0.2,0-0.3c0-0.4-0.1-0.7-0.4-1
							s-0.6-0.4-1.2-0.4c-0.5,0-0.9,0.1-1.2,0.3s-0.4,0.6-0.5,1.1H185c0.1-0.8,0.4-1.4,0.8-1.9c0.5-0.5,1.2-0.7,2.3-0.7
							c1,0,1.8,0.2,2.3,0.7s0.7,1.2,0.7,2.3v4.6h-1.5C189.6,431.8,189.6,430.8,189.6,430.8z M189.6,428.2c-0.4,0.1-0.8,0.2-1.2,0.2
							c-0.4,0.1-0.8,0.1-1.1,0.2s-0.6,0.2-0.8,0.4s-0.3,0.4-0.3,0.7c0,0.3,0.1,0.6,0.4,0.8c0.3,0.2,0.6,0.3,1,0.3
							c0.3,0,0.6,0,0.9-0.1s0.5-0.2,0.7-0.4s0.3-0.4,0.5-0.6c0.1-0.2,0.2-0.5,0.2-0.8v-0.7H189.6z"/>
						<path d="M193.4,424.3h1.5v1.2l0,0c0.2-0.4,0.5-0.7,0.9-1s0.7-0.3,1.2-0.3c0,0,0.1,0,0.2,0s0.2,0,0.2,0v1.6
							c-0.1,0-0.2,0-0.3-0.1s-0.2,0-0.3,0c-0.6,0-1,0.2-1.4,0.5c-0.4,0.3-0.5,0.9-0.5,1.5v4.1h-1.5V424.3L193.4,424.3z"/>
						<path d="M205.3,429.1c0,0.9-0.4,1.7-0.9,2.2s-1.3,0.7-2.3,0.7c-0.6,0-1.1-0.1-1.6-0.3c-0.4-0.2-0.8-0.4-1.1-0.8
							c-0.3-0.4-0.5-0.8-0.7-1.2c-0.1-0.5-0.2-1-0.2-1.6s0.1-1.1,0.2-1.6c0.2-0.5,0.4-0.9,0.7-1.2c0.3-0.3,0.7-0.6,1.1-0.8
							s0.9-0.3,1.5-0.3c1,0,1.8,0.3,2.3,0.8c0.6,0.5,0.9,1.2,0.9,2.2h-1.5c0-0.5-0.2-1-0.5-1.3c-0.3-0.3-0.7-0.4-1.2-0.4
							c-0.6,0-1.1,0.2-1.5,0.7c-0.3,0.4-0.5,1.1-0.5,2s0.2,1.6,0.5,2c0.3,0.4,0.8,0.7,1.5,0.7c0.5,0,1-0.1,1.3-0.4
							c0.3-0.3,0.5-0.7,0.5-1.2h1.5V429.1z"/>
						<path d="M210.7,432c-0.6,0-1.1-0.1-1.5-0.3c-0.5-0.2-0.9-0.4-1.2-0.8s-0.6-0.8-0.7-1.2c-0.2-0.5-0.3-1-0.3-1.6
							s0.1-1.1,0.3-1.6s0.4-0.9,0.7-1.2c0.3-0.3,0.7-0.6,1.2-0.8s1-0.3,1.5-0.3s1.1,0.1,1.5,0.3s0.9,0.5,1.2,0.8s0.6,0.7,0.8,1.2
							s0.3,1,0.3,1.6s-0.1,1.1-0.3,1.6s-0.4,0.9-0.8,1.2s-0.7,0.6-1.2,0.8C211.8,431.9,211.3,432,210.7,432z M210.7,430.8
							c0.7,0,1.2-0.2,1.6-0.7c0.4-0.5,0.6-1.2,0.6-2s-0.2-1.5-0.6-2c-0.4-0.5-0.9-0.7-1.6-0.7c-0.7,0-1.2,0.2-1.6,0.7
							c-0.4,0.5-0.6,1.2-0.6,2s0.2,1.5,0.6,2C209.5,430.6,210,430.8,210.7,430.8z"/>
						<path d="M216.4,424.3h1.5v4.5c0,0.6,0.1,1.1,0.3,1.4s0.6,0.5,1.1,0.5c0.6,0,1-0.2,1.4-0.6s0.5-0.9,0.5-1.5v-4.3h1.5v7.5h-1.5
							v-1.2l0,0c-0.2,0.4-0.5,0.7-0.9,1s-0.8,0.4-1.4,0.4c-0.9,0-1.5-0.2-1.8-0.7s-0.5-1.1-0.5-2v-5H216.4z"/>
						<path d="M225,424.3h1.5v1.2l0,0c0.2-0.4,0.5-0.7,0.9-1s0.7-0.3,1.2-0.3c0,0,0.1,0,0.2,0s0.2,0,0.2,0v1.6c-0.1,0-0.2,0-0.3-0.1
							s-0.2,0-0.3,0c-0.6,0-1,0.2-1.4,0.5s-0.5,0.9-0.5,1.5v4.1H225V424.3z"/>
						<path d="M231.6,429.4c0,0.6,0.2,0.9,0.6,1.1s0.7,0.3,1.2,0.3c0.4,0,0.8-0.1,1-0.3s0.4-0.4,0.4-0.8c0-0.3-0.1-0.5-0.3-0.7
							s-0.5-0.3-0.8-0.4s-0.7-0.2-1.1-0.2c-0.4-0.1-0.7-0.2-1.1-0.3c-0.3-0.1-0.6-0.4-0.8-0.6c-0.2-0.3-0.3-0.7-0.3-1.2
							c0-0.3,0.1-0.6,0.2-0.9c0.1-0.3,0.3-0.5,0.5-0.7s0.5-0.4,0.9-0.5c0.3-0.1,0.8-0.2,1.2-0.2c0.9,0,1.6,0.2,2.1,0.6
							s0.8,1.1,0.8,1.9h-1.5c0-0.5-0.2-0.8-0.4-1.1c-0.3-0.2-0.6-0.3-1.1-0.3c-0.2,0-0.4,0-0.6,0.1s-0.3,0.1-0.4,0.2
							c-0.1,0.1-0.2,0.2-0.2,0.3s-0.1,0.2-0.1,0.4c0,0.3,0.1,0.5,0.3,0.6s0.5,0.2,0.8,0.3c0.3,0.1,0.7,0.2,1.1,0.3
							c0.4,0.1,0.7,0.2,1.1,0.3c0.3,0.2,0.6,0.4,0.8,0.7c0.2,0.3,0.3,0.7,0.3,1.2c0,0.7-0.2,1.2-0.7,1.6s-1.2,0.6-2.2,0.6
							s-1.8-0.2-2.3-0.6s-0.9-1.1-0.9-2h1.5V429.4z"/>
						<path d="M242.4,425.6h-1v-1.2h1v-1.9h1.5v1.9h1.8v1.2h-1.8v3.9c0,0.4,0.1,0.7,0.3,0.8s0.4,0.3,0.8,0.3c0.1,0,0.2,0,0.4,0
							s0.2,0,0.4,0v1.3c-0.2,0-0.3,0.1-0.5,0.1s-0.3,0-0.5,0c-0.7,0-1.3-0.2-1.7-0.6s-0.6-1-0.6-1.8L242.4,425.6L242.4,425.6z"/>
						<path d="M249.3,431.8l-3-7.5h1.6l2.1,5.8l1.9-5.8h1.6l-3.7,10.2h-1.6L249.3,431.8z"/>
						<path d="M255,424.3h1.5v1.2l0,0c0.2-0.4,0.5-0.7,0.9-0.9s0.9-0.4,1.5-0.4c0.5,0,1,0.1,1.4,0.3s0.7,0.5,1,0.8s0.5,0.7,0.6,1.2
							s0.2,1,0.2,1.6s-0.1,1.1-0.2,1.6s-0.4,0.9-0.6,1.2s-0.6,0.6-1,0.8c-0.4,0.2-0.9,0.3-1.4,0.3c-0.6,0-1.1-0.1-1.5-0.4
							s-0.7-0.6-0.9-1l0,0v3.9H255V424.3z M258.6,430.8c0.6,0,1.2-0.2,1.5-0.7c0.4-0.5,0.6-1.2,0.6-2c0-0.9-0.2-1.5-0.5-2
							c-0.4-0.5-0.9-0.7-1.6-0.7c-0.7,0-1.2,0.2-1.5,0.7s-0.5,1.2-0.5,2s0.2,1.5,0.5,2S257.9,430.8,258.6,430.8z"/>
						<path d="M270.4,429.3c0,0.4-0.1,0.8-0.3,1.1c-0.2,0.3-0.4,0.6-0.7,0.9s-0.6,0.4-1,0.6c-0.4,0.1-0.8,0.2-1.3,0.2
							c-0.6,0-1.1-0.1-1.6-0.3c-0.4-0.2-0.8-0.4-1.1-0.8c-0.3-0.4-0.5-0.8-0.6-1.2c-0.1-0.5-0.2-1-0.2-1.6s0.1-1.1,0.2-1.6
							c0.1-0.5,0.4-0.9,0.7-1.2c0.3-0.3,0.7-0.6,1.1-0.8s0.9-0.3,1.5-0.3s1.1,0.1,1.5,0.3s0.8,0.4,1,0.8c0.3,0.3,0.5,0.7,0.6,1.2
							s0.2,1,0.2,1.6v0.2h-5.3c0,0.8,0.2,1.4,0.5,1.8s0.8,0.6,1.4,0.6c0.5,0,0.9-0.1,1.3-0.4c0.4-0.3,0.5-0.6,0.6-1.1L270.4,429.3
							L270.4,429.3z M268.9,427.3c0-0.6-0.2-1-0.5-1.4s-0.7-0.6-1.3-0.6c-0.6,0-1,0.2-1.3,0.5s-0.5,0.8-0.6,1.5H268.9z"/>
					</g>
					<g class="st5">
						<path d="M180.7,447.4L180.7,447.4c-0.3,0.4-0.6,0.7-0.9,1c-0.3,0.3-0.9,0.4-1.5,0.4c-0.5,0-1-0.1-1.4-0.3
							c-0.4-0.2-0.7-0.5-1-0.8s-0.5-0.8-0.6-1.2c-0.1-0.5-0.2-1-0.2-1.5c0-0.6,0.1-1.1,0.2-1.6c0.1-0.5,0.3-0.9,0.6-1.2
							c0.3-0.3,0.6-0.6,1-0.8s0.9-0.3,1.4-0.3c0.6,0,1.1,0.1,1.5,0.4c0.4,0.3,0.7,0.6,0.9,0.9l0,0v-4h1.5v10.4h-1.5V447.4z
							 M178.7,447.6c0.7,0,1.2-0.2,1.5-0.7s0.5-1.2,0.5-2c0-0.9-0.2-1.5-0.5-2s-0.8-0.7-1.5-0.7c-0.6,0-1.2,0.2-1.5,0.7
							c-0.4,0.5-0.6,1.2-0.6,2c0,0.9,0.2,1.5,0.5,2C177.4,447.4,178.1,447.6,178.7,447.6z"/>
						<path d="M184.6,441.1h1.5v4.5c0,0.6,0.1,1.1,0.3,1.4c0.2,0.3,0.6,0.5,1.1,0.5c0.6,0,1-0.2,1.4-0.6c0.4-0.4,0.5-0.9,0.5-1.5
							v-4.3h1.5v7.5h-1.5v-1.2l0,0c-0.2,0.4-0.5,0.7-0.9,1s-0.8,0.4-1.4,0.4c-0.9,0-1.5-0.2-1.8-0.7c-0.3-0.5-0.5-1.1-0.5-2v-5
							H184.6z"/>
						<path d="M199.9,439.6h-3.3v-1.4h8.2v1.4h-3.3v9h-1.6C199.9,448.6,199.9,439.6,199.9,439.6z"/>
						<path d="M209.6,448.8c-0.6,0-1.1-0.1-1.5-0.3c-0.5-0.2-0.9-0.4-1.2-0.8s-0.6-0.8-0.7-1.2c-0.2-0.5-0.3-1-0.3-1.6
							s0.1-1.1,0.3-1.6c0.2-0.5,0.4-0.9,0.7-1.2c0.3-0.3,0.7-0.6,1.2-0.8s1-0.3,1.5-0.3s1.1,0.1,1.5,0.3s0.9,0.5,1.2,0.8
							s0.6,0.7,0.8,1.2s0.3,1,0.3,1.6s-0.1,1.1-0.3,1.6s-0.4,0.9-0.8,1.2s-0.7,0.6-1.2,0.8C210.7,448.7,210.2,448.8,209.6,448.8z
							 M209.6,447.6c0.7,0,1.2-0.2,1.6-0.7c0.4-0.5,0.6-1.2,0.6-2s-0.2-1.5-0.6-2c-0.4-0.5-0.9-0.7-1.6-0.7c-0.7,0-1.2,0.2-1.6,0.7
							c-0.4,0.5-0.6,1.2-0.6,2s0.2,1.5,0.6,2C208.4,447.4,208.9,447.6,209.6,447.6z"/>
						<path d="M215.3,441.1h1.5v4.5c0,0.6,0.1,1.1,0.3,1.4s0.6,0.5,1.1,0.5c0.6,0,1-0.2,1.4-0.6s0.5-0.9,0.5-1.5v-4.3h1.5v7.5h-1.5
							v-1.2l0,0c-0.2,0.4-0.5,0.7-0.9,1s-0.8,0.4-1.4,0.4c-0.9,0-1.5-0.2-1.8-0.7s-0.5-1.1-0.5-2v-5H215.3z"/>
						<path d="M224,441.1h1.5v1.2l0,0c0.2-0.4,0.5-0.7,0.9-1s0.7-0.3,1.2-0.3c0,0,0.1,0,0.2,0s0.2,0,0.2,0v1.6c-0.1,0-0.2,0-0.3-0.1
							s-0.2,0-0.3,0c-0.6,0-1,0.2-1.4,0.5s-0.5,0.9-0.5,1.5v4.1H224V441.1z"/>
						<path d="M238.9,447.4L238.9,447.4c-0.3,0.4-0.6,0.7-0.9,1s-0.9,0.4-1.5,0.4c-0.5,0-1-0.1-1.4-0.3c-0.4-0.2-0.7-0.5-1-0.8
							s-0.5-0.8-0.6-1.2c-0.1-0.5-0.2-1-0.2-1.5c0-0.6,0.1-1.1,0.2-1.6c0.1-0.5,0.3-0.9,0.6-1.2c0.3-0.3,0.6-0.6,1-0.8
							s0.9-0.3,1.4-0.3c0.6,0,1.1,0.1,1.5,0.4s0.7,0.6,0.9,0.9l0,0v-4h1.5v10.4h-1.5V447.4z M236.9,447.6c0.7,0,1.2-0.2,1.5-0.7
							s0.5-1.2,0.5-2c0-0.9-0.2-1.5-0.5-2s-0.8-0.7-1.5-0.7c-0.6,0-1.2,0.2-1.5,0.7c-0.4,0.5-0.6,1.2-0.6,2c0,0.9,0.2,1.5,0.5,2
							S236.2,447.6,236.9,447.6z"/>
						<path d="M249.1,446.1c0,0.4-0.1,0.8-0.3,1.1s-0.4,0.6-0.7,0.9s-0.6,0.4-1,0.6c-0.4,0.1-0.8,0.2-1.3,0.2
							c-0.6,0-1.1-0.1-1.6-0.3c-0.4-0.2-0.8-0.4-1.1-0.8s-0.5-0.8-0.6-1.2c-0.1-0.5-0.2-1-0.2-1.6s0.1-1.1,0.2-1.6
							c0.1-0.5,0.4-0.9,0.7-1.2c0.3-0.3,0.7-0.6,1.1-0.8s0.9-0.3,1.5-0.3s1.1,0.1,1.5,0.3s0.8,0.4,1,0.8c0.3,0.3,0.5,0.7,0.6,1.2
							s0.2,1,0.2,1.6v0.2h-5.3c0,0.8,0.2,1.4,0.5,1.8s0.8,0.6,1.4,0.6c0.5,0,0.9-0.1,1.3-0.4s0.5-0.6,0.6-1.1L249.1,446.1
							L249.1,446.1z M247.6,444.1c0-0.6-0.2-1-0.5-1.4s-0.7-0.6-1.3-0.6s-1,0.2-1.3,0.5s-0.5,0.8-0.6,1.5H247.6z"/>
						<path d="M255.5,438.3h6.6v1.4h-5v3.1h4.7v1.3h-4.7v4.6h-1.6V438.3z"/>
						<path d="M264.3,441.1h1.5v1.2l0,0c0.2-0.4,0.5-0.7,0.9-1c0.4-0.3,0.7-0.3,1.2-0.3c0,0,0.1,0,0.2,0c0.1,0,0.2,0,0.2,0v1.6
							c-0.1,0-0.2,0-0.3-0.1c-0.1-0.1-0.2,0-0.3,0c-0.6,0-1,0.2-1.4,0.5s-0.5,0.9-0.5,1.5v4.1h-1.5V441.1L264.3,441.1z"/>
						<path d="M274.3,447.6L274.3,447.6c-0.3,0.4-0.6,0.6-1,0.9c-0.4,0.3-1,0.3-1.6,0.3c-0.4,0-0.7-0.1-1-0.2
							c-0.3-0.1-0.5-0.2-0.7-0.4c-0.2-0.2-0.3-0.4-0.4-0.6s-0.1-0.5-0.1-0.8c0-0.5,0.1-1,0.4-1.3c0.2-0.3,0.5-0.5,0.9-0.7
							s0.8-0.3,1.2-0.3c0.4,0,0.9-0.1,1.2-0.2c0.3,0,0.5-0.1,0.7-0.1c0.2,0,0.3-0.1,0.4-0.1c0.1-0.1,0.1-0.1,0.2-0.2
							c0-0.1,0-0.2,0-0.3c0-0.4-0.1-0.7-0.4-1s-0.6-0.4-1.2-0.4c-0.5,0-0.9,0.1-1.2,0.3s-0.4,0.6-0.5,1.1h-1.4
							c0.1-0.8,0.4-1.4,0.8-1.9c0.5-0.5,1.2-0.7,2.3-0.7c1,0,1.8,0.2,2.3,0.7s0.7,1.2,0.7,2.3v4.6h-1.5v-1H274.3z M274.3,445
							c-0.4,0.1-0.8,0.2-1.2,0.2c-0.4,0.1-0.8,0.1-1.1,0.2s-0.6,0.2-0.8,0.4c-0.2,0.2-0.3,0.4-0.3,0.7c0,0.3,0.1,0.6,0.4,0.8
							s0.6,0.3,1,0.3c0.3,0,0.6,0,0.9-0.1c0.3-0.1,0.5-0.2,0.7-0.4c0.2-0.2,0.3-0.4,0.5-0.6c0.1-0.2,0.2-0.5,0.2-0.8V445H274.3z"/>
						<path d="M278,441.1h1.5v1.2l0,0c0.3-0.4,0.6-0.7,0.9-1s0.9-0.3,1.5-0.3c0.9,0,1.5,0.2,1.9,0.7s0.6,1.1,0.6,2v4.9H283v-4.5
							c0-0.6-0.1-1.1-0.3-1.4c-0.2-0.3-0.6-0.5-1.1-0.5c-0.6,0-1.1,0.2-1.4,0.6s-0.5,0.9-0.5,1.5v4.3H278V441.1z"/>
						<path d="M293.2,445.9c0,0.9-0.4,1.7-0.9,2.2s-1.3,0.7-2.3,0.7c-0.6,0-1.1-0.1-1.6-0.3c-0.4-0.2-0.8-0.4-1.1-0.8
							s-0.5-0.8-0.7-1.2c-0.1-0.5-0.2-1-0.2-1.6s0.1-1.1,0.2-1.6c0.2-0.5,0.4-0.9,0.7-1.2c0.3-0.3,0.7-0.6,1.1-0.8s0.9-0.3,1.5-0.3
							c1,0,1.8,0.3,2.3,0.8c0.6,0.5,0.9,1.2,0.9,2.2h-1.5c0-0.5-0.2-1-0.5-1.3c-0.3-0.3-0.7-0.4-1.2-0.4c-0.6,0-1.1,0.2-1.5,0.7
							c-0.3,0.4-0.5,1.1-0.5,2s0.2,1.6,0.5,2s0.8,0.7,1.5,0.7c0.5,0,1-0.1,1.3-0.4c0.3-0.3,0.5-0.7,0.5-1.2h1.5V445.9z"/>
						<path d="M301.6,446.1c0,0.4-0.1,0.8-0.3,1.1c-0.2,0.3-0.4,0.6-0.7,0.9s-0.6,0.4-1,0.6c-0.4,0.1-0.8,0.2-1.3,0.2
							c-0.6,0-1.1-0.1-1.6-0.3c-0.4-0.2-0.8-0.4-1.1-0.8c-0.3-0.4-0.5-0.8-0.6-1.2c-0.1-0.5-0.2-1-0.2-1.6s0.1-1.1,0.2-1.6
							c0.1-0.5,0.4-0.9,0.7-1.2c0.3-0.3,0.7-0.6,1.1-0.8s0.9-0.3,1.5-0.3s1.1,0.1,1.5,0.3s0.8,0.4,1,0.8c0.3,0.3,0.5,0.7,0.6,1.2
							s0.2,1,0.2,1.6v0.2h-5.3c0,0.8,0.2,1.4,0.5,1.8s0.8,0.6,1.4,0.6c0.5,0,0.9-0.1,1.3-0.4c0.4-0.3,0.5-0.6,0.6-1.1L301.6,446.1
							L301.6,446.1z M300.1,444.1c0-0.6-0.2-1-0.5-1.4s-0.7-0.6-1.3-0.6c-0.6,0-1,0.2-1.3,0.5s-0.5,0.8-0.6,1.5H300.1z"/>
					</g>
					<g class="st5">
						<path d="M175.7,464.1h2.3v-7.2l-2.2,1.4l-0.7-1.1l3.3-2.2h1.2v9.1h2v1.3h-5.9C175.7,465.4,175.7,464.1,175.7,464.1z"/>
						<path d="M184.6,462.3c0.1,0.6,0.3,1.1,0.6,1.5s0.8,0.5,1.4,0.5c0.3,0,0.6-0.1,0.9-0.2s0.5-0.3,0.7-0.6
							c0.2-0.3,0.4-0.7,0.5-1.3s0.2-1.2,0.2-2.1c-0.2,0.4-0.5,0.8-1,1c-0.4,0.2-1,0.4-1.6,0.4c-0.4,0-0.9-0.1-1.2-0.2
							c-0.3-0.1-0.7-0.3-1-0.6c-0.3-0.3-0.5-0.6-0.7-1c-0.2-0.4-0.2-0.9-0.2-1.4s0.1-1,0.2-1.4c0.1-0.4,0.4-0.8,0.7-1.1
							c0.3-0.3,0.7-0.5,1.1-0.7s0.9-0.2,1.5-0.2s1.1,0.1,1.5,0.3s0.9,0.5,1.2,0.9s0.6,1,0.7,1.6c0.2,0.7,0.3,1.5,0.3,2.4
							c0,1.8-0.3,3.2-1,4.1c-0.6,0.9-1.6,1.3-2.8,1.3c-1,0-1.8-0.3-2.4-0.9c-0.6-0.6-0.9-1.4-1-2.4h1.4V462.3z M186.5,460.3
							c0.6,0,1.1-0.2,1.4-0.5c0.4-0.4,0.5-0.8,0.5-1.4c0-0.3,0-0.6-0.1-0.8c-0.1-0.3-0.2-0.5-0.4-0.7c-0.2-0.2-0.4-0.3-0.6-0.4
							s-0.5-0.2-0.8-0.2s-0.5,0.1-0.8,0.2c-0.2,0.1-0.4,0.2-0.6,0.4c-0.2,0.2-0.3,0.4-0.4,0.7c-0.1,0.3-0.1,0.5-0.1,0.8
							c0,0.6,0.2,1.1,0.5,1.5C185.4,460.3,185.9,460.3,186.5,460.3z"/>
						<path d="M191,461.6l4.2-6.6h1.8v6.7h1.5v1.3H197v2.4h-1.6V463H191V461.6z M195.4,461.8V457l-3.1,4.8H195.4z"/>
						<path d="M204.6,456.4h-5.2v-1.3h6.9v1.3l-4.4,9.1h-1.8L204.6,456.4z"/>
						<path d="M212,460.3h3.8v1.4H212V460.3z"/>
						<path d="M221.6,464.2c0.8-0.8,1.5-1.4,2.1-2s1.2-1.1,1.6-1.6c0.4-0.5,0.8-0.9,1-1.3s0.4-0.9,0.4-1.3c0-0.5-0.1-0.9-0.4-1.2
							c-0.3-0.3-0.7-0.5-1.3-0.5s-1,0.2-1.4,0.5s-0.5,0.9-0.6,1.6h-1.6c0-0.5,0.1-1,0.3-1.4s0.4-0.8,0.7-1.1
							c0.3-0.3,0.7-0.5,1.1-0.7s0.9-0.2,1.4-0.2c0.6,0,1,0.1,1.5,0.2c0.4,0.1,0.8,0.3,1,0.6c0.3,0.3,0.5,0.6,0.6,0.9
							s0.2,0.8,0.2,1.2c0,0.6-0.1,1.1-0.4,1.6c-0.3,0.5-0.6,1-1,1.5s-0.9,1-1.5,1.5s-1.1,1.1-1.8,1.7h4.7v1.3h-6.7L221.6,464.2
							L221.6,464.2z"/>
						<path d="M233.1,465.6c-0.5,0-1-0.1-1.4-0.3s-0.8-0.5-1.2-0.9s-0.6-1-0.8-1.7s-0.3-1.5-0.3-2.4s0.1-1.8,0.3-2.4
							c0.2-0.7,0.5-1.2,0.8-1.7s0.7-0.7,1.2-0.9s0.9-0.3,1.4-0.3s1,0.1,1.4,0.3s0.8,0.5,1.2,0.9s0.6,1,0.8,1.7s0.3,1.5,0.3,2.4
							s-0.1,1.8-0.3,2.4c-0.2,0.7-0.5,1.2-0.8,1.7s-0.7,0.7-1.2,0.9S233.6,465.6,233.1,465.6z M233.1,464.3c0.3,0,0.5-0.1,0.8-0.2
							s0.5-0.3,0.7-0.6c0.2-0.3,0.3-0.7,0.5-1.2s0.2-1.2,0.2-2s-0.1-1.5-0.2-2c-0.1-0.5-0.3-0.9-0.5-1.2c-0.2-0.3-0.4-0.5-0.7-0.6
							s-0.5-0.2-0.8-0.2s-0.5,0.1-0.8,0.2s-0.5,0.3-0.7,0.6c-0.2,0.3-0.3,0.7-0.5,1.2c-0.1,0.5-0.2,1.2-0.2,2s0.1,1.5,0.2,2
							s0.3,0.9,0.5,1.2c0.2,0.3,0.4,0.5,0.7,0.6C232.5,464.2,232.8,464.3,233.1,464.3z"/>
						<path d="M238.4,464.1h2.3v-7.2l-2.2,1.4l-0.7-1.1l3.3-2.2h1.2v9.1h2v1.3h-5.9L238.4,464.1L238.4,464.1z"/>
						<path d="M251.4,458.2c-0.1-0.6-0.3-1.1-0.6-1.5s-0.8-0.5-1.3-0.5c-0.3,0-0.6,0.1-0.9,0.2s-0.5,0.3-0.7,0.7
							c-0.2,0.3-0.4,0.7-0.5,1.3c-0.1,0.5-0.2,1.2-0.2,2.1c0.2-0.4,0.5-0.8,1-1c0.4-0.2,1-0.4,1.6-0.4c0.4,0,0.9,0.1,1.2,0.2
							c0.4,0.1,0.7,0.3,1,0.6c0.3,0.3,0.5,0.6,0.7,1s0.3,0.9,0.3,1.4s-0.1,1-0.2,1.4s-0.4,0.8-0.7,1.1c-0.3,0.3-0.7,0.5-1.1,0.7
							c-0.4,0.2-0.9,0.2-1.5,0.2s-1.1-0.1-1.6-0.3s-0.8-0.5-1.2-0.9s-0.6-1-0.7-1.6c-0.2-0.7-0.3-1.4-0.3-2.4c0-1.8,0.3-3.2,1-4.1
							s1.6-1.3,2.8-1.3c1,0,1.8,0.3,2.4,0.9s0.9,1.4,1,2.4h-1.5V458.2z M249.6,464.3c0.3,0,0.6-0.1,0.8-0.2s0.4-0.2,0.6-0.4
							s0.3-0.4,0.4-0.7s0.1-0.5,0.1-0.8c0-0.6-0.2-1.1-0.5-1.5s-0.8-0.6-1.4-0.6c-0.6,0-1,0.2-1.4,0.5s-0.5,0.8-0.5,1.4
							c0,0.3,0,0.6,0.1,0.8s0.2,0.5,0.4,0.7s0.4,0.3,0.6,0.4C249,464.3,249.3,464.3,249.6,464.3z"/>
						<path d="M260.7,467.1c-0.3-0.3-0.5-0.7-0.8-1.1s-0.5-0.9-0.7-1.4c-0.2-0.5-0.3-1-0.5-1.6c-0.2-0.6-0.2-1.2-0.2-1.9
							c0-0.7,0.1-1.3,0.2-1.9c0.1-0.6,0.3-1.1,0.5-1.6c0.2-0.5,0.4-1,0.7-1.4s0.5-0.8,0.8-1.1h1.2c-0.7,1-1.2,1.9-1.5,2.9
							s-0.4,2-0.4,3.1s0.1,2.1,0.4,3.1c0.3,1,0.8,2,1.5,2.9H260.7z"/>
						<path d="M263.8,462.1c0.1,0.7,0.3,1.3,0.7,1.6c0.4,0.4,0.9,0.5,1.6,0.5c0.6,0,1.1-0.2,1.5-0.5c0.3-0.3,0.5-0.7,0.5-1.3
							s-0.2-1-0.5-1.3s-0.8-0.5-1.3-0.5h-1.4v-1.2h1c0.5,0,0.9-0.2,1.2-0.5s0.4-0.7,0.4-1.2c0-0.4-0.1-0.8-0.4-1.1s-0.7-0.5-1.2-0.5
							c-0.6,0-1,0.2-1.3,0.5s-0.5,0.9-0.5,1.5h-1.6c0.1-1.1,0.4-1.9,1-2.5s1.4-0.8,2.5-0.8c0.5,0,1,0.1,1.3,0.2
							c0.4,0.1,0.7,0.3,1,0.5c0.3,0.2,0.5,0.5,0.6,0.8c0.1,0.3,0.2,0.7,0.2,1.1c0,0.5-0.1,1-0.3,1.3c-0.2,0.4-0.5,0.7-1,0.9
							c0.6,0.2,1,0.6,1.3,1c0.3,0.5,0.5,1,0.5,1.7c0,0.5-0.1,0.9-0.2,1.2c-0.1,0.3-0.4,0.7-0.7,1s-0.7,0.5-1.1,0.6
							c-0.5,0.1-1,0.2-1.6,0.2s-1.2-0.1-1.6-0.2c-0.5-0.2-0.8-0.4-1.1-0.7c-0.3-0.3-0.5-0.7-0.7-1.1c-0.2-0.4-0.2-0.9-0.3-1.4h1.5
							V462.1z"/>
						<path d="M279.9,459.9c0.6,0.2,1.1,0.5,1.5,1c0.4,0.4,0.5,1,0.5,1.7c0,0.4-0.1,0.8-0.2,1.2c-0.1,0.4-0.4,0.7-0.7,0.9
							c-0.3,0.3-0.7,0.5-1.1,0.6s-1,0.2-1.5,0.2c-0.6,0-1.1-0.1-1.5-0.2s-0.8-0.3-1.1-0.6c-0.3-0.3-0.5-0.6-0.7-0.9
							c-0.2-0.4-0.2-0.8-0.2-1.2c0-0.7,0.2-1.2,0.5-1.7c0.4-0.4,0.8-0.8,1.5-1c-0.5-0.2-0.8-0.5-1.1-0.9s-0.4-0.9-0.4-1.4
							c0-0.4,0.1-0.8,0.2-1.1c0.2-0.3,0.4-0.6,0.6-0.9c0.3-0.2,0.6-0.4,1-0.6c0.4-0.1,0.8-0.2,1.3-0.2s0.9,0.1,1.3,0.2
							c0.4,0.1,0.7,0.3,1,0.6c0.3,0.2,0.5,0.5,0.6,0.9c0.1,0.3,0.2,0.7,0.2,1.1c0,0.6-0.1,1-0.4,1.4S280.3,459.7,279.9,459.9z
							 M276.2,462.5c0,0.5,0.2,1,0.5,1.3c0.4,0.3,0.9,0.5,1.5,0.5c0.6,0,1.1-0.2,1.5-0.5c0.4-0.3,0.5-0.8,0.5-1.3
							c0-0.6-0.2-1.1-0.6-1.4c-0.4-0.3-0.9-0.5-1.5-0.5c-0.6,0-1.1,0.2-1.5,0.5C276.4,461.4,276.2,461.8,276.2,462.5z M276.6,457.7
							c0,0.5,0.1,0.9,0.4,1.2c0.3,0.3,0.7,0.5,1.3,0.5c0.6,0,1-0.2,1.3-0.5s0.4-0.7,0.4-1.2s-0.1-0.8-0.4-1.1s-0.7-0.4-1.3-0.4
							c-0.6,0-1,0.1-1.3,0.4S276.6,457.3,276.6,457.7z"/>
						<path d="M286.4,465.6c-0.5,0-1-0.1-1.4-0.3s-0.8-0.5-1.2-0.9c-0.4-0.4-0.6-1-0.8-1.7s-0.3-1.5-0.3-2.4s0.1-1.8,0.3-2.4
							c0.2-0.7,0.5-1.2,0.8-1.7c0.3-0.5,0.7-0.7,1.2-0.9s0.9-0.3,1.4-0.3s1,0.1,1.4,0.3s0.8,0.5,1.2,0.9c0.4,0.4,0.6,1,0.8,1.7
							s0.3,1.5,0.3,2.4s-0.1,1.8-0.3,2.4c-0.2,0.7-0.5,1.2-0.8,1.7c-0.3,0.5-0.7,0.7-1.2,0.9S286.9,465.6,286.4,465.6z M286.4,464.3
							c0.3,0,0.5-0.1,0.8-0.2c0.3-0.1,0.5-0.3,0.7-0.6c0.2-0.3,0.3-0.7,0.5-1.2s0.2-1.2,0.2-2s-0.1-1.5-0.2-2s-0.3-0.9-0.5-1.2
							c-0.2-0.3-0.4-0.5-0.7-0.6c-0.3-0.1-0.5-0.2-0.8-0.2s-0.5,0.1-0.8,0.2c-0.3,0.1-0.5,0.3-0.7,0.6c-0.2,0.3-0.3,0.7-0.5,1.2
							c-0.1,0.5-0.2,1.2-0.2,2s0.1,1.5,0.2,2s0.3,0.9,0.5,1.2c0.2,0.3,0.4,0.5,0.7,0.6C285.9,464.2,286.1,464.3,286.4,464.3z"/>
						<path d="M294.5,465.6c-0.5,0-1-0.1-1.4-0.3s-0.8-0.5-1.2-0.9c-0.4-0.4-0.6-1-0.8-1.7s-0.3-1.5-0.3-2.4s0.1-1.8,0.3-2.4
							c0.2-0.7,0.5-1.2,0.8-1.7c0.3-0.5,0.7-0.7,1.2-0.9s0.9-0.3,1.4-0.3s1,0.1,1.4,0.3s0.8,0.5,1.2,0.9c0.4,0.4,0.6,1,0.8,1.7
							s0.3,1.5,0.3,2.4s-0.1,1.8-0.3,2.4c-0.2,0.7-0.5,1.2-0.8,1.7c-0.3,0.5-0.7,0.7-1.2,0.9S295,465.6,294.5,465.6z M294.5,464.3
							c0.3,0,0.5-0.1,0.8-0.2c0.3-0.1,0.5-0.3,0.7-0.6c0.2-0.3,0.3-0.7,0.5-1.2s0.2-1.2,0.2-2s-0.1-1.5-0.2-2
							c-0.1-0.5-0.3-0.9-0.5-1.2c-0.2-0.3-0.4-0.5-0.7-0.6c-0.3-0.1-0.5-0.2-0.8-0.2s-0.5,0.1-0.8,0.2c-0.3,0.1-0.5,0.3-0.7,0.6
							c-0.2,0.3-0.3,0.7-0.5,1.2c-0.1,0.5-0.2,1.2-0.2,2s0.1,1.5,0.2,2s0.3,0.9,0.5,1.2c0.2,0.3,0.4,0.5,0.7,0.6
							C294,464.2,294.3,464.3,294.5,464.3z"/>
						<path d="M304,455.1h1.5v6.3l3.1-3.4h1.9l-3.3,3.4l3.6,4.1h-1.9l-3.5-4.1v4.1H304V455.1z"/>
						<path d="M312.3,457.9h1.5v1.2l0,0c0.2-0.4,0.5-0.7,0.8-1s0.8-0.4,1.3-0.4c0.6,0,1,0.1,1.4,0.4c0.4,0.3,0.6,0.6,0.7,1l0,0
							c0.2-0.4,0.5-0.8,0.9-1s0.8-0.4,1.4-0.4c0.8,0,1.4,0.2,1.8,0.7c0.4,0.5,0.6,1.1,0.6,2v4.9h-1.5v-4.5c0-0.6-0.1-1.1-0.3-1.4
							s-0.5-0.4-1-0.4s-0.9,0.2-1.2,0.5c-0.3,0.3-0.5,0.8-0.5,1.5v4.4h-1.5v-4.5c0-0.6-0.1-1.1-0.3-1.4s-0.5-0.5-1-0.5
							c-0.6,0-1,0.2-1.3,0.5c-0.3,0.3-0.5,0.9-0.5,1.5v4.3h-1.5v-7.4H312.3z"/>
						<path d="M324.1,467.1c0.7-1,1.2-1.9,1.4-2.9c0.3-1,0.4-2,0.4-3.1s-0.1-2.1-0.4-3.1s-0.8-2-1.4-2.9h1.2
							c0.3,0.3,0.5,0.7,0.8,1.1s0.5,0.9,0.7,1.4c0.2,0.5,0.3,1,0.5,1.6c0.2,0.6,0.2,1.2,0.2,1.9c0,0.7-0.1,1.3-0.2,1.9
							c-0.1,0.6-0.3,1.1-0.5,1.6c-0.2,0.5-0.4,1-0.7,1.4s-0.5,0.8-0.8,1.1H324.1z"/>
					</g>
				</g>
			</g>
		</g>
	</g>
	<g>
		<path id="XMLID_379_" class="st6" d="M217.9,506.2c-4.5,0-8.1-3.7-8.1-8.1c0-4.5,3.7-8.1,8.1-8.1c4.5,0,8.1,3.7,8.1,8.1
			S222.4,506.2,217.9,506.2z"/>
		<g id="XMLID_371_">
			<rect id="XMLID_397_" x="204.7" y="513.2" class="st4" width="26.5" height="24.9"/>
			<g class="st5">
				<path d="M206.8,513.2h1.9c0.4,0,0.7,0.1,1,0.2s0.6,0.3,0.8,0.5s0.4,0.5,0.5,0.8s0.2,0.7,0.2,1.1c0,0.4-0.1,0.7-0.2,1.1
					s-0.3,0.6-0.5,0.8s-0.5,0.4-0.8,0.5s-0.6,0.2-1,0.2h-1.9C206.8,518.4,206.8,513.2,206.8,513.2z M208.7,517.7
					c0.2,0,0.4,0,0.6-0.1c0.2-0.1,0.4-0.2,0.5-0.4s0.2-0.4,0.3-0.6c0.1-0.2,0.1-0.5,0.1-0.8s0-0.5-0.1-0.8c-0.1-0.2-0.2-0.4-0.3-0.6
					c-0.1-0.2-0.3-0.3-0.5-0.4s-0.4-0.1-0.6-0.1h-1.1v3.8L208.7,517.7L208.7,517.7z"/>
				<path d="M215.3,517.1c0,0.2-0.1,0.4-0.1,0.5s-0.2,0.3-0.3,0.4c-0.1,0.1-0.3,0.2-0.5,0.3s-0.4,0.1-0.7,0.1s-0.6,0-0.8-0.1
					s-0.4-0.2-0.5-0.4s-0.3-0.4-0.3-0.6c-0.1-0.2-0.1-0.5-0.1-0.8s0-0.6,0.1-0.8s0.2-0.4,0.3-0.6c0.1-0.2,0.3-0.3,0.5-0.4
					c0.2-0.1,0.5-0.1,0.8-0.1s0.5,0,0.8,0.1c0.2,0.1,0.4,0.2,0.5,0.4s0.2,0.4,0.3,0.6c0.1,0.2,0.1,0.5,0.1,0.8v0.1h-2.6
					c0,0.4,0.1,0.7,0.3,0.9s0.4,0.3,0.7,0.3s0.5-0.1,0.6-0.2c0.2-0.1,0.3-0.3,0.3-0.6L215.3,517.1L215.3,517.1z M214.6,516.1
					c0-0.3-0.1-0.5-0.2-0.7c-0.2-0.2-0.4-0.3-0.7-0.3s-0.5,0.1-0.7,0.2s-0.3,0.4-0.3,0.7L214.6,516.1L214.6,516.1z M214.1,513.2h0.9
					l-1,1h-0.6L214.1,513.2z"/>
				<path d="M216.4,514.6h0.7v0.6l0,0c0.1-0.2,0.3-0.4,0.5-0.5s0.4-0.2,0.7-0.2s0.5,0,0.7,0.1s0.4,0.2,0.5,0.4s0.2,0.4,0.3,0.6
					s0.1,0.5,0.1,0.8s0,0.6-0.1,0.8s-0.2,0.4-0.3,0.6c-0.1,0.2-0.3,0.3-0.5,0.4s-0.4,0.1-0.7,0.1s-0.5-0.1-0.7-0.2s-0.3-0.3-0.5-0.5
					l0,0v2h-0.7V514.6z M218.1,517.9c0.3,0,0.6-0.1,0.8-0.4c0.2-0.2,0.3-0.6,0.3-1s-0.1-0.8-0.3-1s-0.4-0.4-0.8-0.4
					c-0.4,0-0.6,0.1-0.8,0.4c-0.2,0.2-0.2,0.6-0.2,1s0.1,0.8,0.2,1C217.5,517.8,217.8,517.9,218.1,517.9z"/>
				<path d="M223.1,517.9L223.1,517.9c-0.1,0.2-0.3,0.3-0.5,0.4c-0.2,0.1-0.5,0.2-0.8,0.2c-0.2,0-0.4,0-0.5-0.1s-0.3-0.1-0.4-0.2
					s-0.2-0.2-0.2-0.3s-0.1-0.2-0.1-0.4c0-0.3,0.1-0.5,0.2-0.6c0.1-0.1,0.3-0.3,0.5-0.3c0.2-0.1,0.4-0.1,0.6-0.2
					c0.2,0,0.4-0.1,0.6-0.1c0.1,0,0.3,0,0.3-0.1s0.1,0,0.2-0.1l0.1-0.1c0,0,0-0.1,0-0.2c0-0.2-0.1-0.4-0.2-0.5
					c-0.1-0.1-0.3-0.2-0.6-0.2c-0.2,0-0.4,0.1-0.6,0.2c-0.1,0.1-0.2,0.3-0.2,0.5h-0.7c0-0.4,0.2-0.7,0.4-1c0.2-0.2,0.6-0.3,1.1-0.3
					s0.9,0.1,1.1,0.4c0.2,0.2,0.4,0.6,0.4,1.1v2.3h-0.7L223.1,517.9L223.1,517.9z M223.1,516.6c-0.2,0.1-0.4,0.1-0.6,0.1
					c-0.2,0-0.4,0.1-0.6,0.1s-0.3,0.1-0.4,0.2s-0.2,0.2-0.2,0.4s0.1,0.3,0.2,0.4c0.1,0.1,0.3,0.1,0.5,0.1s0.3,0,0.4-0.1
					s0.2-0.1,0.3-0.2c0.1-0.1,0.2-0.2,0.2-0.3c0.1-0.1,0.1-0.3,0.1-0.4v-0.3H223.1z"/>
				<path d="M225,514.6h0.7v0.6l0,0c0.1-0.2,0.3-0.4,0.4-0.5c0.2-0.1,0.4-0.2,0.6-0.2h0.1h0.1v0.8h-0.1c0,0-0.1,0-0.2,0
					c-0.3,0-0.5,0.1-0.7,0.3s-0.3,0.4-0.3,0.7v2.1H225V514.6z"/>
				<path d="M227.8,515.3h-0.5v-0.6h0.5v-1h0.7v1h0.9v0.6h-0.9v2c0,0.2,0,0.3,0.1,0.4c0.1,0.1,0.2,0.1,0.4,0.1c0.1,0,0.1,0,0.2,0
					c0.1,0,0.1,0,0.2,0v0.7c-0.1,0-0.2,0-0.2,0s-0.2,0-0.3,0c-0.4,0-0.6-0.1-0.8-0.3s-0.3-0.5-0.3-0.9L227.8,515.3L227.8,515.3z"/>
			</g>
		</g>
		<path id="XMLID_370_" class="st7" d="M284.4,506.2c-4.5,0-8.1-3.7-8.1-8.1c0-4.5,3.7-8.1,8.1-8.1c4.5,0,8.1,3.7,8.1,8.1
			S288.9,506.2,284.4,506.2z"/>
		<g id="XMLID_366_">
			<rect id="XMLID_404_" x="268.4" y="513.2" class="st4" width="31.9" height="24.9"/>
			<g class="st5">
				<path d="M274.1,513.2h0.8l2,5.2H276l-0.5-1.2h-2.1l-0.5,1.2H272L274.1,513.2z M275.3,516.5l-0.8-2.2l-0.8,2.2H275.3z"/>
				<path d="M277.6,514.6h0.7v0.6l0,0c0.1-0.2,0.3-0.4,0.4-0.5c0.2-0.1,0.4-0.2,0.6-0.2h0.1h0.1v0.8h-0.1c0,0-0.1,0-0.2,0
					c-0.3,0-0.5,0.1-0.7,0.3c-0.2,0.2-0.3,0.4-0.3,0.7v2.1h-0.7v-3.8H277.6z"/>
				<path d="M280.4,514.6h0.7v0.6l0,0c0.1-0.2,0.3-0.4,0.4-0.5c0.2-0.1,0.4-0.2,0.6-0.2h0.1h0.1v0.8h-0.1c0,0-0.1,0-0.2,0
					c-0.3,0-0.5,0.1-0.7,0.3c-0.2,0.2-0.3,0.4-0.3,0.7v2.1h-0.7v-3.8H280.4z"/>
				<path d="M283.6,514c-0.1,0-0.3,0-0.3-0.1c-0.1-0.1-0.1-0.2-0.1-0.3s0-0.3,0.1-0.3c0.1,0,0.2-0.1,0.3-0.1s0.2,0,0.3,0.1
					c0.1,0.1,0.1,0.2,0.1,0.3s0,0.2-0.1,0.3C283.9,513.9,283.8,514,283.6,514z M283.2,514.6h0.7v3.7h-0.7V514.6z"/>
				<path d="M284.7,514.6h0.8l1,2.9l1-2.9h0.8l-1.4,3.7h-0.7L284.7,514.6z"/>
				<path d="M292.2,517.1c0,0.2-0.1,0.4-0.1,0.5s-0.2,0.3-0.3,0.4c-0.1,0.1-0.3,0.2-0.5,0.3s-0.4,0.1-0.7,0.1c-0.3,0-0.6,0-0.8-0.1
					s-0.4-0.2-0.5-0.4s-0.3-0.4-0.3-0.6c-0.1-0.2-0.1-0.5-0.1-0.8s0-0.6,0.1-0.8c0.1-0.2,0.2-0.4,0.3-0.6c0.1-0.2,0.3-0.3,0.5-0.4
					c0.2-0.1,0.5-0.1,0.8-0.1c0.3,0,0.5,0,0.8,0.1c0.2,0.1,0.4,0.2,0.5,0.4s0.2,0.4,0.3,0.6c0.1,0.2,0.1,0.5,0.1,0.8v0.1h-2.6
					c0,0.4,0.1,0.7,0.3,0.9s0.4,0.3,0.7,0.3c0.3,0,0.5-0.1,0.6-0.2c0.2-0.1,0.3-0.3,0.3-0.6L292.2,517.1L292.2,517.1z M291.5,516.1
					c0-0.3-0.1-0.5-0.2-0.7c-0.2-0.2-0.4-0.3-0.7-0.3s-0.5,0.1-0.7,0.2c-0.2,0.1-0.3,0.4-0.3,0.7L291.5,516.1L291.5,516.1z
					 M291,513.2h0.9l-1,1h-0.6L291,513.2z"/>
				<path d="M296.4,517.1c0,0.2-0.1,0.4-0.1,0.5s-0.2,0.3-0.3,0.4c-0.1,0.1-0.3,0.2-0.5,0.3c-0.2,0.1-0.4,0.1-0.7,0.1
					s-0.6,0-0.8-0.1c-0.2-0.1-0.4-0.2-0.5-0.4c-0.1-0.2-0.3-0.4-0.3-0.6c-0.1-0.2-0.1-0.5-0.1-0.8s0-0.6,0.1-0.8s0.2-0.4,0.3-0.6
					c0.1-0.2,0.3-0.3,0.5-0.4c0.2-0.1,0.5-0.1,0.8-0.1s0.5,0,0.8,0.1c0.2,0.1,0.4,0.2,0.5,0.4c0.1,0.2,0.2,0.4,0.3,0.6
					c0.1,0.2,0.1,0.5,0.1,0.8v0.1h-2.6c0,0.4,0.1,0.7,0.3,0.9c0.2,0.2,0.4,0.3,0.7,0.3s0.5-0.1,0.6-0.2c0.2-0.1,0.3-0.3,0.3-0.6
					L296.4,517.1L296.4,517.1z M295.7,516.1c0-0.3-0.1-0.5-0.2-0.7c-0.2-0.2-0.4-0.3-0.7-0.3c-0.3,0-0.5,0.1-0.7,0.2
					s-0.3,0.4-0.3,0.7L295.7,516.1L295.7,516.1z"/>
			</g>
		</g>
		<g id="XMLID_362_">
			<rect id="XMLID_406_" x="184.5" y="561.4" class="st4" width="61.4" height="24.9"/>
			<g class="st5">
				<path d="M189.5,565.7c-0.2,0.3-0.5,0.6-0.8,0.7c-0.3,0.2-0.7,0.3-1.2,0.3c-0.4,0-0.7-0.1-1-0.2c-0.3-0.1-0.6-0.3-0.8-0.5
					s-0.4-0.5-0.5-0.8s-0.2-0.7-0.2-1.1c0-0.4,0.1-0.8,0.2-1.1s0.3-0.6,0.5-0.8s0.5-0.4,0.8-0.5s0.6-0.2,1-0.2c1,0,1.6,0.4,2.1,1.2
					l-0.7,0.4c-0.1-0.3-0.3-0.5-0.6-0.6c-0.2-0.1-0.5-0.2-0.8-0.2c-0.2,0-0.5,0-0.7,0.1s-0.4,0.2-0.5,0.4s-0.2,0.4-0.3,0.6
					c-0.1,0.2-0.1,0.5-0.1,0.8s0,0.6,0.1,0.8s0.2,0.5,0.3,0.6c0.1,0.2,0.3,0.3,0.5,0.4c0.2,0.1,0.4,0.1,0.7,0.1
					c0.3,0,0.5-0.1,0.8-0.2c0.2-0.1,0.4-0.3,0.6-0.5L189.5,565.7z"/>
				<path d="M192.2,566.7c-0.3,0-0.5,0-0.8-0.1s-0.4-0.2-0.6-0.4c-0.2-0.2-0.3-0.4-0.4-0.6c-0.1-0.2-0.1-0.5-0.1-0.8s0-0.6,0.1-0.8
					s0.2-0.4,0.4-0.6c0.2-0.2,0.4-0.3,0.6-0.4c0.2-0.1,0.5-0.1,0.8-0.1s0.5,0,0.8,0.1c0.2,0.1,0.4,0.2,0.6,0.4
					c0.2,0.2,0.3,0.4,0.4,0.6s0.1,0.5,0.1,0.8s0,0.6-0.1,0.8s-0.2,0.4-0.4,0.6c-0.2,0.2-0.4,0.3-0.6,0.4
					C192.8,566.6,192.5,566.7,192.2,566.7z M192.2,566.1c0.4,0,0.6-0.1,0.8-0.4c0.2-0.2,0.3-0.6,0.3-1s-0.1-0.8-0.3-1
					c-0.2-0.2-0.5-0.4-0.8-0.4s-0.6,0.1-0.8,0.4c-0.2,0.2-0.3,0.6-0.3,1s0.1,0.7,0.3,1C191.6,566,191.9,566.1,192.2,566.1z"/>
				<path d="M195.1,562.9h0.7v0.6l0,0c0.1-0.2,0.3-0.4,0.5-0.5c0.2-0.1,0.4-0.2,0.8-0.2c0.4,0,0.8,0.1,0.9,0.4
					c0.2,0.2,0.3,0.6,0.3,1v2.5h-0.7v-2.2c0-0.3-0.1-0.5-0.2-0.7s-0.3-0.2-0.6-0.2c-0.3,0-0.5,0.1-0.7,0.3c-0.2,0.2-0.3,0.4-0.3,0.8
					v2.1h-0.7V562.9L195.1,562.9z"/>
				<path d="M199.5,563.5H199v-0.6h0.5v-1h0.7v1h0.9v0.6h-0.9v2c0,0.2,0,0.3,0.1,0.4c0.1,0.1,0.2,0.1,0.4,0.1c0.1,0,0.1,0,0.2,0
					s0.1,0,0.2,0v0.7c-0.1,0-0.2,0-0.2,0s-0.2,0-0.3,0c-0.4,0-0.6-0.1-0.8-0.3s-0.3-0.5-0.3-0.9L199.5,563.5L199.5,563.5z"/>
				<path d="M202,562.9h0.7v0.6l0,0c0.1-0.2,0.3-0.4,0.4-0.5c0.2-0.1,0.4-0.2,0.6-0.2h0.1h0.1v0.8h-0.1c0,0-0.1,0-0.2,0
					c-0.3,0-0.5,0.1-0.7,0.3c-0.2,0.2-0.3,0.4-0.3,0.7v2.1H202V562.9z"/>
				<path d="M207.9,565.3c0,0.2-0.1,0.4-0.1,0.5s-0.2,0.3-0.3,0.4c-0.1,0.1-0.3,0.2-0.5,0.3s-0.4,0.1-0.7,0.1c-0.3,0-0.6,0-0.8-0.1
					s-0.4-0.2-0.5-0.4s-0.3-0.4-0.3-0.6c-0.1-0.2-0.1-0.5-0.1-0.8s0-0.6,0.1-0.8s0.2-0.4,0.3-0.6c0.1-0.2,0.3-0.3,0.5-0.4
					c0.2-0.1,0.5-0.1,0.8-0.1s0.5,0,0.8,0.1c0.2,0.1,0.4,0.2,0.5,0.4s0.2,0.4,0.3,0.6c0.1,0.2,0.1,0.5,0.1,0.8v0.1h-2.6
					c0,0.4,0.1,0.7,0.3,0.9c0.2,0.2,0.4,0.3,0.7,0.3c0.3,0,0.5-0.1,0.6-0.2c0.2-0.1,0.3-0.3,0.3-0.6L207.9,565.3L207.9,565.3z
					 M207.2,564.4c0-0.3-0.1-0.5-0.2-0.7c-0.2-0.2-0.4-0.3-0.7-0.3s-0.5,0.1-0.7,0.2s-0.3,0.4-0.3,0.7L207.2,564.4L207.2,564.4z"/>
				<path d="M208.8,564.1h1.9v0.7h-1.9V564.1z"/>
				<path d="M211.8,561.4h0.7v5.2h-0.7V561.4z"/>
				<path d="M215.9,566.1L215.9,566.1c-0.1,0.2-0.3,0.3-0.5,0.4c-0.2,0.1-0.5,0.2-0.8,0.2c-0.2,0-0.4,0-0.5-0.1s-0.3-0.1-0.4-0.2
					s-0.2-0.2-0.2-0.3s-0.1-0.2-0.1-0.4c0-0.3,0.1-0.5,0.2-0.6c0.1-0.1,0.3-0.3,0.5-0.3c0.2-0.1,0.4-0.1,0.6-0.2
					c0.2,0,0.4-0.1,0.6-0.1c0.1,0,0.3,0,0.3-0.1s0.1,0,0.2-0.1l0.1-0.1c0,0,0-0.1,0-0.2c0-0.2-0.1-0.4-0.2-0.5
					c-0.1-0.1-0.3-0.2-0.6-0.2c-0.2,0-0.4,0.1-0.6,0.2c-0.1,0.1-0.2,0.3-0.2,0.5h-0.7c0-0.4,0.2-0.7,0.4-1c0.2-0.2,0.6-0.3,1.1-0.3
					s0.9,0.1,1.1,0.4c0.2,0.2,0.4,0.6,0.4,1.1v2.3h-0.7L215.9,566.1L215.9,566.1z M215.9,564.8c-0.2,0.1-0.4,0.1-0.6,0.1
					c-0.2,0-0.4,0.1-0.6,0.1s-0.3,0.1-0.4,0.2s-0.2,0.2-0.2,0.4s0.1,0.3,0.2,0.4c0.1,0.1,0.3,0.1,0.5,0.1s0.3,0,0.4-0.1
					s0.2-0.1,0.3-0.2c0.1-0.1,0.2-0.2,0.2-0.3c0.1-0.1,0.1-0.3,0.1-0.4v-0.3H215.9z"/>
				<path d="M217.7,564.1h1.9v0.7h-1.9V564.1z"/>
				<path d="M220.7,562.9h0.7v0.6l0,0c0.1-0.2,0.3-0.4,0.4-0.5c0.2-0.1,0.4-0.2,0.7-0.2s0.5,0.1,0.7,0.2c0.2,0.1,0.3,0.3,0.4,0.5
					l0,0c0.1-0.2,0.3-0.4,0.5-0.5s0.4-0.2,0.7-0.2c0.4,0,0.7,0.1,0.9,0.3s0.3,0.6,0.3,1v2.5h-0.7v-2.2c0-0.3-0.1-0.6-0.2-0.7
					c-0.1-0.1-0.3-0.2-0.5-0.2c-0.3,0-0.5,0.1-0.6,0.2c-0.2,0.2-0.2,0.4-0.2,0.7v2.2h-0.7v-2.2c0-0.3,0-0.5-0.1-0.7
					s-0.3-0.2-0.5-0.2c-0.3,0-0.5,0.1-0.6,0.3c-0.2,0.2-0.2,0.4-0.2,0.8v2.1H221v-3.8H220.7z"/>
				<path d="M228.8,566.7c-0.3,0-0.5,0-0.8-0.1s-0.4-0.2-0.6-0.4c-0.2-0.2-0.3-0.4-0.4-0.6c-0.1-0.2-0.1-0.5-0.1-0.8s0-0.6,0.1-0.8
					s0.2-0.4,0.4-0.6s0.4-0.3,0.6-0.4c0.2-0.1,0.5-0.1,0.8-0.1s0.5,0,0.8,0.1c0.2,0.1,0.4,0.2,0.6,0.4c0.2,0.2,0.3,0.4,0.4,0.6
					s0.1,0.5,0.1,0.8s0,0.6-0.1,0.8s-0.2,0.4-0.4,0.6c-0.2,0.2-0.4,0.3-0.6,0.4C229.3,566.6,229,566.7,228.8,566.7z M228.8,566.1
					c0.4,0,0.6-0.1,0.8-0.4c0.2-0.2,0.3-0.6,0.3-1s-0.1-0.8-0.3-1s-0.5-0.4-0.8-0.4s-0.6,0.1-0.8,0.4c-0.2,0.2-0.3,0.6-0.3,1
					s0.1,0.7,0.3,1C228.1,566,228.4,566.1,228.8,566.1z"/>
				<path d="M231.6,562.9h0.7v0.6l0,0c0.1-0.2,0.3-0.4,0.5-0.5s0.4-0.2,0.8-0.2c0.4,0,0.8,0.1,0.9,0.4c0.2,0.2,0.3,0.6,0.3,1v2.5
					h-0.7v-2.2c0-0.3-0.1-0.5-0.2-0.7c-0.1-0.2-0.3-0.2-0.6-0.2s-0.5,0.1-0.7,0.3s-0.3,0.4-0.3,0.8v2.1h-0.7V562.9z"/>
				<path d="M236,563.5h-0.5v-0.6h0.5v-1h0.7v1h0.9v0.6h-0.9v2c0,0.2,0,0.3,0.1,0.4c0.1,0.1,0.2,0.1,0.4,0.1c0.1,0,0.1,0,0.2,0
					c0.1,0,0.1,0,0.2,0v0.7c-0.1,0-0.2,0-0.2,0s-0.2,0-0.3,0c-0.4,0-0.6-0.1-0.8-0.3s-0.3-0.5-0.3-0.9L236,563.5L236,563.5z"/>
				<path d="M238.5,562.9h0.7v0.6l0,0c0.1-0.2,0.3-0.4,0.4-0.5c0.2-0.1,0.4-0.2,0.6-0.2h0.1h0.1v0.8h-0.1c0,0-0.1,0-0.2,0
					c-0.3,0-0.5,0.1-0.7,0.3s-0.3,0.4-0.3,0.7v2.1h-0.7L238.5,562.9L238.5,562.9z"/>
				<path d="M244.4,565.3c0,0.2-0.1,0.4-0.1,0.5s-0.2,0.3-0.3,0.4c-0.1,0.1-0.3,0.2-0.5,0.3s-0.4,0.1-0.7,0.1s-0.6,0-0.8-0.1
					s-0.4-0.2-0.5-0.4s-0.3-0.4-0.3-0.6c-0.1-0.2-0.1-0.5-0.1-0.8s0-0.6,0.1-0.8s0.2-0.4,0.3-0.6c0.1-0.2,0.3-0.3,0.5-0.4
					c0.2-0.1,0.5-0.1,0.8-0.1s0.5,0,0.8,0.1c0.2,0.1,0.4,0.2,0.5,0.4s0.2,0.4,0.3,0.6c0.1,0.2,0.1,0.5,0.1,0.8v0.1h-2.6
					c0,0.4,0.1,0.7,0.3,0.9s0.4,0.3,0.7,0.3s0.5-0.1,0.6-0.2c0.2-0.1,0.3-0.3,0.3-0.6L244.4,565.3L244.4,565.3z M243.7,564.4
					c0-0.3-0.1-0.5-0.2-0.7c-0.2-0.2-0.4-0.3-0.7-0.3s-0.5,0.1-0.7,0.2s-0.3,0.4-0.3,0.7L243.7,564.4L243.7,564.4z"/>
			</g>
		</g>
		<g id="XMLID_358_">
			<polygon id="XMLID_361_" class="st8" points="275.9,553.9 278.7,544.2 281.8,549.8 285.7,538 290.1,547.3 293,543.8 295.4,553.9 
							"/>
			<polygon id="XMLID_360_" class="st9" points="283.4,544.2 285.1,546.5 286.4,544.6 287.5,545.7 289,544.2 285.7,538 			"/>
			<polygon id="XMLID_359_" class="st9" points="277.7,547.9 279.4,550.3 280.7,547.8 278.7,544.2 			"/>
		</g>
		<g id="XMLID_354_">
			<rect id="XMLID_409_" x="267" y="561.4" class="st4" width="37.4" height="24.9"/>
			<g class="st5">
				<path d="M269.1,561.4h1.1l1.4,3l1.4-3h1v5.2h-0.8v-4l-1.4,2.8h-0.6l-1.4-2.8v4H269v-5.2H269.1z"/>
				<path d="M276.9,566.7c-0.3,0-0.5,0-0.8-0.1c-0.3-0.1-0.4-0.2-0.6-0.4s-0.3-0.4-0.4-0.6c-0.1-0.2-0.1-0.5-0.1-0.8s0-0.6,0.1-0.8
					c0.1-0.2,0.2-0.4,0.4-0.6c0.2-0.2,0.4-0.3,0.6-0.4c0.2-0.1,0.5-0.1,0.8-0.1s0.5,0,0.8,0.1c0.2,0.1,0.4,0.2,0.6,0.4
					s0.3,0.4,0.4,0.6c0.1,0.2,0.1,0.5,0.1,0.8s0,0.6-0.1,0.8c-0.1,0.2-0.2,0.4-0.4,0.6c-0.2,0.2-0.4,0.3-0.6,0.4
					C277.4,566.6,277.2,566.7,276.9,566.7z M276.9,566.1c0.4,0,0.6-0.1,0.8-0.4c0.2-0.2,0.3-0.6,0.3-1s-0.1-0.8-0.3-1
					c-0.2-0.2-0.5-0.4-0.8-0.4s-0.6,0.1-0.8,0.4c-0.2,0.2-0.3,0.6-0.3,1s0.1,0.7,0.3,1C276.3,566,276.5,566.1,276.9,566.1z"/>
				<path d="M279.7,562.9h0.7v0.6l0,0c0.1-0.2,0.3-0.4,0.5-0.5s0.4-0.2,0.8-0.2c0.4,0,0.8,0.1,0.9,0.4c0.2,0.2,0.3,0.6,0.3,1v2.5
					h-0.7v-2.2c0-0.3-0.1-0.5-0.2-0.7c-0.1-0.2-0.3-0.2-0.6-0.2s-0.5,0.1-0.7,0.3c-0.2,0.2-0.3,0.4-0.3,0.8v2.1h-0.7V562.9z"/>
				<path d="M284.1,563.5h-0.5v-0.6h0.5v-1h0.7v1h0.9v0.6h-0.9v2c0,0.2,0,0.3,0.1,0.4c0.1,0.1,0.2,0.1,0.4,0.1c0.1,0,0.1,0,0.2,0
					c0.1,0,0.1,0,0.2,0v0.7c-0.1,0-0.2,0-0.2,0s-0.2,0-0.3,0c-0.4,0-0.6-0.1-0.8-0.3s-0.3-0.5-0.3-0.9L284.1,563.5L284.1,563.5z"/>
				<path d="M288.8,566.1L288.8,566.1c-0.1,0.2-0.3,0.3-0.5,0.4c-0.2,0.1-0.5,0.2-0.8,0.2c-0.2,0-0.4,0-0.5-0.1s-0.3-0.1-0.4-0.2
					s-0.2-0.2-0.2-0.3s-0.1-0.2-0.1-0.4c0-0.3,0.1-0.5,0.2-0.6c0.1-0.1,0.3-0.3,0.5-0.3c0.2-0.1,0.4-0.1,0.6-0.2
					c0.2,0,0.4-0.1,0.6-0.1c0.1,0,0.3,0,0.3-0.1s0.1,0,0.2-0.1l0.1-0.1c0,0,0-0.1,0-0.2c0-0.2-0.1-0.4-0.2-0.5
					c-0.1-0.1-0.3-0.2-0.6-0.2c-0.2,0-0.4,0.1-0.6,0.2c-0.1,0.1-0.2,0.3-0.2,0.5h-0.7c0-0.4,0.2-0.7,0.4-1c0.2-0.2,0.6-0.3,1.1-0.3
					s0.9,0.1,1.1,0.4c0.2,0.2,0.4,0.6,0.4,1.1v2.3h-0.7L288.8,566.1L288.8,566.1z M288.8,564.8c-0.2,0.1-0.4,0.1-0.6,0.1
					s-0.4,0.1-0.6,0.1s-0.3,0.1-0.4,0.2c-0.1,0.1-0.2,0.2-0.2,0.4s0.1,0.3,0.2,0.4c0.1,0.1,0.3,0.1,0.5,0.1c0.2,0,0.3,0,0.4-0.1
					c0.1-0.1,0.2-0.1,0.3-0.2c0.1-0.1,0.2-0.2,0.2-0.3c0.1-0.1,0.1-0.3,0.1-0.4L288.8,564.8L288.8,564.8z"/>
				<path d="M294,562.9v0.6h-0.7c0.1,0.1,0.1,0.2,0.2,0.3c0,0.1,0.1,0.2,0.1,0.4s0,0.4-0.1,0.6c-0.1,0.2-0.2,0.3-0.3,0.4
					c-0.1,0.1-0.3,0.2-0.5,0.3c-0.2,0.1-0.4,0.1-0.6,0.1c-0.3,0-0.5-0.1-0.7-0.2c-0.1,0.1-0.1,0.1-0.2,0.2c0,0-0.1,0.1-0.1,0.2
					c0,0.1,0,0.1,0.1,0.2c0.1,0,0.2,0.1,0.3,0.1s0.3,0,0.5,0s0.3,0,0.5,0s0.4,0,0.5,0.1c0.2,0,0.3,0.1,0.5,0.1
					c0.1,0.1,0.2,0.2,0.3,0.3c0.1,0.1,0.1,0.3,0.1,0.4c0,0.1,0,0.3-0.1,0.4c-0.1,0.1-0.2,0.2-0.3,0.3s-0.3,0.2-0.6,0.2
					c-0.2,0.1-0.6,0.1-0.9,0.1s-0.6,0-0.8-0.1c-0.2,0-0.4-0.1-0.5-0.2c-0.1-0.1-0.2-0.2-0.3-0.3s-0.1-0.2-0.1-0.3
					c0-0.2,0-0.3,0.1-0.4s0.2-0.2,0.4-0.3c-0.1-0.1-0.2-0.1-0.3-0.2c-0.1-0.1-0.1-0.2-0.1-0.3c0-0.2,0-0.3,0.1-0.4
					c0.1-0.1,0.2-0.2,0.4-0.3c-0.1-0.1-0.2-0.3-0.3-0.4s-0.1-0.4-0.1-0.6c0-0.2,0-0.4,0.1-0.6c0.1-0.2,0.2-0.3,0.3-0.4
					c0.1-0.1,0.3-0.2,0.5-0.3c0.2-0.1,0.4-0.1,0.6-0.1c0.1,0,0.2,0,0.3,0s0.2,0,0.2,0.1L294,562.9L294,562.9z M293.3,567.1
					c0-0.1-0.1-0.2-0.2-0.3s-0.3-0.1-0.5-0.1s-0.4,0-0.6,0s-0.5,0-0.7-0.1c-0.1,0.1-0.2,0.2-0.2,0.3s-0.1,0.1-0.1,0.2
					c0,0.2,0.1,0.3,0.3,0.4c0.2,0.1,0.5,0.1,0.9,0.1c0.4,0,0.7,0,0.8-0.1C293.2,567.3,293.3,567.2,293.3,567.1z M292.1,565
					c0.2,0,0.4-0.1,0.6-0.2c0.1-0.1,0.2-0.4,0.2-0.6c0-0.3-0.1-0.5-0.2-0.6c-0.1-0.1-0.3-0.2-0.6-0.2s-0.4,0.1-0.6,0.2
					c-0.1,0.1-0.2,0.4-0.2,0.6c0,0.3,0.1,0.5,0.2,0.6C291.7,565,291.9,565,292.1,565z"/>
				<path d="M295,562.9h0.7v0.6l0,0c0.1-0.2,0.3-0.4,0.5-0.5c0.2-0.1,0.4-0.2,0.8-0.2c0.4,0,0.8,0.1,0.9,0.4c0.2,0.2,0.3,0.6,0.3,1
					v2.5h-0.7v-2.2c0-0.3-0.1-0.5-0.2-0.7c-0.1-0.2-0.3-0.2-0.6-0.2c-0.3,0-0.5,0.1-0.7,0.3s-0.3,0.4-0.3,0.8v2.1H295V562.9z"/>
				<path d="M302.5,565.3c0,0.2-0.1,0.4-0.1,0.5s-0.2,0.3-0.3,0.4c-0.1,0.1-0.3,0.2-0.5,0.3c-0.2,0.1-0.4,0.1-0.7,0.1
					s-0.6,0-0.8-0.1c-0.2-0.1-0.4-0.2-0.5-0.4c-0.1-0.2-0.3-0.4-0.3-0.6c-0.1-0.2-0.1-0.5-0.1-0.8s0-0.6,0.1-0.8s0.2-0.4,0.3-0.6
					c0.1-0.2,0.3-0.3,0.5-0.4c0.2-0.1,0.5-0.1,0.8-0.1s0.5,0,0.8,0.1c0.2,0.1,0.4,0.2,0.5,0.4c0.1,0.2,0.2,0.4,0.3,0.6
					c0.1,0.2,0.1,0.5,0.1,0.8v0.1H300c0,0.4,0.1,0.7,0.3,0.9c0.2,0.2,0.4,0.3,0.7,0.3s0.5-0.1,0.6-0.2c0.2-0.1,0.3-0.3,0.3-0.6
					L302.5,565.3L302.5,565.3z M301.8,564.4c0-0.3-0.1-0.5-0.2-0.7c-0.2-0.2-0.4-0.3-0.7-0.3c-0.3,0-0.5,0.1-0.7,0.2
					s-0.3,0.4-0.3,0.7L301.8,564.4L301.8,564.4z"/>
			</g>
		</g>
		<g>
			<line class="st10" x1="222.4" y1="538.7" x2="224.6" y2="536.5"/>
			<line class="st10" x1="213.6" y1="538.7" x2="211.4" y2="536.5"/>
			<g id="XMLID_352_">
				<circle id="XMLID_353_" class="st11" cx="218.1" cy="545.8" r="8.1"/>
			</g>
			<polyline class="st12" points="217.5,543 217.5,546.5 220.2,549.8 			"/>
			<line class="st10" x1="218" y1="538" x2="218" y2="535"/>
		</g>
	</g>
</g>
<g>
	<path class="st13" d="M399.8,364.9c-3.8-1.6-7.2-0.8-10.8-0.1c-3.4,0.7-6.6,1.4-9.7,0.1c-0.3-0.1-1.1-0.1-1.4,0.1s-0.9,0.5-0.9,0.8
		v14c0,0.1,0,0.2,0,0.3v10c0,0.6,0.4,1,1,1s1-0.4,1-1v-8.5c2,0.3,2.8,0.5,3.9,0.5c2.1,0,4.4-0.4,6.5-0.9c3.4-0.7,6.8-1.4,10-0.1
		c0.3,0.1,0.3,0.1,0.6-0.1c0.3-0.2,0.1-0.5,0.1-0.8v-14.4C400,365.4,400.2,365,399.8,364.9z M398,378.8c-3-0.9-6.6-0.2-9.7,0.4
		c-3.2,0.7-6.3,1.3-9.3,0.3v-12.3c3,0.9,6.6,0.2,9.7-0.4c3.2-0.7,6.3-1.3,9.3-0.3V378.8z"/>
</g>
<g>
	<g id="XMLID_2184_">
		<path id="XMLID_2865_" class="st14" d="M386.9,395.3c0,0,30.5-20.4,60.9-4.7"/>
		<path id="XMLID_2842_" class="st14" d="M513.7,485.7c0,0-56.5-13.9-53.4-85.2"/>
		<g id="XMLID_2839_">
			<path id="XMLID_1291_" class="st7" d="M455.1,386c-4.5,0-8.1,3.6-8.1,8.1s3.6,8.1,8.1,8.1"/>
			<path id="XMLID_1158_" class="st6" d="M455.1,402.3c4.5,0,8.1-3.6,8.1-8.1s-3.6-8.1-8.1-8.1"/>
		</g>
		<path id="XMLID_2838_" class="st14" d="M448,540.8c0,0,61.1,9.4,78.5-45.2"/>
		<g id="XMLID_2835_">
			<path id="XMLID_1145_" class="st7" d="M519.8,482.8c-4.5,0-8.1,3.6-8.1,8.1s3.6,8.1,8.1,8.1"/>
			<path id="XMLID_351_" class="st6" d="M519.8,499.1c4.5,0,8.1-3.6,8.1-8.1s-3.6-8.1-8.1-8.1"/>
		</g>
		<path id="XMLID_2834_" class="st14" d="M442.4,648.2c0,0-24.2-52.4-9.6-104.7"/>
		<g id="XMLID_2831_">
			<path id="XMLID_1149_" class="st7" d="M439.9,548.9c4.5,0,8.1-3.6,8.1-8.1s-3.6-8.1-8.1-8.1"/>
			<path id="XMLID_1147_" class="st6" d="M439.9,532.7c-4.5,0-8.1,3.6-8.1,8.1s3.6,8.1,8.1,8.1"/>
		</g>
		<path id="XMLID_2830_" class="st14" d="M469.1,682c0,0-30,2.5-39.2-23.5"/>
		<g id="XMLID_2827_">
			<path id="XMLID_1156_" class="st7" d="M436.9,662.3c4.5,0,8.1-3.6,8.1-8.1s-3.6-8.1-8.1-8.1"/>
			<path id="XMLID_350_" class="st6" d="M436.9,646c-4.5,0-8.1,3.6-8.1,8.1s3.6,8.1,8.1,8.1"/>
		</g>
		<path id="XMLID_84_" class="st14" d="M486.9,653c1.8-0.8,4.1,0,4.7,4.3"/>
		<path id="XMLID_83_" class="st14" d="M479.2,670.7c-2.4-2.4-2.3-5.7-1.2-7.9"/>
		<g id="XMLID_2822_">
			<path id="XMLID_1155_" class="st7" d="M476.6,670.7c-4.5,0-8.1,3.6-8.1,8.1s3.6,8.1,8.1,8.1"/>
			<path id="XMLID_1154_" class="st6" d="M476.6,686.9c4.5,0,8.1-3.6,8.1-8.1s-3.6-8.1-8.1-8.1"/>
		</g>
		<path id="XMLID_2821_" class="st14" d="M502.6,668.6c28.1,20.8,36.9-13.7,19.9-26.8"/>
		<g id="XMLID_2818_">
			<path id="XMLID_1153_" class="st7" d="M495.7,656.2c-4.5,0-8.1,3.6-8.1,8.1s3.6,8.1,8.1,8.1"/>
			<path id="XMLID_1152_" class="st6" d="M495.7,672.4c4.5,0,8.1-3.6,8.1-8.1s-3.6-8.1-8.1-8.1"/>
		</g>
		<path id="XMLID_2817_" class="st14" d="M522.4,633c0,0,48.3-28.2,96.5-1.3"/>
		<path id="XMLID_2816_" class="st14" d="M710.2,643.1c0,0,29.6-8.2,28.9-62"/>
		<path id="XMLID_2815_" class="st15" d="M757.5,535.3c0.5-16-14.1-20.2-25-11.9"/>
		<path id="XMLID_2813_" class="st15" d="M711.1,540c0,0-2.8-0.9-2.8-10.7c0-23.7,53.9-28.3,52.7-55.7"/>
		<g id="XMLID_2809_">
			<polygon id="XMLID_2812_" class="st8" points="743.8,526 746.6,516.2 749.7,521.9 753.6,510.1 758,519.3 760.9,515.9 763.4,526 
							"/>
			<polygon id="XMLID_2811_" class="st9" points="751.3,516.2 753.1,518.5 754.3,516.7 755.4,517.8 757,516.2 753.6,510.1 			"/>
			<polygon id="XMLID_2810_" class="st9" points="745.6,520 747.3,522.4 748.6,519.9 746.6,516.2 			"/>
		</g>
		<g id="XMLID_2303_">
			<polygon id="XMLID_2808_" class="st8" points="439.1,682 441.9,672.2 445,677.9 448.9,666.1 453.3,675.3 456.2,671.9 458.6,682 
							"/>
			<polygon id="XMLID_2807_" class="st9" points="446.6,672.2 448.3,674.5 449.6,672.7 450.7,673.8 452.2,672.2 448.9,666.1 			"/>
			<polygon id="XMLID_2304_" class="st9" points="440.8,676 442.6,678.4 443.9,675.9 441.9,672.2 			"/>
		</g>
		<g id="XMLID_2299_">
			<polygon id="XMLID_2302_" class="st8" points="737.6,501 740.4,491.3 743.5,496.9 747.4,485.1 751.8,494.4 754.7,490.9 
				757.2,501 			"/>
			<polygon id="XMLID_2301_" class="st9" points="745.1,491.3 746.8,493.6 748.1,491.7 749.2,492.8 750.7,491.3 747.4,485.1 			"/>
			<polygon id="XMLID_2300_" class="st9" points="739.3,495 741.1,497.5 742.4,494.9 740.4,491.3 			"/>
		</g>
		<path id="XMLID_2298_" class="st15" d="M718.1,485.7c-14.5-5.8-27.6,2.5-25,21.7"/>
		<g id="XMLID_2280_">
			<polygon id="XMLID_2288_" class="st8" points="690.5,492.3 693.3,482.6 696.4,488.2 700.2,476.4 704.6,485.7 707.6,482.2 
				710,492.3 			"/>
			<polygon id="XMLID_2286_" class="st9" points="698,482.6 699.7,484.9 700.9,483 702,484.1 703.6,482.6 700.2,476.4 			"/>
			<polygon id="XMLID_2284_" class="st9" points="692.2,486.3 693.9,488.8 695.3,486.2 693.3,482.6 			"/>
		</g>
		<path id="XMLID_2257_" class="st15" d="M702.9,520.2c-10.7,18.3-36.4,9.7-43.1-3.9"/>
		<g id="XMLID_2231_">
			<path id="XMLID_1151_" class="st7" d="M697.5,506c-4.5,0-8.1,3.6-8.1,8.1s3.6,8.1,8.1,8.1"/>
			<path id="XMLID_1150_" class="st6" d="M697.5,522.3c4.5,0,8.1-3.6,8.1-8.1s-3.6-8.1-8.1-8.1"/>
		</g>
		<path id="XMLID_2230_" class="st15" d="M679.5,409.7c0,0,16,27.2-1.2,72"/>
		<path id="XMLID_2229_" class="st15" d="M738.4,396.2c0,0,4.5-46.7,56.9-91.9"/>
		<path id="XMLID_2226_" class="st15" d="M739.4,287.2c0,0-55-31-45.2-94.7"/>
		<path id="XMLID_2222_" class="st15" d="M646.6,173.5c0,0-7.7,15.6-30.7,15.6"/>
		<path id="XMLID_349_" class="st15" d="M525.9,261c0,0,53.6-12.2,76.3-65.9"/>
		<g id="XMLID_348_">
			<path id="XMLID_1350_" class="st7" d="M607.7,197.3c4.5,0,8.1-3.6,8.1-8.1s-3.6-8.1-8.1-8.1"/>
			<path id="XMLID_1349_" class="st6" d="M607.7,181c-4.5,0-8.1,3.6-8.1,8.1s3.6,8.1,8.1,8.1"/>
		</g>
		<path id="XMLID_1142_" class="st14" d="M576.4,291.4c-3,1.2-5.2,3.9-5.2,8.4"/>
		<path id="XMLID_1141_" class="st14" d="M564.3,313.6c0,0,27.8,0.2,25.6-15.6c-0.4-3-2.5-5.2-5.2-6.4"/>
		<path id="XMLID_2214_" class="st16" d="M666.5,508.6c0,0,8.5,0,9.2-10.7"/>
		<path id="XMLID_347_" class="st16" d="M752.7,465.4c0,0-10.8,1.8-22.1,18"/>
		<path id="XMLID_346_" class="st16" d="M687.6,404.4c0,0,20.6,16.4,43,2.4"/>
		<path id="XMLID_345_" class="st16" d="M791.4,297.3c0,0-27.3,37.5-57.3,24.3"/>
		<path id="XMLID_344_" class="st16" d="M689.9,177.4c0,0-12-16.5-35.3-13.4"/>
		<path id="XMLID_343_" class="st16" d="M515.7,271.4c0,0-8.2,37.4,32.2,40.4"/>
		<path id="XMLID_342_" class="st16" d="M634.1,630.3c0,0,32.4-14.5,62.3,11.5"/>
		<path id="XMLID_2207_" class="st16" d="M747.3,572.9c0,0,18.4-2.4,12.8-21.7"/>
		<path id="XMLID_1303_" class="st7" d="M627.1,642.6c-4.5,0-8.2-3.7-8.2-8.2s3.7-8.2,8.2-8.2s8.2,3.7,8.2,8.2
			S631.6,642.6,627.1,642.6z"/>
		<path id="XMLID_1197_" class="st6" d="M702.9,654.8c-4.5,0-8.2-3.7-8.2-8.2s3.7-8.2,8.2-8.2s8.2,3.7,8.2,8.2
			S707.4,654.8,702.9,654.8z"/>
		<path id="XMLID_1302_" class="st7" d="M739.1,581.1c-4.5,0-8.2-3.7-8.2-8.2s3.7-8.2,8.2-8.2s8.2,3.7,8.2,8.2
			S743.6,581.1,739.1,581.1z"/>
		<path id="XMLID_1301_" class="st7" d="M760.9,473.6c-4.5,0-8.2-3.7-8.2-8.2s3.7-8.2,8.2-8.2s8.2,3.7,8.2,8.2
			S765.4,473.6,760.9,473.6z"/>
		<path id="XMLID_1186_" class="st6" d="M725,498c-4.5,0-8.2-3.7-8.2-8.2s3.7-8.2,8.2-8.2s8.2,3.7,8.2,8.2S729.5,498,725,498z"/>
		<path id="XMLID_1300_" class="st7" d="M658.4,516.8c-4.5,0-8.2-3.7-8.2-8.2s3.7-8.2,8.2-8.2s8.2,3.7,8.2,8.2
			S662.9,516.8,658.4,516.8z"/>
		<path id="XMLID_1184_" class="st6" d="M675.7,498c-4.5,0-8.2-3.7-8.2-8.2s3.7-8.2,8.2-8.2s8.2,3.7,8.2,8.2S680.2,498,675.7,498z"
			/>
		<path id="XMLID_1299_" class="st7" d="M679.5,409.7c-4.5,0-8.2-3.7-8.2-8.2s3.7-8.2,8.2-8.2s8.2,3.7,8.2,8.2
			S684,409.7,679.5,409.7z"/>
		<path id="XMLID_1297_" class="st7" d="M799.5,305.5c-4.5,0-8.2-3.7-8.2-8.2s3.7-8.2,8.2-8.2s8.2,3.7,8.2,8.2
			S804,305.5,799.5,305.5z"/>
		<path id="XMLID_1164_" class="st6" d="M738.4,412.6c-4.5,0-8.2-3.7-8.2-8.2s3.7-8.2,8.2-8.2s8.2,3.7,8.2,8.2
			S742.9,412.6,738.4,412.6z"/>
		<path id="XMLID_1296_" class="st7" d="M694.2,192.4c-4.5,0-8.2-3.7-8.2-8.2s3.7-8.2,8.2-8.2s8.2,3.7,8.2,8.2
			S698.7,192.4,694.2,192.4z"/>
		<path id="XMLID_1163_" class="st6" d="M646.6,173.5c-4.5,0-8.2-3.7-8.2-8.2s3.7-8.2,8.2-8.2s8.2,3.7,8.2,8.2
			S651.1,173.5,646.6,173.5z"/>
		<path id="XMLID_1294_" class="st7" d="M518.2,271.7c-4.5,0-8.2-3.7-8.2-8.2s3.7-8.2,8.2-8.2s8.2,3.7,8.2,8.2
			S522.7,271.7,518.2,271.7z"/>
		<path id="XMLID_1162_" class="st6" d="M556.1,321.7c-4.5,0-8.2-3.7-8.2-8.2s3.7-8.2,8.2-8.2s8.2,3.7,8.2,8.2
			S560.6,321.7,556.1,321.7z"/>
		<path id="XMLID_2188_" class="st16" d="M733.2,532.7c9,6.1,1.4,21.2-9.3,16.7"/>
		<path id="XMLID_1292_" class="st7" d="M725.9,536.4c-4.5,0-8.2-3.7-8.2-8.2s3.7-8.2,8.2-8.2s8.2,3.7,8.2,8.2
			S730.4,536.4,725.9,536.4z"/>
		<path id="XMLID_1161_" class="st6" d="M715.8,555.1c-4.5,0-8.2-3.7-8.2-8.2s3.7-8.2,8.2-8.2s8.2,3.7,8.2,8.2
			S720.3,555.1,715.8,555.1z"/>
		<path id="XMLID_1160_" class="st6" d="M515.7,645.8c-4.5,0-8.2-3.7-8.2-8.2s3.7-8.2,8.2-8.2s8.2,3.7,8.2,8.2
			S520.2,645.8,515.7,645.8z"/>
		<path id="XMLID_9_" class="st6" d="M378.7,406.8c-4.5,0-8.2-3.7-8.2-8.2s3.7-8.2,8.2-8.2s8.2,3.7,8.2,8.2S383.2,406.8,378.7,406.8
			z"/>
		<path id="XMLID_1144_" class="st15" d="M756.3,300.4c0.9-3.3,0.8-6.9-0.6-10.8"/>
		<path id="XMLID_1143_" class="st15" d="M737.1,313.6c2.8,0.3,5.7-0.2,8.3-1.3"/>
		<g id="XMLID_2223_">
			<path id="XMLID_1348_" class="st7" d="M747.5,295.3c4.5,0,8.1-3.6,8.1-8.1s-3.6-8.1-8.1-8.1"/>
			<path id="XMLID_1346_" class="st6" d="M747.5,279c-4.5,0-8.1,3.6-8.1,8.1s3.6,8.1,8.1,8.1"/>
		</g>
		<path id="XMLID_1159_" class="st6" d="M729,323.4c-4.5,0-8.2-3.7-8.2-8.2s3.7-8.2,8.2-8.2s8.2,3.7,8.2,8.2S733.5,323.4,729,323.4z
			"/>
		<path id="XMLID_1437_" class="st7" d="M576.3,300.8h8.3v-22.2h-26.9v22.2h8.3v-10.5c0-2.8,2.3-5.2,5.2-5.2c2.8,0,5.2,2.3,5.2,5.2
			L576.3,300.8z"/>
		<path id="XMLID_1290_" class="st6" d="M757.5,551.6c-4.5,0-8.2-3.7-8.2-8.2s3.7-8.2,8.2-8.2s8.2,3.7,8.2,8.2
			S762,551.6,757.5,551.6z"/>
		<g>
			<line class="st10" x1="756.6" y1="300.5" x2="758.8" y2="298.4"/>
			<line class="st10" x1="747.8" y1="300.5" x2="745.6" y2="298.4"/>
			<g id="XMLID_407_">
				<circle id="XMLID_1135_" class="st11" cx="752.3" cy="307.6" r="8.1"/>
			</g>
			<polyline class="st10" points="751,306 751,308.4 753.8,312.2 			"/>
			<line class="st10" x1="752" y1="300" x2="752" y2="298"/>
		</g>
		<g>
			<line class="st10" x1="482.6" y1="647.5" x2="484.8" y2="645.4"/>
			<line class="st10" x1="473.8" y1="647.5" x2="471.6" y2="645.4"/>
			<g id="XMLID_72_">
				<circle id="XMLID_79_" class="st11" cx="478.3" cy="654.6" r="8.1"/>
			</g>
			<polyline class="st10" points="478,652 478,654.4 480.8,658.2 			"/>
			<line class="st10" x1="478" y1="646" x2="478" y2="642"/>
		</g>
	</g>
</g>
<line class="st17" x1="383.5" y1="391.2" x2="385.5" y2="389"/>
<line class="st17" x1="374.5" y1="391.2" x2="372.5" y2="389"/>
<polyline class="st18" points="378,395.5 378,399 380.8,402.4 "/>
</svg>
