<?xml version="1.0" encoding="utf-8"?>
<!-- Generator: Adobe Illustrator 19.0.0, SVG Export Plug-In . SVG Version: 6.00 Build 0)  -->
<svg version="1.1" id="Calque_1" xmlns="http://www.w3.org/2000/svg" xmlns:xlink="http://www.w3.org/1999/xlink" x="0px" y="0px"
	 viewBox="0 0 770 802" style="enable-background:new 0 0 770 802;" xml:space="preserve">
<style type="text/css">
	.st0{fill:#EBB7A5;stroke:#F4D7CB;stroke-linecap:round;stroke-linejoin:round;stroke-miterlimit:10;}
	.st1{fill:none;stroke:#1D1D1B;stroke-width:5;stroke-linecap:round;stroke-linejoin:round;}
	.st2{fill:#3C63AA;stroke:#1D1D1B;stroke-width:2;}
	.st3{fill:none;stroke:#1D1D1B;stroke-width:2;}
	.st4{fill:#FFFFFF;stroke:#1D1D1B;}
	.st5{stroke:#1D1D1B;}
	.st6{fill:#FFFFFF;}
	.st7{fill:#C32121;stroke:#1D1D1B;stroke-width:2;}
	.st8{fill:none;stroke:#FFFFFF;stroke-width:5;}
	.st9{fill:none;stroke:#1D1D1B;stroke-width:5;stroke-dasharray:4,4,4;}
	.st10{fill:none;stroke:#1D1D1B;stroke-width:5;}
	.st11{fill:#FFFFFF;stroke:#1D1D1B;stroke-width:2;stroke-linecap:round;stroke-linejoin:round;}
	.st12{fill:#1D1D1B;}
	.st13{fill:none;stroke:#1D1D1B;stroke-dasharray:4,4,4;}
	.st14{fill:#C32121;stroke:#1D1D1B;stroke-width:2;stroke-linecap:round;stroke-linejoin:round;}
</style>
<polygon id="BELGIQUE_9_" class="st0" points="425.4,178.3 429.8,180.7 432,183.1 434.3,187.7 439.6,184.5 447.9,182.6 451.8,187.4
	452.8,199 457.4,201 461.7,199.1 469.4,204.7 469,212.3 470.6,212.3 471.9,210.2 484.1,209.6 492,216.9 492.3,228.7 488,232
	488.5,233.5 492.9,233.6 500.1,236 510.2,231.5 514.5,221.5 518.7,221.5 519.1,244.5 537.1,252 539.1,257.4 544.3,261.2
	557.4,258.9 561.4,256.6 560.9,253.9 554.5,237.1 565.7,218.2 570.9,221.2 580.9,208.1 578.8,200.7 573.1,197 574.5,193.4
	574.8,192.7 564.8,181.9 564.8,181.9 552.2,182.8 552.2,182.8 557.5,157.1 541.1,149.1 541.1,149.1 532.4,150.3 525.4,138.3
	514.1,141.2 504.8,138.3 491.9,144.7 480.2,145.5 463.7,141.7 450.2,145.3 419.5,161.1 419.5,164.2 423.3,163.1 427.1,172.1 "/>
<polygon id="FRANCE_10_" class="st0" points="656.7,610.7 656.7,610.7 655.5,597.8 638.6,601.6 619.4,588.4 618.2,580.4
	619.2,579.5 623.1,575.6 623,569.2 622.7,568.9 626.9,565.1 626.9,565 623,556.3 612.1,553.6 605.4,540.6 605.4,540.6 616.8,539.4
	626.7,531.8 629.4,521.1 629.4,521.1 610.6,496.5 610.6,496.5 612.4,494.5 619.8,491.5 620,489.6 620.1,488.7 620.3,484.5
	609.7,471.3 609.7,471.3 612.2,468.6 612.2,468.6 608.1,458.6 591.6,462.5 588.9,460.6 584.8,466.2 584.8,466.2 587.4,470.2
	580.1,475.6 573,475.5 572.9,471.3 579.5,469.2 582.3,460.4 577.5,458.7 578.7,449.3 592.5,435.2 592.5,435.2 591.5,424.7
	591.5,424.7 600.1,420.8 601.5,419 618.4,397.1 618.5,397.1 618.5,397.1 615.4,389.8 619.9,388.9 620.5,388.5 623,392.2
	631.6,392.2 635.7,388.7 638.2,381.1 633.8,374.2 638.8,356.6 636.4,346.5 642.3,335.4 645.1,313 650.8,308.9 661.5,291.9
	649.1,286.8 636.1,287.5 629.1,280.9 623.5,280.7 620.4,283.5 612.9,283.6 606.6,278.8 602.5,278.8 601.6,281.8 597.5,282.2
	590.3,266.9 582.4,263.6 576.5,261.2 573,261.4 564.1,263.8 557.4,258.9 544.3,261.3 539.1,257.5 537.1,252.2 519.1,244.5
	518.7,221.5 514.5,221.5 510.2,231.5 500.1,235.9 492.9,233.5 488.5,233.5 488,231.9 492.3,228.7 492,216.9 484.1,209.6
	471.9,210.2 470.6,212.3 469,212.3 469.4,204.7 461.7,199.1 457.4,201 452.8,199 451.8,187.4 447.9,182.6 439.6,184.5 434.3,187.7
	432,183.1 429.8,180.7 425.4,178.3 427,172.1 423.2,163.1 404.8,168.1 392.7,170.3 382.9,177.6 382.6,208.1 373.7,227.1
	362.8,235.9 326.1,248.6 319.6,262.5 329.3,267.4 306.4,276.6 298.9,272.4 279.8,269.7 275.7,267.6 270.2,269 262.3,257.4
	266.5,254.3 264.6,248.5 253.4,248.5 248.9,250.6 236.2,244.4 235.3,246.3 239.9,249.9 239.9,263.8 247.9,278.3 250.4,297.6
	247.7,303.3 255.7,313.4 249.3,315.6 238.6,315.5 237.3,309.5 232,309.3 229.9,311.6 216,310 199.6,316.9 195,313.1 186.4,295.5
	163.5,296.8 162.1,305 152.6,303.1 150.4,305.5 140.1,301.7 114.2,309.2 111.3,323.3 125.1,322.4 134.2,327.9 120.4,325.6
	116.7,327.6 131,334.8 130.2,339.3 112.9,340 112.8,342.9 120.7,344.7 126.3,355.7 126,359 134.4,359.5 135.5,355.8 146.8,361.8
	161.5,364.1 176.3,377.1 190.4,384.5 204.4,387.8 199.6,397.9 214.5,400.5 214.5,406.5 211.9,409.4 218.6,410.6 223.8,414.7
	216.6,423.5 216.4,428.7 229,449.9 258,464.8 255.6,471.3 243.1,463.6 238.1,466.7 261.9,480.5 259,491.5 255,489.5 246.8,479.1
	246.3,486.8 251.3,490.5 252.8,503.2 272.7,518.6 274.3,527 276.5,538.7 275,541.2 270.2,524.5 259.1,517 257.9,511.2 255.5,512.1
	254.5,520.4 247.4,568.7 252.9,561.9 259.6,570.1 259.1,573.5 251.4,573.5 247.5,578 247.4,581.9 235.2,633.9 231.9,639.1
	225.8,646.4 216.5,648.4 216.5,652.3 235.5,658.5 234.8,665.1 232,666.7 238,673.1 240.1,668.2 258.6,678 262.9,678.1 263.1,678.1
	265.9,678.1 265.9,678.1 265.9,678.1 266.3,682.7 272.8,688.4 273.4,689 273.4,689 286.2,685.7 293.2,690.5 299.2,696.8
	308.2,693.8 314.1,698.2 320.3,696.6 332.1,697.8 332.5,687 341.1,690 350.8,693.9 354.5,700.5 362.5,700.5 367.6,704.4 379,703.1
	384.5,712 391.5,714.2 391.5,717.9 397.6,720.6 401.4,716.8 406,716.8 417.4,724.5 425.5,724.5 434.5,715 441.3,713.4 444.7,716.2
	448.7,717.5 448.8,711.7 444.7,707.5 443.7,689.1 443.9,676.4 439.1,673.3 440.9,670.4 445.1,673.5 450.4,666.9 486.9,644.3
	491,644.6 493.2,649.2 501,649.1 517.1,650.3 514.1,654.3 524.4,658.3 530.2,656.5 527.6,651.6 533,652.4 536.8,656.6 550.9,656.1
	553.1,664 567.5,668 573.7,674.4 581.1,670.7 589.1,671.5 599,670.2 613.8,662.2 612.7,655.7 625.1,644.8 633.5,639.2 633.7,632.4
	638.8,632 651.3,623.4 651.3,623.4 651.9,612.2 "/>
<g id="XMLID_2088_">
	<g id="XMLID_1750_">
		<g id="XMLID_1751_">
			<path id="etape1_1_" class="st1" d="M228.6,403.1c0,0,36.6-19.6,68.2-1.1"/>
			<g id="Nantes_2_" class="hover">
				<circle id="XMLID_1870_" class="st2" cx="228.6" cy="403.1" r="10.2"/>
				<path id="XMLID_1869_" class="st2" d="M228.6,411.3c-4.5,0-8.2-3.7-8.2-8.2s3.7-8.2,8.2-8.2s8.2,3.7,8.2,8.2
					S233.1,411.3,228.6,411.3z"/>
				<circle id="XMLID_1868_" class="st3" cx="228.6" cy="403.1" r="10.2"/>
				<path id="XMLID_1867_" class="st4" d="M232.7,408l2.4,2.9c0.9-0.8,1.7-1.7,2.3-2.7l-3.2-1.9C233.8,407,233.3,407.5,232.7,408z"
					/>
				<path id="XMLID_1865_" class="st5" d="M223.1,406.3l-3.2,1.9c0.6,1,1.4,1.9,2.3,2.7l2.4-2.9C223.9,407.5,223.4,407,223.1,406.3z
					"/>
				<path id="XMLID_1864_" class="st4" d="M224.5,408l-2.4,2.9c0.9,0.8,1.9,1.3,3.1,1.8l1.3-3.5C225.7,408.9,225.1,408.5,224.5,408z
					"/>
				<path id="XMLID_1863_" class="st5" d="M228.6,409.5c-0.8,0-1.5-0.1-2.2-0.4l-1.3,3.5c1.1,0.4,2.3,0.6,3.5,0.6h0L228.6,409.5
					L228.6,409.5z"/>
				<path id="XMLID_1862_" class="st5" d="M222.2,403.1c0-0.4,0-0.8,0.1-1.1l-3.7-0.6c-0.1,0.6-0.2,1.2-0.2,1.8s0.1,1.2,0.2,1.8
					l3.7-0.6C222.2,403.9,222.2,403.5,222.2,403.1z"/>
				<path id="XMLID_1861_" class="st4" d="M222.3,404.2l-3.7,0.6c0.2,1.2,0.6,2.3,1.2,3.3l3.2-1.9
					C222.7,405.7,222.4,405,222.3,404.2z"/>
				<path id="XMLID_1860_" class="st5" d="M234.2,406.3l3.2,1.9c0.6-1,1-2.1,1.2-3.3l-3.7-0.6C234.8,405,234.5,405.7,234.2,406.3z"
					/>
				<path id="XMLID_1859_" class="st4" d="M238.6,401.3l-3.7,0.6c0.1,0.4,0.1,0.7,0.1,1.1s0,0.8-0.1,1.1l3.7,0.6
					c0.1-0.6,0.2-1.2,0.2-1.8S238.7,401.9,238.6,401.3z"/>
				<path id="XMLID_1858_" class="st4" d="M228.6,409.5v3.7c1.2,0,2.4-0.2,3.5-0.6l-1.3-3.5C230.1,409.4,229.4,409.5,228.6,409.5z"
					/>
				<path id="XMLID_1857_" class="st5" d="M230.8,409.1l1.3,3.5c1.1-0.4,2.2-1,3.1-1.8l-2.4-2.9
					C232.2,408.5,231.5,408.9,230.8,409.1z"/>
				<path id="XMLID_1856_" class="st5" d="M232.7,398.2l2.4-2.9c-0.9-0.8-1.9-1.3-3.1-1.8l-1.3,3.5
					C231.5,397.3,232.2,397.7,232.7,398.2z"/>
				<path id="XMLID_1855_" class="st4" d="M234.2,399.9l3.2-1.9c-0.6-1-1.4-1.9-2.3-2.7l-2.4,2.9
					C233.3,398.7,233.8,399.3,234.2,399.9z"/>
				<path id="XMLID_1854_" class="st5" d="M234.9,402l3.7-0.6c-0.2-1.2-0.6-2.3-1.2-3.3l-3.2,1.9C234.5,400.5,234.8,401.2,234.9,402
					z"/>
				<path id="XMLID_1853_" class="st4" d="M230.8,397.1l1.3-3.5c-1.1-0.4-2.3-0.6-3.5-0.6v3.7C229.4,396.7,230.1,396.8,230.8,397.1z
					"/>
				<path id="XMLID_1852_" class="st5" d="M228.6,396.7L228.6,396.7l0-3.7h0c-1.2,0-2.4,0.2-3.5,0.6l1.3,3.5
					C227.1,396.8,227.9,396.7,228.6,396.7z"/>
				<path id="XMLID_1851_" class="st4" d="M223.1,399.9l-3.2-1.9c-0.6,1-1,2.1-1.2,3.3l3.7,0.6C222.4,401.2,222.7,400.5,223.1,399.9
					z"/>
				<path id="XMLID_1850_" class="st5" d="M224.5,398.2l-2.4-2.9c-0.9,0.8-1.7,1.7-2.3,2.7l3.2,1.9
					C223.4,399.3,223.9,398.7,224.5,398.2z"/>
				<path id="XMLID_1849_" class="st4" d="M226.4,397.1l-1.3-3.5c-1.1,0.4-2.2,1-3.1,1.8l2.4,2.9
					C225.1,397.7,225.7,397.3,226.4,397.1z"/>
				<polygon id="XMLID_1848_" class="st6" points="227.1,399.2 227.1,407 232.7,403.1 				"/>
			</g>
			<path id="etape2_1_" class="st1" d="M360.7,501.4c0,0-66.9-28.2-63.8-99.4"/>
			<g id="Angers_1_" class="hover">
				<path id="XMLID_1845_" class="st7" d="M288.7,402c0,4.5,3.6,8.1,8.1,8.1v-16.3C292.4,393.9,288.7,397.5,288.7,402z"/>
				<path id="XMLID_1844_" class="st2" d="M296.9,393.9v16.3c4.5,0,8.1-3.6,8.1-8.1C305,397.5,301.3,393.9,296.9,393.9z"/>
			</g>
			<path id="etape3_1_" class="st1" d="M281.6,548.6c0,0,55,2.8,79.1-47.2"/>
			<g id="Limoges" class="hover">
				<path id="XMLID_1841_" class="st7" d="M353.4,498.8c0,4.5,3.6,8.1,8.1,8.1v-16.3C357,490.7,353.4,494.3,353.4,498.8z"/>
				<path id="XMLID_1840_" class="st2" d="M361.5,490.7v16.3c4.5,0,8.1-3.6,8.1-8.1C369.6,494.3,366,490.7,361.5,490.7z"/>
			</g>
			<path id="etape4_1_" class="st1" d="M278.6,662c0,0-20.2-39.9,3-113.4"/>
			<g id="Bordeaux_2_" class="hover">
				<path id="XMLID_1837_" class="st7" d="M289.7,548.6c0-4.5-3.6-8.1-8.1-8.1v16.3C286.1,556.8,289.7,553.1,289.7,548.6z"/>
				<path id="XMLID_1836_" class="st2" d="M281.6,556.8v-16.3c-4.5,0-8.1,3.6-8.1,8.1C273.5,553.1,277.1,556.8,281.6,556.8z"/>
			</g>
			<path id="etape5_1_" class="st1" d="M318.3,686.6c0,0-30.5,4.1-39.8-24.6"/>
			<g id="Pau_2_" class="hover">
				<path id="XMLID_1833_" class="st7" d="M286.7,662c0-4.5-3.6-8.1-8.1-8.1v16.3C283.1,670.1,286.7,666.5,286.7,662z"/>
				<path id="XMLID_1832_" class="st2" d="M278.6,670.1v-16.3c-4.5,0-8.1,3.6-8.1,8.1C270.5,666.5,274.1,670.1,278.6,670.1z"/>
			</g>
			<path id="XMLID_1830_" class="st8" d="M318.3,686.6c-15.3-17.5-9.9-39.3,19-14.5"/>
			<path id="etape6_1_" class="st9" d="M318.3,686.6c-15.3-17.5-9.9-39.3,19-14.5"/>
			<g id="XMLID_1826_">
				<path id="XMLID_1828_" class="st7" d="M310.2,686.6c0,4.5,3.6,8.1,8.1,8.1v-16.3C313.9,678.5,310.2,682.1,310.2,686.6z"/>
				<path id="XMLID_1827_" class="st2" d="M318.3,678.5v16.3c4.5,0,8.1-3.6,8.1-8.1C326.5,682.1,322.8,678.5,318.3,678.5z"/>
			</g>
			<path id="etape7_1_" class="st1" d="M337.4,672.2c28.1,20.8,49.1-8.5,20-26.7"/>
			<g id="Saint-Gaudens" class="hover">
				<path id="XMLID_1824_" class="st7" d="M329.3,672.2c0,4.5,3.6,8.1,8.1,8.1V664C332.9,664,329.3,667.7,329.3,672.2z"/>
				<path id="XMLID_1823_" class="st2" d="M337.4,664v16.3c4.5,0,8.1-3.6,8.1-8.1C345.5,667.7,341.9,664,337.4,664z"/>
			</g>
			<path id="etape8_1_" class="st1" d="M357.4,645.5c0,0,47.3-30.8,111.4-3.2"/>
			<path id="etape9_1_" class="st1" d="M544.6,654.5c0,0,42.9-8,36.3-73.8"/>
			<path id="etape10_1_" class="st10" d="M599.3,551.3c10-20.7-13-35.6-31.6-15.3"/>
			<path id="etape11_1_" class="st10" d="M557.5,554.7c0,0-7.5-7.8-7.5-17.6c0-23.7,52.7-27.1,52.7-63.9"/>
			<g id="XMLID_1814_">
				<polygon id="XMLID_1817_" class="st11" points="585.6,533.8 588.4,524.1 591.5,529.8 595.3,518 599.7,527.2 602.6,523.8
					605.1,533.8 				"/>
				<polygon id="XMLID_1816_" class="st12" points="593.1,524.1 594.8,526.4 596,524.6 597.1,525.7 598.7,524.1 595.3,518 				"/>
				<polygon id="XMLID_1815_" class="st12" points="587.3,527.9 589,530.3 590.4,527.8 588.4,524.1 				"/>
			</g>
			<g id="XMLID_1810_">
				<polygon id="XMLID_1813_" class="st11" points="280.8,689.8 283.6,680 286.7,685.7 290.6,673.9 295,683.1 297.9,679.7
					300.4,689.8 				"/>
				<polygon id="XMLID_1812_" class="st12" points="288.3,680 290.1,682.3 291.3,680.5 292.4,681.6 294,680 290.6,673.9 				"/>
				<polygon id="XMLID_1811_" class="st12" points="282.6,683.8 284.3,686.2 285.6,683.7 283.6,680 				"/>
			</g>
			<g id="XMLID_1806_">
				<polygon id="XMLID_1809_" class="st11" points="579.3,508.9 582.1,499.1 585.2,504.8 589.1,493 593.5,502.2 596.4,498.8
					598.9,508.9 				"/>
				<polygon id="XMLID_1808_" class="st12" points="586.8,499.1 588.6,501.4 589.8,499.6 590.9,500.7 592.5,499.1 589.1,493 				"/>
				<polygon id="XMLID_1807_" class="st12" points="581.1,502.9 582.8,505.3 584.1,502.8 582.1,499.1 				"/>
			</g>
			<path id="etape12_1_" class="st10" d="M566.8,497.6c-12-13.9-38.4-4.6-27.6,24.5"/>
			<g id="XMLID_1801_">
				<polygon id="XMLID_1804_" class="st11" points="532.2,500.2 535,490.4 538.1,496.1 542,484.3 546.4,493.5 549.3,490.1
					551.7,500.2 				"/>
				<polygon id="XMLID_1803_" class="st12" points="539.7,490.4 541.4,492.7 542.7,490.9 543.7,492 545.3,490.4 542,484.3 				"/>
				<polygon id="XMLID_1802_" class="st12" points="533.9,494.2 535.6,496.6 537,494.1 535,490.4 				"/>
			</g>
			<path id="etape13_1_" class="st10" d="M539.2,522.2c-2.9,13.7-32.9,19.4-39.1-5.7"/>
			<g id="Grenoble_2_" class="hover">
				<path id="XMLID_1799_" class="st7" d="M531.1,522c0,4.5,3.6,8.1,8.1,8.1v-16.3C534.7,513.8,531.1,517.5,531.1,522z"/>
				<path id="XMLID_1798_" class="st2" d="M539.2,513.8v16.3c4.5,0,8.1-3.6,8.1-8.1C547.3,517.5,543.7,513.8,539.2,513.8z"/>
			</g>
			<path id="etape14_1_" class="st10" d="M521.2,409.3c0,0,13.4,36.5-3.8,81.3"/>
			<path id="etape15_1_" class="st10" d="M580.1,412.2c0,0,5.1-59.7,61.1-107.1"/>
			<path id="etape17_1_" class="st10" d="M589.3,295c0,0-63.2-42.7-53.3-102.9"/>
			<path id="etape18_1_" class="st10" d="M488.3,173.2c0,0-5.6,23.9-38.8,23.8"/>
			<path id="etape19_1_" class="st10" d="M359.9,271.4c0,0,59.8-16,89.6-74.5"/>
			<g id="Roubaix_1_" class="hover">
				<path id="XMLID_1791_" class="st7" d="M457.6,197c0-4.5-3.6-8.1-8.1-8.1v16.3C453.9,205.1,457.6,201.5,457.6,197z"/>
				<path id="XMLID_1790_" class="st2" d="M449.4,205.1v-16.3c-4.5,0-8.1,3.6-8.1,8.1C441.3,201.5,445,205.1,449.4,205.1z"/>
			</g>
			<path id="etape20_1_" class="st1" d="M397.5,318.9c0,0,36.3,2.7,34.1-13.2c-1.3-9.4-18.8-10.7-18.8,1.8"/>
			<path id="XMLID_1787_" class="st13" d="M500.1,516.5c0,0,18.4-5.4,17.3-25.8"/>
			<path id="XMLID_1786_" class="st13" d="M602.6,473.2c0,0-24.5,8.3-35.9,24.4"/>
			<path id="XMLID_1785_" class="st13" d="M521.2,409.3c0,0,31.5,21.9,59,2.9"/>
			<path id="XMLID_1784_" class="st13" d="M641.2,305.2c0,0-44.5,35.7-70.5,17.9"/>
			<path id="XMLID_1783_" class="st13" d="M535.9,192.1c0,0-13-27.3-47.6-18.9"/>
			<path id="XMLID_1782_" class="st13" d="M359.9,271.4c0,0-4.5,43.9,37.9,50"/>
			<path id="XMLID_1781_" class="st13" d="M468.8,642.3c0,0,38.4-18.7,75.8,12.2"/>
			<path id="XMLID_1780_" class="st13" d="M580.9,580.7c0,0,31.1,0,18.4-29.4"/>
			<path id="Montpellier_2_" class="st7" d="M468.8,650.5c-4.5,0-8.2-3.7-8.2-8.2s3.7-8.2,8.2-8.2s8.2,3.7,8.2,8.2
				S473.3,650.5,468.8,650.5z"/>
			<path id="Marseille_2_" class="st2" d="M544.6,662.7c-4.5,0-8.2-3.7-8.2-8.2s3.7-8.2,8.2-8.2s8.2,3.7,8.2,8.2
				S549.1,662.7,544.6,662.7z"/>
			<path id="Gap_1_" class="st7" d="M580.9,588.9c-4.5,0-8.2-3.7-8.2-8.2s3.7-8.2,8.2-8.2s8.2,3.7,8.2,8.2S585.4,588.9,580.9,588.9z
				"/>
			<path id="Morzine_1_" class="st7" d="M602.6,481.4c-4.5,0-8.2-3.7-8.2-8.2s3.7-8.2,8.2-8.2s8.2,3.7,8.2,8.2
				S607.1,481.4,602.6,481.4z"/>
			<path id="Aix-les-Bains_2_" class="st2" d="M566.8,505.8c-4.5,0-8.2-3.7-8.2-8.2s3.7-8.2,8.2-8.2s8.2,3.7,8.2,8.2
				S571.3,505.8,566.8,505.8z"/>
			<path id="Saint-Etienne_1_" class="st7" d="M500.1,524.6c-4.5,0-8.2-3.7-8.2-8.2s3.7-8.2,8.2-8.2s8.2,3.7,8.2,8.2
				S504.6,524.6,500.1,524.6z"/>
			<path id="Lyon_2_" class="st2" d="M517.4,498.8c-4.5,0-8.2-3.7-8.2-8.2s3.7-8.2,8.2-8.2s8.2,3.7,8.2,8.2S521.9,498.8,517.4,498.8
				z"/>
			<path id="Dijon" class="st7" d="M521.2,417.5c-4.5,0-8.2-3.7-8.2-8.2s3.7-8.2,8.2-8.2s8.2,3.7,8.2,8.2S525.7,417.5,521.2,417.5z"
				/>
			<path id="Strasbourg_2_" class="st7" d="M641.2,313.3c-4.5,0-8.2-3.7-8.2-8.2c0-4.5,3.7-8.2,8.2-8.2s8.2,3.7,8.2,8.2
				C649.4,309.7,645.7,313.3,641.2,313.3z"/>
			<path id="Besançon_1_" class="st2" d="M580.1,420.4c-4.5,0-8.2-3.7-8.2-8.2s3.7-8.2,8.2-8.2s8.2,3.7,8.2,8.2
				S584.6,420.4,580.1,420.4z"/>
			<path id="Liège_1_" class="st7" d="M535.9,200.3c-4.5,0-8.2-3.7-8.2-8.2s3.7-8.2,8.2-8.2s8.2,3.7,8.2,8.2
				S540.4,200.3,535.9,200.3z"/>
			<path id="Bruxelles_1_" class="st2" d="M488.3,181.3c-4.5,0-8.2-3.7-8.2-8.2s3.7-8.2,8.2-8.2s8.2,3.7,8.2,8.2
				S492.8,181.3,488.3,181.3z"/>
			<path id="Rouen_1_" class="st7" d="M359.9,279.6c-4.5,0-8.2-3.7-8.2-8.2s3.7-8.2,8.2-8.2s8.2,3.7,8.2,8.2
				S364.4,279.6,359.9,279.6z"/>
			<path id="Versailles_1_" class="st2" d="M397.8,329.6c-4.5,0-8.2-3.7-8.2-8.2s3.7-8.2,8.2-8.2s8.2,3.7,8.2,8.2
				S402.3,329.6,397.8,329.6z"/>
			<path id="XMLID_1765_" class="st13" d="M567.6,536.1c15.8,7.9,13.2,28.2-10.2,18.7"/>
			<path id="L_x27_Alpe_d_x27_Huez_1_" class="st7" d="M567.6,544.2c-4.5,0-8.2-3.7-8.2-8.2s3.7-8.2,8.2-8.2s8.2,3.7,8.2,8.2
				S572.1,544.2,567.6,544.2z"/>
			<path id="Bourg_d_x27_Oisans" class="st2" d="M557.5,562.9c-4.5,0-8.2-3.7-8.2-8.2s3.7-8.2,8.2-8.2s8.2,3.7,8.2,8.2
				S562,562.9,557.5,562.9z"/>
			<path id="Toulouse_2_" class="st2" d="M357.4,653.6c-4.5,0-8.2-3.7-8.2-8.2s3.7-8.2,8.2-8.2s8.2,3.7,8.2,8.2
				S361.9,653.6,357.4,653.6z"/>
			<path id="XMLID_1761_" class="st8" d="M570.7,323.1c14.6,7.2,35.8-9.6,18.5-28.1"/>
			<path id="etape16_1_" class="st9" d="M570.7,323.1c14.6,7.2,35.8-9.6,18.5-28.1"/>
			<g id="Metz_2_" class="hover">
				<path id="XMLID_1759_" class="st7" d="M597.4,295c0-4.5-3.6-8.1-8.1-8.1v16.3C593.7,303.1,597.4,299.5,597.4,295z"/>
				<path id="XMLID_1758_" class="st2" d="M589.3,303.1v-16.3c-4.5,0-8.1,3.6-8.1,8.1C581.1,299.5,584.8,303.1,589.3,303.1z"/>
			</g>
			<path id="Nancy" class="st2" d="M570.7,331.2c-4.5,0-8.2-3.7-8.2-8.2s3.7-8.2,8.2-8.2s8.2,3.7,8.2,8.2S575.2,331.2,570.7,331.2z"
				/>
			<path id="Paris_4_" class="st14" d="M418,308.6h8.3v-22.2h-26.9v22.2h8.3V298c0-2.8,2.3-5.2,5.2-5.2c2.8,0,5.2,2.3,5.2,5.2
				L418,308.6z"/>
			<path id="Briançon_2_" class="st2" d="M599.3,559.5c-4.5,0-8.2-3.7-8.2-8.2s3.7-8.2,8.2-8.2s8.2,3.7,8.2,8.2
				S603.8,559.5,599.3,559.5z"/>
		</g>
	</g>
</g>
</svg>
