<?xml version="1.0" encoding="utf-8"?>
<!-- Generator: Adobe Illustrator 19.0.0, SVG Export Plug-In . SVG Version: 6.00 Build 0)  -->
<svg version="1.1" id="Calque_1" xmlns="http://www.w3.org/2000/svg" xmlns:xlink="http://www.w3.org/1999/xlink" x="0px" y="0px"
	 viewBox="0 0 770 802" style="enable-background:new 0 0 770 802;" xml:space="preserve">
<style type="text/css">
	.st0{fill:#EBB7A5;stroke:#F4D7CB;stroke-linecap:round;stroke-linejoin:round;stroke-miterlimit:10;}
	.st1{fill:none;stroke:#1D1D1B;stroke-width:5;stroke-linecap:round;stroke-linejoin:round;}
	.st2{fill:#3C63AA;stroke:#1D1D1B;stroke-width:2;}
	.st3{fill:none;stroke:#1D1D1B;stroke-width:2;}
	.st4{fill:#FFFFFF;stroke:#1D1D1B;}
	.st5{stroke:#1D1D1B;}
	.st6{fill:#FFFFFF;}
	.st7{fill:#C32121;stroke:#1D1D1B;stroke-width:2;}
	.st8{fill:none;stroke:#FFFFFF;stroke-width:5;}
	.st9{fill:none;stroke:#1D1D1B;stroke-width:5;stroke-dasharray:4,4,4;}
	.st10{fill:#FFFFFF;stroke:#1D1D1B;stroke-width:2;stroke-linecap:round;stroke-linejoin:round;}
	.st11{fill:#1D1D1B;}
	.st12{fill:none;stroke:#1D1D1B;stroke-dasharray:4,4,4;}
	.st13{fill:#C32121;stroke:#1D1D1B;stroke-width:2;stroke-linecap:round;stroke-linejoin:round;}
</style>
<polygon id="LUXEMBOURG_9_" class="st0" points="589.3,248.2 587.9,241.3 574.9,236.4 568.5,228.7 570.9,221.2 565.7,218.2
	554.5,237.1 560.9,253.9 561.4,256.6 557.4,258.9 564.1,263.8 573,261.4 576.5,261.2 582.4,263.6 581.3,259.4 "/>
<polygon id="BELGIQUE_6_" class="st0" points="425.4,178.3 429.8,180.7 432,183.1 434.3,187.7 439.6,184.5 447.9,182.6 451.8,187.4
	452.8,199 457.4,201 461.7,199.1 469.4,204.7 469,212.3 470.6,212.3 471.9,210.2 484.1,209.6 492,216.9 492.3,228.7 488,232
	488.5,233.5 492.9,233.6 500.1,236 510.2,231.5 514.5,221.5 518.7,221.5 519.1,244.5 537.1,252 539.1,257.4 544.3,261.2
	557.4,258.9 561.4,256.6 560.9,253.9 554.5,237.1 565.7,218.2 570.9,221.2 580.9,208.1 578.8,200.7 573.1,197 574.5,193.4
	574.8,192.7 564.8,181.9 564.8,181.9 552.2,182.8 552.2,182.8 557.5,157.1 541.1,149.1 541.1,149.1 532.4,150.3 525.4,138.3
	514.1,141.2 504.8,138.3 491.9,144.7 480.2,145.5 463.7,141.7 450.2,145.3 419.5,161.1 419.5,164.2 423.3,163.1 427.1,172.1 "/>
<polygon id="FRANCE_11_" class="st0" points="656.7,610.7 656.7,610.7 655.5,597.8 638.6,601.6 619.4,588.4 618.2,580.4
	619.2,579.5 623.1,575.6 623,569.2 622.7,568.9 626.9,565.1 626.9,565 623,556.3 612.1,553.6 605.4,540.6 605.4,540.6 616.8,539.4
	626.7,531.8 629.4,521.1 629.4,521.1 610.6,496.5 610.6,496.5 612.4,494.5 619.8,491.5 620,489.6 620.1,488.7 620.3,484.5
	609.7,471.3 609.7,471.3 612.2,468.6 612.2,468.6 608.1,458.6 591.6,462.5 588.9,460.6 584.8,466.2 584.8,466.2 587.4,470.2
	580.1,475.6 573,475.5 572.9,471.3 579.5,469.2 582.3,460.4 577.5,458.7 578.7,449.3 592.5,435.2 592.5,435.2 591.5,424.7
	591.5,424.7 600.1,420.8 601.5,419 618.4,397.1 618.5,397.1 618.5,397.1 615.4,389.8 619.9,388.9 620.5,388.5 623,392.2
	631.6,392.2 635.7,388.7 638.2,381.1 633.8,374.2 638.8,356.6 636.4,346.5 642.3,335.4 645.1,313 650.8,308.9 661.5,291.9
	649.1,286.8 636.1,287.5 629.1,280.9 623.5,280.7 620.4,283.5 612.9,283.6 606.6,278.8 602.5,278.8 601.6,281.8 597.5,282.2
	590.3,266.9 582.4,263.6 576.5,261.2 573,261.4 564.1,263.8 557.4,258.9 544.3,261.3 539.1,257.5 537.1,252.2 519.1,244.5
	518.7,221.5 514.5,221.5 510.2,231.5 500.1,235.9 492.9,233.5 488.5,233.5 488,231.9 492.3,228.7 492,216.9 484.1,209.6
	471.9,210.2 470.6,212.3 469,212.3 469.4,204.7 461.7,199.1 457.4,201 452.8,199 451.8,187.4 447.9,182.6 439.6,184.5 434.3,187.7
	432,183.1 429.8,180.7 425.4,178.3 427,172.1 423.2,163.1 404.8,168.1 392.7,170.3 382.9,177.6 382.6,208.1 373.7,227.1
	362.8,235.9 326.1,248.6 319.6,262.5 329.3,267.4 306.4,276.6 298.9,272.4 279.8,269.7 275.7,267.6 270.2,269 262.3,257.4
	266.5,254.3 264.6,248.5 253.4,248.5 248.9,250.6 236.2,244.4 235.3,246.3 239.9,249.9 239.9,263.8 247.9,278.3 250.4,297.6
	247.7,303.3 255.7,313.4 249.3,315.6 238.6,315.5 237.3,309.5 232,309.3 229.9,311.6 216,310 199.6,316.9 195,313.1 186.4,295.5
	163.5,296.8 162.1,305 152.6,303.1 150.4,305.5 140.1,301.7 114.2,309.2 111.3,323.3 125.1,322.4 134.2,327.9 120.4,325.6
	116.7,327.6 131,334.8 130.2,339.3 112.9,340 112.8,342.9 120.7,344.7 126.3,355.7 126,359 134.4,359.5 135.5,355.8 146.8,361.8
	161.5,364.1 176.3,377.1 190.4,384.5 204.4,387.8 199.6,397.9 214.5,400.5 214.5,406.5 211.9,409.4 218.6,410.6 223.8,414.7
	216.6,423.5 216.4,428.7 229,449.9 258,464.8 255.6,471.3 243.1,463.6 238.1,466.7 261.9,480.5 259,491.5 255,489.5 246.8,479.1
	246.3,486.8 251.3,490.5 252.8,503.2 272.7,518.6 274.3,527 276.5,538.7 275,541.2 270.2,524.5 259.1,517 257.9,511.2 255.5,512.1
	254.5,520.4 247.4,568.7 252.9,561.9 259.6,570.1 259.1,573.5 251.4,573.5 247.5,578 247.4,581.9 235.2,633.9 231.9,639.1
	225.8,646.4 216.5,648.4 216.5,652.3 235.5,658.5 234.8,665.1 232,666.7 238,673.1 240.1,668.2 258.6,678 262.9,678.1 263.1,678.1
	265.9,678.1 265.9,678.1 265.9,678.1 266.3,682.7 272.8,688.4 273.4,689 273.4,689 286.2,685.7 293.2,690.5 299.2,696.8
	308.2,693.8 314.1,698.2 320.3,696.6 332.1,697.8 332.5,687 341.1,690 350.8,693.9 354.5,700.5 362.5,700.5 367.6,704.4 379,703.1
	384.5,712 391.5,714.2 391.5,717.9 397.6,720.6 401.4,716.8 406,716.8 417.4,724.5 425.5,724.5 434.5,715 441.3,713.4 444.7,716.2
	448.7,717.5 448.8,711.7 444.7,707.5 443.7,689.1 443.9,676.4 439.1,673.3 440.9,670.4 445.1,673.5 450.4,666.9 486.9,644.3
	491,644.6 493.2,649.2 501,649.1 517.1,650.3 514.1,654.3 524.4,658.3 530.2,656.5 527.6,651.6 533,652.4 536.8,656.6 550.9,656.1
	553.1,664 567.5,668 573.7,674.4 581.1,670.7 589.1,671.5 599,670.2 613.8,662.2 612.7,655.7 625.1,644.8 633.5,639.2 633.7,632.4
	638.8,632 651.3,623.4 651.3,623.4 651.9,612.2 "/>
<g id="XMLID_40_">
	<g id="XMLID_214_">
		<path id="etape1" class="st1" d="M536.5,192.3c0,0-0.7,70-51.2,106.5"/>
		<g id="Liège_2_" class="hover">
			<circle id="XMLID_2402_" class="st2" cx="536.5" cy="192.3" r="8.1"/>
			<circle id="XMLID_2401_" class="st3" cx="536.5" cy="192.3" r="8.1"/>
			<path id="XMLID_2400_" class="st4" d="M539.8,196.2l1.9,2.3c0.7-0.6,1.3-1.3,1.8-2.2l-2.6-1.5
				C540.6,195.4,540.2,195.8,539.8,196.2z"/>
			<path id="XMLID_2399_" class="st5" d="M532,194.8l-2.6,1.5c0.5,0.8,1.1,1.6,1.8,2.2l1.9-2.3C532.7,195.8,532.3,195.4,532,194.8z"
				/>
			<path id="XMLID_2398_" class="st4" d="M533.2,196.2l-1.9,2.3c0.7,0.6,1.5,1.1,2.4,1.4l1-2.8C534.1,196.9,533.6,196.6,533.2,196.2
				z"/>
			<path id="XMLID_2397_" class="st5" d="M536.5,197.4c-0.6,0-1.2-0.1-1.8-0.3l-1,2.8c0.9,0.3,1.8,0.5,2.8,0.5h0L536.5,197.4
				L536.5,197.4z"/>
			<path id="XMLID_2396_" class="st5" d="M531.3,192.3c0-0.3,0-0.6,0.1-0.9l-2.9-0.5c-0.1,0.5-0.1,0.9-0.1,1.4s0,0.9,0.1,1.4
				l2.9-0.5C531.4,192.9,531.3,192.6,531.3,192.3z"/>
			<path id="XMLID_2395_" class="st4" d="M531.4,193.2l-2.9,0.5c0.2,0.9,0.5,1.8,1,2.6l2.6-1.5C531.7,194.3,531.5,193.8,531.4,193.2
				z"/>
			<path id="XMLID_2394_" class="st5" d="M540.9,194.8l2.6,1.5c0.5-0.8,0.8-1.7,1-2.6l-2.9-0.5C541.4,193.8,541.2,194.3,540.9,194.8
				z"/>
			<path id="XMLID_2393_" class="st4" d="M544.5,190.9l-2.9,0.5c0.1,0.3,0.1,0.6,0.1,0.9s0,0.6-0.1,0.9l2.9,0.5
				c0.1-0.5,0.1-0.9,0.1-1.4S544.5,191.3,544.5,190.9z"/>
			<path id="XMLID_2392_" class="st4" d="M536.5,197.4v3c1,0,1.9-0.2,2.8-0.5l-1-2.8C537.7,197.3,537.1,197.4,536.5,197.4z"/>
			<path id="XMLID_2391_" class="st5" d="M538.2,197.1l1,2.8c0.9-0.3,1.7-0.8,2.4-1.4l-1.9-2.3C539.3,196.6,538.8,196.9,538.2,197.1
				z"/>
			<path id="XMLID_2390_" class="st5" d="M539.8,188.4l1.9-2.3c-0.7-0.6-1.5-1.1-2.4-1.4l-1,2.8C538.8,187.7,539.3,188,539.8,188.4z
				"/>
			<path id="XMLID_2389_" class="st4" d="M540.9,189.7l2.6-1.5c-0.5-0.8-1.1-1.6-1.8-2.2l-1.9,2.3
				C540.2,188.7,540.6,189.2,540.9,189.7z"/>
			<path id="XMLID_2388_" class="st5" d="M541.5,191.4l2.9-0.5c-0.2-0.9-0.5-1.8-1-2.6l-2.6,1.5
				C541.2,190.2,541.4,190.8,541.5,191.4z"/>
			<path id="XMLID_2387_" class="st4" d="M538.2,187.5l1-2.8c-0.9-0.3-1.8-0.5-2.8-0.5v3C537.1,187.2,537.7,187.3,538.2,187.5z"/>
			<path id="XMLID_2386_" class="st5" d="M536.5,187.2L536.5,187.2l0-3h0c-1,0-1.9,0.2-2.8,0.5l1,2.8
				C535.3,187.3,535.9,187.2,536.5,187.2z"/>
			<path id="XMLID_2385_" class="st4" d="M532,189.7l-2.6-1.5c-0.5,0.8-0.8,1.7-1,2.6l2.9,0.5C531.5,190.8,531.7,190.2,532,189.7z"
				/>
			<path id="XMLID_2384_" class="st5" d="M533.2,188.4l-1.9-2.3c-0.7,0.6-1.3,1.3-1.8,2.2l2.6,1.5
				C532.3,189.2,532.7,188.7,533.2,188.4z"/>
			<path id="XMLID_2383_" class="st4" d="M534.7,187.5l-1-2.8c-0.9,0.3-1.7,0.8-2.4,1.4l1.9,2.3C533.6,188,534.1,187.7,534.7,187.5z
				"/>
			<polygon id="XMLID_2382_" class="st6" points="535.3,189.1 535.3,195.4 539.8,192.3 			"/>
		</g>
		<path id="etape2" class="st1" d="M572,250.7c0,0-20.2,48.9-86.7,48.1"/>
		<g id="Epernay" class="hover">
			<path id="XMLID_2379_" class="st7" d="M477.1,297.5c0,4.5,3.6,8.1,8.1,8.1v-16.2C480.8,289.4,477.1,293,477.1,297.5z"/>
			<path id="XMLID_2378_" class="st2" d="M485.3,289.4v16.2c4.5,0,8.1-3.6,8.1-8.1C493.4,293,489.7,289.4,485.3,289.4z"/>
		</g>
		<path id="etape3" class="st1" d="M641.6,305.2c0,0-59.8-1.5-69.7-54.5"/>
		<g id="Luxembourg_4_" class="hover">
			<path id="XMLID_2375_" class="st7" d="M563.8,250.7c0,4.5,3.6,8.1,8.1,8.1v-16.2C567.5,242.6,563.8,246.2,563.8,250.7z"/>
			<path id="XMLID_2374_" class="st2" d="M572,242.6v16.2c4.5,0,8.1-3.6,8.1-8.1C580.1,246.2,576.4,242.6,572,242.6z"/>
		</g>
		<path id="XMLID_2372_" class="st8" d="M625.6,344.5c-1.9-24.9-31.1-30.2-29.8,4"/>
		<path id="etape4" class="st9" d="M625.6,344.5c-1.9-24.9-31.1-30.2-29.8,4"/>
		<path id="etape5" class="st1" d="M580.6,412.1c0,0-16.2,50.5,22.5,60.9"/>
		<g id="XMLID_2366_">
			<polygon id="XMLID_2369_" class="st10" points="570.4,450.5 573.2,440.8 576.2,446.5 580.1,434.7 584.5,443.9 587.4,440.5
				589.9,450.5 			"/>
			<polygon id="XMLID_2368_" class="st11" points="577.8,440.8 579.6,443.1 580.8,441.3 581.9,442.4 583.5,440.8 580.1,434.7 			"/>
			<polygon id="XMLID_2367_" class="st11" points="572.1,444.5 573.8,447 575.2,444.4 573.2,440.8 			"/>
		</g>
		<path id="etape6" class="st1" d="M580,494.1c0,0-23.6,11.9-11.9,41.6"/>
		<path id="etape7" class="st1" d="M590.8,528.2c10.9,13.6-2.3,44.1-32.8,26.2"/>
		<g id="XMLID_2360_">
			<polygon id="XMLID_2363_" class="st10" points="554.8,516.6 557.6,506.8 560.7,512.5 564.5,500.7 568.9,509.9 571.8,506.5
				574.3,516.6 			"/>
			<polygon id="XMLID_2362_" class="st11" points="562.2,506.8 564,509.1 565.2,507.3 566.3,508.4 567.9,506.8 564.5,500.7 			"/>
			<polygon id="XMLID_2361_" class="st11" points="556.5,510.6 558.2,513 559.6,510.5 557.6,506.8 			"/>
		</g>
		<g id="XMLID_2356_">
			<polygon id="XMLID_2359_" class="st10" points="577.4,560 580.2,550.2 583.3,555.9 587.2,544.1 591.6,553.3 594.5,549.9
				596.9,560 			"/>
			<polygon id="XMLID_2358_" class="st11" points="584.9,550.2 586.6,552.5 587.9,550.7 588.9,551.8 590.5,550.2 587.2,544.1 			"/>
			<polygon id="XMLID_2357_" class="st11" points="579.1,554 580.9,556.4 582.2,553.9 580.2,550.2 			"/>
		</g>
		<path id="etape8" class="st1" d="M538.8,522.4c2.8-21.3-27.4-34.1-38.1-6.3"/>
		<path id="etape9" class="st1" d="M581.3,580.3c0,0,7.8,47.7-36.2,73.7"/>
		<path id="etape10" class="st1" d="M508.3,617.2c0,0,31.1,4.3,36.8,36.8"/>
		<path id="etape11" class="st1" d="M466.5,584.2c0,0,34.2-6.2,41.9,32.9"/>
		<g id="Marseille_3_" class="hover">
			<path id="XMLID_2351_" class="st7" d="M553.3,654c0-4.5-3.6-8.1-8.1-8.1v16.2C549.6,662.1,553.3,658.5,553.3,654z"/>
			<path id="XMLID_2350_" class="st2" d="M545.1,662.1v-16.2c-4.5,0-8.1,3.6-8.1,8.1C537,658.5,540.7,662.1,545.1,662.1z"/>
		</g>
		<g id="Nîmes_2_" class="hover">
			<path id="XMLID_2348_" class="st7" d="M516.5,616.6c0-4.5-3.6-8.1-8.1-8.1v16.2C512.8,624.7,516.5,621.1,516.5,616.6z"/>
			<path id="XMLID_2347_" class="st2" d="M508.3,624.7v-16.2c-4.5,0-8.1,3.6-8.1,8.1C500.2,621.1,503.9,624.7,508.3,624.7z"/>
		</g>
		<path id="etape12" class="st1" d="M469.5,641.8c-22.2-0.5-35.8-45.5-3-57.6"/>
		<g id="Mende" class="hover">
			<path id="XMLID_2344_" class="st7" d="M474.6,584.2c0-4.5-3.6-8.1-8.1-8.1v16.2C470.9,592.3,474.6,588.7,474.6,584.2z"/>
			<path id="XMLID_2343_" class="st2" d="M466.5,592.3v-16.2c-4.5,0-8.1,3.6-8.1,8.1C458.3,588.7,462,592.3,466.5,592.3z"/>
		</g>
		<path id="etape13" class="st1" d="M406.6,627.3c0,0,24.1,29.6,62.9,14.5"/>
		<g id="Montpellier_3_" class="hover">
			<path id="XMLID_2340_" class="st7" d="M477.6,641.8c0-4.5-3.6-8.1-8.1-8.1v16.2C474,649.9,477.6,646.3,477.6,641.8z"/>
			<path id="XMLID_2339_" class="st2" d="M469.5,649.9v-16.2c-4.5,0-8.1,3.6-8.1,8.1C461.4,646.3,465,649.9,469.5,649.9z"/>
		</g>
		<path id="etape14" class="st1" d="M358.2,645c28.3-3.7,48.6,19.2,30.1,51.2"/>
		<g id="XMLID_2278_">
			<polygon id="XMLID_2336_" class="st10" points="378.6,663.2 381.4,653.5 384.5,659.2 388.4,647.4 392.8,656.6 395.7,653.2
				398.1,663.2 			"/>
			<polygon id="XMLID_2335_" class="st11" points="386.1,653.5 387.8,655.8 389.1,654 390.2,655.1 391.7,653.5 388.4,647.4 			"/>
			<polygon id="XMLID_2334_" class="st11" points="380.4,657.3 382.1,659.7 383.4,657.2 381.4,653.5 			"/>
		</g>
		<path id="etape15" class="st1" d="M379.2,674.2c-27.2-1.9-22.4,24.5-12.2,24.5"/>
		<path id="XMLID_2221_" class="st12" d="M379.2,674.2c0,0-8.5,17.4,9.1,22"/>
		<g id="XMLID_2217_">
			<polygon id="XMLID_2220_" class="st10" points="346.6,684.5 349.4,674.8 352.5,680.5 356.3,668.7 360.7,677.9 363.6,674.5
				366.1,684.5 			"/>
			<polygon id="XMLID_2219_" class="st11" points="354.1,674.8 355.8,677.1 357,675.3 358.1,676.4 359.7,674.8 356.3,668.7 			"/>
			<polygon id="XMLID_2218_" class="st11" points="348.3,678.6 350,681 351.4,678.5 349.4,674.8 			"/>
		</g>
		<path id="XMLID_2216_" class="st8" d="M302.8,644.6c10-12.9,31-0.7,19.5,16.9"/>
		<path id="etape17" class="st9" d="M302.8,644.6c10-12.9,31-0.7,19.5,16.9"/>
		<path id="etape18" class="st1" d="M302.8,644.6c-15.2,15.4-2.3,42.5,16.4,41.5"/>
		<g id="XMLID_2210_">
			<polygon id="XMLID_2213_" class="st10" points="289.8,676.8 292.6,667 295.7,672.7 299.6,660.9 304,670.1 306.9,666.7
				309.3,676.8 			"/>
			<polygon id="XMLID_2212_" class="st11" points="297.3,667 299,669.3 300.3,667.5 301.3,668.6 302.9,667 299.6,660.9 			"/>
			<polygon id="XMLID_2211_" class="st11" points="291.5,670.8 293.3,673.2 294.6,670.7 292.6,667 			"/>
		</g>
		<g id="Tarbes" class="hover">
			<path id="XMLID_2209_" class="st7" d="M311.4,643.8c0-4.5-3.6-8.1-8.1-8.1V652C307.8,652,311.4,648.3,311.4,643.8z"/>
			<path id="XMLID_2208_" class="st2" d="M303.3,652v-16.2c-4.5,0-8.1,3.6-8.1,8.1C295.2,648.3,298.8,652,303.3,652z"/>
		</g>
		<path id="etape19" class="st1" d="M279.5,661.5c0,0-20.5-52,3-113.2"/>
		<path id="etape20" class="st1" d="M338.5,404.1c-17.1-20.8-6.3-106.6,61.7-106.6c11.1,0,13.4,6.3,13.4,6.3"/>
		<path id="Paris_5_" class="st13" d="M418.7,308.6h8.3v-22.2h-26.9v22.2h8.3V298c0-2.8,2.3-5.2,5.2-5.2c2.8,0,5.2,2.3,5.2,5.2
			L418.7,308.6z"/>
		<path id="XMLID_2202_" class="st12" d="M641.6,305.2c0,0-21,12.2-16.1,39.4"/>
		<path id="XMLID_2201_" class="st12" d="M595.8,348.6c0,0,17.6,39-15.2,63.5"/>
		<path id="XMLID_2200_" class="st12" d="M603.1,473c0,0,0,26.9-23,21.1"/>
		<path id="XMLID_2199_" class="st12" d="M568.1,535.7c-13.8-7.5-24.8,10.3-10.1,18.7"/>
		<path id="XMLID_2198_" class="st12" d="M590.8,528.2c0,0-21.7-11.6-51-6.5"/>
		<path id="XMLID_2197_" class="st12" d="M500.7,516.2c0,0,12.2,64.9,80.7,64.2"/>
		<path id="XMLID_2196_" class="st12" d="M406.6,627.3c0,0-31.7-14.3-48.4,17.7"/>
		<path id="XMLID_2195_" class="st12" d="M319.2,686c0,0-38.2,10.6-39.7-24.6"/>
		<path id="XMLID_2194_" class="st12" d="M282.5,548.3c0,0,61.6-35.7,55.9-144.2"/>
		<path id="Strasbourg_3_" class="st7" d="M641.6,313.3c-4.5,0-8.1-3.7-8.1-8.1c0-4.5,3.7-8.1,8.1-8.1c4.5,0,8.1,3.7,8.1,8.1
			C649.8,309.7,646.1,313.3,641.6,313.3z"/>
		<path id="Gérardmer" class="st7" d="M595.8,356.7c-4.5,0-8.1-3.7-8.1-8.1c0-4.5,3.7-8.1,8.1-8.1c4.5,0,8.1,3.7,8.1,8.1
			C603.9,353.1,600.3,356.7,595.8,356.7z"/>
		<path id="Colmar" class="st2" d="M625.6,352.7c-4.5,0-8.1-3.7-8.1-8.1s3.7-8.1,8.1-8.1s8.1,3.7,8.1,8.1S630.1,352.7,625.6,352.7z"
			/>
		<path id="Morzine_2_" class="st7" d="M603.1,481.1c-4.5,0-8.1-3.7-8.1-8.1c0-4.5,3.7-8.1,8.1-8.1c4.5,0,8.1,3.7,8.1,8.1
			C611.2,477.5,607.6,481.1,603.1,481.1z"/>
		<path id="Besançon_2_" class="st2" d="M580.6,420.2c-4.5,0-8.1-3.7-8.1-8.1c0-4.5,3.7-8.1,8.1-8.1s8.1,3.7,8.1,8.1
			C588.8,416.6,585.1,420.2,580.6,420.2z"/>
		<path id="Saint_Jean_de_Maurienne" class="st7" d="M590.8,536.3c-4.5,0-8.1-3.7-8.1-8.1c0-4.5,3.7-8.1,8.1-8.1
			c4.5,0,8.1,3.7,8.1,8.1C598.9,532.7,595.2,536.3,590.8,536.3z"/>
		<path id="Le_Grand_Bornand" class="st2" d="M580,502.3c-4.5,0-8.1-3.7-8.1-8.1c0-4.5,3.7-8.1,8.1-8.1c4.5,0,8.1,3.7,8.1,8.1
			C588.2,498.6,584.5,502.3,580,502.3z"/>
		<path id="L_x27_Alpe_d_x27_Huez_2_" class="st7" d="M568.1,543.9c-4.5,0-8.1-3.7-8.1-8.1c0-4.5,3.7-8.1,8.1-8.1
			c4.5,0,8.1,3.7,8.1,8.1C576.3,540.2,572.6,543.9,568.1,543.9z"/>
		<path id="Bourg_d_x27_Oisans_1_" class="st2" d="M558,562.5c-4.5,0-8.1-3.7-8.1-8.1c0-4.5,3.7-8.1,8.1-8.1c4.5,0,8.1,3.7,8.1,8.1
			C566.1,558.9,562.5,562.5,558,562.5z"/>
		<path id="Saint-Etienne_2_" class="st7" d="M500.7,524.3c-4.5,0-8.1-3.7-8.1-8.1c0-4.5,3.7-8.1,8.1-8.1c4.5,0,8.1,3.7,8.1,8.1
			C508.8,520.7,505.2,524.3,500.7,524.3z"/>
		<path id="Gap_2_" class="st2" d="M581.3,588.5c-4.5,0-8.1-3.7-8.1-8.1c0-4.5,3.7-8.1,8.1-8.1c4.5,0,8.1,3.7,8.1,8.1
			C589.5,584.8,585.8,588.5,581.3,588.5z"/>
		<path id="Albi" class="st7" d="M406.6,635.5c-4.5,0-8.1-3.7-8.1-8.1c0-4.5,3.7-8.1,8.1-8.1c4.5,0,8.1,3.7,8.1,8.1
			C414.7,631.8,411.1,635.5,406.6,635.5z"/>
		<path id="Toulouse_3_" class="st2" d="M358.2,653.1c-4.5,0-8.1-3.7-8.1-8.1c0-4.5,3.7-8.1,8.1-8.1c4.5,0,8.1,3.7,8.1,8.1
			C366.4,649.5,362.7,653.1,358.2,653.1z"/>
		<path id="Ax_3_Domaines" class="st7" d="M388.3,704.3c-4.5,0-8.1-3.7-8.1-8.1c0-4.5,3.7-8.1,8.1-8.1c4.5,0,8.1,3.7,8.1,8.1
			C396.5,700.7,392.8,704.3,388.3,704.3z"/>
		<path id="Bagnères_de_Luchon_2_" class="st7" d="M319.2,694.2c-4.5,0-8.1-3.7-8.1-8.1c0-4.5,3.7-8.1,8.1-8.1
			c4.5,0,8.1,3.7,8.1,8.1C327.4,690.5,323.7,694.2,319.2,694.2z"/>
		<path id="Bordeaux_3_" class="st7" d="M282.5,556.4c-4.5,0-8.1-3.7-8.1-8.1c0-4.5,3.7-8.1,8.1-8.1c4.5,0,8.1,3.7,8.1,8.1
			C290.7,552.8,287,556.4,282.5,556.4z"/>
		<path id="Pau_3_" class="st2" d="M279.5,669.6c-4.5,0-8.1-3.7-8.1-8.1c0-4.5,3.7-8.1,8.1-8.1c4.5,0,8.1,3.7,8.1,8.1
			C287.7,666,284,669.6,279.5,669.6z"/>
		<path id="Tours" class="st2" d="M338.5,412.2c-4.5,0-8.1-3.7-8.1-8.1c0-4.5,3.7-8.1,8.1-8.1c4.5,0,8.1,3.7,8.1,8.1
			C346.6,408.6,342.9,412.2,338.5,412.2z"/>
		<path id="Grenoble_3_" class="st2" d="M539.7,529.8c-4.5,0-8.1-3.7-8.1-8.1s3.7-8.1,8.1-8.1s8.1,3.7,8.1,8.1
			S544.2,529.8,539.7,529.8z"/>
		<path id="etape16" class="st1" d="M322.4,661.5c0,0,31.5-7.5,56.8,12.8"/>
		<g id="XMLID_1355_">
			<polygon id="XMLID_1622_" class="st10" points="334.6,665.9 337.4,656.1 340.5,661.8 344.3,650 348.7,659.2 351.6,655.8
				354.1,665.9 			"/>
			<polygon id="XMLID_1357_" class="st11" points="342.1,656.1 343.8,658.4 345,656.6 346.1,657.7 347.7,656.1 344.3,650 			"/>
			<polygon id="XMLID_1356_" class="st11" points="336.3,659.9 338,662.3 339.4,659.8 337.4,656.1 			"/>
		</g>
		<g id="Lannemezan" class="hover">
			<path id="XMLID_1195_" class="st7" d="M330.5,661.5c0-4.5-3.6-8.1-8.1-8.1v16.2C326.8,669.6,330.5,665.9,330.5,661.5z"/>
			<path id="XMLID_1185_" class="st2" d="M322.4,669.6v-16.2c-4.5,0-8.1,3.6-8.1,8.1C314.2,665.9,317.9,669.6,322.4,669.6z"/>
		</g>
		<path id="XMLID_1168_" class="st12" d="M367,698.7c-2.7-20.4,6.7-8.1,12.2-24.5"/>
		<path id="Plateau_de_Beille" class="st7" d="M367,706.9c-4.5,0-8.1-3.7-8.1-8.1s3.7-8.1,8.1-8.1c4.5,0,8.1,3.7,8.1,8.1
			S371.5,706.9,367,706.9z"/>
		<path id="Foix" class="st2" d="M378.8,682.4c-4.5,0-8.1-3.7-8.1-8.1s3.7-8.1,8.1-8.1c4.5,0,8.1,3.7,8.1,8.1
			S383.3,682.4,378.8,682.4z"/>
	</g>
</g>
</svg>
