<svg id="Calque_1" data-name="Calque 1" xmlns="http://www.w3.org/2000/svg" viewBox="0 0 769 801.03"><defs><style>.cls-1{fill:#ede6d8;}.cls-1,.cls-3{stroke:#fff;}.cls-1,.cls-3,.cls-4{stroke-miterlimit:10;}.cls-15,.cls-16,.cls-17,.cls-2,.cls-4,.cls-7{fill:#fff;}.cls-10,.cls-11,.cls-12,.cls-13,.cls-14,.cls-3,.cls-5,.cls-6,.cls-9{fill:none;}.cls-4{stroke:#ede6d8;}.cls-5{stroke:#00a5ac;}.cls-10,.cls-12,.cls-13,.cls-14,.cls-15,.cls-16,.cls-5,.cls-6,.cls-7,.cls-9{stroke-width:2px;}.cls-6{stroke:#e61e49;}.cls-12,.cls-13,.cls-14,.cls-7{stroke:#1d1d1b;}.cls-11,.cls-13,.cls-15,.cls-17,.cls-7,.cls-9{stroke-linecap:round;}.cls-11,.cls-15,.cls-17,.cls-7,.cls-9{stroke-linejoin:round;}.cls-8{fill:#1d1d1b;}.cls-10,.cls-11,.cls-15,.cls-16,.cls-17,.cls-9{stroke:#000;}.cls-14{stroke-dasharray:4 4 4;}.cls-18{fill:#00a5ac;}</style></defs><title>Plan de travail 28</title><rect class="cls-1" x="0.94" y="0.53" width="767.34" height="800"/><polygon id="France" class="cls-2" points="655.71 610.74 655.71 610.74 654.48 597.81 637.6 601.62 618.44 588.39 617.23 580.47 618.23 579.5 622.14 575.67 621.98 569.23 621.7 568.93 625.85 565.08 625.85 565.08 621.98 556.3 611.06 553.63 604.41 540.59 604.41 540.59 615.81 539.45 625.72 531.87 628.44 521.17 628.44 521.16 609.61 496.56 609.61 496.56 611.36 494.53 618.84 491.52 618.97 489.66 619.1 488.69 619.33 484.51 608.72 471.28 608.72 471.28 611.15 468.67 611.15 468.67 607.08 458.58 590.63 462.5 587.94 460.65 583.78 466.27 583.78 466.27 586.38 470.2 579.11 475.62 572.01 475.53 571.93 471.3 578.5 469.27 581.32 460.46 576.54 458.72 577.7 449.36 591.54 435.22 591.54 435.22 590.54 424.71 590.54 424.71 599.09 420.86 600.48 419.03 617.11 397.16 617 397.15 617 397.15 614.13 389.83 618.82 388.88 619.46 388.57 621.96 392.2 630.62 392.26 634.68 388.75 637.16 381.1 632.84 374.27 637.79 356.58 635.44 346.51 641.27 335.38 644.09 313.04 649.8 308.97 660.45 291.95 648.11 286.85 635.09 287.56 628.1 280.89 622.46 280.7 619.36 283.51 611.93 283.66 605.64 278.82 601.54 278.87 600.56 281.81 596.54 282.23 589.31 266.91 581.37 263.65 575.47 261.23 572.02 261.41 563.14 263.82 556.44 258.9 543.28 261.29 538.05 257.51 536.14 252.18 518.09 244.79 517.71 222 513.48 222 509.22 231.79 499.13 236.07 491.91 233.59 487.45 233.54 486.97 231.99 491.31 228.77 490.96 216.93 483.13 209.64 470.87 210.21 469.55 212.37 468.01 212.35 468.44 204.68 460.67 199.15 456.4 201.05 451.84 199.06 450.85 187.47 446.93 182.6 438.62 184.53 433.33 187.74 430.96 183.13 428.81 180.69 424.44 178.28 426 172.15 422.22 163.12 403.79 168.12 391.65 170.32 381.94 177.67 381.62 208.11 372.66 227.09 361.76 235.96 325.07 248.58 318.61 262.54 328.28 267.39 305.35 276.66 297.93 272.42 278.79 269.69 274.73 267.67 269.22 269.02 261.34 257.47 265.54 254.56 263.57 249 252.41 249 247.91 250.88 235.17 244.58 234.28 246.42 238.87 249.99 238.88 263.88 246.94 278.37 249.39 297.66 246.65 303.33 254.66 313.42 248.34 315.59 237.57 315.49 236.3 309.56 231.04 309.3 228.92 311.66 214.97 309.99 198.57 316.97 194.01 313.15 185.41 295.57 162.53 296.86 161.12 305.02 151.6 303.15 149.41 305.56 139.11 301.73 113.22 309.18 110.25 323.37 124.07 322.41 133.24 327.94 119.42 325.66 115.72 327.59 130.03 334.84 129.18 339.31 111.87 340.02 111.82 342.91 119.71 344.72 125.33 355.7 125.04 359.02 133.39 359.48 134.51 355.78 145.84 361.79 160.46 364.13 175.28 377.15 189.44 384.48 203.43 387.79 198.36 397.96 213 400.48 213 406.51 210.63 409.38 217.47 410.65 222.78 414.75 215.54 423.5 215.43 428.75 228 449.88 256.96 464.84 254.61 471.34 242.09 463.67 237.1 466.76 260.9 480.57 257.97 491.52 254.03 489.52 245.81 479.14 245.29 486.81 250.3 490.57 251.85 503.24 271.74 518.63 273.33 527.03 275.54 538.72 274.05 541.2 269.23 524.52 258.13 517.06 256.92 511.2 254.54 512.12 253.49 520.48 246.42 568.73 251.87 561.95 258.64 570.4 258.13 574 250.38 574 246.5 578.3 246.42 582.02 234.2 633.96 230.89 639.16 224.52 646.48 215 648.38 215 652.29 234.25 658.53 233.71 665.16 230.98 666.68 236.94 673.14 239.08 668.23 257.54 678.07 261.92 678.12 262.15 678.05 264.85 678 264.85 678 264.85 678 265.29 682.66 271.78 688.37 272.43 688.96 272.43 688.97 285.21 685.74 292.17 690.48 298.2 696.84 307.25 693.82 313.14 698.24 319.34 696.66 331.08 697.82 331.48 687.01 340.13 690 349.83 694.17 353.5 701 361.46 701 366.6 704.63 377.98 703.27 383.54 712.07 390.51 714.28 390.54 717.98 396.64 720.65 400.44 716.88 405.03 717.08 416.36 725 424.45 725 433.49 715.28 440.28 713.59 443.66 716.32 447.73 717.53 447.76 711.71 443.72 707.54 442.71 689.15 442.94 676.46 438.14 673.32 439.92 670.45 444.13 673.56 449.45 666.9 485.9 644.33 489.98 644.65 492.24 649.22 499.95 649.17 516.09 650.3 513.15 654.36 523.38 658.35 529.18 656.54 526.61 651.65 532.05 652.4 535.77 656.63 549.94 656.17 552.13 664.04 566.53 668 572.68 674.41 580.07 670.74 588.13 671.57 598.05 670.26 612.76 662.24 611.73 655.71 624.09 644.84 632.48 639.24 632.74 632.45 637.79 632.06 650.33 623.42 650.34 623.41 650.86 612.24 655.71 610.74"/><polygon id="Royaume-Uni" class="cls-3" points="208.03 6.53 198.13 8.94 168.13 11.12 154.89 24.5 139.33 36.27 143.07 38.23 161.85 33.65 164.17 58.35 159.65 74.53 122.91 84.27 110.45 93.39 112.36 104.41 121.41 112.81 144.33 106.59 150.49 119.79 167.57 116.23 171.4 126.17 192.24 131.74 199.84 124.2 225.49 112.34 203.41 131.74 198.88 144.47 174.43 141.69 149.67 142.35 134.62 159.45 110.11 187.51 81.94 203.72 103.47 213.72 122.76 194.29 142.64 195.16 167.16 208.95 179.94 184.5 206.39 184.5 213.8 186.68 232.97 183.1 265.99 175.4 284.22 178.85 328.19 183.14 356.65 171.93 375.74 157.45 378.8 141.95 352.57 143.34 335.97 137.45 357 130 359.29 120.14 369.4 114.68 385.12 98.48 387.35 86.84 392.28 64.11 377.27 46.64 358.09 43.55 346 41.15 339.03 53.63 328.88 45.82 324.32 45.64 339.17 28.65 334.12 14.97 323.93 0.5 208.23 0.5 208.03 6.53"/><polygon id="Irlande" class="cls-3" points="0.5 78.04 18.01 71.3 41.65 68.4 52.71 64.48 71.25 68.92 90.02 24.98 90.91 9.26 87.53 5.73 84.47 0.5 0.5 0.5 0.5 78.04"/><polygon id="Espagne" class="cls-3" points="440.28 713.46 433.49 715.03 424.45 724.5 416.36 724.5 405.03 716.83 400.44 716.88 396.64 720.65 390.54 717.97 390.51 714.25 383.28 711.72 371.52 715.74 366.54 708.98 366.6 704.38 361.46 700.5 353.5 700.5 349.83 693.92 340.13 690 331.48 687.01 331.08 697.83 319.34 696.69 313.14 698.25 307.25 693.82 298.2 696.85 292.18 690.49 285.22 685.75 272.44 688.74 272.43 688.5 272.43 688.5 271.78 688.17 265.29 682.61 264.85 678.09 264.85 678.09 262.15 678.09 261.93 678.1 257.55 678.07 239.09 668.23 236.96 673.14 231.03 666.68 233.81 665.16 234.5 658.53 215.5 652.29 215.5 648.38 202.44 652.05 185.53 648.8 170.98 640.71 158.18 648.22 139.71 637.01 122.17 633.33 105.7 638.29 62.26 630.92 46.67 622.57 22.78 618.07 0.5 617.69 0.5 800.5 367.58 800.5 390.5 793.19 449.86 752.02 446.1 731.46 453.46 729 447.73 717.5 443.66 716.25 440.28 713.46"/><polygon id="Allemagne" class="cls-3" points="605.78 21.57 605.78 21.57 603.45 56.26 602.51 57.5 600.02 60.82 599.76 60.8 599.74 60.82 590.16 60.21 587.34 70.93 598.54 71.5 598.92 73.17 601.87 86.22 588.46 97.44 592.88 105.9 576.45 112.81 576.45 112.81 576.45 112.81 567.65 108.88 559.81 113.4 575.03 140.01 573.55 143.77 572.05 147.58 566.03 162.84 566.6 174.89 566.6 174.89 563.78 181.92 573.82 192.75 573.82 192.75 573.55 193.45 572.15 197.07 577.83 200.72 579.88 208.11 569.87 221.2 567.54 228.73 573.87 236.45 586.9 241.31 588.25 248.22 580.33 259.4 581.37 263.65 589.31 266.91 596.54 282.23 600.56 281.81 601.54 278.87 605.64 278.82 611.93 283.66 619.36 283.51 622.46 280.7 628.1 280.89 635.09 287.56 648.12 286.85 660.45 291.95 649.8 308.97 644.09 313.04 641.27 335.38 635.44 346.51 637.79 356.58 632.84 374.27 637.16 381.1 634.69 388.75 637.3 384.57 654.76 383.78 665.32 378.69 676.22 381.18 677.16 378.94 677.3 378.61 683.1 376.35 675.65 374.56 673.61 372.63 679.49 367.25 685.54 366.12 691.1 371.04 697.38 374.05 704.86 372.56 715.24 373.7 730.12 378.26 732.13 374.6 747.5 387.01 747.5 389.36 747.5 392.87 761.16 382.86 761.94 374.35 768 374.22 768.5 374.21 768.5 0.5 603.79 0.5 594.82 12.79 595.03 13.11 605.78 21.57"/><polygon id="Italie" class="cls-3" points="768.5 423.07 753.01 436.45 750.76 454.59 717.02 450.68 694.75 473.37 681.73 465.34 680.85 451.49 665.94 465.26 669.45 470.38 656.35 488.3 645.51 484.67 633.87 490.76 623 492.17 621.2 491.65 618.97 489.66 618.84 491.52 611.36 494.53 609.61 496.56 628.44 521.16 628.44 521.17 628.44 521.17 625.72 531.87 615.81 539.45 604.41 540.59 611.06 553.63 621.98 556.3 625.85 565.08 625.85 565.08 621.7 568.93 621.98 569.23 622.14 575.67 618.23 579.5 617.23 580.47 618.44 588.39 637.6 601.62 654.48 597.81 655.71 610.74 655.71 610.74 650.86 612.24 650.34 623.41 657.04 625.46 675.55 618.46 691.1 593.52 703.66 581.25 730.87 587.41 767.09 602.85 768.5 604.37 768.5 423.07"/><polygon id="Autriche" class="cls-3" points="761.88 374.35 761.16 382.86 747.5 392.87 747.5 389.36 747.5 387.01 732.13 374.6 730.18 378.26 715.23 373.7 723.8 380.43 728.06 383.64 729.84 388.99 724.18 398.97 737.66 401.01 741.13 413.61 749.87 422.23 760.14 414.5 767.54 414.5 768.5 414.5 768.5 374.21 768.01 374.22 761.88 374.35"/><polygon id="Liechtenstein" class="cls-3" points="741.13 413.61 737.66 401.01 724.18 398.97 726.69 410.65 741.13 413.61"/><polygon id="Pays-Bas" class="cls-3" points="490.95 144.71 503.78 138.29 513.05 141.18 524.4 138.29 531.4 150.37 540.13 149.09 540.13 149.09 540.13 149.09 556.53 157.12 551.23 182.84 563.78 181.92 563.78 181.92 563.78 181.92 563.78 181.92 566.6 174.89 566.6 174.89 566.03 162.84 572.05 147.58 573.55 143.77 575.03 140.01 559.81 113.4 567.65 108.88 567.65 108.88 576.45 112.81 576.45 112.81 592.88 105.9 588.46 97.44 601.87 86.22 598.92 73.17 598.54 71.5 587.34 70.93 590.16 60.21 590.17 60.2 599.76 60.8 600.02 60.82 602.51 57.5 603.45 56.26 605.78 21.57 605.78 21.57 595.03 13.26 594.82 13.1 594.36 12.74 591.24 10.33 581.52 11.07 560.38 14.55 539.48 23.01 534.51 35.62 518.04 48.31 515.06 43.55 509.3 42.52 501.09 84.26 487.17 104.35 471.73 121.19 458.69 134.28 462.72 141.71 479.23 145.57 490.95 144.71"/><polygon id="Belgique" class="cls-4" points="424.45 178.28 428.81 180.69 430.96 183.13 433.33 187.74 438.62 184.53 446.93 182.6 450.85 187.47 451.84 199.06 456.4 201.05 460.67 199.15 468.44 204.68 468.01 212.35 469.55 212.37 470.87 210.21 483.13 209.64 490.96 216.93 491.31 228.77 486.97 231.99 487.45 233.54 491.91 233.58 499.13 236.06 509.22 232.04 513.48 222.5 517.71 222.5 518.09 245.04 536.14 252.32 538.05 257.58 543.28 261.33 556.44 258.92 560.37 256.59 559.9 253.93 553.51 237.12 564.74 218.22 569.87 221.2 579.88 208.11 577.83 200.72 572.15 197.07 573.54 193.45 573.81 192.75 563.78 181.92 563.78 181.92 551.23 182.84 551.23 182.84 556.53 157.12 540.13 149.09 540.13 149.09 531.4 150.37 524.4 138.29 513.05 141.18 503.78 138.29 490.95 144.71 479.23 145.57 462.72 141.71 448.74 145.32 417.5 161.12 417.5 164.2 421.85 163.12 425.81 172.15 424.45 178.28"/><polygon id="Luxembourg" class="cls-4" points="588.25 248.22 586.9 241.31 573.87 236.45 567.54 228.73 569.87 221.2 564.74 218.21 553.51 237.12 559.9 253.93 560.37 256.58 556.44 258.9 563.14 263.82 572.02 261.41 575.47 261.23 581.37 263.65 580.33 259.4 588.25 248.22"/><polygon id="Suisse" class="cls-3" points="760.14 414.5 749.87 422.23 741.13 413.5 726.69 410.59 724.18 398.97 729.84 388.99 728.05 383.63 723.8 380.43 715.24 373.7 704.86 372.56 697.38 374.05 691.1 371.04 685.54 366.12 679.49 367.25 673.61 372.63 675.65 374.56 683.1 376.35 677.3 378.61 677.16 378.93 676.22 381.15 665.32 378.69 654.76 383.78 637.3 384.34 634.34 388.5 633.95 388.5 630.63 392.03 621.98 392.09 619.49 388.51 618.88 388.85 614.38 389.83 617.5 397.15 617.5 397.15 617.5 397.15 617.36 397.16 617.3 397.16 600.52 419.03 599.11 420.86 590.55 424.85 591.55 435.5 591.55 435.5 591.54 435.5 577.71 449.5 576.54 458.79 581.32 460.5 578.5 469.29 571.94 471.31 572.01 475.54 579.11 475.62 586.38 470.2 583.78 466.27 583.78 466.27 583.78 466.26 587.94 460.65 590.63 462.5 607.08 458.58 611.15 468.67 611.15 468.67 611.15 468.67 608.72 471.28 619.33 484.51 619.1 488.69 618.97 489.66 621.2 491.65 623 492.17 633.87 490.76 645.5 484.67 656.35 488.3 656.35 488.3 669.43 470.38 665.93 465.26 680.84 451.49 681.73 465.34 694.72 473.37 716.96 450.68 750.7 454.59 753.01 436.45 768.5 423.07 768.5 414.5 767.54 414.5 760.14 414.5"/><polygon id="France-2" data-name="France" class="cls-2" points="732.13 654.37 724.87 654.59 722.41 660 708.14 665.55 702.98 678.44 701.21 680.83 707.09 684.61 707.32 686.35 701.6 687.64 703.09 694.87 709.62 696.89 710.04 700.85 705.62 705.4 706.22 709.33 712.68 709.9 714.3 714.02 709.88 719.87 721.45 721.72 714.84 728.92 720.94 733.77 730.51 736.69 733.27 739.88 738.81 741.39 743.98 725.88 745.17 714.5 744.49 708.05 744.41 701.57 749.72 694.18 749.83 681.92 747.7 677.73 747.14 664.58 742.8 659.96 742.41 651.83 743.78 648.13 741.03 637.38 739.04 633.85 734.86 637.11 736.75 650.27 735.37 656.14 732.13 654.37"/><polygon id="Andorre" class="cls-3" points="371.52 715.74 383.28 711.72 377.98 703.13 366.6 704.36 366.54 708.98 371.52 715.74"/><polygon id="Monaco" class="cls-3" points="632.48 639.24 632.48 639.25 641.42 639.5 637.79 632.06 632.74 632.45 632.48 639.24"/><rect class="cls-2" x="0.5" y="411.53" width="189.1" height="191.26"/><path d="M17.66,429.46H22.1a3.3,3.3,0,0,1,1.29.24,3,3,0,0,1,1,.66,2.77,2.77,0,0,1,.64,1,3.55,3.55,0,0,1,.23,1.28A3.82,3.82,0,0,1,25,434a2.84,2.84,0,0,1-.66,1.05,2.9,2.9,0,0,1-1.12.66,4.67,4.67,0,0,1-1.57.24h-2.4v3.87H17.66Zm4.23,5.13a1.58,1.58,0,0,0,1.28-.54,2,2,0,0,0,.44-1.34,2.3,2.3,0,0,0-.12-.74,1.77,1.77,0,0,0-.34-.6,1.58,1.58,0,0,0-.53-.4,1.47,1.47,0,0,0-.67-.15H19.29v3.77Z"/><path d="M31.59,438.77h0a2.79,2.79,0,0,1-1,.86A3.45,3.45,0,0,1,29,440a3,3,0,0,1-1-.16,2,2,0,0,1-.74-.42,1.84,1.84,0,0,1-.44-.63,2,2,0,0,1-.15-.77,1.92,1.92,0,0,1,.37-1.27,2.28,2.28,0,0,1,.91-.67,4.66,4.66,0,0,1,1.22-.33l1.23-.2.67-.12a1.55,1.55,0,0,0,.39-.14.46.46,0,0,0,.17-.22,1,1,0,0,0,0-.32,1.3,1.3,0,0,0-.38-1,1.66,1.66,0,0,0-1.16-.37,1.84,1.84,0,0,0-1.16.33,1.45,1.45,0,0,0-.49,1.07H27a3,3,0,0,1,.83-1.9,3.21,3.21,0,0,1,2.28-.69,2.64,2.64,0,0,1,3,3v4.63h-1.5Zm0-2.6a10.89,10.89,0,0,1-1.19.24,10.17,10.17,0,0,0-1.14.21,2.31,2.31,0,0,0-.85.39.85.85,0,0,0-.33.73.92.92,0,0,0,.37.78,1.49,1.49,0,0,0,1,.3,2.71,2.71,0,0,0,.88-.14,2.36,2.36,0,0,0,.69-.4,1.66,1.66,0,0,0,.45-.63,2,2,0,0,0,.16-.82Z"/><path d="M35.38,432.33h1.5v1.16h0a2.85,2.85,0,0,1,.86-.95,2.15,2.15,0,0,1,1.23-.35h.22l.21,0v1.56a1.77,1.77,0,0,0-.29-.07,2,2,0,0,0-.35,0,1.88,1.88,0,0,0-1.39.53,2.1,2.1,0,0,0-.51,1.5v4.1h-1.5Z"/><path d="M47.32,437.07a2.86,2.86,0,0,1-.92,2.15,3.43,3.43,0,0,1-2.33.74,4,4,0,0,1-1.56-.28,3,3,0,0,1-1.11-.79,3.45,3.45,0,0,1-.65-1.23,5.66,5.66,0,0,1,0-3.16,3.48,3.48,0,0,1,.67-1.23,3,3,0,0,1,1.1-.8,4,4,0,0,1,1.53-.28,3.43,3.43,0,0,1,2.34.76,2.92,2.92,0,0,1,.92,2.17H45.84a1.85,1.85,0,0,0-.55-1.25,1.73,1.73,0,0,0-1.24-.45,1.79,1.79,0,0,0-1.49.66,4.09,4.09,0,0,0,0,4,2,2,0,0,0,2.74.24,1.8,1.8,0,0,0,.54-1.24Z"/><path d="M52.69,440a4,4,0,0,1-1.55-.28,3.19,3.19,0,0,1-1.17-.79,3.38,3.38,0,0,1-.75-1.22,4.82,4.82,0,0,1,0-3.18,3.35,3.35,0,0,1,1.92-2,4.24,4.24,0,0,1,1.55-.28,4.18,4.18,0,0,1,1.54.28,3.4,3.4,0,0,1,1.19.79,3.48,3.48,0,0,1,.75,1.23,4.82,4.82,0,0,1,0,3.18,3.53,3.53,0,0,1-.75,1.22,3.27,3.27,0,0,1-1.19.79A4,4,0,0,1,52.69,440Zm0-1.16a2,2,0,0,0,1.64-.74,3.63,3.63,0,0,0,0-4,2.2,2.2,0,0,0-3.27,0,3.58,3.58,0,0,0,0,4A2,2,0,0,0,52.69,438.8Z"/><path d="M58.37,432.33h1.49v4.5a2.56,2.56,0,0,0,.31,1.38,1.21,1.21,0,0,0,1.08.46,1.79,1.79,0,0,0,1.39-.55,2.17,2.17,0,0,0,.5-1.5v-4.29h1.5v7.49h-1.5v-1.2h0a2.86,2.86,0,0,1-.91,1,2.56,2.56,0,0,1-1.44.36,2.21,2.21,0,0,1-1.85-.71,3.3,3.3,0,0,1-.54-2Z"/><path d="M67,432.33h1.5v1.16h0a2.85,2.85,0,0,1,.86-.95,2.1,2.1,0,0,1,1.23-.35h.21l.22,0v1.56a1.67,1.67,0,0,0-.3-.07,2,2,0,0,0-.34,0,1.86,1.86,0,0,0-1.39.53,2.06,2.06,0,0,0-.52,1.5v4.1H67Z"/><path d="M73.59,437.38a1.4,1.4,0,0,0,.56,1.14,2.25,2.25,0,0,0,1.23.31,1.82,1.82,0,0,0,1-.25.87.87,0,0,0,.36-.76.76.76,0,0,0-.32-.66,2.81,2.81,0,0,0-.82-.35l-1.06-.24a5,5,0,0,1-1.06-.33,2.15,2.15,0,0,1-.82-.64,1.79,1.79,0,0,1-.33-1.15,2.18,2.18,0,0,1,.18-.89,1.85,1.85,0,0,1,.52-.72,2.55,2.55,0,0,1,.88-.47,3.8,3.8,0,0,1,1.23-.18,3.21,3.21,0,0,1,2.13.65,2.48,2.48,0,0,1,.82,1.89H76.67a1.41,1.41,0,0,0-.43-1.06,1.6,1.6,0,0,0-1.06-.33,2.22,2.22,0,0,0-.62.08,1,1,0,0,0-.4.23A.84.84,0,0,0,74,434a1.27,1.27,0,0,0-.07.37.7.7,0,0,0,.34.62,3,3,0,0,0,.81.34c.32.09.67.17,1.06.25a4.8,4.8,0,0,1,1,.35,2.22,2.22,0,0,1,.81.65,1.88,1.88,0,0,1,.33,1.16,2,2,0,0,1-.74,1.63,3.31,3.31,0,0,1-2.19.61,3.82,3.82,0,0,1-2.31-.62,2.5,2.5,0,0,1-.91-2Z"/><path d="M84.44,433.57h-1v-1.24h1V430.4h1.5v1.93h1.75v1.24H85.94v3.93a1.15,1.15,0,0,0,.26.83,1.13,1.13,0,0,0,.8.26l.36,0,.37-.05v1.33l-.46.07a2.93,2.93,0,0,1-.53,0,2.41,2.41,0,0,1-1.69-.56,2.35,2.35,0,0,1-.61-1.82Z"/><path d="M91.34,439.82l-3-7.49H90l2.11,5.78L94,432.33h1.57L91.9,442.55H90.3Z"/><path d="M97,432.33h1.5v1.16h0a3,3,0,0,1,.92-.94,2.74,2.74,0,0,1,1.49-.36,3,3,0,0,1,1.39.3,2.79,2.79,0,0,1,1,.8,3.76,3.76,0,0,1,.6,1.22,6.12,6.12,0,0,1,0,3.14,3.91,3.91,0,0,1-.63,1.24,2.66,2.66,0,0,1-1,.79A3.12,3.12,0,0,1,101,440a2.65,2.65,0,0,1-1.46-.36,3,3,0,0,1-.94-1h0v3.93H97Zm3.52,6.49a1.84,1.84,0,0,0,1.52-.71,3.18,3.18,0,0,0,.56-2,3.29,3.29,0,0,0-.54-2,1.83,1.83,0,0,0-1.56-.72,1.69,1.69,0,0,0-1.53.73,3.65,3.65,0,0,0-.48,2,3.51,3.51,0,0,0,.49,2A1.74,1.74,0,0,0,100.56,438.82Z"/><path d="M112.42,437.26a3.08,3.08,0,0,1-.28,1.09,2.6,2.6,0,0,1-.66.85,3.13,3.13,0,0,1-1,.56,4.16,4.16,0,0,1-1.32.2,4,4,0,0,1-1.58-.28,2.85,2.85,0,0,1-1.1-.79,3.15,3.15,0,0,1-.63-1.22,5.67,5.67,0,0,1-.21-1.59,5.58,5.58,0,0,1,.22-1.58,3.17,3.17,0,0,1,.66-1.23,2.94,2.94,0,0,1,1.09-.8,4,4,0,0,1,1.53-.28,3.81,3.81,0,0,1,1.51.27,2.61,2.61,0,0,1,1,.77,3.08,3.08,0,0,1,.58,1.22,6.69,6.69,0,0,1,.18,1.62v.24h-5.27a2.88,2.88,0,0,0,.53,1.84,1.75,1.75,0,0,0,1.39.61,2,2,0,0,0,1.28-.39,1.59,1.59,0,0,0,.58-1.11ZM111,435.33a2.3,2.3,0,0,0-.48-1.41,1.63,1.63,0,0,0-1.33-.55,1.85,1.85,0,0,0-1.34.48,2.36,2.36,0,0,0-.62,1.48Z"/><path d="M22.75,455.42h0a3.05,3.05,0,0,1-.92,1,2.64,2.64,0,0,1-1.5.37,3.25,3.25,0,0,1-1.37-.28,2.61,2.61,0,0,1-1-.81,3.55,3.55,0,0,1-.61-1.23,5.74,5.74,0,0,1-.2-1.54,5.67,5.67,0,0,1,.21-1.59,3.56,3.56,0,0,1,.62-1.23,2.79,2.79,0,0,1,1-.8,3.09,3.09,0,0,1,1.36-.29,2.71,2.71,0,0,1,1.47.36,3.09,3.09,0,0,1,.93.94h0v-4h1.49v10.36H22.75Zm-2,.2a1.72,1.72,0,0,0,1.54-.72,3.66,3.66,0,0,0,.48-2,3.54,3.54,0,0,0-.49-2,1.73,1.73,0,0,0-1.54-.72,1.85,1.85,0,0,0-1.53.72,3.24,3.24,0,0,0-.56,2,3.28,3.28,0,0,0,.55,2A1.82,1.82,0,0,0,20.74,455.62Z"/><path d="M26.65,449.13h1.5v4.5a2.57,2.57,0,0,0,.3,1.38,1.21,1.21,0,0,0,1.08.46,1.79,1.79,0,0,0,1.39-.55,2.17,2.17,0,0,0,.5-1.5v-4.29h1.5v7.49h-1.5v-1.2h0a2.86,2.86,0,0,1-.91,1,2.56,2.56,0,0,1-1.44.36,2.19,2.19,0,0,1-1.84-.71,3.24,3.24,0,0,1-.55-2Z"/><path d="M41.9,447.62H38.61v-1.36H46.8v1.36H43.53v9H41.9Z"/><path d="M51.61,456.76a4,4,0,0,1-1.54-.28,3.31,3.31,0,0,1-1.18-.79,3.68,3.68,0,0,1-.75-1.22,5,5,0,0,1,0-3.18,3.63,3.63,0,0,1,.75-1.23,3.45,3.45,0,0,1,1.18-.79,4.18,4.18,0,0,1,1.54-.28,4.24,4.24,0,0,1,1.55.28,3.36,3.36,0,0,1,1.18.79,3.5,3.5,0,0,1,.76,1.23,4.82,4.82,0,0,1,0,3.18,3.55,3.55,0,0,1-.76,1.22,3.23,3.23,0,0,1-1.18.79A4,4,0,0,1,51.61,456.76Zm0-1.16a2,2,0,0,0,1.64-.74,3.63,3.63,0,0,0,0-4,2.2,2.2,0,0,0-3.27,0,3.63,3.63,0,0,0,0,4A2,2,0,0,0,51.61,455.6Z"/><path d="M57.29,449.13h1.5v4.5A2.47,2.47,0,0,0,59.1,455a1.18,1.18,0,0,0,1.08.46,1.75,1.75,0,0,0,1.38-.55,2.13,2.13,0,0,0,.51-1.5v-4.29h1.5v7.49h-1.5v-1.2h0a3,3,0,0,1-.91,1,2.6,2.6,0,0,1-1.44.36,2.21,2.21,0,0,1-1.85-.71,3.3,3.3,0,0,1-.55-2Z"/><path d="M66,449.13h1.5v1.16h0a3,3,0,0,1,.86-1,2.22,2.22,0,0,1,1.23-.34h.22a1,1,0,0,1,.22,0v1.56l-.3-.07a2,2,0,0,0-.35,0A1.84,1.84,0,0,0,68,451a2.06,2.06,0,0,0-.52,1.5v4.1H66Z"/><path d="M80.89,455.42h0a3,3,0,0,1-.91,1,2.64,2.64,0,0,1-1.5.37,3.33,3.33,0,0,1-1.38-.28,2.77,2.77,0,0,1-1-.81,3.71,3.71,0,0,1-.6-1.23,5.74,5.74,0,0,1-.2-1.54,5.67,5.67,0,0,1,.21-1.59,3.55,3.55,0,0,1,.61-1.23,2.88,2.88,0,0,1,1-.8,3.15,3.15,0,0,1,1.36-.29,2.67,2.67,0,0,1,1.47.36,2.88,2.88,0,0,1,.93.94h0v-4h1.5v10.36h-1.5Zm-2,.2a1.71,1.71,0,0,0,1.53-.72,3.66,3.66,0,0,0,.49-2,3.46,3.46,0,0,0-.5-2,1.73,1.73,0,0,0-1.53-.72,1.82,1.82,0,0,0-1.53.72,4,4,0,0,0,0,4A1.82,1.82,0,0,0,78.89,455.62Z"/><path d="M91.11,454.06a3.08,3.08,0,0,1-.28,1.09,2.6,2.6,0,0,1-.66.85,3.13,3.13,0,0,1-1,.56,4.16,4.16,0,0,1-1.32.2,4,4,0,0,1-1.58-.28,2.85,2.85,0,0,1-1.1-.79,3.15,3.15,0,0,1-.63-1.22,5.67,5.67,0,0,1-.2-1.59,5.59,5.59,0,0,1,.21-1.58,3.31,3.31,0,0,1,.66-1.23,3,3,0,0,1,1.09-.8,4,4,0,0,1,1.54-.28,3.76,3.76,0,0,1,1.5.27,2.47,2.47,0,0,1,1,.77,3.08,3.08,0,0,1,.58,1.22,6.69,6.69,0,0,1,.18,1.62v.24H85.85a2.94,2.94,0,0,0,.53,1.84,1.75,1.75,0,0,0,1.4.61,2,2,0,0,0,1.27-.39,1.55,1.55,0,0,0,.58-1.11Zm-1.47-1.93a2.3,2.3,0,0,0-.48-1.41,1.6,1.6,0,0,0-1.32-.55,1.89,1.89,0,0,0-1.35.48,2.3,2.3,0,0,0-.61,1.48Z"/><path d="M97.46,446.26H104v1.36h-5v3.07h4.73V452H99.08v4.59H97.46Z"/><path d="M106.29,449.13h1.49v1.16h0a3,3,0,0,1,.86-1,2.22,2.22,0,0,1,1.23-.34h.22a.79.79,0,0,1,.21,0v1.56a1.77,1.77,0,0,0-.29-.07,2,2,0,0,0-.35,0,1.88,1.88,0,0,0-1.39.53,2.1,2.1,0,0,0-.52,1.5v4.1h-1.49Z"/><path d="M116.25,455.57h0a2.75,2.75,0,0,1-1,.86,3.42,3.42,0,0,1-1.58.33,3,3,0,0,1-1-.16,2.14,2.14,0,0,1-.74-.42,1.84,1.84,0,0,1-.44-.63,2.28,2.28,0,0,1-.14-.77,2,2,0,0,1,.36-1.27,2.43,2.43,0,0,1,.92-.68,4.87,4.87,0,0,1,1.21-.32l1.23-.2.67-.12a1.55,1.55,0,0,0,.39-.14.36.36,0,0,0,.17-.22,1,1,0,0,0,0-.32,1.3,1.3,0,0,0-.38-1,1.64,1.64,0,0,0-1.15-.37,1.85,1.85,0,0,0-1.17.33,1.48,1.48,0,0,0-.49,1.07h-1.44a2.92,2.92,0,0,1,.84-1.9,3.16,3.16,0,0,1,2.27-.69,3.1,3.1,0,0,1,2.29.75,3.06,3.06,0,0,1,.73,2.25v4.63h-1.5Zm0-2.61a9.1,9.1,0,0,1-1.2.25,11.09,11.09,0,0,0-1.14.21,2.31,2.31,0,0,0-.85.39.85.85,0,0,0-.33.73.93.93,0,0,0,.38.78,1.49,1.49,0,0,0,1,.3,2.65,2.65,0,0,0,.87-.14,2.12,2.12,0,0,0,.69-.4,1.8,1.8,0,0,0,.46-.63,2.14,2.14,0,0,0,.16-.82Z"/><path d="M120,449.13h1.5v1.18h0a2.82,2.82,0,0,1,.94-1A2.91,2.91,0,0,1,124,449a2.25,2.25,0,0,1,1.9.72,3.25,3.25,0,0,1,.55,2v4.9H125v-4.49a2.42,2.42,0,0,0-.33-1.39,1.28,1.28,0,0,0-1.13-.46,1.91,1.91,0,0,0-1.44.55,2.1,2.1,0,0,0-.53,1.51v4.28H120Z"/><path d="M135.18,453.87a2.89,2.89,0,0,1-.92,2.15,3.45,3.45,0,0,1-2.33.74,3.92,3.92,0,0,1-1.56-.28,2.81,2.81,0,0,1-1.11-.79,3.47,3.47,0,0,1-.66-1.23,5.54,5.54,0,0,1-.21-1.58,5,5,0,0,1,.23-1.58,3.33,3.33,0,0,1,.67-1.23,3,3,0,0,1,1.1-.8,4,4,0,0,1,1.53-.28,3.42,3.42,0,0,1,2.33.76,3,3,0,0,1,.93,2.17h-1.49a1.84,1.84,0,0,0-.54-1.25,2,2,0,0,0-2.73.21,3.14,3.14,0,0,0-.52,2,3.28,3.28,0,0,0,.51,2,1.79,1.79,0,0,0,1.49.66,1.81,1.81,0,0,0,1.26-.42,1.83,1.83,0,0,0,.53-1.24Z"/><path d="M143.58,454.06a2.88,2.88,0,0,1-.28,1.09,2.6,2.6,0,0,1-.66.85,3.13,3.13,0,0,1-1,.56,4.11,4.11,0,0,1-1.32.2,4,4,0,0,1-1.58-.28,2.82,2.82,0,0,1-1.09-.79,3.31,3.31,0,0,1-.64-1.22,6.07,6.07,0,0,1-.2-1.59,5.25,5.25,0,0,1,.22-1.58,3.29,3.29,0,0,1,.65-1.23,3,3,0,0,1,1.1-.8,3.94,3.94,0,0,1,1.53-.28,3.72,3.72,0,0,1,1.5.27,2.57,2.57,0,0,1,1,.77,3.22,3.22,0,0,1,.58,1.22,6.69,6.69,0,0,1,.18,1.62v.24h-5.28a2.94,2.94,0,0,0,.54,1.84,1.73,1.73,0,0,0,1.39.61,2,2,0,0,0,1.27-.39,1.55,1.55,0,0,0,.58-1.11Zm-1.47-1.93a2.18,2.18,0,0,0-.48-1.41,1.6,1.6,0,0,0-1.32-.55,1.89,1.89,0,0,0-1.35.48,2.36,2.36,0,0,0-.61,1.48Z"/><path d="M20.45,467.91,17,463.06h1.88l2.57,3.74,2.58-3.74H26l-3.49,4.87,4,5.49H24.56l-3.11-4.34-3.06,4.34H16.54Z"/><path d="M30.63,467.91l-3.41-4.85H29.1l2.57,3.74,2.57-3.74h1.9l-3.49,4.87,4,5.49H34.75l-3.11-4.34-3.06,4.34H26.73Z"/><path d="M38,463.06h1.63v10.36H38Z"/><path d="M45.34,467.27a1.83,1.83,0,0,1-.16.63,1.58,1.58,0,0,1-.39.5,1.81,1.81,0,0,1-.58.32,2.63,2.63,0,0,1-1.69,0,1.67,1.67,0,0,1-.64-.46,1.89,1.89,0,0,1-.37-.72,3.26,3.26,0,0,1-.12-.92,3,3,0,0,1,.13-.92,1.91,1.91,0,0,1,.38-.72,1.67,1.67,0,0,1,.64-.46,2.21,2.21,0,0,1,.89-.17,2.3,2.3,0,0,1,.88.16,1.39,1.39,0,0,1,.59.45,1.74,1.74,0,0,1,.34.71,3.85,3.85,0,0,1,.11.94v.14H42.27a1.73,1.73,0,0,0,.31,1.07,1,1,0,0,0,.81.36,1.24,1.24,0,0,0,.75-.22.92.92,0,0,0,.33-.65Zm-.86-1.13a1.31,1.31,0,0,0-.28-.82.94.94,0,0,0-.77-.32,1.05,1.05,0,0,0-.78.28,1.32,1.32,0,0,0-.36.86Z"/><path d="M52.17,471a1.38,1.38,0,0,0,.56,1.15,2.25,2.25,0,0,0,1.23.31,1.82,1.82,0,0,0,1-.25.87.87,0,0,0,.36-.76.75.75,0,0,0-.33-.66,2.64,2.64,0,0,0-.81-.35l-1.06-.24a5,5,0,0,1-1.06-.33,2.15,2.15,0,0,1-.82-.64,1.81,1.81,0,0,1-.33-1.15,2.18,2.18,0,0,1,.18-.89,1.85,1.85,0,0,1,.52-.72,2.55,2.55,0,0,1,.88-.47,3.8,3.8,0,0,1,1.23-.18,3.21,3.21,0,0,1,2.13.65,2.48,2.48,0,0,1,.82,1.89H55.25a1.41,1.41,0,0,0-.43-1.06,1.6,1.6,0,0,0-1.06-.33,2.17,2.17,0,0,0-.62.08,1,1,0,0,0-.4.23.84.84,0,0,0-.21.33,1.27,1.27,0,0,0-.07.37.69.69,0,0,0,.33.62,3.26,3.26,0,0,0,.82.34c.32.09.67.17,1.06.25a4.8,4.8,0,0,1,1,.35,2.22,2.22,0,0,1,.81.65,1.88,1.88,0,0,1,.33,1.16,2,2,0,0,1-.74,1.63,3.35,3.35,0,0,1-2.19.61,3.82,3.82,0,0,1-2.31-.62,2.47,2.47,0,0,1-.91-2Z"/><path d="M59.57,464.62a.91.91,0,0,1-.7-.28.94.94,0,0,1-.26-.67,1,1,0,0,1,.26-.7.93.93,0,0,1,.7-.27.94.94,0,0,1,.68.27.91.91,0,0,1,.28.7.88.88,0,0,1-.28.67A.91.91,0,0,1,59.57,464.62Zm-.75,1.31h1.5v7.49h-1.5Z"/><path d="M69,470.86a3.08,3.08,0,0,1-.28,1.09,2.6,2.6,0,0,1-.66.85,3.13,3.13,0,0,1-1,.56,4.16,4.16,0,0,1-1.32.2,4,4,0,0,1-1.58-.28,2.85,2.85,0,0,1-1.1-.79,3.15,3.15,0,0,1-.63-1.22,5.67,5.67,0,0,1-.2-1.59,5.59,5.59,0,0,1,.21-1.58,3.17,3.17,0,0,1,.66-1.23,3,3,0,0,1,1.09-.8,4,4,0,0,1,1.54-.28,3.76,3.76,0,0,1,1.5.27,2.47,2.47,0,0,1,1,.77,3.08,3.08,0,0,1,.58,1.22,6.69,6.69,0,0,1,.18,1.62v.24H63.78a2.88,2.88,0,0,0,.53,1.84,1.75,1.75,0,0,0,1.4.61A2,2,0,0,0,67,472a1.55,1.55,0,0,0,.58-1.11Zm-4.13-7.8,1.43,2H65.17l-2.08-2Zm2.66,5.87a2.3,2.3,0,0,0-.48-1.41,1.6,1.6,0,0,0-1.32-.55,1.89,1.89,0,0,0-1.35.48,2.36,2.36,0,0,0-.62,1.48Z"/><path d="M77.49,470.67a2.86,2.86,0,0,1-.92,2.15,3.43,3.43,0,0,1-2.33.74,4,4,0,0,1-1.56-.28,3,3,0,0,1-1.11-.79,3.45,3.45,0,0,1-.65-1.23,5.66,5.66,0,0,1,0-3.16,3.48,3.48,0,0,1,.67-1.23,3,3,0,0,1,1.1-.8,4,4,0,0,1,1.53-.28,3.38,3.38,0,0,1,2.34.76,2.92,2.92,0,0,1,.92,2.17H76a1.89,1.89,0,0,0-.55-1.26,2,2,0,0,0-2.73.22,4.09,4.09,0,0,0,0,4,2,2,0,0,0,2.74.24,1.8,1.8,0,0,0,.54-1.24Z"/><path d="M79.58,463.06h1.5v10.36h-1.5Z"/><path d="M89.8,470.86a3.08,3.08,0,0,1-.28,1.09,2.6,2.6,0,0,1-.66.85,3.13,3.13,0,0,1-1,.56,4.16,4.16,0,0,1-1.32.2,4,4,0,0,1-1.58-.28,2.74,2.74,0,0,1-1.09-.79,3.17,3.17,0,0,1-.64-1.22,5.67,5.67,0,0,1-.2-1.59,5.59,5.59,0,0,1,.21-1.58,3.46,3.46,0,0,1,.66-1.23,3,3,0,0,1,1.09-.8,4,4,0,0,1,1.54-.28,3.72,3.72,0,0,1,1.5.27,2.47,2.47,0,0,1,1,.77,3.08,3.08,0,0,1,.58,1.22,6.67,6.67,0,0,1,.19,1.62v.24H84.54a3,3,0,0,0,.53,1.84,1.75,1.75,0,0,0,1.4.61,2,2,0,0,0,1.27-.39,1.55,1.55,0,0,0,.58-1.11Zm-1.47-1.93a2.3,2.3,0,0,0-.48-1.41,1.6,1.6,0,0,0-1.32-.55,1.89,1.89,0,0,0-1.35.48,2.3,2.3,0,0,0-.61,1.48Z"/><path d="M98,475.1a10.62,10.62,0,0,1-.8-1.13,7.79,7.79,0,0,1-.67-1.39,9.44,9.44,0,0,1-.46-1.63,10,10,0,0,1-.17-1.87,10.11,10.11,0,0,1,.17-1.88,9.58,9.58,0,0,1,.46-1.62,8,8,0,0,1,.67-1.38,9.18,9.18,0,0,1,.8-1.14h1.19A9.33,9.33,0,0,0,97.71,466a11.43,11.43,0,0,0,0,6.14,9.33,9.33,0,0,0,1.46,3Z"/><path d="M101.14,470.12a2.49,2.49,0,0,0,.69,1.64,2.28,2.28,0,0,0,1.6.54,2.11,2.11,0,0,0,1.47-.47,1.69,1.69,0,0,0,.52-1.31,1.83,1.83,0,0,0-.49-1.33,1.8,1.8,0,0,0-1.33-.5h-1.39v-1.23h1a1.58,1.58,0,0,0,1.23-.48,1.65,1.65,0,0,0,.44-1.19,1.67,1.67,0,0,0-.42-1.14,1.61,1.61,0,0,0-1.24-.47,1.64,1.64,0,0,0-1.29.53,2.49,2.49,0,0,0-.55,1.51H99.83a3.4,3.4,0,0,1,1-2.45,3.5,3.5,0,0,1,2.49-.85,4.13,4.13,0,0,1,1.33.2,2.89,2.89,0,0,1,1,.54,2.23,2.23,0,0,1,.61.82,2.64,2.64,0,0,1,.21,1.06,2.57,2.57,0,0,1-.33,1.33,2.85,2.85,0,0,1-1,.93,2.82,2.82,0,0,1,1.34,1,2.94,2.94,0,0,1,.47,1.68,3.17,3.17,0,0,1-.24,1.25,2.65,2.65,0,0,1-.7,1,3.1,3.1,0,0,1-1.14.61,5,5,0,0,1-1.57.22,4.62,4.62,0,0,1-1.63-.25,3.06,3.06,0,0,1-1.13-.7,3.1,3.1,0,0,1-.66-1.09,5,5,0,0,1-.27-1.4Z"/><path d="M113.37,470.2a3,3,0,0,0,.25,1,2.08,2.08,0,0,0,.5.65,2.15,2.15,0,0,0,.67.35,2.88,2.88,0,0,0,.78.1,2,2,0,0,0,1.49-.55,2,2,0,0,0,.57-1.55,2.13,2.13,0,0,0-.57-1.55,2.2,2.2,0,0,0-1.66-.59,4.69,4.69,0,0,0-1.31.2,4.44,4.44,0,0,0-1.19.53l-.32,0,1.22-5.69H119v1.29h-4.09l-.63,2.77a6.07,6.07,0,0,1,.71-.19,4,4,0,0,1,.75-.08,4.33,4.33,0,0,1,1.43.23,3.18,3.18,0,0,1,1.1.65,2.89,2.89,0,0,1,.7,1,3.84,3.84,0,0,1,.24,1.4,3.56,3.56,0,0,1-.26,1.42,3,3,0,0,1-.73,1.07,3.2,3.2,0,0,1-1.15.67,4.61,4.61,0,0,1-1.49.23,5.11,5.11,0,0,1-1.46-.19,3,3,0,0,1-1.14-.6,2.92,2.92,0,0,1-.77-1,4.44,4.44,0,0,1-.32-1.52Z"/><path d="M121.55,470.12a2.49,2.49,0,0,0,.69,1.64,2.3,2.3,0,0,0,1.6.54,2.11,2.11,0,0,0,1.47-.47,1.66,1.66,0,0,0,.52-1.31,1.83,1.83,0,0,0-.49-1.33,1.8,1.8,0,0,0-1.33-.5h-1.39v-1.23h1a1.61,1.61,0,0,0,1.24-.48,1.69,1.69,0,0,0,.43-1.19,1.67,1.67,0,0,0-.42-1.14,1.61,1.61,0,0,0-1.24-.47,1.64,1.64,0,0,0-1.29.53,2.55,2.55,0,0,0-.55,1.51h-1.55a3.44,3.44,0,0,1,1-2.45,3.52,3.52,0,0,1,2.49-.85,4.13,4.13,0,0,1,1.33.2,2.8,2.8,0,0,1,1,.54,2.23,2.23,0,0,1,.61.82,2.48,2.48,0,0,1,.22,1.06,2.58,2.58,0,0,1-.34,1.33,2.85,2.85,0,0,1-1,.93,2.82,2.82,0,0,1,1.34,1,2.94,2.94,0,0,1,.47,1.68,3.17,3.17,0,0,1-.24,1.25,2.62,2.62,0,0,1-.69,1,3.23,3.23,0,0,1-1.15.61,5,5,0,0,1-1.57.22,4.62,4.62,0,0,1-1.63-.25,2.93,2.93,0,0,1-1.12-.7,3,3,0,0,1-.67-1.09,5,5,0,0,1-.27-1.4Z"/><path d="M129.63,470.2a2.82,2.82,0,0,0,.25,1,1.94,1.94,0,0,0,.5.65,2,2,0,0,0,.67.35,2.88,2.88,0,0,0,.78.1,1.93,1.93,0,0,0,2.06-2.1,2.13,2.13,0,0,0-.57-1.55,2.21,2.21,0,0,0-1.66-.59,4.63,4.63,0,0,0-1.31.2,4.44,4.44,0,0,0-1.19.53l-.33,0,1.22-5.69h5.18v1.29h-4.09l-.63,2.77a5.58,5.58,0,0,1,.71-.19,3.82,3.82,0,0,1,.75-.08,4.23,4.23,0,0,1,1.42.23,3.22,3.22,0,0,1,1.11.65,3,3,0,0,1,.7,1,3.84,3.84,0,0,1,.24,1.4,3.74,3.74,0,0,1-.26,1.42,2.9,2.9,0,0,1-.74,1.07,3.07,3.07,0,0,1-1.14.67,4.72,4.72,0,0,1-1.5.23,5.16,5.16,0,0,1-1.46-.19,3,3,0,0,1-1.14-.6,2.9,2.9,0,0,1-.76-1,4,4,0,0,1-.32-1.52Z"/><path d="M141.28,463.06h1.5v6.26l3.1-3.39h2l-3.29,3.4,3.65,4.09h-1.95l-3.46-4.07v4.07h-1.5Z"/><path d="M149.65,465.93h1.5v1.18h0a2.84,2.84,0,0,1,.85-1,2.24,2.24,0,0,1,1.34-.36,2.35,2.35,0,0,1,1.38.36,2.06,2.06,0,0,1,.75,1h0a2.72,2.72,0,0,1,.92-1,2.59,2.59,0,0,1,1.41-.36,2.16,2.16,0,0,1,1.79.7,3.19,3.19,0,0,1,.56,2v4.9h-1.49v-4.49a2.41,2.41,0,0,0-.32-1.41,1.14,1.14,0,0,0-1-.44,1.65,1.65,0,0,0-1.23.48,2,2,0,0,0-.48,1.47v4.39h-1.49v-4.49a2.84,2.84,0,0,0-.28-1.39,1.1,1.1,0,0,0-1-.46,1.59,1.59,0,0,0-1.28.54,2.33,2.33,0,0,0-.45,1.52v4.28h-1.5Z"/><path d="M161.46,475.1a9.3,9.3,0,0,0,1.45-3,11.43,11.43,0,0,0,0-6.14,9.3,9.3,0,0,0-1.45-2.95h1.19a10.41,10.41,0,0,1,.81,1.14,8,8,0,0,1,.66,1.38,9.58,9.58,0,0,1,.45,1.62,10.43,10.43,0,0,1,0,3.75,9.44,9.44,0,0,1-.45,1.63,7.76,7.76,0,0,1-.66,1.39,9.38,9.38,0,0,1-.81,1.13Z"/><path class="cls-5" d="M59.89,514.17A8.15,8.15,0,1,1,68,506,8.15,8.15,0,0,1,59.89,514.17Z"/><path d="M48.77,521.2h1.9a2.41,2.41,0,0,1,1,.19,2.08,2.08,0,0,1,.77.53,2.28,2.28,0,0,1,.49.81,3,3,0,0,1,.18,1.06,3,3,0,0,1-.18,1.06,2.33,2.33,0,0,1-.49.82,2.18,2.18,0,0,1-.77.52,2.41,2.41,0,0,1-1,.19h-1.9Zm1.9,4.5a1.53,1.53,0,0,0,.64-.14,1.39,1.39,0,0,0,.51-.39,1.64,1.64,0,0,0,.32-.6,2.6,2.6,0,0,0,0-1.56,1.73,1.73,0,0,0-.32-.6,1.39,1.39,0,0,0-.51-.39,1.37,1.37,0,0,0-.64-.14H49.58v3.82Z"/><path d="M57.32,525.1a1.66,1.66,0,0,1-.14.54,1.27,1.27,0,0,1-.33.43,1.62,1.62,0,0,1-.5.28,2.28,2.28,0,0,1-.66.1,2.12,2.12,0,0,1-.8-.14,1.37,1.37,0,0,1-.54-.4,1.55,1.55,0,0,1-.32-.61,2.8,2.8,0,0,1-.1-.79,2.48,2.48,0,0,1,.11-.79,1.61,1.61,0,0,1,.33-.62,1.47,1.47,0,0,1,.54-.4,2,2,0,0,1,.77-.14,1.89,1.89,0,0,1,.75.14,1.22,1.22,0,0,1,.51.38,1.5,1.5,0,0,1,.29.61,3.35,3.35,0,0,1,.09.81v.12H54.68a1.46,1.46,0,0,0,.27.92.87.87,0,0,0,.7.3,1,1,0,0,0,.64-.19.78.78,0,0,0,.28-.55Zm-.74-1a1.14,1.14,0,0,0-.24-.7.79.79,0,0,0-.66-.28.92.92,0,0,0-.67.24,1.13,1.13,0,0,0-.31.74Zm-.5-2.93H57l-1,1h-.59Z"/><path d="M58.38,522.63h.74v.58h0a1.47,1.47,0,0,1,.46-.47,1.37,1.37,0,0,1,.74-.18,1.54,1.54,0,0,1,.7.15,1.5,1.5,0,0,1,.5.4,1.93,1.93,0,0,1,.3.61,3,3,0,0,1,0,1.57,1.9,1.9,0,0,1-.31.62,1.39,1.39,0,0,1-.5.4,1.65,1.65,0,0,1-.68.14,1.26,1.26,0,0,1-.73-.19,1.44,1.44,0,0,1-.47-.48h0v2h-.74Zm1.75,3.25a.93.93,0,0,0,.77-.36,2,2,0,0,0,0-2,.91.91,0,0,0-.77-.36.86.86,0,0,0-.77.36,1.82,1.82,0,0,0-.24,1,1.8,1.8,0,0,0,.24,1A.87.87,0,0,0,60.13,525.88Z"/><path d="M65.08,525.85h0a1.43,1.43,0,0,1-.51.43,1.74,1.74,0,0,1-.79.17,1.69,1.69,0,0,1-.53-.08,1,1,0,0,1-.36-.21.87.87,0,0,1-.22-.32,1.11,1.11,0,0,1,.1-1,1.2,1.2,0,0,1,.46-.34,2.87,2.87,0,0,1,.61-.16l.62-.1.33-.06a.5.5,0,0,0,.19-.07.16.16,0,0,0,.09-.11.69.69,0,0,0-.17-.64.82.82,0,0,0-.58-.18.91.91,0,0,0-.58.16.72.72,0,0,0-.24.54h-.73a1.45,1.45,0,0,1,.42-1,1.6,1.6,0,0,1,1.14-.35,1.56,1.56,0,0,1,1.14.37,1.54,1.54,0,0,1,.37,1.13v2.32h-.75Zm0-1.3a5.31,5.31,0,0,1-.6.12c-.21,0-.4.07-.57.11a1.16,1.16,0,0,0-.42.19.43.43,0,0,0-.17.36.47.47,0,0,0,.19.4.73.73,0,0,0,.48.15,1.56,1.56,0,0,0,.44-.07,1.27,1.27,0,0,0,.34-.2.94.94,0,0,0,.23-.32,1.07,1.07,0,0,0,.08-.41Z"/><path d="M67,522.63h.75v.58h0a1.54,1.54,0,0,1,.43-.48,1.07,1.07,0,0,1,.61-.17H69v.78a.57.57,0,0,0-.15,0l-.17,0a.94.94,0,0,0-.7.27,1.05,1.05,0,0,0-.26.75v2H67Z"/><path d="M69.8,523.25h-.52v-.62h.52v-1h.75v1h.88v.62h-.88v2a.53.53,0,0,0,.13.41.55.55,0,0,0,.4.13h.18l.19,0v.66l-.23,0-.27,0a1.21,1.21,0,0,1-.84-.28,1.17,1.17,0,0,1-.31-.91Z"/><path class="cls-6" d="M126.39,514.17a8.15,8.15,0,1,1,8.14-8.14A8.15,8.15,0,0,1,126.39,514.17Z"/><path d="M116.09,521.2h.75l2,5.18H118l-.48-1.24h-2.13l-.46,1.24h-.86Zm1.19,3.26-.82-2.16-.82,2.16Z"/><path d="M119.64,522.63h.74v.58h0a1.54,1.54,0,0,1,.43-.48,1.1,1.1,0,0,1,.62-.17h.21v.78a.57.57,0,0,0-.15,0l-.17,0a.94.94,0,0,0-.7.27,1.05,1.05,0,0,0-.26.75v2h-.74Z"/><path d="M122.44,522.63h.75v.58h0a1.54,1.54,0,0,1,.43-.48,1.07,1.07,0,0,1,.61-.17h.22v.78a.57.57,0,0,0-.15,0l-.17,0a.93.93,0,0,0-.7.27,1.05,1.05,0,0,0-.26.75v2h-.75Z"/><path d="M125.62,522a.44.44,0,0,1-.34-.14.48.48,0,0,1-.14-.34.54.54,0,0,1,.13-.35.48.48,0,0,1,.35-.14.46.46,0,0,1,.34.14.45.45,0,0,1,.14.35.44.44,0,0,1-.14.34A.46.46,0,0,1,125.62,522Zm-.37.65H126v3.75h-.75Z"/><path d="M126.72,522.63h.8l1,2.89,1-2.89h.78l-1.43,3.75h-.75Z"/><path d="M134.21,525.1a1.66,1.66,0,0,1-.14.54,1.27,1.27,0,0,1-.33.43,1.62,1.62,0,0,1-.5.28,2.28,2.28,0,0,1-.66.1,2.07,2.07,0,0,1-.79-.14,1.4,1.4,0,0,1-.55-.4,1.55,1.55,0,0,1-.32-.61,3,3,0,0,1,0-1.58,1.61,1.61,0,0,1,.33-.62,1.56,1.56,0,0,1,.54-.4,2,2,0,0,1,.77-.14,1.86,1.86,0,0,1,.75.14,1.22,1.22,0,0,1,.51.38,1.5,1.5,0,0,1,.29.61,3.35,3.35,0,0,1,.09.81v.12h-2.63a1.4,1.4,0,0,0,.26.92.88.88,0,0,0,.7.3,1,1,0,0,0,.64-.19.78.78,0,0,0,.29-.55Zm-.74-1a1.14,1.14,0,0,0-.24-.7.79.79,0,0,0-.66-.28.93.93,0,0,0-.67.24,1.18,1.18,0,0,0-.31.74Zm-.5-2.93h.91l-1,1h-.59Z"/><path d="M138.43,525.1a1.66,1.66,0,0,1-.14.54,1.27,1.27,0,0,1-.33.43,1.62,1.62,0,0,1-.5.28,2.3,2.3,0,0,1-.67.1,2.1,2.1,0,0,1-.79-.14,1.37,1.37,0,0,1-.54-.4,1.55,1.55,0,0,1-.32-.61,2.8,2.8,0,0,1-.1-.79,2.48,2.48,0,0,1,.11-.79,1.74,1.74,0,0,1,.32-.62,1.59,1.59,0,0,1,.55-.4,2,2,0,0,1,.77-.14,1.89,1.89,0,0,1,.75.14,1.22,1.22,0,0,1,.51.38,1.65,1.65,0,0,1,.29.61,3.35,3.35,0,0,1,.09.81v.12h-2.64a1.46,1.46,0,0,0,.27.92.87.87,0,0,0,.7.3,1,1,0,0,0,.64-.19.78.78,0,0,0,.28-.55Zm-.74-1a1.14,1.14,0,0,0-.24-.7.79.79,0,0,0-.66-.28.92.92,0,0,0-.67.24,1.13,1.13,0,0,0-.31.74Z"/><path d="M31.52,573.68a2.24,2.24,0,0,1-.81.75,2.94,2.94,0,0,1-2.25.07,2.08,2.08,0,0,1-.77-.53,2.48,2.48,0,0,1-.5-.85A3.41,3.41,0,0,1,27,572a3.1,3.1,0,0,1,.17-1.08,2.31,2.31,0,0,1,.48-.84,2.19,2.19,0,0,1,.76-.54,2.46,2.46,0,0,1,1-.2,2.14,2.14,0,0,1,2,1.16l-.7.36a1.34,1.34,0,0,0-.55-.62,1.51,1.51,0,0,0-.8-.2,1.44,1.44,0,0,0-.67.14,1.36,1.36,0,0,0-.5.39,1.91,1.91,0,0,0-.32.62,2.87,2.87,0,0,0-.1.8,2.62,2.62,0,0,0,.12.82,2,2,0,0,0,.34.62,1.54,1.54,0,0,0,1.2.54,1.55,1.55,0,0,0,.78-.19,1.49,1.49,0,0,0,.56-.53Z"/><path d="M34.23,574.69a1.92,1.92,0,0,1-.77-.14,1.56,1.56,0,0,1-.58-.39,1.75,1.75,0,0,1-.38-.61,2.28,2.28,0,0,1-.13-.8,2.22,2.22,0,0,1,.13-.79,1.7,1.7,0,0,1,.38-.62,1.56,1.56,0,0,1,.58-.39A2.22,2.22,0,0,1,35,571a1.6,1.6,0,0,1,.59.39A1.85,1.85,0,0,1,36,572a2.22,2.22,0,0,1,.13.79,2.28,2.28,0,0,1-.13.8,1.91,1.91,0,0,1-.38.61,1.6,1.6,0,0,1-.59.39A1.94,1.94,0,0,1,34.23,574.69Zm0-.58a1,1,0,0,0,.82-.37,1.78,1.78,0,0,0,0-2,1,1,0,0,0-.82-.37,1,1,0,0,0-.81.37,1.78,1.78,0,0,0,0,2A1,1,0,0,0,34.23,574.11Z"/><path d="M37.07,570.88h.75v.59h0a1.38,1.38,0,0,1,.47-.49,1.49,1.49,0,0,1,.75-.17,1.12,1.12,0,0,1,.95.36,1.57,1.57,0,0,1,.28,1v2.45h-.75v-2.24a1.32,1.32,0,0,0-.16-.7.66.66,0,0,0-.57-.23.94.94,0,0,0-.72.28,1,1,0,0,0-.27.75v2.14h-.75Z"/><path d="M41.5,571.5H41v-.62h.53v-1h.75v1h.87v.62h-.87v2a.57.57,0,0,0,.13.42.54.54,0,0,0,.4.13H43l.18,0v.67l-.23,0a1.1,1.1,0,0,1-.26,0,1,1,0,0,1-1.15-1.19Z"/><path d="M44,570.88h.75v.58h0a1.45,1.45,0,0,1,.43-.48,1.13,1.13,0,0,1,.62-.17h.11l.1,0v.78l-.14,0h-.18a.92.92,0,0,0-.69.27,1,1,0,0,0-.26.74v2H44Z"/><path d="M49.92,573.34a1.65,1.65,0,0,1-.14.55,1.34,1.34,0,0,1-.33.42,1.74,1.74,0,0,1-.5.28,2,2,0,0,1-.66.1,1.94,1.94,0,0,1-.8-.14,1.34,1.34,0,0,1-.54-.39,1.62,1.62,0,0,1-.32-.61,2.87,2.87,0,0,1-.1-.8,2.48,2.48,0,0,1,.11-.79,1.69,1.69,0,0,1,.32-.61,1.48,1.48,0,0,1,.55-.4,2,2,0,0,1,.77-.14,1.9,1.9,0,0,1,.75.13,1.25,1.25,0,0,1,.51.39,1.65,1.65,0,0,1,.29.61,3.35,3.35,0,0,1,.09.81v.12H47.28a1.48,1.48,0,0,0,.27.92.87.87,0,0,0,.7.3,1,1,0,0,0,.63-.19.77.77,0,0,0,.29-.56Zm-.74-1a1.17,1.17,0,0,0-.24-.71.81.81,0,0,0-.66-.27.92.92,0,0,0-.67.24,1.13,1.13,0,0,0-.31.74Z"/><path d="M50.84,572.08h1.9v.71h-1.9Z"/><path d="M53.81,569.44h.75v5.18h-.75Z"/><path d="M57.94,574.1h0a1.28,1.28,0,0,1-.51.43,1.71,1.71,0,0,1-.79.16,1.64,1.64,0,0,1-.52-.07,1.21,1.21,0,0,1-.37-.22.84.84,0,0,1-.22-.31,1,1,0,0,1-.07-.39,1,1,0,0,1,.18-.63,1.13,1.13,0,0,1,.46-.34,2.2,2.2,0,0,1,.6-.16l.62-.1.34-.06.19-.07a.31.31,0,0,0,.09-.11.7.7,0,0,0,0-.16.63.63,0,0,0-.2-.48.8.8,0,0,0-.57-.19.94.94,0,0,0-.59.17.76.76,0,0,0-.24.53h-.72a1.47,1.47,0,0,1,.42-1,1.58,1.58,0,0,1,1.13-.34,1.32,1.32,0,0,1,1.52,1.5v2.31h-.75Zm0-1.3a5.6,5.6,0,0,1-.59.12c-.21,0-.4.06-.57.1a1.15,1.15,0,0,0-.43.2.41.41,0,0,0-.16.36.46.46,0,0,0,.18.39.76.76,0,0,0,.48.15,1.23,1.23,0,0,0,.44-.07,1.1,1.1,0,0,0,.35-.2,1,1,0,0,0,.22-.31.91.91,0,0,0,.08-.41Z"/><path d="M59.7,572.08h1.89v.71H59.7Z"/><path d="M62.66,570.88h.75v.59h0a1.4,1.4,0,0,1,.42-.48,1.13,1.13,0,0,1,.67-.18,1.18,1.18,0,0,1,.69.18,1,1,0,0,1,.37.51h0a1.34,1.34,0,0,1,.46-.51,1.28,1.28,0,0,1,.7-.18,1.07,1.07,0,0,1,.9.35,1.62,1.62,0,0,1,.28,1v2.45h-.74v-2.24a1.31,1.31,0,0,0-.16-.71.61.61,0,0,0-.5-.22.84.84,0,0,0-.62.24,1,1,0,0,0-.23.74v2.19h-.75v-2.24a1.44,1.44,0,0,0-.14-.7.57.57,0,0,0-.51-.23.76.76,0,0,0-.64.28,1.14,1.14,0,0,0-.23.75v2.14h-.75Z"/><path d="M70.76,574.69a1.92,1.92,0,0,1-.77-.14,1.6,1.6,0,0,1-.59-.39,1.72,1.72,0,0,1-.37-.61,2.28,2.28,0,0,1-.14-.8A2.22,2.22,0,0,1,69,572a1.68,1.68,0,0,1,.37-.62A1.6,1.6,0,0,1,70,571a2.11,2.11,0,0,1,.77-.14,2.21,2.21,0,0,1,.78.14,1.69,1.69,0,0,1,.59.39,1.83,1.83,0,0,1,.37.62,2.22,2.22,0,0,1,.14.79,2.28,2.28,0,0,1-.14.8,1.88,1.88,0,0,1-.37.61,1.69,1.69,0,0,1-.59.39A2,2,0,0,1,70.76,574.69Zm0-.58a1,1,0,0,0,.82-.37,1.78,1.78,0,0,0,0-2,1,1,0,0,0-.82-.37,1,1,0,0,0-.81.37,1.78,1.78,0,0,0,0,2A1,1,0,0,0,70.76,574.11Z"/><path d="M73.6,570.88h.75v.59h0a1.29,1.29,0,0,1,1.23-.66,1.12,1.12,0,0,1,1,.36,1.63,1.63,0,0,1,.27,1v2.45h-.74v-2.24a1.22,1.22,0,0,0-.17-.7.66.66,0,0,0-.56-.23.93.93,0,0,0-.72.28,1,1,0,0,0-.27.75v2.14H73.6Z"/><path d="M78,571.5H77.5v-.62H78v-1h.75v1h.88v.62h-.88v2a.57.57,0,0,0,.14.42.52.52,0,0,0,.4.13h.17l.19,0v.67l-.23,0a1.14,1.14,0,0,1-.27,0,1.17,1.17,0,0,1-.84-.28,1.15,1.15,0,0,1-.31-.91Z"/><path d="M80.48,570.88h.75v.58h0a1.35,1.35,0,0,1,.43-.48,1.1,1.1,0,0,1,.62-.17h.1l.11,0v.78l-.14,0h-.18a.9.9,0,0,0-.69.27,1,1,0,0,0-.26.74v2h-.75Z"/><path d="M86.44,573.34a1.44,1.44,0,0,1-.14.55,1.34,1.34,0,0,1-.33.42,1.51,1.51,0,0,1-.5.28,2.27,2.27,0,0,1-1.45,0,1.45,1.45,0,0,1-.55-.39,1.6,1.6,0,0,1-.31-.61,2.87,2.87,0,0,1-.1-.8,2.8,2.8,0,0,1,.1-.79,1.57,1.57,0,0,1,.33-.61A1.48,1.48,0,0,1,84,571a2,2,0,0,1,.77-.14,1.9,1.9,0,0,1,.75.13,1.25,1.25,0,0,1,.51.39,1.65,1.65,0,0,1,.29.61,3.35,3.35,0,0,1,.09.81v.12H83.81a1.48,1.48,0,0,0,.27.92.87.87,0,0,0,.7.3,1,1,0,0,0,.63-.19.77.77,0,0,0,.29-.56Zm-.73-1a1.17,1.17,0,0,0-.24-.71.81.81,0,0,0-.66-.27,1,1,0,0,0-.68.24,1.18,1.18,0,0,0-.31.74Z"/><polygon class="cls-7" points="117.95 561.91 120.74 552.16 123.83 557.83 127.7 546.05 132.09 555.25 134.99 551.84 137.45 561.91 117.95 561.91"/><polygon class="cls-8" points="125.43 552.16 127.15 554.46 128.39 552.64 129.47 553.73 131.04 552.16 127.7 546.05 125.43 552.16"/><polygon class="cls-8" points="119.66 555.93 121.38 558.35 122.74 555.83 120.74 552.16 119.66 555.93"/><path d="M111.05,569.44h1.06l1.42,3,1.42-3h1v5.18h-.78v-4l-1.37,2.76h-.64l-1.36-2.76v4h-.79Z"/><path d="M118.88,574.69a1.89,1.89,0,0,1-.77-.14,1.6,1.6,0,0,1-.59-.39,1.91,1.91,0,0,1-.38-.61,2.53,2.53,0,0,1-.13-.8,2.47,2.47,0,0,1,.13-.79,1.85,1.85,0,0,1,.38-.62,1.6,1.6,0,0,1,.59-.39,2.07,2.07,0,0,1,.77-.14,2.11,2.11,0,0,1,.77.14,1.6,1.6,0,0,1,.59.39,1.7,1.7,0,0,1,.38.62,2.22,2.22,0,0,1,.13.79,2.28,2.28,0,0,1-.13.8,1.75,1.75,0,0,1-.38.61,1.6,1.6,0,0,1-.59.39A1.92,1.92,0,0,1,118.88,574.69Zm0-.58a1,1,0,0,0,.82-.37,1.83,1.83,0,0,0,0-2,1.09,1.09,0,0,0-1.64,0,1.83,1.83,0,0,0,0,2A1,1,0,0,0,118.88,574.11Z"/><path d="M121.72,570.88h.75v.59h0A1.47,1.47,0,0,1,123,571a1.53,1.53,0,0,1,.76-.17,1.13,1.13,0,0,1,1,.36,1.63,1.63,0,0,1,.27,1v2.45h-.75v-2.24a1.23,1.23,0,0,0-.16-.7.66.66,0,0,0-.56-.23,1,1,0,0,0-.73.28,1.05,1.05,0,0,0-.26.75v2.14h-.75Z"/><path d="M126.14,571.5h-.52v-.62h.52v-1h.75v1h.88v.62h-.88v2a.57.57,0,0,0,.13.42.55.55,0,0,0,.4.13h.18l.19,0v.67l-.23,0a1.14,1.14,0,0,1-.27,0,1.17,1.17,0,0,1-.84-.28,1.15,1.15,0,0,1-.31-.91Z"/><path d="M130.77,574.1h0a1.43,1.43,0,0,1-.51.43,1.74,1.74,0,0,1-.79.16,1.6,1.6,0,0,1-.52-.07,1.21,1.21,0,0,1-.37-.22.84.84,0,0,1-.22-.31,1,1,0,0,1-.08-.39.93.93,0,0,1,.19-.63,1.17,1.17,0,0,1,.45-.34,2.38,2.38,0,0,1,.61-.16l.62-.1.33-.06a1.11,1.11,0,0,0,.2-.07.21.21,0,0,0,.08-.11.39.39,0,0,0,0-.16.62.62,0,0,0-.19-.48.82.82,0,0,0-.58-.19.93.93,0,0,0-.58.17.72.72,0,0,0-.24.53h-.72a1.52,1.52,0,0,1,.41-1,1.6,1.6,0,0,1,1.14-.34,1.32,1.32,0,0,1,1.51,1.5v2.31h-.75Zm0-1.3a5.31,5.31,0,0,1-.6.12c-.21,0-.4.06-.57.1a1.17,1.17,0,0,0-.42.2.42.42,0,0,0-.17.36.44.44,0,0,0,.19.39.73.73,0,0,0,.48.15,1.23,1.23,0,0,0,.44-.07,1.05,1.05,0,0,0,.34-.2.87.87,0,0,0,.23-.31,1.07,1.07,0,0,0,.08-.41Z"/><path d="M136,570.88v.59h-.7a1.41,1.41,0,0,1,.17.32,1.25,1.25,0,0,1,.06.4,1.63,1.63,0,0,1-.1.55,1.3,1.3,0,0,1-.29.43,1.32,1.32,0,0,1-.46.28,1.64,1.64,0,0,1-.6.1,1.57,1.57,0,0,1-.7-.15l-.16.16a.27.27,0,0,0-.06.16.19.19,0,0,0,.12.18.88.88,0,0,0,.32.08l.46,0,.53,0,.52.07a1.66,1.66,0,0,1,.46.15.77.77,0,0,1,.32.27.73.73,0,0,1,.13.45,1,1,0,0,1-.09.41,1,1,0,0,1-.3.35,2,2,0,0,1-.58.23,5,5,0,0,1-1.77,0,1.71,1.71,0,0,1-.54-.18.76.76,0,0,1-.29-.27.63.63,0,0,1-.09-.33.72.72,0,0,1,.13-.44,1,1,0,0,1,.36-.32.74.74,0,0,1-.28-.21.52.52,0,0,1-.1-.33.64.64,0,0,1,.15-.42,1.14,1.14,0,0,1,.39-.32,1.3,1.3,0,0,1-.29-.43,1.4,1.4,0,0,1-.1-.56,1.47,1.47,0,0,1,.1-.56,1.06,1.06,0,0,1,.29-.43,1.19,1.19,0,0,1,.46-.28,1.64,1.64,0,0,1,.6-.1l.27,0,.24,0Zm-.7,4.19a.28.28,0,0,0-.2-.27,1.85,1.85,0,0,0-.49-.12l-.65,0a4.62,4.62,0,0,1-.66-.06,1.07,1.07,0,0,0-.24.27.42.42,0,0,0-.06.21.41.41,0,0,0,.26.36,2.31,2.31,0,0,0,.94.13,2.09,2.09,0,0,0,.84-.12A.41.41,0,0,0,135.33,575.07Zm-1.23-2a.74.74,0,0,0,.57-.22,1.05,1.05,0,0,0,0-1.26.78.78,0,0,0-.57-.22.75.75,0,0,0-.56.22,1.09,1.09,0,0,0,0,1.26A.72.72,0,0,0,134.1,573Z"/><path d="M137,570.88h.75v.59h0a1.47,1.47,0,0,1,.47-.49,1.53,1.53,0,0,1,.76-.17,1.13,1.13,0,0,1,.95.36,1.63,1.63,0,0,1,.27,1v2.45h-.75v-2.24a1.23,1.23,0,0,0-.16-.7.66.66,0,0,0-.56-.23,1,1,0,0,0-.73.28,1.05,1.05,0,0,0-.26.75v2.14H137Z"/><path d="M144.53,573.34a1.44,1.44,0,0,1-.14.55,1.34,1.34,0,0,1-.33.42,1.62,1.62,0,0,1-.5.28,2,2,0,0,1-.66.1,1.89,1.89,0,0,1-.79-.14,1.45,1.45,0,0,1-.55-.39,1.78,1.78,0,0,1-.32-.61,3.3,3.3,0,0,1-.1-.8,2.79,2.79,0,0,1,.11-.79,1.57,1.57,0,0,1,.33-.61,1.44,1.44,0,0,1,.54-.4,2,2,0,0,1,.77-.14,1.83,1.83,0,0,1,.75.13,1.35,1.35,0,0,1,.52.39,1.82,1.82,0,0,1,.29.61,3.35,3.35,0,0,1,.09.81v.12H141.9a1.48,1.48,0,0,0,.27.92.86.86,0,0,0,.69.3,1,1,0,0,0,.64-.19.81.81,0,0,0,.29-.56Zm-.74-1a1.05,1.05,0,0,0-.24-.71.81.81,0,0,0-.66-.27.93.93,0,0,0-.67.24,1.18,1.18,0,0,0-.31.74Z"/><line class="cls-9" x1="64.39" y1="546.7" x2="66.55" y2="544.53"/><line class="cls-9" x1="55.55" y1="546.7" x2="53.39" y2="544.53"/><circle class="cls-10" cx="60.05" cy="553.8" r="8.12"/><polyline class="cls-11" points="59.5 551 59.5 554.53 62.25 557.77"/><line class="cls-9" x1="60" y1="546" x2="60" y2="543"/><path id="etape3" class="cls-12" d="M632.39,305.36s-59.13,4.89-66.48-48.32"/><path id="etape5" class="cls-12" d="M576.84,420S548,432.28,550.53,468"/><path id="etape6" class="cls-12" d="M572.61,499.05s-12.8,8.95-6.7,28.31"/><path id="etape7" class="cls-12" d="M594.39,534.91c6.11,17.6-8.78,31.09-30.88,23.68"/><polygon class="cls-7" points="553.76 516.59 556.56 506.84 559.65 512.51 563.51 500.73 567.91 509.94 570.81 506.52 573.26 516.59 553.76 516.59"/><polygon class="cls-8" points="561.24 506.84 562.96 509.14 564.2 507.32 565.28 508.41 566.86 506.84 563.51 500.73 561.24 506.84"/><polygon class="cls-8" points="555.48 510.61 557.2 513.03 558.56 510.51 556.56 506.84 555.48 510.61"/><polygon class="cls-7" points="576.43 559.96 579.22 550.21 582.31 555.88 586.17 544.1 590.57 553.3 593.47 549.89 595.92 559.96 576.43 559.96"/><polygon class="cls-8" points="583.9 550.21 585.63 552.51 586.87 550.68 587.94 551.78 589.52 550.21 586.17 544.1 583.9 550.21"/><polygon class="cls-8" points="578.14 553.98 579.86 556.39 581.22 553.88 579.22 550.21 578.14 553.98"/><path id="etape8" class="cls-12" d="M538.55,529.52C514,590,585.67,559,585.67,576.38"/><path id="etape20" class="cls-13" d="M407.4,298.05c5.32-.3,5.1,7.31,5.1,7.31"/><path id="etape20-2" data-name="etape20" class="cls-12" d="M404.39,319.36c-18.68,0-20.39-21.85-5.27-21.85"/><path id="Paris" class="cls-6" d="M417.72,308.59H426V286.44H399.12v22.15h8.28V298.05a5.16,5.16,0,0,1,10.32,0Z"/><path class="cls-14" d="M636.72,312.56s-12,3.44-12.17,23.64"/><path class="cls-12" d="M621,352s-11.25,29.74-35.33,55"/><path class="cls-14" d="M600.77,481.52s-1.27,12.84-14.06,12.84"/><path class="cls-14" d="M559.81,533.9c-11.6-1.9-17.06,8-10.27,16.31"/><path class="cls-14" d="M582.5,524.27s-18-7.68-35.79-2.91"/><path class="cls-12" d="M310.61,688.2s-27.36,4.3-30.35-18.87"/><path class="cls-14" d="M288.14,543.52s130.06-107.46,124.41-216"/><path id="etape16" class="cls-12" d="M326.71,686.36s19.29-20.51,44.71-16.84"/><circle class="cls-6" cx="640.55" cy="305.36" r="8.16"/><circle class="cls-6" cx="589.55" cy="528.36" r="8.16"/><circle class="cls-6" cx="567.55" cy="535.36" r="8.16"/><path class="cls-12" d="M500.42,623.7S494,636,477,642"/><path id="etape12" class="cls-12" d="M474,636c8-19,9-32-1-48"/><circle class="cls-5" cx="624.55" cy="344.36" r="8.16"/><circle class="cls-5" cx="412.55" cy="319.36" r="8.16"/><circle class="cls-5" cx="578.55" cy="494.36" r="8.16"/><circle class="cls-5" cx="603.55" cy="582.36" r="8.16"/><circle class="cls-5" cx="538.55" cy="521.36" r="8.16"/><circle class="cls-5" cx="556.55" cy="554.36" r="8.16"/><circle class="cls-5" cx="505.55" cy="617.36" r="8.16"/><path class="cls-12" d="M549,647s6-17,19-27c9.28-7.14,26-7,33-29"/><path class="cls-6" d="M544.15,662.14a8.13,8.13,0,1,0,0-16.25"/><path class="cls-5" d="M544.15,645.89a8.13,8.13,0,1,0,0,16.25"/><path class="cls-6" d="M579.68,590a8.13,8.13,0,0,0,0-16.26"/><path class="cls-6" d="M579.68,573.74a8.13,8.13,0,0,0,0,16.26"/><path class="cls-6" d="M318.74,693.18a8.13,8.13,0,0,0,0-16.26"/><path class="cls-5" d="M318.74,676.92a8.13,8.13,0,0,0,0,16.26"/><path class="cls-12" d="M279,652s1-16,15-9"/><line class="cls-15" x1="285.39" y1="630.7" x2="287.55" y2="628.53"/><line class="cls-15" x1="276.55" y1="630.7" x2="274.39" y2="628.53"/><circle class="cls-16" cx="281.05" cy="637.8" r="8.12"/><polyline class="cls-17" points="280.5 635 280.5 638.53 283.25 641.77"/><line class="cls-15" x1="281" y1="630" x2="281" y2="627"/><line class="cls-15" x1="493.39" y1="626.7" x2="495.55" y2="624.53"/><line class="cls-15" x1="484.55" y1="626.7" x2="482.39" y2="624.53"/><circle class="cls-16" cx="489.05" cy="633.8" r="8.12"/><polyline class="cls-17" points="488.5 631 488.5 634.53 491.25 637.77"/><line class="cls-15" x1="489" y1="626" x2="489" y2="623"/><path class="cls-6" d="M278.74,669.18a8.13,8.13,0,0,0,0-16.26"/><path class="cls-5" d="M278.74,652.92a8.13,8.13,0,0,0,0,16.26"/><path class="cls-12" d="M301.55,638.2s-.73-57.28-16-82.76"/><path class="cls-6" d="M301.74,654.18a8.13,8.13,0,0,0,0-16.26"/><path class="cls-5" d="M301.74,637.92a8.13,8.13,0,0,0,0,16.26"/><path class="cls-6" d="M468.74,650.18a8.13,8.13,0,0,0,0-16.26"/><path class="cls-5" d="M468.74,633.92a8.13,8.13,0,0,0,0,16.26"/><path class="cls-12" d="M538.55,199.81C535.55,226,553.76,217,575,243.65"/><path class="cls-6" d="M571,258.81a8.13,8.13,0,0,0,0-16.26"/><path class="cls-5" d="M571,242.55a8.13,8.13,0,0,0,0,16.26"/><path class="cls-18" d="M513.9,150c-3.76-1.55-7.19-.79-10.76,0-3.42.7-6.52,1.37-9.72,0a2.35,2.35,0,0,0-1.46.09c-.27.19-1,.5-1,.84V175.2a1,1,0,1,0,2,0v-8.52a23.12,23.12,0,0,0,4,.46,33.74,33.74,0,0,0,6.51-.85c3.43-.71,6.8-1.37,10-.06.3.13.2.1.48-.09s0-.49,0-.83V150.94C514,150.53,514.28,150.17,513.9,150Zm-1.9,13.9c-3-.89-6.57-.23-9.7.42s-6.3,1.29-9.3.29V152.33c3,.9,6.57.23,9.7-.41s6.3-1.29,9.3-.29Z"/><path class="cls-6" d="M492,192.81a8.13,8.13,0,0,0,0-16.26"/><path class="cls-5" d="M492,176.55a8.13,8.13,0,0,0,0,16.26"/><path class="cls-6" d="M579,420.64a8.13,8.13,0,1,0,0-16.25"/><path class="cls-5" d="M579,404.39a8.13,8.13,0,0,0,0,16.25"/><path class="cls-12" d="M538.55,479c8.16,17,34.16-4.19,56-2.45"/><polygon class="cls-7" points="563.51 482.22 566.31 472.47 569.4 478.15 573.26 466.36 577.66 475.57 580.56 472.15 583.01 482.22 563.51 482.22"/><polygon class="cls-8" points="570.99 472.47 572.71 474.77 573.95 472.95 575.03 474.05 576.61 472.47 573.26 466.36 570.99 472.47"/><polygon class="cls-8" points="565.23 476.24 566.95 478.66 568.31 476.14 566.31 472.47 565.23 476.24"/><polygon class="cls-7" points="528.77 566.28 531.56 556.53 534.65 562.2 538.51 550.42 542.91 559.63 545.81 556.21 548.26 566.28 528.77 566.28"/><polygon class="cls-8" points="536.25 556.53 537.97 558.83 539.21 557 540.28 558.1 541.86 556.53 538.51 550.42 536.25 556.53"/><polygon class="cls-8" points="530.48 560.3 532.2 562.72 533.56 560.2 531.56 556.53 530.48 560.3"/><polygon class="cls-7" points="279.96 687.34 282.76 677.59 285.85 683.26 289.71 671.48 294.11 680.68 297.01 677.27 299.46 687.34 279.96 687.34"/><polygon class="cls-8" points="287.44 677.59 289.16 679.89 290.4 678.06 291.48 679.16 293.06 677.59 289.71 671.48 287.44 677.59"/><polygon class="cls-8" points="281.68 681.36 283.39 683.78 284.76 681.26 282.76 677.59 281.68 681.36"/><polygon class="cls-7" points="335.96 678.06 338.76 668.31 341.85 673.98 345.71 662.2 350.11 671.4 353.01 667.99 355.46 678.06 335.96 678.06"/><polygon class="cls-8" points="343.44 668.31 345.16 670.61 346.4 668.78 347.48 669.88 349.06 668.31 345.71 662.2 343.44 668.31"/><polygon class="cls-8" points="337.68 672.08 339.39 674.5 340.76 671.98 338.76 668.31 337.68 672.08"/><path class="cls-12" d="M369,642c34,28,34,53,4.71,56.36"/><polygon class="cls-7" points="382.14 698 384.94 688.25 388.03 693.92 391.89 682.14 396.29 691.35 399.19 687.93 401.64 698 382.14 698"/><polygon class="cls-8" points="389.62 688.25 391.34 690.55 392.58 688.73 393.66 689.82 395.24 688.25 391.89 682.14 389.62 688.25"/><polygon class="cls-8" points="383.86 692.02 385.57 694.44 386.94 691.92 384.94 688.25 383.86 692.02"/><path class="cls-14" d="M357.55,695.55c-4.05-4,2.37-18.59,13.37-16.45"/><circle class="cls-6" cx="281.55" cy="548.36" r="8.16"/><path class="cls-6" d="M544.42,481.48a8.13,8.13,0,1,0,0-16.25"/><path class="cls-5" d="M544.42,465.23a8.13,8.13,0,1,0,0,16.25"/><path class="cls-14" d="M392,612s-12.95,1-25,17"/><circle class="cls-5" cx="363.55" cy="636.36" r="8.16"/><path class="cls-6" d="M465.45,592.37a8.13,8.13,0,0,0,0-16.26"/><path class="cls-12" d="M458,587s-14-2-18,26c-3,20.79,4,56-16,58"/><path class="cls-5" d="M465.45,576.11a8.13,8.13,0,0,0,0,16.26"/><circle class="cls-6" cx="602.55" cy="473.36" r="8.16"/><circle class="cls-5" cx="539.55" cy="192.36" r="8.16"/><path class="cls-12" d="M411,666s-3.77-5-4-9c-1-17,8-25,2-39"/><circle class="cls-6" cx="402.55" cy="612.36" r="8.16"/><circle class="cls-5" cx="377.55" cy="674.36" r="8.16"/><circle class="cls-6" cx="365.55" cy="698.36" r="8.16"/><path class="cls-12" d="M543,645s0-5-6-11c-9.62-9.62-13,6-25.22-11.38"/><path class="cls-14" d="M587,572s7-12,14,1"/><path class="cls-6" d="M415.74,681.18a8.13,8.13,0,0,0,0-16.26"/><path class="cls-5" d="M415.74,664.92a8.13,8.13,0,0,0,0,16.26"/></svg>