<?xml version="1.0" encoding="utf-8"?>
<!-- Generator: Adobe Illustrator 19.0.0, SVG Export Plug-In . SVG Version: 6.00 Build 0)  -->
<svg version="1.1" id="Calque_1" xmlns="http://www.w3.org/2000/svg" xmlns:xlink="http://www.w3.org/1999/xlink" x="0px" y="0px"
	 viewBox="0 0 190.8 62.2" style="enable-background:new 0 0 190.8 62.2;" xml:space="preserve">
<style type="text/css">
	.st0{fill:#3C63AA;stroke:#1D1D1B;stroke-width:2;}
	.st1{fill:#1D1D1B;}
	.st2{fill:#C32121;stroke:#1D1D1B;stroke-width:2;}
	.st3{fill:none;stroke:#1D1D1B;stroke-width:2;}
	.st4{fill:#FFFFFF;stroke:#1D1D1B;}
	.st5{stroke:#1D1D1B;}
	.st6{fill:#FFFFFF;stroke:#1D1D1B;stroke-width:2;stroke-linecap:round;stroke-linejoin:round;}
</style>
<g id="XMLID_2404_">
	<g id="XMLID_2436_">
		<circle id="XMLID_2439_" class="st0" cx="22.6" cy="24.9" r="8.1"/>
		<g id="XMLID_84_">
			<path id="XMLID_85_" class="st1" d="M12.5,40.5h1.1c1,0,2.2,0.1,2.2,2.4v2c0,2.4-1.2,2.4-2.2,2.4h-1.1V40.5z M13.8,46.6
				c0.7,0,0.9-0.3,0.9-1.6v-2.1c0-1.3-0.2-1.6-0.9-1.6h-0.3v5.3H13.8z"/>
			<path id="XMLID_88_" class="st1" d="M16.5,45v-1c0-2.1,1-2.3,1.6-2.3c0.7,0,1.4,0.4,1.4,1.7c0,0.4-0.1,0.9-0.1,1.3h-1.8v0.6
				c0,1,0.1,1.3,0.6,1.3c0.2,0,0.5-0.2,0.5-0.8v-0.2h0.8v0.2c0,1-0.5,1.5-1.4,1.5C17.1,47.3,16.5,46.7,16.5,45z M18.6,44.1
				c0-0.1,0-0.4,0-0.6c0-0.7-0.2-1-0.5-1c-0.4,0-0.5,0.3-0.5,1.2v0.3H18.6z M17.6,41.1l1.2-1.7l0.7,0.5l-1.3,1.5L17.6,41.1z"/>
			<path id="XMLID_92_" class="st1" d="M21.3,47.6V49h-1v-7.2h0.8l0.1,0.6c0.2-0.3,0.5-0.6,1-0.6c0.3,0,1.1,0.1,1.1,2v1.7
				c0,1.9-0.8,2-1.2,2c-0.4,0-0.7-0.2-0.9-0.4L21.3,47.6z M21.8,46.6c0.3,0,0.5-0.2,0.5-1v-2.1c0-0.8-0.2-1-0.5-1
				c-0.2,0-0.4,0.2-0.5,0.4v3.3C21.4,46.4,21.6,46.6,21.8,46.6z"/>
			<path id="XMLID_95_" class="st1" d="M23.9,46c0-0.9,0.4-1.4,1.3-1.8c0.2-0.1,0.5-0.2,0.7-0.3v-0.7c0-0.4,0-0.8-0.5-0.8
				c-0.3,0-0.6,0.2-0.6,0.8v0.2h-0.8c0-0.2-0.1-0.4-0.1-0.5c0-0.8,0.6-1.3,1.4-1.3c1.1,0,1.4,0.5,1.4,1.4v4.1h-0.7l-0.1-0.5
				c-0.2,0.3-0.6,0.5-1.1,0.5C24.3,47.3,23.9,46.8,23.9,46z M25.9,46.3v-1.7c-0.1,0-0.2,0.1-0.4,0.2c-0.3,0.2-0.6,0.5-0.6,1.1
				c0,0.4,0.2,0.7,0.5,0.7C25.6,46.6,25.8,46.5,25.9,46.3z"/>
			<path id="XMLID_98_" class="st1" d="M27.9,41.8h0.7l0.1,0.6c0.2-0.4,0.5-0.6,0.8-0.6c0.6,0,0.8,0.4,0.8,1.1
				c0,0.2-0.1,0.5-0.1,0.7h-0.7V43c0-0.4-0.1-0.6-0.3-0.6c-0.2,0-0.3,0.1-0.4,0.3v4.5h-1V41.8z"/>
			<path id="XMLID_100_" class="st1" d="M31.1,42.5h-0.4v-0.7h0.5l0.2-1.4h0.7v1.4H33v0.7h-0.9V46c0,0.5,0.2,0.6,0.4,0.6
				c0.2,0,0.3-0.1,0.5-0.1V47c-0.2,0.3-0.6,0.4-0.8,0.4c-0.6,0-1.1-0.2-1.1-1.4V42.5z"/>
		</g>
	</g>
	<circle id="XMLID_2435_" class="st2" cx="63.2" cy="24.9" r="8.1"/>
	<g id="XMLID_64_">
		<path id="XMLID_65_" class="st1" d="M53.1,40.5h1.2l1.3,6.8h-1l-0.2-1.2h-1.2l-0.2,1.2h-1L53.1,40.5z M54.2,45.3l-0.5-3.4h0
			l-0.5,3.4H54.2z"/>
		<path id="XMLID_68_" class="st1" d="M56.1,41.8h0.7l0.1,0.6c0.2-0.4,0.5-0.6,0.8-0.6c0.6,0,0.8,0.4,0.8,1.1c0,0.2-0.1,0.5-0.1,0.7
			h-0.7V43c0-0.4-0.1-0.6-0.3-0.6c-0.2,0-0.3,0.1-0.4,0.3v4.5h-1V41.8z"/>
		<path id="XMLID_70_" class="st1" d="M59.2,41.8H60l0.1,0.6c0.2-0.4,0.5-0.6,0.8-0.6c0.6,0,0.8,0.4,0.8,1.1c0,0.2-0.1,0.5-0.1,0.7
			h-0.7V43c0-0.4-0.1-0.6-0.3-0.6c-0.2,0-0.3,0.1-0.4,0.3v4.5h-1V41.8z"/>
		<path id="XMLID_72_" class="st1" d="M62.3,40.4c0-0.5,0.2-0.6,0.6-0.6c0.4,0,0.6,0.2,0.6,0.6c0,0.4-0.2,0.7-0.6,0.7
			C62.5,41,62.3,40.8,62.3,40.4z M62.4,41.8h1v5.5h-1V41.8z"/>
		<path id="XMLID_75_" class="st1" d="M64,41.8h1l0.5,2.9l0.1,1.2h0l0.2-1.2l0.5-2.9h1L66,47.3h-0.9L64,41.8z"/>
		<path id="XMLID_77_" class="st1" d="M67.8,45v-1c0-2.1,1-2.3,1.6-2.3c0.7,0,1.4,0.4,1.4,1.7c0,0.4-0.1,0.9-0.1,1.3h-1.8v0.6
			c0,1,0.1,1.3,0.6,1.3c0.2,0,0.5-0.2,0.5-0.8v-0.2h0.8v0.2c0,1-0.5,1.5-1.4,1.5C68.3,47.3,67.8,46.7,67.8,45z M69.8,44.1
			c0-0.1,0-0.4,0-0.6c0-0.7-0.2-1-0.5-1c-0.4,0-0.5,0.3-0.5,1.2v0.3H69.8z M68.8,41.1l1.2-1.7l0.7,0.5l-1.3,1.5L68.8,41.1z"/>
		<path id="XMLID_81_" class="st1" d="M71.4,45v-1c0-2.1,1-2.3,1.6-2.3c0.7,0,1.4,0.4,1.4,1.7c0,0.4-0.1,0.9-0.1,1.3h-1.8v0.6
			c0,1,0.1,1.3,0.6,1.3c0.2,0,0.5-0.2,0.5-0.8v-0.2h0.8v0.2c0,1-0.5,1.5-1.4,1.5C71.9,47.3,71.4,46.7,71.4,45z M73.4,44.1
			c0-0.1,0-0.4,0-0.6c0-0.7-0.2-1-0.5-1c-0.4,0-0.5,0.3-0.5,1.2v0.3H73.4z"/>
	</g>
	<g id="XMLID_2413_">
		<circle id="XMLID_2432_" class="st3" cx="111.6" cy="24.9" r="8.1"/>
		<path id="XMLID_2431_" class="st4" d="M114.9,28.8l1.9,2.3c0.7-0.6,1.3-1.3,1.8-2.2l-2.6-1.5C115.7,28,115.4,28.4,114.9,28.8z"/>
		<path id="XMLID_2430_" class="st5" d="M107.2,27.5l-2.6,1.5c0.5,0.8,1.1,1.6,1.8,2.2l1.9-2.3C107.9,28.4,107.5,28,107.2,27.5z"/>
		<path id="XMLID_2429_" class="st4" d="M108.3,28.8l-1.9,2.3c0.7,0.6,1.5,1.1,2.4,1.4l1-2.8C109.3,29.5,108.8,29.2,108.3,28.8z"/>
		<path id="XMLID_2428_" class="st5" d="M111.6,30c-0.6,0-1.2-0.1-1.8-0.3l-1,2.8c0.9,0.3,1.8,0.5,2.8,0.5h0L111.6,30L111.6,30z"/>
		<path id="XMLID_2427_" class="st5" d="M106.5,24.9c0-0.3,0-0.6,0.1-0.9l-2.9-0.5c-0.1,0.5-0.1,0.9-0.1,1.4s0,0.9,0.1,1.4l2.9-0.5
			C106.5,25.5,106.5,25.2,106.5,24.9z"/>
		<path id="XMLID_2426_" class="st4" d="M106.6,25.8l-2.9,0.5c0.2,0.9,0.5,1.8,1,2.6l2.6-1.5C106.9,26.9,106.7,26.4,106.6,25.8z"/>
		<path id="XMLID_2425_" class="st5" d="M116,27.5l2.6,1.5c0.5-0.8,0.8-1.7,1-2.6l-2.9-0.5C116.6,26.4,116.3,26.9,116,27.5z"/>
		<path id="XMLID_2424_" class="st4" d="M119.6,23.5l-2.9,0.5c0.1,0.3,0.1,0.6,0.1,0.9s0,0.6-0.1,0.9l2.9,0.5
			c0.1-0.5,0.1-0.9,0.1-1.4S119.7,23.9,119.6,23.5z"/>
		<path id="XMLID_2423_" class="st4" d="M111.6,30v3c1,0,1.9-0.2,2.8-0.5l-1-2.8C112.8,29.9,112.2,30,111.6,30z"/>
		<path id="XMLID_2422_" class="st5" d="M113.4,29.7l1,2.8c0.9-0.3,1.7-0.8,2.4-1.4l-1.9-2.3C114.5,29.2,113.9,29.5,113.4,29.7z"/>
		<path id="XMLID_2421_" class="st5" d="M114.9,21l1.9-2.3c-0.7-0.6-1.5-1.1-2.4-1.4l-1,2.8C113.9,20.3,114.5,20.6,114.9,21z"/>
		<path id="XMLID_2420_" class="st4" d="M116,22.3l2.6-1.5c-0.5-0.8-1.1-1.6-1.8-2.2l-1.9,2.3C115.4,21.4,115.7,21.8,116,22.3z"/>
		<path id="XMLID_2419_" class="st5" d="M116.7,24l2.9-0.5c-0.2-0.9-0.5-1.8-1-2.6l-2.6,1.5C116.3,22.8,116.6,23.4,116.7,24z"/>
		<path id="XMLID_2418_" class="st4" d="M113.4,20.1l1-2.8c-0.9-0.3-1.8-0.5-2.8-0.5v3C112.2,19.8,112.8,19.9,113.4,20.1z"/>
		<path id="XMLID_2417_" class="st5" d="M111.6,19.8L111.6,19.8l0-3h0c-1,0-1.9,0.2-2.8,0.5l1,2.8C110.4,19.9,111,19.8,111.6,19.8z"
			/>
		<path id="XMLID_2416_" class="st4" d="M107.2,22.3l-2.6-1.5c-0.5,0.8-0.8,1.7-1,2.6l2.9,0.5C106.7,23.4,106.9,22.8,107.2,22.3z"/>
		<path id="XMLID_2415_" class="st5" d="M108.3,21l-1.9-2.3c-0.7,0.6-1.3,1.3-1.8,2.2l2.6,1.5C107.5,21.8,107.9,21.4,108.3,21z"/>
		<path id="XMLID_2414_" class="st4" d="M109.9,20.1l-1-2.8c-0.9,0.3-1.7,0.8-2.4,1.4l1.9,2.3C108.8,20.6,109.3,20.3,109.9,20.1z"/>
	</g>
	<g id="XMLID_24_">
		<path id="XMLID_25_" class="st1" d="M83.1,45.1v-2.4c0-2,1-2.2,1.6-2.2c1.1,0,1.4,0.7,1.4,1.4c0,0.3,0,0.5-0.1,0.8h-0.8v-0.3
			c0-0.7-0.2-1.1-0.5-1.1c-0.4,0-0.6,0.3-0.6,1.1v3.1c0,0.8,0.2,1.1,0.6,1.1c0.3,0,0.5-0.2,0.5-0.8v-0.7h0.9v0.6
			c0,1.1-0.5,1.6-1.4,1.6C84.1,47.3,83.1,47.1,83.1,45.1z"/>
		<path id="XMLID_27_" class="st1" d="M86.8,44.9v-0.9c0-2.1,0.8-2.3,1.5-2.3c0.7,0,1.5,0.2,1.5,2.3v0.9c0,2.1-0.9,2.4-1.5,2.4
			C87.6,47.3,86.8,47.1,86.8,44.9z M88.8,45.2v-1.3c0-1-0.1-1.4-0.5-1.4c-0.4,0-0.5,0.3-0.5,1.4v1.3c0,1,0.1,1.4,0.5,1.4
			C88.7,46.6,88.8,46.2,88.8,45.2z"/>
		<path id="XMLID_30_" class="st1" d="M90.7,41.8h0.8l0.1,0.6v0c0.3-0.5,0.7-0.7,1.1-0.7c0.6,0,1,0.5,1,1.3v4.2h-1v-4.1
			c0-0.5-0.2-0.6-0.4-0.6c-0.2,0-0.4,0.1-0.6,0.4v4.4h-1V41.8z"/>
		<path id="XMLID_32_" class="st1" d="M94.8,42.5h-0.4v-0.7h0.5l0.2-1.4h0.7v1.4h0.9v0.7h-0.9V46c0,0.5,0.2,0.6,0.4,0.6
			c0.2,0,0.3-0.1,0.5-0.1V47c-0.2,0.3-0.6,0.4-0.8,0.4c-0.6,0-1.1-0.2-1.1-1.4V42.5z"/>
		<path id="XMLID_34_" class="st1" d="M97.4,41.8h0.7l0.1,0.6c0.2-0.4,0.5-0.6,0.8-0.6c0.6,0,0.8,0.4,0.8,1.1c0,0.2-0.1,0.5-0.1,0.7
			H99V43c0-0.4-0.1-0.6-0.3-0.6c-0.2,0-0.3,0.1-0.4,0.3v4.5h-1V41.8z"/>
		<path id="XMLID_36_" class="st1" d="M100.4,45v-1c0-2.1,1-2.3,1.6-2.3c0.7,0,1.4,0.4,1.4,1.7c0,0.4-0.1,0.9-0.1,1.3h-1.8v0.6
			c0,1,0.1,1.3,0.6,1.3c0.2,0,0.5-0.2,0.5-0.8v-0.2h0.8v0.2c0,1-0.5,1.5-1.4,1.5C100.9,47.3,100.4,46.7,100.4,45z M102.4,44.1
			c0-0.1,0-0.4,0-0.6c0-0.7-0.2-1-0.5-1c-0.4,0-0.5,0.3-0.5,1.2v0.3H102.4z"/>
		<path id="XMLID_39_" class="st1" d="M104.1,43.7h3v0.8h-3V43.7z"/>
		<path id="XMLID_41_" class="st1" d="M108.1,40.1h1v7.2h-1V40.1z"/>
		<path id="XMLID_43_" class="st1" d="M109.9,46c0-0.9,0.4-1.4,1.3-1.8c0.2-0.1,0.5-0.2,0.7-0.3v-0.7c0-0.4,0-0.8-0.5-0.8
			c-0.3,0-0.6,0.2-0.6,0.8v0.2H110c0-0.2-0.1-0.4-0.1-0.5c0-0.8,0.6-1.3,1.4-1.3c1.1,0,1.4,0.5,1.4,1.4v4.1h-0.7l-0.1-0.5
			c-0.2,0.3-0.6,0.5-1.1,0.5C110.3,47.3,109.9,46.8,109.9,46z M111.8,46.3v-1.7c-0.1,0-0.2,0.1-0.4,0.2c-0.3,0.2-0.6,0.5-0.6,1.1
			c0,0.4,0.2,0.7,0.5,0.7C111.5,46.6,111.7,46.5,111.8,46.3z"/>
		<path id="XMLID_47_" class="st1" d="M113.8,43.7h3v0.8h-3V43.7z"/>
		<path id="XMLID_49_" class="st1" d="M117.8,41.8h0.8l0.1,0.6v0c0.3-0.5,0.7-0.7,1.1-0.7c0.4,0,0.7,0.2,0.9,0.6
			c0.3-0.5,0.7-0.6,1.1-0.6c0.6,0,1,0.5,1,1.3v4.2h-1v-4.1c0-0.5-0.1-0.6-0.5-0.6c-0.2,0-0.4,0.1-0.5,0.4c0,0,0,0.1,0,0.1v4.3h-1
			v-4.1c0-0.5-0.1-0.6-0.5-0.6c-0.2,0-0.4,0.1-0.5,0.4v4.4h-1V41.8z"/>
		<path id="XMLID_52_" class="st1" d="M123.7,44.9v-0.9c0-2.1,0.8-2.3,1.5-2.3c0.7,0,1.5,0.2,1.5,2.3v0.9c0,2.1-0.9,2.4-1.5,2.4
			C124.5,47.3,123.7,47.1,123.7,44.9z M125.7,45.2v-1.3c0-1-0.1-1.4-0.5-1.4c-0.4,0-0.5,0.3-0.5,1.4v1.3c0,1,0.1,1.4,0.5,1.4
			C125.6,46.6,125.7,46.2,125.7,45.2z"/>
		<path id="XMLID_55_" class="st1" d="M127.6,41.8h0.8l0.1,0.6v0c0.3-0.5,0.7-0.7,1.1-0.7c0.6,0,1,0.5,1,1.3v4.2h-1v-4.1
			c0-0.5-0.2-0.6-0.4-0.6c-0.2,0-0.4,0.1-0.6,0.4v4.4h-1V41.8z"/>
		<path id="XMLID_57_" class="st1" d="M131.7,42.5h-0.4v-0.7h0.5l0.2-1.4h0.7v1.4h0.9v0.7h-0.9V46c0,0.5,0.2,0.6,0.4,0.6
			c0.2,0,0.3-0.1,0.5-0.1V47c-0.2,0.3-0.6,0.4-0.8,0.4c-0.6,0-1.1-0.2-1.1-1.4V42.5z"/>
		<path id="XMLID_59_" class="st1" d="M134.3,41.8h0.7l0.1,0.6c0.2-0.4,0.5-0.6,0.8-0.6c0.6,0,0.8,0.4,0.8,1.1
			c0,0.2-0.1,0.5-0.1,0.7H136V43c0-0.4-0.1-0.6-0.3-0.6c-0.2,0-0.3,0.1-0.4,0.3v4.5h-1V41.8z"/>
		<path id="XMLID_61_" class="st1" d="M137.3,45v-1c0-2.1,1-2.3,1.6-2.3c0.7,0,1.4,0.4,1.4,1.7c0,0.4-0.1,0.9-0.1,1.3h-1.8v0.6
			c0,1,0.1,1.3,0.6,1.3c0.2,0,0.5-0.2,0.5-0.8v-0.2h0.8v0.2c0,1-0.5,1.5-1.4,1.5C137.8,47.3,137.3,46.7,137.3,45z M139.3,44.1
			c0-0.1,0-0.4,0-0.6c0-0.7-0.2-1-0.5-1c-0.4,0-0.5,0.3-0.5,1.2v0.3H139.3z"/>
	</g>
	<g id="XMLID_2407_">
		<polygon id="XMLID_2410_" class="st6" points="150.8,32.5 153.6,22.8 156.7,28.5 160.6,16.7 165,25.9 167.9,22.5 170.3,32.5 		"/>
		<polygon id="XMLID_2409_" class="st1" points="158.3,22.8 160,25.1 161.3,23.3 162.4,24.4 163.9,22.8 160.6,16.7 		"/>
		<polygon id="XMLID_2408_" class="st1" points="152.6,26.6 154.3,29 155.6,26.5 153.6,22.8 		"/>
	</g>
	<g id="XMLID_1_">
		<path id="XMLID_2_" class="st1" d="M147.2,40.5h1.3l0.7,2.6c0.1,0.6,0.2,1.1,0.3,1.6h0c0.1-0.5,0.1-1,0.3-1.6l0.7-2.6h1.3v6.8h-1
			V45c0-1.4,0.1-2.6,0.1-3.1h-0.1l-1,4.4h-0.7l-1-4.4H148c0,0.5,0.1,1.7,0.1,3.1v2.2h-1V40.5z"/>
		<path id="XMLID_4_" class="st1" d="M152.7,44.9v-0.9c0-2.1,0.8-2.3,1.5-2.3c0.7,0,1.5,0.2,1.5,2.3v0.9c0,2.1-0.9,2.4-1.5,2.4
			C153.5,47.3,152.7,47.1,152.7,44.9z M154.7,45.2v-1.3c0-1-0.1-1.4-0.5-1.4c-0.4,0-0.5,0.3-0.5,1.4v1.3c0,1,0.1,1.4,0.5,1.4
			C154.6,46.6,154.7,46.2,154.7,45.2z"/>
		<path id="XMLID_7_" class="st1" d="M156.6,41.8h0.8l0.1,0.6v0c0.3-0.5,0.7-0.7,1.1-0.7c0.6,0,1,0.5,1,1.3v4.2h-1v-4.1
			c0-0.5-0.2-0.6-0.4-0.6c-0.2,0-0.4,0.1-0.6,0.4v4.4h-1V41.8z"/>
		<path id="XMLID_9_" class="st1" d="M160.7,42.5h-0.4v-0.7h0.5l0.2-1.4h0.7v1.4h0.9v0.7h-0.9V46c0,0.5,0.2,0.6,0.4,0.6
			c0.2,0,0.3-0.1,0.5-0.1V47c-0.2,0.3-0.6,0.4-0.8,0.4c-0.6,0-1.1-0.2-1.1-1.4V42.5z"/>
		<path id="XMLID_11_" class="st1" d="M163,46c0-0.9,0.4-1.4,1.3-1.8c0.2-0.1,0.5-0.2,0.7-0.3v-0.7c0-0.4,0-0.8-0.5-0.8
			c-0.3,0-0.6,0.2-0.6,0.8v0.2h-0.8c0-0.2-0.1-0.4-0.1-0.5c0-0.8,0.6-1.3,1.4-1.3c1.1,0,1.4,0.5,1.4,1.4v4.1h-0.7l-0.1-0.5
			c-0.2,0.3-0.6,0.5-1.1,0.5C163.4,47.3,163,46.8,163,46z M165,46.3v-1.7c-0.1,0-0.2,0.1-0.4,0.2c-0.3,0.2-0.6,0.5-0.6,1.1
			c0,0.4,0.2,0.7,0.5,0.7C164.7,46.6,164.8,46.5,165,46.3z"/>
		<path id="XMLID_14_" class="st1" d="M167.8,47.6c0,0.5,0.2,0.6,0.5,0.6c0.3,0,0.6-0.1,0.6-0.8v-0.9c-0.2,0.2-0.5,0.4-0.9,0.4
			c-0.4,0-1.2-0.1-1.2-2v-1.4c0-1.8,0.8-1.9,1.2-1.9c0.5,0,0.8,0.3,0.9,0.6l0.1-0.5h0.8V47c0,1.2-0.5,2-1.5,2
			c-0.7,0-1.3-0.2-1.3-1.1c0-0.1,0-0.2,0.1-0.3H167.8z M168.8,45.9v-3c-0.1-0.2-0.3-0.4-0.5-0.4c-0.3,0-0.5,0.2-0.5,1v1.8
			c0,0.8,0.2,1,0.5,1C168.6,46.3,168.8,46.1,168.8,45.9z"/>
		<path id="XMLID_18_" class="st1" d="M170.9,41.8h0.8l0.1,0.6v0c0.3-0.5,0.7-0.7,1.1-0.7c0.6,0,1,0.5,1,1.3v4.2h-1v-4.1
			c0-0.5-0.2-0.6-0.4-0.6c-0.2,0-0.4,0.1-0.6,0.4v4.4h-1V41.8z"/>
		<path id="XMLID_20_" class="st1" d="M174.8,45v-1c0-2.1,1-2.3,1.6-2.3c0.7,0,1.4,0.4,1.4,1.7c0,0.4-0.1,0.9-0.1,1.3h-1.8v0.6
			c0,1,0.1,1.3,0.6,1.3c0.2,0,0.5-0.2,0.5-0.8v-0.2h0.8v0.2c0,1-0.5,1.5-1.4,1.5C175.3,47.3,174.8,46.7,174.8,45z M176.8,44.1
			c0-0.1,0-0.4,0-0.6c0-0.7-0.2-1-0.5-1c-0.4,0-0.5,0.3-0.5,1.2v0.3H176.8z"/>
	</g>
</g>
</svg>
