<?xml version="1.0" encoding="utf-8"?>
<!-- Generator: Adobe Illustrator 19.0.0, SVG Export Plug-In . SVG Version: 6.00 Build 0)  -->
<svg version="1.1" id="Calque_1" xmlns="http://www.w3.org/2000/svg" xmlns:xlink="http://www.w3.org/1999/xlink" x="0px" y="0px"
	 viewBox="0 0 167 134" style="enable-background:new 0 0 167 134;" xml:space="preserve">
<style type="text/css">
	.st0{opacity:0.2;fill:#3C63AA;}
	.st1{fill:#3C63AA;}
	.st2{fill:none;stroke:#3C63AA;stroke-miterlimit:10;}
</style>
<g id="XMLID_3967_">
	<circle id="XMLID_3972_" class="st0" cx="100.1" cy="67.1" r="50"/>
	<circle id="XMLID_3971_" class="st0" cx="100.1" cy="67.1" r="37.5"/>
	<circle id="XMLID_3970_" class="st0" cx="100.1" cy="67.1" r="25"/>
	<circle id="XMLID_3969_" class="st0" cx="100.1" cy="67.1" r="12.5"/>
	<circle id="XMLID_3968_" class="st0" cx="100.1" cy="67.1" r="6.2"/>
</g>
<g id="XMLID_185_">
	<path id="XMLID_186_" class="st1" d="M25.3,23.4h-1.1v-0.8h1.1v-1.2h0.8v1.2h1.1v0.8h-1.1v1.3h-0.8V23.4z"/>
	<path id="XMLID_188_" class="st1" d="M29.6,25.4h0.8v-4.6l-0.8,0.7l-0.4-0.5l1.5-1.6h0.8l0,0l0,0v5.9h0.8v0.8h-2.5V25.4z"/>
	<path id="XMLID_190_" class="st1" d="M32.7,21.4c0-1.8,1-2,1.6-2c0.6,0,1.6,0.2,1.6,2v2.8c0,1.8-1.1,2-1.6,2c-0.6,0-1.6-0.2-1.6-2
		V21.4z M34.3,25.4c0.4,0,0.6-0.2,0.6-0.8V21c0-0.6-0.2-0.8-0.6-0.8c-0.4,0-0.6,0.3-0.6,0.8v3.6C33.7,25.2,33.9,25.4,34.3,25.4z"/>
	<path id="XMLID_193_" class="st1" d="M36.8,21.4c0-1.8,1-2,1.6-2c0.6,0,1.6,0.2,1.6,2v2.8c0,1.8-1.1,2-1.6,2c-0.6,0-1.6-0.2-1.6-2
		V21.4z M38.4,25.4c0.4,0,0.6-0.2,0.6-0.8V21c0-0.6-0.2-0.8-0.6-0.8c-0.4,0-0.6,0.3-0.6,0.8v3.6C37.8,25.2,38,25.4,38.4,25.4z"/>
</g>
<g id="XMLID_170_">
	<path id="XMLID_171_" class="st1" d="M17.3,32c0-1.8,1.1-2,1.7-2c1.1,0,1.5,0.6,1.5,1.3c0,0.2,0,0.4-0.1,0.6h-0.8v-0.2
		c0-0.8-0.2-1-0.6-1c-0.4,0-0.7,0.3-0.7,1v1.3c0.2-0.2,0.5-0.4,0.9-0.4c0.6,0,1.3,0.3,1.3,1.6v0.6c0,1.4-0.6,1.9-1.6,1.9
		c-1.1,0-1.7-0.6-1.7-2V32z M18.9,36c0.4,0,0.6-0.3,0.6-0.9v-1c0-0.6-0.2-0.9-0.6-0.9c-0.3,0-0.5,0.2-0.6,0.4v1.4
		C18.3,35.7,18.5,36,18.9,36z"/>
	<path id="XMLID_174_" class="st1" d="M21.4,32c0-1.8,1-2,1.6-2c0.6,0,1.6,0.2,1.6,2v2.8c0,1.8-1.1,2-1.6,2c-0.6,0-1.6-0.2-1.6-2V32
		z M23,36c0.4,0,0.6-0.2,0.6-0.8v-3.6c0-0.6-0.2-0.8-0.6-0.8c-0.4,0-0.6,0.3-0.6,0.8v3.6C22.4,35.7,22.6,36,23,36z"/>
	<path id="XMLID_177_" class="st1" d="M27.2,33.2h2.9V34h-2.9V33.2z"/>
	<path id="XMLID_179_" class="st1" d="M36,34.8c0,1.8-1.1,2-1.7,2c-1.1,0-1.5-0.6-1.5-1.3c0-0.2,0-0.4,0.1-0.6h0.8V35
		c0,0.8,0.2,1,0.7,1c0.4,0,0.7-0.3,0.7-1v-1.2c-0.2,0.2-0.5,0.4-0.9,0.4c-0.6,0-1.3-0.3-1.3-1.6v-0.6c0-1.4,0.6-1.9,1.6-1.9
		c1.1,0,1.7,0.5,1.7,2V34.8z M34.3,30.7c-0.4,0-0.6,0.3-0.6,0.9v1c0,0.6,0.2,0.9,0.6,0.9c0.3,0,0.5-0.2,0.6-0.4v-1.6
		C34.9,30.9,34.7,30.7,34.3,30.7z"/>
	<path id="XMLID_182_" class="st1" d="M40,34.8c0,1.8-1.1,2-1.7,2c-1.1,0-1.5-0.6-1.5-1.3c0-0.2,0-0.4,0.1-0.6h0.8V35
		c0,0.8,0.2,1,0.7,1c0.4,0,0.7-0.3,0.7-1v-1.2c-0.2,0.2-0.5,0.4-0.9,0.4c-0.6,0-1.3-0.3-1.3-1.6v-0.6c0-1.4,0.6-1.9,1.6-1.9
		c1.1,0,1.7,0.5,1.7,2V34.8z M38.3,30.7c-0.4,0-0.6,0.3-0.6,0.9v1c0,0.6,0.2,0.9,0.6,0.9c0.3,0,0.5-0.2,0.6-0.4v-1.6
		C39,30.9,38.8,30.7,38.3,30.7z"/>
</g>
<g id="XMLID_139_">
	<path id="XMLID_140_" class="st1" d="M17,46.6l1.9-4.9h1.2v4.7h0.6v0.8h-0.6v1.2h-0.9v-1.2H17V46.6z M19.2,46.3v-1l0.1-2.5h-0.1
		L18,46.3H19.2z"/>
	<path id="XMLID_143_" class="st1" d="M21.4,43.5c0-1.8,1-2,1.6-2c0.6,0,1.6,0.2,1.6,2v2.8c0,1.8-1.1,2-1.6,2c-0.6,0-1.6-0.2-1.6-2
		V43.5z M23,47.6c0.4,0,0.6-0.2,0.6-0.8v-3.6c0-0.6-0.2-0.8-0.6-0.8c-0.4,0-0.6,0.3-0.6,0.8v3.6C22.4,47.3,22.6,47.6,23,47.6z"/>
	<path id="XMLID_146_" class="st1" d="M27.3,44.8h2.9v0.8h-2.9V44.8z"/>
	<path id="XMLID_148_" class="st1" d="M33,46.1h0.8v0.5c0,0.6,0.2,0.9,0.6,0.9c0.4,0,0.6-0.3,0.6-0.9v-1.3c0-0.7-0.2-0.8-0.6-0.8
		c-0.3,0-0.5,0.2-0.6,0.4H33v-3.4h2.9v0.9h-2v1.6c0.2-0.2,0.6-0.4,0.9-0.4c0.8,0,1.2,0.6,1.2,1.6v1.1c0,1.4-0.8,1.8-1.6,1.8
		c-1,0-1.5-0.6-1.5-1.4C32.9,46.7,32.9,46.4,33,46.1z"/>
	<path id="XMLID_167_" class="st1" d="M40,46.3c0,1.8-1.1,2-1.7,2c-1.1,0-1.5-0.6-1.5-1.3c0-0.2,0-0.4,0.1-0.6h0.8v0.1
		c0,0.8,0.2,1,0.7,1c0.4,0,0.7-0.3,0.7-1v-1.2c-0.2,0.2-0.5,0.4-0.9,0.4c-0.6,0-1.3-0.3-1.3-1.6v-0.6c0-1.4,0.6-1.9,1.6-1.9
		c1.1,0,1.7,0.5,1.7,2V46.3z M38.3,42.3c-0.4,0-0.6,0.3-0.6,0.9v1c0,0.6,0.2,0.9,0.6,0.9c0.3,0,0.5-0.2,0.6-0.4v-1.6
		C39,42.5,38.8,42.3,38.3,42.3z"/>
</g>
<g id="XMLID_126_">
	<path id="XMLID_127_" class="st1" d="M23.2,69.7H24v-4.6l-0.8,0.7l-0.4-0.5l1.5-1.6H25l0,0l0,0v5.9h0.8v0.8h-2.5V69.7z"/>
	<path id="XMLID_132_" class="st1" d="M28.1,67H31v0.8h-2.9V67z"/>
	<path id="XMLID_134_" class="st1" d="M33.8,69.7h0.8v-4.6l-0.8,0.7l-0.4-0.5l1.5-1.6h0.8l0,0l0,0v5.9h0.8v0.8h-2.5V69.7z"/>
	<path id="XMLID_136_" class="st1" d="M40,68.5c0,1.8-1.1,2-1.7,2c-1.1,0-1.5-0.6-1.5-1.3c0-0.2,0-0.4,0.1-0.6h0.8v0.1
		c0,0.8,0.2,1,0.7,1c0.4,0,0.7-0.3,0.7-1v-1.2c-0.2,0.2-0.5,0.4-0.9,0.4c-0.6,0-1.3-0.3-1.3-1.6v-0.6c0-1.4,0.6-1.9,1.6-1.9
		c1.1,0,1.7,0.5,1.7,2V68.5z M38.3,64.4c-0.4,0-0.6,0.3-0.6,0.9v1c0,0.6,0.2,0.9,0.6,0.9c0.3,0,0.5-0.2,0.6-0.4v-1.6
		C39,64.6,38.8,64.4,38.3,64.4z"/>
</g>
<line id="XMLID_3951_" class="st2" x1="44.5" y1="22" x2="100.5" y2="22"/>
<line id="XMLID_3950_" class="st2" x1="44.5" y1="33" x2="100.5" y2="33"/>
<line id="XMLID_3949_" class="st2" x1="44.5" y1="45" x2="100.5" y2="45"/>
<g id="XMLID_4_">
	<path id="XMLID_5_" class="st1" d="M17.5,58.7l1.5-2.8c0.5-1,0.7-1.5,0.7-1.8c0-0.5-0.2-0.7-0.6-0.7c-0.5,0-0.7,0.4-0.7,1.1v0.4
		h-0.8c-0.1-0.3-0.1-0.5-0.1-0.8c0-0.7,0.5-1.4,1.5-1.4c1.2,0,1.6,0.6,1.6,1.5c0,0.5-0.2,1-0.7,1.9l-1.3,2.5h1.9v0.8h-3.1V58.7z"/>
	<path id="XMLID_115_" class="st1" d="M21.4,54.5c0-1.8,1-2,1.6-2c0.6,0,1.6,0.2,1.6,2v2.8c0,1.8-1.1,2-1.6,2c-0.6,0-1.6-0.2-1.6-2
		V54.5z M23,58.6c0.4,0,0.6-0.2,0.6-0.8v-3.6c0-0.6-0.2-0.8-0.6-0.8c-0.4,0-0.6,0.3-0.6,0.8v3.6C22.4,58.3,22.6,58.6,23,58.6z"/>
	<path id="XMLID_118_" class="st1" d="M27.3,55.8h2.9v0.8h-2.9V55.8z"/>
	<path id="XMLID_120_" class="st1" d="M32.9,57.1h0.8v0.3c0,0.8,0.3,1.1,0.7,1.1c0.4,0,0.6-0.2,0.6-0.8v-0.7c0-0.6-0.2-0.9-0.7-0.9
		h-0.4v-0.7h0.4c0.3,0,0.6-0.2,0.6-0.8V54c0-0.5-0.2-0.7-0.6-0.7c-0.4,0-0.7,0.4-0.7,1.1v0.4h-0.8c-0.1-0.3-0.1-0.5-0.1-0.8
		c0-0.7,0.5-1.4,1.5-1.4c1.1,0,1.6,0.5,1.6,1.5v0.4c0,0.8-0.4,1.2-0.8,1.4v0c0.5,0.2,0.9,0.5,0.9,1.4v0.4c0,1.2-0.8,1.7-1.7,1.7
		c-1,0-1.6-0.5-1.6-1.4C32.8,57.7,32.8,57.4,32.9,57.1z"/>
	<path id="XMLID_122_" class="st1" d="M40,57.3c0,1.8-1.1,2-1.7,2c-1.1,0-1.5-0.6-1.5-1.3c0-0.2,0-0.4,0.1-0.6h0.8v0.1
		c0,0.8,0.2,1,0.7,1c0.4,0,0.7-0.3,0.7-1v-1.2c-0.2,0.2-0.5,0.4-0.9,0.4c-0.6,0-1.3-0.3-1.3-1.6v-0.6c0-1.4,0.6-1.9,1.6-1.9
		c1.1,0,1.7,0.5,1.7,2V57.3z M38.3,53.3c-0.4,0-0.6,0.3-0.6,0.9v1c0,0.6,0.2,0.9,0.6,0.9c0.3,0,0.5-0.2,0.6-0.4v-1.6
		C39,53.5,38.8,53.3,38.3,53.3z"/>
</g>
<line id="XMLID_3946_" class="st2" x1="44.5" y1="56" x2="100.5" y2="56"/>
<line id="XMLID_3945_" class="st2" x1="44.5" y1="67" x2="100.5" y2="67"/>
</svg>
